<?xml version="1.0" standalone="no"?>
 <!DOCTYPE svg PUBLIC "-//W3C//DTD SVG 1.1//EN" 
 "http://www.w3.org/Graphics/SVG/1.1/DTD/svg11.dtd"> 
<svg xmlns="http://www.w3.org/2000/svg" version="1.1" 
    width="29.7002cm" height="21.0007cm" viewBox="0 0 116930 82680 ">
<title>SVG Picture created as ReversingCam_FSAV433_ATTINY85_v3.2-B_SilkS.svg date 2020/04/28 16:30:18 </title>
  <desc>Picture generated by PCBNEW </desc>
<g style="fill:#000000; fill-opacity:1;stroke:#000000; stroke-opacity:1;
stroke-linecap:round; stroke-linejoin:round; "
 transform="translate(0 0) scale(1 1)">
</g>
<g style="fill:#000000; fill-opacity:0.0; 
stroke:#000000; stroke-width:-0.000393701; stroke-opacity:1; 
stroke-linecap:round; stroke-linejoin:round;">
</g>
<g style="fill:#000000; fill-opacity:0.0; 
stroke:#000000; stroke-width:39.3701; stroke-opacity:1; 
stroke-linecap:round; stroke-linejoin:round;">
</g>
<g style="fill:#000000; fill-opacity:0.0; 
stroke:#000000; stroke-width:59.0551; stroke-opacity:1; 
stroke-linecap:round; stroke-linejoin:round;">
<rect x="69685.9" y="65357.2" width="42519.7" height="12598.4" rx="0" />
</g>
<g style="fill:#000000; fill-opacity:0.0; 
stroke:#000000; stroke-width:39.3701; stroke-opacity:1; 
stroke-linecap:round; stroke-linejoin:round;">
</g>
<g style="fill:#000000; fill-opacity:0.0; 
stroke:#000000; stroke-width:59.0551; stroke-opacity:1; 
stroke-linecap:round; stroke-linejoin:round;">
<rect x="3937.01" y="3937.01" width="109056" height="74806" rx="0" />
</g>
<g style="fill:#000000; fill-opacity:0.0; 
stroke:#000000; stroke-width:39.3701; stroke-opacity:1; 
stroke-linecap:round; stroke-linejoin:round;">
</g>
<g style="fill:#000000; fill-opacity:0.0; 
stroke:#000000; stroke-width:59.0551; stroke-opacity:1; 
stroke-linecap:round; stroke-linejoin:round;">
<rect x="4724.41" y="4724.41" width="107481" height="73231.2" rx="0" />
</g>
<g style="fill:#000000; fill-opacity:0.0; 
stroke:#000000; stroke-width:39.3701; stroke-opacity:1; 
stroke-linecap:round; stroke-linejoin:round;">
</g>
<g style="fill:#000000; fill-opacity:0.0; 
stroke:#000000; stroke-width:59.0551; stroke-opacity:1; 
stroke-linecap:round; stroke-linejoin:round;">
<path d="M23622 4724
L23622 3937
" />
</g>
<g style="fill:#000000; fill-opacity:0.0; 
stroke:#000000; stroke-width:39.3701; stroke-opacity:1; 
stroke-linecap:round; stroke-linejoin:round;">
</g>
<g style="fill:#000000; fill-opacity:0.0; 
stroke:#000000; stroke-width:59.0551; stroke-opacity:1; 
stroke-linecap:round; stroke-linejoin:round;">
<path d="M43307 4724
L43307 3937
" />
</g>
<g style="fill:#000000; fill-opacity:0.0; 
stroke:#000000; stroke-width:39.3701; stroke-opacity:1; 
stroke-linecap:round; stroke-linejoin:round;">
</g>
<g style="fill:#000000; fill-opacity:0.0; 
stroke:#000000; stroke-width:59.0551; stroke-opacity:1; 
stroke-linecap:round; stroke-linejoin:round;">
<path d="M62992 4724
L62992 3937
" />
</g>
<g style="fill:#000000; fill-opacity:0.0; 
stroke:#000000; stroke-width:39.3701; stroke-opacity:1; 
stroke-linecap:round; stroke-linejoin:round;">
</g>
<g style="fill:#000000; fill-opacity:0.0; 
stroke:#000000; stroke-width:59.0551; stroke-opacity:1; 
stroke-linecap:round; stroke-linejoin:round;">
<path d="M82677 4724
L82677 3937
" />
</g>
<g style="fill:#000000; fill-opacity:0.0; 
stroke:#000000; stroke-width:39.3701; stroke-opacity:1; 
stroke-linecap:round; stroke-linejoin:round;">
</g>
<g style="fill:#000000; fill-opacity:0.0; 
stroke:#000000; stroke-width:59.0551; stroke-opacity:1; 
stroke-linecap:round; stroke-linejoin:round;">
<path d="M102362 4724
L102362 3937
" />
</g>
<g style="fill:#000000; fill-opacity:0.0; 
stroke:#000000; stroke-width:39.3701; stroke-opacity:1; 
stroke-linecap:round; stroke-linejoin:round;">
</g>
<g style="fill:#000000; fill-opacity:0.0; 
stroke:#000000; stroke-width:59.0551; stroke-opacity:1; 
stroke-linecap:round; stroke-linejoin:round;">
<text x="13779.5" y="4586.61"
textLength="546.494" font-size="682.415" lengthAdjust="spacingAndGlyphs"
text-anchor="start" opacity="0">1</text>
<path d="M14199 4562
L13906 4562
" />
<path d="M14052 4562
L14052 4050
L14004 4123
L13955 4172
L13906 4196
" />
</g>
<g style="fill:#000000; fill-opacity:0.0; 
stroke:#000000; stroke-width:39.3701; stroke-opacity:1; 
stroke-linecap:round; stroke-linejoin:round;">
</g>
<g style="fill:#000000; fill-opacity:0.0; 
stroke:#000000; stroke-width:59.0551; stroke-opacity:1; 
stroke-linecap:round; stroke-linejoin:round;">
<text x="33464.6" y="4586.61"
textLength="546.494" font-size="682.415" lengthAdjust="spacingAndGlyphs"
text-anchor="start" opacity="0">2</text>
<path d="M33591 4099
L33615 4074
L33664 4050
L33786 4050
L33835 4074
L33859 4099
L33884 4147
L33884 4196
L33859 4269
L33567 4562
L33884 4562
" />
</g>
<g style="fill:#000000; fill-opacity:0.0; 
stroke:#000000; stroke-width:39.3701; stroke-opacity:1; 
stroke-linecap:round; stroke-linejoin:round;">
</g>
<g style="fill:#000000; fill-opacity:0.0; 
stroke:#000000; stroke-width:59.0551; stroke-opacity:1; 
stroke-linecap:round; stroke-linejoin:round;">
<text x="53149.6" y="4586.61"
textLength="546.494" font-size="682.415" lengthAdjust="spacingAndGlyphs"
text-anchor="start" opacity="0">3</text>
<path d="M53252 4050
L53569 4050
L53398 4245
L53471 4245
L53520 4269
L53544 4294
L53569 4342
L53569 4464
L53544 4513
L53520 4537
L53471 4562
L53325 4562
L53276 4537
L53252 4513
" />
</g>
<g style="fill:#000000; fill-opacity:0.0; 
stroke:#000000; stroke-width:39.3701; stroke-opacity:1; 
stroke-linecap:round; stroke-linejoin:round;">
</g>
<g style="fill:#000000; fill-opacity:0.0; 
stroke:#000000; stroke-width:59.0551; stroke-opacity:1; 
stroke-linecap:round; stroke-linejoin:round;">
<text x="72834.6" y="4586.61"
textLength="546.494" font-size="682.415" lengthAdjust="spacingAndGlyphs"
text-anchor="start" opacity="0">4</text>
<path d="M73205 4221
L73205 4562
" />
<path d="M73083 4026
L72961 4391
L73278 4391
" />
</g>
<g style="fill:#000000; fill-opacity:0.0; 
stroke:#000000; stroke-width:39.3701; stroke-opacity:1; 
stroke-linecap:round; stroke-linejoin:round;">
</g>
<g style="fill:#000000; fill-opacity:0.0; 
stroke:#000000; stroke-width:59.0551; stroke-opacity:1; 
stroke-linecap:round; stroke-linejoin:round;">
<text x="92519.7" y="4586.61"
textLength="546.494" font-size="682.415" lengthAdjust="spacingAndGlyphs"
text-anchor="start" opacity="0">5</text>
<path d="M92914 4050
L92671 4050
L92646 4294
L92671 4269
L92719 4245
L92841 4245
L92890 4269
L92914 4294
L92939 4342
L92939 4464
L92914 4513
L92890 4537
L92841 4562
L92719 4562
L92671 4537
L92646 4513
" />
</g>
<g style="fill:#000000; fill-opacity:0.0; 
stroke:#000000; stroke-width:39.3701; stroke-opacity:1; 
stroke-linecap:round; stroke-linejoin:round;">
</g>
<g style="fill:#000000; fill-opacity:0.0; 
stroke:#000000; stroke-width:59.0551; stroke-opacity:1; 
stroke-linecap:round; stroke-linejoin:round;">
<text x="112205" y="4586.61"
textLength="546.494" font-size="682.415" lengthAdjust="spacingAndGlyphs"
text-anchor="start" opacity="0">6</text>
<path d="M112575 4050
L112477 4050
L112429 4074
L112404 4099
L112356 4172
L112331 4269
L112331 4464
L112356 4513
L112380 4537
L112429 4562
L112526 4562
L112575 4537
L112599 4513
L112624 4464
L112624 4342
L112599 4294
L112575 4269
L112526 4245
L112429 4245
L112380 4269
L112356 4294
L112331 4342
" />
</g>
<g style="fill:#000000; fill-opacity:0.0; 
stroke:#000000; stroke-width:39.3701; stroke-opacity:1; 
stroke-linecap:round; stroke-linejoin:round;">
</g>
<g style="fill:#000000; fill-opacity:0.0; 
stroke:#000000; stroke-width:59.0551; stroke-opacity:1; 
stroke-linecap:round; stroke-linejoin:round;">
<path d="M23622 77955
L23622 78742
" />
</g>
<g style="fill:#000000; fill-opacity:0.0; 
stroke:#000000; stroke-width:39.3701; stroke-opacity:1; 
stroke-linecap:round; stroke-linejoin:round;">
</g>
<g style="fill:#000000; fill-opacity:0.0; 
stroke:#000000; stroke-width:59.0551; stroke-opacity:1; 
stroke-linecap:round; stroke-linejoin:round;">
<path d="M43307 77955
L43307 78742
" />
</g>
<g style="fill:#000000; fill-opacity:0.0; 
stroke:#000000; stroke-width:39.3701; stroke-opacity:1; 
stroke-linecap:round; stroke-linejoin:round;">
</g>
<g style="fill:#000000; fill-opacity:0.0; 
stroke:#000000; stroke-width:59.0551; stroke-opacity:1; 
stroke-linecap:round; stroke-linejoin:round;">
<path d="M62992 77955
L62992 78742
" />
</g>
<g style="fill:#000000; fill-opacity:0.0; 
stroke:#000000; stroke-width:39.3701; stroke-opacity:1; 
stroke-linecap:round; stroke-linejoin:round;">
</g>
<g style="fill:#000000; fill-opacity:0.0; 
stroke:#000000; stroke-width:59.0551; stroke-opacity:1; 
stroke-linecap:round; stroke-linejoin:round;">
<path d="M82677 77955
L82677 78742
" />
</g>
<g style="fill:#000000; fill-opacity:0.0; 
stroke:#000000; stroke-width:39.3701; stroke-opacity:1; 
stroke-linecap:round; stroke-linejoin:round;">
</g>
<g style="fill:#000000; fill-opacity:0.0; 
stroke:#000000; stroke-width:59.0551; stroke-opacity:1; 
stroke-linecap:round; stroke-linejoin:round;">
<path d="M102362 77955
L102362 78742
" />
</g>
<g style="fill:#000000; fill-opacity:0.0; 
stroke:#000000; stroke-width:39.3701; stroke-opacity:1; 
stroke-linecap:round; stroke-linejoin:round;">
</g>
<g style="fill:#000000; fill-opacity:0.0; 
stroke:#000000; stroke-width:59.0551; stroke-opacity:1; 
stroke-linecap:round; stroke-linejoin:round;">
<text x="13779.5" y="78605.2"
textLength="546.494" font-size="682.415" lengthAdjust="spacingAndGlyphs"
text-anchor="start" opacity="0">1</text>
<path d="M14199 78580
L13906 78580
" />
<path d="M14052 78580
L14052 78069
L14004 78142
L13955 78190
L13906 78215
" />
</g>
<g style="fill:#000000; fill-opacity:0.0; 
stroke:#000000; stroke-width:39.3701; stroke-opacity:1; 
stroke-linecap:round; stroke-linejoin:round;">
</g>
<g style="fill:#000000; fill-opacity:0.0; 
stroke:#000000; stroke-width:59.0551; stroke-opacity:1; 
stroke-linecap:round; stroke-linejoin:round;">
<text x="33464.6" y="78605.2"
textLength="546.494" font-size="682.415" lengthAdjust="spacingAndGlyphs"
text-anchor="start" opacity="0">2</text>
<path d="M33591 78117
L33615 78093
L33664 78069
L33786 78069
L33835 78093
L33859 78117
L33884 78166
L33884 78215
L33859 78288
L33567 78580
L33884 78580
" />
</g>
<g style="fill:#000000; fill-opacity:0.0; 
stroke:#000000; stroke-width:39.3701; stroke-opacity:1; 
stroke-linecap:round; stroke-linejoin:round;">
</g>
<g style="fill:#000000; fill-opacity:0.0; 
stroke:#000000; stroke-width:59.0551; stroke-opacity:1; 
stroke-linecap:round; stroke-linejoin:round;">
<text x="53149.6" y="78605.2"
textLength="546.494" font-size="682.415" lengthAdjust="spacingAndGlyphs"
text-anchor="start" opacity="0">3</text>
<path d="M53252 78069
L53569 78069
L53398 78263
L53471 78263
L53520 78288
L53544 78312
L53569 78361
L53569 78483
L53544 78532
L53520 78556
L53471 78580
L53325 78580
L53276 78556
L53252 78532
" />
</g>
<g style="fill:#000000; fill-opacity:0.0; 
stroke:#000000; stroke-width:39.3701; stroke-opacity:1; 
stroke-linecap:round; stroke-linejoin:round;">
</g>
<g style="fill:#000000; fill-opacity:0.0; 
stroke:#000000; stroke-width:59.0551; stroke-opacity:1; 
stroke-linecap:round; stroke-linejoin:round;">
<text x="72834.6" y="78605.2"
textLength="546.494" font-size="682.415" lengthAdjust="spacingAndGlyphs"
text-anchor="start" opacity="0">4</text>
<path d="M73205 78239
L73205 78580
" />
<path d="M73083 78044
L72961 78410
L73278 78410
" />
</g>
<g style="fill:#000000; fill-opacity:0.0; 
stroke:#000000; stroke-width:39.3701; stroke-opacity:1; 
stroke-linecap:round; stroke-linejoin:round;">
</g>
<g style="fill:#000000; fill-opacity:0.0; 
stroke:#000000; stroke-width:59.0551; stroke-opacity:1; 
stroke-linecap:round; stroke-linejoin:round;">
<text x="92519.7" y="78605.2"
textLength="546.494" font-size="682.415" lengthAdjust="spacingAndGlyphs"
text-anchor="start" opacity="0">5</text>
<path d="M92914 78069
L92671 78069
L92646 78312
L92671 78288
L92719 78263
L92841 78263
L92890 78288
L92914 78312
L92939 78361
L92939 78483
L92914 78532
L92890 78556
L92841 78580
L92719 78580
L92671 78556
L92646 78532
" />
</g>
<g style="fill:#000000; fill-opacity:0.0; 
stroke:#000000; stroke-width:39.3701; stroke-opacity:1; 
stroke-linecap:round; stroke-linejoin:round;">
</g>
<g style="fill:#000000; fill-opacity:0.0; 
stroke:#000000; stroke-width:59.0551; stroke-opacity:1; 
stroke-linecap:round; stroke-linejoin:round;">
<text x="112205" y="78605.2"
textLength="546.494" font-size="682.415" lengthAdjust="spacingAndGlyphs"
text-anchor="start" opacity="0">6</text>
<path d="M112575 78069
L112477 78069
L112429 78093
L112404 78117
L112356 78190
L112331 78288
L112331 78483
L112356 78532
L112380 78556
L112429 78580
L112526 78580
L112575 78556
L112599 78532
L112624 78483
L112624 78361
L112599 78312
L112575 78288
L112526 78263
L112429 78263
L112380 78288
L112356 78312
L112331 78361
" />
</g>
<g style="fill:#000000; fill-opacity:0.0; 
stroke:#000000; stroke-width:39.3701; stroke-opacity:1; 
stroke-linecap:round; stroke-linejoin:round;">
</g>
<g style="fill:#000000; fill-opacity:0.0; 
stroke:#000000; stroke-width:59.0551; stroke-opacity:1; 
stroke-linecap:round; stroke-linejoin:round;">
<path d="M3937 23622
L4724 23622
" />
</g>
<g style="fill:#000000; fill-opacity:0.0; 
stroke:#000000; stroke-width:39.3701; stroke-opacity:1; 
stroke-linecap:round; stroke-linejoin:round;">
</g>
<g style="fill:#000000; fill-opacity:0.0; 
stroke:#000000; stroke-width:59.0551; stroke-opacity:1; 
stroke-linecap:round; stroke-linejoin:round;">
<path d="M3937 43307
L4724 43307
" />
</g>
<g style="fill:#000000; fill-opacity:0.0; 
stroke:#000000; stroke-width:39.3701; stroke-opacity:1; 
stroke-linecap:round; stroke-linejoin:round;">
</g>
<g style="fill:#000000; fill-opacity:0.0; 
stroke:#000000; stroke-width:59.0551; stroke-opacity:1; 
stroke-linecap:round; stroke-linejoin:round;">
<path d="M3937 62992
L4724 62992
" />
</g>
<g style="fill:#000000; fill-opacity:0.0; 
stroke:#000000; stroke-width:39.3701; stroke-opacity:1; 
stroke-linecap:round; stroke-linejoin:round;">
</g>
<g style="fill:#000000; fill-opacity:0.0; 
stroke:#000000; stroke-width:59.0551; stroke-opacity:1; 
stroke-linecap:round; stroke-linejoin:round;">
<text x="4330.71" y="14035.4"
textLength="497.75" font-size="682.415" lengthAdjust="spacingAndGlyphs"
text-anchor="middle" opacity="0">A</text>
<path d="M4208 13864
L4452 13864
" />
<path d="M4160 14011
L4330 13499
L4501 14011
" />
</g>
<g style="fill:#000000; fill-opacity:0.0; 
stroke:#000000; stroke-width:39.3701; stroke-opacity:1; 
stroke-linecap:round; stroke-linejoin:round;">
</g>
<g style="fill:#000000; fill-opacity:0.0; 
stroke:#000000; stroke-width:59.0551; stroke-opacity:1; 
stroke-linecap:round; stroke-linejoin:round;">
<text x="4330.71" y="33720.5"
textLength="570.866" font-size="682.415" lengthAdjust="spacingAndGlyphs"
text-anchor="middle" opacity="0">B</text>
<path d="M4367 33428
L4440 33452
L4464 33476
L4489 33525
L4489 33598
L4464 33647
L4440 33671
L4391 33696
L4196 33696
L4196 33184
L4367 33184
L4416 33208
L4440 33233
L4464 33281
L4464 33330
L4440 33379
L4416 33403
L4367 33428
L4196 33428
" />
</g>
<g style="fill:#000000; fill-opacity:0.0; 
stroke:#000000; stroke-width:39.3701; stroke-opacity:1; 
stroke-linecap:round; stroke-linejoin:round;">
</g>
<g style="fill:#000000; fill-opacity:0.0; 
stroke:#000000; stroke-width:59.0551; stroke-opacity:1; 
stroke-linecap:round; stroke-linejoin:round;">
<text x="4330.71" y="53405.5"
textLength="570.866" font-size="682.415" lengthAdjust="spacingAndGlyphs"
text-anchor="middle" opacity="0">C</text>
<path d="M4489 53332
L4464 53356
L4391 53381
L4342 53381
L4269 53356
L4221 53308
L4196 53259
L4172 53161
L4172 53088
L4196 52991
L4221 52942
L4269 52893
L4342 52869
L4391 52869
L4464 52893
L4489 52918
" />
</g>
<g style="fill:#000000; fill-opacity:0.0; 
stroke:#000000; stroke-width:39.3701; stroke-opacity:1; 
stroke-linecap:round; stroke-linejoin:round;">
</g>
<g style="fill:#000000; fill-opacity:0.0; 
stroke:#000000; stroke-width:59.0551; stroke-opacity:1; 
stroke-linecap:round; stroke-linejoin:round;">
<text x="4330.71" y="73090.6"
textLength="570.866" font-size="682.415" lengthAdjust="spacingAndGlyphs"
text-anchor="middle" opacity="0">D</text>
<path d="M4196 73066
L4196 72554
L4318 72554
L4391 72578
L4440 72627
L4464 72676
L4489 72773
L4489 72846
L4464 72944
L4440 72993
L4391 73041
L4318 73066
L4196 73066
" />
</g>
<g style="fill:#000000; fill-opacity:0.0; 
stroke:#000000; stroke-width:39.3701; stroke-opacity:1; 
stroke-linecap:round; stroke-linejoin:round;">
</g>
<g style="fill:#000000; fill-opacity:0.0; 
stroke:#000000; stroke-width:59.0551; stroke-opacity:1; 
stroke-linecap:round; stroke-linejoin:round;">
<path d="M112992 23622
L112205 23622
" />
</g>
<g style="fill:#000000; fill-opacity:0.0; 
stroke:#000000; stroke-width:39.3701; stroke-opacity:1; 
stroke-linecap:round; stroke-linejoin:round;">
</g>
<g style="fill:#000000; fill-opacity:0.0; 
stroke:#000000; stroke-width:59.0551; stroke-opacity:1; 
stroke-linecap:round; stroke-linejoin:round;">
<path d="M112992 43307
L112205 43307
" />
</g>
<g style="fill:#000000; fill-opacity:0.0; 
stroke:#000000; stroke-width:39.3701; stroke-opacity:1; 
stroke-linecap:round; stroke-linejoin:round;">
</g>
<g style="fill:#000000; fill-opacity:0.0; 
stroke:#000000; stroke-width:59.0551; stroke-opacity:1; 
stroke-linecap:round; stroke-linejoin:round;">
<path d="M112992 62992
L112205 62992
" />
</g>
<g style="fill:#000000; fill-opacity:0.0; 
stroke:#000000; stroke-width:39.3701; stroke-opacity:1; 
stroke-linecap:round; stroke-linejoin:round;">
</g>
<g style="fill:#000000; fill-opacity:0.0; 
stroke:#000000; stroke-width:59.0551; stroke-opacity:1; 
stroke-linecap:round; stroke-linejoin:round;">
<text x="112599" y="14035.4"
textLength="497.75" font-size="682.415" lengthAdjust="spacingAndGlyphs"
text-anchor="middle" opacity="0">A</text>
<path d="M112477 13864
L112721 13864
" />
<path d="M112428 14011
L112599 13499
L112769 14011
" />
</g>
<g style="fill:#000000; fill-opacity:0.0; 
stroke:#000000; stroke-width:39.3701; stroke-opacity:1; 
stroke-linecap:round; stroke-linejoin:round;">
</g>
<g style="fill:#000000; fill-opacity:0.0; 
stroke:#000000; stroke-width:59.0551; stroke-opacity:1; 
stroke-linecap:round; stroke-linejoin:round;">
<text x="112599" y="33720.5"
textLength="570.866" font-size="682.415" lengthAdjust="spacingAndGlyphs"
text-anchor="middle" opacity="0">B</text>
<path d="M112635 33428
L112708 33452
L112733 33476
L112757 33525
L112757 33598
L112733 33647
L112708 33671
L112660 33696
L112465 33696
L112465 33184
L112635 33184
L112684 33208
L112708 33233
L112733 33281
L112733 33330
L112708 33379
L112684 33403
L112635 33428
L112465 33428
" />
</g>
<g style="fill:#000000; fill-opacity:0.0; 
stroke:#000000; stroke-width:39.3701; stroke-opacity:1; 
stroke-linecap:round; stroke-linejoin:round;">
</g>
<g style="fill:#000000; fill-opacity:0.0; 
stroke:#000000; stroke-width:59.0551; stroke-opacity:1; 
stroke-linecap:round; stroke-linejoin:round;">
<text x="112599" y="53405.5"
textLength="570.866" font-size="682.415" lengthAdjust="spacingAndGlyphs"
text-anchor="middle" opacity="0">C</text>
<path d="M112757 53332
L112733 53356
L112660 53381
L112611 53381
L112538 53356
L112489 53308
L112465 53259
L112440 53161
L112440 53088
L112465 52991
L112489 52942
L112538 52893
L112611 52869
L112660 52869
L112733 52893
L112757 52918
" />
</g>
<g style="fill:#000000; fill-opacity:0.0; 
stroke:#000000; stroke-width:39.3701; stroke-opacity:1; 
stroke-linecap:round; stroke-linejoin:round;">
</g>
<g style="fill:#000000; fill-opacity:0.0; 
stroke:#000000; stroke-width:59.0551; stroke-opacity:1; 
stroke-linecap:round; stroke-linejoin:round;">
<text x="112599" y="73090.6"
textLength="570.866" font-size="682.415" lengthAdjust="spacingAndGlyphs"
text-anchor="middle" opacity="0">D</text>
<path d="M112465 73066
L112465 72554
L112587 72554
L112660 72578
L112708 72627
L112733 72676
L112757 72773
L112757 72846
L112733 72944
L112708 72993
L112660 73041
L112587 73066
L112465 73066
" />
</g>
<g style="fill:#000000; fill-opacity:0.0; 
stroke:#000000; stroke-width:39.3701; stroke-opacity:1; 
stroke-linecap:round; stroke-linejoin:round;">
</g>
<g style="fill:#000000; fill-opacity:0.0; 
stroke:#000000; stroke-width:59.0551; stroke-opacity:1; 
stroke-linecap:round; stroke-linejoin:round;">
<text x="78741" y="76321.7"
textLength="8495.5" font-size="787.402" lengthAdjust="spacingAndGlyphs"
text-anchor="start" opacity="0">Date: 15/04/2020</text>
<path d="M78911 76293
L78911 75703
L79051 75703
L79136 75731
L79192 75787
L79220 75843
L79248 75956
L79248 76040
L79220 76153
L79192 76209
L79136 76265
L79051 76293
L78911 76293
" />
<path d="M79754 76293
L79754 75984
L79726 75928
L79670 75899
L79557 75899
L79501 75928
" />
<path d="M79754 76265
L79698 76293
L79557 76293
L79501 76265
L79473 76209
L79473 76153
L79501 76096
L79557 76068
L79698 76068
L79754 76040
" />
<path d="M79951 75899
L80176 75899
" />
<path d="M80036 75703
L80036 76209
L80064 76265
L80120 76293
L80176 76293
" />
<path d="M80598 76265
L80542 76293
L80429 76293
L80373 76265
L80345 76209
L80345 75984
L80373 75928
L80429 75899
L80542 75899
L80598 75928
L80626 75984
L80626 76040
L80345 76096
" />
<path d="M80879 76237
L80907 76265
L80879 76293
L80851 76265
L80879 76237
L80879 76293
" />
<path d="M80879 75928
L80907 75956
L80879 75984
L80851 75956
L80879 75928
L80879 75984
" />
<path d="M81920 76293
L81582 76293
" />
<path d="M81751 76293
L81751 75703
L81695 75787
L81638 75843
L81582 75871
" />
<path d="M82454 75703
L82173 75703
L82145 75984
L82173 75956
L82229 75928
L82370 75928
L82426 75956
L82454 75984
L82482 76040
L82482 76181
L82454 76237
L82426 76265
L82370 76293
L82229 76293
L82173 76265
L82145 76237
" />
<path d="M83157 75674
L82651 76434
" />
<path d="M83466 75703
L83523 75703
L83579 75731
L83607 75759
L83635 75815
L83663 75928
L83663 76068
L83635 76181
L83607 76237
L83579 76265
L83523 76293
L83466 76293
L83410 76265
L83382 76237
L83354 76181
L83326 76068
L83326 75928
L83354 75815
L83382 75759
L83410 75731
L83466 75703
" />
<path d="M84169 75899
L84169 76293
" />
<path d="M84029 75674
L83888 76096
L84254 76096
" />
<path d="M84901 75674
L84394 76434
" />
<path d="M85069 75759
L85097 75731
L85154 75703
L85294 75703
L85350 75731
L85379 75759
L85407 75815
L85407 75871
L85379 75956
L85041 76293
L85407 76293
" />
<path d="M85772 75703
L85829 75703
L85885 75731
L85913 75759
L85941 75815
L85969 75928
L85969 76068
L85941 76181
L85913 76237
L85885 76265
L85829 76293
L85772 76293
L85716 76265
L85688 76237
L85660 76181
L85632 76068
L85632 75928
L85660 75815
L85688 75759
L85716 75731
L85772 75703
" />
<path d="M86194 75759
L86222 75731
L86278 75703
L86419 75703
L86475 75731
L86503 75759
L86532 75815
L86532 75871
L86503 75956
L86166 76293
L86532 76293
" />
<path d="M86897 75703
L86953 75703
L87010 75731
L87038 75759
L87066 75815
L87094 75928
L87094 76068
L87066 76181
L87038 76237
L87010 76265
L86953 76293
L86897 76293
L86841 76265
L86813 76237
L86785 76181
L86757 76068
L86757 75928
L86785 75815
L86813 75759
L86841 75731
L86897 75703
" />
</g>
<g style="fill:#000000; fill-opacity:0.0; 
stroke:#000000; stroke-width:39.3701; stroke-opacity:1; 
stroke-linecap:round; stroke-linejoin:round;">
</g>
<g style="fill:#000000; fill-opacity:0.0; 
stroke:#000000; stroke-width:59.0551; stroke-opacity:1; 
stroke-linecap:round; stroke-linejoin:round;">
<path d="M69685 76577
L112205 76577
" />
</g>
<g style="fill:#000000; fill-opacity:0.0; 
stroke:#000000; stroke-width:39.3701; stroke-opacity:1; 
stroke-linecap:round; stroke-linejoin:round;">
</g>
<g style="fill:#000000; fill-opacity:0.0; 
stroke:#000000; stroke-width:59.0551; stroke-opacity:1; 
stroke-linecap:round; stroke-linejoin:round;">
<text x="70079.6" y="77424.1"
textLength="14991.6" font-size="787.402" lengthAdjust="spacingAndGlyphs"
text-anchor="start" opacity="0">KiCad E.D.A.  kicad 5.1.5-1.fc31</text>
<path d="M70249 77395
L70249 76805
" />
<path d="M70587 77395
L70334 77058
" />
<path d="M70587 76805
L70249 77142
" />
<path d="M70840 77395
L70840 77002
" />
<path d="M70840 76805
L70812 76833
L70840 76861
L70868 76833
L70840 76805
L70840 76861
" />
<path d="M71458 77339
L71430 77367
L71346 77395
L71290 77395
L71205 77367
L71149 77311
L71121 77255
L71093 77142
L71093 77058
L71121 76946
L71149 76889
L71205 76833
L71290 76805
L71346 76805
L71430 76833
L71458 76861
" />
<path d="M71965 77395
L71965 77086
L71937 77030
L71880 77002
L71768 77002
L71712 77030
" />
<path d="M71965 77367
L71908 77395
L71768 77395
L71712 77367
L71683 77311
L71683 77255
L71712 77199
L71768 77171
L71908 77171
L71965 77142
" />
<path d="M72499 77395
L72499 76805
" />
<path d="M72499 77367
L72443 77395
L72330 77395
L72274 77367
L72246 77339
L72218 77283
L72218 77114
L72246 77058
L72274 77030
L72330 77002
L72443 77002
L72499 77030
" />
<path d="M73230 77086
L73427 77086
" />
<path d="M73511 77395
L73230 77395
L73230 76805
L73511 76805
" />
<path d="M73764 77339
L73793 77367
L73764 77395
L73736 77367
L73764 77339
L73764 77395
" />
<path d="M74046 77395
L74046 76805
L74186 76805
L74271 76833
L74327 76889
L74355 76946
L74383 77058
L74383 77142
L74355 77255
L74327 77311
L74271 77367
L74186 77395
L74046 77395
" />
<path d="M74636 77339
L74664 77367
L74636 77395
L74608 77367
L74636 77339
L74636 77395
" />
<path d="M74889 77227
L75171 77227
" />
<path d="M74833 77395
L75030 76805
L75227 77395
" />
<path d="M75424 77339
L75452 77367
L75424 77395
L75395 77367
L75424 77339
L75424 77395
" />
<path d="M76605 77395
L76605 76805
" />
<path d="M76661 77171
L76830 77395
" />
<path d="M76830 77002
L76605 77227
" />
<path d="M77083 77395
L77083 77002
" />
<path d="M77083 76805
L77055 76833
L77083 76861
L77111 76833
L77083 76805
L77083 76861
" />
<path d="M77617 77367
L77561 77395
L77448 77395
L77392 77367
L77364 77339
L77336 77283
L77336 77114
L77364 77058
L77392 77030
L77448 77002
L77561 77002
L77617 77030
" />
<path d="M78123 77395
L78123 77086
L78095 77030
L78039 77002
L77926 77002
L77870 77030
" />
<path d="M78123 77367
L78067 77395
L77926 77395
L77870 77367
L77842 77311
L77842 77255
L77870 77199
L77926 77171
L78067 77171
L78123 77142
" />
<path d="M78658 77395
L78658 76805
" />
<path d="M78658 77367
L78601 77395
L78489 77395
L78433 77367
L78404 77339
L78376 77283
L78376 77114
L78404 77058
L78433 77030
L78489 77002
L78601 77002
L78658 77030
" />
<path d="M79670 76805
L79389 76805
L79361 77086
L79389 77058
L79445 77030
L79586 77030
L79642 77058
L79670 77086
L79698 77142
L79698 77283
L79670 77339
L79642 77367
L79586 77395
L79445 77395
L79389 77367
L79361 77339
" />
<path d="M79951 77339
L79979 77367
L79951 77395
L79923 77367
L79951 77339
L79951 77395
" />
<path d="M80542 77395
L80204 77395
" />
<path d="M80373 77395
L80373 76805
L80317 76889
L80260 76946
L80204 76974
" />
<path d="M80795 77339
L80823 77367
L80795 77395
L80767 77367
L80795 77339
L80795 77395
" />
<path d="M81357 76805
L81076 76805
L81048 77086
L81076 77058
L81132 77030
L81273 77030
L81329 77058
L81357 77086
L81385 77142
L81385 77283
L81357 77339
L81329 77367
L81273 77395
L81132 77395
L81076 77367
L81048 77339
" />
<path d="M81638 77171
L82088 77171
" />
<path d="M82679 77395
L82341 77395
" />
<path d="M82510 77395
L82510 76805
L82454 76889
L82398 76946
L82341 76974
" />
<path d="M82932 77339
L82960 77367
L82932 77395
L82904 77367
L82932 77339
L82932 77395
" />
<path d="M83129 77002
L83354 77002
" />
<path d="M83213 77395
L83213 76889
L83241 76833
L83298 76805
L83354 76805
" />
<path d="M83804 77367
L83748 77395
L83635 77395
L83579 77367
L83551 77339
L83523 77283
L83523 77114
L83551 77058
L83579 77030
L83635 77002
L83748 77002
L83804 77030
" />
<path d="M84001 76805
L84366 76805
L84169 77030
L84254 77030
L84310 77058
L84338 77086
L84366 77142
L84366 77283
L84338 77339
L84310 77367
L84254 77395
L84085 77395
L84029 77367
L84001 77339
" />
<path d="M84929 77395
L84591 77395
" />
<path d="M84760 77395
L84760 76805
L84704 76889
L84647 76946
L84591 76974
" />
</g>
<g style="fill:#000000; fill-opacity:0.0; 
stroke:#000000; stroke-width:39.3701; stroke-opacity:1; 
stroke-linecap:round; stroke-linejoin:round;">
</g>
<g style="fill:#000000; fill-opacity:0.0; 
stroke:#000000; stroke-width:59.0551; stroke-opacity:1; 
stroke-linecap:round; stroke-linejoin:round;">
<path d="M69685 75396
L112205 75396
" />
</g>
<g style="fill:#000000; fill-opacity:0.0; 
stroke:#000000; stroke-width:39.3701; stroke-opacity:1; 
stroke-linecap:round; stroke-linejoin:round;">
</g>
<g style="fill:#000000; fill-opacity:0.0; 
stroke:#000000; stroke-width:118.11; stroke-opacity:1; 
stroke-linecap:round; stroke-linejoin:round;">
<text x="103544" y="76321.7"
textLength="4249.16" font-size="787.402" lengthAdjust="spacingAndGlyphs"
text-anchor="start" opacity="0">Rev: V3.2</text>
<path d="M104099 76293
L103902 76012
" />
<path d="M103761 76293
L103761 75703
L103986 75703
L104042 75731
L104070 75759
L104099 75815
L104099 75899
L104070 75956
L104042 75984
L103986 76012
L103761 76012
" />
<path d="M104577 76265
L104520 76293
L104408 76293
L104352 76265
L104323 76209
L104323 75984
L104352 75928
L104408 75899
L104520 75899
L104577 75928
L104605 75984
L104605 76040
L104323 76096
" />
<path d="M104802 75899
L104942 76293
L105083 75899
" />
<path d="M105308 76237
L105336 76265
L105308 76293
L105280 76265
L105308 76237
L105308 76293
" />
<path d="M105308 75928
L105336 75956
L105308 75984
L105280 75956
L105308 75928
L105308 75984
" />
<path d="M105955 75703
L106151 76293
L106348 75703
" />
<path d="M106489 75703
L106854 75703
L106658 75928
L106742 75928
L106798 75956
L106826 75984
L106854 76040
L106854 76181
L106826 76237
L106798 76265
L106742 76293
L106573 76293
L106517 76265
L106489 76237
" />
<path d="M107108 76237
L107136 76265
L107108 76293
L107079 76265
L107108 76237
L107108 76293
" />
<path d="M107361 75759
L107389 75731
L107445 75703
L107586 75703
L107642 75731
L107670 75759
L107698 75815
L107698 75871
L107670 75956
L107332 76293
L107698 76293
" />
</g>
<g style="fill:#000000; fill-opacity:0.0; 
stroke:#000000; stroke-width:39.3701; stroke-opacity:1; 
stroke-linecap:round; stroke-linejoin:round;">
</g>
<g style="fill:#000000; fill-opacity:0.0; 
stroke:#000000; stroke-width:59.0551; stroke-opacity:1; 
stroke-linecap:round; stroke-linejoin:round;">
<text x="70079.6" y="76321.7"
textLength="3781.21" font-size="787.402" lengthAdjust="spacingAndGlyphs"
text-anchor="start" opacity="0">Size: A4</text>
<path d="M70221 76265
L70305 76293
L70446 76293
L70502 76265
L70530 76237
L70559 76181
L70559 76124
L70530 76068
L70502 76040
L70446 76012
L70334 75984
L70277 75956
L70249 75928
L70221 75871
L70221 75815
L70249 75759
L70277 75731
L70334 75703
L70474 75703
L70559 75731
" />
<path d="M70812 76293
L70812 75899
" />
<path d="M70812 75703
L70784 75731
L70812 75759
L70840 75731
L70812 75703
L70812 75759
" />
<path d="M71037 75899
L71346 75899
L71037 76293
L71346 76293
" />
<path d="M71796 76265
L71740 76293
L71627 76293
L71571 76265
L71543 76209
L71543 75984
L71571 75928
L71627 75899
L71740 75899
L71796 75928
L71824 75984
L71824 76040
L71543 76096
" />
<path d="M72077 76237
L72105 76265
L72077 76293
L72049 76265
L72077 76237
L72077 76293
" />
<path d="M72077 75928
L72105 75956
L72077 75984
L72049 75956
L72077 75928
L72077 75984
" />
<path d="M72780 76124
L73061 76124
" />
<path d="M72724 76293
L72921 75703
L73118 76293
" />
<path d="M73568 75899
L73568 76293
" />
<path d="M73427 75674
L73286 76096
L73652 76096
" />
</g>
<g style="fill:#000000; fill-opacity:0.0; 
stroke:#000000; stroke-width:39.3701; stroke-opacity:1; 
stroke-linecap:round; stroke-linejoin:round;">
</g>
<g style="fill:#000000; fill-opacity:0.0; 
stroke:#000000; stroke-width:59.0551; stroke-opacity:1; 
stroke-linecap:round; stroke-linejoin:round;">
<text x="103544" y="77424.1"
textLength="3349.27" font-size="787.402" lengthAdjust="spacingAndGlyphs"
text-anchor="start" opacity="0">Id: 1/1</text>
<path d="M103714 77395
L103714 76805
" />
<path d="M104248 77395
L104248 76805
" />
<path d="M104248 77367
L104192 77395
L104079 77395
L104023 77367
L103995 77339
L103967 77283
L103967 77114
L103995 77058
L104023 77030
L104079 77002
L104192 77002
L104248 77030
" />
<path d="M104529 77339
L104557 77367
L104529 77395
L104501 77367
L104529 77339
L104529 77395
" />
<path d="M104529 77030
L104557 77058
L104529 77086
L104501 77058
L104529 77030
L104529 77086
" />
<path d="M105570 77395
L105232 77395
" />
<path d="M105401 77395
L105401 76805
L105345 76889
L105289 76946
L105232 76974
" />
<path d="M106245 76777
L105739 77536
" />
<path d="M106751 77395
L106413 77395
" />
<path d="M106582 77395
L106582 76805
L106526 76889
L106470 76946
L106413 76974
" />
</g>
<g style="fill:#000000; fill-opacity:0.0; 
stroke:#000000; stroke-width:39.3701; stroke-opacity:1; 
stroke-linecap:round; stroke-linejoin:round;">
</g>
<g style="fill:#000000; fill-opacity:0.0; 
stroke:#000000; stroke-width:59.0551; stroke-opacity:1; 
stroke-linecap:round; stroke-linejoin:round;">
<path d="M69685 73821
L112205 73821
" />
</g>
<g style="fill:#000000; fill-opacity:0.0; 
stroke:#000000; stroke-width:39.3701; stroke-opacity:1; 
stroke-linecap:round; stroke-linejoin:round;">
</g>
<g style="fill:#000000; fill-opacity:0.0; 
stroke:#000000; stroke-width:157.48; stroke-opacity:1; 
stroke-linecap:round; stroke-linejoin:round;">
<text x="70079.6" y="74924.1"
textLength="23161.2" font-size="1049.87" lengthAdjust="spacingAndGlyphs"
text-anchor="start" opacity="0">Title: Reversing Camera RGB Interface</text>
<path d="M70360 74099
L70810 74099
" />
<path d="M70486 74886
L70585 74099
" />
<path d="M70974 74886
L71039 74361
" />
<path d="M71072 74099
L71030 74136
L71063 74174
L71105 74136
L71072 74099
L71063 74174
" />
<path d="M71302 74361
L71602 74361
" />
<path d="M71447 74099
L71363 74774
L71391 74849
L71461 74886
L71536 74886
" />
<path d="M71911 74886
L71841 74849
L71813 74774
L71897 74099
" />
<path d="M72516 74849
L72436 74886
L72286 74886
L72216 74849
L72187 74774
L72225 74474
L72272 74399
L72352 74361
L72501 74361
L72572 74399
L72600 74474
L72591 74549
L72206 74624
" />
<path d="M72895 74811
L72928 74849
L72886 74886
L72853 74849
L72895 74811
L72886 74886
" />
<path d="M72947 74399
L72980 74436
L72937 74474
L72905 74436
L72947 74399
L72937 74474
" />
<path d="M74311 74886
L74095 74511
" />
<path d="M73861 74886
L73959 74099
L74259 74099
L74329 74136
L74362 74174
L74390 74249
L74376 74361
L74329 74436
L74287 74474
L74208 74511
L73908 74511
" />
<path d="M74953 74849
L74873 74886
L74723 74886
L74653 74849
L74625 74774
L74662 74474
L74709 74399
L74789 74361
L74939 74361
L75009 74399
L75037 74474
L75028 74549
L74643 74624
" />
<path d="M75314 74361
L75435 74886
L75689 74361
" />
<path d="M76228 74849
L76148 74886
L75998 74886
L75928 74849
L75900 74774
L75937 74474
L75984 74399
L76064 74361
L76214 74361
L76284 74399
L76312 74474
L76303 74549
L75918 74624
" />
<path d="M76598 74886
L76663 74361
" />
<path d="M76645 74511
L76692 74436
L76734 74399
L76813 74361
L76888 74361
" />
<path d="M77052 74849
L77123 74886
L77273 74886
L77352 74849
L77399 74774
L77404 74736
L77376 74661
L77306 74624
L77193 74624
L77123 74586
L77095 74511
L77099 74474
L77146 74399
L77226 74361
L77338 74361
L77409 74399
" />
<path d="M77723 74886
L77788 74361
" />
<path d="M77821 74099
L77779 74136
L77812 74174
L77854 74136
L77821 74099
L77812 74174
" />
<path d="M78163 74361
L78098 74886
" />
<path d="M78154 74436
L78196 74399
L78276 74361
L78388 74361
L78459 74399
L78487 74474
L78435 74886
" />
<path d="M79213 74361
L79133 74999
L79087 75074
L79044 75111
L78965 75149
L78852 75149
L78782 75111
" />
<path d="M79152 74849
L79073 74886
L78923 74886
L78852 74849
L78819 74811
L78791 74736
L78819 74511
L78866 74436
L78909 74399
L78988 74361
L79138 74361
L79208 74399
" />
<path d="M80582 74811
L80540 74849
L80422 74886
L80347 74886
L80240 74849
L80174 74774
L80146 74699
L80127 74549
L80141 74436
L80197 74286
L80244 74211
L80329 74136
L80446 74099
L80521 74099
L80629 74136
L80661 74174
" />
<path d="M81247 74886
L81299 74474
L81271 74399
L81200 74361
L81050 74361
L80971 74399
" />
<path d="M81252 74849
L81172 74886
L80985 74886
L80915 74849
L80886 74774
L80896 74699
L80943 74624
L81022 74586
L81210 74586
L81289 74549
" />
<path d="M81622 74886
L81688 74361
" />
<path d="M81678 74436
L81721 74399
L81800 74361
L81913 74361
L81983 74399
L82011 74474
L81960 74886
" />
<path d="M82011 74474
L82058 74399
L82138 74361
L82250 74361
L82321 74399
L82349 74474
L82297 74886
" />
<path d="M82977 74849
L82897 74886
L82747 74886
L82677 74849
L82649 74774
L82686 74474
L82733 74399
L82813 74361
L82963 74361
L83033 74399
L83061 74474
L83052 74549
L82667 74624
" />
<path d="M83347 74886
L83413 74361
" />
<path d="M83394 74511
L83441 74436
L83483 74399
L83563 74361
L83638 74361
" />
<path d="M84172 74886
L84223 74474
L84195 74399
L84125 74361
L83975 74361
L83895 74399
" />
<path d="M84177 74849
L84097 74886
L83909 74886
L83839 74849
L83811 74774
L83820 74699
L83867 74624
L83947 74586
L84134 74586
L84214 74549
" />
<path d="M85597 74886
L85381 74511
" />
<path d="M85147 74886
L85245 74099
L85545 74099
L85615 74136
L85648 74174
L85676 74249
L85662 74361
L85615 74436
L85573 74474
L85494 74511
L85194 74511
" />
<path d="M86440 74136
L86370 74099
L86258 74099
L86140 74136
L86056 74211
L86009 74286
L85953 74436
L85939 74549
L85958 74699
L85986 74774
L86051 74849
L86159 74886
L86234 74886
L86351 74849
L86394 74811
L86426 74549
L86276 74549
" />
<path d="M87036 74474
L87143 74511
L87176 74549
L87204 74624
L87190 74736
L87143 74811
L87101 74849
L87022 74886
L86722 74886
L86820 74099
L87082 74099
L87153 74136
L87186 74174
L87214 74249
L87204 74324
L87157 74399
L87115 74436
L87036 74474
L86773 74474
" />
<path d="M88109 74886
L88207 74099
" />
<path d="M88549 74361
L88484 74886
" />
<path d="M88540 74436
L88582 74399
L88662 74361
L88774 74361
L88845 74399
L88873 74474
L88821 74886
" />
<path d="M89149 74361
L89449 74361
" />
<path d="M89295 74099
L89210 74774
L89238 74849
L89309 74886
L89384 74886
" />
<path d="M89951 74849
L89871 74886
L89721 74886
L89651 74849
L89623 74774
L89660 74474
L89707 74399
L89787 74361
L89937 74361
L90007 74399
L90035 74474
L90026 74549
L89642 74624
" />
<path d="M90321 74886
L90387 74361
" />
<path d="M90368 74511
L90415 74436
L90457 74399
L90537 74361
L90612 74361
" />
<path d="M90762 74361
L91062 74361
" />
<path d="M90809 74886
L90893 74211
L90940 74136
L91019 74099
L91094 74099
" />
<path d="M91596 74886
L91648 74474
L91619 74399
L91549 74361
L91399 74361
L91319 74399
" />
<path d="M91601 74849
L91521 74886
L91334 74886
L91263 74849
L91235 74774
L91244 74699
L91291 74624
L91371 74586
L91558 74586
L91638 74549
" />
<path d="M92313 74849
L92233 74886
L92083 74886
L92013 74849
L91980 74811
L91952 74736
L91980 74511
L92027 74436
L92069 74399
L92149 74361
L92299 74361
L92369 74399
" />
<path d="M92950 74849
L92871 74886
L92721 74886
L92651 74849
L92622 74774
L92660 74474
L92707 74399
L92786 74361
L92936 74361
L93007 74399
L93035 74474
L93025 74549
L92641 74624
" />
</g>
<g style="fill:#000000; fill-opacity:0.0; 
stroke:#000000; stroke-width:39.3701; stroke-opacity:1; 
stroke-linecap:round; stroke-linejoin:round;">
</g>
<g style="fill:#000000; fill-opacity:0.0; 
stroke:#000000; stroke-width:59.0551; stroke-opacity:1; 
stroke-linecap:round; stroke-linejoin:round;">
<text x="70079.6" y="73408.3"
textLength="24248.6" font-size="787.402" lengthAdjust="spacingAndGlyphs"
text-anchor="start" opacity="0">File: ReversingCam_FSAV433_ATTINY85_v3.2.kicad_pcb</text>
<path d="M70446 73070
L70249 73070
" />
<path d="M70249 73380
L70249 72789
L70530 72789
" />
<path d="M70755 73380
L70755 72986
" />
<path d="M70755 72789
L70727 72817
L70755 72845
L70784 72817
L70755 72789
L70755 72845
" />
<path d="M71121 73380
L71065 73352
L71037 73295
L71037 72789
" />
<path d="M71571 73352
L71515 73380
L71402 73380
L71346 73352
L71318 73295
L71318 73070
L71346 73014
L71402 72986
L71515 72986
L71571 73014
L71599 73070
L71599 73127
L71318 73183
" />
<path d="M71852 73323
L71880 73352
L71852 73380
L71824 73352
L71852 73323
L71852 73380
" />
<path d="M71852 73014
L71880 73042
L71852 73070
L71824 73042
L71852 73014
L71852 73070
" />
<path d="M72921 73380
L72724 73099
" />
<path d="M72583 73380
L72583 72789
L72808 72789
L72865 72817
L72893 72845
L72921 72902
L72921 72986
L72893 73042
L72865 73070
L72808 73099
L72583 73099
" />
<path d="M73399 73352
L73343 73380
L73230 73380
L73174 73352
L73146 73295
L73146 73070
L73174 73014
L73230 72986
L73343 72986
L73399 73014
L73427 73070
L73427 73127
L73146 73183
" />
<path d="M73624 72986
L73764 73380
L73905 72986
" />
<path d="M74355 73352
L74299 73380
L74186 73380
L74130 73352
L74102 73295
L74102 73070
L74130 73014
L74186 72986
L74299 72986
L74355 73014
L74383 73070
L74383 73127
L74102 73183
" />
<path d="M74636 73380
L74636 72986
" />
<path d="M74636 73099
L74664 73042
L74692 73014
L74749 72986
L74805 72986
" />
<path d="M74974 73352
L75030 73380
L75142 73380
L75199 73352
L75227 73295
L75227 73267
L75199 73211
L75142 73183
L75058 73183
L75002 73155
L74974 73099
L74974 73070
L75002 73014
L75058 72986
L75142 72986
L75199 73014
" />
<path d="M75480 73380
L75480 72986
" />
<path d="M75480 72789
L75452 72817
L75480 72845
L75508 72817
L75480 72789
L75480 72845
" />
<path d="M75761 72986
L75761 73380
" />
<path d="M75761 73042
L75789 73014
L75845 72986
L75930 72986
L75986 73014
L76014 73070
L76014 73380
" />
<path d="M76548 72986
L76548 73464
L76520 73520
L76492 73548
L76436 73577
L76352 73577
L76295 73548
" />
<path d="M76548 73352
L76492 73380
L76380 73380
L76323 73352
L76295 73323
L76267 73267
L76267 73099
L76295 73042
L76323 73014
L76380 72986
L76492 72986
L76548 73014
" />
<path d="M77167 73323
L77139 73352
L77055 73380
L76998 73380
L76914 73352
L76858 73295
L76830 73239
L76802 73127
L76802 73042
L76830 72930
L76858 72874
L76914 72817
L76998 72789
L77055 72789
L77139 72817
L77167 72845
" />
<path d="M77673 73380
L77673 73070
L77645 73014
L77589 72986
L77476 72986
L77420 73014
" />
<path d="M77673 73352
L77617 73380
L77476 73380
L77420 73352
L77392 73295
L77392 73239
L77420 73183
L77476 73155
L77617 73155
L77673 73127
" />
<path d="M77955 73380
L77955 72986
" />
<path d="M77955 73042
L77983 73014
L78039 72986
L78123 72986
L78180 73014
L78208 73070
L78208 73380
" />
<path d="M78208 73070
L78236 73014
L78292 72986
L78376 72986
L78433 73014
L78461 73070
L78461 73380
" />
<path d="M78601 73436
L79051 73436
" />
<path d="M79389 73070
L79192 73070
" />
<path d="M79192 73380
L79192 72789
L79473 72789
" />
<path d="M79670 73352
L79754 73380
L79895 73380
L79951 73352
L79979 73323
L80007 73267
L80007 73211
L79979 73155
L79951 73127
L79895 73099
L79782 73070
L79726 73042
L79698 73014
L79670 72958
L79670 72902
L79698 72845
L79726 72817
L79782 72789
L79923 72789
L80007 72817
" />
<path d="M80232 73211
L80514 73211
" />
<path d="M80176 73380
L80373 72789
L80570 73380
" />
<path d="M80682 72789
L80879 73380
L81076 72789
" />
<path d="M81526 72986
L81526 73380
" />
<path d="M81385 72761
L81245 73183
L81610 73183
" />
<path d="M81779 72789
L82145 72789
L81948 73014
L82032 73014
L82088 73042
L82117 73070
L82145 73127
L82145 73267
L82117 73323
L82088 73352
L82032 73380
L81863 73380
L81807 73352
L81779 73323
" />
<path d="M82341 72789
L82707 72789
L82510 73014
L82595 73014
L82651 73042
L82679 73070
L82707 73127
L82707 73267
L82679 73323
L82651 73352
L82595 73380
L82426 73380
L82370 73352
L82341 73323
" />
<path d="M82820 73436
L83269 73436
" />
<path d="M83382 73211
L83663 73211
" />
<path d="M83326 73380
L83523 72789
L83719 73380
" />
<path d="M83832 72789
L84169 72789
" />
<path d="M84001 73380
L84001 72789
" />
<path d="M84282 72789
L84619 72789
" />
<path d="M84451 73380
L84451 72789
" />
<path d="M84816 73380
L84816 72789
" />
<path d="M85097 73380
L85097 72789
L85435 73380
L85435 72789
" />
<path d="M85829 73099
L85829 73380
" />
<path d="M85632 72789
L85829 73099
L86025 72789
" />
<path d="M86307 73042
L86250 73014
L86222 72986
L86194 72930
L86194 72902
L86222 72845
L86250 72817
L86307 72789
L86419 72789
L86475 72817
L86503 72845
L86532 72902
L86532 72930
L86503 72986
L86475 73014
L86419 73042
L86307 73042
L86250 73070
L86222 73099
L86194 73155
L86194 73267
L86222 73323
L86250 73352
L86307 73380
L86419 73380
L86475 73352
L86503 73323
L86532 73267
L86532 73155
L86503 73099
L86475 73070
L86419 73042
" />
<path d="M87066 72789
L86785 72789
L86757 73070
L86785 73042
L86841 73014
L86982 73014
L87038 73042
L87066 73070
L87094 73127
L87094 73267
L87066 73323
L87038 73352
L86982 73380
L86841 73380
L86785 73352
L86757 73323
" />
<path d="M87206 73436
L87656 73436
" />
<path d="M87741 72986
L87881 73380
L88022 72986
" />
<path d="M88191 72789
L88556 72789
L88359 73014
L88444 73014
L88500 73042
L88528 73070
L88556 73127
L88556 73267
L88528 73323
L88500 73352
L88444 73380
L88275 73380
L88219 73352
L88191 73323
" />
<path d="M88809 73323
L88838 73352
L88809 73380
L88781 73352
L88809 73323
L88809 73380
" />
<path d="M89063 72845
L89091 72817
L89147 72789
L89287 72789
L89344 72817
L89372 72845
L89400 72902
L89400 72958
L89372 73042
L89034 73380
L89400 73380
" />
<path d="M89653 73323
L89681 73352
L89653 73380
L89625 73352
L89653 73323
L89653 73380
" />
<path d="M89934 73380
L89934 72789
" />
<path d="M89991 73155
L90159 73380
" />
<path d="M90159 72986
L89934 73211
" />
<path d="M90412 73380
L90412 72986
" />
<path d="M90412 72789
L90384 72817
L90412 72845
L90440 72817
L90412 72789
L90412 72845
" />
<path d="M90947 73352
L90890 73380
L90778 73380
L90722 73352
L90694 73323
L90665 73267
L90665 73099
L90694 73042
L90722 73014
L90778 72986
L90890 72986
L90947 73014
" />
<path d="M91453 73380
L91453 73070
L91425 73014
L91368 72986
L91256 72986
L91200 73014
" />
<path d="M91453 73352
L91397 73380
L91256 73380
L91200 73352
L91172 73295
L91172 73239
L91200 73183
L91256 73155
L91397 73155
L91453 73127
" />
<path d="M91987 73380
L91987 72789
" />
<path d="M91987 73352
L91931 73380
L91818 73380
L91762 73352
L91734 73323
L91706 73267
L91706 73099
L91734 73042
L91762 73014
L91818 72986
L91931 72986
L91987 73014
" />
<path d="M92128 73436
L92578 73436
" />
<path d="M92718 72986
L92718 73577
" />
<path d="M92718 73014
L92775 72986
L92887 72986
L92943 73014
L92971 73042
L93000 73099
L93000 73267
L92971 73323
L92943 73352
L92887 73380
L92775 73380
L92718 73352
" />
<path d="M93506 73352
L93449 73380
L93337 73380
L93281 73352
L93253 73323
L93224 73267
L93224 73099
L93253 73042
L93281 73014
L93337 72986
L93449 72986
L93506 73014
" />
<path d="M93759 73380
L93759 72789
" />
<path d="M93759 73014
L93815 72986
L93928 72986
L93984 73014
L94012 73042
L94040 73099
L94040 73267
L94012 73323
L93984 73352
L93928 73380
L93815 73380
L93759 73352
" />
</g>
<g style="fill:#000000; fill-opacity:0.0; 
stroke:#000000; stroke-width:39.3701; stroke-opacity:1; 
stroke-linecap:round; stroke-linejoin:round;">
</g>
<g style="fill:#000000; fill-opacity:0.0; 
stroke:#000000; stroke-width:59.0551; stroke-opacity:1; 
stroke-linecap:round; stroke-linejoin:round;">
<path d="M69685 71459
L112205 71459
" />
</g>
<g style="fill:#000000; fill-opacity:0.0; 
stroke:#000000; stroke-width:39.3701; stroke-opacity:1; 
stroke-linecap:round; stroke-linejoin:round;">
</g>
<g style="fill:#000000; fill-opacity:0.0; 
stroke:#000000; stroke-width:59.0551; stroke-opacity:1; 
stroke-linecap:round; stroke-linejoin:round;">
<text x="70079.6" y="72345.4"
textLength="3236.78" font-size="787.402" lengthAdjust="spacingAndGlyphs"
text-anchor="start" opacity="0">Sheet: </text>
<path d="M70221 72289
L70305 72317
L70446 72317
L70502 72289
L70530 72260
L70559 72204
L70559 72148
L70530 72092
L70502 72064
L70446 72036
L70334 72007
L70277 71979
L70249 71951
L70221 71895
L70221 71839
L70249 71782
L70277 71754
L70334 71726
L70474 71726
L70559 71754
" />
<path d="M70812 72317
L70812 71726
" />
<path d="M71065 72317
L71065 72007
L71037 71951
L70980 71923
L70896 71923
L70840 71951
L70812 71979
" />
<path d="M71571 72289
L71515 72317
L71402 72317
L71346 72289
L71318 72232
L71318 72007
L71346 71951
L71402 71923
L71515 71923
L71571 71951
L71599 72007
L71599 72064
L71318 72120
" />
<path d="M72077 72289
L72021 72317
L71908 72317
L71852 72289
L71824 72232
L71824 72007
L71852 71951
L71908 71923
L72021 71923
L72077 71951
L72105 72007
L72105 72064
L71824 72120
" />
<path d="M72274 71923
L72499 71923
" />
<path d="M72358 71726
L72358 72232
L72386 72289
L72443 72317
L72499 72317
" />
<path d="M72696 72260
L72724 72289
L72696 72317
L72668 72289
L72696 72260
L72696 72317
" />
<path d="M72696 71951
L72724 71979
L72696 72007
L72668 71979
L72696 71951
L72696 72007
" />
</g>
<g style="fill:#000000; fill-opacity:0.0; 
stroke:#000000; stroke-width:39.3701; stroke-opacity:1; 
stroke-linecap:round; stroke-linejoin:round;">
</g>
<g style="fill:#000000; fill-opacity:0.0; 
stroke:#000000; stroke-width:59.0551; stroke-opacity:1; 
stroke-linecap:round; stroke-linejoin:round;">
<text x="70079.6" y="68802"
textLength="22050.1" font-size="787.402" lengthAdjust="spacingAndGlyphs"
text-anchor="start" opacity="0">FSAV433/LM1881/ATtiny85 based PCB Prototype</text>
<path d="M70446 68464
L70249 68464
" />
<path d="M70249 68773
L70249 68183
L70530 68183
" />
<path d="M70727 68745
L70812 68773
L70952 68773
L71009 68745
L71037 68717
L71065 68661
L71065 68605
L71037 68548
L71009 68520
L70952 68492
L70840 68464
L70784 68436
L70755 68408
L70727 68352
L70727 68295
L70755 68239
L70784 68211
L70840 68183
L70980 68183
L71065 68211
" />
<path d="M71290 68605
L71571 68605
" />
<path d="M71233 68773
L71430 68183
L71627 68773
" />
<path d="M71740 68183
L71937 68773
L72133 68183
" />
<path d="M72583 68380
L72583 68773
" />
<path d="M72443 68155
L72302 68577
L72668 68577
" />
<path d="M72836 68183
L73202 68183
L73005 68408
L73090 68408
L73146 68436
L73174 68464
L73202 68520
L73202 68661
L73174 68717
L73146 68745
L73090 68773
L72921 68773
L72865 68745
L72836 68717
" />
<path d="M73399 68183
L73764 68183
L73568 68408
L73652 68408
L73708 68436
L73736 68464
L73764 68520
L73764 68661
L73736 68717
L73708 68745
L73652 68773
L73483 68773
L73427 68745
L73399 68717
" />
<path d="M74439 68155
L73933 68914
" />
<path d="M74917 68773
L74636 68773
L74636 68183
" />
<path d="M75114 68773
L75114 68183
L75311 68605
L75508 68183
L75508 68773
" />
<path d="M76099 68773
L75761 68773
" />
<path d="M75930 68773
L75930 68183
L75874 68267
L75817 68323
L75761 68352
" />
<path d="M76436 68436
L76380 68408
L76352 68380
L76323 68323
L76323 68295
L76352 68239
L76380 68211
L76436 68183
L76548 68183
L76605 68211
L76633 68239
L76661 68295
L76661 68323
L76633 68380
L76605 68408
L76548 68436
L76436 68436
L76380 68464
L76352 68492
L76323 68548
L76323 68661
L76352 68717
L76380 68745
L76436 68773
L76548 68773
L76605 68745
L76633 68717
L76661 68661
L76661 68548
L76633 68492
L76605 68464
L76548 68436
" />
<path d="M76998 68436
L76942 68408
L76914 68380
L76886 68323
L76886 68295
L76914 68239
L76942 68211
L76998 68183
L77111 68183
L77167 68211
L77195 68239
L77223 68295
L77223 68323
L77195 68380
L77167 68408
L77111 68436
L76998 68436
L76942 68464
L76914 68492
L76886 68548
L76886 68661
L76914 68717
L76942 68745
L76998 68773
L77111 68773
L77167 68745
L77195 68717
L77223 68661
L77223 68548
L77195 68492
L77167 68464
L77111 68436
" />
<path d="M77786 68773
L77448 68773
" />
<path d="M77617 68773
L77617 68183
L77561 68267
L77505 68323
L77448 68352
" />
<path d="M78461 68155
L77955 68914
" />
<path d="M78629 68605
L78911 68605
" />
<path d="M78573 68773
L78770 68183
L78967 68773
" />
<path d="M79079 68183
L79417 68183
" />
<path d="M79248 68773
L79248 68183
" />
<path d="M79529 68380
L79754 68380
" />
<path d="M79614 68183
L79614 68689
L79642 68745
L79698 68773
L79754 68773
" />
<path d="M79951 68773
L79951 68380
" />
<path d="M79951 68183
L79923 68211
L79951 68239
L79979 68211
L79951 68183
L79951 68239
" />
<path d="M80232 68380
L80232 68773
" />
<path d="M80232 68436
L80260 68408
L80317 68380
L80401 68380
L80457 68408
L80485 68464
L80485 68773
" />
<path d="M80710 68380
L80851 68773
" />
<path d="M80992 68380
L80851 68773
L80795 68914
L80767 68942
L80710 68970
" />
<path d="M81301 68436
L81245 68408
L81217 68380
L81188 68323
L81188 68295
L81217 68239
L81245 68211
L81301 68183
L81413 68183
L81470 68211
L81498 68239
L81526 68295
L81526 68323
L81498 68380
L81470 68408
L81413 68436
L81301 68436
L81245 68464
L81217 68492
L81188 68548
L81188 68661
L81217 68717
L81245 68745
L81301 68773
L81413 68773
L81470 68745
L81498 68717
L81526 68661
L81526 68548
L81498 68492
L81470 68464
L81413 68436
" />
<path d="M82060 68183
L81779 68183
L81751 68464
L81779 68436
L81835 68408
L81976 68408
L82032 68436
L82060 68464
L82088 68520
L82088 68661
L82060 68717
L82032 68745
L81976 68773
L81835 68773
L81779 68745
L81751 68717
" />
<path d="M82791 68773
L82791 68183
" />
<path d="M82791 68408
L82848 68380
L82960 68380
L83016 68408
L83045 68436
L83073 68492
L83073 68661
L83045 68717
L83016 68745
L82960 68773
L82848 68773
L82791 68745
" />
<path d="M83579 68773
L83579 68464
L83551 68408
L83494 68380
L83382 68380
L83326 68408
" />
<path d="M83579 68745
L83523 68773
L83382 68773
L83326 68745
L83298 68689
L83298 68633
L83326 68577
L83382 68548
L83523 68548
L83579 68520
" />
<path d="M83832 68745
L83888 68773
L84001 68773
L84057 68745
L84085 68689
L84085 68661
L84057 68605
L84001 68577
L83916 68577
L83860 68548
L83832 68492
L83832 68464
L83860 68408
L83916 68380
L84001 68380
L84057 68408
" />
<path d="M84563 68745
L84507 68773
L84394 68773
L84338 68745
L84310 68689
L84310 68464
L84338 68408
L84394 68380
L84507 68380
L84563 68408
L84591 68464
L84591 68520
L84310 68577
" />
<path d="M85097 68773
L85097 68183
" />
<path d="M85097 68745
L85041 68773
L84929 68773
L84872 68745
L84844 68717
L84816 68661
L84816 68492
L84844 68436
L84872 68408
L84929 68380
L85041 68380
L85097 68408
" />
<path d="M85829 68773
L85829 68183
L86054 68183
L86110 68211
L86138 68239
L86166 68295
L86166 68380
L86138 68436
L86110 68464
L86054 68492
L85829 68492
" />
<path d="M86757 68717
L86728 68745
L86644 68773
L86588 68773
L86503 68745
L86447 68689
L86419 68633
L86391 68520
L86391 68436
L86419 68323
L86447 68267
L86503 68211
L86588 68183
L86644 68183
L86728 68211
L86757 68239
" />
<path d="M87206 68464
L87291 68492
L87319 68520
L87347 68577
L87347 68661
L87319 68717
L87291 68745
L87235 68773
L87010 68773
L87010 68183
L87206 68183
L87263 68211
L87291 68239
L87319 68295
L87319 68352
L87291 68408
L87263 68436
L87206 68464
L87010 68464
" />
<path d="M88050 68773
L88050 68183
L88275 68183
L88331 68211
L88359 68239
L88388 68295
L88388 68380
L88359 68436
L88331 68464
L88275 68492
L88050 68492
" />
<path d="M88641 68773
L88641 68380
" />
<path d="M88641 68492
L88669 68436
L88697 68408
L88753 68380
L88809 68380
" />
<path d="M89091 68773
L89034 68745
L89006 68717
L88978 68661
L88978 68492
L89006 68436
L89034 68408
L89091 68380
L89175 68380
L89231 68408
L89259 68436
L89287 68492
L89287 68661
L89259 68717
L89231 68745
L89175 68773
L89091 68773
" />
<path d="M89456 68380
L89681 68380
" />
<path d="M89541 68183
L89541 68689
L89569 68745
L89625 68773
L89681 68773
" />
<path d="M89962 68773
L89906 68745
L89878 68717
L89850 68661
L89850 68492
L89878 68436
L89906 68408
L89962 68380
L90047 68380
L90103 68408
L90131 68436
L90159 68492
L90159 68661
L90131 68717
L90103 68745
L90047 68773
L89962 68773
" />
<path d="M90328 68380
L90553 68380
" />
<path d="M90412 68183
L90412 68689
L90440 68745
L90497 68773
L90553 68773
" />
<path d="M90694 68380
L90834 68773
" />
<path d="M90975 68380
L90834 68773
L90778 68914
L90750 68942
L90694 68970
" />
<path d="M91200 68380
L91200 68970
" />
<path d="M91200 68408
L91256 68380
L91368 68380
L91425 68408
L91453 68436
L91481 68492
L91481 68661
L91453 68717
L91425 68745
L91368 68773
L91256 68773
L91200 68745
" />
<path d="M91959 68745
L91903 68773
L91790 68773
L91734 68745
L91706 68689
L91706 68464
L91734 68408
L91790 68380
L91903 68380
L91959 68408
L91987 68464
L91987 68520
L91706 68577
" />
</g>
<g style="fill:#000000; fill-opacity:0.0; 
stroke:#000000; stroke-width:39.3701; stroke-opacity:1; 
stroke-linecap:round; stroke-linejoin:round;">
</g>
<g style="fill:#000000; fill-opacity:0.0; 
stroke:#000000; stroke-width:59.0551; stroke-opacity:1; 
stroke-linecap:round; stroke-linejoin:round;">
<text x="70079.6" y="66439.8"
textLength="8270.53" font-size="787.402" lengthAdjust="spacingAndGlyphs"
text-anchor="start" opacity="0">Author: Graham-R</text>
<path d="M70221 66242
L70502 66242
" />
<path d="M70165 66411
L70362 65821
L70559 66411
" />
<path d="M71009 66018
L71009 66411
" />
<path d="M70755 66018
L70755 66327
L70784 66383
L70840 66411
L70924 66411
L70980 66383
L71009 66355
" />
<path d="M71205 66018
L71430 66018
" />
<path d="M71290 65821
L71290 66327
L71318 66383
L71374 66411
L71430 66411
" />
<path d="M71627 66411
L71627 65821
" />
<path d="M71880 66411
L71880 66102
L71852 66046
L71796 66018
L71712 66018
L71655 66046
L71627 66074
" />
<path d="M72246 66411
L72190 66383
L72162 66355
L72133 66299
L72133 66130
L72162 66074
L72190 66046
L72246 66018
L72330 66018
L72386 66046
L72415 66074
L72443 66130
L72443 66299
L72415 66355
L72386 66383
L72330 66411
L72246 66411
" />
<path d="M72696 66411
L72696 66018
" />
<path d="M72696 66130
L72724 66074
L72752 66046
L72808 66018
L72865 66018
" />
<path d="M73061 66355
L73090 66383
L73061 66411
L73033 66383
L73061 66355
L73061 66411
" />
<path d="M73061 66046
L73090 66074
L73061 66102
L73033 66074
L73061 66046
L73061 66102
" />
<path d="M74102 65849
L74046 65821
L73961 65821
L73877 65849
L73821 65905
L73793 65961
L73764 66074
L73764 66158
L73793 66271
L73821 66327
L73877 66383
L73961 66411
L74018 66411
L74102 66383
L74130 66355
L74130 66158
L74018 66158
" />
<path d="M74383 66411
L74383 66018
" />
<path d="M74383 66130
L74411 66074
L74439 66046
L74496 66018
L74552 66018
" />
<path d="M75002 66411
L75002 66102
L74974 66046
L74917 66018
L74805 66018
L74749 66046
" />
<path d="M75002 66383
L74946 66411
L74805 66411
L74749 66383
L74721 66327
L74721 66271
L74749 66214
L74805 66186
L74946 66186
L75002 66158
" />
<path d="M75283 66411
L75283 65821
" />
<path d="M75536 66411
L75536 66102
L75508 66046
L75452 66018
L75367 66018
L75311 66046
L75283 66074
" />
<path d="M76070 66411
L76070 66102
L76042 66046
L75986 66018
L75874 66018
L75817 66046
" />
<path d="M76070 66383
L76014 66411
L75874 66411
L75817 66383
L75789 66327
L75789 66271
L75817 66214
L75874 66186
L76014 66186
L76070 66158
" />
<path d="M76352 66411
L76352 66018
" />
<path d="M76352 66074
L76380 66046
L76436 66018
L76520 66018
L76577 66046
L76605 66102
L76605 66411
" />
<path d="M76605 66102
L76633 66046
L76689 66018
L76773 66018
L76830 66046
L76858 66102
L76858 66411
" />
<path d="M77139 66186
L77589 66186
" />
<path d="M78208 66411
L78011 66130
" />
<path d="M77870 66411
L77870 65821
L78095 65821
L78151 65849
L78180 65877
L78208 65933
L78208 66018
L78180 66074
L78151 66102
L78095 66130
L77870 66130
" />
</g>
<g style="fill:#000000; fill-opacity:0.0; 
stroke:#000000; stroke-width:39.3701; stroke-opacity:1; 
stroke-linecap:round; stroke-linejoin:round;">
</g>
<g style="fill:#000000; fill-opacity:0.0; 
stroke:#000000; stroke-width:59.0551; stroke-opacity:1; 
stroke-linecap:round; stroke-linejoin:round;">
<path d="M77559 75396
L77559 76577
" />
</g>
<g style="fill:#000000; fill-opacity:0.0; 
stroke:#000000; stroke-width:39.3701; stroke-opacity:1; 
stroke-linecap:round; stroke-linejoin:round;">
</g>
<g style="fill:#000000; fill-opacity:0.0; 
stroke:#000000; stroke-width:59.0551; stroke-opacity:1; 
stroke-linecap:round; stroke-linejoin:round;">
<path d="M102756 75396
L102756 77955
" />
</g>
<g style="fill:#840084; fill-opacity:0.0; 
stroke:#840084; stroke-width:59.0551; stroke-opacity:1; 
stroke-linecap:round; stroke-linejoin:round;">
<g transform="rotate(-180 45980 10520)">
<text x="45980" y="10716.9"
textLength="-8696.1" font-size="-524.934" lengthAdjust="spacingAndGlyphs"
text-anchor="middle" opacity="0">&lt;Graham-R  and c.2020&gt;</text>
</g>
<path d="M41996 10604
L41696 10491
L41996 10379
" />
<path d="M42389 10716
L42352 10735
L42296 10735
L42239 10716
L42202 10679
L42183 10641
L42164 10566
L42164 10510
L42183 10435
L42202 10398
L42239 10360
L42296 10341
L42333 10341
L42389 10360
L42408 10379
L42408 10510
L42333 10510
" />
<path d="M42577 10341
L42577 10604
" />
<path d="M42577 10529
L42596 10566
L42614 10585
L42652 10604
L42689 10604
" />
<path d="M42989 10341
L42989 10548
L42971 10585
L42933 10604
L42858 10604
L42821 10585
" />
<path d="M42989 10360
L42952 10341
L42858 10341
L42821 10360
L42802 10398
L42802 10435
L42821 10473
L42858 10491
L42952 10491
L42989 10510
" />
<path d="M43177 10341
L43177 10735
" />
<path d="M43345 10341
L43345 10548
L43327 10585
L43289 10604
L43233 10604
L43195 10585
L43177 10566
" />
<path d="M43702 10341
L43702 10548
L43683 10585
L43645 10604
L43570 10604
L43533 10585
" />
<path d="M43702 10360
L43664 10341
L43570 10341
L43533 10360
L43514 10398
L43514 10435
L43533 10473
L43570 10491
L43664 10491
L43702 10510
" />
<path d="M43889 10341
L43889 10604
" />
<path d="M43889 10566
L43908 10585
L43945 10604
L44002 10604
L44039 10585
L44058 10548
L44058 10341
" />
<path d="M44058 10548
L44077 10585
L44114 10604
L44170 10604
L44208 10585
L44227 10548
L44227 10341
" />
<path d="M44414 10491
L44714 10491
" />
<path d="M45126 10341
L44995 10529
" />
<path d="M44902 10341
L44902 10735
L45051 10735
L45089 10716
L45108 10698
L45126 10660
L45126 10604
L45108 10566
L45089 10548
L45051 10529
L44902 10529
" />
<path d="M45914 10641
L45876 10660
L45801 10660
L45764 10641
L45726 10604
L45708 10566
L45708 10491
L45726 10454
L45764 10416
L45801 10398
L45876 10398
L45914 10416
" />
<path d="M45839 10791
L45745 10773
L45651 10716
L45595 10623
L45576 10529
L45595 10435
L45651 10341
L45745 10285
L45839 10266
L45933 10285
L46026 10341
L46083 10435
L46101 10529
L46083 10623
L46026 10716
L45933 10773
L45839 10791
" />
<path d="M46739 10341
L46739 10548
L46720 10585
L46683 10604
L46608 10604
L46570 10585
" />
<path d="M46739 10360
L46701 10341
L46608 10341
L46570 10360
L46551 10398
L46551 10435
L46570 10473
L46608 10491
L46701 10491
L46739 10510
" />
<path d="M46926 10604
L46926 10341
" />
<path d="M46926 10566
L46945 10585
L46982 10604
L47039 10604
L47076 10585
L47095 10548
L47095 10341
" />
<path d="M47451 10341
L47451 10735
" />
<path d="M47451 10360
L47414 10341
L47339 10341
L47301 10360
L47282 10379
L47264 10416
L47264 10529
L47282 10566
L47301 10585
L47339 10604
L47414 10604
L47451 10585
" />
<path d="M48107 10360
L48070 10341
L47995 10341
L47957 10360
L47939 10379
L47920 10416
L47920 10529
L47939 10566
L47957 10585
L47995 10604
L48070 10604
L48107 10585
" />
<path d="M48276 10379
L48295 10360
L48276 10341
L48257 10360
L48276 10379
L48276 10341
" />
<path d="M48445 10698
L48464 10716
L48501 10735
L48595 10735
L48632 10716
L48651 10698
L48670 10660
L48670 10623
L48651 10566
L48426 10341
L48670 10341
" />
<path d="M48914 10735
L48951 10735
L48988 10716
L49007 10698
L49026 10660
L49045 10585
L49045 10491
L49026 10416
L49007 10379
L48988 10360
L48951 10341
L48914 10341
L48876 10360
L48857 10379
L48839 10416
L48820 10491
L48820 10585
L48839 10660
L48857 10698
L48876 10716
L48914 10735
" />
<path d="M49195 10698
L49213 10716
L49251 10735
L49345 10735
L49382 10716
L49401 10698
L49420 10660
L49420 10623
L49401 10566
L49176 10341
L49420 10341
" />
<path d="M49663 10735
L49701 10735
L49738 10716
L49757 10698
L49776 10660
L49795 10585
L49795 10491
L49776 10416
L49757 10379
L49738 10360
L49701 10341
L49663 10341
L49626 10360
L49607 10379
L49588 10416
L49570 10491
L49570 10585
L49588 10660
L49607 10698
L49626 10716
L49663 10735
" />
<path d="M49963 10604
L50263 10491
L49963 10379
" />
<text x="46600" y="12696.9"
textLength="-7009.84" font-size="-524.934" lengthAdjust="spacingAndGlyphs"
text-anchor="middle" opacity="0">github@appley.plus.com</text>
<path d="M49880 12415
L49880 12734
L49899 12771
L49918 12790
L49955 12809
L50012 12809
L50049 12790
" />
<path d="M49880 12659
L49918 12678
L49993 12678
L50030 12659
L50049 12640
L50068 12603
L50068 12490
L50049 12453
L50030 12434
L49993 12415
L49918 12415
L49880 12434
" />
<path d="M49693 12678
L49693 12415
" />
<path d="M49693 12284
L49712 12303
L49693 12321
L49674 12303
L49693 12284
L49693 12321
" />
<path d="M49562 12415
L49412 12415
" />
<path d="M49505 12284
L49505 12621
L49487 12659
L49449 12678
L49412 12678
" />
<path d="M49280 12678
L49280 12284
" />
<path d="M49112 12678
L49112 12471
L49130 12434
L49168 12415
L49224 12415
L49262 12434
L49280 12453
" />
<path d="M48755 12415
L48755 12678
" />
<path d="M48924 12415
L48924 12621
L48905 12659
L48868 12678
L48812 12678
L48774 12659
L48755 12640
" />
<path d="M48568 12678
L48568 12284
" />
<path d="M48568 12434
L48531 12415
L48456 12415
L48418 12434
L48399 12453
L48381 12490
L48381 12603
L48399 12640
L48418 12659
L48456 12678
L48531 12678
L48568 12659
" />
<path d="M47968 12490
L47987 12471
L48024 12453
L48062 12453
L48099 12471
L48118 12490
L48137 12528
L48137 12565
L48118 12603
L48099 12621
L48062 12640
L48024 12640
L47987 12621
L47968 12603
" />
<path d="M47968 12453
L47968 12603
L47949 12621
L47931 12621
L47893 12603
L47874 12565
L47874 12471
L47912 12415
L47968 12378
L48043 12359
L48118 12378
L48174 12415
L48212 12471
L48231 12546
L48212 12621
L48174 12678
L48118 12715
L48043 12734
L47968 12715
L47912 12678
" />
<path d="M47537 12678
L47537 12471
L47556 12434
L47593 12415
L47668 12415
L47706 12434
" />
<path d="M47537 12659
L47574 12678
L47668 12678
L47706 12659
L47724 12621
L47724 12584
L47706 12546
L47668 12528
L47574 12528
L47537 12509
" />
<path d="M47349 12415
L47349 12809
" />
<path d="M47349 12434
L47312 12415
L47237 12415
L47199 12434
L47181 12453
L47162 12490
L47162 12603
L47181 12640
L47199 12659
L47237 12678
L47312 12678
L47349 12659
" />
<path d="M46993 12415
L46993 12809
" />
<path d="M46993 12434
L46956 12415
L46881 12415
L46843 12434
L46824 12453
L46806 12490
L46806 12603
L46824 12640
L46843 12659
L46881 12678
L46956 12678
L46993 12659
" />
<path d="M46581 12678
L46618 12659
L46637 12621
L46637 12284
" />
<path d="M46281 12659
L46318 12678
L46393 12678
L46431 12659
L46450 12621
L46450 12471
L46431 12434
L46393 12415
L46318 12415
L46281 12434
L46262 12471
L46262 12509
L46450 12546
" />
<path d="M46131 12415
L46037 12678
" />
<path d="M45943 12415
L46037 12678
L46075 12771
L46093 12790
L46131 12809
" />
<path d="M45793 12640
L45775 12659
L45793 12678
L45812 12659
L45793 12640
L45793 12678
" />
<path d="M45606 12415
L45606 12809
" />
<path d="M45606 12434
L45568 12415
L45493 12415
L45456 12434
L45437 12453
L45418 12490
L45418 12603
L45437 12640
L45456 12659
L45493 12678
L45568 12678
L45606 12659
" />
<path d="M45193 12678
L45231 12659
L45250 12621
L45250 12284
" />
<path d="M44875 12415
L44875 12678
" />
<path d="M45043 12415
L45043 12621
L45025 12659
L44987 12678
L44931 12678
L44893 12659
L44875 12640
" />
<path d="M44706 12659
L44668 12678
L44594 12678
L44556 12659
L44537 12621
L44537 12603
L44556 12565
L44594 12546
L44650 12546
L44687 12528
L44706 12490
L44706 12471
L44687 12434
L44650 12415
L44594 12415
L44556 12434
" />
<path d="M44369 12640
L44350 12659
L44369 12678
L44387 12659
L44369 12640
L44369 12678
" />
<path d="M44012 12659
L44050 12678
L44125 12678
L44162 12659
L44181 12640
L44200 12603
L44200 12490
L44181 12453
L44162 12434
L44125 12415
L44050 12415
L44012 12434
" />
<path d="M43787 12678
L43825 12659
L43844 12640
L43862 12603
L43862 12490
L43844 12453
L43825 12434
L43787 12415
L43731 12415
L43694 12434
L43675 12453
L43656 12490
L43656 12603
L43675 12640
L43694 12659
L43731 12678
L43787 12678
" />
<path d="M43487 12678
L43487 12415
" />
<path d="M43487 12453
L43469 12434
L43431 12415
L43375 12415
L43337 12434
L43319 12471
L43319 12678
" />
<path d="M43319 12471
L43300 12434
L43262 12415
L43206 12415
L43169 12434
L43150 12471
L43150 12678
" />
<text x="49300" y="19522.4"
textLength="-3354.05" font-size="-524.934" lengthAdjust="spacingAndGlyphs"
text-anchor="middle" opacity="0">Jaguar D2B</text>
<path d="M50809 19109
L50809 19391
L50827 19447
L50865 19484
L50921 19503
L50959 19503
" />
<path d="M50452 19503
L50452 19297
L50471 19259
L50509 19241
L50584 19241
L50621 19259
" />
<path d="M50452 19484
L50490 19503
L50584 19503
L50621 19484
L50640 19447
L50640 19409
L50621 19372
L50584 19353
L50490 19353
L50452 19334
" />
<path d="M50096 19241
L50096 19559
L50115 19597
L50134 19616
L50171 19634
L50228 19634
L50265 19616
" />
<path d="M50096 19484
L50134 19503
L50209 19503
L50246 19484
L50265 19466
L50284 19428
L50284 19316
L50265 19278
L50246 19259
L50209 19241
L50134 19241
L50096 19259
" />
<path d="M49740 19241
L49740 19503
" />
<path d="M49909 19241
L49909 19447
L49890 19484
L49853 19503
L49796 19503
L49759 19484
L49740 19466
" />
<path d="M49384 19503
L49384 19297
L49403 19259
L49440 19241
L49515 19241
L49553 19259
" />
<path d="M49384 19484
L49421 19503
L49515 19503
L49553 19484
L49571 19447
L49571 19409
L49553 19372
L49515 19353
L49421 19353
L49384 19334
" />
<path d="M49196 19503
L49196 19241
" />
<path d="M49196 19316
L49178 19278
L49159 19259
L49121 19241
L49084 19241
" />
<path d="M48653 19503
L48653 19109
L48559 19109
L48503 19128
L48465 19166
L48446 19203
L48428 19278
L48428 19334
L48446 19409
L48465 19447
L48503 19484
L48559 19503
L48653 19503
" />
<path d="M48278 19147
L48259 19128
L48222 19109
L48128 19109
L48090 19128
L48072 19147
L48053 19184
L48053 19222
L48072 19278
L48297 19503
L48053 19503
" />
<path d="M47753 19297
L47697 19316
L47678 19334
L47659 19372
L47659 19428
L47678 19466
L47697 19484
L47734 19503
L47884 19503
L47884 19109
L47753 19109
L47715 19128
L47697 19147
L47678 19184
L47678 19222
L47697 19259
L47715 19278
L47753 19297
L47884 19297
" />
<text x="49300" y="20172"
textLength="-4478.91" font-size="-524.934" lengthAdjust="spacingAndGlyphs"
text-anchor="middle" opacity="0">(XJ/X/S-Type)</text>
<path d="M51371 20303
L51390 20284
L51427 20228
L51446 20190
L51465 20134
L51484 20040
L51484 19965
L51465 19872
L51446 19815
L51427 19778
L51390 19722
L51371 19703
" />
<path d="M51259 19759
L50996 20153
" />
<path d="M50996 19759
L51259 20153
" />
<path d="M50734 19759
L50734 20040
L50752 20097
L50790 20134
L50846 20153
L50884 20153
" />
<path d="M50265 19740
L50602 20247
" />
<path d="M50171 19759
L49909 20153
" />
<path d="M49909 19759
L50171 20153
" />
<path d="M49478 19740
L49815 20247
" />
<path d="M49365 20134
L49309 20153
L49215 20153
L49178 20134
L49159 20115
L49140 20078
L49140 20040
L49159 20003
L49178 19984
L49215 19965
L49290 19947
L49328 19928
L49346 19909
L49365 19872
L49365 19834
L49346 19797
L49328 19778
L49290 19759
L49196 19759
L49140 19778
" />
<path d="M48971 20003
L48671 20003
" />
<path d="M48540 19759
L48315 19759
" />
<path d="M48428 20153
L48428 19759
" />
<path d="M48222 19890
L48128 20153
" />
<path d="M48034 19890
L48128 20153
L48165 20247
L48184 20265
L48222 20284
" />
<path d="M47884 19890
L47884 20284
" />
<path d="M47884 19909
L47847 19890
L47772 19890
L47734 19909
L47715 19928
L47697 19965
L47697 20078
L47715 20115
L47734 20134
L47772 20153
L47847 20153
L47884 20134
" />
<path d="M47378 20134
L47415 20153
L47490 20153
L47528 20134
L47547 20097
L47547 19947
L47528 19909
L47490 19890
L47415 19890
L47378 19909
L47359 19947
L47359 19984
L47547 20022
" />
<path d="M47228 20303
L47209 20284
L47172 20228
L47153 20190
L47134 20134
L47115 20040
L47115 19965
L47134 19872
L47153 19815
L47172 19778
L47209 19722
L47228 19703
" />
<text x="49300" y="20821.7"
textLength="-3054.09" font-size="-524.934" lengthAdjust="spacingAndGlyphs"
text-anchor="middle" opacity="0">Reversing </text>
<path d="M50546 20802
L50677 20615
" />
<path d="M50771 20802
L50771 20409
L50621 20409
L50584 20427
L50565 20446
L50546 20484
L50546 20540
L50565 20577
L50584 20596
L50621 20615
L50771 20615
" />
<path d="M50228 20784
L50265 20802
L50340 20802
L50377 20784
L50396 20746
L50396 20596
L50377 20559
L50340 20540
L50265 20540
L50228 20559
L50209 20596
L50209 20634
L50396 20671
" />
<path d="M50078 20540
L49984 20802
L49890 20540
" />
<path d="M49590 20784
L49628 20802
L49703 20802
L49740 20784
L49759 20746
L49759 20596
L49740 20559
L49703 20540
L49628 20540
L49590 20559
L49571 20596
L49571 20634
L49759 20671
" />
<path d="M49403 20802
L49403 20540
" />
<path d="M49403 20615
L49384 20577
L49365 20559
L49328 20540
L49290 20540
" />
<path d="M49178 20784
L49140 20802
L49065 20802
L49028 20784
L49009 20746
L49009 20727
L49028 20690
L49065 20671
L49121 20671
L49159 20652
L49178 20615
L49178 20596
L49159 20559
L49121 20540
L49065 20540
L49028 20559
" />
<path d="M48840 20802
L48840 20540
" />
<path d="M48840 20409
L48859 20427
L48840 20446
L48821 20427
L48840 20409
L48840 20446
" />
<path d="M48653 20540
L48653 20802
" />
<path d="M48653 20577
L48634 20559
L48596 20540
L48540 20540
L48503 20559
L48484 20596
L48484 20802
" />
<path d="M48128 20540
L48128 20859
L48147 20896
L48165 20915
L48203 20934
L48259 20934
L48297 20915
" />
<path d="M48128 20784
L48165 20802
L48240 20802
L48278 20784
L48297 20765
L48315 20727
L48315 20615
L48297 20577
L48278 20559
L48240 20540
L48165 20540
L48128 20559
" />
<text x="49300" y="21471.3"
textLength="-5041.34" font-size="-524.934" lengthAdjust="spacingAndGlyphs"
text-anchor="middle" opacity="0">Camera Interface</text>
<path d="M51540 21415
L51559 21433
L51615 21452
L51652 21452
L51709 21433
L51746 21396
L51765 21358
L51784 21283
L51784 21227
L51765 21152
L51746 21115
L51709 21077
L51652 21058
L51615 21058
L51559 21077
L51540 21096
" />
<path d="M51202 21452
L51202 21246
L51221 21208
L51259 21190
L51334 21190
L51371 21208
" />
<path d="M51202 21433
L51240 21452
L51334 21452
L51371 21433
L51390 21396
L51390 21358
L51371 21321
L51334 21302
L51240 21302
L51202 21283
" />
<path d="M51015 21452
L51015 21190
" />
<path d="M51015 21227
L50996 21208
L50959 21190
L50902 21190
L50865 21208
L50846 21246
L50846 21452
" />
<path d="M50846 21246
L50827 21208
L50790 21190
L50734 21190
L50696 21208
L50677 21246
L50677 21452
" />
<path d="M50340 21433
L50377 21452
L50452 21452
L50490 21433
L50509 21396
L50509 21246
L50490 21208
L50452 21190
L50377 21190
L50340 21208
L50321 21246
L50321 21283
L50509 21321
" />
<path d="M50153 21452
L50153 21190
" />
<path d="M50153 21265
L50134 21227
L50115 21208
L50078 21190
L50040 21190
" />
<path d="M49740 21452
L49740 21246
L49759 21208
L49796 21190
L49871 21190
L49909 21208
" />
<path d="M49740 21433
L49778 21452
L49871 21452
L49909 21433
L49928 21396
L49928 21358
L49909 21321
L49871 21302
L49778 21302
L49740 21283
" />
<path d="M49253 21452
L49253 21058
" />
<path d="M49065 21190
L49065 21452
" />
<path d="M49065 21227
L49046 21208
L49009 21190
L48953 21190
L48915 21208
L48896 21246
L48896 21452
" />
<path d="M48765 21190
L48615 21190
" />
<path d="M48709 21058
L48709 21396
L48690 21433
L48653 21452
L48615 21452
" />
<path d="M48334 21433
L48371 21452
L48446 21452
L48484 21433
L48503 21396
L48503 21246
L48484 21208
L48446 21190
L48371 21190
L48334 21208
L48315 21246
L48315 21283
L48503 21321
" />
<path d="M48147 21452
L48147 21190
" />
<path d="M48147 21265
L48128 21227
L48109 21208
L48072 21190
L48034 21190
" />
<path d="M47959 21190
L47809 21190
" />
<path d="M47903 21452
L47903 21115
L47884 21077
L47847 21058
L47809 21058
" />
<path d="M47509 21452
L47509 21246
L47528 21208
L47565 21190
L47640 21190
L47678 21208
" />
<path d="M47509 21433
L47547 21452
L47640 21452
L47678 21433
L47697 21396
L47697 21358
L47678 21321
L47640 21302
L47547 21302
L47509 21283
" />
<path d="M47153 21433
L47190 21452
L47265 21452
L47303 21433
L47322 21415
L47340 21377
L47340 21265
L47322 21227
L47303 21208
L47265 21190
L47190 21190
L47153 21208
" />
<path d="M46834 21433
L46872 21452
L46947 21452
L46984 21433
L47003 21396
L47003 21246
L46984 21208
L46947 21190
L46872 21190
L46834 21208
L46815 21246
L46815 21283
L47003 21321
" />
<g >
</g>
</g>
<g style="fill:#000000; fill-opacity:0.0; 
stroke:#000000; stroke-width:59.0551; stroke-opacity:1; 
stroke-linecap:round; stroke-linejoin:round;">
</g>
<g style="fill:#C2C200; fill-opacity:0.0; 
stroke:#C2C200; stroke-width:59.0551; stroke-opacity:1; 
stroke-linecap:round; stroke-linejoin:round;">
</g>
<g style="fill:#C2C200; fill-opacity:0.0; 
stroke:#C2C200; stroke-width:19.685; stroke-opacity:1; 
stroke-linecap:round; stroke-linejoin:round;">
<path d="M10000 22100 A500 500 0.0 0 0 10500 22600 " />
<path d="M54770 22600 A500 500 0.0 0 0 55270 22100 " />
<path d="M55270 13937
L51332 10000
" />
<path d="M14000 10000
L10000 13937
" />
<path d="M10500 22600
L54770 22600
" />
<path d="M10000 13937
L10000 22100
" />
<path d="M55270 13937
L55270 22100
" />
<path d="M14000 10000
L51332 10000
" />
<g >
</g>
<g >
</g>
<g >
</g>
<g >
</g>
<g >
</g>
<g >
</g>
<g >
</g>
<g >
</g>
<g >
</g>
<g >
</g>
<g >
</g>
<g >
</g>
<g >
</g>
<g >
</g>
<g >
</g>
<g >
</g>
<g >
</g>
<g >
</g>
<g >
</g>
<g >
</g>
<g >
</g>
<g >
</g>
<g >
</g>
<g >
</g>
<g >
</g>
<g >
</g>
<g >
</g>
<g >
</g>
<g >
</g>
<g >
</g>
<g >
</g>
<g >
</g>
<g >
</g>
<g >
</g>
<g >
</g>
<g >
</g>
<g >
</g>
<g >
</g>
</g> 
</svg>
