<?xml version="1.0" standalone="no"?>
 <!DOCTYPE svg PUBLIC "-//W3C//DTD SVG 1.1//EN" 
 "http://www.w3.org/Graphics/SVG/1.1/DTD/svg11.dtd"> 
<svg xmlns="http://www.w3.org/2000/svg" version="1.1" 
    width="29.7002cm" height="21.0007cm" viewBox="0 0 116930 82680 ">
<title>SVG Picture created as ReversingCam_FSAV433_v3.1-Margin.svg date 2020/04/28 16:34:31 </title>
  <desc>Picture generated by PCBNEW </desc>
<g style="fill:#000000; fill-opacity:1;stroke:#000000; stroke-opacity:1;
stroke-linecap:round; stroke-linejoin:round; "
 transform="translate(0 0) scale(1 1)">
</g>
<g style="fill:#000000; fill-opacity:0.0; 
stroke:#000000; stroke-width:-0.000393701; stroke-opacity:1; 
stroke-linecap:round; stroke-linejoin:round;">
</g>
<g style="fill:#000000; fill-opacity:0.0; 
stroke:#000000; stroke-width:39.3701; stroke-opacity:1; 
stroke-linecap:round; stroke-linejoin:round;">
</g>
<g style="fill:#000000; fill-opacity:0.0; 
stroke:#000000; stroke-width:59.0551; stroke-opacity:1; 
stroke-linecap:round; stroke-linejoin:round;">
<rect x="69685.9" y="65357.2" width="42519.7" height="12598.4" rx="0" />
</g>
<g style="fill:#000000; fill-opacity:0.0; 
stroke:#000000; stroke-width:39.3701; stroke-opacity:1; 
stroke-linecap:round; stroke-linejoin:round;">
</g>
<g style="fill:#000000; fill-opacity:0.0; 
stroke:#000000; stroke-width:59.0551; stroke-opacity:1; 
stroke-linecap:round; stroke-linejoin:round;">
<rect x="3937.01" y="3937.01" width="109056" height="74806" rx="0" />
</g>
<g style="fill:#000000; fill-opacity:0.0; 
stroke:#000000; stroke-width:39.3701; stroke-opacity:1; 
stroke-linecap:round; stroke-linejoin:round;">
</g>
<g style="fill:#000000; fill-opacity:0.0; 
stroke:#000000; stroke-width:59.0551; stroke-opacity:1; 
stroke-linecap:round; stroke-linejoin:round;">
<rect x="4724.41" y="4724.41" width="107481" height="73231.2" rx="0" />
</g>
<g style="fill:#000000; fill-opacity:0.0; 
stroke:#000000; stroke-width:39.3701; stroke-opacity:1; 
stroke-linecap:round; stroke-linejoin:round;">
</g>
<g style="fill:#000000; fill-opacity:0.0; 
stroke:#000000; stroke-width:59.0551; stroke-opacity:1; 
stroke-linecap:round; stroke-linejoin:round;">
<path d="M23622 4724
L23622 3937
" />
</g>
<g style="fill:#000000; fill-opacity:0.0; 
stroke:#000000; stroke-width:39.3701; stroke-opacity:1; 
stroke-linecap:round; stroke-linejoin:round;">
</g>
<g style="fill:#000000; fill-opacity:0.0; 
stroke:#000000; stroke-width:59.0551; stroke-opacity:1; 
stroke-linecap:round; stroke-linejoin:round;">
<path d="M43307 4724
L43307 3937
" />
</g>
<g style="fill:#000000; fill-opacity:0.0; 
stroke:#000000; stroke-width:39.3701; stroke-opacity:1; 
stroke-linecap:round; stroke-linejoin:round;">
</g>
<g style="fill:#000000; fill-opacity:0.0; 
stroke:#000000; stroke-width:59.0551; stroke-opacity:1; 
stroke-linecap:round; stroke-linejoin:round;">
<path d="M62992 4724
L62992 3937
" />
</g>
<g style="fill:#000000; fill-opacity:0.0; 
stroke:#000000; stroke-width:39.3701; stroke-opacity:1; 
stroke-linecap:round; stroke-linejoin:round;">
</g>
<g style="fill:#000000; fill-opacity:0.0; 
stroke:#000000; stroke-width:59.0551; stroke-opacity:1; 
stroke-linecap:round; stroke-linejoin:round;">
<path d="M82677 4724
L82677 3937
" />
</g>
<g style="fill:#000000; fill-opacity:0.0; 
stroke:#000000; stroke-width:39.3701; stroke-opacity:1; 
stroke-linecap:round; stroke-linejoin:round;">
</g>
<g style="fill:#000000; fill-opacity:0.0; 
stroke:#000000; stroke-width:59.0551; stroke-opacity:1; 
stroke-linecap:round; stroke-linejoin:round;">
<path d="M102362 4724
L102362 3937
" />
</g>
<g style="fill:#000000; fill-opacity:0.0; 
stroke:#000000; stroke-width:39.3701; stroke-opacity:1; 
stroke-linecap:round; stroke-linejoin:round;">
</g>
<g style="fill:#000000; fill-opacity:0.0; 
stroke:#000000; stroke-width:59.0551; stroke-opacity:1; 
stroke-linecap:round; stroke-linejoin:round;">
<text x="13779.5" y="4586.61"
textLength="564.211" font-size="682.415" lengthAdjust="spacingAndGlyphs"
text-anchor="start" opacity="0">1</text>
<path d="M14199 4562
L13906 4562
" />
<path d="M14052 4562
L14052 4050
L14004 4123
L13955 4172
L13906 4196
" />
</g>
<g style="fill:#000000; fill-opacity:0.0; 
stroke:#000000; stroke-width:39.3701; stroke-opacity:1; 
stroke-linecap:round; stroke-linejoin:round;">
</g>
<g style="fill:#000000; fill-opacity:0.0; 
stroke:#000000; stroke-width:59.0551; stroke-opacity:1; 
stroke-linecap:round; stroke-linejoin:round;">
<text x="33464.6" y="4586.61"
textLength="546.494" font-size="682.415" lengthAdjust="spacingAndGlyphs"
text-anchor="start" opacity="0">2</text>
<path d="M33591 4099
L33615 4074
L33664 4050
L33786 4050
L33835 4074
L33859 4099
L33884 4147
L33884 4196
L33859 4269
L33567 4562
L33884 4562
" />
</g>
<g style="fill:#000000; fill-opacity:0.0; 
stroke:#000000; stroke-width:39.3701; stroke-opacity:1; 
stroke-linecap:round; stroke-linejoin:round;">
</g>
<g style="fill:#000000; fill-opacity:0.0; 
stroke:#000000; stroke-width:59.0551; stroke-opacity:1; 
stroke-linecap:round; stroke-linejoin:round;">
<text x="53149.6" y="4586.61"
textLength="546.494" font-size="682.415" lengthAdjust="spacingAndGlyphs"
text-anchor="start" opacity="0">3</text>
<path d="M53252 4050
L53569 4050
L53398 4245
L53471 4245
L53520 4269
L53544 4294
L53569 4342
L53569 4464
L53544 4513
L53520 4537
L53471 4562
L53325 4562
L53276 4537
L53252 4513
" />
</g>
<g style="fill:#000000; fill-opacity:0.0; 
stroke:#000000; stroke-width:39.3701; stroke-opacity:1; 
stroke-linecap:round; stroke-linejoin:round;">
</g>
<g style="fill:#000000; fill-opacity:0.0; 
stroke:#000000; stroke-width:59.0551; stroke-opacity:1; 
stroke-linecap:round; stroke-linejoin:round;">
<text x="72834.6" y="4586.61"
textLength="546.494" font-size="682.415" lengthAdjust="spacingAndGlyphs"
text-anchor="start" opacity="0">4</text>
<path d="M73205 4221
L73205 4562
" />
<path d="M73083 4026
L72961 4391
L73278 4391
" />
</g>
<g style="fill:#000000; fill-opacity:0.0; 
stroke:#000000; stroke-width:39.3701; stroke-opacity:1; 
stroke-linecap:round; stroke-linejoin:round;">
</g>
<g style="fill:#000000; fill-opacity:0.0; 
stroke:#000000; stroke-width:59.0551; stroke-opacity:1; 
stroke-linecap:round; stroke-linejoin:round;">
<text x="92519.7" y="4586.61"
textLength="546.494" font-size="682.415" lengthAdjust="spacingAndGlyphs"
text-anchor="start" opacity="0">5</text>
<path d="M92914 4050
L92671 4050
L92646 4294
L92671 4269
L92719 4245
L92841 4245
L92890 4269
L92914 4294
L92939 4342
L92939 4464
L92914 4513
L92890 4537
L92841 4562
L92719 4562
L92671 4537
L92646 4513
" />
</g>
<g style="fill:#000000; fill-opacity:0.0; 
stroke:#000000; stroke-width:39.3701; stroke-opacity:1; 
stroke-linecap:round; stroke-linejoin:round;">
</g>
<g style="fill:#000000; fill-opacity:0.0; 
stroke:#000000; stroke-width:59.0551; stroke-opacity:1; 
stroke-linecap:round; stroke-linejoin:round;">
<text x="112205" y="4586.61"
textLength="546.494" font-size="682.415" lengthAdjust="spacingAndGlyphs"
text-anchor="start" opacity="0">6</text>
<path d="M112575 4050
L112477 4050
L112429 4074
L112404 4099
L112356 4172
L112331 4269
L112331 4464
L112356 4513
L112380 4537
L112429 4562
L112526 4562
L112575 4537
L112599 4513
L112624 4464
L112624 4342
L112599 4294
L112575 4269
L112526 4245
L112429 4245
L112380 4269
L112356 4294
L112331 4342
" />
</g>
<g style="fill:#000000; fill-opacity:0.0; 
stroke:#000000; stroke-width:39.3701; stroke-opacity:1; 
stroke-linecap:round; stroke-linejoin:round;">
</g>
<g style="fill:#000000; fill-opacity:0.0; 
stroke:#000000; stroke-width:59.0551; stroke-opacity:1; 
stroke-linecap:round; stroke-linejoin:round;">
<path d="M23622 77955
L23622 78742
" />
</g>
<g style="fill:#000000; fill-opacity:0.0; 
stroke:#000000; stroke-width:39.3701; stroke-opacity:1; 
stroke-linecap:round; stroke-linejoin:round;">
</g>
<g style="fill:#000000; fill-opacity:0.0; 
stroke:#000000; stroke-width:59.0551; stroke-opacity:1; 
stroke-linecap:round; stroke-linejoin:round;">
<path d="M43307 77955
L43307 78742
" />
</g>
<g style="fill:#000000; fill-opacity:0.0; 
stroke:#000000; stroke-width:39.3701; stroke-opacity:1; 
stroke-linecap:round; stroke-linejoin:round;">
</g>
<g style="fill:#000000; fill-opacity:0.0; 
stroke:#000000; stroke-width:59.0551; stroke-opacity:1; 
stroke-linecap:round; stroke-linejoin:round;">
<path d="M62992 77955
L62992 78742
" />
</g>
<g style="fill:#000000; fill-opacity:0.0; 
stroke:#000000; stroke-width:39.3701; stroke-opacity:1; 
stroke-linecap:round; stroke-linejoin:round;">
</g>
<g style="fill:#000000; fill-opacity:0.0; 
stroke:#000000; stroke-width:59.0551; stroke-opacity:1; 
stroke-linecap:round; stroke-linejoin:round;">
<path d="M82677 77955
L82677 78742
" />
</g>
<g style="fill:#000000; fill-opacity:0.0; 
stroke:#000000; stroke-width:39.3701; stroke-opacity:1; 
stroke-linecap:round; stroke-linejoin:round;">
</g>
<g style="fill:#000000; fill-opacity:0.0; 
stroke:#000000; stroke-width:59.0551; stroke-opacity:1; 
stroke-linecap:round; stroke-linejoin:round;">
<path d="M102362 77955
L102362 78742
" />
</g>
<g style="fill:#000000; fill-opacity:0.0; 
stroke:#000000; stroke-width:39.3701; stroke-opacity:1; 
stroke-linecap:round; stroke-linejoin:round;">
</g>
<g style="fill:#000000; fill-opacity:0.0; 
stroke:#000000; stroke-width:59.0551; stroke-opacity:1; 
stroke-linecap:round; stroke-linejoin:round;">
<text x="13779.5" y="78605.2"
textLength="546.494" font-size="682.415" lengthAdjust="spacingAndGlyphs"
text-anchor="start" opacity="0">1</text>
<path d="M14199 78580
L13906 78580
" />
<path d="M14052 78580
L14052 78069
L14004 78142
L13955 78190
L13906 78215
" />
</g>
<g style="fill:#000000; fill-opacity:0.0; 
stroke:#000000; stroke-width:39.3701; stroke-opacity:1; 
stroke-linecap:round; stroke-linejoin:round;">
</g>
<g style="fill:#000000; fill-opacity:0.0; 
stroke:#000000; stroke-width:59.0551; stroke-opacity:1; 
stroke-linecap:round; stroke-linejoin:round;">
<text x="33464.6" y="78605.2"
textLength="546.494" font-size="682.415" lengthAdjust="spacingAndGlyphs"
text-anchor="start" opacity="0">2</text>
<path d="M33591 78117
L33615 78093
L33664 78069
L33786 78069
L33835 78093
L33859 78117
L33884 78166
L33884 78215
L33859 78288
L33567 78580
L33884 78580
" />
</g>
<g style="fill:#000000; fill-opacity:0.0; 
stroke:#000000; stroke-width:39.3701; stroke-opacity:1; 
stroke-linecap:round; stroke-linejoin:round;">
</g>
<g style="fill:#000000; fill-opacity:0.0; 
stroke:#000000; stroke-width:59.0551; stroke-opacity:1; 
stroke-linecap:round; stroke-linejoin:round;">
<text x="53149.6" y="78605.2"
textLength="546.494" font-size="682.415" lengthAdjust="spacingAndGlyphs"
text-anchor="start" opacity="0">3</text>
<path d="M53252 78069
L53569 78069
L53398 78263
L53471 78263
L53520 78288
L53544 78312
L53569 78361
L53569 78483
L53544 78532
L53520 78556
L53471 78580
L53325 78580
L53276 78556
L53252 78532
" />
</g>
<g style="fill:#000000; fill-opacity:0.0; 
stroke:#000000; stroke-width:39.3701; stroke-opacity:1; 
stroke-linecap:round; stroke-linejoin:round;">
</g>
<g style="fill:#000000; fill-opacity:0.0; 
stroke:#000000; stroke-width:59.0551; stroke-opacity:1; 
stroke-linecap:round; stroke-linejoin:round;">
<text x="72834.6" y="78605.2"
textLength="546.494" font-size="682.415" lengthAdjust="spacingAndGlyphs"
text-anchor="start" opacity="0">4</text>
<path d="M73205 78239
L73205 78580
" />
<path d="M73083 78044
L72961 78410
L73278 78410
" />
</g>
<g style="fill:#000000; fill-opacity:0.0; 
stroke:#000000; stroke-width:39.3701; stroke-opacity:1; 
stroke-linecap:round; stroke-linejoin:round;">
</g>
<g style="fill:#000000; fill-opacity:0.0; 
stroke:#000000; stroke-width:59.0551; stroke-opacity:1; 
stroke-linecap:round; stroke-linejoin:round;">
<text x="92519.7" y="78605.2"
textLength="546.494" font-size="682.415" lengthAdjust="spacingAndGlyphs"
text-anchor="start" opacity="0">5</text>
<path d="M92914 78069
L92671 78069
L92646 78312
L92671 78288
L92719 78263
L92841 78263
L92890 78288
L92914 78312
L92939 78361
L92939 78483
L92914 78532
L92890 78556
L92841 78580
L92719 78580
L92671 78556
L92646 78532
" />
</g>
<g style="fill:#000000; fill-opacity:0.0; 
stroke:#000000; stroke-width:39.3701; stroke-opacity:1; 
stroke-linecap:round; stroke-linejoin:round;">
</g>
<g style="fill:#000000; fill-opacity:0.0; 
stroke:#000000; stroke-width:59.0551; stroke-opacity:1; 
stroke-linecap:round; stroke-linejoin:round;">
<text x="112205" y="78605.2"
textLength="546.494" font-size="682.415" lengthAdjust="spacingAndGlyphs"
text-anchor="start" opacity="0">6</text>
<path d="M112575 78069
L112477 78069
L112429 78093
L112404 78117
L112356 78190
L112331 78288
L112331 78483
L112356 78532
L112380 78556
L112429 78580
L112526 78580
L112575 78556
L112599 78532
L112624 78483
L112624 78361
L112599 78312
L112575 78288
L112526 78263
L112429 78263
L112380 78288
L112356 78312
L112331 78361
" />
</g>
<g style="fill:#000000; fill-opacity:0.0; 
stroke:#000000; stroke-width:39.3701; stroke-opacity:1; 
stroke-linecap:round; stroke-linejoin:round;">
</g>
<g style="fill:#000000; fill-opacity:0.0; 
stroke:#000000; stroke-width:59.0551; stroke-opacity:1; 
stroke-linecap:round; stroke-linejoin:round;">
<path d="M3937 23622
L4724 23622
" />
</g>
<g style="fill:#000000; fill-opacity:0.0; 
stroke:#000000; stroke-width:39.3701; stroke-opacity:1; 
stroke-linecap:round; stroke-linejoin:round;">
</g>
<g style="fill:#000000; fill-opacity:0.0; 
stroke:#000000; stroke-width:59.0551; stroke-opacity:1; 
stroke-linecap:round; stroke-linejoin:round;">
<path d="M3937 43307
L4724 43307
" />
</g>
<g style="fill:#000000; fill-opacity:0.0; 
stroke:#000000; stroke-width:39.3701; stroke-opacity:1; 
stroke-linecap:round; stroke-linejoin:round;">
</g>
<g style="fill:#000000; fill-opacity:0.0; 
stroke:#000000; stroke-width:59.0551; stroke-opacity:1; 
stroke-linecap:round; stroke-linejoin:round;">
<path d="M3937 62992
L4724 62992
" />
</g>
<g style="fill:#000000; fill-opacity:0.0; 
stroke:#000000; stroke-width:39.3701; stroke-opacity:1; 
stroke-linecap:round; stroke-linejoin:round;">
</g>
<g style="fill:#000000; fill-opacity:0.0; 
stroke:#000000; stroke-width:59.0551; stroke-opacity:1; 
stroke-linecap:round; stroke-linejoin:round;">
<text x="4330.71" y="14035.4"
textLength="497.75" font-size="682.415" lengthAdjust="spacingAndGlyphs"
text-anchor="middle" opacity="0">A</text>
<path d="M4208 13864
L4452 13864
" />
<path d="M4160 14011
L4330 13499
L4501 14011
" />
</g>
<g style="fill:#000000; fill-opacity:0.0; 
stroke:#000000; stroke-width:39.3701; stroke-opacity:1; 
stroke-linecap:round; stroke-linejoin:round;">
</g>
<g style="fill:#000000; fill-opacity:0.0; 
stroke:#000000; stroke-width:59.0551; stroke-opacity:1; 
stroke-linecap:round; stroke-linejoin:round;">
<text x="4330.71" y="33720.5"
textLength="570.866" font-size="682.415" lengthAdjust="spacingAndGlyphs"
text-anchor="middle" opacity="0">B</text>
<path d="M4367 33428
L4440 33452
L4464 33476
L4489 33525
L4489 33598
L4464 33647
L4440 33671
L4391 33696
L4196 33696
L4196 33184
L4367 33184
L4416 33208
L4440 33233
L4464 33281
L4464 33330
L4440 33379
L4416 33403
L4367 33428
L4196 33428
" />
</g>
<g style="fill:#000000; fill-opacity:0.0; 
stroke:#000000; stroke-width:39.3701; stroke-opacity:1; 
stroke-linecap:round; stroke-linejoin:round;">
</g>
<g style="fill:#000000; fill-opacity:0.0; 
stroke:#000000; stroke-width:59.0551; stroke-opacity:1; 
stroke-linecap:round; stroke-linejoin:round;">
<text x="4330.71" y="53405.5"
textLength="570.866" font-size="682.415" lengthAdjust="spacingAndGlyphs"
text-anchor="middle" opacity="0">C</text>
<path d="M4489 53332
L4464 53356
L4391 53381
L4342 53381
L4269 53356
L4221 53308
L4196 53259
L4172 53161
L4172 53088
L4196 52991
L4221 52942
L4269 52893
L4342 52869
L4391 52869
L4464 52893
L4489 52918
" />
</g>
<g style="fill:#000000; fill-opacity:0.0; 
stroke:#000000; stroke-width:39.3701; stroke-opacity:1; 
stroke-linecap:round; stroke-linejoin:round;">
</g>
<g style="fill:#000000; fill-opacity:0.0; 
stroke:#000000; stroke-width:59.0551; stroke-opacity:1; 
stroke-linecap:round; stroke-linejoin:round;">
<text x="4330.71" y="73090.6"
textLength="570.866" font-size="682.415" lengthAdjust="spacingAndGlyphs"
text-anchor="middle" opacity="0">D</text>
<path d="M4196 73066
L4196 72554
L4318 72554
L4391 72578
L4440 72627
L4464 72676
L4489 72773
L4489 72846
L4464 72944
L4440 72993
L4391 73041
L4318 73066
L4196 73066
" />
</g>
<g style="fill:#000000; fill-opacity:0.0; 
stroke:#000000; stroke-width:39.3701; stroke-opacity:1; 
stroke-linecap:round; stroke-linejoin:round;">
</g>
<g style="fill:#000000; fill-opacity:0.0; 
stroke:#000000; stroke-width:59.0551; stroke-opacity:1; 
stroke-linecap:round; stroke-linejoin:round;">
<path d="M112992 23622
L112205 23622
" />
</g>
<g style="fill:#000000; fill-opacity:0.0; 
stroke:#000000; stroke-width:39.3701; stroke-opacity:1; 
stroke-linecap:round; stroke-linejoin:round;">
</g>
<g style="fill:#000000; fill-opacity:0.0; 
stroke:#000000; stroke-width:59.0551; stroke-opacity:1; 
stroke-linecap:round; stroke-linejoin:round;">
<path d="M112992 43307
L112205 43307
" />
</g>
<g style="fill:#000000; fill-opacity:0.0; 
stroke:#000000; stroke-width:39.3701; stroke-opacity:1; 
stroke-linecap:round; stroke-linejoin:round;">
</g>
<g style="fill:#000000; fill-opacity:0.0; 
stroke:#000000; stroke-width:59.0551; stroke-opacity:1; 
stroke-linecap:round; stroke-linejoin:round;">
<path d="M112992 62992
L112205 62992
" />
</g>
<g style="fill:#000000; fill-opacity:0.0; 
stroke:#000000; stroke-width:39.3701; stroke-opacity:1; 
stroke-linecap:round; stroke-linejoin:round;">
</g>
<g style="fill:#000000; fill-opacity:0.0; 
stroke:#000000; stroke-width:59.0551; stroke-opacity:1; 
stroke-linecap:round; stroke-linejoin:round;">
<text x="112599" y="14035.4"
textLength="497.75" font-size="682.415" lengthAdjust="spacingAndGlyphs"
text-anchor="middle" opacity="0">A</text>
<path d="M112477 13864
L112721 13864
" />
<path d="M112428 14011
L112599 13499
L112769 14011
" />
</g>
<g style="fill:#000000; fill-opacity:0.0; 
stroke:#000000; stroke-width:39.3701; stroke-opacity:1; 
stroke-linecap:round; stroke-linejoin:round;">
</g>
<g style="fill:#000000; fill-opacity:0.0; 
stroke:#000000; stroke-width:59.0551; stroke-opacity:1; 
stroke-linecap:round; stroke-linejoin:round;">
<text x="112599" y="33720.5"
textLength="570.866" font-size="682.415" lengthAdjust="spacingAndGlyphs"
text-anchor="middle" opacity="0">B</text>
<path d="M112635 33428
L112708 33452
L112733 33476
L112757 33525
L112757 33598
L112733 33647
L112708 33671
L112660 33696
L112465 33696
L112465 33184
L112635 33184
L112684 33208
L112708 33233
L112733 33281
L112733 33330
L112708 33379
L112684 33403
L112635 33428
L112465 33428
" />
</g>
<g style="fill:#000000; fill-opacity:0.0; 
stroke:#000000; stroke-width:39.3701; stroke-opacity:1; 
stroke-linecap:round; stroke-linejoin:round;">
</g>
<g style="fill:#000000; fill-opacity:0.0; 
stroke:#000000; stroke-width:59.0551; stroke-opacity:1; 
stroke-linecap:round; stroke-linejoin:round;">
<text x="112599" y="53405.5"
textLength="570.866" font-size="682.415" lengthAdjust="spacingAndGlyphs"
text-anchor="middle" opacity="0">C</text>
<path d="M112757 53332
L112733 53356
L112660 53381
L112611 53381
L112538 53356
L112489 53308
L112465 53259
L112440 53161
L112440 53088
L112465 52991
L112489 52942
L112538 52893
L112611 52869
L112660 52869
L112733 52893
L112757 52918
" />
</g>
<g style="fill:#000000; fill-opacity:0.0; 
stroke:#000000; stroke-width:39.3701; stroke-opacity:1; 
stroke-linecap:round; stroke-linejoin:round;">
</g>
<g style="fill:#000000; fill-opacity:0.0; 
stroke:#000000; stroke-width:59.0551; stroke-opacity:1; 
stroke-linecap:round; stroke-linejoin:round;">
<text x="112599" y="73090.6"
textLength="570.866" font-size="682.415" lengthAdjust="spacingAndGlyphs"
text-anchor="middle" opacity="0">D</text>
<path d="M112465 73066
L112465 72554
L112587 72554
L112660 72578
L112708 72627
L112733 72676
L112757 72773
L112757 72846
L112733 72944
L112708 72993
L112660 73041
L112587 73066
L112465 73066
" />
</g>
<g style="fill:#000000; fill-opacity:0.0; 
stroke:#000000; stroke-width:39.3701; stroke-opacity:1; 
stroke-linecap:round; stroke-linejoin:round;">
</g>
<g style="fill:#000000; fill-opacity:0.0; 
stroke:#000000; stroke-width:59.0551; stroke-opacity:1; 
stroke-linecap:round; stroke-linejoin:round;">
<text x="78741" y="76321.7"
textLength="8495.5" font-size="787.402" lengthAdjust="spacingAndGlyphs"
text-anchor="start" opacity="0">Date: 15/04/2020</text>
<path d="M78911 76293
L78911 75703
L79051 75703
L79136 75731
L79192 75787
L79220 75843
L79248 75956
L79248 76040
L79220 76153
L79192 76209
L79136 76265
L79051 76293
L78911 76293
" />
<path d="M79754 76293
L79754 75984
L79726 75928
L79670 75899
L79557 75899
L79501 75928
" />
<path d="M79754 76265
L79698 76293
L79557 76293
L79501 76265
L79473 76209
L79473 76153
L79501 76096
L79557 76068
L79698 76068
L79754 76040
" />
<path d="M79951 75899
L80176 75899
" />
<path d="M80036 75703
L80036 76209
L80064 76265
L80120 76293
L80176 76293
" />
<path d="M80598 76265
L80542 76293
L80429 76293
L80373 76265
L80345 76209
L80345 75984
L80373 75928
L80429 75899
L80542 75899
L80598 75928
L80626 75984
L80626 76040
L80345 76096
" />
<path d="M80879 76237
L80907 76265
L80879 76293
L80851 76265
L80879 76237
L80879 76293
" />
<path d="M80879 75928
L80907 75956
L80879 75984
L80851 75956
L80879 75928
L80879 75984
" />
<path d="M81920 76293
L81582 76293
" />
<path d="M81751 76293
L81751 75703
L81695 75787
L81638 75843
L81582 75871
" />
<path d="M82454 75703
L82173 75703
L82145 75984
L82173 75956
L82229 75928
L82370 75928
L82426 75956
L82454 75984
L82482 76040
L82482 76181
L82454 76237
L82426 76265
L82370 76293
L82229 76293
L82173 76265
L82145 76237
" />
<path d="M83157 75674
L82651 76434
" />
<path d="M83466 75703
L83523 75703
L83579 75731
L83607 75759
L83635 75815
L83663 75928
L83663 76068
L83635 76181
L83607 76237
L83579 76265
L83523 76293
L83466 76293
L83410 76265
L83382 76237
L83354 76181
L83326 76068
L83326 75928
L83354 75815
L83382 75759
L83410 75731
L83466 75703
" />
<path d="M84169 75899
L84169 76293
" />
<path d="M84029 75674
L83888 76096
L84254 76096
" />
<path d="M84901 75674
L84394 76434
" />
<path d="M85069 75759
L85097 75731
L85154 75703
L85294 75703
L85350 75731
L85379 75759
L85407 75815
L85407 75871
L85379 75956
L85041 76293
L85407 76293
" />
<path d="M85772 75703
L85829 75703
L85885 75731
L85913 75759
L85941 75815
L85969 75928
L85969 76068
L85941 76181
L85913 76237
L85885 76265
L85829 76293
L85772 76293
L85716 76265
L85688 76237
L85660 76181
L85632 76068
L85632 75928
L85660 75815
L85688 75759
L85716 75731
L85772 75703
" />
<path d="M86194 75759
L86222 75731
L86278 75703
L86419 75703
L86475 75731
L86503 75759
L86532 75815
L86532 75871
L86503 75956
L86166 76293
L86532 76293
" />
<path d="M86897 75703
L86953 75703
L87010 75731
L87038 75759
L87066 75815
L87094 75928
L87094 76068
L87066 76181
L87038 76237
L87010 76265
L86953 76293
L86897 76293
L86841 76265
L86813 76237
L86785 76181
L86757 76068
L86757 75928
L86785 75815
L86813 75759
L86841 75731
L86897 75703
" />
</g>
<g style="fill:#000000; fill-opacity:0.0; 
stroke:#000000; stroke-width:39.3701; stroke-opacity:1; 
stroke-linecap:round; stroke-linejoin:round;">
</g>
<g style="fill:#000000; fill-opacity:0.0; 
stroke:#000000; stroke-width:59.0551; stroke-opacity:1; 
stroke-linecap:round; stroke-linejoin:round;">
<path d="M69685 76577
L112205 76577
" />
</g>
<g style="fill:#000000; fill-opacity:0.0; 
stroke:#000000; stroke-width:39.3701; stroke-opacity:1; 
stroke-linecap:round; stroke-linejoin:round;">
</g>
<g style="fill:#000000; fill-opacity:0.0; 
stroke:#000000; stroke-width:59.0551; stroke-opacity:1; 
stroke-linecap:round; stroke-linejoin:round;">
<text x="70079.6" y="77424.1"
textLength="14991.6" font-size="787.402" lengthAdjust="spacingAndGlyphs"
text-anchor="start" opacity="0">KiCad E.D.A.  kicad 5.1.5-1.fc31</text>
<path d="M70249 77395
L70249 76805
" />
<path d="M70587 77395
L70334 77058
" />
<path d="M70587 76805
L70249 77142
" />
<path d="M70840 77395
L70840 77002
" />
<path d="M70840 76805
L70812 76833
L70840 76861
L70868 76833
L70840 76805
L70840 76861
" />
<path d="M71458 77339
L71430 77367
L71346 77395
L71290 77395
L71205 77367
L71149 77311
L71121 77255
L71093 77142
L71093 77058
L71121 76946
L71149 76889
L71205 76833
L71290 76805
L71346 76805
L71430 76833
L71458 76861
" />
<path d="M71965 77395
L71965 77086
L71937 77030
L71880 77002
L71768 77002
L71712 77030
" />
<path d="M71965 77367
L71908 77395
L71768 77395
L71712 77367
L71683 77311
L71683 77255
L71712 77199
L71768 77171
L71908 77171
L71965 77142
" />
<path d="M72499 77395
L72499 76805
" />
<path d="M72499 77367
L72443 77395
L72330 77395
L72274 77367
L72246 77339
L72218 77283
L72218 77114
L72246 77058
L72274 77030
L72330 77002
L72443 77002
L72499 77030
" />
<path d="M73230 77086
L73427 77086
" />
<path d="M73511 77395
L73230 77395
L73230 76805
L73511 76805
" />
<path d="M73764 77339
L73793 77367
L73764 77395
L73736 77367
L73764 77339
L73764 77395
" />
<path d="M74046 77395
L74046 76805
L74186 76805
L74271 76833
L74327 76889
L74355 76946
L74383 77058
L74383 77142
L74355 77255
L74327 77311
L74271 77367
L74186 77395
L74046 77395
" />
<path d="M74636 77339
L74664 77367
L74636 77395
L74608 77367
L74636 77339
L74636 77395
" />
<path d="M74889 77227
L75171 77227
" />
<path d="M74833 77395
L75030 76805
L75227 77395
" />
<path d="M75424 77339
L75452 77367
L75424 77395
L75395 77367
L75424 77339
L75424 77395
" />
<path d="M76605 77395
L76605 76805
" />
<path d="M76661 77171
L76830 77395
" />
<path d="M76830 77002
L76605 77227
" />
<path d="M77083 77395
L77083 77002
" />
<path d="M77083 76805
L77055 76833
L77083 76861
L77111 76833
L77083 76805
L77083 76861
" />
<path d="M77617 77367
L77561 77395
L77448 77395
L77392 77367
L77364 77339
L77336 77283
L77336 77114
L77364 77058
L77392 77030
L77448 77002
L77561 77002
L77617 77030
" />
<path d="M78123 77395
L78123 77086
L78095 77030
L78039 77002
L77926 77002
L77870 77030
" />
<path d="M78123 77367
L78067 77395
L77926 77395
L77870 77367
L77842 77311
L77842 77255
L77870 77199
L77926 77171
L78067 77171
L78123 77142
" />
<path d="M78658 77395
L78658 76805
" />
<path d="M78658 77367
L78601 77395
L78489 77395
L78433 77367
L78404 77339
L78376 77283
L78376 77114
L78404 77058
L78433 77030
L78489 77002
L78601 77002
L78658 77030
" />
<path d="M79670 76805
L79389 76805
L79361 77086
L79389 77058
L79445 77030
L79586 77030
L79642 77058
L79670 77086
L79698 77142
L79698 77283
L79670 77339
L79642 77367
L79586 77395
L79445 77395
L79389 77367
L79361 77339
" />
<path d="M79951 77339
L79979 77367
L79951 77395
L79923 77367
L79951 77339
L79951 77395
" />
<path d="M80542 77395
L80204 77395
" />
<path d="M80373 77395
L80373 76805
L80317 76889
L80260 76946
L80204 76974
" />
<path d="M80795 77339
L80823 77367
L80795 77395
L80767 77367
L80795 77339
L80795 77395
" />
<path d="M81357 76805
L81076 76805
L81048 77086
L81076 77058
L81132 77030
L81273 77030
L81329 77058
L81357 77086
L81385 77142
L81385 77283
L81357 77339
L81329 77367
L81273 77395
L81132 77395
L81076 77367
L81048 77339
" />
<path d="M81638 77171
L82088 77171
" />
<path d="M82679 77395
L82341 77395
" />
<path d="M82510 77395
L82510 76805
L82454 76889
L82398 76946
L82341 76974
" />
<path d="M82932 77339
L82960 77367
L82932 77395
L82904 77367
L82932 77339
L82932 77395
" />
<path d="M83129 77002
L83354 77002
" />
<path d="M83213 77395
L83213 76889
L83241 76833
L83298 76805
L83354 76805
" />
<path d="M83804 77367
L83748 77395
L83635 77395
L83579 77367
L83551 77339
L83523 77283
L83523 77114
L83551 77058
L83579 77030
L83635 77002
L83748 77002
L83804 77030
" />
<path d="M84001 76805
L84366 76805
L84169 77030
L84254 77030
L84310 77058
L84338 77086
L84366 77142
L84366 77283
L84338 77339
L84310 77367
L84254 77395
L84085 77395
L84029 77367
L84001 77339
" />
<path d="M84929 77395
L84591 77395
" />
<path d="M84760 77395
L84760 76805
L84704 76889
L84647 76946
L84591 76974
" />
</g>
<g style="fill:#000000; fill-opacity:0.0; 
stroke:#000000; stroke-width:39.3701; stroke-opacity:1; 
stroke-linecap:round; stroke-linejoin:round;">
</g>
<g style="fill:#000000; fill-opacity:0.0; 
stroke:#000000; stroke-width:59.0551; stroke-opacity:1; 
stroke-linecap:round; stroke-linejoin:round;">
<path d="M69685 75396
L112205 75396
" />
</g>
<g style="fill:#000000; fill-opacity:0.0; 
stroke:#000000; stroke-width:39.3701; stroke-opacity:1; 
stroke-linecap:round; stroke-linejoin:round;">
</g>
<g style="fill:#000000; fill-opacity:0.0; 
stroke:#000000; stroke-width:118.11; stroke-opacity:1; 
stroke-linecap:round; stroke-linejoin:round;">
<text x="103544" y="76321.7"
textLength="4249.16" font-size="787.402" lengthAdjust="spacingAndGlyphs"
text-anchor="start" opacity="0">Rev: V3.1</text>
<path d="M104099 76293
L103902 76012
" />
<path d="M103761 76293
L103761 75703
L103986 75703
L104042 75731
L104070 75759
L104099 75815
L104099 75899
L104070 75956
L104042 75984
L103986 76012
L103761 76012
" />
<path d="M104577 76265
L104520 76293
L104408 76293
L104352 76265
L104323 76209
L104323 75984
L104352 75928
L104408 75899
L104520 75899
L104577 75928
L104605 75984
L104605 76040
L104323 76096
" />
<path d="M104802 75899
L104942 76293
L105083 75899
" />
<path d="M105308 76237
L105336 76265
L105308 76293
L105280 76265
L105308 76237
L105308 76293
" />
<path d="M105308 75928
L105336 75956
L105308 75984
L105280 75956
L105308 75928
L105308 75984
" />
<path d="M105955 75703
L106151 76293
L106348 75703
" />
<path d="M106489 75703
L106854 75703
L106658 75928
L106742 75928
L106798 75956
L106826 75984
L106854 76040
L106854 76181
L106826 76237
L106798 76265
L106742 76293
L106573 76293
L106517 76265
L106489 76237
" />
<path d="M107108 76237
L107136 76265
L107108 76293
L107079 76265
L107108 76237
L107108 76293
" />
<path d="M107698 76293
L107361 76293
" />
<path d="M107529 76293
L107529 75703
L107473 75787
L107417 75843
L107361 75871
" />
</g>
<g style="fill:#000000; fill-opacity:0.0; 
stroke:#000000; stroke-width:39.3701; stroke-opacity:1; 
stroke-linecap:round; stroke-linejoin:round;">
</g>
<g style="fill:#000000; fill-opacity:0.0; 
stroke:#000000; stroke-width:59.0551; stroke-opacity:1; 
stroke-linecap:round; stroke-linejoin:round;">
<text x="70079.6" y="76321.7"
textLength="3781.21" font-size="787.402" lengthAdjust="spacingAndGlyphs"
text-anchor="start" opacity="0">Size: A4</text>
<path d="M70221 76265
L70305 76293
L70446 76293
L70502 76265
L70530 76237
L70559 76181
L70559 76124
L70530 76068
L70502 76040
L70446 76012
L70334 75984
L70277 75956
L70249 75928
L70221 75871
L70221 75815
L70249 75759
L70277 75731
L70334 75703
L70474 75703
L70559 75731
" />
<path d="M70812 76293
L70812 75899
" />
<path d="M70812 75703
L70784 75731
L70812 75759
L70840 75731
L70812 75703
L70812 75759
" />
<path d="M71037 75899
L71346 75899
L71037 76293
L71346 76293
" />
<path d="M71796 76265
L71740 76293
L71627 76293
L71571 76265
L71543 76209
L71543 75984
L71571 75928
L71627 75899
L71740 75899
L71796 75928
L71824 75984
L71824 76040
L71543 76096
" />
<path d="M72077 76237
L72105 76265
L72077 76293
L72049 76265
L72077 76237
L72077 76293
" />
<path d="M72077 75928
L72105 75956
L72077 75984
L72049 75956
L72077 75928
L72077 75984
" />
<path d="M72780 76124
L73061 76124
" />
<path d="M72724 76293
L72921 75703
L73118 76293
" />
<path d="M73568 75899
L73568 76293
" />
<path d="M73427 75674
L73286 76096
L73652 76096
" />
</g>
<g style="fill:#000000; fill-opacity:0.0; 
stroke:#000000; stroke-width:39.3701; stroke-opacity:1; 
stroke-linecap:round; stroke-linejoin:round;">
</g>
<g style="fill:#000000; fill-opacity:0.0; 
stroke:#000000; stroke-width:59.0551; stroke-opacity:1; 
stroke-linecap:round; stroke-linejoin:round;">
<text x="103544" y="77424.1"
textLength="3349.27" font-size="787.402" lengthAdjust="spacingAndGlyphs"
text-anchor="start" opacity="0">Id: 1/1</text>
<path d="M103714 77395
L103714 76805
" />
<path d="M104248 77395
L104248 76805
" />
<path d="M104248 77367
L104192 77395
L104079 77395
L104023 77367
L103995 77339
L103967 77283
L103967 77114
L103995 77058
L104023 77030
L104079 77002
L104192 77002
L104248 77030
" />
<path d="M104529 77339
L104557 77367
L104529 77395
L104501 77367
L104529 77339
L104529 77395
" />
<path d="M104529 77030
L104557 77058
L104529 77086
L104501 77058
L104529 77030
L104529 77086
" />
<path d="M105570 77395
L105232 77395
" />
<path d="M105401 77395
L105401 76805
L105345 76889
L105289 76946
L105232 76974
" />
<path d="M106245 76777
L105739 77536
" />
<path d="M106751 77395
L106413 77395
" />
<path d="M106582 77395
L106582 76805
L106526 76889
L106470 76946
L106413 76974
" />
</g>
<g style="fill:#000000; fill-opacity:0.0; 
stroke:#000000; stroke-width:39.3701; stroke-opacity:1; 
stroke-linecap:round; stroke-linejoin:round;">
</g>
<g style="fill:#000000; fill-opacity:0.0; 
stroke:#000000; stroke-width:59.0551; stroke-opacity:1; 
stroke-linecap:round; stroke-linejoin:round;">
<path d="M69685 73821
L112205 73821
" />
</g>
<g style="fill:#000000; fill-opacity:0.0; 
stroke:#000000; stroke-width:39.3701; stroke-opacity:1; 
stroke-linecap:round; stroke-linejoin:round;">
</g>
<g style="fill:#000000; fill-opacity:0.0; 
stroke:#000000; stroke-width:157.48; stroke-opacity:1; 
stroke-linecap:round; stroke-linejoin:round;">
<text x="70079.6" y="74924.1"
textLength="23161.2" font-size="1049.87" lengthAdjust="spacingAndGlyphs"
text-anchor="start" opacity="0">Title: Reversing Camera RGB Interface</text>
<path d="M70360 74099
L70810 74099
" />
<path d="M70486 74886
L70585 74099
" />
<path d="M70974 74886
L71039 74361
" />
<path d="M71072 74099
L71030 74136
L71063 74174
L71105 74136
L71072 74099
L71063 74174
" />
<path d="M71302 74361
L71602 74361
" />
<path d="M71447 74099
L71363 74774
L71391 74849
L71461 74886
L71536 74886
" />
<path d="M71911 74886
L71841 74849
L71813 74774
L71897 74099
" />
<path d="M72516 74849
L72436 74886
L72286 74886
L72216 74849
L72187 74774
L72225 74474
L72272 74399
L72352 74361
L72501 74361
L72572 74399
L72600 74474
L72591 74549
L72206 74624
" />
<path d="M72895 74811
L72928 74849
L72886 74886
L72853 74849
L72895 74811
L72886 74886
" />
<path d="M72947 74399
L72980 74436
L72937 74474
L72905 74436
L72947 74399
L72937 74474
" />
<path d="M74311 74886
L74095 74511
" />
<path d="M73861 74886
L73959 74099
L74259 74099
L74329 74136
L74362 74174
L74390 74249
L74376 74361
L74329 74436
L74287 74474
L74208 74511
L73908 74511
" />
<path d="M74953 74849
L74873 74886
L74723 74886
L74653 74849
L74625 74774
L74662 74474
L74709 74399
L74789 74361
L74939 74361
L75009 74399
L75037 74474
L75028 74549
L74643 74624
" />
<path d="M75314 74361
L75435 74886
L75689 74361
" />
<path d="M76228 74849
L76148 74886
L75998 74886
L75928 74849
L75900 74774
L75937 74474
L75984 74399
L76064 74361
L76214 74361
L76284 74399
L76312 74474
L76303 74549
L75918 74624
" />
<path d="M76598 74886
L76663 74361
" />
<path d="M76645 74511
L76692 74436
L76734 74399
L76813 74361
L76888 74361
" />
<path d="M77052 74849
L77123 74886
L77273 74886
L77352 74849
L77399 74774
L77404 74736
L77376 74661
L77306 74624
L77193 74624
L77123 74586
L77095 74511
L77099 74474
L77146 74399
L77226 74361
L77338 74361
L77409 74399
" />
<path d="M77723 74886
L77788 74361
" />
<path d="M77821 74099
L77779 74136
L77812 74174
L77854 74136
L77821 74099
L77812 74174
" />
<path d="M78163 74361
L78098 74886
" />
<path d="M78154 74436
L78196 74399
L78276 74361
L78388 74361
L78459 74399
L78487 74474
L78435 74886
" />
<path d="M79213 74361
L79133 74999
L79087 75074
L79044 75111
L78965 75149
L78852 75149
L78782 75111
" />
<path d="M79152 74849
L79073 74886
L78923 74886
L78852 74849
L78819 74811
L78791 74736
L78819 74511
L78866 74436
L78909 74399
L78988 74361
L79138 74361
L79208 74399
" />
<path d="M80582 74811
L80540 74849
L80422 74886
L80347 74886
L80240 74849
L80174 74774
L80146 74699
L80127 74549
L80141 74436
L80197 74286
L80244 74211
L80329 74136
L80446 74099
L80521 74099
L80629 74136
L80661 74174
" />
<path d="M81247 74886
L81299 74474
L81271 74399
L81200 74361
L81050 74361
L80971 74399
" />
<path d="M81252 74849
L81172 74886
L80985 74886
L80915 74849
L80886 74774
L80896 74699
L80943 74624
L81022 74586
L81210 74586
L81289 74549
" />
<path d="M81622 74886
L81688 74361
" />
<path d="M81678 74436
L81721 74399
L81800 74361
L81913 74361
L81983 74399
L82011 74474
L81960 74886
" />
<path d="M82011 74474
L82058 74399
L82138 74361
L82250 74361
L82321 74399
L82349 74474
L82297 74886
" />
<path d="M82977 74849
L82897 74886
L82747 74886
L82677 74849
L82649 74774
L82686 74474
L82733 74399
L82813 74361
L82963 74361
L83033 74399
L83061 74474
L83052 74549
L82667 74624
" />
<path d="M83347 74886
L83413 74361
" />
<path d="M83394 74511
L83441 74436
L83483 74399
L83563 74361
L83638 74361
" />
<path d="M84172 74886
L84223 74474
L84195 74399
L84125 74361
L83975 74361
L83895 74399
" />
<path d="M84177 74849
L84097 74886
L83909 74886
L83839 74849
L83811 74774
L83820 74699
L83867 74624
L83947 74586
L84134 74586
L84214 74549
" />
<path d="M85597 74886
L85381 74511
" />
<path d="M85147 74886
L85245 74099
L85545 74099
L85615 74136
L85648 74174
L85676 74249
L85662 74361
L85615 74436
L85573 74474
L85494 74511
L85194 74511
" />
<path d="M86440 74136
L86370 74099
L86258 74099
L86140 74136
L86056 74211
L86009 74286
L85953 74436
L85939 74549
L85958 74699
L85986 74774
L86051 74849
L86159 74886
L86234 74886
L86351 74849
L86394 74811
L86426 74549
L86276 74549
" />
<path d="M87036 74474
L87143 74511
L87176 74549
L87204 74624
L87190 74736
L87143 74811
L87101 74849
L87022 74886
L86722 74886
L86820 74099
L87082 74099
L87153 74136
L87186 74174
L87214 74249
L87204 74324
L87157 74399
L87115 74436
L87036 74474
L86773 74474
" />
<path d="M88109 74886
L88207 74099
" />
<path d="M88549 74361
L88484 74886
" />
<path d="M88540 74436
L88582 74399
L88662 74361
L88774 74361
L88845 74399
L88873 74474
L88821 74886
" />
<path d="M89149 74361
L89449 74361
" />
<path d="M89295 74099
L89210 74774
L89238 74849
L89309 74886
L89384 74886
" />
<path d="M89951 74849
L89871 74886
L89721 74886
L89651 74849
L89623 74774
L89660 74474
L89707 74399
L89787 74361
L89937 74361
L90007 74399
L90035 74474
L90026 74549
L89642 74624
" />
<path d="M90321 74886
L90387 74361
" />
<path d="M90368 74511
L90415 74436
L90457 74399
L90537 74361
L90612 74361
" />
<path d="M90762 74361
L91062 74361
" />
<path d="M90809 74886
L90893 74211
L90940 74136
L91019 74099
L91094 74099
" />
<path d="M91596 74886
L91648 74474
L91619 74399
L91549 74361
L91399 74361
L91319 74399
" />
<path d="M91601 74849
L91521 74886
L91334 74886
L91263 74849
L91235 74774
L91244 74699
L91291 74624
L91371 74586
L91558 74586
L91638 74549
" />
<path d="M92313 74849
L92233 74886
L92083 74886
L92013 74849
L91980 74811
L91952 74736
L91980 74511
L92027 74436
L92069 74399
L92149 74361
L92299 74361
L92369 74399
" />
<path d="M92950 74849
L92871 74886
L92721 74886
L92651 74849
L92622 74774
L92660 74474
L92707 74399
L92786 74361
L92936 74361
L93007 74399
L93035 74474
L93025 74549
L92641 74624
" />
</g>
<g style="fill:#000000; fill-opacity:0.0; 
stroke:#000000; stroke-width:39.3701; stroke-opacity:1; 
stroke-linecap:round; stroke-linejoin:round;">
</g>
<g style="fill:#000000; fill-opacity:0.0; 
stroke:#000000; stroke-width:59.0551; stroke-opacity:1; 
stroke-linecap:round; stroke-linejoin:round;">
<text x="70079.6" y="73408.3"
textLength="19861.6" font-size="787.402" lengthAdjust="spacingAndGlyphs"
text-anchor="start" opacity="0">File: ReversingCam_FSAV433_v3.1.kicad_pcb</text>
<path d="M70446 73070
L70249 73070
" />
<path d="M70249 73380
L70249 72789
L70530 72789
" />
<path d="M70755 73380
L70755 72986
" />
<path d="M70755 72789
L70727 72817
L70755 72845
L70784 72817
L70755 72789
L70755 72845
" />
<path d="M71121 73380
L71065 73352
L71037 73295
L71037 72789
" />
<path d="M71571 73352
L71515 73380
L71402 73380
L71346 73352
L71318 73295
L71318 73070
L71346 73014
L71402 72986
L71515 72986
L71571 73014
L71599 73070
L71599 73127
L71318 73183
" />
<path d="M71852 73323
L71880 73352
L71852 73380
L71824 73352
L71852 73323
L71852 73380
" />
<path d="M71852 73014
L71880 73042
L71852 73070
L71824 73042
L71852 73014
L71852 73070
" />
<path d="M72921 73380
L72724 73099
" />
<path d="M72583 73380
L72583 72789
L72808 72789
L72865 72817
L72893 72845
L72921 72902
L72921 72986
L72893 73042
L72865 73070
L72808 73099
L72583 73099
" />
<path d="M73399 73352
L73343 73380
L73230 73380
L73174 73352
L73146 73295
L73146 73070
L73174 73014
L73230 72986
L73343 72986
L73399 73014
L73427 73070
L73427 73127
L73146 73183
" />
<path d="M73624 72986
L73764 73380
L73905 72986
" />
<path d="M74355 73352
L74299 73380
L74186 73380
L74130 73352
L74102 73295
L74102 73070
L74130 73014
L74186 72986
L74299 72986
L74355 73014
L74383 73070
L74383 73127
L74102 73183
" />
<path d="M74636 73380
L74636 72986
" />
<path d="M74636 73099
L74664 73042
L74692 73014
L74749 72986
L74805 72986
" />
<path d="M74974 73352
L75030 73380
L75142 73380
L75199 73352
L75227 73295
L75227 73267
L75199 73211
L75142 73183
L75058 73183
L75002 73155
L74974 73099
L74974 73070
L75002 73014
L75058 72986
L75142 72986
L75199 73014
" />
<path d="M75480 73380
L75480 72986
" />
<path d="M75480 72789
L75452 72817
L75480 72845
L75508 72817
L75480 72789
L75480 72845
" />
<path d="M75761 72986
L75761 73380
" />
<path d="M75761 73042
L75789 73014
L75845 72986
L75930 72986
L75986 73014
L76014 73070
L76014 73380
" />
<path d="M76548 72986
L76548 73464
L76520 73520
L76492 73548
L76436 73577
L76352 73577
L76295 73548
" />
<path d="M76548 73352
L76492 73380
L76380 73380
L76323 73352
L76295 73323
L76267 73267
L76267 73099
L76295 73042
L76323 73014
L76380 72986
L76492 72986
L76548 73014
" />
<path d="M77167 73323
L77139 73352
L77055 73380
L76998 73380
L76914 73352
L76858 73295
L76830 73239
L76802 73127
L76802 73042
L76830 72930
L76858 72874
L76914 72817
L76998 72789
L77055 72789
L77139 72817
L77167 72845
" />
<path d="M77673 73380
L77673 73070
L77645 73014
L77589 72986
L77476 72986
L77420 73014
" />
<path d="M77673 73352
L77617 73380
L77476 73380
L77420 73352
L77392 73295
L77392 73239
L77420 73183
L77476 73155
L77617 73155
L77673 73127
" />
<path d="M77955 73380
L77955 72986
" />
<path d="M77955 73042
L77983 73014
L78039 72986
L78123 72986
L78180 73014
L78208 73070
L78208 73380
" />
<path d="M78208 73070
L78236 73014
L78292 72986
L78376 72986
L78433 73014
L78461 73070
L78461 73380
" />
<path d="M78601 73436
L79051 73436
" />
<path d="M79389 73070
L79192 73070
" />
<path d="M79192 73380
L79192 72789
L79473 72789
" />
<path d="M79670 73352
L79754 73380
L79895 73380
L79951 73352
L79979 73323
L80007 73267
L80007 73211
L79979 73155
L79951 73127
L79895 73099
L79782 73070
L79726 73042
L79698 73014
L79670 72958
L79670 72902
L79698 72845
L79726 72817
L79782 72789
L79923 72789
L80007 72817
" />
<path d="M80232 73211
L80514 73211
" />
<path d="M80176 73380
L80373 72789
L80570 73380
" />
<path d="M80682 72789
L80879 73380
L81076 72789
" />
<path d="M81526 72986
L81526 73380
" />
<path d="M81385 72761
L81245 73183
L81610 73183
" />
<path d="M81779 72789
L82145 72789
L81948 73014
L82032 73014
L82088 73042
L82117 73070
L82145 73127
L82145 73267
L82117 73323
L82088 73352
L82032 73380
L81863 73380
L81807 73352
L81779 73323
" />
<path d="M82341 72789
L82707 72789
L82510 73014
L82595 73014
L82651 73042
L82679 73070
L82707 73127
L82707 73267
L82679 73323
L82651 73352
L82595 73380
L82426 73380
L82370 73352
L82341 73323
" />
<path d="M82820 73436
L83269 73436
" />
<path d="M83354 72986
L83494 73380
L83635 72986
" />
<path d="M83804 72789
L84169 72789
L83973 73014
L84057 73014
L84113 73042
L84141 73070
L84169 73127
L84169 73267
L84141 73323
L84113 73352
L84057 73380
L83888 73380
L83832 73352
L83804 73323
" />
<path d="M84422 73323
L84451 73352
L84422 73380
L84394 73352
L84422 73323
L84422 73380
" />
<path d="M85013 73380
L84676 73380
" />
<path d="M84844 73380
L84844 72789
L84788 72874
L84732 72930
L84676 72958
" />
<path d="M85266 73323
L85294 73352
L85266 73380
L85238 73352
L85266 73323
L85266 73380
" />
<path d="M85547 73380
L85547 72789
" />
<path d="M85604 73155
L85772 73380
" />
<path d="M85772 72986
L85547 73211
" />
<path d="M86025 73380
L86025 72986
" />
<path d="M86025 72789
L85997 72817
L86025 72845
L86054 72817
L86025 72789
L86025 72845
" />
<path d="M86560 73352
L86503 73380
L86391 73380
L86335 73352
L86307 73323
L86278 73267
L86278 73099
L86307 73042
L86335 73014
L86391 72986
L86503 72986
L86560 73014
" />
<path d="M87066 73380
L87066 73070
L87038 73014
L86982 72986
L86869 72986
L86813 73014
" />
<path d="M87066 73352
L87010 73380
L86869 73380
L86813 73352
L86785 73295
L86785 73239
L86813 73183
L86869 73155
L87010 73155
L87066 73127
" />
<path d="M87600 73380
L87600 72789
" />
<path d="M87600 73352
L87544 73380
L87431 73380
L87375 73352
L87347 73323
L87319 73267
L87319 73099
L87347 73042
L87375 73014
L87431 72986
L87544 72986
L87600 73014
" />
<path d="M87741 73436
L88191 73436
" />
<path d="M88331 72986
L88331 73577
" />
<path d="M88331 73014
L88388 72986
L88500 72986
L88556 73014
L88584 73042
L88613 73099
L88613 73267
L88584 73323
L88556 73352
L88500 73380
L88388 73380
L88331 73352
" />
<path d="M89119 73352
L89063 73380
L88950 73380
L88894 73352
L88866 73323
L88838 73267
L88838 73099
L88866 73042
L88894 73014
L88950 72986
L89063 72986
L89119 73014
" />
<path d="M89372 73380
L89372 72789
" />
<path d="M89372 73014
L89428 72986
L89541 72986
L89597 73014
L89625 73042
L89653 73099
L89653 73267
L89625 73323
L89597 73352
L89541 73380
L89428 73380
L89372 73352
" />
</g>
<g style="fill:#000000; fill-opacity:0.0; 
stroke:#000000; stroke-width:39.3701; stroke-opacity:1; 
stroke-linecap:round; stroke-linejoin:round;">
</g>
<g style="fill:#000000; fill-opacity:0.0; 
stroke:#000000; stroke-width:59.0551; stroke-opacity:1; 
stroke-linecap:round; stroke-linejoin:round;">
<path d="M69685 71459
L112205 71459
" />
</g>
<g style="fill:#000000; fill-opacity:0.0; 
stroke:#000000; stroke-width:39.3701; stroke-opacity:1; 
stroke-linecap:round; stroke-linejoin:round;">
</g>
<g style="fill:#000000; fill-opacity:0.0; 
stroke:#000000; stroke-width:59.0551; stroke-opacity:1; 
stroke-linecap:round; stroke-linejoin:round;">
<text x="70079.6" y="72345.4"
textLength="3236.78" font-size="787.402" lengthAdjust="spacingAndGlyphs"
text-anchor="start" opacity="0">Sheet: </text>
<path d="M70221 72289
L70305 72317
L70446 72317
L70502 72289
L70530 72260
L70559 72204
L70559 72148
L70530 72092
L70502 72064
L70446 72036
L70334 72007
L70277 71979
L70249 71951
L70221 71895
L70221 71839
L70249 71782
L70277 71754
L70334 71726
L70474 71726
L70559 71754
" />
<path d="M70812 72317
L70812 71726
" />
<path d="M71065 72317
L71065 72007
L71037 71951
L70980 71923
L70896 71923
L70840 71951
L70812 71979
" />
<path d="M71571 72289
L71515 72317
L71402 72317
L71346 72289
L71318 72232
L71318 72007
L71346 71951
L71402 71923
L71515 71923
L71571 71951
L71599 72007
L71599 72064
L71318 72120
" />
<path d="M72077 72289
L72021 72317
L71908 72317
L71852 72289
L71824 72232
L71824 72007
L71852 71951
L71908 71923
L72021 71923
L72077 71951
L72105 72007
L72105 72064
L71824 72120
" />
<path d="M72274 71923
L72499 71923
" />
<path d="M72358 71726
L72358 72232
L72386 72289
L72443 72317
L72499 72317
" />
<path d="M72696 72260
L72724 72289
L72696 72317
L72668 72289
L72696 72260
L72696 72317
" />
<path d="M72696 71951
L72724 71979
L72696 72007
L72668 71979
L72696 71951
L72696 72007
" />
</g>
<g style="fill:#000000; fill-opacity:0.0; 
stroke:#000000; stroke-width:39.3701; stroke-opacity:1; 
stroke-linecap:round; stroke-linejoin:round;">
</g>
<g style="fill:#000000; fill-opacity:0.0; 
stroke:#000000; stroke-width:59.0551; stroke-opacity:1; 
stroke-linecap:round; stroke-linejoin:round;">
<text x="70079.6" y="68802"
textLength="17747.5" font-size="787.402" lengthAdjust="spacingAndGlyphs"
text-anchor="start" opacity="0">FSAV433/LM1881 based PCB Prototype</text>
<path d="M70446 68464
L70249 68464
" />
<path d="M70249 68773
L70249 68183
L70530 68183
" />
<path d="M70727 68745
L70812 68773
L70952 68773
L71009 68745
L71037 68717
L71065 68661
L71065 68605
L71037 68548
L71009 68520
L70952 68492
L70840 68464
L70784 68436
L70755 68408
L70727 68352
L70727 68295
L70755 68239
L70784 68211
L70840 68183
L70980 68183
L71065 68211
" />
<path d="M71290 68605
L71571 68605
" />
<path d="M71233 68773
L71430 68183
L71627 68773
" />
<path d="M71740 68183
L71937 68773
L72133 68183
" />
<path d="M72583 68380
L72583 68773
" />
<path d="M72443 68155
L72302 68577
L72668 68577
" />
<path d="M72836 68183
L73202 68183
L73005 68408
L73090 68408
L73146 68436
L73174 68464
L73202 68520
L73202 68661
L73174 68717
L73146 68745
L73090 68773
L72921 68773
L72865 68745
L72836 68717
" />
<path d="M73399 68183
L73764 68183
L73568 68408
L73652 68408
L73708 68436
L73736 68464
L73764 68520
L73764 68661
L73736 68717
L73708 68745
L73652 68773
L73483 68773
L73427 68745
L73399 68717
" />
<path d="M74439 68155
L73933 68914
" />
<path d="M74917 68773
L74636 68773
L74636 68183
" />
<path d="M75114 68773
L75114 68183
L75311 68605
L75508 68183
L75508 68773
" />
<path d="M76099 68773
L75761 68773
" />
<path d="M75930 68773
L75930 68183
L75874 68267
L75817 68323
L75761 68352
" />
<path d="M76436 68436
L76380 68408
L76352 68380
L76323 68323
L76323 68295
L76352 68239
L76380 68211
L76436 68183
L76548 68183
L76605 68211
L76633 68239
L76661 68295
L76661 68323
L76633 68380
L76605 68408
L76548 68436
L76436 68436
L76380 68464
L76352 68492
L76323 68548
L76323 68661
L76352 68717
L76380 68745
L76436 68773
L76548 68773
L76605 68745
L76633 68717
L76661 68661
L76661 68548
L76633 68492
L76605 68464
L76548 68436
" />
<path d="M76998 68436
L76942 68408
L76914 68380
L76886 68323
L76886 68295
L76914 68239
L76942 68211
L76998 68183
L77111 68183
L77167 68211
L77195 68239
L77223 68295
L77223 68323
L77195 68380
L77167 68408
L77111 68436
L76998 68436
L76942 68464
L76914 68492
L76886 68548
L76886 68661
L76914 68717
L76942 68745
L76998 68773
L77111 68773
L77167 68745
L77195 68717
L77223 68661
L77223 68548
L77195 68492
L77167 68464
L77111 68436
" />
<path d="M77786 68773
L77448 68773
" />
<path d="M77617 68773
L77617 68183
L77561 68267
L77505 68323
L77448 68352
" />
<path d="M78489 68773
L78489 68183
" />
<path d="M78489 68408
L78545 68380
L78658 68380
L78714 68408
L78742 68436
L78770 68492
L78770 68661
L78742 68717
L78714 68745
L78658 68773
L78545 68773
L78489 68745
" />
<path d="M79276 68773
L79276 68464
L79248 68408
L79192 68380
L79079 68380
L79023 68408
" />
<path d="M79276 68745
L79220 68773
L79079 68773
L79023 68745
L78995 68689
L78995 68633
L79023 68577
L79079 68548
L79220 68548
L79276 68520
" />
<path d="M79529 68745
L79586 68773
L79698 68773
L79754 68745
L79782 68689
L79782 68661
L79754 68605
L79698 68577
L79614 68577
L79557 68548
L79529 68492
L79529 68464
L79557 68408
L79614 68380
L79698 68380
L79754 68408
" />
<path d="M80260 68745
L80204 68773
L80092 68773
L80036 68745
L80007 68689
L80007 68464
L80036 68408
L80092 68380
L80204 68380
L80260 68408
L80289 68464
L80289 68520
L80007 68577
" />
<path d="M80795 68773
L80795 68183
" />
<path d="M80795 68745
L80739 68773
L80626 68773
L80570 68745
L80542 68717
L80514 68661
L80514 68492
L80542 68436
L80570 68408
L80626 68380
L80739 68380
L80795 68408
" />
<path d="M81526 68773
L81526 68183
L81751 68183
L81807 68211
L81835 68239
L81863 68295
L81863 68380
L81835 68436
L81807 68464
L81751 68492
L81526 68492
" />
<path d="M82454 68717
L82426 68745
L82341 68773
L82285 68773
L82201 68745
L82145 68689
L82117 68633
L82088 68520
L82088 68436
L82117 68323
L82145 68267
L82201 68211
L82285 68183
L82341 68183
L82426 68211
L82454 68239
" />
<path d="M82904 68464
L82988 68492
L83016 68520
L83045 68577
L83045 68661
L83016 68717
L82988 68745
L82932 68773
L82707 68773
L82707 68183
L82904 68183
L82960 68211
L82988 68239
L83016 68295
L83016 68352
L82988 68408
L82960 68436
L82904 68464
L82707 68464
" />
<path d="M83748 68773
L83748 68183
L83973 68183
L84029 68211
L84057 68239
L84085 68295
L84085 68380
L84057 68436
L84029 68464
L83973 68492
L83748 68492
" />
<path d="M84338 68773
L84338 68380
" />
<path d="M84338 68492
L84366 68436
L84394 68408
L84451 68380
L84507 68380
" />
<path d="M84788 68773
L84732 68745
L84704 68717
L84676 68661
L84676 68492
L84704 68436
L84732 68408
L84788 68380
L84872 68380
L84929 68408
L84957 68436
L84985 68492
L84985 68661
L84957 68717
L84929 68745
L84872 68773
L84788 68773
" />
<path d="M85154 68380
L85379 68380
" />
<path d="M85238 68183
L85238 68689
L85266 68745
L85322 68773
L85379 68773
" />
<path d="M85660 68773
L85604 68745
L85575 68717
L85547 68661
L85547 68492
L85575 68436
L85604 68408
L85660 68380
L85744 68380
L85800 68408
L85829 68436
L85857 68492
L85857 68661
L85829 68717
L85800 68745
L85744 68773
L85660 68773
" />
<path d="M86025 68380
L86250 68380
" />
<path d="M86110 68183
L86110 68689
L86138 68745
L86194 68773
L86250 68773
" />
<path d="M86391 68380
L86532 68773
" />
<path d="M86672 68380
L86532 68773
L86475 68914
L86447 68942
L86391 68970
" />
<path d="M86897 68380
L86897 68970
" />
<path d="M86897 68408
L86953 68380
L87066 68380
L87122 68408
L87150 68436
L87178 68492
L87178 68661
L87150 68717
L87122 68745
L87066 68773
L86953 68773
L86897 68745
" />
<path d="M87656 68745
L87600 68773
L87488 68773
L87431 68745
L87403 68689
L87403 68464
L87431 68408
L87488 68380
L87600 68380
L87656 68408
L87685 68464
L87685 68520
L87403 68577
" />
</g>
<g style="fill:#000000; fill-opacity:0.0; 
stroke:#000000; stroke-width:39.3701; stroke-opacity:1; 
stroke-linecap:round; stroke-linejoin:round;">
</g>
<g style="fill:#000000; fill-opacity:0.0; 
stroke:#000000; stroke-width:59.0551; stroke-opacity:1; 
stroke-linecap:round; stroke-linejoin:round;">
<text x="70079.6" y="66439.8"
textLength="8270.53" font-size="787.402" lengthAdjust="spacingAndGlyphs"
text-anchor="start" opacity="0">Author: Graham-R</text>
<path d="M70221 66242
L70502 66242
" />
<path d="M70165 66411
L70362 65821
L70559 66411
" />
<path d="M71009 66018
L71009 66411
" />
<path d="M70755 66018
L70755 66327
L70784 66383
L70840 66411
L70924 66411
L70980 66383
L71009 66355
" />
<path d="M71205 66018
L71430 66018
" />
<path d="M71290 65821
L71290 66327
L71318 66383
L71374 66411
L71430 66411
" />
<path d="M71627 66411
L71627 65821
" />
<path d="M71880 66411
L71880 66102
L71852 66046
L71796 66018
L71712 66018
L71655 66046
L71627 66074
" />
<path d="M72246 66411
L72190 66383
L72162 66355
L72133 66299
L72133 66130
L72162 66074
L72190 66046
L72246 66018
L72330 66018
L72386 66046
L72415 66074
L72443 66130
L72443 66299
L72415 66355
L72386 66383
L72330 66411
L72246 66411
" />
<path d="M72696 66411
L72696 66018
" />
<path d="M72696 66130
L72724 66074
L72752 66046
L72808 66018
L72865 66018
" />
<path d="M73061 66355
L73090 66383
L73061 66411
L73033 66383
L73061 66355
L73061 66411
" />
<path d="M73061 66046
L73090 66074
L73061 66102
L73033 66074
L73061 66046
L73061 66102
" />
<path d="M74102 65849
L74046 65821
L73961 65821
L73877 65849
L73821 65905
L73793 65961
L73764 66074
L73764 66158
L73793 66271
L73821 66327
L73877 66383
L73961 66411
L74018 66411
L74102 66383
L74130 66355
L74130 66158
L74018 66158
" />
<path d="M74383 66411
L74383 66018
" />
<path d="M74383 66130
L74411 66074
L74439 66046
L74496 66018
L74552 66018
" />
<path d="M75002 66411
L75002 66102
L74974 66046
L74917 66018
L74805 66018
L74749 66046
" />
<path d="M75002 66383
L74946 66411
L74805 66411
L74749 66383
L74721 66327
L74721 66271
L74749 66214
L74805 66186
L74946 66186
L75002 66158
" />
<path d="M75283 66411
L75283 65821
" />
<path d="M75536 66411
L75536 66102
L75508 66046
L75452 66018
L75367 66018
L75311 66046
L75283 66074
" />
<path d="M76070 66411
L76070 66102
L76042 66046
L75986 66018
L75874 66018
L75817 66046
" />
<path d="M76070 66383
L76014 66411
L75874 66411
L75817 66383
L75789 66327
L75789 66271
L75817 66214
L75874 66186
L76014 66186
L76070 66158
" />
<path d="M76352 66411
L76352 66018
" />
<path d="M76352 66074
L76380 66046
L76436 66018
L76520 66018
L76577 66046
L76605 66102
L76605 66411
" />
<path d="M76605 66102
L76633 66046
L76689 66018
L76773 66018
L76830 66046
L76858 66102
L76858 66411
" />
<path d="M77139 66186
L77589 66186
" />
<path d="M78208 66411
L78011 66130
" />
<path d="M77870 66411
L77870 65821
L78095 65821
L78151 65849
L78180 65877
L78208 65933
L78208 66018
L78180 66074
L78151 66102
L78095 66130
L77870 66130
" />
</g>
<g style="fill:#000000; fill-opacity:0.0; 
stroke:#000000; stroke-width:39.3701; stroke-opacity:1; 
stroke-linecap:round; stroke-linejoin:round;">
</g>
<g style="fill:#000000; fill-opacity:0.0; 
stroke:#000000; stroke-width:59.0551; stroke-opacity:1; 
stroke-linecap:round; stroke-linejoin:round;">
<path d="M77559 75396
L77559 76577
" />
</g>
<g style="fill:#000000; fill-opacity:0.0; 
stroke:#000000; stroke-width:39.3701; stroke-opacity:1; 
stroke-linecap:round; stroke-linejoin:round;">
</g>
<g style="fill:#000000; fill-opacity:0.0; 
stroke:#000000; stroke-width:59.0551; stroke-opacity:1; 
stroke-linecap:round; stroke-linejoin:round;">
<path d="M102756 75396
L102756 77955
" />
<g >
</g>
<g >
</g>
<g >
</g>
<g >
</g>
<g >
</g>
<g >
</g>
<g >
</g>
<g >
</g>
<g >
</g>
<g >
</g>
<g >
</g>
<g >
</g>
<g >
</g>
<g >
</g>
<g >
</g>
<g >
</g>
<g >
</g>
<g >
</g>
<g >
</g>
<g >
</g>
<g >
</g>
<g >
</g>
<g >
</g>
<g >
</g>
<g >
</g>
<g >
</g>
<g >
</g>
<g >
</g>
<g >
</g>
<g >
</g>
<g >
</g>
<g >
</g>
<g >
</g>
<g >
</g>
<g >
</g>
<g >
</g>
<g >
</g>
<g >
</g>
</g>
<g style="fill:#000000; fill-opacity:0.0; 
stroke:#000000; stroke-width:59.0551; stroke-opacity:1; 
stroke-linecap:round; stroke-linejoin:round;">
</g>
<g style="fill:#C2C200; fill-opacity:0.0; 
stroke:#C2C200; stroke-width:59.0551; stroke-opacity:1; 
stroke-linecap:round; stroke-linejoin:round;">
</g>
<g style="fill:#C2C200; fill-opacity:0.0; 
stroke:#C2C200; stroke-width:19.685; stroke-opacity:1; 
stroke-linecap:round; stroke-linejoin:round;">
<path d="M10000 22100 A500 500 0.0 0 0 10500 22600 " />
<path d="M54770 22600 A500 500 0.0 0 0 55270 22100 " />
<path d="M55270 13937
L51332 10000
" />
<path d="M14000 10000
L10000 13937
" />
<path d="M10500 22600
L54770 22600
" />
<path d="M10000 13937
L10000 22100
" />
<path d="M55270 13937
L55270 22100
" />
<path d="M14000 10000
L51332 10000
" />
<g >
</g>
<g >
</g>
<g >
</g>
<g >
</g>
<g >
</g>
<g >
</g>
<g >
</g>
<g >
</g>
<g >
</g>
<g >
</g>
<g >
</g>
<g >
</g>
<g >
</g>
<g >
</g>
<g >
</g>
<g >
</g>
<g >
</g>
<g >
</g>
<g >
</g>
<g >
</g>
<g >
</g>
<g >
</g>
<g >
</g>
<g >
</g>
<g >
</g>
<g >
</g>
<g >
</g>
<g >
</g>
<g >
</g>
<g >
</g>
<g >
</g>
<g >
</g>
<g >
</g>
<g >
</g>
<g >
</g>
<g >
</g>
<g >
</g>
<g >
</g>
</g> 
</svg>
