M48
; DRILL file {KiCad 5.1.5-1.fc31} date Tue 28 Apr 2020 16:30:34 BST
; FORMAT={-:-/ absolute / inch / decimal}
; #@! TF.CreationDate,2020-04-28T16:30:34+01:00
; #@! TF.GenerationSoftware,Kicad,Pcbnew,5.1.5-1.fc31
; #@! TF.FileFunction,Plated,1,2,PTH
FMAT,2
INCH
T1C0.0157
T2C0.0295
T3C0.0300
T4C0.0315
T5C0.0374
T6C0.0394
T7C0.0472
T8C0.0591
%
G90
G05
T1
X1.06Y-1.42
X1.06Y-1.52
X1.06Y-1.62
X1.06Y-1.72
X1.06Y-1.82
X1.06Y-1.92
X1.06Y-2.02
X1.25Y-1.22
X1.28Y-2.21
X1.38Y-2.21
X1.44Y-1.05
X1.48Y-2.21
X1.54Y-1.05
X1.58Y-2.21
X1.64Y-1.05
X1.68Y-2.21
X1.74Y-1.05
X1.7795Y-1.9282
X1.78Y-2.21
X1.84Y-1.05
X1.88Y-2.21
X1.98Y-2.21
X2.08Y-2.21
X2.25Y-2.15
X2.79Y-1.75
X3.81Y-1.93
T2
X2.1Y-2.05
X2.1Y-2.1
X2.1Y-2.15
X1.75Y-1.15
X1.8Y-1.15
X1.85Y-1.15
T3
X2.9Y-1.57
X3.0Y-1.57
T4
X5.01Y-1.73
X5.2069Y-1.73
X3.6Y-1.1
X4.1Y-1.1
X2.0731Y-1.15
X2.27Y-1.15
X3.2Y-2.15
X3.7Y-2.15
X3.2Y-1.7
X3.7Y-1.7
X3.6Y-1.4
X4.1Y-1.4
X3.2Y-1.55
X3.7Y-1.55
X3.2Y-1.85
X3.7Y-1.85
X3.8Y-2.0
X3.8Y-2.1
X4.2Y-2.0
X4.2Y-2.1
X3.8Y-1.7
X3.8Y-1.8
X4.2Y-1.7
X4.2Y-1.8
X1.85Y-1.4031
X1.85Y-1.6
X2.35Y-1.35
X2.35Y-1.45
X2.35Y-1.55
X2.35Y-1.65
X2.65Y-1.35
X2.65Y-1.45
X2.65Y-1.55
X2.65Y-1.65
X5.1Y-1.93
X5.1Y-2.0284
X2.81Y-1.13
X2.81Y-1.3269
X3.2Y-2.0
X3.7Y-2.0
X2.45Y-1.15
X2.6469Y-1.15
X3.6Y-1.25
X4.1Y-1.25
X2.35Y-1.83
X2.35Y-1.93
X2.35Y-2.03
X2.35Y-2.13
X2.65Y-1.83
X2.65Y-1.93
X2.65Y-2.03
X2.65Y-2.13
T5
X4.45Y-1.7
X4.45Y-1.7984
X4.45Y-1.8969
X4.45Y-1.9953
X4.45Y-2.0937
T6
X4.75Y-1.9916
X4.75Y-2.09
X3.35Y-1.1916
X3.35Y-1.29
X5.4Y-1.7299
X5.4Y-1.8299
X5.4Y-1.9299
X2.9Y-1.87
X2.9Y-1.97
X2.9Y-2.07
X3.0Y-1.87
X3.0Y-1.97
X3.0Y-2.07
X3.05Y-1.1916
X3.05Y-1.29
T7
X1.6Y-1.3
X1.6Y-1.4
X1.6Y-1.5
X1.6Y-1.6
X1.6Y-1.7
X2.1Y-1.35
X2.1Y-1.45
X2.1Y-1.55
X2.1Y-1.65
X2.1Y-1.75
X2.1Y-1.85
X1.23Y-1.7
X1.23Y-1.8
X1.23Y-1.9
T8
X4.2202Y-1.2
X5.11Y-1.2
T0
M30
