G04 #@! TF.GenerationSoftware,KiCad,Pcbnew,5.1.5-1.fc31*
G04 #@! TF.CreationDate,2020-04-28T16:33:23+01:00*
G04 #@! TF.ProjectId,ReversingCam_FSAV433_ATTINY85_v3.2,52657665-7273-4696-9e67-43616d5f4653,V3.2*
G04 #@! TF.SameCoordinates,Original*
G04 #@! TF.FileFunction,Legend,Top*
G04 #@! TF.FilePolarity,Positive*
%FSLAX46Y46*%
G04 Gerber Fmt 4.6, Leading zero omitted, Abs format (unit mm)*
G04 Created by KiCad (PCBNEW 5.1.5-1.fc31) date 2020-04-28 16:33:23*
%MOMM*%
%LPD*%
G04 APERTURE LIST*
%ADD10C,0.150000*%
%ADD11C,0.125000*%
%ADD12C,0.100000*%
%ADD13C,0.010000*%
%ADD14C,0.120000*%
G04 APERTURE END LIST*
D10*
X108219142Y-54942000D02*
X108219142Y-54856285D01*
X108262000Y-54770571D01*
X108304857Y-54727714D01*
X108390571Y-54684857D01*
X108562000Y-54642000D01*
X108776285Y-54642000D01*
X108947714Y-54684857D01*
X109033428Y-54727714D01*
X109076285Y-54770571D01*
X109119142Y-54856285D01*
X109119142Y-54942000D01*
X109076285Y-55027714D01*
X109033428Y-55070571D01*
X108947714Y-55113428D01*
X108776285Y-55156285D01*
X108562000Y-55156285D01*
X108390571Y-55113428D01*
X108304857Y-55070571D01*
X108262000Y-55027714D01*
X108219142Y-54942000D01*
X108519142Y-54342000D02*
X109119142Y-54127714D01*
X108519142Y-53913428D01*
X109119142Y-52413428D02*
X109119142Y-52927714D01*
X109119142Y-52670571D02*
X108219142Y-52670571D01*
X108347714Y-52756285D01*
X108433428Y-52842000D01*
X108476285Y-52927714D01*
X108304857Y-52070571D02*
X108262000Y-52027714D01*
X108219142Y-51942000D01*
X108219142Y-51727714D01*
X108262000Y-51642000D01*
X108304857Y-51599142D01*
X108390571Y-51556285D01*
X108476285Y-51556285D01*
X108604857Y-51599142D01*
X109119142Y-52113428D01*
X109119142Y-51556285D01*
X108519142Y-51256285D02*
X109119142Y-51042000D01*
X108519142Y-50827714D01*
X109119142Y-49799142D02*
X108219142Y-49799142D01*
X108862000Y-49499142D01*
X108219142Y-49199142D01*
X109119142Y-49199142D01*
X109119142Y-48384857D02*
X108647714Y-48384857D01*
X108562000Y-48427714D01*
X108519142Y-48513428D01*
X108519142Y-48684857D01*
X108562000Y-48770571D01*
X109076285Y-48384857D02*
X109119142Y-48470571D01*
X109119142Y-48684857D01*
X109076285Y-48770571D01*
X108990571Y-48813428D01*
X108904857Y-48813428D01*
X108819142Y-48770571D01*
X108776285Y-48684857D01*
X108776285Y-48470571D01*
X108733428Y-48384857D01*
X108519142Y-47956285D02*
X109119142Y-47956285D01*
X108604857Y-47956285D02*
X108562000Y-47913428D01*
X108519142Y-47827714D01*
X108519142Y-47699142D01*
X108562000Y-47613428D01*
X108647714Y-47570571D01*
X109119142Y-47570571D01*
X108519142Y-46756285D02*
X109119142Y-46756285D01*
X108519142Y-47142000D02*
X108990571Y-47142000D01*
X109076285Y-47099142D01*
X109119142Y-47013428D01*
X109119142Y-46884857D01*
X109076285Y-46799142D01*
X109033428Y-46756285D01*
X109119142Y-45942000D02*
X108647714Y-45942000D01*
X108562000Y-45984857D01*
X108519142Y-46070571D01*
X108519142Y-46242000D01*
X108562000Y-46327714D01*
X109076285Y-45942000D02*
X109119142Y-46027714D01*
X109119142Y-46242000D01*
X109076285Y-46327714D01*
X108990571Y-46370571D01*
X108904857Y-46370571D01*
X108819142Y-46327714D01*
X108776285Y-46242000D01*
X108776285Y-46027714D01*
X108733428Y-45942000D01*
X109119142Y-45384857D02*
X109076285Y-45470571D01*
X108990571Y-45513428D01*
X108219142Y-45513428D01*
X73707809Y-45410380D02*
X73707809Y-44410380D01*
X74755428Y-45315142D02*
X74707809Y-45362761D01*
X74564952Y-45410380D01*
X74469714Y-45410380D01*
X74326857Y-45362761D01*
X74231619Y-45267523D01*
X74184000Y-45172285D01*
X74136380Y-44981809D01*
X74136380Y-44838952D01*
X74184000Y-44648476D01*
X74231619Y-44553238D01*
X74326857Y-44458000D01*
X74469714Y-44410380D01*
X74564952Y-44410380D01*
X74707809Y-44458000D01*
X74755428Y-44505619D01*
X75136380Y-45362761D02*
X75279238Y-45410380D01*
X75517333Y-45410380D01*
X75612571Y-45362761D01*
X75660190Y-45315142D01*
X75707809Y-45219904D01*
X75707809Y-45124666D01*
X75660190Y-45029428D01*
X75612571Y-44981809D01*
X75517333Y-44934190D01*
X75326857Y-44886571D01*
X75231619Y-44838952D01*
X75184000Y-44791333D01*
X75136380Y-44696095D01*
X75136380Y-44600857D01*
X75184000Y-44505619D01*
X75231619Y-44458000D01*
X75326857Y-44410380D01*
X75564952Y-44410380D01*
X75707809Y-44458000D01*
X76136380Y-45410380D02*
X76136380Y-44410380D01*
X76517333Y-44410380D01*
X76612571Y-44458000D01*
X76660190Y-44505619D01*
X76707809Y-44600857D01*
X76707809Y-44743714D01*
X76660190Y-44838952D01*
X76612571Y-44886571D01*
X76517333Y-44934190D01*
X76136380Y-44934190D01*
X70305714Y-52459000D02*
X70905714Y-52459000D01*
X70791428Y-53357428D02*
X70591428Y-53071714D01*
X70448571Y-53357428D02*
X70448571Y-52757428D01*
X70677142Y-52757428D01*
X70734285Y-52786000D01*
X70762857Y-52814571D01*
X70791428Y-52871714D01*
X70791428Y-52957428D01*
X70762857Y-53014571D01*
X70734285Y-53043142D01*
X70677142Y-53071714D01*
X70448571Y-53071714D01*
X70905714Y-52459000D02*
X71477142Y-52459000D01*
X71020000Y-53328857D02*
X71105714Y-53357428D01*
X71248571Y-53357428D01*
X71305714Y-53328857D01*
X71334285Y-53300285D01*
X71362857Y-53243142D01*
X71362857Y-53186000D01*
X71334285Y-53128857D01*
X71305714Y-53100285D01*
X71248571Y-53071714D01*
X71134285Y-53043142D01*
X71077142Y-53014571D01*
X71048571Y-52986000D01*
X71020000Y-52928857D01*
X71020000Y-52871714D01*
X71048571Y-52814571D01*
X71077142Y-52786000D01*
X71134285Y-52757428D01*
X71277142Y-52757428D01*
X71362857Y-52786000D01*
X71477142Y-52459000D02*
X71934285Y-52459000D01*
X71534285Y-52757428D02*
X71877142Y-52757428D01*
X71705714Y-53357428D02*
X71705714Y-52757428D01*
X70094571Y-50534857D02*
X70180285Y-50563428D01*
X70323142Y-50563428D01*
X70380285Y-50534857D01*
X70408857Y-50506285D01*
X70437428Y-50449142D01*
X70437428Y-50392000D01*
X70408857Y-50334857D01*
X70380285Y-50306285D01*
X70323142Y-50277714D01*
X70208857Y-50249142D01*
X70151714Y-50220571D01*
X70123142Y-50192000D01*
X70094571Y-50134857D01*
X70094571Y-50077714D01*
X70123142Y-50020571D01*
X70151714Y-49992000D01*
X70208857Y-49963428D01*
X70351714Y-49963428D01*
X70437428Y-49992000D01*
X71037428Y-50506285D02*
X71008857Y-50534857D01*
X70923142Y-50563428D01*
X70866000Y-50563428D01*
X70780285Y-50534857D01*
X70723142Y-50477714D01*
X70694571Y-50420571D01*
X70666000Y-50306285D01*
X70666000Y-50220571D01*
X70694571Y-50106285D01*
X70723142Y-50049142D01*
X70780285Y-49992000D01*
X70866000Y-49963428D01*
X70923142Y-49963428D01*
X71008857Y-49992000D01*
X71037428Y-50020571D01*
X71294571Y-50563428D02*
X71294571Y-49963428D01*
X71637428Y-50563428D02*
X71380285Y-50220571D01*
X71637428Y-49963428D02*
X71294571Y-50306285D01*
X69923142Y-48023428D02*
X69923142Y-47423428D01*
X70123142Y-47852000D01*
X70323142Y-47423428D01*
X70323142Y-48023428D01*
X70608857Y-48023428D02*
X70608857Y-47423428D01*
X70866000Y-47994857D02*
X70951714Y-48023428D01*
X71094571Y-48023428D01*
X71151714Y-47994857D01*
X71180285Y-47966285D01*
X71208857Y-47909142D01*
X71208857Y-47852000D01*
X71180285Y-47794857D01*
X71151714Y-47766285D01*
X71094571Y-47737714D01*
X70980285Y-47709142D01*
X70923142Y-47680571D01*
X70894571Y-47652000D01*
X70866000Y-47594857D01*
X70866000Y-47537714D01*
X70894571Y-47480571D01*
X70923142Y-47452000D01*
X70980285Y-47423428D01*
X71123142Y-47423428D01*
X71208857Y-47452000D01*
X71580285Y-47423428D02*
X71694571Y-47423428D01*
X71751714Y-47452000D01*
X71808857Y-47509142D01*
X71837428Y-47623428D01*
X71837428Y-47823428D01*
X71808857Y-47937714D01*
X71751714Y-47994857D01*
X71694571Y-48023428D01*
X71580285Y-48023428D01*
X71523142Y-47994857D01*
X71466000Y-47937714D01*
X71437428Y-47823428D01*
X71437428Y-47623428D01*
X71466000Y-47509142D01*
X71523142Y-47452000D01*
X71580285Y-47423428D01*
X78011428Y-47677428D02*
X78211428Y-48277428D01*
X78411428Y-47677428D01*
X78525714Y-47677428D02*
X78868571Y-47677428D01*
X78697142Y-48277428D02*
X78697142Y-47677428D01*
X79382857Y-47706000D02*
X79325714Y-47677428D01*
X79240000Y-47677428D01*
X79154285Y-47706000D01*
X79097142Y-47763142D01*
X79068571Y-47820285D01*
X79040000Y-47934571D01*
X79040000Y-48020285D01*
X79068571Y-48134571D01*
X79097142Y-48191714D01*
X79154285Y-48248857D01*
X79240000Y-48277428D01*
X79297142Y-48277428D01*
X79382857Y-48248857D01*
X79411428Y-48220285D01*
X79411428Y-48020285D01*
X79297142Y-48020285D01*
X78536857Y-52786000D02*
X78479714Y-52757428D01*
X78394000Y-52757428D01*
X78308285Y-52786000D01*
X78251142Y-52843142D01*
X78222571Y-52900285D01*
X78194000Y-53014571D01*
X78194000Y-53100285D01*
X78222571Y-53214571D01*
X78251142Y-53271714D01*
X78308285Y-53328857D01*
X78394000Y-53357428D01*
X78451142Y-53357428D01*
X78536857Y-53328857D01*
X78565428Y-53300285D01*
X78565428Y-53100285D01*
X78451142Y-53100285D01*
X78822571Y-53357428D02*
X78822571Y-52757428D01*
X79165428Y-53357428D01*
X79165428Y-52757428D01*
X79451142Y-53357428D02*
X79451142Y-52757428D01*
X79594000Y-52757428D01*
X79679714Y-52786000D01*
X79736857Y-52843142D01*
X79765428Y-52900285D01*
X79794000Y-53014571D01*
X79794000Y-53100285D01*
X79765428Y-53214571D01*
X79736857Y-53271714D01*
X79679714Y-53328857D01*
X79594000Y-53357428D01*
X79451142Y-53357428D01*
X78051142Y-50563428D02*
X78051142Y-49963428D01*
X78251142Y-50392000D01*
X78451142Y-49963428D01*
X78451142Y-50563428D01*
X78851142Y-49963428D02*
X78965428Y-49963428D01*
X79022571Y-49992000D01*
X79079714Y-50049142D01*
X79108285Y-50163428D01*
X79108285Y-50363428D01*
X79079714Y-50477714D01*
X79022571Y-50534857D01*
X78965428Y-50563428D01*
X78851142Y-50563428D01*
X78794000Y-50534857D01*
X78736857Y-50477714D01*
X78708285Y-50363428D01*
X78708285Y-50163428D01*
X78736857Y-50049142D01*
X78794000Y-49992000D01*
X78851142Y-49963428D01*
X79336857Y-50534857D02*
X79422571Y-50563428D01*
X79565428Y-50563428D01*
X79622571Y-50534857D01*
X79651142Y-50506285D01*
X79679714Y-50449142D01*
X79679714Y-50392000D01*
X79651142Y-50334857D01*
X79622571Y-50306285D01*
X79565428Y-50277714D01*
X79451142Y-50249142D01*
X79394000Y-50220571D01*
X79365428Y-50192000D01*
X79336857Y-50134857D01*
X79336857Y-50077714D01*
X79365428Y-50020571D01*
X79394000Y-49992000D01*
X79451142Y-49963428D01*
X79594000Y-49963428D01*
X79679714Y-49992000D01*
X79936857Y-50563428D02*
X79936857Y-49963428D01*
X116497142Y-44900000D02*
X116068571Y-45200000D01*
X116497142Y-45414285D02*
X115597142Y-45414285D01*
X115597142Y-45071428D01*
X115640000Y-44985714D01*
X115682857Y-44942857D01*
X115768571Y-44900000D01*
X115897142Y-44900000D01*
X115982857Y-44942857D01*
X116025714Y-44985714D01*
X116068571Y-45071428D01*
X116068571Y-45414285D01*
X116454285Y-44171428D02*
X116497142Y-44257142D01*
X116497142Y-44428571D01*
X116454285Y-44514285D01*
X116368571Y-44557142D01*
X116025714Y-44557142D01*
X115940000Y-44514285D01*
X115897142Y-44428571D01*
X115897142Y-44257142D01*
X115940000Y-44171428D01*
X116025714Y-44128571D01*
X116111428Y-44128571D01*
X116197142Y-44557142D01*
X115897142Y-43828571D02*
X116497142Y-43614285D01*
X115897142Y-43400000D01*
X117097142Y-46228571D02*
X117097142Y-46142857D01*
X117140000Y-46057142D01*
X117182857Y-46014285D01*
X117268571Y-45971428D01*
X117440000Y-45928571D01*
X117654285Y-45928571D01*
X117825714Y-45971428D01*
X117911428Y-46014285D01*
X117954285Y-46057142D01*
X117997142Y-46142857D01*
X117997142Y-46228571D01*
X117954285Y-46314285D01*
X117911428Y-46357142D01*
X117825714Y-46400000D01*
X117654285Y-46442857D01*
X117440000Y-46442857D01*
X117268571Y-46400000D01*
X117182857Y-46357142D01*
X117140000Y-46314285D01*
X117097142Y-46228571D01*
X117397142Y-45628571D02*
X117997142Y-45414285D01*
X117397142Y-45200000D01*
X117954285Y-44214285D02*
X117997142Y-44085714D01*
X117997142Y-43871428D01*
X117954285Y-43785714D01*
X117911428Y-43742857D01*
X117825714Y-43700000D01*
X117740000Y-43700000D01*
X117654285Y-43742857D01*
X117611428Y-43785714D01*
X117568571Y-43871428D01*
X117525714Y-44042857D01*
X117482857Y-44128571D01*
X117440000Y-44171428D01*
X117354285Y-44214285D01*
X117268571Y-44214285D01*
X117182857Y-44171428D01*
X117140000Y-44128571D01*
X117097142Y-44042857D01*
X117097142Y-43828571D01*
X117140000Y-43700000D01*
X117997142Y-43314285D02*
X117397142Y-43314285D01*
X117097142Y-43314285D02*
X117140000Y-43357142D01*
X117182857Y-43314285D01*
X117140000Y-43271428D01*
X117097142Y-43314285D01*
X117182857Y-43314285D01*
X117397142Y-42500000D02*
X118125714Y-42500000D01*
X118211428Y-42542857D01*
X118254285Y-42585714D01*
X118297142Y-42671428D01*
X118297142Y-42800000D01*
X118254285Y-42885714D01*
X117954285Y-42500000D02*
X117997142Y-42585714D01*
X117997142Y-42757142D01*
X117954285Y-42842857D01*
X117911428Y-42885714D01*
X117825714Y-42928571D01*
X117568571Y-42928571D01*
X117482857Y-42885714D01*
X117440000Y-42842857D01*
X117397142Y-42757142D01*
X117397142Y-42585714D01*
X117440000Y-42500000D01*
X110871238Y-37886142D02*
X110823619Y-37933761D01*
X110680761Y-37981380D01*
X110585523Y-37981380D01*
X110442666Y-37933761D01*
X110347428Y-37838523D01*
X110299809Y-37743285D01*
X110252190Y-37552809D01*
X110252190Y-37409952D01*
X110299809Y-37219476D01*
X110347428Y-37124238D01*
X110442666Y-37029000D01*
X110585523Y-36981380D01*
X110680761Y-36981380D01*
X110823619Y-37029000D01*
X110871238Y-37076619D01*
X111442666Y-37981380D02*
X111347428Y-37933761D01*
X111299809Y-37886142D01*
X111252190Y-37790904D01*
X111252190Y-37505190D01*
X111299809Y-37409952D01*
X111347428Y-37362333D01*
X111442666Y-37314714D01*
X111585523Y-37314714D01*
X111680761Y-37362333D01*
X111728380Y-37409952D01*
X111776000Y-37505190D01*
X111776000Y-37790904D01*
X111728380Y-37886142D01*
X111680761Y-37933761D01*
X111585523Y-37981380D01*
X111442666Y-37981380D01*
X112204571Y-37314714D02*
X112204571Y-37981380D01*
X112204571Y-37409952D02*
X112252190Y-37362333D01*
X112347428Y-37314714D01*
X112490285Y-37314714D01*
X112585523Y-37362333D01*
X112633142Y-37457571D01*
X112633142Y-37981380D01*
X112966476Y-37314714D02*
X113347428Y-37314714D01*
X113109333Y-36981380D02*
X113109333Y-37838523D01*
X113156952Y-37933761D01*
X113252190Y-37981380D01*
X113347428Y-37981380D01*
X113680761Y-37981380D02*
X113680761Y-37314714D01*
X113680761Y-37505190D02*
X113728380Y-37409952D01*
X113776000Y-37362333D01*
X113871238Y-37314714D01*
X113966476Y-37314714D01*
X114442666Y-37981380D02*
X114347428Y-37933761D01*
X114299809Y-37886142D01*
X114252190Y-37790904D01*
X114252190Y-37505190D01*
X114299809Y-37409952D01*
X114347428Y-37362333D01*
X114442666Y-37314714D01*
X114585523Y-37314714D01*
X114680761Y-37362333D01*
X114728380Y-37409952D01*
X114776000Y-37505190D01*
X114776000Y-37790904D01*
X114728380Y-37886142D01*
X114680761Y-37933761D01*
X114585523Y-37981380D01*
X114442666Y-37981380D01*
X115347428Y-37981380D02*
X115252190Y-37933761D01*
X115204571Y-37838523D01*
X115204571Y-36981380D01*
X109704571Y-39631380D02*
X109704571Y-38631380D01*
X110180761Y-38964714D02*
X110180761Y-39631380D01*
X110180761Y-39059952D02*
X110228380Y-39012333D01*
X110323619Y-38964714D01*
X110466476Y-38964714D01*
X110561714Y-39012333D01*
X110609333Y-39107571D01*
X110609333Y-39631380D01*
X110942666Y-38964714D02*
X111323619Y-38964714D01*
X111085523Y-38631380D02*
X111085523Y-39488523D01*
X111133142Y-39583761D01*
X111228380Y-39631380D01*
X111323619Y-39631380D01*
X112037904Y-39583761D02*
X111942666Y-39631380D01*
X111752190Y-39631380D01*
X111656952Y-39583761D01*
X111609333Y-39488523D01*
X111609333Y-39107571D01*
X111656952Y-39012333D01*
X111752190Y-38964714D01*
X111942666Y-38964714D01*
X112037904Y-39012333D01*
X112085523Y-39107571D01*
X112085523Y-39202809D01*
X111609333Y-39298047D01*
X112514095Y-39631380D02*
X112514095Y-38964714D01*
X112514095Y-39155190D02*
X112561714Y-39059952D01*
X112609333Y-39012333D01*
X112704571Y-38964714D01*
X112799809Y-38964714D01*
X112990285Y-38964714D02*
X113371238Y-38964714D01*
X113133142Y-39631380D02*
X113133142Y-38774238D01*
X113180761Y-38679000D01*
X113276000Y-38631380D01*
X113371238Y-38631380D01*
X114133142Y-39631380D02*
X114133142Y-39107571D01*
X114085523Y-39012333D01*
X113990285Y-38964714D01*
X113799809Y-38964714D01*
X113704571Y-39012333D01*
X114133142Y-39583761D02*
X114037904Y-39631380D01*
X113799809Y-39631380D01*
X113704571Y-39583761D01*
X113656952Y-39488523D01*
X113656952Y-39393285D01*
X113704571Y-39298047D01*
X113799809Y-39250428D01*
X114037904Y-39250428D01*
X114133142Y-39202809D01*
X115037904Y-39583761D02*
X114942666Y-39631380D01*
X114752190Y-39631380D01*
X114656952Y-39583761D01*
X114609333Y-39536142D01*
X114561714Y-39440904D01*
X114561714Y-39155190D01*
X114609333Y-39059952D01*
X114656952Y-39012333D01*
X114752190Y-38964714D01*
X114942666Y-38964714D01*
X115037904Y-39012333D01*
X115847428Y-39583761D02*
X115752190Y-39631380D01*
X115561714Y-39631380D01*
X115466476Y-39583761D01*
X115418857Y-39488523D01*
X115418857Y-39107571D01*
X115466476Y-39012333D01*
X115561714Y-38964714D01*
X115752190Y-38964714D01*
X115847428Y-39012333D01*
X115895047Y-39107571D01*
X115895047Y-39202809D01*
X115418857Y-39298047D01*
X113392000Y-52457142D02*
X113353904Y-52533333D01*
X113353904Y-52647619D01*
X113392000Y-52761904D01*
X113468190Y-52838095D01*
X113544380Y-52876190D01*
X113696761Y-52914285D01*
X113811047Y-52914285D01*
X113963428Y-52876190D01*
X114039619Y-52838095D01*
X114115809Y-52761904D01*
X114153904Y-52647619D01*
X114153904Y-52571428D01*
X114115809Y-52457142D01*
X114077714Y-52419047D01*
X113811047Y-52419047D01*
X113811047Y-52571428D01*
X113620571Y-52076190D02*
X114153904Y-52076190D01*
X113696761Y-52076190D02*
X113658666Y-52038095D01*
X113620571Y-51961904D01*
X113620571Y-51847619D01*
X113658666Y-51771428D01*
X113734857Y-51733333D01*
X114153904Y-51733333D01*
X114153904Y-51009523D02*
X113353904Y-51009523D01*
X114115809Y-51009523D02*
X114153904Y-51085714D01*
X114153904Y-51238095D01*
X114115809Y-51314285D01*
X114077714Y-51352380D01*
X114001523Y-51390476D01*
X113772952Y-51390476D01*
X113696761Y-51352380D01*
X113658666Y-51314285D01*
X113620571Y-51238095D01*
X113620571Y-51085714D01*
X113658666Y-51009523D01*
X113849142Y-50019047D02*
X113849142Y-49409523D01*
X114153904Y-49714285D02*
X113544380Y-49714285D01*
X113353904Y-49142857D02*
X114153904Y-48876190D01*
X113353904Y-48609523D01*
X120602476Y-45506142D02*
X120554857Y-45553761D01*
X120412000Y-45601380D01*
X120316761Y-45601380D01*
X120173904Y-45553761D01*
X120078666Y-45458523D01*
X120031047Y-45363285D01*
X119983428Y-45172809D01*
X119983428Y-45029952D01*
X120031047Y-44839476D01*
X120078666Y-44744238D01*
X120173904Y-44649000D01*
X120316761Y-44601380D01*
X120412000Y-44601380D01*
X120554857Y-44649000D01*
X120602476Y-44696619D01*
X121459619Y-45601380D02*
X121459619Y-45077571D01*
X121412000Y-44982333D01*
X121316761Y-44934714D01*
X121126285Y-44934714D01*
X121031047Y-44982333D01*
X121459619Y-45553761D02*
X121364380Y-45601380D01*
X121126285Y-45601380D01*
X121031047Y-45553761D01*
X120983428Y-45458523D01*
X120983428Y-45363285D01*
X121031047Y-45268047D01*
X121126285Y-45220428D01*
X121364380Y-45220428D01*
X121459619Y-45172809D01*
X121935809Y-45601380D02*
X121935809Y-44934714D01*
X121935809Y-45029952D02*
X121983428Y-44982333D01*
X122078666Y-44934714D01*
X122221523Y-44934714D01*
X122316761Y-44982333D01*
X122364380Y-45077571D01*
X122364380Y-45601380D01*
X122364380Y-45077571D02*
X122412000Y-44982333D01*
X122507238Y-44934714D01*
X122650095Y-44934714D01*
X122745333Y-44982333D01*
X122792952Y-45077571D01*
X122792952Y-45601380D01*
X119697714Y-46870428D02*
X120459619Y-46870428D01*
X120078666Y-47251380D02*
X120078666Y-46489476D01*
X121459619Y-47251380D02*
X120888190Y-47251380D01*
X121173904Y-47251380D02*
X121173904Y-46251380D01*
X121078666Y-46394238D01*
X120983428Y-46489476D01*
X120888190Y-46537095D01*
X121840571Y-46346619D02*
X121888190Y-46299000D01*
X121983428Y-46251380D01*
X122221523Y-46251380D01*
X122316761Y-46299000D01*
X122364380Y-46346619D01*
X122412000Y-46441857D01*
X122412000Y-46537095D01*
X122364380Y-46679952D01*
X121792952Y-47251380D01*
X122412000Y-47251380D01*
X122745333Y-46584714D02*
X122983428Y-47251380D01*
X123221523Y-46584714D01*
D11*
X70761714Y-36814357D02*
X70847428Y-36842928D01*
X70990285Y-36842928D01*
X71047428Y-36814357D01*
X71076000Y-36785785D01*
X71104571Y-36728642D01*
X71104571Y-36671500D01*
X71076000Y-36614357D01*
X71047428Y-36585785D01*
X70990285Y-36557214D01*
X70876000Y-36528642D01*
X70818857Y-36500071D01*
X70790285Y-36471500D01*
X70761714Y-36414357D01*
X70761714Y-36357214D01*
X70790285Y-36300071D01*
X70818857Y-36271500D01*
X70876000Y-36242928D01*
X71018857Y-36242928D01*
X71104571Y-36271500D01*
X71733142Y-36242928D02*
X72076000Y-36242928D01*
X71904571Y-36842928D02*
X71904571Y-36242928D01*
X72218857Y-36442928D02*
X72361714Y-36842928D01*
X72504571Y-36442928D02*
X72361714Y-36842928D01*
X72304571Y-36985785D01*
X72276000Y-37014357D01*
X72218857Y-37042928D01*
X72733142Y-36442928D02*
X72733142Y-37042928D01*
X72733142Y-36471500D02*
X72790285Y-36442928D01*
X72904571Y-36442928D01*
X72961714Y-36471500D01*
X72990285Y-36500071D01*
X73018857Y-36557214D01*
X73018857Y-36728642D01*
X72990285Y-36785785D01*
X72961714Y-36814357D01*
X72904571Y-36842928D01*
X72790285Y-36842928D01*
X72733142Y-36814357D01*
X73504571Y-36814357D02*
X73447428Y-36842928D01*
X73333142Y-36842928D01*
X73276000Y-36814357D01*
X73247428Y-36757214D01*
X73247428Y-36528642D01*
X73276000Y-36471500D01*
X73333142Y-36442928D01*
X73447428Y-36442928D01*
X73504571Y-36471500D01*
X73533142Y-36528642D01*
X73533142Y-36585785D01*
X73247428Y-36642928D01*
X74218857Y-36214357D02*
X73704571Y-36985785D01*
X74361714Y-36242928D02*
X74761714Y-36842928D01*
X74761714Y-36242928D02*
X74361714Y-36842928D01*
X75161714Y-36242928D02*
X75161714Y-36671500D01*
X75133142Y-36757214D01*
X75076000Y-36814357D01*
X74990285Y-36842928D01*
X74933142Y-36842928D01*
X76076000Y-37071500D02*
X76047428Y-37042928D01*
X75990285Y-36957214D01*
X75961714Y-36900071D01*
X75933142Y-36814357D01*
X75904571Y-36671500D01*
X75904571Y-36557214D01*
X75933142Y-36414357D01*
X75961714Y-36328642D01*
X75990285Y-36271500D01*
X76047428Y-36185785D01*
X76076000Y-36157214D01*
X76390285Y-36842928D02*
X76333142Y-36814357D01*
X76304571Y-36785785D01*
X76276000Y-36728642D01*
X76276000Y-36557214D01*
X76304571Y-36500071D01*
X76333142Y-36471500D01*
X76390285Y-36442928D01*
X76476000Y-36442928D01*
X76533142Y-36471500D01*
X76561714Y-36500071D01*
X76590285Y-36557214D01*
X76590285Y-36728642D01*
X76561714Y-36785785D01*
X76533142Y-36814357D01*
X76476000Y-36842928D01*
X76390285Y-36842928D01*
X76847428Y-36442928D02*
X76847428Y-37042928D01*
X76847428Y-36471500D02*
X76904571Y-36442928D01*
X77018857Y-36442928D01*
X77076000Y-36471500D01*
X77104571Y-36500071D01*
X77133142Y-36557214D01*
X77133142Y-36728642D01*
X77104571Y-36785785D01*
X77076000Y-36814357D01*
X77018857Y-36842928D01*
X76904571Y-36842928D01*
X76847428Y-36814357D01*
X77618857Y-36814357D02*
X77561714Y-36842928D01*
X77447428Y-36842928D01*
X77390285Y-36814357D01*
X77361714Y-36757214D01*
X77361714Y-36528642D01*
X77390285Y-36471500D01*
X77447428Y-36442928D01*
X77561714Y-36442928D01*
X77618857Y-36471500D01*
X77647428Y-36528642D01*
X77647428Y-36585785D01*
X77361714Y-36642928D01*
X77904571Y-36442928D02*
X77904571Y-36842928D01*
X77904571Y-36500071D02*
X77933142Y-36471500D01*
X77990285Y-36442928D01*
X78076000Y-36442928D01*
X78133142Y-36471500D01*
X78161714Y-36528642D01*
X78161714Y-36842928D01*
X78390285Y-37071500D02*
X78418857Y-37042928D01*
X78476000Y-36957214D01*
X78504571Y-36900071D01*
X78533142Y-36814357D01*
X78561714Y-36671500D01*
X78561714Y-36557214D01*
X78533142Y-36414357D01*
X78504571Y-36328642D01*
X78476000Y-36271500D01*
X78418857Y-36185785D01*
X78390285Y-36157214D01*
X71133142Y-37267928D02*
X71533142Y-37867928D01*
X71533142Y-37267928D02*
X71133142Y-37867928D01*
X72133142Y-37267928D02*
X72476000Y-37267928D01*
X72304571Y-37867928D02*
X72304571Y-37267928D01*
X72618857Y-37467928D02*
X72761714Y-37867928D01*
X72904571Y-37467928D02*
X72761714Y-37867928D01*
X72704571Y-38010785D01*
X72676000Y-38039357D01*
X72618857Y-38067928D01*
X73133142Y-37467928D02*
X73133142Y-38067928D01*
X73133142Y-37496500D02*
X73190285Y-37467928D01*
X73304571Y-37467928D01*
X73361714Y-37496500D01*
X73390285Y-37525071D01*
X73418857Y-37582214D01*
X73418857Y-37753642D01*
X73390285Y-37810785D01*
X73361714Y-37839357D01*
X73304571Y-37867928D01*
X73190285Y-37867928D01*
X73133142Y-37839357D01*
X73904571Y-37839357D02*
X73847428Y-37867928D01*
X73733142Y-37867928D01*
X73676000Y-37839357D01*
X73647428Y-37782214D01*
X73647428Y-37553642D01*
X73676000Y-37496500D01*
X73733142Y-37467928D01*
X73847428Y-37467928D01*
X73904571Y-37496500D01*
X73933142Y-37553642D01*
X73933142Y-37610785D01*
X73647428Y-37667928D01*
X74818857Y-38096500D02*
X74790285Y-38067928D01*
X74733142Y-37982214D01*
X74704571Y-37925071D01*
X74676000Y-37839357D01*
X74647428Y-37696500D01*
X74647428Y-37582214D01*
X74676000Y-37439357D01*
X74704571Y-37353642D01*
X74733142Y-37296500D01*
X74790285Y-37210785D01*
X74818857Y-37182214D01*
X75390285Y-37810785D02*
X75361714Y-37839357D01*
X75276000Y-37867928D01*
X75218857Y-37867928D01*
X75133142Y-37839357D01*
X75076000Y-37782214D01*
X75047428Y-37725071D01*
X75018857Y-37610785D01*
X75018857Y-37525071D01*
X75047428Y-37410785D01*
X75076000Y-37353642D01*
X75133142Y-37296500D01*
X75218857Y-37267928D01*
X75276000Y-37267928D01*
X75361714Y-37296500D01*
X75390285Y-37325071D01*
X75733142Y-37867928D02*
X75676000Y-37839357D01*
X75647428Y-37782214D01*
X75647428Y-37267928D01*
X76047428Y-37867928D02*
X75990285Y-37839357D01*
X75961714Y-37810785D01*
X75933142Y-37753642D01*
X75933142Y-37582214D01*
X75961714Y-37525071D01*
X75990285Y-37496500D01*
X76047428Y-37467928D01*
X76133142Y-37467928D01*
X76190285Y-37496500D01*
X76218857Y-37525071D01*
X76247428Y-37582214D01*
X76247428Y-37753642D01*
X76218857Y-37810785D01*
X76190285Y-37839357D01*
X76133142Y-37867928D01*
X76047428Y-37867928D01*
X76476000Y-37839357D02*
X76533142Y-37867928D01*
X76647428Y-37867928D01*
X76704571Y-37839357D01*
X76733142Y-37782214D01*
X76733142Y-37753642D01*
X76704571Y-37696500D01*
X76647428Y-37667928D01*
X76561714Y-37667928D01*
X76504571Y-37639357D01*
X76476000Y-37582214D01*
X76476000Y-37553642D01*
X76504571Y-37496500D01*
X76561714Y-37467928D01*
X76647428Y-37467928D01*
X76704571Y-37496500D01*
X77218857Y-37839357D02*
X77161714Y-37867928D01*
X77047428Y-37867928D01*
X76990285Y-37839357D01*
X76961714Y-37782214D01*
X76961714Y-37553642D01*
X76990285Y-37496500D01*
X77047428Y-37467928D01*
X77161714Y-37467928D01*
X77218857Y-37496500D01*
X77247428Y-37553642D01*
X77247428Y-37610785D01*
X76961714Y-37667928D01*
X77761714Y-37867928D02*
X77761714Y-37267928D01*
X77761714Y-37839357D02*
X77704571Y-37867928D01*
X77590285Y-37867928D01*
X77533142Y-37839357D01*
X77504571Y-37810785D01*
X77476000Y-37753642D01*
X77476000Y-37582214D01*
X77504571Y-37525071D01*
X77533142Y-37496500D01*
X77590285Y-37467928D01*
X77704571Y-37467928D01*
X77761714Y-37496500D01*
X77990285Y-38096500D02*
X78018857Y-38067928D01*
X78076000Y-37982214D01*
X78104571Y-37925071D01*
X78133142Y-37839357D01*
X78161714Y-37696500D01*
X78161714Y-37582214D01*
X78133142Y-37439357D01*
X78104571Y-37353642D01*
X78076000Y-37296500D01*
X78018857Y-37210785D01*
X77990285Y-37182214D01*
D10*
X27589633Y-35921930D02*
X27428008Y-36406803D01*
X27912882Y-36245178D01*
X27852273Y-35336041D02*
X27784929Y-35349510D01*
X27724320Y-35410119D01*
X27690648Y-35497665D01*
X27704117Y-35591946D01*
X27737789Y-35666024D01*
X27825335Y-35793977D01*
X27906147Y-35874789D01*
X28034100Y-35962336D01*
X28108178Y-35996007D01*
X28202459Y-36009476D01*
X28290005Y-35975804D01*
X28330411Y-35935398D01*
X28364083Y-35847852D01*
X28357349Y-35800711D01*
X28168787Y-35612149D01*
X28087975Y-35692962D01*
X28593051Y-35672759D02*
X28215927Y-35295635D01*
X28323677Y-35403385D02*
X28290005Y-35329307D01*
X28283271Y-35282166D01*
X28296740Y-35214823D01*
X28337146Y-35174417D01*
X29037518Y-35228291D02*
X28741207Y-34931980D01*
X28667129Y-34898308D01*
X28599785Y-34911777D01*
X28518973Y-34992589D01*
X28505505Y-35059933D01*
X29010581Y-35201354D02*
X28997112Y-35268698D01*
X28896097Y-35369713D01*
X28828753Y-35383181D01*
X28754675Y-35349510D01*
X28700801Y-35295635D01*
X28667129Y-35221557D01*
X28680598Y-35154214D01*
X28781613Y-35053198D01*
X28795082Y-34985855D01*
X29239549Y-35026261D02*
X28673863Y-34460575D01*
X29421376Y-34844433D02*
X29125065Y-34548122D01*
X29050987Y-34514450D01*
X28983643Y-34527919D01*
X28923034Y-34588528D01*
X28909566Y-34655872D01*
X28916300Y-34703012D01*
X29805234Y-34460575D02*
X29508923Y-34164264D01*
X29434845Y-34130592D01*
X29367501Y-34144061D01*
X29286689Y-34224873D01*
X29273220Y-34292217D01*
X29778297Y-34433638D02*
X29764828Y-34500982D01*
X29663813Y-34601997D01*
X29596469Y-34615466D01*
X29522391Y-34581794D01*
X29468517Y-34527919D01*
X29434845Y-34453841D01*
X29448314Y-34386498D01*
X29549329Y-34285482D01*
X29562798Y-34218139D01*
X30007265Y-34258545D02*
X29630141Y-33881421D01*
X29684016Y-33935296D02*
X29677281Y-33888156D01*
X29690750Y-33820812D01*
X29751359Y-33760203D01*
X29818703Y-33746734D01*
X29892781Y-33780406D01*
X30189092Y-34076718D01*
X29892781Y-33780406D02*
X29859109Y-33706328D01*
X29872578Y-33638985D01*
X29933187Y-33578376D01*
X30000530Y-33564907D01*
X30074608Y-33598579D01*
X30370920Y-33894890D01*
X30357451Y-33477360D02*
X30680700Y-33154112D01*
X31340666Y-32925144D02*
X30929871Y-32797191D01*
X31098229Y-33167580D02*
X30532544Y-32601895D01*
X30694168Y-32440270D01*
X30761512Y-32426802D01*
X30808652Y-32433536D01*
X30882730Y-32467208D01*
X30963542Y-32548020D01*
X30997214Y-32622098D01*
X31003948Y-32669238D01*
X30990480Y-32736582D01*
X30828855Y-32898206D01*
X31758196Y-31645617D02*
X31690852Y-31659086D01*
X31610040Y-31739898D01*
X31596571Y-31807241D01*
X31610040Y-31901522D01*
X31643712Y-31975600D01*
X31751461Y-32083350D01*
X31825539Y-32117022D01*
X31919820Y-32130490D01*
X31987164Y-32117022D01*
X32067976Y-32036209D01*
X32081445Y-31968866D01*
X31461884Y-31510930D02*
X31387806Y-31638883D01*
X31367603Y-31820710D01*
X31441681Y-32016006D01*
X31556165Y-32170896D01*
X31711055Y-32285380D01*
X31906351Y-32359458D01*
X32088179Y-32339255D01*
X32216132Y-32265177D01*
X32290209Y-32137225D01*
X32310412Y-31955397D01*
X32236335Y-31760101D01*
X32121851Y-31605211D01*
X31966961Y-31490727D01*
X31771664Y-31416649D01*
X31589837Y-31436852D01*
X31461884Y-31510930D01*
X33078128Y-31187681D02*
X32781817Y-30891370D01*
X32707739Y-30857698D01*
X32640396Y-30871167D01*
X32559583Y-30951979D01*
X32546115Y-31019322D01*
X33051191Y-31160744D02*
X33037722Y-31228087D01*
X32936707Y-31329103D01*
X32869364Y-31342571D01*
X32795286Y-31308900D01*
X32741411Y-31255025D01*
X32707739Y-31180947D01*
X32721208Y-31113603D01*
X32822223Y-31012588D01*
X32835692Y-30945245D01*
X32903035Y-30608527D02*
X33280159Y-30985651D01*
X32956910Y-30662402D02*
X32950176Y-30615261D01*
X32963644Y-30547918D01*
X33024254Y-30487309D01*
X33091597Y-30473840D01*
X33165675Y-30507512D01*
X33461986Y-30803823D01*
X33845844Y-30419965D02*
X33280159Y-29854280D01*
X33818907Y-30393028D02*
X33805438Y-30460371D01*
X33724626Y-30541184D01*
X33657282Y-30554652D01*
X33610142Y-30547918D01*
X33536064Y-30514246D01*
X33374440Y-30352622D01*
X33340768Y-30278544D01*
X33334034Y-30231404D01*
X33347502Y-30164060D01*
X33428315Y-30083248D01*
X33495658Y-30069779D01*
X34526014Y-29685921D02*
X34512545Y-29753265D01*
X34431733Y-29834077D01*
X34364389Y-29847546D01*
X34317249Y-29840811D01*
X34243171Y-29807139D01*
X34081547Y-29645515D01*
X34047875Y-29571437D01*
X34041140Y-29524297D01*
X34054609Y-29456953D01*
X34135421Y-29376141D01*
X34202765Y-29362672D01*
X34680904Y-29477156D02*
X34728044Y-29483891D01*
X34734779Y-29531031D01*
X34687638Y-29524297D01*
X34680904Y-29477156D01*
X34734779Y-29531031D01*
X34404795Y-28837393D02*
X34398061Y-28790253D01*
X34411530Y-28722909D01*
X34512545Y-28621894D01*
X34579888Y-28608425D01*
X34627029Y-28615159D01*
X34701107Y-28648831D01*
X34754982Y-28702706D01*
X34815591Y-28803721D01*
X34896403Y-29369407D01*
X35159043Y-29106767D01*
X34855997Y-28278442D02*
X34896403Y-28238036D01*
X34963746Y-28224567D01*
X35010887Y-28231301D01*
X35084965Y-28264973D01*
X35212917Y-28352520D01*
X35347604Y-28487207D01*
X35435151Y-28615159D01*
X35468823Y-28689237D01*
X35475557Y-28736378D01*
X35462088Y-28803721D01*
X35421682Y-28844127D01*
X35354339Y-28857596D01*
X35307198Y-28850862D01*
X35233120Y-28817190D01*
X35105168Y-28729643D01*
X34970481Y-28594956D01*
X34882934Y-28467004D01*
X34849263Y-28392926D01*
X34842528Y-28345785D01*
X34855997Y-28278442D01*
X35212917Y-28029271D02*
X35206183Y-27982131D01*
X35219652Y-27914787D01*
X35320667Y-27813772D01*
X35388011Y-27800303D01*
X35435151Y-27807037D01*
X35509229Y-27840709D01*
X35563104Y-27894584D01*
X35623713Y-27995599D01*
X35704525Y-28561285D01*
X35967165Y-28298645D01*
X35664119Y-27470320D02*
X35704525Y-27429914D01*
X35771868Y-27416445D01*
X35819009Y-27423179D01*
X35893087Y-27456851D01*
X36021039Y-27544398D01*
X36155726Y-27679085D01*
X36243273Y-27807037D01*
X36276945Y-27881115D01*
X36283679Y-27928256D01*
X36270210Y-27995599D01*
X36229804Y-28036005D01*
X36162461Y-28049474D01*
X36115320Y-28042740D01*
X36041243Y-28009068D01*
X35913290Y-27921521D01*
X35778603Y-27786834D01*
X35691056Y-27658882D01*
X35657385Y-27584804D01*
X35650650Y-27537663D01*
X35664119Y-27470320D01*
X36175930Y-27335633D02*
X36660803Y-27174008D01*
X36499178Y-27658882D01*
X121134666Y-36093380D02*
X121134666Y-36807666D01*
X121087047Y-36950523D01*
X120991809Y-37045761D01*
X120848952Y-37093380D01*
X120753714Y-37093380D01*
X122039428Y-37093380D02*
X122039428Y-36569571D01*
X121991809Y-36474333D01*
X121896571Y-36426714D01*
X121706095Y-36426714D01*
X121610857Y-36474333D01*
X122039428Y-37045761D02*
X121944190Y-37093380D01*
X121706095Y-37093380D01*
X121610857Y-37045761D01*
X121563238Y-36950523D01*
X121563238Y-36855285D01*
X121610857Y-36760047D01*
X121706095Y-36712428D01*
X121944190Y-36712428D01*
X122039428Y-36664809D01*
X122944190Y-36426714D02*
X122944190Y-37236238D01*
X122896571Y-37331476D01*
X122848952Y-37379095D01*
X122753714Y-37426714D01*
X122610857Y-37426714D01*
X122515619Y-37379095D01*
X122944190Y-37045761D02*
X122848952Y-37093380D01*
X122658476Y-37093380D01*
X122563238Y-37045761D01*
X122515619Y-36998142D01*
X122468000Y-36902904D01*
X122468000Y-36617190D01*
X122515619Y-36521952D01*
X122563238Y-36474333D01*
X122658476Y-36426714D01*
X122848952Y-36426714D01*
X122944190Y-36474333D01*
X123848952Y-36426714D02*
X123848952Y-37093380D01*
X123420380Y-36426714D02*
X123420380Y-36950523D01*
X123468000Y-37045761D01*
X123563238Y-37093380D01*
X123706095Y-37093380D01*
X123801333Y-37045761D01*
X123848952Y-36998142D01*
X124753714Y-37093380D02*
X124753714Y-36569571D01*
X124706095Y-36474333D01*
X124610857Y-36426714D01*
X124420380Y-36426714D01*
X124325142Y-36474333D01*
X124753714Y-37045761D02*
X124658476Y-37093380D01*
X124420380Y-37093380D01*
X124325142Y-37045761D01*
X124277523Y-36950523D01*
X124277523Y-36855285D01*
X124325142Y-36760047D01*
X124420380Y-36712428D01*
X124658476Y-36712428D01*
X124753714Y-36664809D01*
X125229904Y-37093380D02*
X125229904Y-36426714D01*
X125229904Y-36617190D02*
X125277523Y-36521952D01*
X125325142Y-36474333D01*
X125420380Y-36426714D01*
X125515619Y-36426714D01*
X126610857Y-37093380D02*
X126610857Y-36093380D01*
X126848952Y-36093380D01*
X126991809Y-36141000D01*
X127087047Y-36236238D01*
X127134666Y-36331476D01*
X127182285Y-36521952D01*
X127182285Y-36664809D01*
X127134666Y-36855285D01*
X127087047Y-36950523D01*
X126991809Y-37045761D01*
X126848952Y-37093380D01*
X126610857Y-37093380D01*
X127563238Y-36188619D02*
X127610857Y-36141000D01*
X127706095Y-36093380D01*
X127944190Y-36093380D01*
X128039428Y-36141000D01*
X128087047Y-36188619D01*
X128134666Y-36283857D01*
X128134666Y-36379095D01*
X128087047Y-36521952D01*
X127515619Y-37093380D01*
X128134666Y-37093380D01*
X128896571Y-36569571D02*
X129039428Y-36617190D01*
X129087047Y-36664809D01*
X129134666Y-36760047D01*
X129134666Y-36902904D01*
X129087047Y-36998142D01*
X129039428Y-37045761D01*
X128944190Y-37093380D01*
X128563238Y-37093380D01*
X128563238Y-36093380D01*
X128896571Y-36093380D01*
X128991809Y-36141000D01*
X129039428Y-36188619D01*
X129087047Y-36283857D01*
X129087047Y-36379095D01*
X129039428Y-36474333D01*
X128991809Y-36521952D01*
X128896571Y-36569571D01*
X128563238Y-36569571D01*
X119706095Y-39124333D02*
X119658476Y-39076714D01*
X119563238Y-38933857D01*
X119515619Y-38838619D01*
X119468000Y-38695761D01*
X119420380Y-38457666D01*
X119420380Y-38267190D01*
X119468000Y-38029095D01*
X119515619Y-37886238D01*
X119563238Y-37791000D01*
X119658476Y-37648142D01*
X119706095Y-37600523D01*
X119991809Y-37743380D02*
X120658476Y-38743380D01*
X120658476Y-37743380D02*
X119991809Y-38743380D01*
X121325142Y-37743380D02*
X121325142Y-38457666D01*
X121277523Y-38600523D01*
X121182285Y-38695761D01*
X121039428Y-38743380D01*
X120944190Y-38743380D01*
X122515619Y-37695761D02*
X121658476Y-38981476D01*
X122753714Y-37743380D02*
X123420380Y-38743380D01*
X123420380Y-37743380D02*
X122753714Y-38743380D01*
X124515619Y-37695761D02*
X123658476Y-38981476D01*
X124801333Y-38695761D02*
X124944190Y-38743380D01*
X125182285Y-38743380D01*
X125277523Y-38695761D01*
X125325142Y-38648142D01*
X125372761Y-38552904D01*
X125372761Y-38457666D01*
X125325142Y-38362428D01*
X125277523Y-38314809D01*
X125182285Y-38267190D01*
X124991809Y-38219571D01*
X124896571Y-38171952D01*
X124848952Y-38124333D01*
X124801333Y-38029095D01*
X124801333Y-37933857D01*
X124848952Y-37838619D01*
X124896571Y-37791000D01*
X124991809Y-37743380D01*
X125229904Y-37743380D01*
X125372761Y-37791000D01*
X125801333Y-38362428D02*
X126563238Y-38362428D01*
X126896571Y-37743380D02*
X127468000Y-37743380D01*
X127182285Y-38743380D02*
X127182285Y-37743380D01*
X127706095Y-38076714D02*
X127944190Y-38743380D01*
X128182285Y-38076714D02*
X127944190Y-38743380D01*
X127848952Y-38981476D01*
X127801333Y-39029095D01*
X127706095Y-39076714D01*
X128563238Y-38076714D02*
X128563238Y-39076714D01*
X128563238Y-38124333D02*
X128658476Y-38076714D01*
X128848952Y-38076714D01*
X128944190Y-38124333D01*
X128991809Y-38171952D01*
X129039428Y-38267190D01*
X129039428Y-38552904D01*
X128991809Y-38648142D01*
X128944190Y-38695761D01*
X128848952Y-38743380D01*
X128658476Y-38743380D01*
X128563238Y-38695761D01*
X129848952Y-38695761D02*
X129753714Y-38743380D01*
X129563238Y-38743380D01*
X129468000Y-38695761D01*
X129420380Y-38600523D01*
X129420380Y-38219571D01*
X129468000Y-38124333D01*
X129563238Y-38076714D01*
X129753714Y-38076714D01*
X129848952Y-38124333D01*
X129896571Y-38219571D01*
X129896571Y-38314809D01*
X129420380Y-38410047D01*
X130229904Y-39124333D02*
X130277523Y-39076714D01*
X130372761Y-38933857D01*
X130420380Y-38838619D01*
X130468000Y-38695761D01*
X130515619Y-38457666D01*
X130515619Y-38267190D01*
X130468000Y-38029095D01*
X130420380Y-37886238D01*
X130372761Y-37791000D01*
X130277523Y-37648142D01*
X130229904Y-37600523D01*
X118991809Y-40393380D02*
X118658476Y-39917190D01*
X118420380Y-40393380D02*
X118420380Y-39393380D01*
X118801333Y-39393380D01*
X118896571Y-39441000D01*
X118944190Y-39488619D01*
X118991809Y-39583857D01*
X118991809Y-39726714D01*
X118944190Y-39821952D01*
X118896571Y-39869571D01*
X118801333Y-39917190D01*
X118420380Y-39917190D01*
X119801333Y-40345761D02*
X119706095Y-40393380D01*
X119515619Y-40393380D01*
X119420380Y-40345761D01*
X119372761Y-40250523D01*
X119372761Y-39869571D01*
X119420380Y-39774333D01*
X119515619Y-39726714D01*
X119706095Y-39726714D01*
X119801333Y-39774333D01*
X119848952Y-39869571D01*
X119848952Y-39964809D01*
X119372761Y-40060047D01*
X120182285Y-39726714D02*
X120420380Y-40393380D01*
X120658476Y-39726714D01*
X121420380Y-40345761D02*
X121325142Y-40393380D01*
X121134666Y-40393380D01*
X121039428Y-40345761D01*
X120991809Y-40250523D01*
X120991809Y-39869571D01*
X121039428Y-39774333D01*
X121134666Y-39726714D01*
X121325142Y-39726714D01*
X121420380Y-39774333D01*
X121468000Y-39869571D01*
X121468000Y-39964809D01*
X120991809Y-40060047D01*
X121896571Y-40393380D02*
X121896571Y-39726714D01*
X121896571Y-39917190D02*
X121944190Y-39821952D01*
X121991809Y-39774333D01*
X122087047Y-39726714D01*
X122182285Y-39726714D01*
X122468000Y-40345761D02*
X122563238Y-40393380D01*
X122753714Y-40393380D01*
X122848952Y-40345761D01*
X122896571Y-40250523D01*
X122896571Y-40202904D01*
X122848952Y-40107666D01*
X122753714Y-40060047D01*
X122610857Y-40060047D01*
X122515619Y-40012428D01*
X122468000Y-39917190D01*
X122468000Y-39869571D01*
X122515619Y-39774333D01*
X122610857Y-39726714D01*
X122753714Y-39726714D01*
X122848952Y-39774333D01*
X123325142Y-40393380D02*
X123325142Y-39726714D01*
X123325142Y-39393380D02*
X123277523Y-39441000D01*
X123325142Y-39488619D01*
X123372761Y-39441000D01*
X123325142Y-39393380D01*
X123325142Y-39488619D01*
X123801333Y-39726714D02*
X123801333Y-40393380D01*
X123801333Y-39821952D02*
X123848952Y-39774333D01*
X123944190Y-39726714D01*
X124087047Y-39726714D01*
X124182285Y-39774333D01*
X124229904Y-39869571D01*
X124229904Y-40393380D01*
X125134666Y-39726714D02*
X125134666Y-40536238D01*
X125087047Y-40631476D01*
X125039428Y-40679095D01*
X124944190Y-40726714D01*
X124801333Y-40726714D01*
X124706095Y-40679095D01*
X125134666Y-40345761D02*
X125039428Y-40393380D01*
X124848952Y-40393380D01*
X124753714Y-40345761D01*
X124706095Y-40298142D01*
X124658476Y-40202904D01*
X124658476Y-39917190D01*
X124706095Y-39821952D01*
X124753714Y-39774333D01*
X124848952Y-39726714D01*
X125039428Y-39726714D01*
X125134666Y-39774333D01*
X126944190Y-40298142D02*
X126896571Y-40345761D01*
X126753714Y-40393380D01*
X126658476Y-40393380D01*
X126515619Y-40345761D01*
X126420380Y-40250523D01*
X126372761Y-40155285D01*
X126325142Y-39964809D01*
X126325142Y-39821952D01*
X126372761Y-39631476D01*
X126420380Y-39536238D01*
X126515619Y-39441000D01*
X126658476Y-39393380D01*
X126753714Y-39393380D01*
X126896571Y-39441000D01*
X126944190Y-39488619D01*
X127801333Y-40393380D02*
X127801333Y-39869571D01*
X127753714Y-39774333D01*
X127658476Y-39726714D01*
X127468000Y-39726714D01*
X127372761Y-39774333D01*
X127801333Y-40345761D02*
X127706095Y-40393380D01*
X127468000Y-40393380D01*
X127372761Y-40345761D01*
X127325142Y-40250523D01*
X127325142Y-40155285D01*
X127372761Y-40060047D01*
X127468000Y-40012428D01*
X127706095Y-40012428D01*
X127801333Y-39964809D01*
X128277523Y-40393380D02*
X128277523Y-39726714D01*
X128277523Y-39821952D02*
X128325142Y-39774333D01*
X128420380Y-39726714D01*
X128563238Y-39726714D01*
X128658476Y-39774333D01*
X128706095Y-39869571D01*
X128706095Y-40393380D01*
X128706095Y-39869571D02*
X128753714Y-39774333D01*
X128848952Y-39726714D01*
X128991809Y-39726714D01*
X129087047Y-39774333D01*
X129134666Y-39869571D01*
X129134666Y-40393380D01*
X129991809Y-40345761D02*
X129896571Y-40393380D01*
X129706095Y-40393380D01*
X129610857Y-40345761D01*
X129563238Y-40250523D01*
X129563238Y-39869571D01*
X129610857Y-39774333D01*
X129706095Y-39726714D01*
X129896571Y-39726714D01*
X129991809Y-39774333D01*
X130039428Y-39869571D01*
X130039428Y-39964809D01*
X129563238Y-40060047D01*
X130468000Y-40393380D02*
X130468000Y-39726714D01*
X130468000Y-39917190D02*
X130515619Y-39821952D01*
X130563238Y-39774333D01*
X130658476Y-39726714D01*
X130753714Y-39726714D01*
X131515619Y-40393380D02*
X131515619Y-39869571D01*
X131468000Y-39774333D01*
X131372761Y-39726714D01*
X131182285Y-39726714D01*
X131087047Y-39774333D01*
X131515619Y-40345761D02*
X131420380Y-40393380D01*
X131182285Y-40393380D01*
X131087047Y-40345761D01*
X131039428Y-40250523D01*
X131039428Y-40155285D01*
X131087047Y-40060047D01*
X131182285Y-40012428D01*
X131420380Y-40012428D01*
X131515619Y-39964809D01*
X119277523Y-42043380D02*
X119277523Y-41043380D01*
X119753714Y-41376714D02*
X119753714Y-42043380D01*
X119753714Y-41471952D02*
X119801333Y-41424333D01*
X119896571Y-41376714D01*
X120039428Y-41376714D01*
X120134666Y-41424333D01*
X120182285Y-41519571D01*
X120182285Y-42043380D01*
X120515619Y-41376714D02*
X120896571Y-41376714D01*
X120658476Y-41043380D02*
X120658476Y-41900523D01*
X120706095Y-41995761D01*
X120801333Y-42043380D01*
X120896571Y-42043380D01*
X121610857Y-41995761D02*
X121515619Y-42043380D01*
X121325142Y-42043380D01*
X121229904Y-41995761D01*
X121182285Y-41900523D01*
X121182285Y-41519571D01*
X121229904Y-41424333D01*
X121325142Y-41376714D01*
X121515619Y-41376714D01*
X121610857Y-41424333D01*
X121658476Y-41519571D01*
X121658476Y-41614809D01*
X121182285Y-41710047D01*
X122087047Y-42043380D02*
X122087047Y-41376714D01*
X122087047Y-41567190D02*
X122134666Y-41471952D01*
X122182285Y-41424333D01*
X122277523Y-41376714D01*
X122372761Y-41376714D01*
X122563238Y-41376714D02*
X122944190Y-41376714D01*
X122706095Y-42043380D02*
X122706095Y-41186238D01*
X122753714Y-41091000D01*
X122848952Y-41043380D01*
X122944190Y-41043380D01*
X123706095Y-42043380D02*
X123706095Y-41519571D01*
X123658476Y-41424333D01*
X123563238Y-41376714D01*
X123372761Y-41376714D01*
X123277523Y-41424333D01*
X123706095Y-41995761D02*
X123610857Y-42043380D01*
X123372761Y-42043380D01*
X123277523Y-41995761D01*
X123229904Y-41900523D01*
X123229904Y-41805285D01*
X123277523Y-41710047D01*
X123372761Y-41662428D01*
X123610857Y-41662428D01*
X123706095Y-41614809D01*
X124610857Y-41995761D02*
X124515619Y-42043380D01*
X124325142Y-42043380D01*
X124229904Y-41995761D01*
X124182285Y-41948142D01*
X124134666Y-41852904D01*
X124134666Y-41567190D01*
X124182285Y-41471952D01*
X124229904Y-41424333D01*
X124325142Y-41376714D01*
X124515619Y-41376714D01*
X124610857Y-41424333D01*
X125420380Y-41995761D02*
X125325142Y-42043380D01*
X125134666Y-42043380D01*
X125039428Y-41995761D01*
X124991809Y-41900523D01*
X124991809Y-41519571D01*
X125039428Y-41424333D01*
X125134666Y-41376714D01*
X125325142Y-41376714D01*
X125420380Y-41424333D01*
X125468000Y-41519571D01*
X125468000Y-41614809D01*
X124991809Y-41710047D01*
X126944190Y-42424333D02*
X126896571Y-42376714D01*
X126801333Y-42233857D01*
X126753714Y-42138619D01*
X126706095Y-41995761D01*
X126658476Y-41757666D01*
X126658476Y-41567190D01*
X126706095Y-41329095D01*
X126753714Y-41186238D01*
X126801333Y-41091000D01*
X126896571Y-40948142D01*
X126944190Y-40900523D01*
X127229904Y-41376714D02*
X127468000Y-42043380D01*
X127706095Y-41376714D01*
X127991809Y-41043380D02*
X128610857Y-41043380D01*
X128277523Y-41424333D01*
X128420380Y-41424333D01*
X128515619Y-41471952D01*
X128563238Y-41519571D01*
X128610857Y-41614809D01*
X128610857Y-41852904D01*
X128563238Y-41948142D01*
X128515619Y-41995761D01*
X128420380Y-42043380D01*
X128134666Y-42043380D01*
X128039428Y-41995761D01*
X127991809Y-41948142D01*
X129039428Y-41948142D02*
X129087047Y-41995761D01*
X129039428Y-42043380D01*
X128991809Y-41995761D01*
X129039428Y-41948142D01*
X129039428Y-42043380D01*
X129468000Y-41138619D02*
X129515619Y-41091000D01*
X129610857Y-41043380D01*
X129848952Y-41043380D01*
X129944190Y-41091000D01*
X129991809Y-41138619D01*
X130039428Y-41233857D01*
X130039428Y-41329095D01*
X129991809Y-41471952D01*
X129420380Y-42043380D01*
X130039428Y-42043380D01*
X130372761Y-42424333D02*
X130420380Y-42376714D01*
X130515619Y-42233857D01*
X130563238Y-42138619D01*
X130610857Y-41995761D01*
X130658476Y-41757666D01*
X130658476Y-41567190D01*
X130610857Y-41329095D01*
X130563238Y-41186238D01*
X130515619Y-41091000D01*
X130420380Y-40948142D01*
X130372761Y-40900523D01*
X49728380Y-43195523D02*
X49252190Y-43528857D01*
X49728380Y-43766952D02*
X48728380Y-43766952D01*
X48728380Y-43386000D01*
X48776000Y-43290761D01*
X48823619Y-43243142D01*
X48918857Y-43195523D01*
X49061714Y-43195523D01*
X49156952Y-43243142D01*
X49204571Y-43290761D01*
X49252190Y-43386000D01*
X49252190Y-43766952D01*
X48776000Y-42243142D02*
X48728380Y-42338380D01*
X48728380Y-42481238D01*
X48776000Y-42624095D01*
X48871238Y-42719333D01*
X48966476Y-42766952D01*
X49156952Y-42814571D01*
X49299809Y-42814571D01*
X49490285Y-42766952D01*
X49585523Y-42719333D01*
X49680761Y-42624095D01*
X49728380Y-42481238D01*
X49728380Y-42386000D01*
X49680761Y-42243142D01*
X49633142Y-42195523D01*
X49299809Y-42195523D01*
X49299809Y-42386000D01*
X49204571Y-41433619D02*
X49252190Y-41290761D01*
X49299809Y-41243142D01*
X49395047Y-41195523D01*
X49537904Y-41195523D01*
X49633142Y-41243142D01*
X49680761Y-41290761D01*
X49728380Y-41386000D01*
X49728380Y-41766952D01*
X48728380Y-41766952D01*
X48728380Y-41433619D01*
X48776000Y-41338380D01*
X48823619Y-41290761D01*
X48918857Y-41243142D01*
X49014095Y-41243142D01*
X49109333Y-41290761D01*
X49156952Y-41338380D01*
X49204571Y-41433619D01*
X49204571Y-41766952D01*
X49680761Y-40814571D02*
X49728380Y-40671714D01*
X49728380Y-40433619D01*
X49680761Y-40338380D01*
X49633142Y-40290761D01*
X49537904Y-40243142D01*
X49442666Y-40243142D01*
X49347428Y-40290761D01*
X49299809Y-40338380D01*
X49252190Y-40433619D01*
X49204571Y-40624095D01*
X49156952Y-40719333D01*
X49109333Y-40766952D01*
X49014095Y-40814571D01*
X48918857Y-40814571D01*
X48823619Y-40766952D01*
X48776000Y-40719333D01*
X48728380Y-40624095D01*
X48728380Y-40386000D01*
X48776000Y-40243142D01*
X48728380Y-38862190D02*
X48728380Y-38671714D01*
X48776000Y-38576476D01*
X48871238Y-38481238D01*
X49061714Y-38433619D01*
X49395047Y-38433619D01*
X49585523Y-38481238D01*
X49680761Y-38576476D01*
X49728380Y-38671714D01*
X49728380Y-38862190D01*
X49680761Y-38957428D01*
X49585523Y-39052666D01*
X49395047Y-39100285D01*
X49061714Y-39100285D01*
X48871238Y-39052666D01*
X48776000Y-38957428D01*
X48728380Y-38862190D01*
X49061714Y-37576476D02*
X49728380Y-37576476D01*
X49061714Y-38005047D02*
X49585523Y-38005047D01*
X49680761Y-37957428D01*
X49728380Y-37862190D01*
X49728380Y-37719333D01*
X49680761Y-37624095D01*
X49633142Y-37576476D01*
X49061714Y-37243142D02*
X49061714Y-36862190D01*
X48728380Y-37100285D02*
X49585523Y-37100285D01*
X49680761Y-37052666D01*
X49728380Y-36957428D01*
X49728380Y-36862190D01*
X35234571Y-48172380D02*
X35282190Y-48029523D01*
X35329809Y-47981904D01*
X35425047Y-47934285D01*
X35567904Y-47934285D01*
X35663142Y-47981904D01*
X35710761Y-48029523D01*
X35758380Y-48124761D01*
X35758380Y-48505714D01*
X34758380Y-48505714D01*
X34758380Y-48172380D01*
X34806000Y-48077142D01*
X34853619Y-48029523D01*
X34948857Y-47981904D01*
X35044095Y-47981904D01*
X35139333Y-48029523D01*
X35186952Y-48077142D01*
X35234571Y-48172380D01*
X35234571Y-48505714D01*
X34806000Y-45458095D02*
X34758380Y-45553333D01*
X34758380Y-45696190D01*
X34806000Y-45839047D01*
X34901238Y-45934285D01*
X34996476Y-45981904D01*
X35186952Y-46029523D01*
X35329809Y-46029523D01*
X35520285Y-45981904D01*
X35615523Y-45934285D01*
X35710761Y-45839047D01*
X35758380Y-45696190D01*
X35758380Y-45600952D01*
X35710761Y-45458095D01*
X35663142Y-45410476D01*
X35329809Y-45410476D01*
X35329809Y-45600952D01*
X35758380Y-42886666D02*
X35282190Y-43220000D01*
X35758380Y-43458095D02*
X34758380Y-43458095D01*
X34758380Y-43077142D01*
X34806000Y-42981904D01*
X34853619Y-42934285D01*
X34948857Y-42886666D01*
X35091714Y-42886666D01*
X35186952Y-42934285D01*
X35234571Y-42981904D01*
X35282190Y-43077142D01*
X35282190Y-43458095D01*
X56856380Y-47116190D02*
X56856380Y-47020952D01*
X56904000Y-46925714D01*
X56951619Y-46878095D01*
X57046857Y-46830476D01*
X57237333Y-46782857D01*
X57475428Y-46782857D01*
X57665904Y-46830476D01*
X57761142Y-46878095D01*
X57808761Y-46925714D01*
X57856380Y-47020952D01*
X57856380Y-47116190D01*
X57808761Y-47211428D01*
X57761142Y-47259047D01*
X57665904Y-47306666D01*
X57475428Y-47354285D01*
X57237333Y-47354285D01*
X57046857Y-47306666D01*
X56951619Y-47259047D01*
X56904000Y-47211428D01*
X56856380Y-47116190D01*
X57189714Y-46449523D02*
X57856380Y-46211428D01*
X57189714Y-45973333D01*
X57332571Y-44497142D02*
X57380190Y-44354285D01*
X57427809Y-44306666D01*
X57523047Y-44259047D01*
X57665904Y-44259047D01*
X57761142Y-44306666D01*
X57808761Y-44354285D01*
X57856380Y-44449523D01*
X57856380Y-44830476D01*
X56856380Y-44830476D01*
X56856380Y-44497142D01*
X56904000Y-44401904D01*
X56951619Y-44354285D01*
X57046857Y-44306666D01*
X57142095Y-44306666D01*
X57237333Y-44354285D01*
X57284952Y-44401904D01*
X57332571Y-44497142D01*
X57332571Y-44830476D01*
X57856380Y-42306666D02*
X56856380Y-42306666D01*
X57856380Y-41735238D01*
X56856380Y-41735238D01*
X57761142Y-40687619D02*
X57808761Y-40735238D01*
X57856380Y-40878095D01*
X57856380Y-40973333D01*
X57808761Y-41116190D01*
X57713523Y-41211428D01*
X57618285Y-41259047D01*
X57427809Y-41306666D01*
X57284952Y-41306666D01*
X57094476Y-41259047D01*
X56999238Y-41211428D01*
X56904000Y-41116190D01*
X56856380Y-40973333D01*
X56856380Y-40878095D01*
X56904000Y-40735238D01*
X56951619Y-40687619D01*
X56904000Y-38973333D02*
X56856380Y-39068571D01*
X56856380Y-39211428D01*
X56904000Y-39354285D01*
X56999238Y-39449523D01*
X57094476Y-39497142D01*
X57284952Y-39544761D01*
X57427809Y-39544761D01*
X57618285Y-39497142D01*
X57713523Y-39449523D01*
X57808761Y-39354285D01*
X57856380Y-39211428D01*
X57856380Y-39116190D01*
X57808761Y-38973333D01*
X57761142Y-38925714D01*
X57427809Y-38925714D01*
X57427809Y-39116190D01*
X57808761Y-37020952D02*
X57856380Y-36878095D01*
X57856380Y-36640000D01*
X57808761Y-36544761D01*
X57761142Y-36497142D01*
X57665904Y-36449523D01*
X57570666Y-36449523D01*
X57475428Y-36497142D01*
X57427809Y-36544761D01*
X57380190Y-36640000D01*
X57332571Y-36830476D01*
X57284952Y-36925714D01*
X57237333Y-36973333D01*
X57142095Y-37020952D01*
X57046857Y-37020952D01*
X56951619Y-36973333D01*
X56904000Y-36925714D01*
X56856380Y-36830476D01*
X56856380Y-36592380D01*
X56904000Y-36449523D01*
X57189714Y-36116190D02*
X57856380Y-35878095D01*
X57189714Y-35640000D02*
X57856380Y-35878095D01*
X58094476Y-35973333D01*
X58142095Y-36020952D01*
X58189714Y-36116190D01*
X57856380Y-33925714D02*
X57380190Y-34259047D01*
X57856380Y-34497142D02*
X56856380Y-34497142D01*
X56856380Y-34116190D01*
X56904000Y-34020952D01*
X56951619Y-33973333D01*
X57046857Y-33925714D01*
X57189714Y-33925714D01*
X57284952Y-33973333D01*
X57332571Y-34020952D01*
X57380190Y-34116190D01*
X57380190Y-34497142D01*
X45108761Y-43830190D02*
X45156380Y-43687333D01*
X45156380Y-43449238D01*
X45108761Y-43354000D01*
X45061142Y-43306380D01*
X44965904Y-43258761D01*
X44870666Y-43258761D01*
X44775428Y-43306380D01*
X44727809Y-43354000D01*
X44680190Y-43449238D01*
X44632571Y-43639714D01*
X44584952Y-43734952D01*
X44537333Y-43782571D01*
X44442095Y-43830190D01*
X44346857Y-43830190D01*
X44251619Y-43782571D01*
X44204000Y-43734952D01*
X44156380Y-43639714D01*
X44156380Y-43401619D01*
X44204000Y-43258761D01*
X44489714Y-42925428D02*
X45156380Y-42687333D01*
X44489714Y-42449238D02*
X45156380Y-42687333D01*
X45394476Y-42782571D01*
X45442095Y-42830190D01*
X45489714Y-42925428D01*
X45156380Y-41306380D02*
X44156380Y-41306380D01*
X45156380Y-40734952D01*
X44156380Y-40734952D01*
X45061142Y-39687333D02*
X45108761Y-39734952D01*
X45156380Y-39877809D01*
X45156380Y-39973047D01*
X45108761Y-40115904D01*
X45013523Y-40211142D01*
X44918285Y-40258761D01*
X44727809Y-40306380D01*
X44584952Y-40306380D01*
X44394476Y-40258761D01*
X44299238Y-40211142D01*
X44204000Y-40115904D01*
X44156380Y-39973047D01*
X44156380Y-39877809D01*
X44204000Y-39734952D01*
X44251619Y-39687333D01*
X44632571Y-38163523D02*
X44680190Y-38020666D01*
X44727809Y-37973047D01*
X44823047Y-37925428D01*
X44965904Y-37925428D01*
X45061142Y-37973047D01*
X45108761Y-38020666D01*
X45156380Y-38115904D01*
X45156380Y-38496857D01*
X44156380Y-38496857D01*
X44156380Y-38163523D01*
X44204000Y-38068285D01*
X44251619Y-38020666D01*
X44346857Y-37973047D01*
X44442095Y-37973047D01*
X44537333Y-38020666D01*
X44584952Y-38068285D01*
X44632571Y-38163523D01*
X44632571Y-38496857D01*
X44204000Y-35449238D02*
X44156380Y-35544476D01*
X44156380Y-35687333D01*
X44204000Y-35830190D01*
X44299238Y-35925428D01*
X44394476Y-35973047D01*
X44584952Y-36020666D01*
X44727809Y-36020666D01*
X44918285Y-35973047D01*
X45013523Y-35925428D01*
X45108761Y-35830190D01*
X45156380Y-35687333D01*
X45156380Y-35592095D01*
X45108761Y-35449238D01*
X45061142Y-35401619D01*
X44727809Y-35401619D01*
X44727809Y-35592095D01*
X45156380Y-32877809D02*
X44680190Y-33211142D01*
X45156380Y-33449238D02*
X44156380Y-33449238D01*
X44156380Y-33068285D01*
X44204000Y-32973047D01*
X44251619Y-32925428D01*
X44346857Y-32877809D01*
X44489714Y-32877809D01*
X44584952Y-32925428D01*
X44632571Y-32973047D01*
X44680190Y-33068285D01*
X44680190Y-33449238D01*
X36980761Y-44290476D02*
X37028380Y-44147619D01*
X37028380Y-43909523D01*
X36980761Y-43814285D01*
X36933142Y-43766666D01*
X36837904Y-43719047D01*
X36742666Y-43719047D01*
X36647428Y-43766666D01*
X36599809Y-43814285D01*
X36552190Y-43909523D01*
X36504571Y-44100000D01*
X36456952Y-44195238D01*
X36409333Y-44242857D01*
X36314095Y-44290476D01*
X36218857Y-44290476D01*
X36123619Y-44242857D01*
X36076000Y-44195238D01*
X36028380Y-44100000D01*
X36028380Y-43861904D01*
X36076000Y-43719047D01*
X37028380Y-42861904D02*
X36504571Y-42861904D01*
X36409333Y-42909523D01*
X36361714Y-43004761D01*
X36361714Y-43195238D01*
X36409333Y-43290476D01*
X36980761Y-42861904D02*
X37028380Y-42957142D01*
X37028380Y-43195238D01*
X36980761Y-43290476D01*
X36885523Y-43338095D01*
X36790285Y-43338095D01*
X36695047Y-43290476D01*
X36647428Y-43195238D01*
X36647428Y-42957142D01*
X36599809Y-42861904D01*
X36361714Y-42528571D02*
X36361714Y-42147619D01*
X36028380Y-42385714D02*
X36885523Y-42385714D01*
X36980761Y-42338095D01*
X37028380Y-42242857D01*
X37028380Y-42147619D01*
X37028380Y-41052380D02*
X36028380Y-41052380D01*
X37028380Y-40480952D01*
X36028380Y-40480952D01*
X37028380Y-39576190D02*
X36504571Y-39576190D01*
X36409333Y-39623809D01*
X36361714Y-39719047D01*
X36361714Y-39909523D01*
X36409333Y-40004761D01*
X36980761Y-39576190D02*
X37028380Y-39671428D01*
X37028380Y-39909523D01*
X36980761Y-40004761D01*
X36885523Y-40052380D01*
X36790285Y-40052380D01*
X36695047Y-40004761D01*
X36647428Y-39909523D01*
X36647428Y-39671428D01*
X36599809Y-39576190D01*
X36361714Y-39195238D02*
X37028380Y-38957142D01*
X36361714Y-38719047D01*
X37028380Y-37004761D02*
X36552190Y-37338095D01*
X37028380Y-37576190D02*
X36028380Y-37576190D01*
X36028380Y-37195238D01*
X36076000Y-37100000D01*
X36123619Y-37052380D01*
X36218857Y-37004761D01*
X36361714Y-37004761D01*
X36456952Y-37052380D01*
X36504571Y-37100000D01*
X36552190Y-37195238D01*
X36552190Y-37576190D01*
X36076000Y-36052380D02*
X36028380Y-36147619D01*
X36028380Y-36290476D01*
X36076000Y-36433333D01*
X36171238Y-36528571D01*
X36266476Y-36576190D01*
X36456952Y-36623809D01*
X36599809Y-36623809D01*
X36790285Y-36576190D01*
X36885523Y-36528571D01*
X36980761Y-36433333D01*
X37028380Y-36290476D01*
X37028380Y-36195238D01*
X36980761Y-36052380D01*
X36933142Y-36004761D01*
X36599809Y-36004761D01*
X36599809Y-36195238D01*
X36504571Y-35242857D02*
X36552190Y-35100000D01*
X36599809Y-35052380D01*
X36695047Y-35004761D01*
X36837904Y-35004761D01*
X36933142Y-35052380D01*
X36980761Y-35100000D01*
X37028380Y-35195238D01*
X37028380Y-35576190D01*
X36028380Y-35576190D01*
X36028380Y-35242857D01*
X36076000Y-35147619D01*
X36123619Y-35100000D01*
X36218857Y-35052380D01*
X36314095Y-35052380D01*
X36409333Y-35100000D01*
X36456952Y-35147619D01*
X36504571Y-35242857D01*
X36504571Y-35576190D01*
X36980761Y-34623809D02*
X37028380Y-34480952D01*
X37028380Y-34242857D01*
X36980761Y-34147619D01*
X36933142Y-34100000D01*
X36837904Y-34052380D01*
X36742666Y-34052380D01*
X36647428Y-34100000D01*
X36599809Y-34147619D01*
X36552190Y-34242857D01*
X36504571Y-34433333D01*
X36456952Y-34528571D01*
X36409333Y-34576190D01*
X36314095Y-34623809D01*
X36218857Y-34623809D01*
X36123619Y-34576190D01*
X36076000Y-34528571D01*
X36028380Y-34433333D01*
X36028380Y-34195238D01*
X36076000Y-34052380D01*
X37028380Y-32861904D02*
X36028380Y-32861904D01*
X36361714Y-32385714D02*
X37028380Y-32385714D01*
X36456952Y-32385714D02*
X36409333Y-32338095D01*
X36361714Y-32242857D01*
X36361714Y-32100000D01*
X36409333Y-32004761D01*
X36504571Y-31957142D01*
X37028380Y-31957142D01*
X27630380Y-49886666D02*
X27630380Y-50362857D01*
X26630380Y-50362857D01*
X27630380Y-49553333D02*
X26963714Y-49553333D01*
X26630380Y-49553333D02*
X26678000Y-49600952D01*
X26725619Y-49553333D01*
X26678000Y-49505714D01*
X26630380Y-49553333D01*
X26725619Y-49553333D01*
X26963714Y-49077142D02*
X27630380Y-49077142D01*
X27058952Y-49077142D02*
X27011333Y-49029523D01*
X26963714Y-48934285D01*
X26963714Y-48791428D01*
X27011333Y-48696190D01*
X27106571Y-48648571D01*
X27630380Y-48648571D01*
X27630380Y-47743809D02*
X26630380Y-47743809D01*
X27582761Y-47743809D02*
X27630380Y-47839047D01*
X27630380Y-48029523D01*
X27582761Y-48124761D01*
X27535142Y-48172380D01*
X27439904Y-48220000D01*
X27154190Y-48220000D01*
X27058952Y-48172380D01*
X27011333Y-48124761D01*
X26963714Y-48029523D01*
X26963714Y-47839047D01*
X27011333Y-47743809D01*
X26963714Y-47362857D02*
X27630380Y-47124761D01*
X26963714Y-46886666D02*
X27630380Y-47124761D01*
X27868476Y-47220000D01*
X27916095Y-47267619D01*
X27963714Y-47362857D01*
X27630380Y-45172380D02*
X27154190Y-45505714D01*
X27630380Y-45743809D02*
X26630380Y-45743809D01*
X26630380Y-45362857D01*
X26678000Y-45267619D01*
X26725619Y-45220000D01*
X26820857Y-45172380D01*
X26963714Y-45172380D01*
X27058952Y-45220000D01*
X27106571Y-45267619D01*
X27154190Y-45362857D01*
X27154190Y-45743809D01*
X26678000Y-44220000D02*
X26630380Y-44315238D01*
X26630380Y-44458095D01*
X26678000Y-44600952D01*
X26773238Y-44696190D01*
X26868476Y-44743809D01*
X27058952Y-44791428D01*
X27201809Y-44791428D01*
X27392285Y-44743809D01*
X27487523Y-44696190D01*
X27582761Y-44600952D01*
X27630380Y-44458095D01*
X27630380Y-44362857D01*
X27582761Y-44220000D01*
X27535142Y-44172380D01*
X27201809Y-44172380D01*
X27201809Y-44362857D01*
X27106571Y-43410476D02*
X27154190Y-43267619D01*
X27201809Y-43220000D01*
X27297047Y-43172380D01*
X27439904Y-43172380D01*
X27535142Y-43220000D01*
X27582761Y-43267619D01*
X27630380Y-43362857D01*
X27630380Y-43743809D01*
X26630380Y-43743809D01*
X26630380Y-43410476D01*
X26678000Y-43315238D01*
X26725619Y-43267619D01*
X26820857Y-43220000D01*
X26916095Y-43220000D01*
X27011333Y-43267619D01*
X27058952Y-43315238D01*
X27106571Y-43410476D01*
X27106571Y-43743809D01*
X27630380Y-41981904D02*
X26630380Y-41981904D01*
X26963714Y-41505714D02*
X27630380Y-41505714D01*
X27058952Y-41505714D02*
X27011333Y-41458095D01*
X26963714Y-41362857D01*
X26963714Y-41220000D01*
X27011333Y-41124761D01*
X27106571Y-41077142D01*
X27630380Y-41077142D01*
X89987428Y-34337523D02*
X89987428Y-33575619D01*
X90368380Y-33956571D02*
X89606476Y-33956571D01*
X89368380Y-33242285D02*
X90368380Y-32908952D01*
X89368380Y-32575619D01*
X73985428Y-34337523D02*
X73985428Y-33575619D01*
X74366380Y-33956571D02*
X73604476Y-33956571D01*
X73366380Y-33242285D02*
X74366380Y-32908952D01*
X73366380Y-32575619D01*
X73414000Y-30614857D02*
X73366380Y-30710095D01*
X73366380Y-30852952D01*
X73414000Y-30995809D01*
X73509238Y-31091047D01*
X73604476Y-31138666D01*
X73794952Y-31186285D01*
X73937809Y-31186285D01*
X74128285Y-31138666D01*
X74223523Y-31091047D01*
X74318761Y-30995809D01*
X74366380Y-30852952D01*
X74366380Y-30757714D01*
X74318761Y-30614857D01*
X74271142Y-30567238D01*
X73937809Y-30567238D01*
X73937809Y-30757714D01*
X73699714Y-30138666D02*
X74366380Y-30138666D01*
X73794952Y-30138666D02*
X73747333Y-30091047D01*
X73699714Y-29995809D01*
X73699714Y-29852952D01*
X73747333Y-29757714D01*
X73842571Y-29710095D01*
X74366380Y-29710095D01*
X74366380Y-28805333D02*
X73366380Y-28805333D01*
X74318761Y-28805333D02*
X74366380Y-28900571D01*
X74366380Y-29091047D01*
X74318761Y-29186285D01*
X74271142Y-29233904D01*
X74175904Y-29281523D01*
X73890190Y-29281523D01*
X73794952Y-29233904D01*
X73747333Y-29186285D01*
X73699714Y-29091047D01*
X73699714Y-28900571D01*
X73747333Y-28805333D01*
X89162000Y-30614857D02*
X89114380Y-30710095D01*
X89114380Y-30852952D01*
X89162000Y-30995809D01*
X89257238Y-31091047D01*
X89352476Y-31138666D01*
X89542952Y-31186285D01*
X89685809Y-31186285D01*
X89876285Y-31138666D01*
X89971523Y-31091047D01*
X90066761Y-30995809D01*
X90114380Y-30852952D01*
X90114380Y-30757714D01*
X90066761Y-30614857D01*
X90019142Y-30567238D01*
X89685809Y-30567238D01*
X89685809Y-30757714D01*
X89447714Y-30138666D02*
X90114380Y-30138666D01*
X89542952Y-30138666D02*
X89495333Y-30091047D01*
X89447714Y-29995809D01*
X89447714Y-29852952D01*
X89495333Y-29757714D01*
X89590571Y-29710095D01*
X90114380Y-29710095D01*
X90114380Y-28805333D02*
X89114380Y-28805333D01*
X90066761Y-28805333D02*
X90114380Y-28900571D01*
X90114380Y-29091047D01*
X90066761Y-29186285D01*
X90019142Y-29233904D01*
X89923904Y-29281523D01*
X89638190Y-29281523D01*
X89542952Y-29233904D01*
X89495333Y-29186285D01*
X89447714Y-29091047D01*
X89447714Y-28900571D01*
X89495333Y-28805333D01*
X82526571Y-26868380D02*
X82050380Y-26868380D01*
X82050380Y-25868380D01*
X82859904Y-26868380D02*
X82859904Y-26201714D01*
X82859904Y-25868380D02*
X82812285Y-25916000D01*
X82859904Y-25963619D01*
X82907523Y-25916000D01*
X82859904Y-25868380D01*
X82859904Y-25963619D01*
X83336095Y-26201714D02*
X83336095Y-26868380D01*
X83336095Y-26296952D02*
X83383714Y-26249333D01*
X83478952Y-26201714D01*
X83621809Y-26201714D01*
X83717047Y-26249333D01*
X83764666Y-26344571D01*
X83764666Y-26868380D01*
X84669428Y-26868380D02*
X84669428Y-25868380D01*
X84669428Y-26820761D02*
X84574190Y-26868380D01*
X84383714Y-26868380D01*
X84288476Y-26820761D01*
X84240857Y-26773142D01*
X84193238Y-26677904D01*
X84193238Y-26392190D01*
X84240857Y-26296952D01*
X84288476Y-26249333D01*
X84383714Y-26201714D01*
X84574190Y-26201714D01*
X84669428Y-26249333D01*
X85050380Y-26201714D02*
X85288476Y-26868380D01*
X85526571Y-26201714D02*
X85288476Y-26868380D01*
X85193238Y-27106476D01*
X85145619Y-27154095D01*
X85050380Y-27201714D01*
X86669428Y-26487428D02*
X87431333Y-26487428D01*
X87050380Y-26868380D02*
X87050380Y-26106476D01*
X88383714Y-25868380D02*
X87907523Y-25868380D01*
X87859904Y-26344571D01*
X87907523Y-26296952D01*
X88002761Y-26249333D01*
X88240857Y-26249333D01*
X88336095Y-26296952D01*
X88383714Y-26344571D01*
X88431333Y-26439809D01*
X88431333Y-26677904D01*
X88383714Y-26773142D01*
X88336095Y-26820761D01*
X88240857Y-26868380D01*
X88002761Y-26868380D01*
X87907523Y-26820761D01*
X87859904Y-26773142D01*
X88764666Y-26201714D02*
X89002761Y-26868380D01*
X89240857Y-26201714D01*
X77335142Y-26868380D02*
X76858952Y-26868380D01*
X76858952Y-25868380D01*
X77668476Y-26344571D02*
X78001809Y-26344571D01*
X78144666Y-26868380D02*
X77668476Y-26868380D01*
X77668476Y-25868380D01*
X78144666Y-25868380D01*
X78573238Y-26868380D02*
X78573238Y-25868380D01*
X78811333Y-25868380D01*
X78954190Y-25916000D01*
X79049428Y-26011238D01*
X79097047Y-26106476D01*
X79144666Y-26296952D01*
X79144666Y-26439809D01*
X79097047Y-26630285D01*
X79049428Y-26725523D01*
X78954190Y-26820761D01*
X78811333Y-26868380D01*
X78573238Y-26868380D01*
X132455481Y-28242643D02*
X132783780Y-28570943D01*
X132404973Y-28596197D01*
X132480735Y-28671958D01*
X132505988Y-28747719D01*
X132505988Y-28798227D01*
X132480735Y-28873988D01*
X132354466Y-29000258D01*
X132278704Y-29025511D01*
X132228197Y-29025511D01*
X132152435Y-29000258D01*
X132000912Y-28848735D01*
X131975658Y-28772973D01*
X131975658Y-28722466D01*
X132531242Y-29278049D02*
X132531242Y-29328557D01*
X132480735Y-29328557D01*
X132480735Y-29278049D01*
X132531242Y-29278049D01*
X132480735Y-29328557D01*
X133011065Y-29858887D02*
X132708019Y-29555841D01*
X132859542Y-29707364D02*
X133389872Y-29177034D01*
X133263603Y-29202288D01*
X133162588Y-29202288D01*
X133086826Y-29177034D01*
X133995963Y-29783126D02*
X133894948Y-29682111D01*
X133819187Y-29656857D01*
X133768679Y-29656857D01*
X133642410Y-29682111D01*
X133516141Y-29757872D01*
X133314111Y-29959902D01*
X133288857Y-30035664D01*
X133288857Y-30086172D01*
X133314111Y-30161933D01*
X133415126Y-30262948D01*
X133490887Y-30288202D01*
X133541395Y-30288202D01*
X133617156Y-30262948D01*
X133743425Y-30136679D01*
X133768679Y-30060918D01*
X133768679Y-30010410D01*
X133743425Y-29934649D01*
X133642410Y-29833633D01*
X133566649Y-29808380D01*
X133516141Y-29808380D01*
X133440380Y-29833633D01*
X133869694Y-30414471D02*
X134122233Y-30667009D01*
X133667664Y-30515486D02*
X134374771Y-30161933D01*
X134021217Y-30869040D01*
X134551547Y-31803431D02*
X134551547Y-31752923D01*
X134576801Y-31626654D01*
X134602055Y-31550893D01*
X134652563Y-31449877D01*
X134753578Y-31298355D01*
X134854593Y-31197339D01*
X135006116Y-31096324D01*
X135107131Y-31045816D01*
X135182893Y-31020563D01*
X135309162Y-30995309D01*
X135359669Y-30995309D01*
X134955608Y-31752923D02*
X135006116Y-31853938D01*
X135132385Y-31980208D01*
X135208147Y-32005461D01*
X135258654Y-32005461D01*
X135334416Y-31980208D01*
X135384923Y-31929700D01*
X135410177Y-31853938D01*
X135410177Y-31803431D01*
X135384923Y-31727669D01*
X135309162Y-31601400D01*
X135283908Y-31525639D01*
X135283908Y-31475131D01*
X135309162Y-31399370D01*
X135359669Y-31348862D01*
X135435431Y-31323608D01*
X135485938Y-31323608D01*
X135561700Y-31348862D01*
X135687969Y-31475131D01*
X135738477Y-31576147D01*
X135536446Y-32384269D02*
X135511192Y-32308507D01*
X135536446Y-32232746D01*
X135991015Y-31778177D01*
X135814238Y-32662061D02*
X135788984Y-32586299D01*
X135788984Y-32535791D01*
X135814238Y-32460030D01*
X135965761Y-32308507D01*
X136041522Y-32283253D01*
X136092030Y-32283253D01*
X136167791Y-32308507D01*
X136243553Y-32384269D01*
X136268807Y-32460030D01*
X136268807Y-32510538D01*
X136243553Y-32586299D01*
X136092030Y-32737822D01*
X136016269Y-32763076D01*
X135965761Y-32763076D01*
X135890000Y-32737822D01*
X135814238Y-32662061D01*
X136521345Y-32662061D02*
X136268807Y-33116629D01*
X136622360Y-32965106D01*
X136470837Y-33318660D01*
X136925406Y-33066122D01*
X136975913Y-33419675D02*
X137379975Y-33823736D01*
X137430482Y-34278305D02*
X137960812Y-33747975D01*
X137758782Y-33950005D02*
X137834543Y-33975259D01*
X137935558Y-34076274D01*
X137960812Y-34152036D01*
X137960812Y-34202543D01*
X137935558Y-34278305D01*
X137784036Y-34429827D01*
X137708274Y-34455081D01*
X137657766Y-34455081D01*
X137582005Y-34429827D01*
X137480990Y-34328812D01*
X137455736Y-34253051D01*
X137986066Y-34833888D02*
X137960812Y-34758127D01*
X137986066Y-34682366D01*
X138440635Y-34227797D01*
X138263858Y-35111680D02*
X138238604Y-35035919D01*
X138238604Y-34985411D01*
X138263858Y-34909650D01*
X138415381Y-34758127D01*
X138491142Y-34732873D01*
X138541650Y-34732873D01*
X138617411Y-34758127D01*
X138693173Y-34833888D01*
X138718427Y-34909650D01*
X138718427Y-34960158D01*
X138693173Y-35035919D01*
X138541650Y-35187442D01*
X138465888Y-35212696D01*
X138415381Y-35212696D01*
X138339619Y-35187442D01*
X138263858Y-35111680D01*
X138970965Y-35111680D02*
X138718427Y-35566249D01*
X139071980Y-35414726D01*
X138920457Y-35768280D01*
X139375026Y-35515741D01*
X138970965Y-36222848D02*
X139021472Y-36222848D01*
X139147741Y-36197594D01*
X139223503Y-36172341D01*
X139324518Y-36121833D01*
X139476041Y-36020818D01*
X139577056Y-35919802D01*
X139678072Y-35768280D01*
X139728579Y-35667264D01*
X139753833Y-35591503D01*
X139779087Y-35465234D01*
X139779087Y-35414726D01*
D12*
X39040000Y-47300000D02*
X38740000Y-47300000D01*
X38740000Y-47300000D02*
X38440000Y-47600000D01*
X38440000Y-47600000D02*
X37840000Y-47600000D01*
X38240000Y-54300000D02*
X38240000Y-54000000D01*
X38240000Y-54300000D02*
X38540000Y-54300000D01*
X43040000Y-47600000D02*
X43040000Y-47300000D01*
X43040000Y-47300000D02*
X42740000Y-47300000D01*
X43040000Y-54000000D02*
X43040000Y-54300000D01*
X43040000Y-54300000D02*
X42740000Y-54300000D01*
D13*
G36*
X47601910Y-51344348D02*
G01*
X47680454Y-51344778D01*
X47737298Y-51345942D01*
X47776105Y-51348207D01*
X47800538Y-51351940D01*
X47814262Y-51357506D01*
X47820940Y-51365273D01*
X47824236Y-51375605D01*
X47824556Y-51376943D01*
X47829562Y-51401079D01*
X47838829Y-51448701D01*
X47851392Y-51514741D01*
X47866287Y-51594128D01*
X47882551Y-51681796D01*
X47883119Y-51684875D01*
X47899410Y-51770789D01*
X47914652Y-51846696D01*
X47927861Y-51908045D01*
X47938054Y-51950282D01*
X47944248Y-51968855D01*
X47944543Y-51969184D01*
X47962788Y-51978253D01*
X48000405Y-51993367D01*
X48049271Y-52011262D01*
X48049543Y-52011358D01*
X48111093Y-52034493D01*
X48183657Y-52063965D01*
X48252057Y-52093597D01*
X48255294Y-52095062D01*
X48366702Y-52145626D01*
X48613399Y-51977160D01*
X48689077Y-51925803D01*
X48757631Y-51879889D01*
X48815088Y-51842030D01*
X48857476Y-51814837D01*
X48880825Y-51800921D01*
X48883042Y-51799889D01*
X48900010Y-51804484D01*
X48931701Y-51826655D01*
X48979352Y-51867447D01*
X49044198Y-51927905D01*
X49110397Y-51992227D01*
X49174214Y-52055612D01*
X49231329Y-52113451D01*
X49278305Y-52162175D01*
X49311703Y-52198210D01*
X49328085Y-52217984D01*
X49328694Y-52219002D01*
X49330505Y-52232572D01*
X49323683Y-52254733D01*
X49306540Y-52288478D01*
X49277393Y-52336800D01*
X49234555Y-52402692D01*
X49177448Y-52487517D01*
X49126766Y-52562177D01*
X49081461Y-52629140D01*
X49044150Y-52684516D01*
X49017452Y-52724420D01*
X49003985Y-52744962D01*
X49003137Y-52746356D01*
X49004781Y-52766038D01*
X49017245Y-52804293D01*
X49038048Y-52853889D01*
X49045462Y-52869728D01*
X49077814Y-52940290D01*
X49112328Y-53020353D01*
X49140365Y-53089629D01*
X49160568Y-53141045D01*
X49176615Y-53180119D01*
X49185888Y-53200541D01*
X49187041Y-53202114D01*
X49204096Y-53204721D01*
X49244298Y-53211863D01*
X49302302Y-53222523D01*
X49372763Y-53235685D01*
X49450335Y-53250333D01*
X49529672Y-53265449D01*
X49605431Y-53280018D01*
X49672264Y-53293022D01*
X49724828Y-53303445D01*
X49757776Y-53310270D01*
X49765857Y-53312199D01*
X49774205Y-53316962D01*
X49780506Y-53327718D01*
X49785045Y-53348098D01*
X49788104Y-53381734D01*
X49789967Y-53432255D01*
X49790918Y-53503292D01*
X49791240Y-53598476D01*
X49791257Y-53637492D01*
X49791257Y-53954799D01*
X49715057Y-53969839D01*
X49672663Y-53977995D01*
X49609400Y-53989899D01*
X49532962Y-54004116D01*
X49451043Y-54019210D01*
X49428400Y-54023355D01*
X49352806Y-54038053D01*
X49286953Y-54052505D01*
X49236366Y-54065375D01*
X49206574Y-54075322D01*
X49201612Y-54078287D01*
X49189426Y-54099283D01*
X49171953Y-54139967D01*
X49152577Y-54192322D01*
X49148734Y-54203600D01*
X49123339Y-54273523D01*
X49091817Y-54352418D01*
X49060969Y-54423266D01*
X49060817Y-54423595D01*
X49009447Y-54534733D01*
X49178399Y-54783253D01*
X49347352Y-55031772D01*
X49130429Y-55249058D01*
X49064819Y-55313726D01*
X49004979Y-55370733D01*
X48954267Y-55417033D01*
X48916046Y-55449584D01*
X48893675Y-55465343D01*
X48890466Y-55466343D01*
X48871626Y-55458469D01*
X48833180Y-55436578D01*
X48779330Y-55403267D01*
X48714276Y-55361131D01*
X48643940Y-55313943D01*
X48572555Y-55265810D01*
X48508908Y-55223928D01*
X48457041Y-55190871D01*
X48420995Y-55169218D01*
X48404867Y-55161543D01*
X48385189Y-55168037D01*
X48347875Y-55185150D01*
X48300621Y-55209326D01*
X48295612Y-55212013D01*
X48231977Y-55243927D01*
X48188341Y-55259579D01*
X48161202Y-55259745D01*
X48147057Y-55245204D01*
X48146975Y-55245000D01*
X48139905Y-55227779D01*
X48123042Y-55186899D01*
X48097695Y-55125525D01*
X48065171Y-55046819D01*
X48026778Y-54953947D01*
X47983822Y-54850072D01*
X47942222Y-54749502D01*
X47896504Y-54638516D01*
X47854526Y-54535703D01*
X47817548Y-54444215D01*
X47786827Y-54367201D01*
X47763622Y-54307815D01*
X47749190Y-54269209D01*
X47744743Y-54254800D01*
X47755896Y-54238272D01*
X47785069Y-54211930D01*
X47823971Y-54182887D01*
X47934757Y-54091039D01*
X48021351Y-53985759D01*
X48082716Y-53869266D01*
X48117815Y-53743776D01*
X48125608Y-53611507D01*
X48119943Y-53550457D01*
X48089078Y-53423795D01*
X48035920Y-53311941D01*
X47963767Y-53216001D01*
X47875917Y-53137076D01*
X47775665Y-53076270D01*
X47666310Y-53034687D01*
X47551147Y-53013428D01*
X47433475Y-53013599D01*
X47316590Y-53036301D01*
X47203789Y-53082638D01*
X47098369Y-53153713D01*
X47054368Y-53193911D01*
X46969979Y-53297129D01*
X46911222Y-53409925D01*
X46877704Y-53529010D01*
X46869035Y-53651095D01*
X46884823Y-53772893D01*
X46924678Y-53891116D01*
X46988207Y-54002475D01*
X47075021Y-54103684D01*
X47172029Y-54182887D01*
X47212437Y-54213162D01*
X47240982Y-54239219D01*
X47251257Y-54254825D01*
X47245877Y-54271843D01*
X47230575Y-54312500D01*
X47206612Y-54373642D01*
X47175244Y-54452119D01*
X47137732Y-54544780D01*
X47095333Y-54648472D01*
X47053663Y-54749526D01*
X47007690Y-54860607D01*
X46965107Y-54963541D01*
X46927221Y-55055165D01*
X46895340Y-55132316D01*
X46870771Y-55191831D01*
X46854820Y-55230544D01*
X46848910Y-55245000D01*
X46834948Y-55259685D01*
X46807940Y-55259642D01*
X46764413Y-55244099D01*
X46700890Y-55212284D01*
X46700388Y-55212013D01*
X46652560Y-55187323D01*
X46613897Y-55169338D01*
X46592095Y-55161614D01*
X46591133Y-55161543D01*
X46574721Y-55169378D01*
X46538487Y-55191165D01*
X46486474Y-55224328D01*
X46422725Y-55266291D01*
X46352060Y-55313943D01*
X46280116Y-55362191D01*
X46215274Y-55404151D01*
X46161735Y-55437227D01*
X46123697Y-55458821D01*
X46105533Y-55466343D01*
X46088808Y-55456457D01*
X46055180Y-55428826D01*
X46008010Y-55386495D01*
X45950658Y-55332505D01*
X45886484Y-55269899D01*
X45865497Y-55248983D01*
X45648499Y-55031623D01*
X45813668Y-54789220D01*
X45863864Y-54714781D01*
X45907919Y-54647972D01*
X45943362Y-54592665D01*
X45967719Y-54552729D01*
X45978522Y-54532036D01*
X45978838Y-54530563D01*
X45973143Y-54511058D01*
X45957826Y-54471822D01*
X45935537Y-54419430D01*
X45919893Y-54384355D01*
X45890641Y-54317201D01*
X45863094Y-54249358D01*
X45841737Y-54192034D01*
X45835935Y-54174572D01*
X45819452Y-54127938D01*
X45803340Y-54091905D01*
X45794490Y-54078287D01*
X45774960Y-54069952D01*
X45732334Y-54058137D01*
X45672145Y-54044181D01*
X45599922Y-54029422D01*
X45567600Y-54023355D01*
X45485522Y-54008273D01*
X45406795Y-53993669D01*
X45339109Y-53980980D01*
X45290160Y-53971642D01*
X45280943Y-53969839D01*
X45204743Y-53954799D01*
X45204743Y-53637492D01*
X45204914Y-53533154D01*
X45205616Y-53454213D01*
X45207134Y-53397038D01*
X45209749Y-53357999D01*
X45213746Y-53333465D01*
X45219409Y-53319805D01*
X45227020Y-53313389D01*
X45230143Y-53312199D01*
X45248978Y-53307980D01*
X45290588Y-53299562D01*
X45349630Y-53287961D01*
X45420757Y-53274195D01*
X45498625Y-53259280D01*
X45577887Y-53244232D01*
X45653198Y-53230069D01*
X45719213Y-53217806D01*
X45770587Y-53208461D01*
X45801975Y-53203050D01*
X45808959Y-53202114D01*
X45815285Y-53189596D01*
X45829290Y-53156246D01*
X45848355Y-53108377D01*
X45855634Y-53089629D01*
X45884996Y-53017195D01*
X45919571Y-52937170D01*
X45950537Y-52869728D01*
X45973323Y-52818159D01*
X45988482Y-52775785D01*
X45993542Y-52749834D01*
X45992736Y-52746356D01*
X45982041Y-52729936D01*
X45957620Y-52693417D01*
X45922095Y-52640687D01*
X45878087Y-52575635D01*
X45828217Y-52502151D01*
X45818356Y-52487645D01*
X45760492Y-52401704D01*
X45717956Y-52336261D01*
X45689054Y-52288304D01*
X45672090Y-52254820D01*
X45665367Y-52232795D01*
X45667190Y-52219217D01*
X45667236Y-52219131D01*
X45681586Y-52201297D01*
X45713323Y-52166817D01*
X45759010Y-52119268D01*
X45815204Y-52062222D01*
X45878468Y-51999255D01*
X45885602Y-51992227D01*
X45965330Y-51915020D01*
X46026857Y-51858330D01*
X46071421Y-51821110D01*
X46100257Y-51802315D01*
X46112958Y-51799889D01*
X46131494Y-51810471D01*
X46169961Y-51834916D01*
X46224386Y-51870612D01*
X46290798Y-51914947D01*
X46365225Y-51965311D01*
X46382601Y-51977160D01*
X46629297Y-52145626D01*
X46740706Y-52095062D01*
X46808457Y-52065595D01*
X46881183Y-52035959D01*
X46943703Y-52012330D01*
X46946457Y-52011358D01*
X46995360Y-51993457D01*
X47033057Y-51978320D01*
X47051425Y-51969210D01*
X47051456Y-51969184D01*
X47057285Y-51952717D01*
X47067192Y-51912219D01*
X47080195Y-51852242D01*
X47095309Y-51777340D01*
X47111552Y-51692064D01*
X47112881Y-51684875D01*
X47129175Y-51597014D01*
X47144133Y-51517260D01*
X47156791Y-51450681D01*
X47166186Y-51402347D01*
X47171354Y-51377325D01*
X47171444Y-51376943D01*
X47174589Y-51366299D01*
X47180704Y-51358262D01*
X47193453Y-51352467D01*
X47216500Y-51348547D01*
X47253509Y-51346135D01*
X47308144Y-51344865D01*
X47384067Y-51344371D01*
X47484944Y-51344286D01*
X47498000Y-51344286D01*
X47601910Y-51344348D01*
G37*
X47601910Y-51344348D02*
X47680454Y-51344778D01*
X47737298Y-51345942D01*
X47776105Y-51348207D01*
X47800538Y-51351940D01*
X47814262Y-51357506D01*
X47820940Y-51365273D01*
X47824236Y-51375605D01*
X47824556Y-51376943D01*
X47829562Y-51401079D01*
X47838829Y-51448701D01*
X47851392Y-51514741D01*
X47866287Y-51594128D01*
X47882551Y-51681796D01*
X47883119Y-51684875D01*
X47899410Y-51770789D01*
X47914652Y-51846696D01*
X47927861Y-51908045D01*
X47938054Y-51950282D01*
X47944248Y-51968855D01*
X47944543Y-51969184D01*
X47962788Y-51978253D01*
X48000405Y-51993367D01*
X48049271Y-52011262D01*
X48049543Y-52011358D01*
X48111093Y-52034493D01*
X48183657Y-52063965D01*
X48252057Y-52093597D01*
X48255294Y-52095062D01*
X48366702Y-52145626D01*
X48613399Y-51977160D01*
X48689077Y-51925803D01*
X48757631Y-51879889D01*
X48815088Y-51842030D01*
X48857476Y-51814837D01*
X48880825Y-51800921D01*
X48883042Y-51799889D01*
X48900010Y-51804484D01*
X48931701Y-51826655D01*
X48979352Y-51867447D01*
X49044198Y-51927905D01*
X49110397Y-51992227D01*
X49174214Y-52055612D01*
X49231329Y-52113451D01*
X49278305Y-52162175D01*
X49311703Y-52198210D01*
X49328085Y-52217984D01*
X49328694Y-52219002D01*
X49330505Y-52232572D01*
X49323683Y-52254733D01*
X49306540Y-52288478D01*
X49277393Y-52336800D01*
X49234555Y-52402692D01*
X49177448Y-52487517D01*
X49126766Y-52562177D01*
X49081461Y-52629140D01*
X49044150Y-52684516D01*
X49017452Y-52724420D01*
X49003985Y-52744962D01*
X49003137Y-52746356D01*
X49004781Y-52766038D01*
X49017245Y-52804293D01*
X49038048Y-52853889D01*
X49045462Y-52869728D01*
X49077814Y-52940290D01*
X49112328Y-53020353D01*
X49140365Y-53089629D01*
X49160568Y-53141045D01*
X49176615Y-53180119D01*
X49185888Y-53200541D01*
X49187041Y-53202114D01*
X49204096Y-53204721D01*
X49244298Y-53211863D01*
X49302302Y-53222523D01*
X49372763Y-53235685D01*
X49450335Y-53250333D01*
X49529672Y-53265449D01*
X49605431Y-53280018D01*
X49672264Y-53293022D01*
X49724828Y-53303445D01*
X49757776Y-53310270D01*
X49765857Y-53312199D01*
X49774205Y-53316962D01*
X49780506Y-53327718D01*
X49785045Y-53348098D01*
X49788104Y-53381734D01*
X49789967Y-53432255D01*
X49790918Y-53503292D01*
X49791240Y-53598476D01*
X49791257Y-53637492D01*
X49791257Y-53954799D01*
X49715057Y-53969839D01*
X49672663Y-53977995D01*
X49609400Y-53989899D01*
X49532962Y-54004116D01*
X49451043Y-54019210D01*
X49428400Y-54023355D01*
X49352806Y-54038053D01*
X49286953Y-54052505D01*
X49236366Y-54065375D01*
X49206574Y-54075322D01*
X49201612Y-54078287D01*
X49189426Y-54099283D01*
X49171953Y-54139967D01*
X49152577Y-54192322D01*
X49148734Y-54203600D01*
X49123339Y-54273523D01*
X49091817Y-54352418D01*
X49060969Y-54423266D01*
X49060817Y-54423595D01*
X49009447Y-54534733D01*
X49178399Y-54783253D01*
X49347352Y-55031772D01*
X49130429Y-55249058D01*
X49064819Y-55313726D01*
X49004979Y-55370733D01*
X48954267Y-55417033D01*
X48916046Y-55449584D01*
X48893675Y-55465343D01*
X48890466Y-55466343D01*
X48871626Y-55458469D01*
X48833180Y-55436578D01*
X48779330Y-55403267D01*
X48714276Y-55361131D01*
X48643940Y-55313943D01*
X48572555Y-55265810D01*
X48508908Y-55223928D01*
X48457041Y-55190871D01*
X48420995Y-55169218D01*
X48404867Y-55161543D01*
X48385189Y-55168037D01*
X48347875Y-55185150D01*
X48300621Y-55209326D01*
X48295612Y-55212013D01*
X48231977Y-55243927D01*
X48188341Y-55259579D01*
X48161202Y-55259745D01*
X48147057Y-55245204D01*
X48146975Y-55245000D01*
X48139905Y-55227779D01*
X48123042Y-55186899D01*
X48097695Y-55125525D01*
X48065171Y-55046819D01*
X48026778Y-54953947D01*
X47983822Y-54850072D01*
X47942222Y-54749502D01*
X47896504Y-54638516D01*
X47854526Y-54535703D01*
X47817548Y-54444215D01*
X47786827Y-54367201D01*
X47763622Y-54307815D01*
X47749190Y-54269209D01*
X47744743Y-54254800D01*
X47755896Y-54238272D01*
X47785069Y-54211930D01*
X47823971Y-54182887D01*
X47934757Y-54091039D01*
X48021351Y-53985759D01*
X48082716Y-53869266D01*
X48117815Y-53743776D01*
X48125608Y-53611507D01*
X48119943Y-53550457D01*
X48089078Y-53423795D01*
X48035920Y-53311941D01*
X47963767Y-53216001D01*
X47875917Y-53137076D01*
X47775665Y-53076270D01*
X47666310Y-53034687D01*
X47551147Y-53013428D01*
X47433475Y-53013599D01*
X47316590Y-53036301D01*
X47203789Y-53082638D01*
X47098369Y-53153713D01*
X47054368Y-53193911D01*
X46969979Y-53297129D01*
X46911222Y-53409925D01*
X46877704Y-53529010D01*
X46869035Y-53651095D01*
X46884823Y-53772893D01*
X46924678Y-53891116D01*
X46988207Y-54002475D01*
X47075021Y-54103684D01*
X47172029Y-54182887D01*
X47212437Y-54213162D01*
X47240982Y-54239219D01*
X47251257Y-54254825D01*
X47245877Y-54271843D01*
X47230575Y-54312500D01*
X47206612Y-54373642D01*
X47175244Y-54452119D01*
X47137732Y-54544780D01*
X47095333Y-54648472D01*
X47053663Y-54749526D01*
X47007690Y-54860607D01*
X46965107Y-54963541D01*
X46927221Y-55055165D01*
X46895340Y-55132316D01*
X46870771Y-55191831D01*
X46854820Y-55230544D01*
X46848910Y-55245000D01*
X46834948Y-55259685D01*
X46807940Y-55259642D01*
X46764413Y-55244099D01*
X46700890Y-55212284D01*
X46700388Y-55212013D01*
X46652560Y-55187323D01*
X46613897Y-55169338D01*
X46592095Y-55161614D01*
X46591133Y-55161543D01*
X46574721Y-55169378D01*
X46538487Y-55191165D01*
X46486474Y-55224328D01*
X46422725Y-55266291D01*
X46352060Y-55313943D01*
X46280116Y-55362191D01*
X46215274Y-55404151D01*
X46161735Y-55437227D01*
X46123697Y-55458821D01*
X46105533Y-55466343D01*
X46088808Y-55456457D01*
X46055180Y-55428826D01*
X46008010Y-55386495D01*
X45950658Y-55332505D01*
X45886484Y-55269899D01*
X45865497Y-55248983D01*
X45648499Y-55031623D01*
X45813668Y-54789220D01*
X45863864Y-54714781D01*
X45907919Y-54647972D01*
X45943362Y-54592665D01*
X45967719Y-54552729D01*
X45978522Y-54532036D01*
X45978838Y-54530563D01*
X45973143Y-54511058D01*
X45957826Y-54471822D01*
X45935537Y-54419430D01*
X45919893Y-54384355D01*
X45890641Y-54317201D01*
X45863094Y-54249358D01*
X45841737Y-54192034D01*
X45835935Y-54174572D01*
X45819452Y-54127938D01*
X45803340Y-54091905D01*
X45794490Y-54078287D01*
X45774960Y-54069952D01*
X45732334Y-54058137D01*
X45672145Y-54044181D01*
X45599922Y-54029422D01*
X45567600Y-54023355D01*
X45485522Y-54008273D01*
X45406795Y-53993669D01*
X45339109Y-53980980D01*
X45290160Y-53971642D01*
X45280943Y-53969839D01*
X45204743Y-53954799D01*
X45204743Y-53637492D01*
X45204914Y-53533154D01*
X45205616Y-53454213D01*
X45207134Y-53397038D01*
X45209749Y-53357999D01*
X45213746Y-53333465D01*
X45219409Y-53319805D01*
X45227020Y-53313389D01*
X45230143Y-53312199D01*
X45248978Y-53307980D01*
X45290588Y-53299562D01*
X45349630Y-53287961D01*
X45420757Y-53274195D01*
X45498625Y-53259280D01*
X45577887Y-53244232D01*
X45653198Y-53230069D01*
X45719213Y-53217806D01*
X45770587Y-53208461D01*
X45801975Y-53203050D01*
X45808959Y-53202114D01*
X45815285Y-53189596D01*
X45829290Y-53156246D01*
X45848355Y-53108377D01*
X45855634Y-53089629D01*
X45884996Y-53017195D01*
X45919571Y-52937170D01*
X45950537Y-52869728D01*
X45973323Y-52818159D01*
X45988482Y-52775785D01*
X45993542Y-52749834D01*
X45992736Y-52746356D01*
X45982041Y-52729936D01*
X45957620Y-52693417D01*
X45922095Y-52640687D01*
X45878087Y-52575635D01*
X45828217Y-52502151D01*
X45818356Y-52487645D01*
X45760492Y-52401704D01*
X45717956Y-52336261D01*
X45689054Y-52288304D01*
X45672090Y-52254820D01*
X45665367Y-52232795D01*
X45667190Y-52219217D01*
X45667236Y-52219131D01*
X45681586Y-52201297D01*
X45713323Y-52166817D01*
X45759010Y-52119268D01*
X45815204Y-52062222D01*
X45878468Y-51999255D01*
X45885602Y-51992227D01*
X45965330Y-51915020D01*
X46026857Y-51858330D01*
X46071421Y-51821110D01*
X46100257Y-51802315D01*
X46112958Y-51799889D01*
X46131494Y-51810471D01*
X46169961Y-51834916D01*
X46224386Y-51870612D01*
X46290798Y-51914947D01*
X46365225Y-51965311D01*
X46382601Y-51977160D01*
X46629297Y-52145626D01*
X46740706Y-52095062D01*
X46808457Y-52065595D01*
X46881183Y-52035959D01*
X46943703Y-52012330D01*
X46946457Y-52011358D01*
X46995360Y-51993457D01*
X47033057Y-51978320D01*
X47051425Y-51969210D01*
X47051456Y-51969184D01*
X47057285Y-51952717D01*
X47067192Y-51912219D01*
X47080195Y-51852242D01*
X47095309Y-51777340D01*
X47111552Y-51692064D01*
X47112881Y-51684875D01*
X47129175Y-51597014D01*
X47144133Y-51517260D01*
X47156791Y-51450681D01*
X47166186Y-51402347D01*
X47171354Y-51377325D01*
X47171444Y-51376943D01*
X47174589Y-51366299D01*
X47180704Y-51358262D01*
X47193453Y-51352467D01*
X47216500Y-51348547D01*
X47253509Y-51346135D01*
X47308144Y-51344865D01*
X47384067Y-51344371D01*
X47484944Y-51344286D01*
X47498000Y-51344286D01*
X47601910Y-51344348D01*
G36*
X50651595Y-56068966D02*
G01*
X50709021Y-56106497D01*
X50736719Y-56140096D01*
X50758662Y-56201064D01*
X50760405Y-56249308D01*
X50756457Y-56313816D01*
X50607686Y-56378934D01*
X50535349Y-56412202D01*
X50488084Y-56438964D01*
X50463507Y-56462144D01*
X50459237Y-56484667D01*
X50472889Y-56509455D01*
X50487943Y-56525886D01*
X50531746Y-56552235D01*
X50579389Y-56554081D01*
X50623145Y-56533546D01*
X50655289Y-56492752D01*
X50661038Y-56478347D01*
X50688576Y-56433356D01*
X50720258Y-56414182D01*
X50763714Y-56397779D01*
X50763714Y-56459966D01*
X50759872Y-56502283D01*
X50744823Y-56537969D01*
X50713280Y-56578943D01*
X50708592Y-56584267D01*
X50673506Y-56620720D01*
X50643347Y-56640283D01*
X50605615Y-56649283D01*
X50574335Y-56652230D01*
X50518385Y-56652965D01*
X50478555Y-56643660D01*
X50453708Y-56629846D01*
X50414656Y-56599467D01*
X50387625Y-56566613D01*
X50370517Y-56525294D01*
X50361238Y-56469521D01*
X50357693Y-56393305D01*
X50357410Y-56354622D01*
X50358372Y-56308247D01*
X50446007Y-56308247D01*
X50447023Y-56333126D01*
X50449556Y-56337200D01*
X50466274Y-56331665D01*
X50502249Y-56317017D01*
X50550331Y-56296190D01*
X50560386Y-56291714D01*
X50621152Y-56260814D01*
X50654632Y-56233657D01*
X50661990Y-56208220D01*
X50644391Y-56182481D01*
X50629856Y-56171109D01*
X50577410Y-56148364D01*
X50528322Y-56152122D01*
X50487227Y-56179884D01*
X50458758Y-56229152D01*
X50449631Y-56268257D01*
X50446007Y-56308247D01*
X50358372Y-56308247D01*
X50359285Y-56264249D01*
X50366196Y-56197384D01*
X50379884Y-56148695D01*
X50402096Y-56112849D01*
X50434574Y-56084513D01*
X50448733Y-56075355D01*
X50513053Y-56051507D01*
X50583473Y-56050006D01*
X50651595Y-56068966D01*
G37*
X50651595Y-56068966D02*
X50709021Y-56106497D01*
X50736719Y-56140096D01*
X50758662Y-56201064D01*
X50760405Y-56249308D01*
X50756457Y-56313816D01*
X50607686Y-56378934D01*
X50535349Y-56412202D01*
X50488084Y-56438964D01*
X50463507Y-56462144D01*
X50459237Y-56484667D01*
X50472889Y-56509455D01*
X50487943Y-56525886D01*
X50531746Y-56552235D01*
X50579389Y-56554081D01*
X50623145Y-56533546D01*
X50655289Y-56492752D01*
X50661038Y-56478347D01*
X50688576Y-56433356D01*
X50720258Y-56414182D01*
X50763714Y-56397779D01*
X50763714Y-56459966D01*
X50759872Y-56502283D01*
X50744823Y-56537969D01*
X50713280Y-56578943D01*
X50708592Y-56584267D01*
X50673506Y-56620720D01*
X50643347Y-56640283D01*
X50605615Y-56649283D01*
X50574335Y-56652230D01*
X50518385Y-56652965D01*
X50478555Y-56643660D01*
X50453708Y-56629846D01*
X50414656Y-56599467D01*
X50387625Y-56566613D01*
X50370517Y-56525294D01*
X50361238Y-56469521D01*
X50357693Y-56393305D01*
X50357410Y-56354622D01*
X50358372Y-56308247D01*
X50446007Y-56308247D01*
X50447023Y-56333126D01*
X50449556Y-56337200D01*
X50466274Y-56331665D01*
X50502249Y-56317017D01*
X50550331Y-56296190D01*
X50560386Y-56291714D01*
X50621152Y-56260814D01*
X50654632Y-56233657D01*
X50661990Y-56208220D01*
X50644391Y-56182481D01*
X50629856Y-56171109D01*
X50577410Y-56148364D01*
X50528322Y-56152122D01*
X50487227Y-56179884D01*
X50458758Y-56229152D01*
X50449631Y-56268257D01*
X50446007Y-56308247D01*
X50358372Y-56308247D01*
X50359285Y-56264249D01*
X50366196Y-56197384D01*
X50379884Y-56148695D01*
X50402096Y-56112849D01*
X50434574Y-56084513D01*
X50448733Y-56075355D01*
X50513053Y-56051507D01*
X50583473Y-56050006D01*
X50651595Y-56068966D01*
G36*
X50150600Y-56060752D02*
G01*
X50167948Y-56068334D01*
X50209356Y-56101128D01*
X50244765Y-56148547D01*
X50266664Y-56199151D01*
X50270229Y-56224098D01*
X50258279Y-56258927D01*
X50232067Y-56277357D01*
X50203964Y-56288516D01*
X50191095Y-56290572D01*
X50184829Y-56275649D01*
X50172456Y-56243175D01*
X50167028Y-56228502D01*
X50136590Y-56177744D01*
X50092520Y-56152427D01*
X50036010Y-56153206D01*
X50031825Y-56154203D01*
X50001655Y-56168507D01*
X49979476Y-56196393D01*
X49964327Y-56241287D01*
X49955250Y-56306615D01*
X49951286Y-56395804D01*
X49950914Y-56443261D01*
X49950730Y-56518071D01*
X49949522Y-56569069D01*
X49946309Y-56601471D01*
X49940109Y-56620495D01*
X49929940Y-56631356D01*
X49914819Y-56639272D01*
X49913946Y-56639670D01*
X49884828Y-56651981D01*
X49870403Y-56656514D01*
X49868186Y-56642809D01*
X49866289Y-56604925D01*
X49864847Y-56547715D01*
X49863998Y-56476027D01*
X49863829Y-56423565D01*
X49864692Y-56322047D01*
X49868070Y-56245032D01*
X49875142Y-56188023D01*
X49887088Y-56146526D01*
X49905090Y-56116043D01*
X49930327Y-56092080D01*
X49955247Y-56075355D01*
X50015171Y-56053097D01*
X50084911Y-56048076D01*
X50150600Y-56060752D01*
G37*
X50150600Y-56060752D02*
X50167948Y-56068334D01*
X50209356Y-56101128D01*
X50244765Y-56148547D01*
X50266664Y-56199151D01*
X50270229Y-56224098D01*
X50258279Y-56258927D01*
X50232067Y-56277357D01*
X50203964Y-56288516D01*
X50191095Y-56290572D01*
X50184829Y-56275649D01*
X50172456Y-56243175D01*
X50167028Y-56228502D01*
X50136590Y-56177744D01*
X50092520Y-56152427D01*
X50036010Y-56153206D01*
X50031825Y-56154203D01*
X50001655Y-56168507D01*
X49979476Y-56196393D01*
X49964327Y-56241287D01*
X49955250Y-56306615D01*
X49951286Y-56395804D01*
X49950914Y-56443261D01*
X49950730Y-56518071D01*
X49949522Y-56569069D01*
X49946309Y-56601471D01*
X49940109Y-56620495D01*
X49929940Y-56631356D01*
X49914819Y-56639272D01*
X49913946Y-56639670D01*
X49884828Y-56651981D01*
X49870403Y-56656514D01*
X49868186Y-56642809D01*
X49866289Y-56604925D01*
X49864847Y-56547715D01*
X49863998Y-56476027D01*
X49863829Y-56423565D01*
X49864692Y-56322047D01*
X49868070Y-56245032D01*
X49875142Y-56188023D01*
X49887088Y-56146526D01*
X49905090Y-56116043D01*
X49930327Y-56092080D01*
X49955247Y-56075355D01*
X50015171Y-56053097D01*
X50084911Y-56048076D01*
X50150600Y-56060752D01*
G36*
X49642876Y-56058335D02*
G01*
X49684667Y-56077344D01*
X49717469Y-56100378D01*
X49741503Y-56126133D01*
X49758097Y-56159358D01*
X49768577Y-56204800D01*
X49774271Y-56267207D01*
X49776507Y-56351327D01*
X49776743Y-56406721D01*
X49776743Y-56622826D01*
X49739774Y-56639670D01*
X49710656Y-56651981D01*
X49696231Y-56656514D01*
X49693472Y-56643025D01*
X49691282Y-56606653D01*
X49689942Y-56553542D01*
X49689657Y-56511372D01*
X49688434Y-56450447D01*
X49685136Y-56402115D01*
X49680321Y-56372518D01*
X49676496Y-56366229D01*
X49650783Y-56372652D01*
X49610418Y-56389125D01*
X49563679Y-56411458D01*
X49518845Y-56435457D01*
X49484193Y-56456930D01*
X49468002Y-56471685D01*
X49467938Y-56471845D01*
X49469330Y-56499152D01*
X49481818Y-56525219D01*
X49503743Y-56546392D01*
X49535743Y-56553474D01*
X49563092Y-56552649D01*
X49601826Y-56552042D01*
X49622158Y-56561116D01*
X49634369Y-56585092D01*
X49635909Y-56589613D01*
X49641203Y-56623806D01*
X49627047Y-56644568D01*
X49590148Y-56654462D01*
X49550289Y-56656292D01*
X49478562Y-56642727D01*
X49441432Y-56623355D01*
X49395576Y-56577845D01*
X49371256Y-56521983D01*
X49369073Y-56462957D01*
X49389629Y-56407953D01*
X49420549Y-56373486D01*
X49451420Y-56354189D01*
X49499942Y-56329759D01*
X49556485Y-56304985D01*
X49565910Y-56301199D01*
X49628019Y-56273791D01*
X49663822Y-56249634D01*
X49675337Y-56225619D01*
X49664580Y-56198635D01*
X49646114Y-56177543D01*
X49602469Y-56151572D01*
X49554446Y-56149624D01*
X49510406Y-56169637D01*
X49478709Y-56209551D01*
X49474549Y-56219848D01*
X49450327Y-56257724D01*
X49414965Y-56285842D01*
X49370343Y-56308917D01*
X49370343Y-56243485D01*
X49372969Y-56203506D01*
X49384230Y-56171997D01*
X49409199Y-56138378D01*
X49433169Y-56112484D01*
X49470441Y-56075817D01*
X49499401Y-56056121D01*
X49530505Y-56048220D01*
X49565713Y-56046914D01*
X49642876Y-56058335D01*
G37*
X49642876Y-56058335D02*
X49684667Y-56077344D01*
X49717469Y-56100378D01*
X49741503Y-56126133D01*
X49758097Y-56159358D01*
X49768577Y-56204800D01*
X49774271Y-56267207D01*
X49776507Y-56351327D01*
X49776743Y-56406721D01*
X49776743Y-56622826D01*
X49739774Y-56639670D01*
X49710656Y-56651981D01*
X49696231Y-56656514D01*
X49693472Y-56643025D01*
X49691282Y-56606653D01*
X49689942Y-56553542D01*
X49689657Y-56511372D01*
X49688434Y-56450447D01*
X49685136Y-56402115D01*
X49680321Y-56372518D01*
X49676496Y-56366229D01*
X49650783Y-56372652D01*
X49610418Y-56389125D01*
X49563679Y-56411458D01*
X49518845Y-56435457D01*
X49484193Y-56456930D01*
X49468002Y-56471685D01*
X49467938Y-56471845D01*
X49469330Y-56499152D01*
X49481818Y-56525219D01*
X49503743Y-56546392D01*
X49535743Y-56553474D01*
X49563092Y-56552649D01*
X49601826Y-56552042D01*
X49622158Y-56561116D01*
X49634369Y-56585092D01*
X49635909Y-56589613D01*
X49641203Y-56623806D01*
X49627047Y-56644568D01*
X49590148Y-56654462D01*
X49550289Y-56656292D01*
X49478562Y-56642727D01*
X49441432Y-56623355D01*
X49395576Y-56577845D01*
X49371256Y-56521983D01*
X49369073Y-56462957D01*
X49389629Y-56407953D01*
X49420549Y-56373486D01*
X49451420Y-56354189D01*
X49499942Y-56329759D01*
X49556485Y-56304985D01*
X49565910Y-56301199D01*
X49628019Y-56273791D01*
X49663822Y-56249634D01*
X49675337Y-56225619D01*
X49664580Y-56198635D01*
X49646114Y-56177543D01*
X49602469Y-56151572D01*
X49554446Y-56149624D01*
X49510406Y-56169637D01*
X49478709Y-56209551D01*
X49474549Y-56219848D01*
X49450327Y-56257724D01*
X49414965Y-56285842D01*
X49370343Y-56308917D01*
X49370343Y-56243485D01*
X49372969Y-56203506D01*
X49384230Y-56171997D01*
X49409199Y-56138378D01*
X49433169Y-56112484D01*
X49470441Y-56075817D01*
X49499401Y-56056121D01*
X49530505Y-56048220D01*
X49565713Y-56046914D01*
X49642876Y-56058335D01*
G36*
X49277833Y-56060663D02*
G01*
X49280048Y-56098850D01*
X49281784Y-56156886D01*
X49282899Y-56230180D01*
X49283257Y-56307055D01*
X49283257Y-56567196D01*
X49237326Y-56613127D01*
X49205675Y-56641429D01*
X49177890Y-56652893D01*
X49139915Y-56652168D01*
X49124840Y-56650321D01*
X49077726Y-56644948D01*
X49038756Y-56641869D01*
X49029257Y-56641585D01*
X48997233Y-56643445D01*
X48951432Y-56648114D01*
X48933674Y-56650321D01*
X48890057Y-56653735D01*
X48860745Y-56646320D01*
X48831680Y-56623427D01*
X48821188Y-56613127D01*
X48775257Y-56567196D01*
X48775257Y-56080602D01*
X48812226Y-56063758D01*
X48844059Y-56051282D01*
X48862683Y-56046914D01*
X48867458Y-56060718D01*
X48871921Y-56099286D01*
X48875775Y-56158356D01*
X48878722Y-56233663D01*
X48880143Y-56297286D01*
X48884114Y-56547657D01*
X48918759Y-56552556D01*
X48950268Y-56549131D01*
X48965708Y-56538041D01*
X48970023Y-56517308D01*
X48973708Y-56473145D01*
X48976469Y-56411146D01*
X48978012Y-56336909D01*
X48978235Y-56298706D01*
X48978457Y-56078783D01*
X49024166Y-56062849D01*
X49056518Y-56052015D01*
X49074115Y-56046962D01*
X49074623Y-56046914D01*
X49076388Y-56060648D01*
X49078329Y-56098730D01*
X49080282Y-56156482D01*
X49082084Y-56229227D01*
X49083343Y-56297286D01*
X49087314Y-56547657D01*
X49174400Y-56547657D01*
X49178396Y-56319240D01*
X49182392Y-56090822D01*
X49224847Y-56068868D01*
X49256192Y-56053793D01*
X49274744Y-56046951D01*
X49275279Y-56046914D01*
X49277833Y-56060663D01*
G37*
X49277833Y-56060663D02*
X49280048Y-56098850D01*
X49281784Y-56156886D01*
X49282899Y-56230180D01*
X49283257Y-56307055D01*
X49283257Y-56567196D01*
X49237326Y-56613127D01*
X49205675Y-56641429D01*
X49177890Y-56652893D01*
X49139915Y-56652168D01*
X49124840Y-56650321D01*
X49077726Y-56644948D01*
X49038756Y-56641869D01*
X49029257Y-56641585D01*
X48997233Y-56643445D01*
X48951432Y-56648114D01*
X48933674Y-56650321D01*
X48890057Y-56653735D01*
X48860745Y-56646320D01*
X48831680Y-56623427D01*
X48821188Y-56613127D01*
X48775257Y-56567196D01*
X48775257Y-56080602D01*
X48812226Y-56063758D01*
X48844059Y-56051282D01*
X48862683Y-56046914D01*
X48867458Y-56060718D01*
X48871921Y-56099286D01*
X48875775Y-56158356D01*
X48878722Y-56233663D01*
X48880143Y-56297286D01*
X48884114Y-56547657D01*
X48918759Y-56552556D01*
X48950268Y-56549131D01*
X48965708Y-56538041D01*
X48970023Y-56517308D01*
X48973708Y-56473145D01*
X48976469Y-56411146D01*
X48978012Y-56336909D01*
X48978235Y-56298706D01*
X48978457Y-56078783D01*
X49024166Y-56062849D01*
X49056518Y-56052015D01*
X49074115Y-56046962D01*
X49074623Y-56046914D01*
X49076388Y-56060648D01*
X49078329Y-56098730D01*
X49080282Y-56156482D01*
X49082084Y-56229227D01*
X49083343Y-56297286D01*
X49087314Y-56547657D01*
X49174400Y-56547657D01*
X49178396Y-56319240D01*
X49182392Y-56090822D01*
X49224847Y-56068868D01*
X49256192Y-56053793D01*
X49274744Y-56046951D01*
X49275279Y-56046914D01*
X49277833Y-56060663D01*
G36*
X48688117Y-56167358D02*
G01*
X48687933Y-56275837D01*
X48687219Y-56359287D01*
X48685675Y-56421704D01*
X48683001Y-56467085D01*
X48678894Y-56499429D01*
X48673055Y-56522733D01*
X48665182Y-56540995D01*
X48659221Y-56551418D01*
X48609855Y-56607945D01*
X48547264Y-56643377D01*
X48478013Y-56656090D01*
X48408668Y-56644463D01*
X48367375Y-56623568D01*
X48324025Y-56587422D01*
X48294481Y-56543276D01*
X48276655Y-56485462D01*
X48268463Y-56408313D01*
X48267302Y-56351714D01*
X48267458Y-56347647D01*
X48368857Y-56347647D01*
X48369476Y-56412550D01*
X48372314Y-56455514D01*
X48378840Y-56483622D01*
X48390523Y-56503953D01*
X48404483Y-56519288D01*
X48451365Y-56548890D01*
X48501701Y-56551419D01*
X48549276Y-56526705D01*
X48552979Y-56523356D01*
X48568783Y-56505935D01*
X48578693Y-56485209D01*
X48584058Y-56454362D01*
X48586228Y-56406577D01*
X48586571Y-56353748D01*
X48585827Y-56287381D01*
X48582748Y-56243106D01*
X48576061Y-56214009D01*
X48564496Y-56193173D01*
X48555013Y-56182107D01*
X48510960Y-56154198D01*
X48460224Y-56150843D01*
X48411796Y-56172159D01*
X48402450Y-56180073D01*
X48386540Y-56197647D01*
X48376610Y-56218587D01*
X48371278Y-56249782D01*
X48369163Y-56298122D01*
X48368857Y-56347647D01*
X48267458Y-56347647D01*
X48270810Y-56260568D01*
X48282726Y-56192086D01*
X48305135Y-56140600D01*
X48340124Y-56100443D01*
X48367375Y-56079861D01*
X48416907Y-56057625D01*
X48474316Y-56047304D01*
X48527682Y-56050067D01*
X48557543Y-56061212D01*
X48569261Y-56064383D01*
X48577037Y-56052557D01*
X48582465Y-56020866D01*
X48586571Y-55972593D01*
X48591067Y-55918829D01*
X48597313Y-55886482D01*
X48608676Y-55867985D01*
X48628528Y-55855770D01*
X48641000Y-55850362D01*
X48688171Y-55830601D01*
X48688117Y-56167358D01*
G37*
X48688117Y-56167358D02*
X48687933Y-56275837D01*
X48687219Y-56359287D01*
X48685675Y-56421704D01*
X48683001Y-56467085D01*
X48678894Y-56499429D01*
X48673055Y-56522733D01*
X48665182Y-56540995D01*
X48659221Y-56551418D01*
X48609855Y-56607945D01*
X48547264Y-56643377D01*
X48478013Y-56656090D01*
X48408668Y-56644463D01*
X48367375Y-56623568D01*
X48324025Y-56587422D01*
X48294481Y-56543276D01*
X48276655Y-56485462D01*
X48268463Y-56408313D01*
X48267302Y-56351714D01*
X48267458Y-56347647D01*
X48368857Y-56347647D01*
X48369476Y-56412550D01*
X48372314Y-56455514D01*
X48378840Y-56483622D01*
X48390523Y-56503953D01*
X48404483Y-56519288D01*
X48451365Y-56548890D01*
X48501701Y-56551419D01*
X48549276Y-56526705D01*
X48552979Y-56523356D01*
X48568783Y-56505935D01*
X48578693Y-56485209D01*
X48584058Y-56454362D01*
X48586228Y-56406577D01*
X48586571Y-56353748D01*
X48585827Y-56287381D01*
X48582748Y-56243106D01*
X48576061Y-56214009D01*
X48564496Y-56193173D01*
X48555013Y-56182107D01*
X48510960Y-56154198D01*
X48460224Y-56150843D01*
X48411796Y-56172159D01*
X48402450Y-56180073D01*
X48386540Y-56197647D01*
X48376610Y-56218587D01*
X48371278Y-56249782D01*
X48369163Y-56298122D01*
X48368857Y-56347647D01*
X48267458Y-56347647D01*
X48270810Y-56260568D01*
X48282726Y-56192086D01*
X48305135Y-56140600D01*
X48340124Y-56100443D01*
X48367375Y-56079861D01*
X48416907Y-56057625D01*
X48474316Y-56047304D01*
X48527682Y-56050067D01*
X48557543Y-56061212D01*
X48569261Y-56064383D01*
X48577037Y-56052557D01*
X48582465Y-56020866D01*
X48586571Y-55972593D01*
X48591067Y-55918829D01*
X48597313Y-55886482D01*
X48608676Y-55867985D01*
X48628528Y-55855770D01*
X48641000Y-55850362D01*
X48688171Y-55830601D01*
X48688117Y-56167358D01*
G36*
X48027926Y-56051755D02*
G01*
X48093858Y-56076084D01*
X48147273Y-56119117D01*
X48168164Y-56149409D01*
X48190939Y-56204994D01*
X48190466Y-56245186D01*
X48166562Y-56272217D01*
X48157717Y-56276813D01*
X48119530Y-56291144D01*
X48100028Y-56287472D01*
X48093422Y-56263407D01*
X48093086Y-56250114D01*
X48080992Y-56201210D01*
X48049471Y-56166999D01*
X48005659Y-56150476D01*
X47956695Y-56154634D01*
X47916894Y-56176227D01*
X47903450Y-56188544D01*
X47893921Y-56203487D01*
X47887485Y-56226075D01*
X47883317Y-56261328D01*
X47880597Y-56314266D01*
X47878502Y-56389907D01*
X47877960Y-56413857D01*
X47875981Y-56495790D01*
X47873731Y-56553455D01*
X47870357Y-56591608D01*
X47865006Y-56615004D01*
X47856824Y-56628398D01*
X47844959Y-56636545D01*
X47837362Y-56640144D01*
X47805102Y-56652452D01*
X47786111Y-56656514D01*
X47779836Y-56642948D01*
X47776006Y-56601934D01*
X47774600Y-56532999D01*
X47775598Y-56435669D01*
X47775908Y-56420657D01*
X47778101Y-56331859D01*
X47780693Y-56267019D01*
X47784382Y-56221067D01*
X47789864Y-56188935D01*
X47797835Y-56165553D01*
X47808993Y-56145852D01*
X47814830Y-56137410D01*
X47848296Y-56100057D01*
X47885727Y-56071003D01*
X47890309Y-56068467D01*
X47957426Y-56048443D01*
X48027926Y-56051755D01*
G37*
X48027926Y-56051755D02*
X48093858Y-56076084D01*
X48147273Y-56119117D01*
X48168164Y-56149409D01*
X48190939Y-56204994D01*
X48190466Y-56245186D01*
X48166562Y-56272217D01*
X48157717Y-56276813D01*
X48119530Y-56291144D01*
X48100028Y-56287472D01*
X48093422Y-56263407D01*
X48093086Y-56250114D01*
X48080992Y-56201210D01*
X48049471Y-56166999D01*
X48005659Y-56150476D01*
X47956695Y-56154634D01*
X47916894Y-56176227D01*
X47903450Y-56188544D01*
X47893921Y-56203487D01*
X47887485Y-56226075D01*
X47883317Y-56261328D01*
X47880597Y-56314266D01*
X47878502Y-56389907D01*
X47877960Y-56413857D01*
X47875981Y-56495790D01*
X47873731Y-56553455D01*
X47870357Y-56591608D01*
X47865006Y-56615004D01*
X47856824Y-56628398D01*
X47844959Y-56636545D01*
X47837362Y-56640144D01*
X47805102Y-56652452D01*
X47786111Y-56656514D01*
X47779836Y-56642948D01*
X47776006Y-56601934D01*
X47774600Y-56532999D01*
X47775598Y-56435669D01*
X47775908Y-56420657D01*
X47778101Y-56331859D01*
X47780693Y-56267019D01*
X47784382Y-56221067D01*
X47789864Y-56188935D01*
X47797835Y-56165553D01*
X47808993Y-56145852D01*
X47814830Y-56137410D01*
X47848296Y-56100057D01*
X47885727Y-56071003D01*
X47890309Y-56068467D01*
X47957426Y-56048443D01*
X48027926Y-56051755D01*
G36*
X47537744Y-56052968D02*
G01*
X47594616Y-56074087D01*
X47595267Y-56074493D01*
X47630440Y-56100380D01*
X47656407Y-56130633D01*
X47674670Y-56170058D01*
X47686732Y-56223462D01*
X47694096Y-56295651D01*
X47698264Y-56391432D01*
X47698629Y-56405078D01*
X47703876Y-56610842D01*
X47659716Y-56633678D01*
X47627763Y-56649110D01*
X47608470Y-56656423D01*
X47607578Y-56656514D01*
X47604239Y-56643022D01*
X47601587Y-56606626D01*
X47599956Y-56553452D01*
X47599600Y-56510393D01*
X47599592Y-56440641D01*
X47596403Y-56396837D01*
X47585288Y-56375944D01*
X47561501Y-56374925D01*
X47520296Y-56390741D01*
X47458086Y-56419815D01*
X47412341Y-56443963D01*
X47388813Y-56464913D01*
X47381896Y-56487747D01*
X47381886Y-56488877D01*
X47393299Y-56528212D01*
X47427092Y-56549462D01*
X47478809Y-56552539D01*
X47516061Y-56552006D01*
X47535703Y-56562735D01*
X47547952Y-56588505D01*
X47555002Y-56621337D01*
X47544842Y-56639966D01*
X47541017Y-56642632D01*
X47505001Y-56653340D01*
X47454566Y-56654856D01*
X47402626Y-56647759D01*
X47365822Y-56634788D01*
X47314938Y-56591585D01*
X47286014Y-56531446D01*
X47280286Y-56484462D01*
X47284657Y-56442082D01*
X47300475Y-56407488D01*
X47331797Y-56376763D01*
X47382678Y-56345990D01*
X47457176Y-56311252D01*
X47461714Y-56309288D01*
X47528821Y-56278287D01*
X47570232Y-56252862D01*
X47587981Y-56230014D01*
X47584107Y-56206745D01*
X47560643Y-56180056D01*
X47553627Y-56173914D01*
X47506630Y-56150100D01*
X47457933Y-56151103D01*
X47415522Y-56174451D01*
X47387384Y-56217675D01*
X47384769Y-56226160D01*
X47359308Y-56267308D01*
X47327001Y-56287128D01*
X47280286Y-56306770D01*
X47280286Y-56255950D01*
X47294496Y-56182082D01*
X47336675Y-56114327D01*
X47358624Y-56091661D01*
X47408517Y-56062569D01*
X47471967Y-56049400D01*
X47537744Y-56052968D01*
G37*
X47537744Y-56052968D02*
X47594616Y-56074087D01*
X47595267Y-56074493D01*
X47630440Y-56100380D01*
X47656407Y-56130633D01*
X47674670Y-56170058D01*
X47686732Y-56223462D01*
X47694096Y-56295651D01*
X47698264Y-56391432D01*
X47698629Y-56405078D01*
X47703876Y-56610842D01*
X47659716Y-56633678D01*
X47627763Y-56649110D01*
X47608470Y-56656423D01*
X47607578Y-56656514D01*
X47604239Y-56643022D01*
X47601587Y-56606626D01*
X47599956Y-56553452D01*
X47599600Y-56510393D01*
X47599592Y-56440641D01*
X47596403Y-56396837D01*
X47585288Y-56375944D01*
X47561501Y-56374925D01*
X47520296Y-56390741D01*
X47458086Y-56419815D01*
X47412341Y-56443963D01*
X47388813Y-56464913D01*
X47381896Y-56487747D01*
X47381886Y-56488877D01*
X47393299Y-56528212D01*
X47427092Y-56549462D01*
X47478809Y-56552539D01*
X47516061Y-56552006D01*
X47535703Y-56562735D01*
X47547952Y-56588505D01*
X47555002Y-56621337D01*
X47544842Y-56639966D01*
X47541017Y-56642632D01*
X47505001Y-56653340D01*
X47454566Y-56654856D01*
X47402626Y-56647759D01*
X47365822Y-56634788D01*
X47314938Y-56591585D01*
X47286014Y-56531446D01*
X47280286Y-56484462D01*
X47284657Y-56442082D01*
X47300475Y-56407488D01*
X47331797Y-56376763D01*
X47382678Y-56345990D01*
X47457176Y-56311252D01*
X47461714Y-56309288D01*
X47528821Y-56278287D01*
X47570232Y-56252862D01*
X47587981Y-56230014D01*
X47584107Y-56206745D01*
X47560643Y-56180056D01*
X47553627Y-56173914D01*
X47506630Y-56150100D01*
X47457933Y-56151103D01*
X47415522Y-56174451D01*
X47387384Y-56217675D01*
X47384769Y-56226160D01*
X47359308Y-56267308D01*
X47327001Y-56287128D01*
X47280286Y-56306770D01*
X47280286Y-56255950D01*
X47294496Y-56182082D01*
X47336675Y-56114327D01*
X47358624Y-56091661D01*
X47408517Y-56062569D01*
X47471967Y-56049400D01*
X47537744Y-56052968D01*
G36*
X46873886Y-55953289D02*
G01*
X46878139Y-56012613D01*
X46883025Y-56047572D01*
X46889795Y-56062820D01*
X46899702Y-56063015D01*
X46902914Y-56061195D01*
X46945644Y-56048015D01*
X47001227Y-56048785D01*
X47057737Y-56062333D01*
X47093082Y-56079861D01*
X47129321Y-56107861D01*
X47155813Y-56139549D01*
X47173999Y-56179813D01*
X47185322Y-56233543D01*
X47191222Y-56305626D01*
X47193143Y-56400951D01*
X47193177Y-56419237D01*
X47193200Y-56624646D01*
X47147491Y-56640580D01*
X47115027Y-56651420D01*
X47097215Y-56656468D01*
X47096691Y-56656514D01*
X47094937Y-56642828D01*
X47093444Y-56605076D01*
X47092326Y-56548224D01*
X47091697Y-56477234D01*
X47091600Y-56434073D01*
X47091398Y-56348973D01*
X47090358Y-56287981D01*
X47087831Y-56246177D01*
X47083164Y-56218642D01*
X47075707Y-56200456D01*
X47064811Y-56186698D01*
X47058007Y-56180073D01*
X47011272Y-56153375D01*
X46960272Y-56151375D01*
X46914001Y-56173955D01*
X46905444Y-56182107D01*
X46892893Y-56197436D01*
X46884188Y-56215618D01*
X46878631Y-56241909D01*
X46875526Y-56281562D01*
X46874176Y-56339832D01*
X46873886Y-56420173D01*
X46873886Y-56624646D01*
X46828177Y-56640580D01*
X46795713Y-56651420D01*
X46777901Y-56656468D01*
X46777377Y-56656514D01*
X46776037Y-56642623D01*
X46774828Y-56603439D01*
X46773801Y-56542700D01*
X46773002Y-56464141D01*
X46772481Y-56371498D01*
X46772286Y-56268509D01*
X46772286Y-55871342D01*
X46819457Y-55851444D01*
X46866629Y-55831547D01*
X46873886Y-55953289D01*
G37*
X46873886Y-55953289D02*
X46878139Y-56012613D01*
X46883025Y-56047572D01*
X46889795Y-56062820D01*
X46899702Y-56063015D01*
X46902914Y-56061195D01*
X46945644Y-56048015D01*
X47001227Y-56048785D01*
X47057737Y-56062333D01*
X47093082Y-56079861D01*
X47129321Y-56107861D01*
X47155813Y-56139549D01*
X47173999Y-56179813D01*
X47185322Y-56233543D01*
X47191222Y-56305626D01*
X47193143Y-56400951D01*
X47193177Y-56419237D01*
X47193200Y-56624646D01*
X47147491Y-56640580D01*
X47115027Y-56651420D01*
X47097215Y-56656468D01*
X47096691Y-56656514D01*
X47094937Y-56642828D01*
X47093444Y-56605076D01*
X47092326Y-56548224D01*
X47091697Y-56477234D01*
X47091600Y-56434073D01*
X47091398Y-56348973D01*
X47090358Y-56287981D01*
X47087831Y-56246177D01*
X47083164Y-56218642D01*
X47075707Y-56200456D01*
X47064811Y-56186698D01*
X47058007Y-56180073D01*
X47011272Y-56153375D01*
X46960272Y-56151375D01*
X46914001Y-56173955D01*
X46905444Y-56182107D01*
X46892893Y-56197436D01*
X46884188Y-56215618D01*
X46878631Y-56241909D01*
X46875526Y-56281562D01*
X46874176Y-56339832D01*
X46873886Y-56420173D01*
X46873886Y-56624646D01*
X46828177Y-56640580D01*
X46795713Y-56651420D01*
X46777901Y-56656468D01*
X46777377Y-56656514D01*
X46776037Y-56642623D01*
X46774828Y-56603439D01*
X46773801Y-56542700D01*
X46773002Y-56464141D01*
X46772481Y-56371498D01*
X46772286Y-56268509D01*
X46772286Y-55871342D01*
X46819457Y-55851444D01*
X46866629Y-55831547D01*
X46873886Y-55953289D01*
G36*
X45666303Y-56033239D02*
G01*
X45723527Y-56071735D01*
X45767749Y-56127335D01*
X45794167Y-56198086D01*
X45799510Y-56250162D01*
X45798903Y-56271893D01*
X45793822Y-56288531D01*
X45779855Y-56303437D01*
X45752589Y-56319973D01*
X45707612Y-56341498D01*
X45640511Y-56371374D01*
X45640171Y-56371524D01*
X45578407Y-56399813D01*
X45527759Y-56424933D01*
X45493404Y-56444179D01*
X45480518Y-56454848D01*
X45480514Y-56454934D01*
X45491872Y-56478166D01*
X45518431Y-56503774D01*
X45548923Y-56522221D01*
X45564370Y-56525886D01*
X45606515Y-56513212D01*
X45642808Y-56481471D01*
X45660517Y-56446572D01*
X45677552Y-56420845D01*
X45710922Y-56391546D01*
X45750149Y-56366235D01*
X45784756Y-56352471D01*
X45791993Y-56351714D01*
X45800139Y-56364160D01*
X45800630Y-56395972D01*
X45794643Y-56438866D01*
X45783357Y-56484558D01*
X45767950Y-56524761D01*
X45767171Y-56526322D01*
X45720804Y-56591062D01*
X45660711Y-56635097D01*
X45592465Y-56656711D01*
X45521638Y-56654185D01*
X45453804Y-56625804D01*
X45450788Y-56623808D01*
X45397427Y-56575448D01*
X45362340Y-56512352D01*
X45342922Y-56429387D01*
X45340316Y-56406078D01*
X45335701Y-56296055D01*
X45341233Y-56244748D01*
X45480514Y-56244748D01*
X45482324Y-56276753D01*
X45492222Y-56286093D01*
X45516898Y-56279105D01*
X45555795Y-56262587D01*
X45599275Y-56241881D01*
X45600356Y-56241333D01*
X45637209Y-56221949D01*
X45652000Y-56209013D01*
X45648353Y-56195451D01*
X45632995Y-56177632D01*
X45593923Y-56151845D01*
X45551846Y-56149950D01*
X45514103Y-56168717D01*
X45488034Y-56204915D01*
X45480514Y-56244748D01*
X45341233Y-56244748D01*
X45345194Y-56208027D01*
X45369550Y-56138212D01*
X45403456Y-56089302D01*
X45464653Y-56039878D01*
X45532063Y-56015359D01*
X45600880Y-56013797D01*
X45666303Y-56033239D01*
G37*
X45666303Y-56033239D02*
X45723527Y-56071735D01*
X45767749Y-56127335D01*
X45794167Y-56198086D01*
X45799510Y-56250162D01*
X45798903Y-56271893D01*
X45793822Y-56288531D01*
X45779855Y-56303437D01*
X45752589Y-56319973D01*
X45707612Y-56341498D01*
X45640511Y-56371374D01*
X45640171Y-56371524D01*
X45578407Y-56399813D01*
X45527759Y-56424933D01*
X45493404Y-56444179D01*
X45480518Y-56454848D01*
X45480514Y-56454934D01*
X45491872Y-56478166D01*
X45518431Y-56503774D01*
X45548923Y-56522221D01*
X45564370Y-56525886D01*
X45606515Y-56513212D01*
X45642808Y-56481471D01*
X45660517Y-56446572D01*
X45677552Y-56420845D01*
X45710922Y-56391546D01*
X45750149Y-56366235D01*
X45784756Y-56352471D01*
X45791993Y-56351714D01*
X45800139Y-56364160D01*
X45800630Y-56395972D01*
X45794643Y-56438866D01*
X45783357Y-56484558D01*
X45767950Y-56524761D01*
X45767171Y-56526322D01*
X45720804Y-56591062D01*
X45660711Y-56635097D01*
X45592465Y-56656711D01*
X45521638Y-56654185D01*
X45453804Y-56625804D01*
X45450788Y-56623808D01*
X45397427Y-56575448D01*
X45362340Y-56512352D01*
X45342922Y-56429387D01*
X45340316Y-56406078D01*
X45335701Y-56296055D01*
X45341233Y-56244748D01*
X45480514Y-56244748D01*
X45482324Y-56276753D01*
X45492222Y-56286093D01*
X45516898Y-56279105D01*
X45555795Y-56262587D01*
X45599275Y-56241881D01*
X45600356Y-56241333D01*
X45637209Y-56221949D01*
X45652000Y-56209013D01*
X45648353Y-56195451D01*
X45632995Y-56177632D01*
X45593923Y-56151845D01*
X45551846Y-56149950D01*
X45514103Y-56168717D01*
X45488034Y-56204915D01*
X45480514Y-56244748D01*
X45341233Y-56244748D01*
X45345194Y-56208027D01*
X45369550Y-56138212D01*
X45403456Y-56089302D01*
X45464653Y-56039878D01*
X45532063Y-56015359D01*
X45600880Y-56013797D01*
X45666303Y-56033239D01*
G36*
X44539115Y-56023962D02*
G01*
X44607145Y-56059733D01*
X44657351Y-56117301D01*
X44675185Y-56154312D01*
X44689063Y-56209882D01*
X44696167Y-56280096D01*
X44696840Y-56356727D01*
X44691427Y-56431552D01*
X44680270Y-56496342D01*
X44663714Y-56542873D01*
X44658626Y-56550887D01*
X44598355Y-56610707D01*
X44526769Y-56646535D01*
X44449092Y-56657020D01*
X44370548Y-56640810D01*
X44348689Y-56631092D01*
X44306122Y-56601143D01*
X44268763Y-56561433D01*
X44265232Y-56556397D01*
X44250881Y-56532124D01*
X44241394Y-56506178D01*
X44235790Y-56472022D01*
X44233086Y-56423119D01*
X44232299Y-56352935D01*
X44232286Y-56337200D01*
X44232322Y-56332192D01*
X44377429Y-56332192D01*
X44378273Y-56398430D01*
X44381596Y-56442386D01*
X44388583Y-56470779D01*
X44400416Y-56490325D01*
X44406457Y-56496857D01*
X44441186Y-56521680D01*
X44474903Y-56520548D01*
X44508995Y-56499016D01*
X44529329Y-56476029D01*
X44541371Y-56442478D01*
X44548134Y-56389569D01*
X44548598Y-56383399D01*
X44549752Y-56287513D01*
X44537688Y-56216299D01*
X44512570Y-56170194D01*
X44474560Y-56149635D01*
X44460992Y-56148514D01*
X44425364Y-56154152D01*
X44400994Y-56173686D01*
X44386093Y-56211042D01*
X44378875Y-56270150D01*
X44377429Y-56332192D01*
X44232322Y-56332192D01*
X44232826Y-56262413D01*
X44235096Y-56210159D01*
X44240068Y-56173949D01*
X44248713Y-56147299D01*
X44262005Y-56123722D01*
X44264943Y-56119338D01*
X44314313Y-56060249D01*
X44368109Y-56025947D01*
X44433602Y-56012331D01*
X44455842Y-56011665D01*
X44539115Y-56023962D01*
G37*
X44539115Y-56023962D02*
X44607145Y-56059733D01*
X44657351Y-56117301D01*
X44675185Y-56154312D01*
X44689063Y-56209882D01*
X44696167Y-56280096D01*
X44696840Y-56356727D01*
X44691427Y-56431552D01*
X44680270Y-56496342D01*
X44663714Y-56542873D01*
X44658626Y-56550887D01*
X44598355Y-56610707D01*
X44526769Y-56646535D01*
X44449092Y-56657020D01*
X44370548Y-56640810D01*
X44348689Y-56631092D01*
X44306122Y-56601143D01*
X44268763Y-56561433D01*
X44265232Y-56556397D01*
X44250881Y-56532124D01*
X44241394Y-56506178D01*
X44235790Y-56472022D01*
X44233086Y-56423119D01*
X44232299Y-56352935D01*
X44232286Y-56337200D01*
X44232322Y-56332192D01*
X44377429Y-56332192D01*
X44378273Y-56398430D01*
X44381596Y-56442386D01*
X44388583Y-56470779D01*
X44400416Y-56490325D01*
X44406457Y-56496857D01*
X44441186Y-56521680D01*
X44474903Y-56520548D01*
X44508995Y-56499016D01*
X44529329Y-56476029D01*
X44541371Y-56442478D01*
X44548134Y-56389569D01*
X44548598Y-56383399D01*
X44549752Y-56287513D01*
X44537688Y-56216299D01*
X44512570Y-56170194D01*
X44474560Y-56149635D01*
X44460992Y-56148514D01*
X44425364Y-56154152D01*
X44400994Y-56173686D01*
X44386093Y-56211042D01*
X44378875Y-56270150D01*
X44377429Y-56332192D01*
X44232322Y-56332192D01*
X44232826Y-56262413D01*
X44235096Y-56210159D01*
X44240068Y-56173949D01*
X44248713Y-56147299D01*
X44262005Y-56123722D01*
X44264943Y-56119338D01*
X44314313Y-56060249D01*
X44368109Y-56025947D01*
X44433602Y-56012331D01*
X44455842Y-56011665D01*
X44539115Y-56023962D01*
G36*
X46214093Y-56029780D02*
G01*
X46260672Y-56056723D01*
X46293057Y-56083466D01*
X46316742Y-56111484D01*
X46333059Y-56145748D01*
X46343339Y-56191227D01*
X46348914Y-56252892D01*
X46351116Y-56335711D01*
X46351371Y-56395246D01*
X46351371Y-56614391D01*
X46289686Y-56642044D01*
X46228000Y-56669697D01*
X46220743Y-56429670D01*
X46217744Y-56340028D01*
X46214598Y-56274962D01*
X46210701Y-56230026D01*
X46205447Y-56200770D01*
X46198231Y-56182748D01*
X46188450Y-56171511D01*
X46185312Y-56169079D01*
X46137761Y-56150083D01*
X46089697Y-56157600D01*
X46061086Y-56177543D01*
X46049447Y-56191675D01*
X46041391Y-56210220D01*
X46036271Y-56238334D01*
X46033441Y-56281173D01*
X46032256Y-56343895D01*
X46032057Y-56409261D01*
X46032018Y-56491268D01*
X46030614Y-56549316D01*
X46025914Y-56588465D01*
X46015987Y-56613780D01*
X45998903Y-56630323D01*
X45972732Y-56643156D01*
X45937775Y-56656491D01*
X45899596Y-56671007D01*
X45904141Y-56413389D01*
X45905971Y-56320519D01*
X45908112Y-56251889D01*
X45911181Y-56202711D01*
X45915794Y-56168198D01*
X45922568Y-56143562D01*
X45932119Y-56124016D01*
X45943634Y-56106770D01*
X45999190Y-56051680D01*
X46066980Y-56019822D01*
X46140713Y-56012191D01*
X46214093Y-56029780D01*
G37*
X46214093Y-56029780D02*
X46260672Y-56056723D01*
X46293057Y-56083466D01*
X46316742Y-56111484D01*
X46333059Y-56145748D01*
X46343339Y-56191227D01*
X46348914Y-56252892D01*
X46351116Y-56335711D01*
X46351371Y-56395246D01*
X46351371Y-56614391D01*
X46289686Y-56642044D01*
X46228000Y-56669697D01*
X46220743Y-56429670D01*
X46217744Y-56340028D01*
X46214598Y-56274962D01*
X46210701Y-56230026D01*
X46205447Y-56200770D01*
X46198231Y-56182748D01*
X46188450Y-56171511D01*
X46185312Y-56169079D01*
X46137761Y-56150083D01*
X46089697Y-56157600D01*
X46061086Y-56177543D01*
X46049447Y-56191675D01*
X46041391Y-56210220D01*
X46036271Y-56238334D01*
X46033441Y-56281173D01*
X46032256Y-56343895D01*
X46032057Y-56409261D01*
X46032018Y-56491268D01*
X46030614Y-56549316D01*
X46025914Y-56588465D01*
X46015987Y-56613780D01*
X45998903Y-56630323D01*
X45972732Y-56643156D01*
X45937775Y-56656491D01*
X45899596Y-56671007D01*
X45904141Y-56413389D01*
X45905971Y-56320519D01*
X45908112Y-56251889D01*
X45911181Y-56202711D01*
X45915794Y-56168198D01*
X45922568Y-56143562D01*
X45932119Y-56124016D01*
X45943634Y-56106770D01*
X45999190Y-56051680D01*
X46066980Y-56019822D01*
X46140713Y-56012191D01*
X46214093Y-56029780D01*
G36*
X45097744Y-56021918D02*
G01*
X45153201Y-56049568D01*
X45202148Y-56100480D01*
X45215629Y-56119338D01*
X45230314Y-56144015D01*
X45239842Y-56170816D01*
X45245293Y-56206587D01*
X45247747Y-56258169D01*
X45248286Y-56326267D01*
X45245852Y-56419588D01*
X45237394Y-56489657D01*
X45221174Y-56541931D01*
X45195454Y-56581869D01*
X45158497Y-56614929D01*
X45155782Y-56616886D01*
X45119360Y-56636908D01*
X45075502Y-56646815D01*
X45019724Y-56649257D01*
X44929048Y-56649257D01*
X44929010Y-56737283D01*
X44928166Y-56786308D01*
X44923024Y-56815065D01*
X44909587Y-56832311D01*
X44883858Y-56846808D01*
X44877679Y-56849769D01*
X44848764Y-56863648D01*
X44826376Y-56872414D01*
X44809729Y-56873171D01*
X44798036Y-56863023D01*
X44790510Y-56839073D01*
X44786366Y-56798426D01*
X44784815Y-56738186D01*
X44785071Y-56655455D01*
X44786349Y-56547339D01*
X44786748Y-56515000D01*
X44788185Y-56403524D01*
X44789472Y-56330603D01*
X44928971Y-56330603D01*
X44929755Y-56392499D01*
X44933240Y-56432997D01*
X44941124Y-56459708D01*
X44955105Y-56480244D01*
X44964597Y-56490260D01*
X45003404Y-56519567D01*
X45037763Y-56521952D01*
X45073216Y-56497750D01*
X45074114Y-56496857D01*
X45088539Y-56478153D01*
X45097313Y-56452732D01*
X45101739Y-56413584D01*
X45103118Y-56353697D01*
X45103143Y-56340430D01*
X45099812Y-56257901D01*
X45088969Y-56200691D01*
X45069340Y-56165766D01*
X45039650Y-56150094D01*
X45022491Y-56148514D01*
X44981766Y-56155926D01*
X44953832Y-56180330D01*
X44937017Y-56224980D01*
X44929650Y-56293130D01*
X44928971Y-56330603D01*
X44789472Y-56330603D01*
X44789708Y-56317245D01*
X44791677Y-56252333D01*
X44794450Y-56204958D01*
X44798388Y-56171290D01*
X44803849Y-56147498D01*
X44811192Y-56129753D01*
X44820777Y-56114224D01*
X44824887Y-56108381D01*
X44879405Y-56053185D01*
X44948336Y-56021890D01*
X45028072Y-56013165D01*
X45097744Y-56021918D01*
G37*
X45097744Y-56021918D02*
X45153201Y-56049568D01*
X45202148Y-56100480D01*
X45215629Y-56119338D01*
X45230314Y-56144015D01*
X45239842Y-56170816D01*
X45245293Y-56206587D01*
X45247747Y-56258169D01*
X45248286Y-56326267D01*
X45245852Y-56419588D01*
X45237394Y-56489657D01*
X45221174Y-56541931D01*
X45195454Y-56581869D01*
X45158497Y-56614929D01*
X45155782Y-56616886D01*
X45119360Y-56636908D01*
X45075502Y-56646815D01*
X45019724Y-56649257D01*
X44929048Y-56649257D01*
X44929010Y-56737283D01*
X44928166Y-56786308D01*
X44923024Y-56815065D01*
X44909587Y-56832311D01*
X44883858Y-56846808D01*
X44877679Y-56849769D01*
X44848764Y-56863648D01*
X44826376Y-56872414D01*
X44809729Y-56873171D01*
X44798036Y-56863023D01*
X44790510Y-56839073D01*
X44786366Y-56798426D01*
X44784815Y-56738186D01*
X44785071Y-56655455D01*
X44786349Y-56547339D01*
X44786748Y-56515000D01*
X44788185Y-56403524D01*
X44789472Y-56330603D01*
X44928971Y-56330603D01*
X44929755Y-56392499D01*
X44933240Y-56432997D01*
X44941124Y-56459708D01*
X44955105Y-56480244D01*
X44964597Y-56490260D01*
X45003404Y-56519567D01*
X45037763Y-56521952D01*
X45073216Y-56497750D01*
X45074114Y-56496857D01*
X45088539Y-56478153D01*
X45097313Y-56452732D01*
X45101739Y-56413584D01*
X45103118Y-56353697D01*
X45103143Y-56340430D01*
X45099812Y-56257901D01*
X45088969Y-56200691D01*
X45069340Y-56165766D01*
X45039650Y-56150094D01*
X45022491Y-56148514D01*
X44981766Y-56155926D01*
X44953832Y-56180330D01*
X44937017Y-56224980D01*
X44929650Y-56293130D01*
X44928971Y-56330603D01*
X44789472Y-56330603D01*
X44789708Y-56317245D01*
X44791677Y-56252333D01*
X44794450Y-56204958D01*
X44798388Y-56171290D01*
X44803849Y-56147498D01*
X44811192Y-56129753D01*
X44820777Y-56114224D01*
X44824887Y-56108381D01*
X44879405Y-56053185D01*
X44948336Y-56021890D01*
X45028072Y-56013165D01*
X45097744Y-56021918D01*
D14*
X58778000Y-30580000D02*
X51538000Y-30580000D01*
X58778000Y-27840000D02*
X51538000Y-27840000D01*
X58778000Y-30580000D02*
X58778000Y-27840000D01*
X51538000Y-30580000D02*
X51538000Y-27840000D01*
X56370000Y-32910000D02*
X50350000Y-32910000D01*
X50350000Y-32910000D02*
X50350000Y-48370000D01*
X50350000Y-48370000D02*
X56370000Y-48370000D01*
X56370000Y-48370000D02*
X56370000Y-32910000D01*
X55340000Y-32620000D02*
X51340000Y-32620000D01*
X50350000Y-34290000D02*
X51350000Y-34290000D01*
X51350000Y-34290000D02*
X51350000Y-46990000D01*
X51350000Y-46990000D02*
X50350000Y-46990000D01*
X51350000Y-34290000D02*
X51880000Y-34540000D01*
X51880000Y-34540000D02*
X51880000Y-46740000D01*
X51880000Y-46740000D02*
X51350000Y-46990000D01*
X50350000Y-34540000D02*
X51350000Y-34540000D01*
X50350000Y-46740000D02*
X51350000Y-46740000D01*
X56370000Y-33490000D02*
X55770000Y-33490000D01*
X55770000Y-33490000D02*
X55770000Y-35090000D01*
X55770000Y-35090000D02*
X56370000Y-35090000D01*
X56370000Y-36030000D02*
X55770000Y-36030000D01*
X55770000Y-36030000D02*
X55770000Y-37630000D01*
X55770000Y-37630000D02*
X56370000Y-37630000D01*
X56370000Y-38570000D02*
X55770000Y-38570000D01*
X55770000Y-38570000D02*
X55770000Y-40170000D01*
X55770000Y-40170000D02*
X56370000Y-40170000D01*
X56370000Y-41110000D02*
X55770000Y-41110000D01*
X55770000Y-41110000D02*
X55770000Y-42710000D01*
X55770000Y-42710000D02*
X56370000Y-42710000D01*
X56370000Y-43650000D02*
X55770000Y-43650000D01*
X55770000Y-43650000D02*
X55770000Y-45250000D01*
X55770000Y-45250000D02*
X56370000Y-45250000D01*
X56370000Y-46190000D02*
X55770000Y-46190000D01*
X55770000Y-46190000D02*
X55770000Y-47790000D01*
X55770000Y-47790000D02*
X56370000Y-47790000D01*
X72744000Y-34822000D02*
X70004000Y-34822000D01*
X72744000Y-27582000D02*
X70004000Y-27582000D01*
X70004000Y-27582000D02*
X70004000Y-34822000D01*
X72744000Y-27582000D02*
X72744000Y-34822000D01*
X118190000Y-55646000D02*
X124160000Y-55646000D01*
X124160000Y-55646000D02*
X124160000Y-48026000D01*
X124160000Y-48026000D02*
X118190000Y-48026000D01*
X118190000Y-48026000D02*
X118190000Y-55646000D01*
X118200000Y-52336000D02*
X118950000Y-52336000D01*
X118950000Y-52336000D02*
X118950000Y-51336000D01*
X118950000Y-51336000D02*
X118200000Y-51336000D01*
X118200000Y-51336000D02*
X118200000Y-52336000D01*
X118200000Y-55636000D02*
X118950000Y-55636000D01*
X118950000Y-55636000D02*
X118950000Y-53836000D01*
X118950000Y-53836000D02*
X118200000Y-53836000D01*
X118200000Y-53836000D02*
X118200000Y-55636000D01*
X118200000Y-49836000D02*
X118950000Y-49836000D01*
X118950000Y-49836000D02*
X118950000Y-48036000D01*
X118950000Y-48036000D02*
X118200000Y-48036000D01*
X118200000Y-48036000D02*
X118200000Y-49836000D01*
X120450000Y-55636000D02*
X120450000Y-54886000D01*
X120450000Y-54886000D02*
X123400000Y-54886000D01*
X123400000Y-54886000D02*
X123400000Y-51836000D01*
X120450000Y-48036000D02*
X120450000Y-48786000D01*
X120450000Y-48786000D02*
X123400000Y-48786000D01*
X123400000Y-48786000D02*
X123400000Y-51836000D01*
X117900000Y-54686000D02*
X117900000Y-55936000D01*
X117900000Y-55936000D02*
X119150000Y-55936000D01*
X51490000Y-51540000D02*
X51490000Y-55140000D01*
X51501522Y-51501522D02*
G75*
G02X55940000Y-53340000I1838478J-1838478D01*
G01*
X51501522Y-55178478D02*
G75*
G03X55940000Y-53340000I1838478J1838478D01*
G01*
X43920000Y-31060000D02*
X47520000Y-31060000D01*
X43881522Y-31048478D02*
G75*
G02X45720000Y-26610000I1838478J1838478D01*
G01*
X47558478Y-31048478D02*
G75*
G03X45720000Y-26610000I-1838478J1838478D01*
G01*
D12*
X138450000Y-41380000D02*
X138450000Y-51480000D01*
X134760000Y-51580000D02*
X135160000Y-51580000D01*
X134760000Y-51580000D02*
X134760000Y-51180000D01*
X134760000Y-41380000D02*
X139160000Y-41380000D01*
X134760000Y-41380000D02*
X134760000Y-41780000D01*
X139560000Y-41380000D02*
X139160000Y-41380000D01*
X139560000Y-41380000D02*
X139560000Y-41780000D01*
X139560000Y-51180000D02*
X139560000Y-51580000D01*
X139560000Y-51580000D02*
X139160000Y-51580000D01*
D14*
X92940000Y-46990000D02*
X92250000Y-46990000D01*
X82320000Y-46990000D02*
X83010000Y-46990000D01*
X92250000Y-45270000D02*
X83010000Y-45270000D01*
X92250000Y-48710000D02*
X92250000Y-45270000D01*
X83010000Y-48710000D02*
X92250000Y-48710000D01*
X83010000Y-45270000D02*
X83010000Y-48710000D01*
X92250000Y-44900000D02*
X92250000Y-41460000D01*
X92250000Y-41460000D02*
X83010000Y-41460000D01*
X83010000Y-41460000D02*
X83010000Y-44900000D01*
X83010000Y-44900000D02*
X92250000Y-44900000D01*
X92940000Y-43180000D02*
X92250000Y-43180000D01*
X82320000Y-43180000D02*
X83010000Y-43180000D01*
X102410000Y-29660000D02*
X102410000Y-26220000D01*
X102410000Y-26220000D02*
X93170000Y-26220000D01*
X93170000Y-26220000D02*
X93170000Y-29660000D01*
X93170000Y-29660000D02*
X102410000Y-29660000D01*
X103100000Y-27940000D02*
X102410000Y-27940000D01*
X92480000Y-27940000D02*
X93170000Y-27940000D01*
X82320000Y-39370000D02*
X83010000Y-39370000D01*
X92940000Y-39370000D02*
X92250000Y-39370000D01*
X83010000Y-41090000D02*
X92250000Y-41090000D01*
X83010000Y-37650000D02*
X83010000Y-41090000D01*
X92250000Y-37650000D02*
X83010000Y-37650000D01*
X92250000Y-41090000D02*
X92250000Y-37650000D01*
X98365000Y-47050000D02*
X100600000Y-47050000D01*
X98365000Y-41850000D02*
X98365000Y-47050000D01*
X104835000Y-41850000D02*
X98365000Y-41850000D01*
X104835000Y-47050000D02*
X104835000Y-41850000D01*
X102600000Y-47050000D02*
X104835000Y-47050000D01*
X100600000Y-47050000D02*
G75*
G02X102600000Y-47050000I1000000J0D01*
G01*
X100600000Y-54670000D02*
G75*
G02X102600000Y-54670000I1000000J0D01*
G01*
X102600000Y-54670000D02*
X104835000Y-54670000D01*
X104835000Y-54670000D02*
X104835000Y-49470000D01*
X104835000Y-49470000D02*
X98365000Y-49470000D01*
X98365000Y-49470000D02*
X98365000Y-54670000D01*
X98365000Y-54670000D02*
X100600000Y-54670000D01*
X107194000Y-25680000D02*
X107194000Y-28480000D01*
X107194000Y-32480000D02*
X107194000Y-35280000D01*
X129794000Y-32480000D02*
X129794000Y-35280000D01*
X129794000Y-35280000D02*
X107194000Y-35280000D01*
X129794000Y-25680000D02*
X107194000Y-25680000D01*
X129794000Y-25680000D02*
X129794000Y-28480000D01*
X72390000Y-38608000D02*
X77470000Y-38608000D01*
X77470000Y-38608000D02*
X77470000Y-41148000D01*
X77470000Y-41148000D02*
X72390000Y-41148000D01*
X72390000Y-41148000D02*
X72390000Y-38608000D01*
X72390000Y-41148000D02*
X72390000Y-42418000D01*
X72390000Y-42418000D02*
X72390000Y-43688000D01*
X72390000Y-43688000D02*
X77470000Y-43688000D01*
X77470000Y-43688000D02*
X77470000Y-41148000D01*
X68640000Y-45092000D02*
X58360000Y-45092000D01*
X68640000Y-55492000D02*
X68640000Y-45092000D01*
X58360000Y-55492000D02*
X68640000Y-55492000D01*
X58360000Y-45092000D02*
X58360000Y-55492000D01*
X66150000Y-45152000D02*
X64500000Y-45152000D01*
X66150000Y-55432000D02*
X66150000Y-45152000D01*
X60850000Y-55432000D02*
X66150000Y-55432000D01*
X60850000Y-45152000D02*
X60850000Y-55432000D01*
X62500000Y-45152000D02*
X60850000Y-45152000D01*
X64500000Y-45152000D02*
G75*
G02X62500000Y-45152000I-1000000J0D01*
G01*
X72330000Y-53908000D02*
X77530000Y-53908000D01*
X72330000Y-48768000D02*
X72330000Y-53908000D01*
X77530000Y-46168000D02*
X77530000Y-53908000D01*
X72330000Y-48768000D02*
X74930000Y-48768000D01*
X74930000Y-48768000D02*
X74930000Y-46168000D01*
X74930000Y-46168000D02*
X77530000Y-46168000D01*
X72330000Y-47498000D02*
X72330000Y-46168000D01*
X72330000Y-46168000D02*
X73660000Y-46168000D01*
X133660000Y-50272000D02*
G75*
G03X133660000Y-50272000I-4120000J0D01*
G01*
X133620000Y-50272000D02*
X125460000Y-50272000D01*
X133620000Y-50312000D02*
X125460000Y-50312000D01*
X133620000Y-50352000D02*
X125460000Y-50352000D01*
X133619000Y-50392000D02*
X125461000Y-50392000D01*
X133617000Y-50432000D02*
X125463000Y-50432000D01*
X133616000Y-50472000D02*
X125464000Y-50472000D01*
X133614000Y-50512000D02*
X130580000Y-50512000D01*
X128500000Y-50512000D02*
X125466000Y-50512000D01*
X133611000Y-50552000D02*
X130580000Y-50552000D01*
X128500000Y-50552000D02*
X125469000Y-50552000D01*
X133608000Y-50592000D02*
X130580000Y-50592000D01*
X128500000Y-50592000D02*
X125472000Y-50592000D01*
X133605000Y-50632000D02*
X130580000Y-50632000D01*
X128500000Y-50632000D02*
X125475000Y-50632000D01*
X133601000Y-50672000D02*
X130580000Y-50672000D01*
X128500000Y-50672000D02*
X125479000Y-50672000D01*
X133597000Y-50712000D02*
X130580000Y-50712000D01*
X128500000Y-50712000D02*
X125483000Y-50712000D01*
X133592000Y-50752000D02*
X130580000Y-50752000D01*
X128500000Y-50752000D02*
X125488000Y-50752000D01*
X133588000Y-50792000D02*
X130580000Y-50792000D01*
X128500000Y-50792000D02*
X125492000Y-50792000D01*
X133582000Y-50832000D02*
X130580000Y-50832000D01*
X128500000Y-50832000D02*
X125498000Y-50832000D01*
X133577000Y-50872000D02*
X130580000Y-50872000D01*
X128500000Y-50872000D02*
X125503000Y-50872000D01*
X133570000Y-50912000D02*
X130580000Y-50912000D01*
X128500000Y-50912000D02*
X125510000Y-50912000D01*
X133564000Y-50952000D02*
X130580000Y-50952000D01*
X128500000Y-50952000D02*
X125516000Y-50952000D01*
X133557000Y-50993000D02*
X130580000Y-50993000D01*
X128500000Y-50993000D02*
X125523000Y-50993000D01*
X133550000Y-51033000D02*
X130580000Y-51033000D01*
X128500000Y-51033000D02*
X125530000Y-51033000D01*
X133542000Y-51073000D02*
X130580000Y-51073000D01*
X128500000Y-51073000D02*
X125538000Y-51073000D01*
X133534000Y-51113000D02*
X130580000Y-51113000D01*
X128500000Y-51113000D02*
X125546000Y-51113000D01*
X133525000Y-51153000D02*
X130580000Y-51153000D01*
X128500000Y-51153000D02*
X125555000Y-51153000D01*
X133516000Y-51193000D02*
X130580000Y-51193000D01*
X128500000Y-51193000D02*
X125564000Y-51193000D01*
X133507000Y-51233000D02*
X130580000Y-51233000D01*
X128500000Y-51233000D02*
X125573000Y-51233000D01*
X133497000Y-51273000D02*
X130580000Y-51273000D01*
X128500000Y-51273000D02*
X125583000Y-51273000D01*
X133487000Y-51313000D02*
X130580000Y-51313000D01*
X128500000Y-51313000D02*
X125593000Y-51313000D01*
X133476000Y-51353000D02*
X130580000Y-51353000D01*
X128500000Y-51353000D02*
X125604000Y-51353000D01*
X133465000Y-51393000D02*
X130580000Y-51393000D01*
X128500000Y-51393000D02*
X125615000Y-51393000D01*
X133454000Y-51433000D02*
X130580000Y-51433000D01*
X128500000Y-51433000D02*
X125626000Y-51433000D01*
X133442000Y-51473000D02*
X130580000Y-51473000D01*
X128500000Y-51473000D02*
X125638000Y-51473000D01*
X133429000Y-51513000D02*
X130580000Y-51513000D01*
X128500000Y-51513000D02*
X125651000Y-51513000D01*
X133417000Y-51553000D02*
X130580000Y-51553000D01*
X128500000Y-51553000D02*
X125663000Y-51553000D01*
X133403000Y-51593000D02*
X130580000Y-51593000D01*
X128500000Y-51593000D02*
X125677000Y-51593000D01*
X133390000Y-51633000D02*
X130580000Y-51633000D01*
X128500000Y-51633000D02*
X125690000Y-51633000D01*
X133375000Y-51673000D02*
X130580000Y-51673000D01*
X128500000Y-51673000D02*
X125705000Y-51673000D01*
X133361000Y-51713000D02*
X130580000Y-51713000D01*
X128500000Y-51713000D02*
X125719000Y-51713000D01*
X133345000Y-51753000D02*
X130580000Y-51753000D01*
X128500000Y-51753000D02*
X125735000Y-51753000D01*
X133330000Y-51793000D02*
X130580000Y-51793000D01*
X128500000Y-51793000D02*
X125750000Y-51793000D01*
X133314000Y-51833000D02*
X130580000Y-51833000D01*
X128500000Y-51833000D02*
X125766000Y-51833000D01*
X133297000Y-51873000D02*
X130580000Y-51873000D01*
X128500000Y-51873000D02*
X125783000Y-51873000D01*
X133280000Y-51913000D02*
X130580000Y-51913000D01*
X128500000Y-51913000D02*
X125800000Y-51913000D01*
X133262000Y-51953000D02*
X130580000Y-51953000D01*
X128500000Y-51953000D02*
X125818000Y-51953000D01*
X133244000Y-51993000D02*
X130580000Y-51993000D01*
X128500000Y-51993000D02*
X125836000Y-51993000D01*
X133226000Y-52033000D02*
X130580000Y-52033000D01*
X128500000Y-52033000D02*
X125854000Y-52033000D01*
X133206000Y-52073000D02*
X130580000Y-52073000D01*
X128500000Y-52073000D02*
X125874000Y-52073000D01*
X133187000Y-52113000D02*
X130580000Y-52113000D01*
X128500000Y-52113000D02*
X125893000Y-52113000D01*
X133167000Y-52153000D02*
X130580000Y-52153000D01*
X128500000Y-52153000D02*
X125913000Y-52153000D01*
X133146000Y-52193000D02*
X130580000Y-52193000D01*
X128500000Y-52193000D02*
X125934000Y-52193000D01*
X133124000Y-52233000D02*
X130580000Y-52233000D01*
X128500000Y-52233000D02*
X125956000Y-52233000D01*
X133102000Y-52273000D02*
X130580000Y-52273000D01*
X128500000Y-52273000D02*
X125978000Y-52273000D01*
X133080000Y-52313000D02*
X130580000Y-52313000D01*
X128500000Y-52313000D02*
X126000000Y-52313000D01*
X133057000Y-52353000D02*
X130580000Y-52353000D01*
X128500000Y-52353000D02*
X126023000Y-52353000D01*
X133033000Y-52393000D02*
X130580000Y-52393000D01*
X128500000Y-52393000D02*
X126047000Y-52393000D01*
X133009000Y-52433000D02*
X130580000Y-52433000D01*
X128500000Y-52433000D02*
X126071000Y-52433000D01*
X132984000Y-52473000D02*
X130580000Y-52473000D01*
X128500000Y-52473000D02*
X126096000Y-52473000D01*
X132958000Y-52513000D02*
X130580000Y-52513000D01*
X128500000Y-52513000D02*
X126122000Y-52513000D01*
X132932000Y-52553000D02*
X130580000Y-52553000D01*
X128500000Y-52553000D02*
X126148000Y-52553000D01*
X132905000Y-52593000D02*
X126175000Y-52593000D01*
X132878000Y-52633000D02*
X126202000Y-52633000D01*
X132849000Y-52673000D02*
X126231000Y-52673000D01*
X132820000Y-52713000D02*
X126260000Y-52713000D01*
X132790000Y-52753000D02*
X126290000Y-52753000D01*
X132760000Y-52793000D02*
X126320000Y-52793000D01*
X132729000Y-52833000D02*
X126351000Y-52833000D01*
X132696000Y-52873000D02*
X126384000Y-52873000D01*
X132664000Y-52913000D02*
X126416000Y-52913000D01*
X132630000Y-52953000D02*
X126450000Y-52953000D01*
X132595000Y-52993000D02*
X126485000Y-52993000D01*
X132559000Y-53033000D02*
X126521000Y-53033000D01*
X132523000Y-53073000D02*
X126557000Y-53073000D01*
X132485000Y-53113000D02*
X126595000Y-53113000D01*
X132447000Y-53153000D02*
X126633000Y-53153000D01*
X132407000Y-53193000D02*
X126673000Y-53193000D01*
X132366000Y-53233000D02*
X126714000Y-53233000D01*
X132324000Y-53273000D02*
X126756000Y-53273000D01*
X132281000Y-53313000D02*
X126799000Y-53313000D01*
X132237000Y-53353000D02*
X126843000Y-53353000D01*
X132191000Y-53393000D02*
X126889000Y-53393000D01*
X132144000Y-53433000D02*
X126936000Y-53433000D01*
X132096000Y-53473000D02*
X126984000Y-53473000D01*
X132045000Y-53513000D02*
X127035000Y-53513000D01*
X131994000Y-53553000D02*
X127086000Y-53553000D01*
X131940000Y-53593000D02*
X127140000Y-53593000D01*
X131885000Y-53633000D02*
X127195000Y-53633000D01*
X131827000Y-53673000D02*
X127253000Y-53673000D01*
X131768000Y-53713000D02*
X127312000Y-53713000D01*
X131706000Y-53753000D02*
X127374000Y-53753000D01*
X131642000Y-53793000D02*
X127438000Y-53793000D01*
X131574000Y-53833000D02*
X127506000Y-53833000D01*
X131504000Y-53873000D02*
X127576000Y-53873000D01*
X131430000Y-53913000D02*
X127650000Y-53913000D01*
X131353000Y-53953000D02*
X127727000Y-53953000D01*
X131271000Y-53993000D02*
X127809000Y-53993000D01*
X131185000Y-54033000D02*
X127895000Y-54033000D01*
X131092000Y-54073000D02*
X127988000Y-54073000D01*
X130993000Y-54113000D02*
X128087000Y-54113000D01*
X130886000Y-54153000D02*
X128194000Y-54153000D01*
X130769000Y-54193000D02*
X128311000Y-54193000D01*
X130638000Y-54233000D02*
X128442000Y-54233000D01*
X130488000Y-54273000D02*
X128592000Y-54273000D01*
X130308000Y-54313000D02*
X128772000Y-54313000D01*
X130073000Y-54353000D02*
X129007000Y-54353000D01*
X131855000Y-45862302D02*
X131855000Y-46662302D01*
X132255000Y-46262302D02*
X131455000Y-46262302D01*
X133374000Y-42572000D02*
X133374000Y-45312000D01*
X126134000Y-42572000D02*
X126134000Y-45312000D01*
X126134000Y-45312000D02*
X133374000Y-45312000D01*
X126134000Y-42572000D02*
X133374000Y-42572000D01*
X61110000Y-27840000D02*
X68350000Y-27840000D01*
X61110000Y-30580000D02*
X68350000Y-30580000D01*
X61110000Y-27840000D02*
X61110000Y-30580000D01*
X68350000Y-27840000D02*
X68350000Y-30580000D01*
X45620000Y-41760000D02*
X45620000Y-34520000D01*
X48360000Y-41760000D02*
X48360000Y-34520000D01*
X45620000Y-41760000D02*
X48360000Y-41760000D01*
X45620000Y-34520000D02*
X48360000Y-34520000D01*
X43670000Y-31640000D02*
X37650000Y-31640000D01*
X37650000Y-31640000D02*
X37650000Y-44560000D01*
X37650000Y-44560000D02*
X43670000Y-44560000D01*
X43670000Y-44560000D02*
X43670000Y-31640000D01*
X42640000Y-31350000D02*
X38640000Y-31350000D01*
X37650000Y-33020000D02*
X38650000Y-33020000D01*
X38650000Y-33020000D02*
X38650000Y-43180000D01*
X38650000Y-43180000D02*
X37650000Y-43180000D01*
X38650000Y-33020000D02*
X39180000Y-33270000D01*
X39180000Y-33270000D02*
X39180000Y-42930000D01*
X39180000Y-42930000D02*
X38650000Y-43180000D01*
X37650000Y-33270000D02*
X38650000Y-33270000D01*
X37650000Y-42930000D02*
X38650000Y-42930000D01*
X43670000Y-32220000D02*
X43070000Y-32220000D01*
X43070000Y-32220000D02*
X43070000Y-33820000D01*
X43070000Y-33820000D02*
X43670000Y-33820000D01*
X43670000Y-34760000D02*
X43070000Y-34760000D01*
X43070000Y-34760000D02*
X43070000Y-36360000D01*
X43070000Y-36360000D02*
X43670000Y-36360000D01*
X43670000Y-37300000D02*
X43070000Y-37300000D01*
X43070000Y-37300000D02*
X43070000Y-38900000D01*
X43070000Y-38900000D02*
X43670000Y-38900000D01*
X43670000Y-39840000D02*
X43070000Y-39840000D01*
X43070000Y-39840000D02*
X43070000Y-41440000D01*
X43070000Y-41440000D02*
X43670000Y-41440000D01*
X43670000Y-42380000D02*
X43070000Y-42380000D01*
X43070000Y-42380000D02*
X43070000Y-43980000D01*
X43070000Y-43980000D02*
X43670000Y-43980000D01*
X34272000Y-41800000D02*
X28252000Y-41800000D01*
X28252000Y-41800000D02*
X28252000Y-49640000D01*
X28252000Y-49640000D02*
X34272000Y-49640000D01*
X34272000Y-49640000D02*
X34272000Y-41800000D01*
X33242000Y-41510000D02*
X29242000Y-41510000D01*
X28252000Y-43180000D02*
X29252000Y-43180000D01*
X29252000Y-43180000D02*
X29252000Y-48260000D01*
X29252000Y-48260000D02*
X28252000Y-48260000D01*
X29252000Y-43180000D02*
X29782000Y-43430000D01*
X29782000Y-43430000D02*
X29782000Y-48010000D01*
X29782000Y-48010000D02*
X29252000Y-48260000D01*
X28252000Y-43430000D02*
X29252000Y-43430000D01*
X28252000Y-48010000D02*
X29252000Y-48010000D01*
X34272000Y-42380000D02*
X33672000Y-42380000D01*
X33672000Y-42380000D02*
X33672000Y-43980000D01*
X33672000Y-43980000D02*
X34272000Y-43980000D01*
X34272000Y-44920000D02*
X33672000Y-44920000D01*
X33672000Y-44920000D02*
X33672000Y-46520000D01*
X33672000Y-46520000D02*
X34272000Y-46520000D01*
X34272000Y-47460000D02*
X33672000Y-47460000D01*
X33672000Y-47460000D02*
X33672000Y-49060000D01*
X33672000Y-49060000D02*
X34272000Y-49060000D01*
X75010000Y-35326000D02*
X80980000Y-35326000D01*
X80980000Y-35326000D02*
X80980000Y-27706000D01*
X80980000Y-27706000D02*
X75010000Y-27706000D01*
X75010000Y-27706000D02*
X75010000Y-35326000D01*
X75020000Y-32016000D02*
X75770000Y-32016000D01*
X75770000Y-32016000D02*
X75770000Y-31016000D01*
X75770000Y-31016000D02*
X75020000Y-31016000D01*
X75020000Y-31016000D02*
X75020000Y-32016000D01*
X75020000Y-35316000D02*
X75770000Y-35316000D01*
X75770000Y-35316000D02*
X75770000Y-33516000D01*
X75770000Y-33516000D02*
X75020000Y-33516000D01*
X75020000Y-33516000D02*
X75020000Y-35316000D01*
X75020000Y-29516000D02*
X75770000Y-29516000D01*
X75770000Y-29516000D02*
X75770000Y-27716000D01*
X75770000Y-27716000D02*
X75020000Y-27716000D01*
X75020000Y-27716000D02*
X75020000Y-29516000D01*
X77270000Y-35316000D02*
X77270000Y-34566000D01*
X77270000Y-34566000D02*
X80220000Y-34566000D01*
X80220000Y-34566000D02*
X80220000Y-31516000D01*
X77270000Y-27716000D02*
X77270000Y-28466000D01*
X77270000Y-28466000D02*
X80220000Y-28466000D01*
X80220000Y-28466000D02*
X80220000Y-31516000D01*
X74720000Y-34366000D02*
X74720000Y-35616000D01*
X74720000Y-35616000D02*
X75970000Y-35616000D01*
X82340000Y-35616000D02*
X83590000Y-35616000D01*
X82340000Y-34366000D02*
X82340000Y-35616000D01*
X87840000Y-28466000D02*
X87840000Y-31516000D01*
X84890000Y-28466000D02*
X87840000Y-28466000D01*
X84890000Y-27716000D02*
X84890000Y-28466000D01*
X87840000Y-34566000D02*
X87840000Y-31516000D01*
X84890000Y-34566000D02*
X87840000Y-34566000D01*
X84890000Y-35316000D02*
X84890000Y-34566000D01*
X82640000Y-27716000D02*
X82640000Y-29516000D01*
X83390000Y-27716000D02*
X82640000Y-27716000D01*
X83390000Y-29516000D02*
X83390000Y-27716000D01*
X82640000Y-29516000D02*
X83390000Y-29516000D01*
X82640000Y-33516000D02*
X82640000Y-35316000D01*
X83390000Y-33516000D02*
X82640000Y-33516000D01*
X83390000Y-35316000D02*
X83390000Y-33516000D01*
X82640000Y-35316000D02*
X83390000Y-35316000D01*
X82640000Y-31016000D02*
X82640000Y-32016000D01*
X83390000Y-31016000D02*
X82640000Y-31016000D01*
X83390000Y-32016000D02*
X83390000Y-31016000D01*
X82640000Y-32016000D02*
X83390000Y-32016000D01*
X82630000Y-27706000D02*
X82630000Y-35326000D01*
X88600000Y-27706000D02*
X82630000Y-27706000D01*
X88600000Y-35326000D02*
X88600000Y-27706000D01*
X82630000Y-35326000D02*
X88600000Y-35326000D01*
X115490000Y-40620000D02*
X109520000Y-40620000D01*
X109520000Y-40620000D02*
X109520000Y-55740000D01*
X109520000Y-55740000D02*
X115490000Y-55740000D01*
X115490000Y-55740000D02*
X115490000Y-40620000D01*
X115480000Y-43930000D02*
X114730000Y-43930000D01*
X114730000Y-43930000D02*
X114730000Y-52430000D01*
X114730000Y-52430000D02*
X115480000Y-52430000D01*
X115480000Y-52430000D02*
X115480000Y-43930000D01*
X115480000Y-40630000D02*
X114730000Y-40630000D01*
X114730000Y-40630000D02*
X114730000Y-42430000D01*
X114730000Y-42430000D02*
X115480000Y-42430000D01*
X115480000Y-42430000D02*
X115480000Y-40630000D01*
X115480000Y-53930000D02*
X114730000Y-53930000D01*
X114730000Y-53930000D02*
X114730000Y-55730000D01*
X114730000Y-55730000D02*
X115480000Y-55730000D01*
X115480000Y-55730000D02*
X115480000Y-53930000D01*
X113230000Y-40630000D02*
X113230000Y-41380000D01*
X113230000Y-41380000D02*
X110280000Y-41380000D01*
X110280000Y-41380000D02*
X110280000Y-48180000D01*
X113230000Y-55730000D02*
X113230000Y-54980000D01*
X113230000Y-54980000D02*
X110280000Y-54980000D01*
X110280000Y-54980000D02*
X110280000Y-48180000D01*
X115780000Y-41580000D02*
X115780000Y-40330000D01*
X115780000Y-40330000D02*
X114530000Y-40330000D01*
X92250000Y-52520000D02*
X92250000Y-49080000D01*
X92250000Y-49080000D02*
X83010000Y-49080000D01*
X83010000Y-49080000D02*
X83010000Y-52520000D01*
X83010000Y-52520000D02*
X92250000Y-52520000D01*
X92940000Y-50800000D02*
X92250000Y-50800000D01*
X82320000Y-50800000D02*
X83010000Y-50800000D01*
X92480000Y-31750000D02*
X93170000Y-31750000D01*
X103100000Y-31750000D02*
X102410000Y-31750000D01*
X93170000Y-33470000D02*
X102410000Y-33470000D01*
X93170000Y-30030000D02*
X93170000Y-33470000D01*
X102410000Y-30030000D02*
X93170000Y-30030000D01*
X102410000Y-33470000D02*
X102410000Y-30030000D01*
X83010000Y-52890000D02*
X83010000Y-56330000D01*
X83010000Y-56330000D02*
X92250000Y-56330000D01*
X92250000Y-56330000D02*
X92250000Y-52890000D01*
X92250000Y-52890000D02*
X83010000Y-52890000D01*
X82320000Y-54610000D02*
X83010000Y-54610000D01*
X92940000Y-54610000D02*
X92250000Y-54610000D01*
X92480000Y-35560000D02*
X93170000Y-35560000D01*
X103100000Y-35560000D02*
X102410000Y-35560000D01*
X93170000Y-37280000D02*
X102410000Y-37280000D01*
X93170000Y-33840000D02*
X93170000Y-37280000D01*
X102410000Y-33840000D02*
X93170000Y-33840000D01*
X102410000Y-37280000D02*
X102410000Y-33840000D01*
X64500000Y-32960000D02*
G75*
G02X62500000Y-32960000I-1000000J0D01*
G01*
X62500000Y-32960000D02*
X60850000Y-32960000D01*
X60850000Y-32960000D02*
X60850000Y-43240000D01*
X60850000Y-43240000D02*
X66150000Y-43240000D01*
X66150000Y-43240000D02*
X66150000Y-32960000D01*
X66150000Y-32960000D02*
X64500000Y-32960000D01*
X58360000Y-32900000D02*
X58360000Y-43300000D01*
X58360000Y-43300000D02*
X68640000Y-43300000D01*
X68640000Y-43300000D02*
X68640000Y-32900000D01*
X68640000Y-32900000D02*
X58360000Y-32900000D01*
D10*
X39878095Y-45934380D02*
X39878095Y-46743904D01*
X39925714Y-46839142D01*
X39973333Y-46886761D01*
X40068571Y-46934380D01*
X40259047Y-46934380D01*
X40354285Y-46886761D01*
X40401904Y-46839142D01*
X40449523Y-46743904D01*
X40449523Y-45934380D01*
X41449523Y-46934380D02*
X40878095Y-46934380D01*
X41163809Y-46934380D02*
X41163809Y-45934380D01*
X41068571Y-46077238D01*
X40973333Y-46172476D01*
X40878095Y-46220095D01*
X54697333Y-27281142D02*
X54649714Y-27328761D01*
X54506857Y-27376380D01*
X54411619Y-27376380D01*
X54268761Y-27328761D01*
X54173523Y-27233523D01*
X54125904Y-27138285D01*
X54078285Y-26947809D01*
X54078285Y-26804952D01*
X54125904Y-26614476D01*
X54173523Y-26519238D01*
X54268761Y-26424000D01*
X54411619Y-26376380D01*
X54506857Y-26376380D01*
X54649714Y-26424000D01*
X54697333Y-26471619D01*
X55602095Y-26376380D02*
X55125904Y-26376380D01*
X55078285Y-26852571D01*
X55125904Y-26804952D01*
X55221142Y-26757333D01*
X55459238Y-26757333D01*
X55554476Y-26804952D01*
X55602095Y-26852571D01*
X55649714Y-26947809D01*
X55649714Y-27185904D01*
X55602095Y-27281142D01*
X55554476Y-27328761D01*
X55459238Y-27376380D01*
X55221142Y-27376380D01*
X55125904Y-27328761D01*
X55078285Y-27281142D01*
X50466666Y-31202380D02*
X50466666Y-31916666D01*
X50419047Y-32059523D01*
X50323809Y-32154761D01*
X50180952Y-32202380D01*
X50085714Y-32202380D01*
X50847619Y-31202380D02*
X51466666Y-31202380D01*
X51133333Y-31583333D01*
X51276190Y-31583333D01*
X51371428Y-31630952D01*
X51419047Y-31678571D01*
X51466666Y-31773809D01*
X51466666Y-32011904D01*
X51419047Y-32107142D01*
X51371428Y-32154761D01*
X51276190Y-32202380D01*
X50990476Y-32202380D01*
X50895238Y-32154761D01*
X50847619Y-32107142D01*
X71207333Y-27027142D02*
X71159714Y-27074761D01*
X71016857Y-27122380D01*
X70921619Y-27122380D01*
X70778761Y-27074761D01*
X70683523Y-26979523D01*
X70635904Y-26884285D01*
X70588285Y-26693809D01*
X70588285Y-26550952D01*
X70635904Y-26360476D01*
X70683523Y-26265238D01*
X70778761Y-26170000D01*
X70921619Y-26122380D01*
X71016857Y-26122380D01*
X71159714Y-26170000D01*
X71207333Y-26217619D01*
X71540666Y-26122380D02*
X72159714Y-26122380D01*
X71826380Y-26503333D01*
X71969238Y-26503333D01*
X72064476Y-26550952D01*
X72112095Y-26598571D01*
X72159714Y-26693809D01*
X72159714Y-26931904D01*
X72112095Y-27027142D01*
X72064476Y-27074761D01*
X71969238Y-27122380D01*
X71683523Y-27122380D01*
X71588285Y-27074761D01*
X71540666Y-27027142D01*
X124634666Y-56094380D02*
X124634666Y-56808666D01*
X124587047Y-56951523D01*
X124491809Y-57046761D01*
X124348952Y-57094380D01*
X124253714Y-57094380D01*
X125253714Y-56522952D02*
X125158476Y-56475333D01*
X125110857Y-56427714D01*
X125063238Y-56332476D01*
X125063238Y-56284857D01*
X125110857Y-56189619D01*
X125158476Y-56142000D01*
X125253714Y-56094380D01*
X125444190Y-56094380D01*
X125539428Y-56142000D01*
X125587047Y-56189619D01*
X125634666Y-56284857D01*
X125634666Y-56332476D01*
X125587047Y-56427714D01*
X125539428Y-56475333D01*
X125444190Y-56522952D01*
X125253714Y-56522952D01*
X125158476Y-56570571D01*
X125110857Y-56618190D01*
X125063238Y-56713428D01*
X125063238Y-56903904D01*
X125110857Y-56999142D01*
X125158476Y-57046761D01*
X125253714Y-57094380D01*
X125444190Y-57094380D01*
X125539428Y-57046761D01*
X125587047Y-56999142D01*
X125634666Y-56903904D01*
X125634666Y-56713428D01*
X125587047Y-56618190D01*
X125539428Y-56570571D01*
X125444190Y-56522952D01*
X53498761Y-50331619D02*
X53403523Y-50284000D01*
X53308285Y-50188761D01*
X53165428Y-50045904D01*
X53070190Y-49998285D01*
X52974952Y-49998285D01*
X53022571Y-50236380D02*
X52927333Y-50188761D01*
X52832095Y-50093523D01*
X52784476Y-49903047D01*
X52784476Y-49569714D01*
X52832095Y-49379238D01*
X52927333Y-49284000D01*
X53022571Y-49236380D01*
X53213047Y-49236380D01*
X53308285Y-49284000D01*
X53403523Y-49379238D01*
X53451142Y-49569714D01*
X53451142Y-49903047D01*
X53403523Y-50093523D01*
X53308285Y-50188761D01*
X53213047Y-50236380D01*
X53022571Y-50236380D01*
X53832095Y-49331619D02*
X53879714Y-49284000D01*
X53974952Y-49236380D01*
X54213047Y-49236380D01*
X54308285Y-49284000D01*
X54355904Y-49331619D01*
X54403523Y-49426857D01*
X54403523Y-49522095D01*
X54355904Y-49664952D01*
X53784476Y-50236380D01*
X54403523Y-50236380D01*
X41148095Y-27392380D02*
X41148095Y-28201904D01*
X41195714Y-28297142D01*
X41243333Y-28344761D01*
X41338571Y-28392380D01*
X41529047Y-28392380D01*
X41624285Y-28344761D01*
X41671904Y-28297142D01*
X41719523Y-28201904D01*
X41719523Y-27392380D01*
X42100476Y-27392380D02*
X42719523Y-27392380D01*
X42386190Y-27773333D01*
X42529047Y-27773333D01*
X42624285Y-27820952D01*
X42671904Y-27868571D01*
X42719523Y-27963809D01*
X42719523Y-28201904D01*
X42671904Y-28297142D01*
X42624285Y-28344761D01*
X42529047Y-28392380D01*
X42243333Y-28392380D01*
X42148095Y-28344761D01*
X42100476Y-28297142D01*
X136398095Y-39584380D02*
X136398095Y-40393904D01*
X136445714Y-40489142D01*
X136493333Y-40536761D01*
X136588571Y-40584380D01*
X136779047Y-40584380D01*
X136874285Y-40536761D01*
X136921904Y-40489142D01*
X136969523Y-40393904D01*
X136969523Y-39584380D01*
X137874285Y-39917714D02*
X137874285Y-40584380D01*
X137636190Y-39536761D02*
X137398095Y-40251047D01*
X138017142Y-40251047D01*
X81367333Y-45918380D02*
X81034000Y-45442190D01*
X80795904Y-45918380D02*
X80795904Y-44918380D01*
X81176857Y-44918380D01*
X81272095Y-44966000D01*
X81319714Y-45013619D01*
X81367333Y-45108857D01*
X81367333Y-45251714D01*
X81319714Y-45346952D01*
X81272095Y-45394571D01*
X81176857Y-45442190D01*
X80795904Y-45442190D01*
X82319714Y-45918380D02*
X81748285Y-45918380D01*
X82034000Y-45918380D02*
X82034000Y-44918380D01*
X81938761Y-45061238D01*
X81843523Y-45156476D01*
X81748285Y-45204095D01*
X81113333Y-42108380D02*
X80780000Y-41632190D01*
X80541904Y-42108380D02*
X80541904Y-41108380D01*
X80922857Y-41108380D01*
X81018095Y-41156000D01*
X81065714Y-41203619D01*
X81113333Y-41298857D01*
X81113333Y-41441714D01*
X81065714Y-41536952D01*
X81018095Y-41584571D01*
X80922857Y-41632190D01*
X80541904Y-41632190D01*
X81494285Y-41203619D02*
X81541904Y-41156000D01*
X81637142Y-41108380D01*
X81875238Y-41108380D01*
X81970476Y-41156000D01*
X82018095Y-41203619D01*
X82065714Y-41298857D01*
X82065714Y-41394095D01*
X82018095Y-41536952D01*
X81446666Y-42108380D01*
X82065714Y-42108380D01*
X103973333Y-26868380D02*
X103640000Y-26392190D01*
X103401904Y-26868380D02*
X103401904Y-25868380D01*
X103782857Y-25868380D01*
X103878095Y-25916000D01*
X103925714Y-25963619D01*
X103973333Y-26058857D01*
X103973333Y-26201714D01*
X103925714Y-26296952D01*
X103878095Y-26344571D01*
X103782857Y-26392190D01*
X103401904Y-26392190D01*
X104306666Y-25868380D02*
X104925714Y-25868380D01*
X104592380Y-26249333D01*
X104735238Y-26249333D01*
X104830476Y-26296952D01*
X104878095Y-26344571D01*
X104925714Y-26439809D01*
X104925714Y-26677904D01*
X104878095Y-26773142D01*
X104830476Y-26820761D01*
X104735238Y-26868380D01*
X104449523Y-26868380D01*
X104354285Y-26820761D01*
X104306666Y-26773142D01*
X81113333Y-38298380D02*
X80780000Y-37822190D01*
X80541904Y-38298380D02*
X80541904Y-37298380D01*
X80922857Y-37298380D01*
X81018095Y-37346000D01*
X81065714Y-37393619D01*
X81113333Y-37488857D01*
X81113333Y-37631714D01*
X81065714Y-37726952D01*
X81018095Y-37774571D01*
X80922857Y-37822190D01*
X80541904Y-37822190D01*
X81970476Y-37631714D02*
X81970476Y-38298380D01*
X81732380Y-37250761D02*
X81494285Y-37965047D01*
X82113333Y-37965047D01*
X100787295Y-40346380D02*
X100787295Y-41155904D01*
X100834914Y-41251142D01*
X100882533Y-41298761D01*
X100977771Y-41346380D01*
X101168247Y-41346380D01*
X101263485Y-41298761D01*
X101311104Y-41251142D01*
X101358723Y-41155904D01*
X101358723Y-40346380D01*
X102263485Y-40346380D02*
X102073009Y-40346380D01*
X101977771Y-40394000D01*
X101930152Y-40441619D01*
X101834914Y-40584476D01*
X101787295Y-40774952D01*
X101787295Y-41155904D01*
X101834914Y-41251142D01*
X101882533Y-41298761D01*
X101977771Y-41346380D01*
X102168247Y-41346380D01*
X102263485Y-41298761D01*
X102311104Y-41251142D01*
X102358723Y-41155904D01*
X102358723Y-40917809D01*
X102311104Y-40822571D01*
X102263485Y-40774952D01*
X102168247Y-40727333D01*
X101977771Y-40727333D01*
X101882533Y-40774952D01*
X101834914Y-40822571D01*
X101787295Y-40917809D01*
X100838095Y-47966380D02*
X100838095Y-48775904D01*
X100885714Y-48871142D01*
X100933333Y-48918761D01*
X101028571Y-48966380D01*
X101219047Y-48966380D01*
X101314285Y-48918761D01*
X101361904Y-48871142D01*
X101409523Y-48775904D01*
X101409523Y-47966380D01*
X101790476Y-47966380D02*
X102457142Y-47966380D01*
X102028571Y-48966380D01*
X131492666Y-32948571D02*
X131159333Y-32948571D01*
X131159333Y-33472380D02*
X131159333Y-32472380D01*
X131635523Y-32472380D01*
X132540285Y-33472380D02*
X131968857Y-33472380D01*
X132254571Y-33472380D02*
X132254571Y-32472380D01*
X132159333Y-32615238D01*
X132064095Y-32710476D01*
X131968857Y-32758095D01*
X70286666Y-39330380D02*
X70286666Y-40044666D01*
X70239047Y-40187523D01*
X70143809Y-40282761D01*
X70000952Y-40330380D01*
X69905714Y-40330380D01*
X70762857Y-40330380D02*
X70762857Y-39330380D01*
X71143809Y-39330380D01*
X71239047Y-39378000D01*
X71286666Y-39425619D01*
X71334285Y-39520857D01*
X71334285Y-39663714D01*
X71286666Y-39758952D01*
X71239047Y-39806571D01*
X71143809Y-39854190D01*
X70762857Y-39854190D01*
X72286666Y-40330380D02*
X71715238Y-40330380D01*
X72000952Y-40330380D02*
X72000952Y-39330380D01*
X71905714Y-39473238D01*
X71810476Y-39568476D01*
X71715238Y-39616095D01*
X73421904Y-42584666D02*
X73898095Y-42584666D01*
X73326666Y-42870380D02*
X73660000Y-41870380D01*
X73993333Y-42870380D01*
X76271428Y-42346571D02*
X76414285Y-42394190D01*
X76461904Y-42441809D01*
X76509523Y-42537047D01*
X76509523Y-42679904D01*
X76461904Y-42775142D01*
X76414285Y-42822761D01*
X76319047Y-42870380D01*
X75938095Y-42870380D01*
X75938095Y-41870380D01*
X76271428Y-41870380D01*
X76366666Y-41918000D01*
X76414285Y-41965619D01*
X76461904Y-42060857D01*
X76461904Y-42156095D01*
X76414285Y-42251333D01*
X76366666Y-42298952D01*
X76271428Y-42346571D01*
X75938095Y-42346571D01*
X62738095Y-43604380D02*
X62738095Y-44413904D01*
X62785714Y-44509142D01*
X62833333Y-44556761D01*
X62928571Y-44604380D01*
X63119047Y-44604380D01*
X63214285Y-44556761D01*
X63261904Y-44509142D01*
X63309523Y-44413904D01*
X63309523Y-43604380D01*
X64261904Y-43604380D02*
X63785714Y-43604380D01*
X63738095Y-44080571D01*
X63785714Y-44032952D01*
X63880952Y-43985333D01*
X64119047Y-43985333D01*
X64214285Y-44032952D01*
X64261904Y-44080571D01*
X64309523Y-44175809D01*
X64309523Y-44413904D01*
X64261904Y-44509142D01*
X64214285Y-44556761D01*
X64119047Y-44604380D01*
X63880952Y-44604380D01*
X63785714Y-44556761D01*
X63738095Y-44509142D01*
X74596666Y-54570380D02*
X74596666Y-55284666D01*
X74549047Y-55427523D01*
X74453809Y-55522761D01*
X74310952Y-55570380D01*
X74215714Y-55570380D01*
X75501428Y-54570380D02*
X75310952Y-54570380D01*
X75215714Y-54618000D01*
X75168095Y-54665619D01*
X75072857Y-54808476D01*
X75025238Y-54998952D01*
X75025238Y-55379904D01*
X75072857Y-55475142D01*
X75120476Y-55522761D01*
X75215714Y-55570380D01*
X75406190Y-55570380D01*
X75501428Y-55522761D01*
X75549047Y-55475142D01*
X75596666Y-55379904D01*
X75596666Y-55141809D01*
X75549047Y-55046571D01*
X75501428Y-54998952D01*
X75406190Y-54951333D01*
X75215714Y-54951333D01*
X75120476Y-54998952D01*
X75072857Y-55046571D01*
X75025238Y-55141809D01*
X124801333Y-44045142D02*
X124753714Y-44092761D01*
X124610857Y-44140380D01*
X124515619Y-44140380D01*
X124372761Y-44092761D01*
X124277523Y-43997523D01*
X124229904Y-43902285D01*
X124182285Y-43711809D01*
X124182285Y-43568952D01*
X124229904Y-43378476D01*
X124277523Y-43283238D01*
X124372761Y-43188000D01*
X124515619Y-43140380D01*
X124610857Y-43140380D01*
X124753714Y-43188000D01*
X124801333Y-43235619D01*
X125753714Y-44140380D02*
X125182285Y-44140380D01*
X125468000Y-44140380D02*
X125468000Y-43140380D01*
X125372761Y-43283238D01*
X125277523Y-43378476D01*
X125182285Y-43426095D01*
X129587333Y-41799142D02*
X129539714Y-41846761D01*
X129396857Y-41894380D01*
X129301619Y-41894380D01*
X129158761Y-41846761D01*
X129063523Y-41751523D01*
X129015904Y-41656285D01*
X128968285Y-41465809D01*
X128968285Y-41322952D01*
X129015904Y-41132476D01*
X129063523Y-41037238D01*
X129158761Y-40942000D01*
X129301619Y-40894380D01*
X129396857Y-40894380D01*
X129539714Y-40942000D01*
X129587333Y-40989619D01*
X129968285Y-40989619D02*
X130015904Y-40942000D01*
X130111142Y-40894380D01*
X130349238Y-40894380D01*
X130444476Y-40942000D01*
X130492095Y-40989619D01*
X130539714Y-41084857D01*
X130539714Y-41180095D01*
X130492095Y-41322952D01*
X129920666Y-41894380D01*
X130539714Y-41894380D01*
X64563333Y-27067142D02*
X64515714Y-27114761D01*
X64372857Y-27162380D01*
X64277619Y-27162380D01*
X64134761Y-27114761D01*
X64039523Y-27019523D01*
X63991904Y-26924285D01*
X63944285Y-26733809D01*
X63944285Y-26590952D01*
X63991904Y-26400476D01*
X64039523Y-26305238D01*
X64134761Y-26210000D01*
X64277619Y-26162380D01*
X64372857Y-26162380D01*
X64515714Y-26210000D01*
X64563333Y-26257619D01*
X65420476Y-26495714D02*
X65420476Y-27162380D01*
X65182380Y-26114761D02*
X64944285Y-26829047D01*
X65563333Y-26829047D01*
X46823333Y-33885142D02*
X46775714Y-33932761D01*
X46632857Y-33980380D01*
X46537619Y-33980380D01*
X46394761Y-33932761D01*
X46299523Y-33837523D01*
X46251904Y-33742285D01*
X46204285Y-33551809D01*
X46204285Y-33408952D01*
X46251904Y-33218476D01*
X46299523Y-33123238D01*
X46394761Y-33028000D01*
X46537619Y-32980380D01*
X46632857Y-32980380D01*
X46775714Y-33028000D01*
X46823333Y-33075619D01*
X47680476Y-32980380D02*
X47490000Y-32980380D01*
X47394761Y-33028000D01*
X47347142Y-33075619D01*
X47251904Y-33218476D01*
X47204285Y-33408952D01*
X47204285Y-33789904D01*
X47251904Y-33885142D01*
X47299523Y-33932761D01*
X47394761Y-33980380D01*
X47585238Y-33980380D01*
X47680476Y-33932761D01*
X47728095Y-33885142D01*
X47775714Y-33789904D01*
X47775714Y-33551809D01*
X47728095Y-33456571D01*
X47680476Y-33408952D01*
X47585238Y-33361333D01*
X47394761Y-33361333D01*
X47299523Y-33408952D01*
X47251904Y-33456571D01*
X47204285Y-33551809D01*
X37766666Y-29678380D02*
X37766666Y-30392666D01*
X37719047Y-30535523D01*
X37623809Y-30630761D01*
X37480952Y-30678380D01*
X37385714Y-30678380D01*
X38766666Y-30678380D02*
X38195238Y-30678380D01*
X38480952Y-30678380D02*
X38480952Y-29678380D01*
X38385714Y-29821238D01*
X38290476Y-29916476D01*
X38195238Y-29964095D01*
X33448666Y-50506380D02*
X33448666Y-51220666D01*
X33401047Y-51363523D01*
X33305809Y-51458761D01*
X33162952Y-51506380D01*
X33067714Y-51506380D01*
X33877238Y-50601619D02*
X33924857Y-50554000D01*
X34020095Y-50506380D01*
X34258190Y-50506380D01*
X34353428Y-50554000D01*
X34401047Y-50601619D01*
X34448666Y-50696857D01*
X34448666Y-50792095D01*
X34401047Y-50934952D01*
X33829619Y-51506380D01*
X34448666Y-51506380D01*
X74342666Y-25868380D02*
X74342666Y-26582666D01*
X74295047Y-26725523D01*
X74199809Y-26820761D01*
X74056952Y-26868380D01*
X73961714Y-26868380D01*
X75247428Y-26201714D02*
X75247428Y-26868380D01*
X75009333Y-25820761D02*
X74771238Y-26535047D01*
X75390285Y-26535047D01*
X88820666Y-36028380D02*
X88820666Y-36742666D01*
X88773047Y-36885523D01*
X88677809Y-36980761D01*
X88534952Y-37028380D01*
X88439714Y-37028380D01*
X89773047Y-36028380D02*
X89296857Y-36028380D01*
X89249238Y-36504571D01*
X89296857Y-36456952D01*
X89392095Y-36409333D01*
X89630190Y-36409333D01*
X89725428Y-36456952D01*
X89773047Y-36504571D01*
X89820666Y-36599809D01*
X89820666Y-36837904D01*
X89773047Y-36933142D01*
X89725428Y-36980761D01*
X89630190Y-37028380D01*
X89392095Y-37028380D01*
X89296857Y-36980761D01*
X89249238Y-36933142D01*
X115744666Y-56094380D02*
X115744666Y-56808666D01*
X115697047Y-56951523D01*
X115601809Y-57046761D01*
X115458952Y-57094380D01*
X115363714Y-57094380D01*
X116125619Y-56094380D02*
X116792285Y-56094380D01*
X116363714Y-57094380D01*
X81367333Y-49728380D02*
X81034000Y-49252190D01*
X80795904Y-49728380D02*
X80795904Y-48728380D01*
X81176857Y-48728380D01*
X81272095Y-48776000D01*
X81319714Y-48823619D01*
X81367333Y-48918857D01*
X81367333Y-49061714D01*
X81319714Y-49156952D01*
X81272095Y-49204571D01*
X81176857Y-49252190D01*
X80795904Y-49252190D01*
X82272095Y-48728380D02*
X81795904Y-48728380D01*
X81748285Y-49204571D01*
X81795904Y-49156952D01*
X81891142Y-49109333D01*
X82129238Y-49109333D01*
X82224476Y-49156952D01*
X82272095Y-49204571D01*
X82319714Y-49299809D01*
X82319714Y-49537904D01*
X82272095Y-49633142D01*
X82224476Y-49680761D01*
X82129238Y-49728380D01*
X81891142Y-49728380D01*
X81795904Y-49680761D01*
X81748285Y-49633142D01*
X103719333Y-30678380D02*
X103386000Y-30202190D01*
X103147904Y-30678380D02*
X103147904Y-29678380D01*
X103528857Y-29678380D01*
X103624095Y-29726000D01*
X103671714Y-29773619D01*
X103719333Y-29868857D01*
X103719333Y-30011714D01*
X103671714Y-30106952D01*
X103624095Y-30154571D01*
X103528857Y-30202190D01*
X103147904Y-30202190D01*
X104576476Y-29678380D02*
X104386000Y-29678380D01*
X104290761Y-29726000D01*
X104243142Y-29773619D01*
X104147904Y-29916476D01*
X104100285Y-30106952D01*
X104100285Y-30487904D01*
X104147904Y-30583142D01*
X104195523Y-30630761D01*
X104290761Y-30678380D01*
X104481238Y-30678380D01*
X104576476Y-30630761D01*
X104624095Y-30583142D01*
X104671714Y-30487904D01*
X104671714Y-30249809D01*
X104624095Y-30154571D01*
X104576476Y-30106952D01*
X104481238Y-30059333D01*
X104290761Y-30059333D01*
X104195523Y-30106952D01*
X104147904Y-30154571D01*
X104100285Y-30249809D01*
X81113333Y-53538380D02*
X80780000Y-53062190D01*
X80541904Y-53538380D02*
X80541904Y-52538380D01*
X80922857Y-52538380D01*
X81018095Y-52586000D01*
X81065714Y-52633619D01*
X81113333Y-52728857D01*
X81113333Y-52871714D01*
X81065714Y-52966952D01*
X81018095Y-53014571D01*
X80922857Y-53062190D01*
X80541904Y-53062190D01*
X81446666Y-52538380D02*
X82113333Y-52538380D01*
X81684761Y-53538380D01*
X103719333Y-34488380D02*
X103386000Y-34012190D01*
X103147904Y-34488380D02*
X103147904Y-33488380D01*
X103528857Y-33488380D01*
X103624095Y-33536000D01*
X103671714Y-33583619D01*
X103719333Y-33678857D01*
X103719333Y-33821714D01*
X103671714Y-33916952D01*
X103624095Y-33964571D01*
X103528857Y-34012190D01*
X103147904Y-34012190D01*
X104290761Y-33916952D02*
X104195523Y-33869333D01*
X104147904Y-33821714D01*
X104100285Y-33726476D01*
X104100285Y-33678857D01*
X104147904Y-33583619D01*
X104195523Y-33536000D01*
X104290761Y-33488380D01*
X104481238Y-33488380D01*
X104576476Y-33536000D01*
X104624095Y-33583619D01*
X104671714Y-33678857D01*
X104671714Y-33726476D01*
X104624095Y-33821714D01*
X104576476Y-33869333D01*
X104481238Y-33916952D01*
X104290761Y-33916952D01*
X104195523Y-33964571D01*
X104147904Y-34012190D01*
X104100285Y-34107428D01*
X104100285Y-34297904D01*
X104147904Y-34393142D01*
X104195523Y-34440761D01*
X104290761Y-34488380D01*
X104481238Y-34488380D01*
X104576476Y-34440761D01*
X104624095Y-34393142D01*
X104671714Y-34297904D01*
X104671714Y-34107428D01*
X104624095Y-34012190D01*
X104576476Y-33964571D01*
X104481238Y-33916952D01*
X62738095Y-31412380D02*
X62738095Y-32221904D01*
X62785714Y-32317142D01*
X62833333Y-32364761D01*
X62928571Y-32412380D01*
X63119047Y-32412380D01*
X63214285Y-32364761D01*
X63261904Y-32317142D01*
X63309523Y-32221904D01*
X63309523Y-31412380D01*
X63738095Y-31507619D02*
X63785714Y-31460000D01*
X63880952Y-31412380D01*
X64119047Y-31412380D01*
X64214285Y-31460000D01*
X64261904Y-31507619D01*
X64309523Y-31602857D01*
X64309523Y-31698095D01*
X64261904Y-31840952D01*
X63690476Y-32412380D01*
X64309523Y-32412380D01*
M02*
