G04 #@! TF.GenerationSoftware,KiCad,Pcbnew,5.1.5-1.fc31*
G04 #@! TF.CreationDate,2020-04-28T16:33:23+01:00*
G04 #@! TF.ProjectId,ReversingCam_FSAV433_ATTINY85_v3.2,52657665-7273-4696-9e67-43616d5f4653,V3.2*
G04 #@! TF.SameCoordinates,Original*
G04 #@! TF.FileFunction,Other,User*
%FSLAX46Y46*%
G04 Gerber Fmt 4.6, Leading zero omitted, Abs format (unit mm)*
G04 Created by KiCad (PCBNEW 5.1.5-1.fc31) date 2020-04-28 16:33:23*
%MOMM*%
%LPD*%
G04 APERTURE LIST*
%ADD10C,0.050000*%
G04 APERTURE END LIST*
D10*
X36790000Y-47300000D02*
X36790000Y-54300000D01*
X44490000Y-47300000D02*
X44490000Y-54300000D01*
X44490000Y-54300000D02*
X36790000Y-54300000D01*
X44490000Y-47300000D02*
X36790000Y-47300000D01*
X58908000Y-30710000D02*
X58908000Y-27710000D01*
X58908000Y-27710000D02*
X51408000Y-27710000D01*
X51408000Y-27710000D02*
X51408000Y-30710000D01*
X51408000Y-30710000D02*
X58908000Y-30710000D01*
X56760000Y-32520000D02*
X49960000Y-32520000D01*
X49960000Y-32520000D02*
X49960000Y-48760000D01*
X49960000Y-48760000D02*
X56760000Y-48760000D01*
X56760000Y-48760000D02*
X56760000Y-32520000D01*
X72874000Y-34952000D02*
X72874000Y-27452000D01*
X69874000Y-34952000D02*
X72874000Y-34952000D01*
X69874000Y-27452000D02*
X69874000Y-34952000D01*
X72874000Y-27452000D02*
X69874000Y-27452000D01*
X117800000Y-56036000D02*
X124550000Y-56036000D01*
X124550000Y-56036000D02*
X124550000Y-47636000D01*
X124550000Y-47636000D02*
X117800000Y-47636000D01*
X117800000Y-47636000D02*
X117800000Y-56036000D01*
X56070000Y-50610000D02*
X56070000Y-56070000D01*
X56070000Y-50610000D02*
X51330000Y-50610000D01*
X51330000Y-56070000D02*
X56070000Y-56070000D01*
X51330000Y-56070000D02*
X51330000Y-50610000D01*
X42990000Y-26480000D02*
X48450000Y-26480000D01*
X42990000Y-26480000D02*
X42990000Y-31220000D01*
X48450000Y-31220000D02*
X48450000Y-26480000D01*
X48450000Y-31220000D02*
X42990000Y-31220000D01*
X134660000Y-41230000D02*
X134660000Y-51730000D01*
X139660000Y-41230000D02*
X139660000Y-51730000D01*
X139660000Y-41230000D02*
X134660000Y-41230000D01*
X139660000Y-51730000D02*
X134660000Y-51730000D01*
X95030000Y-45140000D02*
X80230000Y-45140000D01*
X95030000Y-48840000D02*
X95030000Y-45140000D01*
X80230000Y-48840000D02*
X95030000Y-48840000D01*
X80230000Y-45140000D02*
X80230000Y-48840000D01*
X95030000Y-45030000D02*
X95030000Y-41330000D01*
X95030000Y-41330000D02*
X80230000Y-41330000D01*
X80230000Y-41330000D02*
X80230000Y-45030000D01*
X80230000Y-45030000D02*
X95030000Y-45030000D01*
X105190000Y-29790000D02*
X105190000Y-26090000D01*
X105190000Y-26090000D02*
X90390000Y-26090000D01*
X90390000Y-26090000D02*
X90390000Y-29790000D01*
X90390000Y-29790000D02*
X105190000Y-29790000D01*
X80230000Y-41220000D02*
X95030000Y-41220000D01*
X80230000Y-37520000D02*
X80230000Y-41220000D01*
X95030000Y-37520000D02*
X80230000Y-37520000D01*
X95030000Y-41220000D02*
X95030000Y-37520000D01*
X95430000Y-47270000D02*
X107730000Y-47270000D01*
X95430000Y-41620000D02*
X95430000Y-47270000D01*
X107730000Y-41620000D02*
X95430000Y-41620000D01*
X107730000Y-47270000D02*
X107730000Y-41620000D01*
X107730000Y-54890000D02*
X107730000Y-49240000D01*
X107730000Y-49240000D02*
X95430000Y-49240000D01*
X95430000Y-49240000D02*
X95430000Y-54890000D01*
X95430000Y-54890000D02*
X107730000Y-54890000D01*
X129944000Y-25530000D02*
X129944000Y-28630000D01*
X107044000Y-25530000D02*
X129944000Y-25530000D01*
X129944000Y-35430000D02*
X107044000Y-35430000D01*
X129944000Y-32330000D02*
X129944000Y-35430000D01*
X107044000Y-32330000D02*
X107044000Y-35430000D01*
X107044000Y-28630000D02*
X107044000Y-25530000D01*
X107044000Y-32330000D02*
X106794000Y-32330000D01*
X105344000Y-30030000D02*
X105344000Y-30930000D01*
X105344000Y-30930000D02*
X105744000Y-31730000D01*
X105744000Y-31730000D02*
X106444000Y-32230000D01*
X106444000Y-32230000D02*
X106794000Y-32330000D01*
X107044000Y-28630000D02*
X106794000Y-28630000D01*
X106794000Y-28630000D02*
X106444000Y-28730000D01*
X106444000Y-28730000D02*
X105744000Y-29230000D01*
X105744000Y-29230000D02*
X105344000Y-30030000D01*
X129944000Y-32330000D02*
X130194000Y-32330000D01*
X130194000Y-32330000D02*
X130544000Y-32230000D01*
X130544000Y-32230000D02*
X131244000Y-31730000D01*
X131644000Y-30930000D02*
X131644000Y-30030000D01*
X131244000Y-29230000D02*
X130544000Y-28730000D01*
X130544000Y-28730000D02*
X130194000Y-28630000D01*
X130194000Y-28630000D02*
X129944000Y-28630000D01*
X131244000Y-29230000D02*
X131644000Y-30030000D01*
X131644000Y-30930000D02*
X131244000Y-31730000D01*
X68840000Y-44882000D02*
X58140000Y-44882000D01*
X68840000Y-55682000D02*
X68840000Y-44882000D01*
X58140000Y-55682000D02*
X68840000Y-55682000D01*
X58140000Y-44882000D02*
X58140000Y-55682000D01*
X71860000Y-45698000D02*
X71860000Y-54348000D01*
X71860000Y-54348000D02*
X78010000Y-54348000D01*
X78010000Y-54348000D02*
X78010000Y-45698000D01*
X78010000Y-45698000D02*
X71860000Y-45698000D01*
X32800000Y-54100000D02*
G75*
G03X32800000Y-54100000I-3100000J0D01*
G01*
X35340000Y-36320000D02*
G75*
G03X35340000Y-36320000I-3100000J0D01*
G01*
X136940000Y-36320000D02*
G75*
G03X136940000Y-36320000I-3100000J0D01*
G01*
X133790000Y-50272000D02*
G75*
G03X133790000Y-50272000I-4250000J0D01*
G01*
X133504000Y-42442000D02*
X126004000Y-42442000D01*
X133504000Y-45442000D02*
X133504000Y-42442000D01*
X126004000Y-45442000D02*
X133504000Y-45442000D01*
X126004000Y-42442000D02*
X126004000Y-45442000D01*
X60980000Y-27710000D02*
X60980000Y-30710000D01*
X60980000Y-30710000D02*
X68480000Y-30710000D01*
X68480000Y-30710000D02*
X68480000Y-27710000D01*
X68480000Y-27710000D02*
X60980000Y-27710000D01*
X45490000Y-41890000D02*
X48490000Y-41890000D01*
X48490000Y-41890000D02*
X48490000Y-34390000D01*
X48490000Y-34390000D02*
X45490000Y-34390000D01*
X45490000Y-34390000D02*
X45490000Y-41890000D01*
X44060000Y-31250000D02*
X37260000Y-31250000D01*
X37260000Y-31250000D02*
X37260000Y-44950000D01*
X37260000Y-44950000D02*
X44060000Y-44950000D01*
X44060000Y-44950000D02*
X44060000Y-31250000D01*
X34662000Y-41410000D02*
X27862000Y-41410000D01*
X27862000Y-41410000D02*
X27862000Y-50030000D01*
X27862000Y-50030000D02*
X34662000Y-50030000D01*
X34662000Y-50030000D02*
X34662000Y-41410000D01*
X74620000Y-35716000D02*
X81370000Y-35716000D01*
X81370000Y-35716000D02*
X81370000Y-27316000D01*
X81370000Y-27316000D02*
X74620000Y-27316000D01*
X74620000Y-27316000D02*
X74620000Y-35716000D01*
X82240000Y-27316000D02*
X82240000Y-35716000D01*
X88990000Y-27316000D02*
X82240000Y-27316000D01*
X88990000Y-35716000D02*
X88990000Y-27316000D01*
X82240000Y-35716000D02*
X88990000Y-35716000D01*
X115880000Y-40230000D02*
X109130000Y-40230000D01*
X109130000Y-40230000D02*
X109130000Y-56130000D01*
X109130000Y-56130000D02*
X115880000Y-56130000D01*
X115880000Y-56130000D02*
X115880000Y-40230000D01*
X95030000Y-52650000D02*
X95030000Y-48950000D01*
X95030000Y-48950000D02*
X80230000Y-48950000D01*
X80230000Y-48950000D02*
X80230000Y-52650000D01*
X80230000Y-52650000D02*
X95030000Y-52650000D01*
X90390000Y-33600000D02*
X105190000Y-33600000D01*
X90390000Y-29900000D02*
X90390000Y-33600000D01*
X105190000Y-29900000D02*
X90390000Y-29900000D01*
X105190000Y-33600000D02*
X105190000Y-29900000D01*
X80230000Y-52760000D02*
X80230000Y-56460000D01*
X80230000Y-56460000D02*
X95030000Y-56460000D01*
X95030000Y-56460000D02*
X95030000Y-52760000D01*
X95030000Y-52760000D02*
X80230000Y-52760000D01*
X90390000Y-37410000D02*
X105190000Y-37410000D01*
X90390000Y-33710000D02*
X90390000Y-37410000D01*
X105190000Y-33710000D02*
X90390000Y-33710000D01*
X105190000Y-37410000D02*
X105190000Y-33710000D01*
X58140000Y-32690000D02*
X58140000Y-43490000D01*
X58140000Y-43490000D02*
X68840000Y-43490000D01*
X68840000Y-43490000D02*
X68840000Y-32690000D01*
X68840000Y-32690000D02*
X58140000Y-32690000D01*
M02*
