G04 #@! TF.GenerationSoftware,KiCad,Pcbnew,5.1.5-1.fc31*
G04 #@! TF.CreationDate,2020-04-28T16:33:23+01:00*
G04 #@! TF.ProjectId,ReversingCam_FSAV433_ATTINY85_v3.2,52657665-7273-4696-9e67-43616d5f4653,V3.2*
G04 #@! TF.SameCoordinates,Original*
G04 #@! TF.FileFunction,Soldermask,Top*
G04 #@! TF.FilePolarity,Negative*
%FSLAX46Y46*%
G04 Gerber Fmt 4.6, Leading zero omitted, Abs format (unit mm)*
G04 Created by KiCad (PCBNEW 5.1.5-1.fc31) date 2020-04-28 16:33:23*
%MOMM*%
%LPD*%
G04 APERTURE LIST*
%ADD10C,0.100000*%
G04 APERTURE END LIST*
D10*
G36*
X136743703Y-52489000D02*
G01*
X136861579Y-52512447D01*
X137162042Y-52636903D01*
X137432451Y-52817585D01*
X137662415Y-53047549D01*
X137827757Y-53295000D01*
X137843098Y-53317960D01*
X137859114Y-53356627D01*
X137955047Y-53588228D01*
X137967553Y-53618422D01*
X138031000Y-53937389D01*
X138031000Y-54262611D01*
X138011275Y-54361772D01*
X137967553Y-54581579D01*
X137843097Y-54882042D01*
X137662415Y-55152451D01*
X137432451Y-55382415D01*
X137162042Y-55563097D01*
X136861579Y-55687553D01*
X136755256Y-55708702D01*
X136542611Y-55751000D01*
X136217389Y-55751000D01*
X136004744Y-55708702D01*
X135898421Y-55687553D01*
X135597958Y-55563097D01*
X135327549Y-55382415D01*
X135097585Y-55152451D01*
X134916903Y-54882042D01*
X134792447Y-54581579D01*
X134748725Y-54361772D01*
X134729000Y-54262611D01*
X134729000Y-53937389D01*
X134792447Y-53618422D01*
X134804954Y-53588228D01*
X134900886Y-53356627D01*
X134916902Y-53317960D01*
X134932243Y-53295000D01*
X135097585Y-53047549D01*
X135327549Y-52817585D01*
X135597958Y-52636903D01*
X135898421Y-52512447D01*
X136016297Y-52489000D01*
X136217389Y-52449000D01*
X136542611Y-52449000D01*
X136743703Y-52489000D01*
G37*
G36*
X30063703Y-52489000D02*
G01*
X30181579Y-52512447D01*
X30482042Y-52636903D01*
X30752451Y-52817585D01*
X30982415Y-53047549D01*
X31147757Y-53295000D01*
X31163098Y-53317960D01*
X31179114Y-53356627D01*
X31275047Y-53588228D01*
X31287553Y-53618422D01*
X31351000Y-53937389D01*
X31351000Y-54262611D01*
X31331275Y-54361772D01*
X31287553Y-54581579D01*
X31163097Y-54882042D01*
X30982415Y-55152451D01*
X30752451Y-55382415D01*
X30482042Y-55563097D01*
X30181579Y-55687553D01*
X30075256Y-55708702D01*
X29862611Y-55751000D01*
X29537389Y-55751000D01*
X29324744Y-55708702D01*
X29218421Y-55687553D01*
X28917958Y-55563097D01*
X28647549Y-55382415D01*
X28417585Y-55152451D01*
X28236903Y-54882042D01*
X28112447Y-54581579D01*
X28068725Y-54361772D01*
X28049000Y-54262611D01*
X28049000Y-53937389D01*
X28112447Y-53618422D01*
X28124954Y-53588228D01*
X28220886Y-53356627D01*
X28236902Y-53317960D01*
X28252243Y-53295000D01*
X28417585Y-53047549D01*
X28647549Y-52817585D01*
X28917958Y-52636903D01*
X29218421Y-52512447D01*
X29336297Y-52489000D01*
X29537389Y-52449000D01*
X29862611Y-52449000D01*
X30063703Y-52489000D01*
G37*
G36*
X81528228Y-53791703D02*
G01*
X81683100Y-53855853D01*
X81822481Y-53948985D01*
X81941015Y-54067519D01*
X82034147Y-54206900D01*
X82098297Y-54361772D01*
X82131000Y-54526184D01*
X82131000Y-54693816D01*
X82098297Y-54858228D01*
X82034147Y-55013100D01*
X81941015Y-55152481D01*
X81822481Y-55271015D01*
X81683100Y-55364147D01*
X81528228Y-55428297D01*
X81363816Y-55461000D01*
X81196184Y-55461000D01*
X81031772Y-55428297D01*
X80876900Y-55364147D01*
X80737519Y-55271015D01*
X80618985Y-55152481D01*
X80525853Y-55013100D01*
X80461703Y-54858228D01*
X80429000Y-54693816D01*
X80429000Y-54526184D01*
X80461703Y-54361772D01*
X80525853Y-54206900D01*
X80618985Y-54067519D01*
X80737519Y-53948985D01*
X80876900Y-53855853D01*
X81031772Y-53791703D01*
X81196184Y-53759000D01*
X81363816Y-53759000D01*
X81528228Y-53791703D01*
G37*
G36*
X94228228Y-53791703D02*
G01*
X94383100Y-53855853D01*
X94522481Y-53948985D01*
X94641015Y-54067519D01*
X94734147Y-54206900D01*
X94798297Y-54361772D01*
X94831000Y-54526184D01*
X94831000Y-54693816D01*
X94798297Y-54858228D01*
X94734147Y-55013100D01*
X94641015Y-55152481D01*
X94522481Y-55271015D01*
X94383100Y-55364147D01*
X94228228Y-55428297D01*
X94063816Y-55461000D01*
X93896184Y-55461000D01*
X93731772Y-55428297D01*
X93576900Y-55364147D01*
X93437519Y-55271015D01*
X93318985Y-55152481D01*
X93225853Y-55013100D01*
X93161703Y-54858228D01*
X93129000Y-54693816D01*
X93129000Y-54526184D01*
X93161703Y-54361772D01*
X93225853Y-54206900D01*
X93318985Y-54067519D01*
X93437519Y-53948985D01*
X93576900Y-53855853D01*
X93731772Y-53791703D01*
X93896184Y-53759000D01*
X94063816Y-53759000D01*
X94228228Y-53791703D01*
G37*
G36*
X54141000Y-52646000D02*
G01*
X53976660Y-52646000D01*
X53952274Y-52648402D01*
X53928825Y-52655515D01*
X53907214Y-52667066D01*
X53888272Y-52682611D01*
X53872727Y-52701553D01*
X53861176Y-52723164D01*
X53854063Y-52746613D01*
X53851661Y-52770999D01*
X53854063Y-52795385D01*
X53861176Y-52818834D01*
X53872727Y-52840445D01*
X53888272Y-52859387D01*
X53897345Y-52867609D01*
X53974264Y-52930736D01*
X54046244Y-53018443D01*
X54061801Y-53047549D01*
X54099728Y-53118505D01*
X54099729Y-53118508D01*
X54132666Y-53227084D01*
X54143787Y-53340000D01*
X54132666Y-53452916D01*
X54100327Y-53559520D01*
X54099728Y-53561495D01*
X54085439Y-53588228D01*
X54046244Y-53661557D01*
X53974264Y-53749264D01*
X53886557Y-53821244D01*
X53821807Y-53855853D01*
X53805141Y-53864761D01*
X53784766Y-53878375D01*
X53767439Y-53895702D01*
X53753826Y-53916076D01*
X53744448Y-53938715D01*
X53739668Y-53962748D01*
X53739668Y-53987252D01*
X53744448Y-54011285D01*
X53753826Y-54033924D01*
X53767440Y-54054299D01*
X53784767Y-54071626D01*
X53805141Y-54085239D01*
X53886557Y-54128756D01*
X53974264Y-54200736D01*
X54046244Y-54288443D01*
X54079268Y-54350228D01*
X54099728Y-54388505D01*
X54099729Y-54388508D01*
X54132666Y-54497084D01*
X54143787Y-54610000D01*
X54132666Y-54722916D01*
X54099729Y-54831492D01*
X54099728Y-54831495D01*
X54086551Y-54856147D01*
X54046244Y-54931557D01*
X53974264Y-55019264D01*
X53886557Y-55091244D01*
X53822601Y-55125429D01*
X53786495Y-55144728D01*
X53786492Y-55144729D01*
X53677916Y-55177666D01*
X53593298Y-55186000D01*
X53086702Y-55186000D01*
X53002084Y-55177666D01*
X52893508Y-55144729D01*
X52893505Y-55144728D01*
X52857399Y-55125429D01*
X52793443Y-55091244D01*
X52705736Y-55019264D01*
X52633756Y-54931557D01*
X52593449Y-54856147D01*
X52580272Y-54831495D01*
X52580271Y-54831492D01*
X52547334Y-54722916D01*
X52536213Y-54610000D01*
X52547334Y-54497084D01*
X52580271Y-54388508D01*
X52580272Y-54388505D01*
X52600732Y-54350228D01*
X52633756Y-54288443D01*
X52705736Y-54200736D01*
X52793443Y-54128756D01*
X52874859Y-54085239D01*
X52895234Y-54071625D01*
X52912561Y-54054298D01*
X52926174Y-54033924D01*
X52935552Y-54011285D01*
X52940332Y-53987252D01*
X52940332Y-53962748D01*
X52935552Y-53938715D01*
X52926174Y-53916076D01*
X52912560Y-53895701D01*
X52895233Y-53878374D01*
X52874859Y-53864761D01*
X52858193Y-53855853D01*
X52793443Y-53821244D01*
X52705736Y-53749264D01*
X52633756Y-53661557D01*
X52594561Y-53588228D01*
X52580272Y-53561495D01*
X52579673Y-53559520D01*
X52547334Y-53452916D01*
X52536213Y-53340000D01*
X52547334Y-53227084D01*
X52580271Y-53118508D01*
X52580272Y-53118505D01*
X52618199Y-53047549D01*
X52633756Y-53018443D01*
X52705736Y-52930736D01*
X52782646Y-52867617D01*
X52799965Y-52850298D01*
X52813579Y-52829923D01*
X52822957Y-52807284D01*
X52827737Y-52783251D01*
X52827737Y-52758747D01*
X52822957Y-52734714D01*
X52813579Y-52712075D01*
X52799966Y-52691701D01*
X52782639Y-52674374D01*
X52762264Y-52660760D01*
X52739625Y-52651382D01*
X52715592Y-52646602D01*
X52703340Y-52646000D01*
X52539000Y-52646000D01*
X52539000Y-51494000D01*
X54141000Y-51494000D01*
X54141000Y-52646000D01*
G37*
G36*
X67558228Y-53283703D02*
G01*
X67713100Y-53347853D01*
X67852481Y-53440985D01*
X67971015Y-53559519D01*
X68064147Y-53698900D01*
X68128297Y-53853772D01*
X68161000Y-54018184D01*
X68161000Y-54185816D01*
X68128297Y-54350228D01*
X68064147Y-54505100D01*
X67971015Y-54644481D01*
X67852481Y-54763015D01*
X67713100Y-54856147D01*
X67558228Y-54920297D01*
X67393816Y-54953000D01*
X67226184Y-54953000D01*
X67061772Y-54920297D01*
X66906900Y-54856147D01*
X66767519Y-54763015D01*
X66648985Y-54644481D01*
X66555853Y-54505100D01*
X66491703Y-54350228D01*
X66459000Y-54185816D01*
X66459000Y-54018184D01*
X66491703Y-53853772D01*
X66555853Y-53698900D01*
X66648985Y-53559519D01*
X66767519Y-53440985D01*
X66906900Y-53347853D01*
X67061772Y-53283703D01*
X67226184Y-53251000D01*
X67393816Y-53251000D01*
X67558228Y-53283703D01*
G37*
G36*
X59938228Y-53283703D02*
G01*
X60093100Y-53347853D01*
X60232481Y-53440985D01*
X60351015Y-53559519D01*
X60444147Y-53698900D01*
X60508297Y-53853772D01*
X60541000Y-54018184D01*
X60541000Y-54185816D01*
X60508297Y-54350228D01*
X60444147Y-54505100D01*
X60351015Y-54644481D01*
X60232481Y-54763015D01*
X60093100Y-54856147D01*
X59938228Y-54920297D01*
X59773816Y-54953000D01*
X59606184Y-54953000D01*
X59441772Y-54920297D01*
X59286900Y-54856147D01*
X59147519Y-54763015D01*
X59028985Y-54644481D01*
X58935853Y-54505100D01*
X58871703Y-54350228D01*
X58839000Y-54185816D01*
X58839000Y-54018184D01*
X58871703Y-53853772D01*
X58935853Y-53698900D01*
X59028985Y-53559519D01*
X59147519Y-53440985D01*
X59286900Y-53347853D01*
X59441772Y-53283703D01*
X59606184Y-53251000D01*
X59773816Y-53251000D01*
X59938228Y-53283703D01*
G37*
G36*
X96768228Y-52521703D02*
G01*
X96923100Y-52585853D01*
X97062481Y-52678985D01*
X97181015Y-52797519D01*
X97274147Y-52936900D01*
X97338297Y-53091772D01*
X97371000Y-53256184D01*
X97371000Y-53423816D01*
X97338297Y-53588228D01*
X97274147Y-53743100D01*
X97181015Y-53882481D01*
X97062481Y-54001015D01*
X96923100Y-54094147D01*
X96768228Y-54158297D01*
X96603816Y-54191000D01*
X96436184Y-54191000D01*
X96271772Y-54158297D01*
X96116900Y-54094147D01*
X95977519Y-54001015D01*
X95858985Y-53882481D01*
X95765853Y-53743100D01*
X95701703Y-53588228D01*
X95669000Y-53423816D01*
X95669000Y-53256184D01*
X95701703Y-53091772D01*
X95765853Y-52936900D01*
X95858985Y-52797519D01*
X95977519Y-52678985D01*
X96116900Y-52585853D01*
X96271772Y-52521703D01*
X96436184Y-52489000D01*
X96603816Y-52489000D01*
X96768228Y-52521703D01*
G37*
G36*
X107531000Y-54191000D02*
G01*
X105829000Y-54191000D01*
X105829000Y-52489000D01*
X107531000Y-52489000D01*
X107531000Y-54191000D01*
G37*
G36*
X113265442Y-52285518D02*
G01*
X113331627Y-52292037D01*
X113501466Y-52343557D01*
X113657991Y-52427222D01*
X113684527Y-52449000D01*
X113795186Y-52539814D01*
X113874863Y-52636902D01*
X113907778Y-52677009D01*
X113907779Y-52677011D01*
X113982918Y-52817584D01*
X113991443Y-52833534D01*
X114042963Y-53003373D01*
X114060359Y-53180000D01*
X114042963Y-53356627D01*
X113991443Y-53526466D01*
X113991442Y-53526468D01*
X113958430Y-53588228D01*
X113907778Y-53682991D01*
X113894719Y-53698903D01*
X113795186Y-53820186D01*
X113724281Y-53878375D01*
X113657991Y-53932778D01*
X113501466Y-54016443D01*
X113331627Y-54067963D01*
X113265442Y-54074482D01*
X113199260Y-54081000D01*
X112860740Y-54081000D01*
X112794558Y-54074482D01*
X112728373Y-54067963D01*
X112558534Y-54016443D01*
X112402009Y-53932778D01*
X112335719Y-53878375D01*
X112264814Y-53820186D01*
X112165281Y-53698903D01*
X112152222Y-53682991D01*
X112101570Y-53588228D01*
X112068558Y-53526468D01*
X112068557Y-53526466D01*
X112017037Y-53356627D01*
X111999641Y-53180000D01*
X112017037Y-53003373D01*
X112068557Y-52833534D01*
X112077083Y-52817584D01*
X112152221Y-52677011D01*
X112152222Y-52677009D01*
X112185137Y-52636902D01*
X112264814Y-52539814D01*
X112375473Y-52449000D01*
X112402009Y-52427222D01*
X112558534Y-52343557D01*
X112728373Y-52292037D01*
X112794557Y-52285519D01*
X112860740Y-52279000D01*
X113199260Y-52279000D01*
X113265442Y-52285518D01*
G37*
G36*
X121558600Y-52188989D02*
G01*
X121591652Y-52199015D01*
X121622103Y-52215292D01*
X121648799Y-52237201D01*
X121670708Y-52263897D01*
X121686985Y-52294348D01*
X121697011Y-52327400D01*
X121701000Y-52367903D01*
X121701000Y-53804097D01*
X121697011Y-53844600D01*
X121686985Y-53877652D01*
X121670708Y-53908103D01*
X121648799Y-53934799D01*
X121622103Y-53956708D01*
X121591652Y-53972985D01*
X121558600Y-53983011D01*
X121518097Y-53987000D01*
X119781903Y-53987000D01*
X119741400Y-53983011D01*
X119708348Y-53972985D01*
X119677897Y-53956708D01*
X119651201Y-53934799D01*
X119629292Y-53908103D01*
X119613015Y-53877652D01*
X119602989Y-53844600D01*
X119599000Y-53804097D01*
X119599000Y-52367903D01*
X119602989Y-52327400D01*
X119613015Y-52294348D01*
X119629292Y-52263897D01*
X119651201Y-52237201D01*
X119677897Y-52215292D01*
X119708348Y-52199015D01*
X119741400Y-52188989D01*
X119781903Y-52185000D01*
X121518097Y-52185000D01*
X121558600Y-52188989D01*
G37*
G36*
X44310000Y-53945000D02*
G01*
X42570000Y-53945000D01*
X42570000Y-47655000D01*
X44310000Y-47655000D01*
X44310000Y-53945000D01*
G37*
G36*
X38710000Y-53945000D02*
G01*
X36970000Y-53945000D01*
X36970000Y-47655000D01*
X38710000Y-47655000D01*
X38710000Y-53945000D01*
G37*
G36*
X73773512Y-51681927D02*
G01*
X73922812Y-51711624D01*
X74086784Y-51779544D01*
X74234354Y-51878147D01*
X74359853Y-52003646D01*
X74458456Y-52151216D01*
X74526376Y-52315188D01*
X74548660Y-52427221D01*
X74561000Y-52489258D01*
X74561000Y-52666742D01*
X74559482Y-52674374D01*
X74526376Y-52840812D01*
X74458456Y-53004784D01*
X74359853Y-53152354D01*
X74234354Y-53277853D01*
X74086784Y-53376456D01*
X73922812Y-53444376D01*
X73773512Y-53474073D01*
X73748742Y-53479000D01*
X73571258Y-53479000D01*
X73546488Y-53474073D01*
X73397188Y-53444376D01*
X73233216Y-53376456D01*
X73085646Y-53277853D01*
X72960147Y-53152354D01*
X72861544Y-53004784D01*
X72793624Y-52840812D01*
X72760518Y-52674374D01*
X72759000Y-52666742D01*
X72759000Y-52489258D01*
X72771340Y-52427221D01*
X72793624Y-52315188D01*
X72861544Y-52151216D01*
X72960147Y-52003646D01*
X73085646Y-51878147D01*
X73233216Y-51779544D01*
X73397188Y-51711624D01*
X73546488Y-51681927D01*
X73571258Y-51677000D01*
X73748742Y-51677000D01*
X73773512Y-51681927D01*
G37*
G36*
X76313512Y-51681927D02*
G01*
X76462812Y-51711624D01*
X76626784Y-51779544D01*
X76774354Y-51878147D01*
X76899853Y-52003646D01*
X76998456Y-52151216D01*
X77066376Y-52315188D01*
X77088660Y-52427221D01*
X77101000Y-52489258D01*
X77101000Y-52666742D01*
X77099482Y-52674374D01*
X77066376Y-52840812D01*
X76998456Y-53004784D01*
X76899853Y-53152354D01*
X76774354Y-53277853D01*
X76626784Y-53376456D01*
X76462812Y-53444376D01*
X76313512Y-53474073D01*
X76288742Y-53479000D01*
X76111258Y-53479000D01*
X76086488Y-53474073D01*
X75937188Y-53444376D01*
X75773216Y-53376456D01*
X75625646Y-53277853D01*
X75500147Y-53152354D01*
X75401544Y-53004784D01*
X75333624Y-52840812D01*
X75300518Y-52674374D01*
X75299000Y-52666742D01*
X75299000Y-52489258D01*
X75311340Y-52427221D01*
X75333624Y-52315188D01*
X75401544Y-52151216D01*
X75500147Y-52003646D01*
X75625646Y-51878147D01*
X75773216Y-51779544D01*
X75937188Y-51711624D01*
X76086488Y-51681927D01*
X76111258Y-51677000D01*
X76288742Y-51677000D01*
X76313512Y-51681927D01*
G37*
G36*
X59938228Y-50743703D02*
G01*
X60093100Y-50807853D01*
X60232481Y-50900985D01*
X60351015Y-51019519D01*
X60444147Y-51158900D01*
X60508297Y-51313772D01*
X60541000Y-51478184D01*
X60541000Y-51645816D01*
X60508297Y-51810228D01*
X60444147Y-51965100D01*
X60351015Y-52104481D01*
X60232481Y-52223015D01*
X60093100Y-52316147D01*
X59938228Y-52380297D01*
X59773816Y-52413000D01*
X59606184Y-52413000D01*
X59441772Y-52380297D01*
X59286900Y-52316147D01*
X59147519Y-52223015D01*
X59028985Y-52104481D01*
X58935853Y-51965100D01*
X58871703Y-51810228D01*
X58839000Y-51645816D01*
X58839000Y-51478184D01*
X58871703Y-51313772D01*
X58935853Y-51158900D01*
X59028985Y-51019519D01*
X59147519Y-50900985D01*
X59286900Y-50807853D01*
X59441772Y-50743703D01*
X59606184Y-50711000D01*
X59773816Y-50711000D01*
X59938228Y-50743703D01*
G37*
G36*
X67558228Y-50743703D02*
G01*
X67713100Y-50807853D01*
X67852481Y-50900985D01*
X67971015Y-51019519D01*
X68064147Y-51158900D01*
X68128297Y-51313772D01*
X68161000Y-51478184D01*
X68161000Y-51645816D01*
X68128297Y-51810228D01*
X68064147Y-51965100D01*
X67971015Y-52104481D01*
X67852481Y-52223015D01*
X67713100Y-52316147D01*
X67558228Y-52380297D01*
X67393816Y-52413000D01*
X67226184Y-52413000D01*
X67061772Y-52380297D01*
X66906900Y-52316147D01*
X66767519Y-52223015D01*
X66648985Y-52104481D01*
X66555853Y-51965100D01*
X66491703Y-51810228D01*
X66459000Y-51645816D01*
X66459000Y-51478184D01*
X66491703Y-51313772D01*
X66555853Y-51158900D01*
X66648985Y-51019519D01*
X66767519Y-50900985D01*
X66906900Y-50807853D01*
X67061772Y-50743703D01*
X67226184Y-50711000D01*
X67393816Y-50711000D01*
X67558228Y-50743703D01*
G37*
G36*
X129788228Y-50703703D02*
G01*
X129943100Y-50767853D01*
X130082481Y-50860985D01*
X130201015Y-50979519D01*
X130294147Y-51118900D01*
X130358297Y-51273772D01*
X130391000Y-51438184D01*
X130391000Y-51605816D01*
X130358297Y-51770228D01*
X130294147Y-51925100D01*
X130201015Y-52064481D01*
X130082481Y-52183015D01*
X129943100Y-52276147D01*
X129788228Y-52340297D01*
X129623816Y-52373000D01*
X129456184Y-52373000D01*
X129291772Y-52340297D01*
X129136900Y-52276147D01*
X128997519Y-52183015D01*
X128878985Y-52064481D01*
X128785853Y-51925100D01*
X128721703Y-51770228D01*
X128689000Y-51605816D01*
X128689000Y-51438184D01*
X128721703Y-51273772D01*
X128785853Y-51118900D01*
X128878985Y-50979519D01*
X128997519Y-50860985D01*
X129136900Y-50767853D01*
X129291772Y-50703703D01*
X129456184Y-50671000D01*
X129623816Y-50671000D01*
X129788228Y-50703703D01*
G37*
G36*
X94228228Y-49981703D02*
G01*
X94383100Y-50045853D01*
X94522481Y-50138985D01*
X94641015Y-50257519D01*
X94734147Y-50396900D01*
X94798297Y-50551772D01*
X94831000Y-50716184D01*
X94831000Y-50883816D01*
X94798297Y-51048228D01*
X94734147Y-51203100D01*
X94641015Y-51342481D01*
X94522481Y-51461015D01*
X94383100Y-51554147D01*
X94228228Y-51618297D01*
X94063816Y-51651000D01*
X93896184Y-51651000D01*
X93731772Y-51618297D01*
X93576900Y-51554147D01*
X93437519Y-51461015D01*
X93318985Y-51342481D01*
X93225853Y-51203100D01*
X93161703Y-51048228D01*
X93129000Y-50883816D01*
X93129000Y-50716184D01*
X93161703Y-50551772D01*
X93225853Y-50396900D01*
X93318985Y-50257519D01*
X93437519Y-50138985D01*
X93576900Y-50045853D01*
X93731772Y-49981703D01*
X93896184Y-49949000D01*
X94063816Y-49949000D01*
X94228228Y-49981703D01*
G37*
G36*
X81528228Y-49981703D02*
G01*
X81683100Y-50045853D01*
X81822481Y-50138985D01*
X81941015Y-50257519D01*
X82034147Y-50396900D01*
X82098297Y-50551772D01*
X82131000Y-50716184D01*
X82131000Y-50883816D01*
X82098297Y-51048228D01*
X82034147Y-51203100D01*
X81941015Y-51342481D01*
X81822481Y-51461015D01*
X81683100Y-51554147D01*
X81528228Y-51618297D01*
X81363816Y-51651000D01*
X81196184Y-51651000D01*
X81031772Y-51618297D01*
X80876900Y-51554147D01*
X80737519Y-51461015D01*
X80618985Y-51342481D01*
X80525853Y-51203100D01*
X80461703Y-51048228D01*
X80429000Y-50883816D01*
X80429000Y-50716184D01*
X80461703Y-50551772D01*
X80525853Y-50396900D01*
X80618985Y-50257519D01*
X80737519Y-50138985D01*
X80876900Y-50045853D01*
X81031772Y-49981703D01*
X81196184Y-49949000D01*
X81363816Y-49949000D01*
X81528228Y-49981703D01*
G37*
G36*
X96768228Y-49981703D02*
G01*
X96923100Y-50045853D01*
X97062481Y-50138985D01*
X97181015Y-50257519D01*
X97274147Y-50396900D01*
X97338297Y-50551772D01*
X97371000Y-50716184D01*
X97371000Y-50883816D01*
X97338297Y-51048228D01*
X97274147Y-51203100D01*
X97181015Y-51342481D01*
X97062481Y-51461015D01*
X96923100Y-51554147D01*
X96768228Y-51618297D01*
X96603816Y-51651000D01*
X96436184Y-51651000D01*
X96271772Y-51618297D01*
X96116900Y-51554147D01*
X95977519Y-51461015D01*
X95858985Y-51342481D01*
X95765853Y-51203100D01*
X95701703Y-51048228D01*
X95669000Y-50883816D01*
X95669000Y-50716184D01*
X95701703Y-50551772D01*
X95765853Y-50396900D01*
X95858985Y-50257519D01*
X95977519Y-50138985D01*
X96116900Y-50045853D01*
X96271772Y-49981703D01*
X96436184Y-49949000D01*
X96603816Y-49949000D01*
X96768228Y-49981703D01*
G37*
G36*
X106928228Y-49981703D02*
G01*
X107083100Y-50045853D01*
X107222481Y-50138985D01*
X107341015Y-50257519D01*
X107434147Y-50396900D01*
X107498297Y-50551772D01*
X107531000Y-50716184D01*
X107531000Y-50883816D01*
X107498297Y-51048228D01*
X107434147Y-51203100D01*
X107341015Y-51342481D01*
X107222481Y-51461015D01*
X107083100Y-51554147D01*
X106928228Y-51618297D01*
X106763816Y-51651000D01*
X106596184Y-51651000D01*
X106431772Y-51618297D01*
X106276900Y-51554147D01*
X106137519Y-51461015D01*
X106018985Y-51342481D01*
X105925853Y-51203100D01*
X105861703Y-51048228D01*
X105829000Y-50883816D01*
X105829000Y-50716184D01*
X105861703Y-50551772D01*
X105925853Y-50396900D01*
X106018985Y-50257519D01*
X106137519Y-50138985D01*
X106276900Y-50045853D01*
X106431772Y-49981703D01*
X106596184Y-49949000D01*
X106763816Y-49949000D01*
X106928228Y-49981703D01*
G37*
G36*
X113265442Y-49785518D02*
G01*
X113331627Y-49792037D01*
X113501466Y-49843557D01*
X113657991Y-49927222D01*
X113680645Y-49945814D01*
X113795186Y-50039814D01*
X113866524Y-50126741D01*
X113907778Y-50177009D01*
X113991443Y-50333534D01*
X114042963Y-50503373D01*
X114060359Y-50680000D01*
X114042963Y-50856627D01*
X113991443Y-51026466D01*
X113907778Y-51182991D01*
X113891277Y-51203097D01*
X113795186Y-51320186D01*
X113693729Y-51403448D01*
X113657991Y-51432778D01*
X113501466Y-51516443D01*
X113331627Y-51567963D01*
X113265443Y-51574481D01*
X113199260Y-51581000D01*
X112860740Y-51581000D01*
X112794558Y-51574482D01*
X112728373Y-51567963D01*
X112558534Y-51516443D01*
X112402009Y-51432778D01*
X112366271Y-51403448D01*
X112264814Y-51320186D01*
X112168723Y-51203097D01*
X112152222Y-51182991D01*
X112068557Y-51026466D01*
X112017037Y-50856627D01*
X111999641Y-50680000D01*
X112017037Y-50503373D01*
X112068557Y-50333534D01*
X112152222Y-50177009D01*
X112193476Y-50126741D01*
X112264814Y-50039814D01*
X112379355Y-49945814D01*
X112402009Y-49927222D01*
X112558534Y-49843557D01*
X112728373Y-49792037D01*
X112794558Y-49785518D01*
X112860740Y-49779000D01*
X113199260Y-49779000D01*
X113265442Y-49785518D01*
G37*
G36*
X120894751Y-49689973D02*
G01*
X120976627Y-49698037D01*
X121146466Y-49749557D01*
X121302991Y-49833222D01*
X121315584Y-49843557D01*
X121440186Y-49945814D01*
X121509775Y-50030610D01*
X121552778Y-50083009D01*
X121636443Y-50239534D01*
X121687963Y-50409373D01*
X121705359Y-50586000D01*
X121687963Y-50762627D01*
X121636443Y-50932466D01*
X121636442Y-50932468D01*
X121611292Y-50979519D01*
X121552778Y-51088991D01*
X121528232Y-51118900D01*
X121440186Y-51226186D01*
X121338729Y-51309448D01*
X121302991Y-51338778D01*
X121146466Y-51422443D01*
X120976627Y-51473963D01*
X120910442Y-51480482D01*
X120844260Y-51487000D01*
X120455740Y-51487000D01*
X120389558Y-51480482D01*
X120323373Y-51473963D01*
X120153534Y-51422443D01*
X119997009Y-51338778D01*
X119961271Y-51309448D01*
X119859814Y-51226186D01*
X119771768Y-51118900D01*
X119747222Y-51088991D01*
X119688708Y-50979519D01*
X119663558Y-50932468D01*
X119663557Y-50932466D01*
X119612037Y-50762627D01*
X119594641Y-50586000D01*
X119612037Y-50409373D01*
X119663557Y-50239534D01*
X119747222Y-50083009D01*
X119790225Y-50030610D01*
X119859814Y-49945814D01*
X119984416Y-49843557D01*
X119997009Y-49833222D01*
X120153534Y-49749557D01*
X120323373Y-49698037D01*
X120405249Y-49689973D01*
X120455740Y-49685000D01*
X120844260Y-49685000D01*
X120894751Y-49689973D01*
G37*
G36*
X73773512Y-49141927D02*
G01*
X73922812Y-49171624D01*
X74086784Y-49239544D01*
X74234354Y-49338147D01*
X74359853Y-49463646D01*
X74458456Y-49611216D01*
X74526376Y-49775188D01*
X74556073Y-49924488D01*
X74560949Y-49949000D01*
X74561000Y-49949259D01*
X74561000Y-50126741D01*
X74526376Y-50300812D01*
X74458456Y-50464784D01*
X74359853Y-50612354D01*
X74234354Y-50737853D01*
X74086784Y-50836456D01*
X73922812Y-50904376D01*
X73781590Y-50932466D01*
X73748742Y-50939000D01*
X73571258Y-50939000D01*
X73538410Y-50932466D01*
X73397188Y-50904376D01*
X73233216Y-50836456D01*
X73085646Y-50737853D01*
X72960147Y-50612354D01*
X72861544Y-50464784D01*
X72793624Y-50300812D01*
X72759000Y-50126741D01*
X72759000Y-49949259D01*
X72759052Y-49949000D01*
X72763927Y-49924488D01*
X72793624Y-49775188D01*
X72861544Y-49611216D01*
X72960147Y-49463646D01*
X73085646Y-49338147D01*
X73233216Y-49239544D01*
X73397188Y-49171624D01*
X73546488Y-49141927D01*
X73571258Y-49137000D01*
X73748742Y-49137000D01*
X73773512Y-49141927D01*
G37*
G36*
X76313512Y-49141927D02*
G01*
X76462812Y-49171624D01*
X76626784Y-49239544D01*
X76774354Y-49338147D01*
X76899853Y-49463646D01*
X76998456Y-49611216D01*
X77066376Y-49775188D01*
X77096073Y-49924488D01*
X77100949Y-49949000D01*
X77101000Y-49949259D01*
X77101000Y-50126741D01*
X77066376Y-50300812D01*
X76998456Y-50464784D01*
X76899853Y-50612354D01*
X76774354Y-50737853D01*
X76626784Y-50836456D01*
X76462812Y-50904376D01*
X76321590Y-50932466D01*
X76288742Y-50939000D01*
X76111258Y-50939000D01*
X76078410Y-50932466D01*
X75937188Y-50904376D01*
X75773216Y-50836456D01*
X75625646Y-50737853D01*
X75500147Y-50612354D01*
X75401544Y-50464784D01*
X75333624Y-50300812D01*
X75299000Y-50126741D01*
X75299000Y-49949259D01*
X75299052Y-49949000D01*
X75303927Y-49924488D01*
X75333624Y-49775188D01*
X75401544Y-49611216D01*
X75500147Y-49463646D01*
X75625646Y-49338147D01*
X75773216Y-49239544D01*
X75937188Y-49171624D01*
X76086488Y-49141927D01*
X76111258Y-49137000D01*
X76288742Y-49137000D01*
X76313512Y-49141927D01*
G37*
G36*
X137466564Y-48009389D02*
G01*
X137635716Y-48079454D01*
X137657835Y-48088616D01*
X137829973Y-48203635D01*
X137976365Y-48350027D01*
X138062890Y-48479520D01*
X138091385Y-48522167D01*
X138170611Y-48713436D01*
X138211000Y-48916484D01*
X138211000Y-49123516D01*
X138170611Y-49326564D01*
X138091385Y-49517833D01*
X138091384Y-49517835D01*
X137976365Y-49689973D01*
X137829973Y-49836365D01*
X137657835Y-49951384D01*
X137657834Y-49951385D01*
X137657833Y-49951385D01*
X137466564Y-50030611D01*
X137263516Y-50071000D01*
X137056484Y-50071000D01*
X136853436Y-50030611D01*
X136662167Y-49951385D01*
X136662166Y-49951385D01*
X136662165Y-49951384D01*
X136490027Y-49836365D01*
X136343635Y-49689973D01*
X136228616Y-49517835D01*
X136228615Y-49517833D01*
X136149389Y-49326564D01*
X136109000Y-49123516D01*
X136109000Y-48916484D01*
X136149389Y-48713436D01*
X136228615Y-48522167D01*
X136257111Y-48479520D01*
X136343635Y-48350027D01*
X136490027Y-48203635D01*
X136662165Y-48088616D01*
X136684284Y-48079454D01*
X136853436Y-48009389D01*
X137056484Y-47969000D01*
X137263516Y-47969000D01*
X137466564Y-48009389D01*
G37*
G36*
X67558228Y-48203703D02*
G01*
X67713100Y-48267853D01*
X67852481Y-48360985D01*
X67971015Y-48479519D01*
X68064147Y-48618900D01*
X68128297Y-48773772D01*
X68161000Y-48938184D01*
X68161000Y-49105816D01*
X68128297Y-49270228D01*
X68064147Y-49425100D01*
X67971015Y-49564481D01*
X67852481Y-49683015D01*
X67713100Y-49776147D01*
X67558228Y-49840297D01*
X67393816Y-49873000D01*
X67226184Y-49873000D01*
X67061772Y-49840297D01*
X66906900Y-49776147D01*
X66767519Y-49683015D01*
X66648985Y-49564481D01*
X66555853Y-49425100D01*
X66491703Y-49270228D01*
X66459000Y-49105816D01*
X66459000Y-48938184D01*
X66491703Y-48773772D01*
X66555853Y-48618900D01*
X66648985Y-48479519D01*
X66767519Y-48360985D01*
X66906900Y-48267853D01*
X67061772Y-48203703D01*
X67226184Y-48171000D01*
X67393816Y-48171000D01*
X67558228Y-48203703D01*
G37*
G36*
X59938228Y-48203703D02*
G01*
X60093100Y-48267853D01*
X60232481Y-48360985D01*
X60351015Y-48479519D01*
X60444147Y-48618900D01*
X60508297Y-48773772D01*
X60541000Y-48938184D01*
X60541000Y-49105816D01*
X60508297Y-49270228D01*
X60444147Y-49425100D01*
X60351015Y-49564481D01*
X60232481Y-49683015D01*
X60093100Y-49776147D01*
X59938228Y-49840297D01*
X59773816Y-49873000D01*
X59606184Y-49873000D01*
X59441772Y-49840297D01*
X59286900Y-49776147D01*
X59147519Y-49683015D01*
X59028985Y-49564481D01*
X58935853Y-49425100D01*
X58871703Y-49270228D01*
X58839000Y-49105816D01*
X58839000Y-48938184D01*
X58871703Y-48773772D01*
X58935853Y-48618900D01*
X59028985Y-48479519D01*
X59147519Y-48360985D01*
X59286900Y-48267853D01*
X59441772Y-48203703D01*
X59606184Y-48171000D01*
X59773816Y-48171000D01*
X59938228Y-48203703D01*
G37*
G36*
X130391000Y-49873000D02*
G01*
X128689000Y-49873000D01*
X128689000Y-48171000D01*
X130391000Y-48171000D01*
X130391000Y-49873000D01*
G37*
G36*
X31562345Y-47343442D02*
G01*
X31652548Y-47352326D01*
X31826157Y-47404990D01*
X31986156Y-47490511D01*
X32002782Y-47504156D01*
X32126397Y-47605603D01*
X32184999Y-47677011D01*
X32241489Y-47745844D01*
X32327010Y-47905843D01*
X32379674Y-48079452D01*
X32397456Y-48260000D01*
X32379674Y-48440548D01*
X32327010Y-48614157D01*
X32241489Y-48774156D01*
X32205729Y-48817729D01*
X32126397Y-48914397D01*
X32029729Y-48993729D01*
X31986156Y-49029489D01*
X31826157Y-49115010D01*
X31652548Y-49167674D01*
X31562345Y-49176558D01*
X31517245Y-49181000D01*
X30966755Y-49181000D01*
X30921655Y-49176558D01*
X30831452Y-49167674D01*
X30657843Y-49115010D01*
X30497844Y-49029489D01*
X30454271Y-48993729D01*
X30357603Y-48914397D01*
X30278271Y-48817729D01*
X30242511Y-48774156D01*
X30156990Y-48614157D01*
X30104326Y-48440548D01*
X30086544Y-48260000D01*
X30104326Y-48079452D01*
X30156990Y-47905843D01*
X30242511Y-47745844D01*
X30299001Y-47677011D01*
X30357603Y-47605603D01*
X30481218Y-47504156D01*
X30497844Y-47490511D01*
X30657843Y-47404990D01*
X30831452Y-47352326D01*
X30921655Y-47343442D01*
X30966755Y-47339000D01*
X31517245Y-47339000D01*
X31562345Y-47343442D01*
G37*
G36*
X113265442Y-47285518D02*
G01*
X113331627Y-47292037D01*
X113501466Y-47343557D01*
X113657991Y-47427222D01*
X113693729Y-47456552D01*
X113795186Y-47539814D01*
X113878448Y-47641271D01*
X113907778Y-47677009D01*
X113991443Y-47833534D01*
X114042963Y-48003373D01*
X114060359Y-48180000D01*
X114042963Y-48356627D01*
X113991443Y-48526466D01*
X113907778Y-48682991D01*
X113882793Y-48713435D01*
X113795186Y-48820186D01*
X113693729Y-48903448D01*
X113657991Y-48932778D01*
X113501466Y-49016443D01*
X113331627Y-49067963D01*
X113265442Y-49074482D01*
X113199260Y-49081000D01*
X112860740Y-49081000D01*
X112794558Y-49074482D01*
X112728373Y-49067963D01*
X112558534Y-49016443D01*
X112402009Y-48932778D01*
X112366271Y-48903448D01*
X112264814Y-48820186D01*
X112177207Y-48713435D01*
X112152222Y-48682991D01*
X112068557Y-48526466D01*
X112017037Y-48356627D01*
X111999641Y-48180000D01*
X112017037Y-48003373D01*
X112068557Y-47833534D01*
X112152222Y-47677009D01*
X112181552Y-47641271D01*
X112264814Y-47539814D01*
X112366271Y-47456552D01*
X112402009Y-47427222D01*
X112558534Y-47343557D01*
X112728373Y-47292037D01*
X112794558Y-47285518D01*
X112860740Y-47279000D01*
X113199260Y-47279000D01*
X113265442Y-47285518D01*
G37*
G36*
X74561000Y-48399000D02*
G01*
X72759000Y-48399000D01*
X72759000Y-46597000D01*
X74561000Y-46597000D01*
X74561000Y-48399000D01*
G37*
G36*
X76313512Y-46601927D02*
G01*
X76462812Y-46631624D01*
X76626784Y-46699544D01*
X76774354Y-46798147D01*
X76899853Y-46923646D01*
X76998456Y-47071216D01*
X77066376Y-47235188D01*
X77101000Y-47409259D01*
X77101000Y-47586741D01*
X77066376Y-47760812D01*
X76998456Y-47924784D01*
X76899853Y-48072354D01*
X76774354Y-48197853D01*
X76626784Y-48296456D01*
X76462812Y-48364376D01*
X76313512Y-48394073D01*
X76288742Y-48399000D01*
X76111258Y-48399000D01*
X76086488Y-48394073D01*
X75937188Y-48364376D01*
X75773216Y-48296456D01*
X75625646Y-48197853D01*
X75500147Y-48072354D01*
X75401544Y-47924784D01*
X75333624Y-47760812D01*
X75299000Y-47586741D01*
X75299000Y-47409259D01*
X75333624Y-47235188D01*
X75401544Y-47071216D01*
X75500147Y-46923646D01*
X75625646Y-46798147D01*
X75773216Y-46699544D01*
X75937188Y-46631624D01*
X76086488Y-46601927D01*
X76111258Y-46597000D01*
X76288742Y-46597000D01*
X76313512Y-46601927D01*
G37*
G36*
X53660345Y-46073442D02*
G01*
X53750548Y-46082326D01*
X53924157Y-46134990D01*
X54084156Y-46220511D01*
X54102850Y-46235853D01*
X54224397Y-46335603D01*
X54303729Y-46432271D01*
X54339489Y-46475844D01*
X54425010Y-46635843D01*
X54477674Y-46809452D01*
X54495456Y-46990000D01*
X54477674Y-47170548D01*
X54425010Y-47344157D01*
X54339489Y-47504156D01*
X54316244Y-47532480D01*
X54224397Y-47644397D01*
X54127729Y-47723729D01*
X54084156Y-47759489D01*
X53924157Y-47845010D01*
X53750548Y-47897674D01*
X53667625Y-47905841D01*
X53615245Y-47911000D01*
X53064755Y-47911000D01*
X53012375Y-47905841D01*
X52929452Y-47897674D01*
X52755843Y-47845010D01*
X52595844Y-47759489D01*
X52552271Y-47723729D01*
X52455603Y-47644397D01*
X52363756Y-47532480D01*
X52340511Y-47504156D01*
X52254990Y-47344157D01*
X52202326Y-47170548D01*
X52184544Y-46990000D01*
X52202326Y-46809452D01*
X52254990Y-46635843D01*
X52340511Y-46475844D01*
X52376271Y-46432271D01*
X52455603Y-46335603D01*
X52577150Y-46235853D01*
X52595844Y-46220511D01*
X52755843Y-46134990D01*
X52929452Y-46082326D01*
X53019655Y-46073442D01*
X53064755Y-46069000D01*
X53615245Y-46069000D01*
X53660345Y-46073442D01*
G37*
G36*
X81528228Y-46171703D02*
G01*
X81683100Y-46235853D01*
X81822481Y-46328985D01*
X81941015Y-46447519D01*
X82034147Y-46586900D01*
X82098297Y-46741772D01*
X82131000Y-46906184D01*
X82131000Y-47073816D01*
X82098297Y-47238228D01*
X82034147Y-47393100D01*
X81941015Y-47532481D01*
X81822481Y-47651015D01*
X81683100Y-47744147D01*
X81528228Y-47808297D01*
X81363816Y-47841000D01*
X81196184Y-47841000D01*
X81031772Y-47808297D01*
X80876900Y-47744147D01*
X80737519Y-47651015D01*
X80618985Y-47532481D01*
X80525853Y-47393100D01*
X80461703Y-47238228D01*
X80429000Y-47073816D01*
X80429000Y-46906184D01*
X80461703Y-46741772D01*
X80525853Y-46586900D01*
X80618985Y-46447519D01*
X80737519Y-46328985D01*
X80876900Y-46235853D01*
X81031772Y-46171703D01*
X81196184Y-46139000D01*
X81363816Y-46139000D01*
X81528228Y-46171703D01*
G37*
G36*
X94228228Y-46171703D02*
G01*
X94383100Y-46235853D01*
X94522481Y-46328985D01*
X94641015Y-46447519D01*
X94734147Y-46586900D01*
X94798297Y-46741772D01*
X94831000Y-46906184D01*
X94831000Y-47073816D01*
X94798297Y-47238228D01*
X94734147Y-47393100D01*
X94641015Y-47532481D01*
X94522481Y-47651015D01*
X94383100Y-47744147D01*
X94228228Y-47808297D01*
X94063816Y-47841000D01*
X93896184Y-47841000D01*
X93731772Y-47808297D01*
X93576900Y-47744147D01*
X93437519Y-47651015D01*
X93318985Y-47532481D01*
X93225853Y-47393100D01*
X93161703Y-47238228D01*
X93129000Y-47073816D01*
X93129000Y-46906184D01*
X93161703Y-46741772D01*
X93225853Y-46586900D01*
X93318985Y-46447519D01*
X93437519Y-46328985D01*
X93576900Y-46235853D01*
X93731772Y-46171703D01*
X93896184Y-46139000D01*
X94063816Y-46139000D01*
X94228228Y-46171703D01*
G37*
G36*
X137466564Y-45469389D02*
G01*
X137635716Y-45539454D01*
X137657835Y-45548616D01*
X137829973Y-45663635D01*
X137976365Y-45810027D01*
X138082072Y-45968228D01*
X138091385Y-45982167D01*
X138170611Y-46173436D01*
X138211000Y-46376484D01*
X138211000Y-46583516D01*
X138170611Y-46786564D01*
X138091385Y-46977833D01*
X138091384Y-46977835D01*
X137976365Y-47149973D01*
X137829973Y-47296365D01*
X137657835Y-47411384D01*
X137657834Y-47411385D01*
X137657833Y-47411385D01*
X137466564Y-47490611D01*
X137263516Y-47531000D01*
X137056484Y-47531000D01*
X136853436Y-47490611D01*
X136662167Y-47411385D01*
X136662166Y-47411385D01*
X136662165Y-47411384D01*
X136490027Y-47296365D01*
X136343635Y-47149973D01*
X136228616Y-46977835D01*
X136228615Y-46977833D01*
X136149389Y-46786564D01*
X136109000Y-46583516D01*
X136109000Y-46376484D01*
X136149389Y-46173436D01*
X136228615Y-45982167D01*
X136237929Y-45968228D01*
X136343635Y-45810027D01*
X136490027Y-45663635D01*
X136662165Y-45548616D01*
X136684284Y-45539454D01*
X136853436Y-45469389D01*
X137056484Y-45429000D01*
X137263516Y-45429000D01*
X137466564Y-45469389D01*
G37*
G36*
X60541000Y-47333000D02*
G01*
X58839000Y-47333000D01*
X58839000Y-45631000D01*
X60541000Y-45631000D01*
X60541000Y-47333000D01*
G37*
G36*
X67558228Y-45663703D02*
G01*
X67713100Y-45727853D01*
X67852481Y-45820985D01*
X67971015Y-45939519D01*
X68064147Y-46078900D01*
X68128297Y-46233772D01*
X68161000Y-46398184D01*
X68161000Y-46565816D01*
X68128297Y-46730228D01*
X68064147Y-46885100D01*
X67971015Y-47024481D01*
X67852481Y-47143015D01*
X67713100Y-47236147D01*
X67558228Y-47300297D01*
X67393816Y-47333000D01*
X67226184Y-47333000D01*
X67061772Y-47300297D01*
X66906900Y-47236147D01*
X66767519Y-47143015D01*
X66648985Y-47024481D01*
X66555853Y-46885100D01*
X66491703Y-46730228D01*
X66459000Y-46565816D01*
X66459000Y-46398184D01*
X66491703Y-46233772D01*
X66555853Y-46078900D01*
X66648985Y-45939519D01*
X66767519Y-45820985D01*
X66906900Y-45727853D01*
X67061772Y-45663703D01*
X67226184Y-45631000D01*
X67393816Y-45631000D01*
X67558228Y-45663703D01*
G37*
G36*
X31562345Y-44803442D02*
G01*
X31652548Y-44812326D01*
X31826157Y-44864990D01*
X31986156Y-44950511D01*
X32004850Y-44965853D01*
X32126397Y-45065603D01*
X32205729Y-45162271D01*
X32241489Y-45205844D01*
X32327010Y-45365843D01*
X32379674Y-45539452D01*
X32397456Y-45720000D01*
X32379674Y-45900548D01*
X32327010Y-46074157D01*
X32241489Y-46234156D01*
X32240096Y-46235853D01*
X32126397Y-46374397D01*
X32055257Y-46432779D01*
X31986156Y-46489489D01*
X31826157Y-46575010D01*
X31652548Y-46627674D01*
X31569625Y-46635841D01*
X31517245Y-46641000D01*
X30966755Y-46641000D01*
X30914375Y-46635841D01*
X30831452Y-46627674D01*
X30657843Y-46575010D01*
X30497844Y-46489489D01*
X30428743Y-46432779D01*
X30357603Y-46374397D01*
X30243904Y-46235853D01*
X30242511Y-46234156D01*
X30156990Y-46074157D01*
X30104326Y-45900548D01*
X30086544Y-45720000D01*
X30104326Y-45539452D01*
X30156990Y-45365843D01*
X30242511Y-45205844D01*
X30278271Y-45162271D01*
X30357603Y-45065603D01*
X30479150Y-44965853D01*
X30497844Y-44950511D01*
X30657843Y-44864990D01*
X30831452Y-44812326D01*
X30921655Y-44803442D01*
X30966755Y-44799000D01*
X31517245Y-44799000D01*
X31562345Y-44803442D01*
G37*
G36*
X113265442Y-44785518D02*
G01*
X113331627Y-44792037D01*
X113501466Y-44843557D01*
X113657991Y-44927222D01*
X113693729Y-44956552D01*
X113795186Y-45039814D01*
X113878448Y-45141271D01*
X113907778Y-45177009D01*
X113907779Y-45177011D01*
X113982554Y-45316903D01*
X113991443Y-45333534D01*
X114042963Y-45503373D01*
X114060359Y-45680000D01*
X114042963Y-45856627D01*
X113991443Y-46026466D01*
X113907778Y-46182991D01*
X113878448Y-46218729D01*
X113795186Y-46320186D01*
X113693729Y-46403448D01*
X113657991Y-46432778D01*
X113501466Y-46516443D01*
X113331627Y-46567963D01*
X113265442Y-46574482D01*
X113199260Y-46581000D01*
X112860740Y-46581000D01*
X112794558Y-46574482D01*
X112728373Y-46567963D01*
X112558534Y-46516443D01*
X112402009Y-46432778D01*
X112366271Y-46403448D01*
X112264814Y-46320186D01*
X112181552Y-46218729D01*
X112152222Y-46182991D01*
X112068557Y-46026466D01*
X112017037Y-45856627D01*
X111999641Y-45680000D01*
X112017037Y-45503373D01*
X112068557Y-45333534D01*
X112077447Y-45316903D01*
X112152221Y-45177011D01*
X112152222Y-45177009D01*
X112181552Y-45141271D01*
X112264814Y-45039814D01*
X112366271Y-44956552D01*
X112402009Y-44927222D01*
X112558534Y-44843557D01*
X112728373Y-44792037D01*
X112794557Y-44785519D01*
X112860740Y-44779000D01*
X113199260Y-44779000D01*
X113265442Y-44785518D01*
G37*
G36*
X96768228Y-44901703D02*
G01*
X96923100Y-44965853D01*
X97062481Y-45058985D01*
X97181015Y-45177519D01*
X97274147Y-45316900D01*
X97338297Y-45471772D01*
X97371000Y-45636184D01*
X97371000Y-45803816D01*
X97338297Y-45968228D01*
X97274147Y-46123100D01*
X97181015Y-46262481D01*
X97062481Y-46381015D01*
X96923100Y-46474147D01*
X96768228Y-46538297D01*
X96603816Y-46571000D01*
X96436184Y-46571000D01*
X96271772Y-46538297D01*
X96116900Y-46474147D01*
X95977519Y-46381015D01*
X95858985Y-46262481D01*
X95765853Y-46123100D01*
X95701703Y-45968228D01*
X95669000Y-45803816D01*
X95669000Y-45636184D01*
X95701703Y-45471772D01*
X95765853Y-45316900D01*
X95858985Y-45177519D01*
X95977519Y-45058985D01*
X96116900Y-44965853D01*
X96271772Y-44901703D01*
X96436184Y-44869000D01*
X96603816Y-44869000D01*
X96768228Y-44901703D01*
G37*
G36*
X107531000Y-46571000D02*
G01*
X105829000Y-46571000D01*
X105829000Y-44869000D01*
X107531000Y-44869000D01*
X107531000Y-46571000D01*
G37*
G36*
X53660345Y-43533442D02*
G01*
X53750548Y-43542326D01*
X53924157Y-43594990D01*
X54084156Y-43680511D01*
X54100782Y-43694156D01*
X54224397Y-43795603D01*
X54300205Y-43887977D01*
X54339489Y-43935844D01*
X54400051Y-44049148D01*
X54420325Y-44087077D01*
X54425010Y-44095843D01*
X54477674Y-44269452D01*
X54495456Y-44450000D01*
X54477674Y-44630548D01*
X54425010Y-44804157D01*
X54339489Y-44964156D01*
X54303729Y-45007729D01*
X54224397Y-45104397D01*
X54135918Y-45177009D01*
X54084156Y-45219489D01*
X53924157Y-45305010D01*
X53750548Y-45357674D01*
X53667625Y-45365841D01*
X53615245Y-45371000D01*
X53064755Y-45371000D01*
X53012375Y-45365841D01*
X52929452Y-45357674D01*
X52755843Y-45305010D01*
X52595844Y-45219489D01*
X52544082Y-45177009D01*
X52455603Y-45104397D01*
X52376271Y-45007729D01*
X52340511Y-44964156D01*
X52254990Y-44804157D01*
X52202326Y-44630548D01*
X52184544Y-44450000D01*
X52202326Y-44269452D01*
X52254990Y-44095843D01*
X52259676Y-44087077D01*
X52279949Y-44049148D01*
X52340511Y-43935844D01*
X52379795Y-43887977D01*
X52455603Y-43795603D01*
X52579218Y-43694156D01*
X52595844Y-43680511D01*
X52755843Y-43594990D01*
X52929452Y-43542326D01*
X53019655Y-43533442D01*
X53064755Y-43529000D01*
X53615245Y-43529000D01*
X53660345Y-43533442D01*
G37*
G36*
X138211000Y-44991000D02*
G01*
X136109000Y-44991000D01*
X136109000Y-42889000D01*
X138211000Y-42889000D01*
X138211000Y-44991000D01*
G37*
G36*
X127502228Y-43123703D02*
G01*
X127657100Y-43187853D01*
X127796481Y-43280985D01*
X127915015Y-43399519D01*
X128008147Y-43538900D01*
X128072297Y-43693772D01*
X128105000Y-43858184D01*
X128105000Y-44025816D01*
X128072297Y-44190228D01*
X128008147Y-44345100D01*
X127915015Y-44484481D01*
X127796481Y-44603015D01*
X127657100Y-44696147D01*
X127502228Y-44760297D01*
X127337816Y-44793000D01*
X127170184Y-44793000D01*
X127005772Y-44760297D01*
X126850900Y-44696147D01*
X126711519Y-44603015D01*
X126592985Y-44484481D01*
X126499853Y-44345100D01*
X126435703Y-44190228D01*
X126403000Y-44025816D01*
X126403000Y-43858184D01*
X126435703Y-43693772D01*
X126499853Y-43538900D01*
X126592985Y-43399519D01*
X126711519Y-43280985D01*
X126850900Y-43187853D01*
X127005772Y-43123703D01*
X127170184Y-43091000D01*
X127337816Y-43091000D01*
X127502228Y-43123703D01*
G37*
G36*
X132502228Y-43123703D02*
G01*
X132657100Y-43187853D01*
X132796481Y-43280985D01*
X132915015Y-43399519D01*
X133008147Y-43538900D01*
X133072297Y-43693772D01*
X133105000Y-43858184D01*
X133105000Y-44025816D01*
X133072297Y-44190228D01*
X133008147Y-44345100D01*
X132915015Y-44484481D01*
X132796481Y-44603015D01*
X132657100Y-44696147D01*
X132502228Y-44760297D01*
X132337816Y-44793000D01*
X132170184Y-44793000D01*
X132005772Y-44760297D01*
X131850900Y-44696147D01*
X131711519Y-44603015D01*
X131592985Y-44484481D01*
X131499853Y-44345100D01*
X131435703Y-44190228D01*
X131403000Y-44025816D01*
X131403000Y-43858184D01*
X131435703Y-43693772D01*
X131499853Y-43538900D01*
X131592985Y-43399519D01*
X131711519Y-43280985D01*
X131850900Y-43187853D01*
X132005772Y-43123703D01*
X132170184Y-43091000D01*
X132337816Y-43091000D01*
X132502228Y-43123703D01*
G37*
G36*
X32251561Y-42262966D02*
G01*
X32284383Y-42272923D01*
X32314632Y-42289092D01*
X32341148Y-42310852D01*
X32362908Y-42337368D01*
X32379077Y-42367617D01*
X32389034Y-42400439D01*
X32393000Y-42440713D01*
X32393000Y-43919287D01*
X32389034Y-43959561D01*
X32379077Y-43992383D01*
X32362908Y-44022632D01*
X32341148Y-44049148D01*
X32314632Y-44070908D01*
X32284383Y-44087077D01*
X32251561Y-44097034D01*
X32211287Y-44101000D01*
X30272713Y-44101000D01*
X30232439Y-44097034D01*
X30199617Y-44087077D01*
X30169368Y-44070908D01*
X30142852Y-44049148D01*
X30121092Y-44022632D01*
X30104923Y-43992383D01*
X30094966Y-43959561D01*
X30091000Y-43919287D01*
X30091000Y-42440713D01*
X30094966Y-42400439D01*
X30104923Y-42367617D01*
X30121092Y-42337368D01*
X30142852Y-42310852D01*
X30169368Y-42289092D01*
X30199617Y-42272923D01*
X30232439Y-42262966D01*
X30272713Y-42259000D01*
X32211287Y-42259000D01*
X32251561Y-42262966D01*
G37*
G36*
X40955512Y-42262966D02*
G01*
X41050548Y-42272326D01*
X41224157Y-42324990D01*
X41384156Y-42410511D01*
X41402850Y-42425853D01*
X41524397Y-42525603D01*
X41603729Y-42622271D01*
X41639489Y-42665844D01*
X41725010Y-42825843D01*
X41777674Y-42999452D01*
X41795456Y-43180000D01*
X41777674Y-43360548D01*
X41725010Y-43534157D01*
X41639489Y-43694156D01*
X41616244Y-43722480D01*
X41524397Y-43834397D01*
X41446777Y-43898097D01*
X41384156Y-43949489D01*
X41224157Y-44035010D01*
X41050548Y-44087674D01*
X40967625Y-44095841D01*
X40915245Y-44101000D01*
X40364755Y-44101000D01*
X40312375Y-44095841D01*
X40229452Y-44087674D01*
X40055843Y-44035010D01*
X39895844Y-43949489D01*
X39833223Y-43898097D01*
X39755603Y-43834397D01*
X39663756Y-43722480D01*
X39640511Y-43694156D01*
X39554990Y-43534157D01*
X39502326Y-43360548D01*
X39484544Y-43180000D01*
X39502326Y-42999452D01*
X39554990Y-42825843D01*
X39640511Y-42665844D01*
X39676271Y-42622271D01*
X39755603Y-42525603D01*
X39877150Y-42425853D01*
X39895844Y-42410511D01*
X40055843Y-42324990D01*
X40229452Y-42272326D01*
X40324488Y-42262966D01*
X40364755Y-42259000D01*
X40915245Y-42259000D01*
X40955512Y-42262966D01*
G37*
G36*
X113913600Y-42282989D02*
G01*
X113946652Y-42293015D01*
X113977103Y-42309292D01*
X114003799Y-42331201D01*
X114025708Y-42357897D01*
X114041985Y-42388348D01*
X114052011Y-42421400D01*
X114056000Y-42461903D01*
X114056000Y-43898097D01*
X114052011Y-43938600D01*
X114041985Y-43971652D01*
X114025708Y-44002103D01*
X114003799Y-44028799D01*
X113977103Y-44050708D01*
X113946652Y-44066985D01*
X113913600Y-44077011D01*
X113873097Y-44081000D01*
X112186903Y-44081000D01*
X112146400Y-44077011D01*
X112113348Y-44066985D01*
X112082897Y-44050708D01*
X112056201Y-44028799D01*
X112034292Y-44002103D01*
X112018015Y-43971652D01*
X112007989Y-43938600D01*
X112004000Y-43898097D01*
X112004000Y-42461903D01*
X112007989Y-42421400D01*
X112018015Y-42388348D01*
X112034292Y-42357897D01*
X112056201Y-42331201D01*
X112082897Y-42309292D01*
X112113348Y-42293015D01*
X112146400Y-42282989D01*
X112186903Y-42279000D01*
X113873097Y-42279000D01*
X113913600Y-42282989D01*
G37*
G36*
X94228228Y-42361703D02*
G01*
X94383100Y-42425853D01*
X94522481Y-42518985D01*
X94641015Y-42637519D01*
X94734147Y-42776900D01*
X94798297Y-42931772D01*
X94831000Y-43096184D01*
X94831000Y-43263816D01*
X94798297Y-43428228D01*
X94734147Y-43583100D01*
X94641015Y-43722481D01*
X94522481Y-43841015D01*
X94383100Y-43934147D01*
X94228228Y-43998297D01*
X94063816Y-44031000D01*
X93896184Y-44031000D01*
X93731772Y-43998297D01*
X93576900Y-43934147D01*
X93437519Y-43841015D01*
X93318985Y-43722481D01*
X93225853Y-43583100D01*
X93161703Y-43428228D01*
X93129000Y-43263816D01*
X93129000Y-43096184D01*
X93161703Y-42931772D01*
X93225853Y-42776900D01*
X93318985Y-42637519D01*
X93437519Y-42518985D01*
X93576900Y-42425853D01*
X93731772Y-42361703D01*
X93896184Y-42329000D01*
X94063816Y-42329000D01*
X94228228Y-42361703D01*
G37*
G36*
X96768228Y-42361703D02*
G01*
X96923100Y-42425853D01*
X97062481Y-42518985D01*
X97181015Y-42637519D01*
X97274147Y-42776900D01*
X97338297Y-42931772D01*
X97371000Y-43096184D01*
X97371000Y-43263816D01*
X97338297Y-43428228D01*
X97274147Y-43583100D01*
X97181015Y-43722481D01*
X97062481Y-43841015D01*
X96923100Y-43934147D01*
X96768228Y-43998297D01*
X96603816Y-44031000D01*
X96436184Y-44031000D01*
X96271772Y-43998297D01*
X96116900Y-43934147D01*
X95977519Y-43841015D01*
X95858985Y-43722481D01*
X95765853Y-43583100D01*
X95701703Y-43428228D01*
X95669000Y-43263816D01*
X95669000Y-43096184D01*
X95701703Y-42931772D01*
X95765853Y-42776900D01*
X95858985Y-42637519D01*
X95977519Y-42518985D01*
X96116900Y-42425853D01*
X96271772Y-42361703D01*
X96436184Y-42329000D01*
X96603816Y-42329000D01*
X96768228Y-42361703D01*
G37*
G36*
X81528228Y-42361703D02*
G01*
X81683100Y-42425853D01*
X81822481Y-42518985D01*
X81941015Y-42637519D01*
X82034147Y-42776900D01*
X82098297Y-42931772D01*
X82131000Y-43096184D01*
X82131000Y-43263816D01*
X82098297Y-43428228D01*
X82034147Y-43583100D01*
X81941015Y-43722481D01*
X81822481Y-43841015D01*
X81683100Y-43934147D01*
X81528228Y-43998297D01*
X81363816Y-44031000D01*
X81196184Y-44031000D01*
X81031772Y-43998297D01*
X80876900Y-43934147D01*
X80737519Y-43841015D01*
X80618985Y-43722481D01*
X80525853Y-43583100D01*
X80461703Y-43428228D01*
X80429000Y-43263816D01*
X80429000Y-43096184D01*
X80461703Y-42931772D01*
X80525853Y-42776900D01*
X80618985Y-42637519D01*
X80737519Y-42518985D01*
X80876900Y-42425853D01*
X81031772Y-42361703D01*
X81196184Y-42329000D01*
X81363816Y-42329000D01*
X81528228Y-42361703D01*
G37*
G36*
X106928228Y-42361703D02*
G01*
X107083100Y-42425853D01*
X107222481Y-42518985D01*
X107341015Y-42637519D01*
X107434147Y-42776900D01*
X107498297Y-42931772D01*
X107531000Y-43096184D01*
X107531000Y-43263816D01*
X107498297Y-43428228D01*
X107434147Y-43583100D01*
X107341015Y-43722481D01*
X107222481Y-43841015D01*
X107083100Y-43934147D01*
X106928228Y-43998297D01*
X106763816Y-44031000D01*
X106596184Y-44031000D01*
X106431772Y-43998297D01*
X106276900Y-43934147D01*
X106137519Y-43841015D01*
X106018985Y-43722481D01*
X105925853Y-43583100D01*
X105861703Y-43428228D01*
X105829000Y-43263816D01*
X105829000Y-43096184D01*
X105861703Y-42931772D01*
X105925853Y-42776900D01*
X106018985Y-42637519D01*
X106137519Y-42518985D01*
X106276900Y-42425853D01*
X106431772Y-42361703D01*
X106596184Y-42329000D01*
X106763816Y-42329000D01*
X106928228Y-42361703D01*
G37*
G36*
X53660345Y-40993442D02*
G01*
X53750548Y-41002326D01*
X53924157Y-41054990D01*
X54084156Y-41140511D01*
X54102850Y-41155853D01*
X54224397Y-41255603D01*
X54303729Y-41352271D01*
X54339489Y-41395844D01*
X54425010Y-41555843D01*
X54477674Y-41729452D01*
X54495456Y-41910000D01*
X54477674Y-42090548D01*
X54425010Y-42264157D01*
X54425009Y-42264159D01*
X54417076Y-42279000D01*
X54339489Y-42424156D01*
X54303729Y-42467729D01*
X54224397Y-42564397D01*
X54135296Y-42637519D01*
X54084156Y-42679489D01*
X53924157Y-42765010D01*
X53750548Y-42817674D01*
X53667625Y-42825841D01*
X53615245Y-42831000D01*
X53064755Y-42831000D01*
X53012375Y-42825841D01*
X52929452Y-42817674D01*
X52755843Y-42765010D01*
X52595844Y-42679489D01*
X52544704Y-42637519D01*
X52455603Y-42564397D01*
X52376271Y-42467729D01*
X52340511Y-42424156D01*
X52262924Y-42279000D01*
X52254991Y-42264159D01*
X52254990Y-42264157D01*
X52202326Y-42090548D01*
X52184544Y-41910000D01*
X52202326Y-41729452D01*
X52254990Y-41555843D01*
X52340511Y-41395844D01*
X52376271Y-41352271D01*
X52455603Y-41255603D01*
X52577150Y-41155853D01*
X52595844Y-41140511D01*
X52755843Y-41054990D01*
X52929452Y-41002326D01*
X53019655Y-40993442D01*
X53064755Y-40989000D01*
X53615245Y-40989000D01*
X53660345Y-40993442D01*
G37*
G36*
X67558228Y-41091703D02*
G01*
X67713100Y-41155853D01*
X67852481Y-41248985D01*
X67971015Y-41367519D01*
X68064147Y-41506900D01*
X68128297Y-41661772D01*
X68161000Y-41826184D01*
X68161000Y-41993816D01*
X68128297Y-42158228D01*
X68064147Y-42313100D01*
X67971015Y-42452481D01*
X67852481Y-42571015D01*
X67713100Y-42664147D01*
X67558228Y-42728297D01*
X67393816Y-42761000D01*
X67226184Y-42761000D01*
X67061772Y-42728297D01*
X66906900Y-42664147D01*
X66767519Y-42571015D01*
X66648985Y-42452481D01*
X66555853Y-42313100D01*
X66491703Y-42158228D01*
X66459000Y-41993816D01*
X66459000Y-41826184D01*
X66491703Y-41661772D01*
X66555853Y-41506900D01*
X66648985Y-41367519D01*
X66767519Y-41248985D01*
X66906900Y-41155853D01*
X67061772Y-41091703D01*
X67226184Y-41059000D01*
X67393816Y-41059000D01*
X67558228Y-41091703D01*
G37*
G36*
X59938228Y-41091703D02*
G01*
X60093100Y-41155853D01*
X60232481Y-41248985D01*
X60351015Y-41367519D01*
X60444147Y-41506900D01*
X60508297Y-41661772D01*
X60541000Y-41826184D01*
X60541000Y-41993816D01*
X60508297Y-42158228D01*
X60444147Y-42313100D01*
X60351015Y-42452481D01*
X60232481Y-42571015D01*
X60093100Y-42664147D01*
X59938228Y-42728297D01*
X59773816Y-42761000D01*
X59606184Y-42761000D01*
X59441772Y-42728297D01*
X59286900Y-42664147D01*
X59147519Y-42571015D01*
X59028985Y-42452481D01*
X58935853Y-42313100D01*
X58871703Y-42158228D01*
X58839000Y-41993816D01*
X58839000Y-41826184D01*
X58871703Y-41661772D01*
X58935853Y-41506900D01*
X59028985Y-41367519D01*
X59147519Y-41248985D01*
X59286900Y-41155853D01*
X59441772Y-41091703D01*
X59606184Y-41059000D01*
X59773816Y-41059000D01*
X59938228Y-41091703D01*
G37*
G36*
X40960345Y-39723442D02*
G01*
X41050548Y-39732326D01*
X41224157Y-39784990D01*
X41384156Y-39870511D01*
X41402850Y-39885853D01*
X41524397Y-39985603D01*
X41603729Y-40082271D01*
X41639489Y-40125844D01*
X41725010Y-40285843D01*
X41777674Y-40459452D01*
X41795456Y-40640000D01*
X41777674Y-40820548D01*
X41725010Y-40994157D01*
X41639489Y-41154156D01*
X41638096Y-41155853D01*
X41524397Y-41294397D01*
X41435296Y-41367519D01*
X41384156Y-41409489D01*
X41224157Y-41495010D01*
X41050548Y-41547674D01*
X40967625Y-41555841D01*
X40915245Y-41561000D01*
X40364755Y-41561000D01*
X40312375Y-41555841D01*
X40229452Y-41547674D01*
X40055843Y-41495010D01*
X39895844Y-41409489D01*
X39844704Y-41367519D01*
X39755603Y-41294397D01*
X39641904Y-41155853D01*
X39640511Y-41154156D01*
X39554990Y-40994157D01*
X39502326Y-40820548D01*
X39484544Y-40640000D01*
X39502326Y-40459452D01*
X39554990Y-40285843D01*
X39640511Y-40125844D01*
X39676271Y-40082271D01*
X39755603Y-39985603D01*
X39877150Y-39885853D01*
X39895844Y-39870511D01*
X40055843Y-39784990D01*
X40229452Y-39732326D01*
X40319655Y-39723442D01*
X40364755Y-39719000D01*
X40915245Y-39719000D01*
X40960345Y-39723442D01*
G37*
G36*
X47238228Y-39821703D02*
G01*
X47393100Y-39885853D01*
X47532481Y-39978985D01*
X47651015Y-40097519D01*
X47744147Y-40236900D01*
X47808297Y-40391772D01*
X47841000Y-40556184D01*
X47841000Y-40723816D01*
X47808297Y-40888228D01*
X47744147Y-41043100D01*
X47651015Y-41182481D01*
X47532481Y-41301015D01*
X47393100Y-41394147D01*
X47238228Y-41458297D01*
X47073816Y-41491000D01*
X46906184Y-41491000D01*
X46741772Y-41458297D01*
X46586900Y-41394147D01*
X46447519Y-41301015D01*
X46328985Y-41182481D01*
X46235853Y-41043100D01*
X46171703Y-40888228D01*
X46139000Y-40723816D01*
X46139000Y-40556184D01*
X46171703Y-40391772D01*
X46235853Y-40236900D01*
X46328985Y-40097519D01*
X46447519Y-39978985D01*
X46586900Y-39885853D01*
X46741772Y-39821703D01*
X46906184Y-39789000D01*
X47073816Y-39789000D01*
X47238228Y-39821703D01*
G37*
G36*
X76437142Y-39096242D02*
G01*
X76585101Y-39157529D01*
X76718255Y-39246499D01*
X76831501Y-39359745D01*
X76920471Y-39492899D01*
X76981758Y-39640858D01*
X77013000Y-39797925D01*
X77013000Y-39958075D01*
X76981758Y-40115142D01*
X76920471Y-40263101D01*
X76831501Y-40396255D01*
X76718255Y-40509501D01*
X76585101Y-40598471D01*
X76437142Y-40659758D01*
X76280075Y-40691000D01*
X76119925Y-40691000D01*
X75962858Y-40659758D01*
X75814899Y-40598471D01*
X75681745Y-40509501D01*
X75568499Y-40396255D01*
X75479529Y-40263101D01*
X75418242Y-40115142D01*
X75387000Y-39958075D01*
X75387000Y-39797925D01*
X75418242Y-39640858D01*
X75479529Y-39492899D01*
X75568499Y-39359745D01*
X75681745Y-39246499D01*
X75814899Y-39157529D01*
X75962858Y-39096242D01*
X76119925Y-39065000D01*
X76280075Y-39065000D01*
X76437142Y-39096242D01*
G37*
G36*
X73897142Y-39096242D02*
G01*
X74045101Y-39157529D01*
X74178255Y-39246499D01*
X74291501Y-39359745D01*
X74380471Y-39492899D01*
X74441758Y-39640858D01*
X74473000Y-39797925D01*
X74473000Y-39958075D01*
X74441758Y-40115142D01*
X74380471Y-40263101D01*
X74291501Y-40396255D01*
X74178255Y-40509501D01*
X74045101Y-40598471D01*
X73897142Y-40659758D01*
X73740075Y-40691000D01*
X73579925Y-40691000D01*
X73422858Y-40659758D01*
X73274899Y-40598471D01*
X73141745Y-40509501D01*
X73028499Y-40396255D01*
X72939529Y-40263101D01*
X72878242Y-40115142D01*
X72847000Y-39958075D01*
X72847000Y-39797925D01*
X72878242Y-39640858D01*
X72939529Y-39492899D01*
X73028499Y-39359745D01*
X73141745Y-39246499D01*
X73274899Y-39157529D01*
X73422858Y-39096242D01*
X73579925Y-39065000D01*
X73740075Y-39065000D01*
X73897142Y-39096242D01*
G37*
G36*
X53660345Y-38453442D02*
G01*
X53750548Y-38462326D01*
X53924157Y-38514990D01*
X54084156Y-38600511D01*
X54102850Y-38615853D01*
X54224397Y-38715603D01*
X54303729Y-38812271D01*
X54339489Y-38855844D01*
X54425010Y-39015843D01*
X54477674Y-39189452D01*
X54495456Y-39370000D01*
X54477674Y-39550548D01*
X54425010Y-39724157D01*
X54339489Y-39884156D01*
X54338096Y-39885853D01*
X54224397Y-40024397D01*
X54135296Y-40097519D01*
X54084156Y-40139489D01*
X53924157Y-40225010D01*
X53750548Y-40277674D01*
X53667625Y-40285841D01*
X53615245Y-40291000D01*
X53064755Y-40291000D01*
X53012375Y-40285841D01*
X52929452Y-40277674D01*
X52755843Y-40225010D01*
X52595844Y-40139489D01*
X52544704Y-40097519D01*
X52455603Y-40024397D01*
X52341904Y-39885853D01*
X52340511Y-39884156D01*
X52254990Y-39724157D01*
X52202326Y-39550548D01*
X52184544Y-39370000D01*
X52202326Y-39189452D01*
X52254990Y-39015843D01*
X52340511Y-38855844D01*
X52376271Y-38812271D01*
X52455603Y-38715603D01*
X52577150Y-38615853D01*
X52595844Y-38600511D01*
X52755843Y-38514990D01*
X52929452Y-38462326D01*
X53019655Y-38453442D01*
X53064755Y-38449000D01*
X53615245Y-38449000D01*
X53660345Y-38453442D01*
G37*
G36*
X67558228Y-38551703D02*
G01*
X67713100Y-38615853D01*
X67852481Y-38708985D01*
X67971015Y-38827519D01*
X68064147Y-38966900D01*
X68128297Y-39121772D01*
X68161000Y-39286184D01*
X68161000Y-39453816D01*
X68128297Y-39618228D01*
X68064147Y-39773100D01*
X67971015Y-39912481D01*
X67852481Y-40031015D01*
X67713100Y-40124147D01*
X67558228Y-40188297D01*
X67393816Y-40221000D01*
X67226184Y-40221000D01*
X67061772Y-40188297D01*
X66906900Y-40124147D01*
X66767519Y-40031015D01*
X66648985Y-39912481D01*
X66555853Y-39773100D01*
X66491703Y-39618228D01*
X66459000Y-39453816D01*
X66459000Y-39286184D01*
X66491703Y-39121772D01*
X66555853Y-38966900D01*
X66648985Y-38827519D01*
X66767519Y-38708985D01*
X66906900Y-38615853D01*
X67061772Y-38551703D01*
X67226184Y-38519000D01*
X67393816Y-38519000D01*
X67558228Y-38551703D01*
G37*
G36*
X59938228Y-38551703D02*
G01*
X60093100Y-38615853D01*
X60232481Y-38708985D01*
X60351015Y-38827519D01*
X60444147Y-38966900D01*
X60508297Y-39121772D01*
X60541000Y-39286184D01*
X60541000Y-39453816D01*
X60508297Y-39618228D01*
X60444147Y-39773100D01*
X60351015Y-39912481D01*
X60232481Y-40031015D01*
X60093100Y-40124147D01*
X59938228Y-40188297D01*
X59773816Y-40221000D01*
X59606184Y-40221000D01*
X59441772Y-40188297D01*
X59286900Y-40124147D01*
X59147519Y-40031015D01*
X59028985Y-39912481D01*
X58935853Y-39773100D01*
X58871703Y-39618228D01*
X58839000Y-39453816D01*
X58839000Y-39286184D01*
X58871703Y-39121772D01*
X58935853Y-38966900D01*
X59028985Y-38827519D01*
X59147519Y-38708985D01*
X59286900Y-38615853D01*
X59441772Y-38551703D01*
X59606184Y-38519000D01*
X59773816Y-38519000D01*
X59938228Y-38551703D01*
G37*
G36*
X94228228Y-38551703D02*
G01*
X94383100Y-38615853D01*
X94522481Y-38708985D01*
X94641015Y-38827519D01*
X94734147Y-38966900D01*
X94798297Y-39121772D01*
X94831000Y-39286184D01*
X94831000Y-39453816D01*
X94798297Y-39618228D01*
X94734147Y-39773100D01*
X94641015Y-39912481D01*
X94522481Y-40031015D01*
X94383100Y-40124147D01*
X94228228Y-40188297D01*
X94063816Y-40221000D01*
X93896184Y-40221000D01*
X93731772Y-40188297D01*
X93576900Y-40124147D01*
X93437519Y-40031015D01*
X93318985Y-39912481D01*
X93225853Y-39773100D01*
X93161703Y-39618228D01*
X93129000Y-39453816D01*
X93129000Y-39286184D01*
X93161703Y-39121772D01*
X93225853Y-38966900D01*
X93318985Y-38827519D01*
X93437519Y-38708985D01*
X93576900Y-38615853D01*
X93731772Y-38551703D01*
X93896184Y-38519000D01*
X94063816Y-38519000D01*
X94228228Y-38551703D01*
G37*
G36*
X81528228Y-38551703D02*
G01*
X81683100Y-38615853D01*
X81822481Y-38708985D01*
X81941015Y-38827519D01*
X82034147Y-38966900D01*
X82098297Y-39121772D01*
X82131000Y-39286184D01*
X82131000Y-39453816D01*
X82098297Y-39618228D01*
X82034147Y-39773100D01*
X81941015Y-39912481D01*
X81822481Y-40031015D01*
X81683100Y-40124147D01*
X81528228Y-40188297D01*
X81363816Y-40221000D01*
X81196184Y-40221000D01*
X81031772Y-40188297D01*
X80876900Y-40124147D01*
X80737519Y-40031015D01*
X80618985Y-39912481D01*
X80525853Y-39773100D01*
X80461703Y-39618228D01*
X80429000Y-39453816D01*
X80429000Y-39286184D01*
X80461703Y-39121772D01*
X80525853Y-38966900D01*
X80618985Y-38827519D01*
X80737519Y-38708985D01*
X80876900Y-38615853D01*
X81031772Y-38551703D01*
X81196184Y-38519000D01*
X81363816Y-38519000D01*
X81528228Y-38551703D01*
G37*
G36*
X40960345Y-37183442D02*
G01*
X41050548Y-37192326D01*
X41224157Y-37244990D01*
X41384156Y-37330511D01*
X41400782Y-37344156D01*
X41524397Y-37445603D01*
X41603729Y-37542271D01*
X41639489Y-37585844D01*
X41725010Y-37745843D01*
X41777674Y-37919452D01*
X41795456Y-38100000D01*
X41777674Y-38280548D01*
X41725010Y-38454157D01*
X41639489Y-38614156D01*
X41638096Y-38615853D01*
X41524397Y-38754397D01*
X41435296Y-38827519D01*
X41384156Y-38869489D01*
X41224157Y-38955010D01*
X41050548Y-39007674D01*
X40967625Y-39015841D01*
X40915245Y-39021000D01*
X40364755Y-39021000D01*
X40312375Y-39015841D01*
X40229452Y-39007674D01*
X40055843Y-38955010D01*
X39895844Y-38869489D01*
X39844704Y-38827519D01*
X39755603Y-38754397D01*
X39641904Y-38615853D01*
X39640511Y-38614156D01*
X39554990Y-38454157D01*
X39502326Y-38280548D01*
X39484544Y-38100000D01*
X39502326Y-37919452D01*
X39554990Y-37745843D01*
X39640511Y-37585844D01*
X39676271Y-37542271D01*
X39755603Y-37445603D01*
X39879218Y-37344156D01*
X39895844Y-37330511D01*
X40055843Y-37244990D01*
X40229452Y-37192326D01*
X40319655Y-37183442D01*
X40364755Y-37179000D01*
X40915245Y-37179000D01*
X40960345Y-37183442D01*
G37*
G36*
X134183543Y-34704990D02*
G01*
X134321579Y-34732447D01*
X134622042Y-34856903D01*
X134892451Y-35037585D01*
X135122415Y-35267549D01*
X135261821Y-35476185D01*
X135303098Y-35537960D01*
X135310647Y-35556185D01*
X135415047Y-35808228D01*
X135427553Y-35838422D01*
X135491000Y-36157389D01*
X135491000Y-36482611D01*
X135471275Y-36581772D01*
X135427553Y-36801579D01*
X135303097Y-37102042D01*
X135122415Y-37372451D01*
X134892451Y-37602415D01*
X134622042Y-37783097D01*
X134321579Y-37907553D01*
X134215256Y-37928702D01*
X134002611Y-37971000D01*
X133677389Y-37971000D01*
X133464744Y-37928702D01*
X133358421Y-37907553D01*
X133057958Y-37783097D01*
X132787549Y-37602415D01*
X132557585Y-37372451D01*
X132376903Y-37102042D01*
X132252447Y-36801579D01*
X132208725Y-36581772D01*
X132189000Y-36482611D01*
X132189000Y-36157389D01*
X132252447Y-35838422D01*
X132264954Y-35808228D01*
X132369353Y-35556185D01*
X132376902Y-35537960D01*
X132418179Y-35476185D01*
X132557585Y-35267549D01*
X132787549Y-35037585D01*
X133057958Y-34856903D01*
X133358421Y-34732447D01*
X133496457Y-34704990D01*
X133677389Y-34669000D01*
X134002611Y-34669000D01*
X134183543Y-34704990D01*
G37*
G36*
X32583543Y-34704990D02*
G01*
X32721579Y-34732447D01*
X33022042Y-34856903D01*
X33292451Y-35037585D01*
X33522415Y-35267549D01*
X33661821Y-35476185D01*
X33703098Y-35537960D01*
X33710647Y-35556185D01*
X33815047Y-35808228D01*
X33827553Y-35838422D01*
X33891000Y-36157389D01*
X33891000Y-36482611D01*
X33871275Y-36581772D01*
X33827553Y-36801579D01*
X33703097Y-37102042D01*
X33522415Y-37372451D01*
X33292451Y-37602415D01*
X33022042Y-37783097D01*
X32721579Y-37907553D01*
X32615256Y-37928702D01*
X32402611Y-37971000D01*
X32077389Y-37971000D01*
X31864744Y-37928702D01*
X31758421Y-37907553D01*
X31457958Y-37783097D01*
X31187549Y-37602415D01*
X30957585Y-37372451D01*
X30776903Y-37102042D01*
X30652447Y-36801579D01*
X30608725Y-36581772D01*
X30589000Y-36482611D01*
X30589000Y-36157389D01*
X30652447Y-35838422D01*
X30664954Y-35808228D01*
X30769353Y-35556185D01*
X30776902Y-35537960D01*
X30818179Y-35476185D01*
X30957585Y-35267549D01*
X31187549Y-35037585D01*
X31457958Y-34856903D01*
X31758421Y-34732447D01*
X31896457Y-34704990D01*
X32077389Y-34669000D01*
X32402611Y-34669000D01*
X32583543Y-34704990D01*
G37*
G36*
X53660345Y-35913442D02*
G01*
X53750548Y-35922326D01*
X53924157Y-35974990D01*
X54084156Y-36060511D01*
X54102850Y-36075853D01*
X54224397Y-36175603D01*
X54303729Y-36272271D01*
X54339489Y-36315844D01*
X54425010Y-36475843D01*
X54477674Y-36649452D01*
X54495456Y-36830000D01*
X54477674Y-37010548D01*
X54425010Y-37184157D01*
X54339489Y-37344156D01*
X54316244Y-37372480D01*
X54224397Y-37484397D01*
X54127729Y-37563729D01*
X54084156Y-37599489D01*
X53924157Y-37685010D01*
X53750548Y-37737674D01*
X53667625Y-37745841D01*
X53615245Y-37751000D01*
X53064755Y-37751000D01*
X53012375Y-37745841D01*
X52929452Y-37737674D01*
X52755843Y-37685010D01*
X52595844Y-37599489D01*
X52552271Y-37563729D01*
X52455603Y-37484397D01*
X52363756Y-37372480D01*
X52340511Y-37344156D01*
X52254990Y-37184157D01*
X52202326Y-37010548D01*
X52184544Y-36830000D01*
X52202326Y-36649452D01*
X52254990Y-36475843D01*
X52340511Y-36315844D01*
X52376271Y-36272271D01*
X52455603Y-36175603D01*
X52577150Y-36075853D01*
X52595844Y-36060511D01*
X52755843Y-35974990D01*
X52929452Y-35922326D01*
X53019655Y-35913442D01*
X53064755Y-35909000D01*
X53615245Y-35909000D01*
X53660345Y-35913442D01*
G37*
G36*
X67558228Y-36011703D02*
G01*
X67713100Y-36075853D01*
X67852481Y-36168985D01*
X67971015Y-36287519D01*
X68064147Y-36426900D01*
X68128297Y-36581772D01*
X68161000Y-36746184D01*
X68161000Y-36913816D01*
X68128297Y-37078228D01*
X68064147Y-37233100D01*
X67971015Y-37372481D01*
X67852481Y-37491015D01*
X67713100Y-37584147D01*
X67558228Y-37648297D01*
X67393816Y-37681000D01*
X67226184Y-37681000D01*
X67061772Y-37648297D01*
X66906900Y-37584147D01*
X66767519Y-37491015D01*
X66648985Y-37372481D01*
X66555853Y-37233100D01*
X66491703Y-37078228D01*
X66459000Y-36913816D01*
X66459000Y-36746184D01*
X66491703Y-36581772D01*
X66555853Y-36426900D01*
X66648985Y-36287519D01*
X66767519Y-36168985D01*
X66906900Y-36075853D01*
X67061772Y-36011703D01*
X67226184Y-35979000D01*
X67393816Y-35979000D01*
X67558228Y-36011703D01*
G37*
G36*
X59938228Y-36011703D02*
G01*
X60093100Y-36075853D01*
X60232481Y-36168985D01*
X60351015Y-36287519D01*
X60444147Y-36426900D01*
X60508297Y-36581772D01*
X60541000Y-36746184D01*
X60541000Y-36913816D01*
X60508297Y-37078228D01*
X60444147Y-37233100D01*
X60351015Y-37372481D01*
X60232481Y-37491015D01*
X60093100Y-37584147D01*
X59938228Y-37648297D01*
X59773816Y-37681000D01*
X59606184Y-37681000D01*
X59441772Y-37648297D01*
X59286900Y-37584147D01*
X59147519Y-37491015D01*
X59028985Y-37372481D01*
X58935853Y-37233100D01*
X58871703Y-37078228D01*
X58839000Y-36913816D01*
X58839000Y-36746184D01*
X58871703Y-36581772D01*
X58935853Y-36426900D01*
X59028985Y-36287519D01*
X59147519Y-36168985D01*
X59286900Y-36075853D01*
X59441772Y-36011703D01*
X59606184Y-35979000D01*
X59773816Y-35979000D01*
X59938228Y-36011703D01*
G37*
G36*
X47238228Y-34821703D02*
G01*
X47393100Y-34885853D01*
X47532481Y-34978985D01*
X47651015Y-35097519D01*
X47744147Y-35236900D01*
X47808297Y-35391772D01*
X47841000Y-35556184D01*
X47841000Y-35723816D01*
X47808297Y-35888228D01*
X47744147Y-36043100D01*
X47651015Y-36182481D01*
X47532481Y-36301015D01*
X47393100Y-36394147D01*
X47238228Y-36458297D01*
X47073816Y-36491000D01*
X46906184Y-36491000D01*
X46741772Y-36458297D01*
X46586900Y-36394147D01*
X46447519Y-36301015D01*
X46328985Y-36182481D01*
X46235853Y-36043100D01*
X46171703Y-35888228D01*
X46139000Y-35723816D01*
X46139000Y-35556184D01*
X46171703Y-35391772D01*
X46235853Y-35236900D01*
X46328985Y-35097519D01*
X46447519Y-34978985D01*
X46586900Y-34885853D01*
X46741772Y-34821703D01*
X46906184Y-34789000D01*
X47073816Y-34789000D01*
X47238228Y-34821703D01*
G37*
G36*
X40960345Y-34643442D02*
G01*
X41050548Y-34652326D01*
X41224157Y-34704990D01*
X41384156Y-34790511D01*
X41402850Y-34805853D01*
X41524397Y-34905603D01*
X41584619Y-34978985D01*
X41639489Y-35045844D01*
X41685878Y-35132632D01*
X41720325Y-35197077D01*
X41725010Y-35205843D01*
X41777674Y-35379452D01*
X41795456Y-35560000D01*
X41777674Y-35740548D01*
X41725010Y-35914157D01*
X41639489Y-36074156D01*
X41638096Y-36075853D01*
X41524397Y-36214397D01*
X41435296Y-36287519D01*
X41384156Y-36329489D01*
X41224157Y-36415010D01*
X41050548Y-36467674D01*
X40967625Y-36475841D01*
X40915245Y-36481000D01*
X40364755Y-36481000D01*
X40312375Y-36475841D01*
X40229452Y-36467674D01*
X40055843Y-36415010D01*
X39895844Y-36329489D01*
X39844704Y-36287519D01*
X39755603Y-36214397D01*
X39641904Y-36075853D01*
X39640511Y-36074156D01*
X39554990Y-35914157D01*
X39502326Y-35740548D01*
X39484544Y-35560000D01*
X39502326Y-35379452D01*
X39554990Y-35205843D01*
X39559676Y-35197077D01*
X39594122Y-35132632D01*
X39640511Y-35045844D01*
X39695381Y-34978985D01*
X39755603Y-34905603D01*
X39877150Y-34805853D01*
X39895844Y-34790511D01*
X40055843Y-34704990D01*
X40229452Y-34652326D01*
X40319655Y-34643442D01*
X40364755Y-34639000D01*
X40915245Y-34639000D01*
X40960345Y-34643442D01*
G37*
G36*
X91688228Y-34741703D02*
G01*
X91843100Y-34805853D01*
X91982481Y-34898985D01*
X92101015Y-35017519D01*
X92194147Y-35156900D01*
X92258297Y-35311772D01*
X92291000Y-35476184D01*
X92291000Y-35643816D01*
X92258297Y-35808228D01*
X92194147Y-35963100D01*
X92101015Y-36102481D01*
X91982481Y-36221015D01*
X91843100Y-36314147D01*
X91688228Y-36378297D01*
X91523816Y-36411000D01*
X91356184Y-36411000D01*
X91191772Y-36378297D01*
X91036900Y-36314147D01*
X90897519Y-36221015D01*
X90778985Y-36102481D01*
X90685853Y-35963100D01*
X90621703Y-35808228D01*
X90589000Y-35643816D01*
X90589000Y-35476184D01*
X90621703Y-35311772D01*
X90685853Y-35156900D01*
X90778985Y-35017519D01*
X90897519Y-34898985D01*
X91036900Y-34805853D01*
X91191772Y-34741703D01*
X91356184Y-34709000D01*
X91523816Y-34709000D01*
X91688228Y-34741703D01*
G37*
G36*
X104388228Y-34741703D02*
G01*
X104543100Y-34805853D01*
X104682481Y-34898985D01*
X104801015Y-35017519D01*
X104894147Y-35156900D01*
X104958297Y-35311772D01*
X104991000Y-35476184D01*
X104991000Y-35643816D01*
X104958297Y-35808228D01*
X104894147Y-35963100D01*
X104801015Y-36102481D01*
X104682481Y-36221015D01*
X104543100Y-36314147D01*
X104388228Y-36378297D01*
X104223816Y-36411000D01*
X104056184Y-36411000D01*
X103891772Y-36378297D01*
X103736900Y-36314147D01*
X103597519Y-36221015D01*
X103478985Y-36102481D01*
X103385853Y-35963100D01*
X103321703Y-35808228D01*
X103289000Y-35643816D01*
X103289000Y-35476184D01*
X103321703Y-35311772D01*
X103385853Y-35156900D01*
X103478985Y-35017519D01*
X103597519Y-34898985D01*
X103736900Y-34805853D01*
X103891772Y-34741703D01*
X104056184Y-34709000D01*
X104223816Y-34709000D01*
X104388228Y-34741703D01*
G37*
G36*
X54349561Y-33372966D02*
G01*
X54382383Y-33382923D01*
X54412632Y-33399092D01*
X54439148Y-33420852D01*
X54460908Y-33447368D01*
X54477077Y-33477617D01*
X54487034Y-33510439D01*
X54491000Y-33550713D01*
X54491000Y-35029287D01*
X54487034Y-35069561D01*
X54477077Y-35102383D01*
X54460908Y-35132632D01*
X54439148Y-35159148D01*
X54412632Y-35180908D01*
X54382383Y-35197077D01*
X54349561Y-35207034D01*
X54309287Y-35211000D01*
X52370713Y-35211000D01*
X52330439Y-35207034D01*
X52297617Y-35197077D01*
X52267368Y-35180908D01*
X52240852Y-35159148D01*
X52219092Y-35132632D01*
X52202923Y-35102383D01*
X52192966Y-35069561D01*
X52189000Y-35029287D01*
X52189000Y-33550713D01*
X52192966Y-33510439D01*
X52202923Y-33477617D01*
X52219092Y-33447368D01*
X52240852Y-33420852D01*
X52267368Y-33399092D01*
X52297617Y-33382923D01*
X52330439Y-33372966D01*
X52370713Y-33369000D01*
X54309287Y-33369000D01*
X54349561Y-33372966D01*
G37*
G36*
X67558228Y-33471703D02*
G01*
X67713100Y-33535853D01*
X67852481Y-33628985D01*
X67971015Y-33747519D01*
X68064147Y-33886900D01*
X68128297Y-34041772D01*
X68161000Y-34206184D01*
X68161000Y-34373816D01*
X68128297Y-34538228D01*
X68064147Y-34693100D01*
X67971015Y-34832481D01*
X67852481Y-34951015D01*
X67713100Y-35044147D01*
X67558228Y-35108297D01*
X67393816Y-35141000D01*
X67226184Y-35141000D01*
X67061772Y-35108297D01*
X66906900Y-35044147D01*
X66767519Y-34951015D01*
X66648985Y-34832481D01*
X66555853Y-34693100D01*
X66491703Y-34538228D01*
X66459000Y-34373816D01*
X66459000Y-34206184D01*
X66491703Y-34041772D01*
X66555853Y-33886900D01*
X66648985Y-33747519D01*
X66767519Y-33628985D01*
X66906900Y-33535853D01*
X67061772Y-33471703D01*
X67226184Y-33439000D01*
X67393816Y-33439000D01*
X67558228Y-33471703D01*
G37*
G36*
X60541000Y-35141000D02*
G01*
X58839000Y-35141000D01*
X58839000Y-33439000D01*
X60541000Y-33439000D01*
X60541000Y-35141000D01*
G37*
G36*
X71622228Y-32883703D02*
G01*
X71777100Y-32947853D01*
X71916481Y-33040985D01*
X72035015Y-33159519D01*
X72128147Y-33298900D01*
X72192297Y-33453772D01*
X72225000Y-33618184D01*
X72225000Y-33785816D01*
X72192297Y-33950228D01*
X72128147Y-34105100D01*
X72035015Y-34244481D01*
X71916481Y-34363015D01*
X71777100Y-34456147D01*
X71622228Y-34520297D01*
X71457816Y-34553000D01*
X71290184Y-34553000D01*
X71125772Y-34520297D01*
X70970900Y-34456147D01*
X70831519Y-34363015D01*
X70712985Y-34244481D01*
X70619853Y-34105100D01*
X70555703Y-33950228D01*
X70523000Y-33785816D01*
X70523000Y-33618184D01*
X70555703Y-33453772D01*
X70619853Y-33298900D01*
X70712985Y-33159519D01*
X70831519Y-33040985D01*
X70970900Y-32947853D01*
X71125772Y-32883703D01*
X71290184Y-32851000D01*
X71457816Y-32851000D01*
X71622228Y-32883703D01*
G37*
G36*
X41649561Y-32102966D02*
G01*
X41682383Y-32112923D01*
X41712632Y-32129092D01*
X41739148Y-32150852D01*
X41760908Y-32177368D01*
X41777077Y-32207617D01*
X41787034Y-32240439D01*
X41791000Y-32280713D01*
X41791000Y-33759287D01*
X41787034Y-33799561D01*
X41777077Y-33832383D01*
X41760908Y-33862632D01*
X41739148Y-33889148D01*
X41712632Y-33910908D01*
X41682383Y-33927077D01*
X41649561Y-33937034D01*
X41609287Y-33941000D01*
X39670713Y-33941000D01*
X39630439Y-33937034D01*
X39597617Y-33927077D01*
X39567368Y-33910908D01*
X39540852Y-33889148D01*
X39519092Y-33862632D01*
X39502923Y-33832383D01*
X39492966Y-33799561D01*
X39489000Y-33759287D01*
X39489000Y-32280713D01*
X39492966Y-32240439D01*
X39502923Y-32207617D01*
X39519092Y-32177368D01*
X39540852Y-32150852D01*
X39567368Y-32129092D01*
X39597617Y-32112923D01*
X39630439Y-32102966D01*
X39670713Y-32099000D01*
X41609287Y-32099000D01*
X41649561Y-32102966D01*
G37*
G36*
X85998600Y-31868989D02*
G01*
X86031652Y-31879015D01*
X86062103Y-31895292D01*
X86088799Y-31917201D01*
X86110708Y-31943897D01*
X86126985Y-31974348D01*
X86137011Y-32007400D01*
X86141000Y-32047903D01*
X86141000Y-33484097D01*
X86137011Y-33524600D01*
X86126985Y-33557652D01*
X86110708Y-33588103D01*
X86088799Y-33614799D01*
X86062103Y-33636708D01*
X86031652Y-33652985D01*
X85998600Y-33663011D01*
X85958097Y-33667000D01*
X84221903Y-33667000D01*
X84181400Y-33663011D01*
X84148348Y-33652985D01*
X84117897Y-33636708D01*
X84091201Y-33614799D01*
X84069292Y-33588103D01*
X84053015Y-33557652D01*
X84042989Y-33524600D01*
X84039000Y-33484097D01*
X84039000Y-32047903D01*
X84042989Y-32007400D01*
X84053015Y-31974348D01*
X84069292Y-31943897D01*
X84091201Y-31917201D01*
X84117897Y-31895292D01*
X84148348Y-31879015D01*
X84181400Y-31868989D01*
X84221903Y-31865000D01*
X85958097Y-31865000D01*
X85998600Y-31868989D01*
G37*
G36*
X78378600Y-31868989D02*
G01*
X78411652Y-31879015D01*
X78442103Y-31895292D01*
X78468799Y-31917201D01*
X78490708Y-31943897D01*
X78506985Y-31974348D01*
X78517011Y-32007400D01*
X78521000Y-32047903D01*
X78521000Y-33484097D01*
X78517011Y-33524600D01*
X78506985Y-33557652D01*
X78490708Y-33588103D01*
X78468799Y-33614799D01*
X78442103Y-33636708D01*
X78411652Y-33652985D01*
X78378600Y-33663011D01*
X78338097Y-33667000D01*
X76601903Y-33667000D01*
X76561400Y-33663011D01*
X76528348Y-33652985D01*
X76497897Y-33636708D01*
X76471201Y-33614799D01*
X76449292Y-33588103D01*
X76433015Y-33557652D01*
X76422989Y-33524600D01*
X76419000Y-33484097D01*
X76419000Y-32047903D01*
X76422989Y-32007400D01*
X76433015Y-31974348D01*
X76449292Y-31943897D01*
X76471201Y-31917201D01*
X76497897Y-31895292D01*
X76528348Y-31879015D01*
X76561400Y-31868989D01*
X76601903Y-31865000D01*
X78338097Y-31865000D01*
X78378600Y-31868989D01*
G37*
G36*
X104388228Y-30931703D02*
G01*
X104543100Y-30995853D01*
X104682481Y-31088985D01*
X104801015Y-31207519D01*
X104894147Y-31346900D01*
X104958297Y-31501772D01*
X104991000Y-31666184D01*
X104991000Y-31833816D01*
X104958297Y-31998228D01*
X104894147Y-32153100D01*
X104801015Y-32292481D01*
X104682481Y-32411015D01*
X104543100Y-32504147D01*
X104388228Y-32568297D01*
X104223816Y-32601000D01*
X104056184Y-32601000D01*
X103891772Y-32568297D01*
X103736900Y-32504147D01*
X103597519Y-32411015D01*
X103478985Y-32292481D01*
X103385853Y-32153100D01*
X103321703Y-31998228D01*
X103289000Y-31833816D01*
X103289000Y-31666184D01*
X103321703Y-31501772D01*
X103385853Y-31346900D01*
X103478985Y-31207519D01*
X103597519Y-31088985D01*
X103736900Y-30995853D01*
X103891772Y-30931703D01*
X104056184Y-30899000D01*
X104223816Y-30899000D01*
X104388228Y-30931703D01*
G37*
G36*
X91688228Y-30931703D02*
G01*
X91843100Y-30995853D01*
X91982481Y-31088985D01*
X92101015Y-31207519D01*
X92194147Y-31346900D01*
X92258297Y-31501772D01*
X92291000Y-31666184D01*
X92291000Y-31833816D01*
X92258297Y-31998228D01*
X92194147Y-32153100D01*
X92101015Y-32292481D01*
X91982481Y-32411015D01*
X91843100Y-32504147D01*
X91688228Y-32568297D01*
X91523816Y-32601000D01*
X91356184Y-32601000D01*
X91191772Y-32568297D01*
X91036900Y-32504147D01*
X90897519Y-32411015D01*
X90778985Y-32292481D01*
X90685853Y-32153100D01*
X90621703Y-31998228D01*
X90589000Y-31833816D01*
X90589000Y-31666184D01*
X90621703Y-31501772D01*
X90685853Y-31346900D01*
X90778985Y-31207519D01*
X90897519Y-31088985D01*
X91036900Y-30995853D01*
X91191772Y-30931703D01*
X91356184Y-30899000D01*
X91523816Y-30899000D01*
X91688228Y-30931703D01*
G37*
G36*
X130053481Y-28950228D02*
G01*
X130246410Y-28988604D01*
X130528674Y-29105521D01*
X130782705Y-29275259D01*
X130998741Y-29491295D01*
X131168479Y-29745326D01*
X131285396Y-30027590D01*
X131345000Y-30327240D01*
X131345000Y-30632760D01*
X131285396Y-30932410D01*
X131168479Y-31214674D01*
X130998741Y-31468705D01*
X130782705Y-31684741D01*
X130528674Y-31854479D01*
X130246410Y-31971396D01*
X130111516Y-31998228D01*
X129946761Y-32031000D01*
X129641239Y-32031000D01*
X129476484Y-31998228D01*
X129341590Y-31971396D01*
X129059326Y-31854479D01*
X128805295Y-31684741D01*
X128589259Y-31468705D01*
X128419521Y-31214674D01*
X128302604Y-30932410D01*
X128243000Y-30632760D01*
X128243000Y-30327240D01*
X128302604Y-30027590D01*
X128419521Y-29745326D01*
X128589259Y-29491295D01*
X128805295Y-29275259D01*
X129059326Y-29105521D01*
X129341590Y-28988604D01*
X129534519Y-28950228D01*
X129641239Y-28929000D01*
X129946761Y-28929000D01*
X130053481Y-28950228D01*
G37*
G36*
X107453481Y-28950228D02*
G01*
X107646410Y-28988604D01*
X107928674Y-29105521D01*
X108182705Y-29275259D01*
X108398741Y-29491295D01*
X108568479Y-29745326D01*
X108685396Y-30027590D01*
X108745000Y-30327240D01*
X108745000Y-30632760D01*
X108685396Y-30932410D01*
X108568479Y-31214674D01*
X108398741Y-31468705D01*
X108182705Y-31684741D01*
X107928674Y-31854479D01*
X107646410Y-31971396D01*
X107511516Y-31998228D01*
X107346761Y-32031000D01*
X107041239Y-32031000D01*
X106876484Y-31998228D01*
X106741590Y-31971396D01*
X106459326Y-31854479D01*
X106205295Y-31684741D01*
X105989259Y-31468705D01*
X105819521Y-31214674D01*
X105702604Y-30932410D01*
X105643000Y-30632760D01*
X105643000Y-30327240D01*
X105702604Y-30027590D01*
X105819521Y-29745326D01*
X105989259Y-29491295D01*
X106205295Y-29275259D01*
X106459326Y-29105521D01*
X106741590Y-28988604D01*
X106934519Y-28950228D01*
X107041239Y-28929000D01*
X107346761Y-28929000D01*
X107453481Y-28950228D01*
G37*
G36*
X85350443Y-29371519D02*
G01*
X85416627Y-29378037D01*
X85586466Y-29429557D01*
X85586468Y-29429558D01*
X85664729Y-29471390D01*
X85742991Y-29513222D01*
X85778729Y-29542552D01*
X85880186Y-29625814D01*
X85959338Y-29722263D01*
X85992778Y-29763009D01*
X85992779Y-29763011D01*
X86074685Y-29916244D01*
X86076443Y-29919534D01*
X86127963Y-30089373D01*
X86145359Y-30266000D01*
X86127963Y-30442627D01*
X86076443Y-30612466D01*
X85992778Y-30768991D01*
X85963448Y-30804729D01*
X85880186Y-30906186D01*
X85778729Y-30989448D01*
X85742991Y-31018778D01*
X85586466Y-31102443D01*
X85416627Y-31153963D01*
X85350443Y-31160481D01*
X85284260Y-31167000D01*
X84895740Y-31167000D01*
X84829557Y-31160481D01*
X84763373Y-31153963D01*
X84593534Y-31102443D01*
X84437009Y-31018778D01*
X84401271Y-30989448D01*
X84299814Y-30906186D01*
X84216552Y-30804729D01*
X84187222Y-30768991D01*
X84103557Y-30612466D01*
X84052037Y-30442627D01*
X84034641Y-30266000D01*
X84052037Y-30089373D01*
X84103557Y-29919534D01*
X84105316Y-29916244D01*
X84187221Y-29763011D01*
X84187222Y-29763009D01*
X84220662Y-29722263D01*
X84299814Y-29625814D01*
X84401271Y-29542552D01*
X84437009Y-29513222D01*
X84515271Y-29471390D01*
X84593532Y-29429558D01*
X84593534Y-29429557D01*
X84763373Y-29378037D01*
X84829557Y-29371519D01*
X84895740Y-29365000D01*
X85284260Y-29365000D01*
X85350443Y-29371519D01*
G37*
G36*
X77730443Y-29371519D02*
G01*
X77796627Y-29378037D01*
X77966466Y-29429557D01*
X77966468Y-29429558D01*
X78044729Y-29471390D01*
X78122991Y-29513222D01*
X78158729Y-29542552D01*
X78260186Y-29625814D01*
X78339338Y-29722263D01*
X78372778Y-29763009D01*
X78372779Y-29763011D01*
X78454685Y-29916244D01*
X78456443Y-29919534D01*
X78507963Y-30089373D01*
X78525359Y-30266000D01*
X78507963Y-30442627D01*
X78456443Y-30612466D01*
X78372778Y-30768991D01*
X78343448Y-30804729D01*
X78260186Y-30906186D01*
X78158729Y-30989448D01*
X78122991Y-31018778D01*
X77966466Y-31102443D01*
X77796627Y-31153963D01*
X77730443Y-31160481D01*
X77664260Y-31167000D01*
X77275740Y-31167000D01*
X77209557Y-31160481D01*
X77143373Y-31153963D01*
X76973534Y-31102443D01*
X76817009Y-31018778D01*
X76781271Y-30989448D01*
X76679814Y-30906186D01*
X76596552Y-30804729D01*
X76567222Y-30768991D01*
X76483557Y-30612466D01*
X76432037Y-30442627D01*
X76414641Y-30266000D01*
X76432037Y-30089373D01*
X76483557Y-29919534D01*
X76485316Y-29916244D01*
X76567221Y-29763011D01*
X76567222Y-29763009D01*
X76600662Y-29722263D01*
X76679814Y-29625814D01*
X76781271Y-29542552D01*
X76817009Y-29513222D01*
X76895271Y-29471390D01*
X76973532Y-29429558D01*
X76973534Y-29429557D01*
X77143373Y-29378037D01*
X77209557Y-29371519D01*
X77275740Y-29365000D01*
X77664260Y-29365000D01*
X77730443Y-29371519D01*
G37*
G36*
X57906228Y-28391703D02*
G01*
X58061100Y-28455853D01*
X58200481Y-28548985D01*
X58319015Y-28667519D01*
X58412147Y-28806900D01*
X58476297Y-28961772D01*
X58509000Y-29126184D01*
X58509000Y-29293816D01*
X58476297Y-29458228D01*
X58412147Y-29613100D01*
X58319015Y-29752481D01*
X58200481Y-29871015D01*
X58061100Y-29964147D01*
X57906228Y-30028297D01*
X57741816Y-30061000D01*
X57574184Y-30061000D01*
X57409772Y-30028297D01*
X57254900Y-29964147D01*
X57115519Y-29871015D01*
X56996985Y-29752481D01*
X56903853Y-29613100D01*
X56839703Y-29458228D01*
X56807000Y-29293816D01*
X56807000Y-29126184D01*
X56839703Y-28961772D01*
X56903853Y-28806900D01*
X56996985Y-28667519D01*
X57115519Y-28548985D01*
X57254900Y-28455853D01*
X57409772Y-28391703D01*
X57574184Y-28359000D01*
X57741816Y-28359000D01*
X57906228Y-28391703D01*
G37*
G36*
X52906228Y-28391703D02*
G01*
X53061100Y-28455853D01*
X53200481Y-28548985D01*
X53319015Y-28667519D01*
X53412147Y-28806900D01*
X53476297Y-28961772D01*
X53509000Y-29126184D01*
X53509000Y-29293816D01*
X53476297Y-29458228D01*
X53412147Y-29613100D01*
X53319015Y-29752481D01*
X53200481Y-29871015D01*
X53061100Y-29964147D01*
X52906228Y-30028297D01*
X52741816Y-30061000D01*
X52574184Y-30061000D01*
X52409772Y-30028297D01*
X52254900Y-29964147D01*
X52115519Y-29871015D01*
X51996985Y-29752481D01*
X51903853Y-29613100D01*
X51839703Y-29458228D01*
X51807000Y-29293816D01*
X51807000Y-29126184D01*
X51839703Y-28961772D01*
X51903853Y-28806900D01*
X51996985Y-28667519D01*
X52115519Y-28548985D01*
X52254900Y-28455853D01*
X52409772Y-28391703D01*
X52574184Y-28359000D01*
X52741816Y-28359000D01*
X52906228Y-28391703D01*
G37*
G36*
X62478228Y-28391703D02*
G01*
X62633100Y-28455853D01*
X62772481Y-28548985D01*
X62891015Y-28667519D01*
X62984147Y-28806900D01*
X63048297Y-28961772D01*
X63081000Y-29126184D01*
X63081000Y-29293816D01*
X63048297Y-29458228D01*
X62984147Y-29613100D01*
X62891015Y-29752481D01*
X62772481Y-29871015D01*
X62633100Y-29964147D01*
X62478228Y-30028297D01*
X62313816Y-30061000D01*
X62146184Y-30061000D01*
X61981772Y-30028297D01*
X61826900Y-29964147D01*
X61687519Y-29871015D01*
X61568985Y-29752481D01*
X61475853Y-29613100D01*
X61411703Y-29458228D01*
X61379000Y-29293816D01*
X61379000Y-29126184D01*
X61411703Y-28961772D01*
X61475853Y-28806900D01*
X61568985Y-28667519D01*
X61687519Y-28548985D01*
X61826900Y-28455853D01*
X61981772Y-28391703D01*
X62146184Y-28359000D01*
X62313816Y-28359000D01*
X62478228Y-28391703D01*
G37*
G36*
X67478228Y-28391703D02*
G01*
X67633100Y-28455853D01*
X67772481Y-28548985D01*
X67891015Y-28667519D01*
X67984147Y-28806900D01*
X68048297Y-28961772D01*
X68081000Y-29126184D01*
X68081000Y-29293816D01*
X68048297Y-29458228D01*
X67984147Y-29613100D01*
X67891015Y-29752481D01*
X67772481Y-29871015D01*
X67633100Y-29964147D01*
X67478228Y-30028297D01*
X67313816Y-30061000D01*
X67146184Y-30061000D01*
X66981772Y-30028297D01*
X66826900Y-29964147D01*
X66687519Y-29871015D01*
X66568985Y-29752481D01*
X66475853Y-29613100D01*
X66411703Y-29458228D01*
X66379000Y-29293816D01*
X66379000Y-29126184D01*
X66411703Y-28961772D01*
X66475853Y-28806900D01*
X66568985Y-28667519D01*
X66687519Y-28548985D01*
X66826900Y-28455853D01*
X66981772Y-28391703D01*
X67146184Y-28359000D01*
X67313816Y-28359000D01*
X67478228Y-28391703D01*
G37*
G36*
X47102915Y-28417334D02*
G01*
X47211491Y-28450271D01*
X47211494Y-28450272D01*
X47247600Y-28469571D01*
X47311556Y-28503756D01*
X47399264Y-28575736D01*
X47471244Y-28663443D01*
X47505429Y-28727399D01*
X47524728Y-28763505D01*
X47524729Y-28763508D01*
X47557666Y-28872084D01*
X47566000Y-28956702D01*
X47566000Y-29463297D01*
X47557666Y-29547916D01*
X47525252Y-29654767D01*
X47524728Y-29656495D01*
X47514761Y-29675141D01*
X47471244Y-29756557D01*
X47399264Y-29844264D01*
X47311557Y-29916244D01*
X47247601Y-29950429D01*
X47211495Y-29969728D01*
X47211492Y-29969729D01*
X47102916Y-30002666D01*
X46990000Y-30013787D01*
X46877085Y-30002666D01*
X46768509Y-29969729D01*
X46768506Y-29969728D01*
X46732400Y-29950429D01*
X46668444Y-29916244D01*
X46580737Y-29844264D01*
X46508757Y-29756557D01*
X46465239Y-29675141D01*
X46451625Y-29654766D01*
X46434298Y-29637439D01*
X46413924Y-29623826D01*
X46391285Y-29614448D01*
X46367252Y-29609668D01*
X46342748Y-29609668D01*
X46318715Y-29614448D01*
X46296076Y-29623826D01*
X46275701Y-29637440D01*
X46258374Y-29654767D01*
X46244761Y-29675141D01*
X46201244Y-29756557D01*
X46129264Y-29844264D01*
X46041557Y-29916244D01*
X45977601Y-29950429D01*
X45941495Y-29969728D01*
X45941492Y-29969729D01*
X45832916Y-30002666D01*
X45720000Y-30013787D01*
X45607085Y-30002666D01*
X45498509Y-29969729D01*
X45498506Y-29969728D01*
X45462400Y-29950429D01*
X45398444Y-29916244D01*
X45310737Y-29844264D01*
X45247622Y-29767359D01*
X45230297Y-29750034D01*
X45209923Y-29736420D01*
X45187284Y-29727043D01*
X45163250Y-29722263D01*
X45138746Y-29722263D01*
X45114713Y-29727044D01*
X45092074Y-29736421D01*
X45071700Y-29750035D01*
X45054373Y-29767362D01*
X45040759Y-29787736D01*
X45031382Y-29810375D01*
X45026000Y-29846660D01*
X45026000Y-30011000D01*
X43874000Y-30011000D01*
X43874000Y-28409000D01*
X45026000Y-28409000D01*
X45026000Y-28573341D01*
X45028402Y-28597727D01*
X45035515Y-28621176D01*
X45047066Y-28642787D01*
X45062611Y-28661729D01*
X45081553Y-28677274D01*
X45103164Y-28688825D01*
X45126613Y-28695938D01*
X45150999Y-28698340D01*
X45175385Y-28695938D01*
X45198834Y-28688825D01*
X45220445Y-28677274D01*
X45239387Y-28661729D01*
X45247608Y-28652657D01*
X45310736Y-28575736D01*
X45398443Y-28503756D01*
X45462399Y-28469571D01*
X45498505Y-28450272D01*
X45498508Y-28450271D01*
X45607084Y-28417334D01*
X45720000Y-28406213D01*
X45832915Y-28417334D01*
X45941491Y-28450271D01*
X45941494Y-28450272D01*
X45977600Y-28469571D01*
X46041556Y-28503756D01*
X46129264Y-28575736D01*
X46201244Y-28663443D01*
X46244761Y-28744859D01*
X46258375Y-28765234D01*
X46275702Y-28782561D01*
X46296076Y-28796174D01*
X46318715Y-28805552D01*
X46342748Y-28810332D01*
X46367252Y-28810332D01*
X46391285Y-28805552D01*
X46413924Y-28796174D01*
X46434299Y-28782560D01*
X46451626Y-28765233D01*
X46465239Y-28744860D01*
X46508756Y-28663444D01*
X46580736Y-28575736D01*
X46668443Y-28503756D01*
X46732399Y-28469571D01*
X46768505Y-28450272D01*
X46768508Y-28450271D01*
X46877084Y-28417334D01*
X46990000Y-28406213D01*
X47102915Y-28417334D01*
G37*
G36*
X71622228Y-27883703D02*
G01*
X71777100Y-27947853D01*
X71916481Y-28040985D01*
X72035015Y-28159519D01*
X72128147Y-28298900D01*
X72192297Y-28453772D01*
X72225000Y-28618184D01*
X72225000Y-28785816D01*
X72192297Y-28950228D01*
X72128147Y-29105100D01*
X72035015Y-29244481D01*
X71916481Y-29363015D01*
X71777100Y-29456147D01*
X71622228Y-29520297D01*
X71457816Y-29553000D01*
X71290184Y-29553000D01*
X71125772Y-29520297D01*
X70970900Y-29456147D01*
X70831519Y-29363015D01*
X70712985Y-29244481D01*
X70619853Y-29105100D01*
X70555703Y-28950228D01*
X70523000Y-28785816D01*
X70523000Y-28618184D01*
X70555703Y-28453772D01*
X70619853Y-28298900D01*
X70712985Y-28159519D01*
X70831519Y-28040985D01*
X70970900Y-27947853D01*
X71125772Y-27883703D01*
X71290184Y-27851000D01*
X71457816Y-27851000D01*
X71622228Y-27883703D01*
G37*
G36*
X91688228Y-27121703D02*
G01*
X91843100Y-27185853D01*
X91982481Y-27278985D01*
X92101015Y-27397519D01*
X92194147Y-27536900D01*
X92258297Y-27691772D01*
X92291000Y-27856184D01*
X92291000Y-28023816D01*
X92258297Y-28188228D01*
X92194147Y-28343100D01*
X92101015Y-28482481D01*
X91982481Y-28601015D01*
X91843100Y-28694147D01*
X91688228Y-28758297D01*
X91523816Y-28791000D01*
X91356184Y-28791000D01*
X91191772Y-28758297D01*
X91036900Y-28694147D01*
X90897519Y-28601015D01*
X90778985Y-28482481D01*
X90685853Y-28343100D01*
X90621703Y-28188228D01*
X90589000Y-28023816D01*
X90589000Y-27856184D01*
X90621703Y-27691772D01*
X90685853Y-27536900D01*
X90778985Y-27397519D01*
X90897519Y-27278985D01*
X91036900Y-27185853D01*
X91191772Y-27121703D01*
X91356184Y-27089000D01*
X91523816Y-27089000D01*
X91688228Y-27121703D01*
G37*
G36*
X104388228Y-27121703D02*
G01*
X104543100Y-27185853D01*
X104682481Y-27278985D01*
X104801015Y-27397519D01*
X104894147Y-27536900D01*
X104958297Y-27691772D01*
X104991000Y-27856184D01*
X104991000Y-28023816D01*
X104958297Y-28188228D01*
X104894147Y-28343100D01*
X104801015Y-28482481D01*
X104682481Y-28601015D01*
X104543100Y-28694147D01*
X104388228Y-28758297D01*
X104223816Y-28791000D01*
X104056184Y-28791000D01*
X103891772Y-28758297D01*
X103736900Y-28694147D01*
X103597519Y-28601015D01*
X103478985Y-28482481D01*
X103385853Y-28343100D01*
X103321703Y-28188228D01*
X103289000Y-28023816D01*
X103289000Y-27856184D01*
X103321703Y-27691772D01*
X103385853Y-27536900D01*
X103478985Y-27397519D01*
X103597519Y-27278985D01*
X103736900Y-27185853D01*
X103891772Y-27121703D01*
X104056184Y-27089000D01*
X104223816Y-27089000D01*
X104388228Y-27121703D01*
G37*
M02*
