G04 #@! TF.GenerationSoftware,KiCad,Pcbnew,5.1.5-1.fc31*
G04 #@! TF.CreationDate,2020-04-28T16:33:23+01:00*
G04 #@! TF.ProjectId,ReversingCam_FSAV433_ATTINY85_v3.2,52657665-7273-4696-9e67-43616d5f4653,V3.2*
G04 #@! TF.SameCoordinates,Original*
G04 #@! TF.FileFunction,OtherDrawing,Comment*
%FSLAX46Y46*%
G04 Gerber Fmt 4.6, Leading zero omitted, Abs format (unit mm)*
G04 Created by KiCad (PCBNEW 5.1.5-1.fc31) date 2020-04-28 16:33:23*
%MOMM*%
%LPD*%
G04 APERTURE LIST*
%ADD10C,0.150000*%
G04 APERTURE END LIST*
D10*
X27486361Y-22774380D02*
X26914933Y-22774380D01*
X27200647Y-22774380D02*
X27200647Y-21774380D01*
X27105409Y-21917238D01*
X27010171Y-22012476D01*
X26914933Y-22060095D01*
X28105409Y-21774380D02*
X28200647Y-21774380D01*
X28295885Y-21822000D01*
X28343504Y-21869619D01*
X28391123Y-21964857D01*
X28438742Y-22155333D01*
X28438742Y-22393428D01*
X28391123Y-22583904D01*
X28343504Y-22679142D01*
X28295885Y-22726761D01*
X28200647Y-22774380D01*
X28105409Y-22774380D01*
X28010171Y-22726761D01*
X27962552Y-22679142D01*
X27914933Y-22583904D01*
X27867314Y-22393428D01*
X27867314Y-22155333D01*
X27914933Y-21964857D01*
X27962552Y-21869619D01*
X28010171Y-21822000D01*
X28105409Y-21774380D01*
X28867314Y-22679142D02*
X28914933Y-22726761D01*
X28867314Y-22774380D01*
X28819695Y-22726761D01*
X28867314Y-22679142D01*
X28867314Y-22774380D01*
X29533980Y-21774380D02*
X29629219Y-21774380D01*
X29724457Y-21822000D01*
X29772076Y-21869619D01*
X29819695Y-21964857D01*
X29867314Y-22155333D01*
X29867314Y-22393428D01*
X29819695Y-22583904D01*
X29772076Y-22679142D01*
X29724457Y-22726761D01*
X29629219Y-22774380D01*
X29533980Y-22774380D01*
X29438742Y-22726761D01*
X29391123Y-22679142D01*
X29343504Y-22583904D01*
X29295885Y-22393428D01*
X29295885Y-22155333D01*
X29343504Y-21964857D01*
X29391123Y-21869619D01*
X29438742Y-21822000D01*
X29533980Y-21774380D01*
X30486361Y-21774380D02*
X30581600Y-21774380D01*
X30676838Y-21822000D01*
X30724457Y-21869619D01*
X30772076Y-21964857D01*
X30819695Y-22155333D01*
X30819695Y-22393428D01*
X30772076Y-22583904D01*
X30724457Y-22679142D01*
X30676838Y-22726761D01*
X30581600Y-22774380D01*
X30486361Y-22774380D01*
X30391123Y-22726761D01*
X30343504Y-22679142D01*
X30295885Y-22583904D01*
X30248266Y-22393428D01*
X30248266Y-22155333D01*
X30295885Y-21964857D01*
X30343504Y-21869619D01*
X30391123Y-21822000D01*
X30486361Y-21774380D01*
X32010171Y-22774380D02*
X32010171Y-22107714D01*
X32010171Y-22202952D02*
X32057790Y-22155333D01*
X32153028Y-22107714D01*
X32295885Y-22107714D01*
X32391123Y-22155333D01*
X32438742Y-22250571D01*
X32438742Y-22774380D01*
X32438742Y-22250571D02*
X32486361Y-22155333D01*
X32581600Y-22107714D01*
X32724457Y-22107714D01*
X32819695Y-22155333D01*
X32867314Y-22250571D01*
X32867314Y-22774380D01*
X33343504Y-22774380D02*
X33343504Y-22107714D01*
X33343504Y-22202952D02*
X33391123Y-22155333D01*
X33486361Y-22107714D01*
X33629219Y-22107714D01*
X33724457Y-22155333D01*
X33772076Y-22250571D01*
X33772076Y-22774380D01*
X33772076Y-22250571D02*
X33819695Y-22155333D01*
X33914933Y-22107714D01*
X34057790Y-22107714D01*
X34153028Y-22155333D01*
X34200647Y-22250571D01*
X34200647Y-22774380D01*
X25603200Y-23622000D02*
X35560000Y-23622000D01*
X25603200Y-25298400D02*
X25603200Y-23035579D01*
X35560000Y-25298400D02*
X35560000Y-23035579D01*
X35560000Y-23622000D02*
X34433496Y-24208421D01*
X35560000Y-23622000D02*
X34433496Y-23035579D01*
X25603200Y-23622000D02*
X26729704Y-24208421D01*
X25603200Y-23622000D02*
X26729704Y-23035579D01*
X22875980Y-33473638D02*
X22875980Y-34045066D01*
X22875980Y-33759352D02*
X21875980Y-33759352D01*
X22018838Y-33854590D01*
X22114076Y-33949828D01*
X22161695Y-34045066D01*
X21875980Y-32854590D02*
X21875980Y-32759352D01*
X21923600Y-32664114D01*
X21971219Y-32616495D01*
X22066457Y-32568876D01*
X22256933Y-32521257D01*
X22495028Y-32521257D01*
X22685504Y-32568876D01*
X22780742Y-32616495D01*
X22828361Y-32664114D01*
X22875980Y-32759352D01*
X22875980Y-32854590D01*
X22828361Y-32949828D01*
X22780742Y-32997447D01*
X22685504Y-33045066D01*
X22495028Y-33092685D01*
X22256933Y-33092685D01*
X22066457Y-33045066D01*
X21971219Y-32997447D01*
X21923600Y-32949828D01*
X21875980Y-32854590D01*
X22780742Y-32092685D02*
X22828361Y-32045066D01*
X22875980Y-32092685D01*
X22828361Y-32140304D01*
X22780742Y-32092685D01*
X22875980Y-32092685D01*
X21875980Y-31426019D02*
X21875980Y-31330780D01*
X21923600Y-31235542D01*
X21971219Y-31187923D01*
X22066457Y-31140304D01*
X22256933Y-31092685D01*
X22495028Y-31092685D01*
X22685504Y-31140304D01*
X22780742Y-31187923D01*
X22828361Y-31235542D01*
X22875980Y-31330780D01*
X22875980Y-31426019D01*
X22828361Y-31521257D01*
X22780742Y-31568876D01*
X22685504Y-31616495D01*
X22495028Y-31664114D01*
X22256933Y-31664114D01*
X22066457Y-31616495D01*
X21971219Y-31568876D01*
X21923600Y-31521257D01*
X21875980Y-31426019D01*
X21875980Y-30473638D02*
X21875980Y-30378400D01*
X21923600Y-30283161D01*
X21971219Y-30235542D01*
X22066457Y-30187923D01*
X22256933Y-30140304D01*
X22495028Y-30140304D01*
X22685504Y-30187923D01*
X22780742Y-30235542D01*
X22828361Y-30283161D01*
X22875980Y-30378400D01*
X22875980Y-30473638D01*
X22828361Y-30568876D01*
X22780742Y-30616495D01*
X22685504Y-30664114D01*
X22495028Y-30711733D01*
X22256933Y-30711733D01*
X22066457Y-30664114D01*
X21971219Y-30616495D01*
X21923600Y-30568876D01*
X21875980Y-30473638D01*
X22875980Y-28949828D02*
X22209314Y-28949828D01*
X22304552Y-28949828D02*
X22256933Y-28902209D01*
X22209314Y-28806971D01*
X22209314Y-28664114D01*
X22256933Y-28568876D01*
X22352171Y-28521257D01*
X22875980Y-28521257D01*
X22352171Y-28521257D02*
X22256933Y-28473638D01*
X22209314Y-28378400D01*
X22209314Y-28235542D01*
X22256933Y-28140304D01*
X22352171Y-28092685D01*
X22875980Y-28092685D01*
X22875980Y-27616495D02*
X22209314Y-27616495D01*
X22304552Y-27616495D02*
X22256933Y-27568876D01*
X22209314Y-27473638D01*
X22209314Y-27330780D01*
X22256933Y-27235542D01*
X22352171Y-27187923D01*
X22875980Y-27187923D01*
X22352171Y-27187923D02*
X22256933Y-27140304D01*
X22209314Y-27045066D01*
X22209314Y-26902209D01*
X22256933Y-26806971D01*
X22352171Y-26759352D01*
X22875980Y-26759352D01*
X23723600Y-35356800D02*
X23723600Y-25400000D01*
X25400000Y-35356800D02*
X23137179Y-35356800D01*
X25400000Y-25400000D02*
X23137179Y-25400000D01*
X23723600Y-25400000D02*
X24310021Y-26526504D01*
X23723600Y-25400000D02*
X23137179Y-26526504D01*
X23723600Y-35356800D02*
X24310021Y-34230296D01*
X23723600Y-35356800D02*
X23137179Y-34230296D01*
X17302380Y-45590476D02*
X17302380Y-44971428D01*
X17683333Y-45304761D01*
X17683333Y-45161904D01*
X17730952Y-45066666D01*
X17778571Y-45019047D01*
X17873809Y-44971428D01*
X18111904Y-44971428D01*
X18207142Y-45019047D01*
X18254761Y-45066666D01*
X18302380Y-45161904D01*
X18302380Y-45447619D01*
X18254761Y-45542857D01*
X18207142Y-45590476D01*
X17397619Y-44590476D02*
X17350000Y-44542857D01*
X17302380Y-44447619D01*
X17302380Y-44209523D01*
X17350000Y-44114285D01*
X17397619Y-44066666D01*
X17492857Y-44019047D01*
X17588095Y-44019047D01*
X17730952Y-44066666D01*
X18302380Y-44638095D01*
X18302380Y-44019047D01*
X18207142Y-43590476D02*
X18254761Y-43542857D01*
X18302380Y-43590476D01*
X18254761Y-43638095D01*
X18207142Y-43590476D01*
X18302380Y-43590476D01*
X17302380Y-42923809D02*
X17302380Y-42828571D01*
X17350000Y-42733333D01*
X17397619Y-42685714D01*
X17492857Y-42638095D01*
X17683333Y-42590476D01*
X17921428Y-42590476D01*
X18111904Y-42638095D01*
X18207142Y-42685714D01*
X18254761Y-42733333D01*
X18302380Y-42828571D01*
X18302380Y-42923809D01*
X18254761Y-43019047D01*
X18207142Y-43066666D01*
X18111904Y-43114285D01*
X17921428Y-43161904D01*
X17683333Y-43161904D01*
X17492857Y-43114285D01*
X17397619Y-43066666D01*
X17350000Y-43019047D01*
X17302380Y-42923809D01*
X17302380Y-41971428D02*
X17302380Y-41876190D01*
X17350000Y-41780952D01*
X17397619Y-41733333D01*
X17492857Y-41685714D01*
X17683333Y-41638095D01*
X17921428Y-41638095D01*
X18111904Y-41685714D01*
X18207142Y-41733333D01*
X18254761Y-41780952D01*
X18302380Y-41876190D01*
X18302380Y-41971428D01*
X18254761Y-42066666D01*
X18207142Y-42114285D01*
X18111904Y-42161904D01*
X17921428Y-42209523D01*
X17683333Y-42209523D01*
X17492857Y-42161904D01*
X17397619Y-42114285D01*
X17350000Y-42066666D01*
X17302380Y-41971428D01*
X17302380Y-41019047D02*
X17302380Y-40923809D01*
X17350000Y-40828571D01*
X17397619Y-40780952D01*
X17492857Y-40733333D01*
X17683333Y-40685714D01*
X17921428Y-40685714D01*
X18111904Y-40733333D01*
X18207142Y-40780952D01*
X18254761Y-40828571D01*
X18302380Y-40923809D01*
X18302380Y-41019047D01*
X18254761Y-41114285D01*
X18207142Y-41161904D01*
X18111904Y-41209523D01*
X17921428Y-41257142D01*
X17683333Y-41257142D01*
X17492857Y-41209523D01*
X17397619Y-41161904D01*
X17350000Y-41114285D01*
X17302380Y-41019047D01*
X18302380Y-39495238D02*
X17635714Y-39495238D01*
X17730952Y-39495238D02*
X17683333Y-39447619D01*
X17635714Y-39352380D01*
X17635714Y-39209523D01*
X17683333Y-39114285D01*
X17778571Y-39066666D01*
X18302380Y-39066666D01*
X17778571Y-39066666D02*
X17683333Y-39019047D01*
X17635714Y-38923809D01*
X17635714Y-38780952D01*
X17683333Y-38685714D01*
X17778571Y-38638095D01*
X18302380Y-38638095D01*
X18302380Y-38161904D02*
X17635714Y-38161904D01*
X17730952Y-38161904D02*
X17683333Y-38114285D01*
X17635714Y-38019047D01*
X17635714Y-37876190D01*
X17683333Y-37780952D01*
X17778571Y-37733333D01*
X18302380Y-37733333D01*
X17778571Y-37733333D02*
X17683333Y-37685714D01*
X17635714Y-37590476D01*
X17635714Y-37447619D01*
X17683333Y-37352380D01*
X17778571Y-37304761D01*
X18302380Y-37304761D01*
X19150000Y-57400000D02*
X19150000Y-25400000D01*
X21590000Y-57400000D02*
X18563579Y-57400000D01*
X21590000Y-25400000D02*
X18563579Y-25400000D01*
X19150000Y-25400000D02*
X19736421Y-26526504D01*
X19150000Y-25400000D02*
X18563579Y-26526504D01*
X19150000Y-57400000D02*
X19736421Y-56273496D01*
X19150000Y-57400000D02*
X18563579Y-56273496D01*
X78852380Y-19472380D02*
X78280952Y-19472380D01*
X78566666Y-19472380D02*
X78566666Y-18472380D01*
X78471428Y-18615238D01*
X78376190Y-18710476D01*
X78280952Y-18758095D01*
X79804761Y-19472380D02*
X79233333Y-19472380D01*
X79519047Y-19472380D02*
X79519047Y-18472380D01*
X79423809Y-18615238D01*
X79328571Y-18710476D01*
X79233333Y-18758095D01*
X80709523Y-18472380D02*
X80233333Y-18472380D01*
X80185714Y-18948571D01*
X80233333Y-18900952D01*
X80328571Y-18853333D01*
X80566666Y-18853333D01*
X80661904Y-18900952D01*
X80709523Y-18948571D01*
X80757142Y-19043809D01*
X80757142Y-19281904D01*
X80709523Y-19377142D01*
X80661904Y-19424761D01*
X80566666Y-19472380D01*
X80328571Y-19472380D01*
X80233333Y-19424761D01*
X80185714Y-19377142D01*
X81185714Y-19377142D02*
X81233333Y-19424761D01*
X81185714Y-19472380D01*
X81138095Y-19424761D01*
X81185714Y-19377142D01*
X81185714Y-19472380D01*
X81852380Y-18472380D02*
X81947619Y-18472380D01*
X82042857Y-18520000D01*
X82090476Y-18567619D01*
X82138095Y-18662857D01*
X82185714Y-18853333D01*
X82185714Y-19091428D01*
X82138095Y-19281904D01*
X82090476Y-19377142D01*
X82042857Y-19424761D01*
X81947619Y-19472380D01*
X81852380Y-19472380D01*
X81757142Y-19424761D01*
X81709523Y-19377142D01*
X81661904Y-19281904D01*
X81614285Y-19091428D01*
X81614285Y-18853333D01*
X81661904Y-18662857D01*
X81709523Y-18567619D01*
X81757142Y-18520000D01*
X81852380Y-18472380D01*
X82804761Y-18472380D02*
X82900000Y-18472380D01*
X82995238Y-18520000D01*
X83042857Y-18567619D01*
X83090476Y-18662857D01*
X83138095Y-18853333D01*
X83138095Y-19091428D01*
X83090476Y-19281904D01*
X83042857Y-19377142D01*
X82995238Y-19424761D01*
X82900000Y-19472380D01*
X82804761Y-19472380D01*
X82709523Y-19424761D01*
X82661904Y-19377142D01*
X82614285Y-19281904D01*
X82566666Y-19091428D01*
X82566666Y-18853333D01*
X82614285Y-18662857D01*
X82661904Y-18567619D01*
X82709523Y-18520000D01*
X82804761Y-18472380D01*
X83757142Y-18472380D02*
X83852380Y-18472380D01*
X83947619Y-18520000D01*
X83995238Y-18567619D01*
X84042857Y-18662857D01*
X84090476Y-18853333D01*
X84090476Y-19091428D01*
X84042857Y-19281904D01*
X83995238Y-19377142D01*
X83947619Y-19424761D01*
X83852380Y-19472380D01*
X83757142Y-19472380D01*
X83661904Y-19424761D01*
X83614285Y-19377142D01*
X83566666Y-19281904D01*
X83519047Y-19091428D01*
X83519047Y-18853333D01*
X83566666Y-18662857D01*
X83614285Y-18567619D01*
X83661904Y-18520000D01*
X83757142Y-18472380D01*
X85280952Y-19472380D02*
X85280952Y-18805714D01*
X85280952Y-18900952D02*
X85328571Y-18853333D01*
X85423809Y-18805714D01*
X85566666Y-18805714D01*
X85661904Y-18853333D01*
X85709523Y-18948571D01*
X85709523Y-19472380D01*
X85709523Y-18948571D02*
X85757142Y-18853333D01*
X85852380Y-18805714D01*
X85995238Y-18805714D01*
X86090476Y-18853333D01*
X86138095Y-18948571D01*
X86138095Y-19472380D01*
X86614285Y-19472380D02*
X86614285Y-18805714D01*
X86614285Y-18900952D02*
X86661904Y-18853333D01*
X86757142Y-18805714D01*
X86900000Y-18805714D01*
X86995238Y-18853333D01*
X87042857Y-18948571D01*
X87042857Y-19472380D01*
X87042857Y-18948571D02*
X87090476Y-18853333D01*
X87185714Y-18805714D01*
X87328571Y-18805714D01*
X87423809Y-18853333D01*
X87471428Y-18948571D01*
X87471428Y-19472380D01*
X25400000Y-20320000D02*
X140400000Y-20320000D01*
X25400000Y-22460000D02*
X25400000Y-19733579D01*
X140400000Y-22460000D02*
X140400000Y-19733579D01*
X140400000Y-20320000D02*
X139273496Y-20906421D01*
X140400000Y-20320000D02*
X139273496Y-19733579D01*
X25400000Y-20320000D02*
X26526504Y-20906421D01*
X25400000Y-20320000D02*
X26526504Y-19733579D01*
M02*
