G04 #@! TF.GenerationSoftware,KiCad,Pcbnew,5.1.5-1.fc31*
G04 #@! TF.CreationDate,2020-04-28T16:34:52+01:00*
G04 #@! TF.ProjectId,ReversingCam_FSAV433_v3.1,52657665-7273-4696-9e67-43616d5f4653,V3.1*
G04 #@! TF.SameCoordinates,Original*
G04 #@! TF.FileFunction,Other,User*
%FSLAX46Y46*%
G04 Gerber Fmt 4.6, Leading zero omitted, Abs format (unit mm)*
G04 Created by KiCad (PCBNEW 5.1.5-1.fc31) date 2020-04-28 16:34:52*
%MOMM*%
%LPD*%
G04 APERTURE LIST*
%ADD10C,0.050000*%
G04 APERTURE END LIST*
D10*
X36790000Y-47300000D02*
X36790000Y-54300000D01*
X44490000Y-47300000D02*
X44490000Y-54300000D01*
X44490000Y-54300000D02*
X36790000Y-54300000D01*
X44490000Y-47300000D02*
X36790000Y-47300000D01*
X58908000Y-30710000D02*
X58908000Y-27710000D01*
X58908000Y-27710000D02*
X51408000Y-27710000D01*
X51408000Y-27710000D02*
X51408000Y-30710000D01*
X51408000Y-30710000D02*
X58908000Y-30710000D01*
X58648000Y-32690000D02*
X58648000Y-43490000D01*
X58648000Y-43490000D02*
X69348000Y-43490000D01*
X69348000Y-43490000D02*
X69348000Y-32690000D01*
X69348000Y-32690000D02*
X58648000Y-32690000D01*
X56760000Y-32520000D02*
X49960000Y-32520000D01*
X49960000Y-32520000D02*
X49960000Y-48760000D01*
X49960000Y-48760000D02*
X56760000Y-48760000D01*
X56760000Y-48760000D02*
X56760000Y-32520000D01*
X115880000Y-40230000D02*
X109130000Y-40230000D01*
X109130000Y-40230000D02*
X109130000Y-56130000D01*
X109130000Y-56130000D02*
X115880000Y-56130000D01*
X115880000Y-56130000D02*
X115880000Y-40230000D01*
X134044000Y-50272000D02*
G75*
G03X134044000Y-50272000I-4250000J0D01*
G01*
X126004000Y-42442000D02*
X126004000Y-45442000D01*
X126004000Y-45442000D02*
X133504000Y-45442000D01*
X133504000Y-45442000D02*
X133504000Y-42442000D01*
X133504000Y-42442000D02*
X126004000Y-42442000D01*
X72874000Y-34952000D02*
X72874000Y-27452000D01*
X69874000Y-34952000D02*
X72874000Y-34952000D01*
X69874000Y-27452000D02*
X69874000Y-34952000D01*
X72874000Y-27452000D02*
X69874000Y-27452000D01*
X60980000Y-27710000D02*
X60980000Y-30710000D01*
X60980000Y-30710000D02*
X68480000Y-30710000D01*
X68480000Y-30710000D02*
X68480000Y-27710000D01*
X68480000Y-27710000D02*
X60980000Y-27710000D01*
X45490000Y-34390000D02*
X45490000Y-41890000D01*
X48490000Y-34390000D02*
X45490000Y-34390000D01*
X48490000Y-41890000D02*
X48490000Y-34390000D01*
X45490000Y-41890000D02*
X48490000Y-41890000D01*
X44060000Y-31250000D02*
X37260000Y-31250000D01*
X37260000Y-31250000D02*
X37260000Y-44950000D01*
X37260000Y-44950000D02*
X44060000Y-44950000D01*
X44060000Y-44950000D02*
X44060000Y-31250000D01*
X34662000Y-41410000D02*
X27862000Y-41410000D01*
X27862000Y-41410000D02*
X27862000Y-50030000D01*
X27862000Y-50030000D02*
X34662000Y-50030000D01*
X34662000Y-50030000D02*
X34662000Y-41410000D01*
X117800000Y-56036000D02*
X124550000Y-56036000D01*
X124550000Y-56036000D02*
X124550000Y-47636000D01*
X124550000Y-47636000D02*
X117800000Y-47636000D01*
X117800000Y-47636000D02*
X117800000Y-56036000D01*
X55816000Y-49594000D02*
X55816000Y-55054000D01*
X55816000Y-49594000D02*
X51076000Y-49594000D01*
X51076000Y-55054000D02*
X55816000Y-55054000D01*
X51076000Y-55054000D02*
X51076000Y-49594000D01*
X80230000Y-51888000D02*
X95030000Y-51888000D01*
X80230000Y-48188000D02*
X80230000Y-51888000D01*
X95030000Y-48188000D02*
X80230000Y-48188000D01*
X95030000Y-51888000D02*
X95030000Y-48188000D01*
X95030000Y-51998000D02*
X80230000Y-51998000D01*
X95030000Y-55698000D02*
X95030000Y-51998000D01*
X80230000Y-55698000D02*
X95030000Y-55698000D01*
X80230000Y-51998000D02*
X80230000Y-55698000D01*
X42990000Y-26480000D02*
X48450000Y-26480000D01*
X42990000Y-26480000D02*
X42990000Y-31220000D01*
X48450000Y-31220000D02*
X48450000Y-26480000D01*
X48450000Y-31220000D02*
X42990000Y-31220000D01*
X134660000Y-41230000D02*
X134660000Y-51730000D01*
X139660000Y-41230000D02*
X139660000Y-51730000D01*
X139660000Y-41230000D02*
X134660000Y-41230000D01*
X139660000Y-51730000D02*
X134660000Y-51730000D01*
X95030000Y-44378000D02*
X80230000Y-44378000D01*
X95030000Y-48078000D02*
X95030000Y-44378000D01*
X80230000Y-48078000D02*
X95030000Y-48078000D01*
X80230000Y-44378000D02*
X80230000Y-48078000D01*
X80230000Y-44268000D02*
X95030000Y-44268000D01*
X80230000Y-40568000D02*
X80230000Y-44268000D01*
X95030000Y-40568000D02*
X80230000Y-40568000D01*
X95030000Y-44268000D02*
X95030000Y-40568000D01*
X73503500Y-48268500D02*
X73503500Y-44568500D01*
X73503500Y-44568500D02*
X58703500Y-44568500D01*
X58703500Y-44568500D02*
X58703500Y-48268500D01*
X58703500Y-48268500D02*
X73503500Y-48268500D01*
X95030000Y-40458000D02*
X95030000Y-36758000D01*
X95030000Y-36758000D02*
X80230000Y-36758000D01*
X80230000Y-36758000D02*
X80230000Y-40458000D01*
X80230000Y-40458000D02*
X95030000Y-40458000D01*
X90390000Y-34870000D02*
X105190000Y-34870000D01*
X90390000Y-31170000D02*
X90390000Y-34870000D01*
X105190000Y-31170000D02*
X90390000Y-31170000D01*
X105190000Y-34870000D02*
X105190000Y-31170000D01*
X129944000Y-25530000D02*
X129944000Y-28630000D01*
X107044000Y-25530000D02*
X129944000Y-25530000D01*
X129944000Y-35430000D02*
X107044000Y-35430000D01*
X129944000Y-32330000D02*
X129944000Y-35430000D01*
X107044000Y-32330000D02*
X107044000Y-35430000D01*
X107044000Y-28630000D02*
X107044000Y-25530000D01*
X107044000Y-32330000D02*
X106794000Y-32330000D01*
X105344000Y-30030000D02*
X105344000Y-30930000D01*
X105344000Y-30930000D02*
X105744000Y-31730000D01*
X105744000Y-31730000D02*
X106444000Y-32230000D01*
X106444000Y-32230000D02*
X106794000Y-32330000D01*
X107044000Y-28630000D02*
X106794000Y-28630000D01*
X106794000Y-28630000D02*
X106444000Y-28730000D01*
X106444000Y-28730000D02*
X105744000Y-29230000D01*
X105744000Y-29230000D02*
X105344000Y-30030000D01*
X129944000Y-32330000D02*
X130194000Y-32330000D01*
X130194000Y-32330000D02*
X130544000Y-32230000D01*
X130544000Y-32230000D02*
X131244000Y-31730000D01*
X131644000Y-30930000D02*
X131644000Y-30030000D01*
X131244000Y-29230000D02*
X130544000Y-28730000D01*
X130544000Y-28730000D02*
X130194000Y-28630000D01*
X130194000Y-28630000D02*
X129944000Y-28630000D01*
X131244000Y-29230000D02*
X131644000Y-30030000D01*
X131644000Y-30930000D02*
X131244000Y-31730000D01*
X59546500Y-49644500D02*
X59546500Y-52844500D01*
X59546500Y-52844500D02*
X72406500Y-52844500D01*
X72406500Y-52844500D02*
X72406500Y-49644500D01*
X72406500Y-49644500D02*
X59546500Y-49644500D01*
X108030000Y-51232000D02*
X95170000Y-51232000D01*
X108030000Y-54432000D02*
X108030000Y-51232000D01*
X95170000Y-54432000D02*
X108030000Y-54432000D01*
X95170000Y-51232000D02*
X95170000Y-54432000D01*
X95170000Y-47930000D02*
X95170000Y-51130000D01*
X95170000Y-51130000D02*
X108030000Y-51130000D01*
X108030000Y-51130000D02*
X108030000Y-47930000D01*
X108030000Y-47930000D02*
X95170000Y-47930000D01*
X77723500Y-48895500D02*
X77723500Y-54355500D01*
X77723500Y-48895500D02*
X72983500Y-48895500D01*
X72983500Y-54355500D02*
X77723500Y-54355500D01*
X72983500Y-54355500D02*
X72983500Y-48895500D01*
X32800000Y-54100000D02*
G75*
G03X32800000Y-54100000I-3100000J0D01*
G01*
X35340000Y-36320000D02*
G75*
G03X35340000Y-36320000I-3100000J0D01*
G01*
X136940000Y-36320000D02*
G75*
G03X136940000Y-36320000I-3100000J0D01*
G01*
X104035000Y-45805500D02*
X104035000Y-37155500D01*
X104035000Y-37155500D02*
X100435000Y-37155500D01*
X100435000Y-37155500D02*
X100435000Y-45805500D01*
X100435000Y-45805500D02*
X104035000Y-45805500D01*
X105190000Y-31060000D02*
X105190000Y-27360000D01*
X105190000Y-27360000D02*
X90390000Y-27360000D01*
X90390000Y-27360000D02*
X90390000Y-31060000D01*
X90390000Y-31060000D02*
X105190000Y-31060000D01*
X75128000Y-27570000D02*
X75128000Y-35970000D01*
X81878000Y-27570000D02*
X75128000Y-27570000D01*
X81878000Y-35970000D02*
X81878000Y-27570000D01*
X75128000Y-35970000D02*
X81878000Y-35970000D01*
X81986000Y-35970000D02*
X88736000Y-35970000D01*
X88736000Y-35970000D02*
X88736000Y-27570000D01*
X88736000Y-27570000D02*
X81986000Y-27570000D01*
X81986000Y-27570000D02*
X81986000Y-35970000D01*
M02*
