G04 #@! TF.GenerationSoftware,KiCad,Pcbnew,5.1.5-1.fc31*
G04 #@! TF.CreationDate,2020-04-28T16:34:52+01:00*
G04 #@! TF.ProjectId,ReversingCam_FSAV433_v3.1,52657665-7273-4696-9e67-43616d5f4653,V3.1*
G04 #@! TF.SameCoordinates,Original*
G04 #@! TF.FileFunction,Legend,Top*
G04 #@! TF.FilePolarity,Positive*
%FSLAX46Y46*%
G04 Gerber Fmt 4.6, Leading zero omitted, Abs format (unit mm)*
G04 Created by KiCad (PCBNEW 5.1.5-1.fc31) date 2020-04-28 16:34:52*
%MOMM*%
%LPD*%
G04 APERTURE LIST*
%ADD10C,0.120000*%
%ADD11C,0.150000*%
%ADD12C,0.125000*%
%ADD13C,0.100000*%
%ADD14C,0.010000*%
G04 APERTURE END LIST*
D10*
X100076000Y-46228000D02*
X100076000Y-36830000D01*
X104394000Y-46228000D02*
X100076000Y-46228000D01*
X104394000Y-36830000D02*
X104394000Y-46228000D01*
X100076000Y-36830000D02*
X104394000Y-36830000D01*
D11*
X105425904Y-39089333D02*
X105902095Y-39089333D01*
X105330666Y-39317904D02*
X105664000Y-38517904D01*
X105997333Y-39317904D01*
X105735428Y-41598857D02*
X105878285Y-41636952D01*
X105925904Y-41675047D01*
X105973523Y-41751238D01*
X105973523Y-41865523D01*
X105925904Y-41941714D01*
X105878285Y-41979809D01*
X105783047Y-42017904D01*
X105402095Y-42017904D01*
X105402095Y-41217904D01*
X105735428Y-41217904D01*
X105830666Y-41256000D01*
X105878285Y-41294095D01*
X105925904Y-41370285D01*
X105925904Y-41446476D01*
X105878285Y-41522666D01*
X105830666Y-41560761D01*
X105735428Y-41598857D01*
X105402095Y-41598857D01*
X105973523Y-44641714D02*
X105925904Y-44679809D01*
X105783047Y-44717904D01*
X105687809Y-44717904D01*
X105544952Y-44679809D01*
X105449714Y-44603619D01*
X105402095Y-44527428D01*
X105354476Y-44375047D01*
X105354476Y-44260761D01*
X105402095Y-44108380D01*
X105449714Y-44032190D01*
X105544952Y-43956000D01*
X105687809Y-43917904D01*
X105783047Y-43917904D01*
X105925904Y-43956000D01*
X105973523Y-43994095D01*
X124531500Y-54681357D02*
X124483880Y-54776595D01*
X124483880Y-54919452D01*
X124531500Y-55062309D01*
X124626738Y-55157547D01*
X124721976Y-55205166D01*
X124912452Y-55252785D01*
X125055309Y-55252785D01*
X125245785Y-55205166D01*
X125341023Y-55157547D01*
X125436261Y-55062309D01*
X125483880Y-54919452D01*
X125483880Y-54824214D01*
X125436261Y-54681357D01*
X125388642Y-54633738D01*
X125055309Y-54633738D01*
X125055309Y-54824214D01*
X124817214Y-54205166D02*
X125483880Y-54205166D01*
X124912452Y-54205166D02*
X124864833Y-54157547D01*
X124817214Y-54062309D01*
X124817214Y-53919452D01*
X124864833Y-53824214D01*
X124960071Y-53776595D01*
X125483880Y-53776595D01*
X125483880Y-52871833D02*
X124483880Y-52871833D01*
X125436261Y-52871833D02*
X125483880Y-52967071D01*
X125483880Y-53157547D01*
X125436261Y-53252785D01*
X125388642Y-53300404D01*
X125293404Y-53348023D01*
X125007690Y-53348023D01*
X124912452Y-53300404D01*
X124864833Y-53252785D01*
X124817214Y-53157547D01*
X124817214Y-52967071D01*
X124864833Y-52871833D01*
X125039428Y-50784023D02*
X125039428Y-50022119D01*
X125420380Y-50403071D02*
X124658476Y-50403071D01*
X124420380Y-49688785D02*
X125420380Y-49355452D01*
X124420380Y-49022119D01*
D12*
X96121714Y-42592928D02*
X96521714Y-43192928D01*
X96521714Y-42592928D02*
X96121714Y-43192928D01*
X97121714Y-42592928D02*
X97464571Y-42592928D01*
X97293142Y-43192928D02*
X97293142Y-42592928D01*
X97607428Y-42792928D02*
X97750285Y-43192928D01*
X97893142Y-42792928D02*
X97750285Y-43192928D01*
X97693142Y-43335785D01*
X97664571Y-43364357D01*
X97607428Y-43392928D01*
X98121714Y-42792928D02*
X98121714Y-43392928D01*
X98121714Y-42821500D02*
X98178857Y-42792928D01*
X98293142Y-42792928D01*
X98350285Y-42821500D01*
X98378857Y-42850071D01*
X98407428Y-42907214D01*
X98407428Y-43078642D01*
X98378857Y-43135785D01*
X98350285Y-43164357D01*
X98293142Y-43192928D01*
X98178857Y-43192928D01*
X98121714Y-43164357D01*
X98893142Y-43164357D02*
X98836000Y-43192928D01*
X98721714Y-43192928D01*
X98664571Y-43164357D01*
X98636000Y-43107214D01*
X98636000Y-42878642D01*
X98664571Y-42821500D01*
X98721714Y-42792928D01*
X98836000Y-42792928D01*
X98893142Y-42821500D01*
X98921714Y-42878642D01*
X98921714Y-42935785D01*
X98636000Y-42992928D01*
X96907428Y-43903642D02*
X96993142Y-43932214D01*
X97021714Y-43960785D01*
X97050285Y-44017928D01*
X97050285Y-44103642D01*
X97021714Y-44160785D01*
X96993142Y-44189357D01*
X96936000Y-44217928D01*
X96707428Y-44217928D01*
X96707428Y-43617928D01*
X96907428Y-43617928D01*
X96964571Y-43646500D01*
X96993142Y-43675071D01*
X97021714Y-43732214D01*
X97021714Y-43789357D01*
X96993142Y-43846500D01*
X96964571Y-43875071D01*
X96907428Y-43903642D01*
X96707428Y-43903642D01*
X97793142Y-44217928D02*
X97764571Y-44217928D01*
X97707428Y-44189357D01*
X97621714Y-44103642D01*
X97478857Y-43932214D01*
X97421714Y-43846500D01*
X97393142Y-43760785D01*
X97393142Y-43703642D01*
X97421714Y-43646500D01*
X97478857Y-43617928D01*
X97507428Y-43617928D01*
X97564571Y-43646500D01*
X97593142Y-43703642D01*
X97593142Y-43732214D01*
X97564571Y-43789357D01*
X97536000Y-43817928D01*
X97364571Y-43932214D01*
X97336000Y-43960785D01*
X97307428Y-44017928D01*
X97307428Y-44103642D01*
X97336000Y-44160785D01*
X97364571Y-44189357D01*
X97421714Y-44217928D01*
X97507428Y-44217928D01*
X97564571Y-44189357D01*
X97593142Y-44160785D01*
X97678857Y-44046500D01*
X97707428Y-43960785D01*
X97707428Y-43903642D01*
X98393142Y-44160785D02*
X98364571Y-44189357D01*
X98278857Y-44217928D01*
X98221714Y-44217928D01*
X98136000Y-44189357D01*
X98078857Y-44132214D01*
X98050285Y-44075071D01*
X98021714Y-43960785D01*
X98021714Y-43875071D01*
X98050285Y-43760785D01*
X98078857Y-43703642D01*
X98136000Y-43646500D01*
X98221714Y-43617928D01*
X98278857Y-43617928D01*
X98364571Y-43646500D01*
X98393142Y-43675071D01*
D11*
X116713571Y-41845142D02*
X116413571Y-41416571D01*
X116199285Y-41845142D02*
X116199285Y-40945142D01*
X116542142Y-40945142D01*
X116627857Y-40988000D01*
X116670714Y-41030857D01*
X116713571Y-41116571D01*
X116713571Y-41245142D01*
X116670714Y-41330857D01*
X116627857Y-41373714D01*
X116542142Y-41416571D01*
X116199285Y-41416571D01*
X117442142Y-41802285D02*
X117356428Y-41845142D01*
X117185000Y-41845142D01*
X117099285Y-41802285D01*
X117056428Y-41716571D01*
X117056428Y-41373714D01*
X117099285Y-41288000D01*
X117185000Y-41245142D01*
X117356428Y-41245142D01*
X117442142Y-41288000D01*
X117485000Y-41373714D01*
X117485000Y-41459428D01*
X117056428Y-41545142D01*
X117785000Y-41245142D02*
X117999285Y-41845142D01*
X118213571Y-41245142D01*
X116156428Y-43302285D02*
X116285000Y-43345142D01*
X116499285Y-43345142D01*
X116585000Y-43302285D01*
X116627857Y-43259428D01*
X116670714Y-43173714D01*
X116670714Y-43088000D01*
X116627857Y-43002285D01*
X116585000Y-42959428D01*
X116499285Y-42916571D01*
X116327857Y-42873714D01*
X116242142Y-42830857D01*
X116199285Y-42788000D01*
X116156428Y-42702285D01*
X116156428Y-42616571D01*
X116199285Y-42530857D01*
X116242142Y-42488000D01*
X116327857Y-42445142D01*
X116542142Y-42445142D01*
X116670714Y-42488000D01*
X117056428Y-43345142D02*
X117056428Y-42745142D01*
X117056428Y-42445142D02*
X117013571Y-42488000D01*
X117056428Y-42530857D01*
X117099285Y-42488000D01*
X117056428Y-42445142D01*
X117056428Y-42530857D01*
X117870714Y-42745142D02*
X117870714Y-43473714D01*
X117827857Y-43559428D01*
X117785000Y-43602285D01*
X117699285Y-43645142D01*
X117570714Y-43645142D01*
X117485000Y-43602285D01*
X117870714Y-43302285D02*
X117785000Y-43345142D01*
X117613571Y-43345142D01*
X117527857Y-43302285D01*
X117485000Y-43259428D01*
X117442142Y-43173714D01*
X117442142Y-42916571D01*
X117485000Y-42830857D01*
X117527857Y-42788000D01*
X117613571Y-42745142D01*
X117785000Y-42745142D01*
X117870714Y-42788000D01*
X116199285Y-46345142D02*
X116199285Y-45445142D01*
X116713571Y-46345142D01*
X116713571Y-45445142D01*
X117785000Y-45402285D02*
X117013571Y-46559428D01*
X118599285Y-46259428D02*
X118556428Y-46302285D01*
X118427857Y-46345142D01*
X118342142Y-46345142D01*
X118213571Y-46302285D01*
X118127857Y-46216571D01*
X118085000Y-46130857D01*
X118042142Y-45959428D01*
X118042142Y-45830857D01*
X118085000Y-45659428D01*
X118127857Y-45573714D01*
X118213571Y-45488000D01*
X118342142Y-45445142D01*
X118427857Y-45445142D01*
X118556428Y-45488000D01*
X118599285Y-45530857D01*
X110871238Y-37886142D02*
X110823619Y-37933761D01*
X110680761Y-37981380D01*
X110585523Y-37981380D01*
X110442666Y-37933761D01*
X110347428Y-37838523D01*
X110299809Y-37743285D01*
X110252190Y-37552809D01*
X110252190Y-37409952D01*
X110299809Y-37219476D01*
X110347428Y-37124238D01*
X110442666Y-37029000D01*
X110585523Y-36981380D01*
X110680761Y-36981380D01*
X110823619Y-37029000D01*
X110871238Y-37076619D01*
X111442666Y-37981380D02*
X111347428Y-37933761D01*
X111299809Y-37886142D01*
X111252190Y-37790904D01*
X111252190Y-37505190D01*
X111299809Y-37409952D01*
X111347428Y-37362333D01*
X111442666Y-37314714D01*
X111585523Y-37314714D01*
X111680761Y-37362333D01*
X111728380Y-37409952D01*
X111776000Y-37505190D01*
X111776000Y-37790904D01*
X111728380Y-37886142D01*
X111680761Y-37933761D01*
X111585523Y-37981380D01*
X111442666Y-37981380D01*
X112204571Y-37314714D02*
X112204571Y-37981380D01*
X112204571Y-37409952D02*
X112252190Y-37362333D01*
X112347428Y-37314714D01*
X112490285Y-37314714D01*
X112585523Y-37362333D01*
X112633142Y-37457571D01*
X112633142Y-37981380D01*
X112966476Y-37314714D02*
X113347428Y-37314714D01*
X113109333Y-36981380D02*
X113109333Y-37838523D01*
X113156952Y-37933761D01*
X113252190Y-37981380D01*
X113347428Y-37981380D01*
X113680761Y-37981380D02*
X113680761Y-37314714D01*
X113680761Y-37505190D02*
X113728380Y-37409952D01*
X113776000Y-37362333D01*
X113871238Y-37314714D01*
X113966476Y-37314714D01*
X114442666Y-37981380D02*
X114347428Y-37933761D01*
X114299809Y-37886142D01*
X114252190Y-37790904D01*
X114252190Y-37505190D01*
X114299809Y-37409952D01*
X114347428Y-37362333D01*
X114442666Y-37314714D01*
X114585523Y-37314714D01*
X114680761Y-37362333D01*
X114728380Y-37409952D01*
X114776000Y-37505190D01*
X114776000Y-37790904D01*
X114728380Y-37886142D01*
X114680761Y-37933761D01*
X114585523Y-37981380D01*
X114442666Y-37981380D01*
X115347428Y-37981380D02*
X115252190Y-37933761D01*
X115204571Y-37838523D01*
X115204571Y-36981380D01*
X109704571Y-39631380D02*
X109704571Y-38631380D01*
X110180761Y-38964714D02*
X110180761Y-39631380D01*
X110180761Y-39059952D02*
X110228380Y-39012333D01*
X110323619Y-38964714D01*
X110466476Y-38964714D01*
X110561714Y-39012333D01*
X110609333Y-39107571D01*
X110609333Y-39631380D01*
X110942666Y-38964714D02*
X111323619Y-38964714D01*
X111085523Y-38631380D02*
X111085523Y-39488523D01*
X111133142Y-39583761D01*
X111228380Y-39631380D01*
X111323619Y-39631380D01*
X112037904Y-39583761D02*
X111942666Y-39631380D01*
X111752190Y-39631380D01*
X111656952Y-39583761D01*
X111609333Y-39488523D01*
X111609333Y-39107571D01*
X111656952Y-39012333D01*
X111752190Y-38964714D01*
X111942666Y-38964714D01*
X112037904Y-39012333D01*
X112085523Y-39107571D01*
X112085523Y-39202809D01*
X111609333Y-39298047D01*
X112514095Y-39631380D02*
X112514095Y-38964714D01*
X112514095Y-39155190D02*
X112561714Y-39059952D01*
X112609333Y-39012333D01*
X112704571Y-38964714D01*
X112799809Y-38964714D01*
X112990285Y-38964714D02*
X113371238Y-38964714D01*
X113133142Y-39631380D02*
X113133142Y-38774238D01*
X113180761Y-38679000D01*
X113276000Y-38631380D01*
X113371238Y-38631380D01*
X114133142Y-39631380D02*
X114133142Y-39107571D01*
X114085523Y-39012333D01*
X113990285Y-38964714D01*
X113799809Y-38964714D01*
X113704571Y-39012333D01*
X114133142Y-39583761D02*
X114037904Y-39631380D01*
X113799809Y-39631380D01*
X113704571Y-39583761D01*
X113656952Y-39488523D01*
X113656952Y-39393285D01*
X113704571Y-39298047D01*
X113799809Y-39250428D01*
X114037904Y-39250428D01*
X114133142Y-39202809D01*
X115037904Y-39583761D02*
X114942666Y-39631380D01*
X114752190Y-39631380D01*
X114656952Y-39583761D01*
X114609333Y-39536142D01*
X114561714Y-39440904D01*
X114561714Y-39155190D01*
X114609333Y-39059952D01*
X114656952Y-39012333D01*
X114752190Y-38964714D01*
X114942666Y-38964714D01*
X115037904Y-39012333D01*
X115847428Y-39583761D02*
X115752190Y-39631380D01*
X115561714Y-39631380D01*
X115466476Y-39583761D01*
X115418857Y-39488523D01*
X115418857Y-39107571D01*
X115466476Y-39012333D01*
X115561714Y-38964714D01*
X115752190Y-38964714D01*
X115847428Y-39012333D01*
X115895047Y-39107571D01*
X115895047Y-39202809D01*
X115418857Y-39298047D01*
X113392000Y-52457142D02*
X113353904Y-52533333D01*
X113353904Y-52647619D01*
X113392000Y-52761904D01*
X113468190Y-52838095D01*
X113544380Y-52876190D01*
X113696761Y-52914285D01*
X113811047Y-52914285D01*
X113963428Y-52876190D01*
X114039619Y-52838095D01*
X114115809Y-52761904D01*
X114153904Y-52647619D01*
X114153904Y-52571428D01*
X114115809Y-52457142D01*
X114077714Y-52419047D01*
X113811047Y-52419047D01*
X113811047Y-52571428D01*
X113620571Y-52076190D02*
X114153904Y-52076190D01*
X113696761Y-52076190D02*
X113658666Y-52038095D01*
X113620571Y-51961904D01*
X113620571Y-51847619D01*
X113658666Y-51771428D01*
X113734857Y-51733333D01*
X114153904Y-51733333D01*
X114153904Y-51009523D02*
X113353904Y-51009523D01*
X114115809Y-51009523D02*
X114153904Y-51085714D01*
X114153904Y-51238095D01*
X114115809Y-51314285D01*
X114077714Y-51352380D01*
X114001523Y-51390476D01*
X113772952Y-51390476D01*
X113696761Y-51352380D01*
X113658666Y-51314285D01*
X113620571Y-51238095D01*
X113620571Y-51085714D01*
X113658666Y-51009523D01*
X113849142Y-50019047D02*
X113849142Y-49409523D01*
X114153904Y-49714285D02*
X113544380Y-49714285D01*
X113353904Y-49142857D02*
X114153904Y-48876190D01*
X113353904Y-48609523D01*
X120665976Y-45442642D02*
X120618357Y-45490261D01*
X120475500Y-45537880D01*
X120380261Y-45537880D01*
X120237404Y-45490261D01*
X120142166Y-45395023D01*
X120094547Y-45299785D01*
X120046928Y-45109309D01*
X120046928Y-44966452D01*
X120094547Y-44775976D01*
X120142166Y-44680738D01*
X120237404Y-44585500D01*
X120380261Y-44537880D01*
X120475500Y-44537880D01*
X120618357Y-44585500D01*
X120665976Y-44633119D01*
X121523119Y-45537880D02*
X121523119Y-45014071D01*
X121475500Y-44918833D01*
X121380261Y-44871214D01*
X121189785Y-44871214D01*
X121094547Y-44918833D01*
X121523119Y-45490261D02*
X121427880Y-45537880D01*
X121189785Y-45537880D01*
X121094547Y-45490261D01*
X121046928Y-45395023D01*
X121046928Y-45299785D01*
X121094547Y-45204547D01*
X121189785Y-45156928D01*
X121427880Y-45156928D01*
X121523119Y-45109309D01*
X121999309Y-45537880D02*
X121999309Y-44871214D01*
X121999309Y-44966452D02*
X122046928Y-44918833D01*
X122142166Y-44871214D01*
X122285023Y-44871214D01*
X122380261Y-44918833D01*
X122427880Y-45014071D01*
X122427880Y-45537880D01*
X122427880Y-45014071D02*
X122475500Y-44918833D01*
X122570738Y-44871214D01*
X122713595Y-44871214D01*
X122808833Y-44918833D01*
X122856452Y-45014071D01*
X122856452Y-45537880D01*
X119761214Y-46806928D02*
X120523119Y-46806928D01*
X120142166Y-47187880D02*
X120142166Y-46425976D01*
X121523119Y-47187880D02*
X120951690Y-47187880D01*
X121237404Y-47187880D02*
X121237404Y-46187880D01*
X121142166Y-46330738D01*
X121046928Y-46425976D01*
X120951690Y-46473595D01*
X121904071Y-46283119D02*
X121951690Y-46235500D01*
X122046928Y-46187880D01*
X122285023Y-46187880D01*
X122380261Y-46235500D01*
X122427880Y-46283119D01*
X122475500Y-46378357D01*
X122475500Y-46473595D01*
X122427880Y-46616452D01*
X121856452Y-47187880D01*
X122475500Y-47187880D01*
X122808833Y-46521214D02*
X123046928Y-47187880D01*
X123285023Y-46521214D01*
X108219142Y-54942000D02*
X108219142Y-54856285D01*
X108262000Y-54770571D01*
X108304857Y-54727714D01*
X108390571Y-54684857D01*
X108562000Y-54642000D01*
X108776285Y-54642000D01*
X108947714Y-54684857D01*
X109033428Y-54727714D01*
X109076285Y-54770571D01*
X109119142Y-54856285D01*
X109119142Y-54942000D01*
X109076285Y-55027714D01*
X109033428Y-55070571D01*
X108947714Y-55113428D01*
X108776285Y-55156285D01*
X108562000Y-55156285D01*
X108390571Y-55113428D01*
X108304857Y-55070571D01*
X108262000Y-55027714D01*
X108219142Y-54942000D01*
X108519142Y-54342000D02*
X109119142Y-54127714D01*
X108519142Y-53913428D01*
X109119142Y-52413428D02*
X109119142Y-52927714D01*
X109119142Y-52670571D02*
X108219142Y-52670571D01*
X108347714Y-52756285D01*
X108433428Y-52842000D01*
X108476285Y-52927714D01*
X108304857Y-52070571D02*
X108262000Y-52027714D01*
X108219142Y-51942000D01*
X108219142Y-51727714D01*
X108262000Y-51642000D01*
X108304857Y-51599142D01*
X108390571Y-51556285D01*
X108476285Y-51556285D01*
X108604857Y-51599142D01*
X109119142Y-52113428D01*
X109119142Y-51556285D01*
X108519142Y-51256285D02*
X109119142Y-51042000D01*
X108519142Y-50827714D01*
X109119142Y-49799142D02*
X108219142Y-49799142D01*
X108862000Y-49499142D01*
X108219142Y-49199142D01*
X109119142Y-49199142D01*
X109119142Y-48384857D02*
X108647714Y-48384857D01*
X108562000Y-48427714D01*
X108519142Y-48513428D01*
X108519142Y-48684857D01*
X108562000Y-48770571D01*
X109076285Y-48384857D02*
X109119142Y-48470571D01*
X109119142Y-48684857D01*
X109076285Y-48770571D01*
X108990571Y-48813428D01*
X108904857Y-48813428D01*
X108819142Y-48770571D01*
X108776285Y-48684857D01*
X108776285Y-48470571D01*
X108733428Y-48384857D01*
X108519142Y-47956285D02*
X109119142Y-47956285D01*
X108604857Y-47956285D02*
X108562000Y-47913428D01*
X108519142Y-47827714D01*
X108519142Y-47699142D01*
X108562000Y-47613428D01*
X108647714Y-47570571D01*
X109119142Y-47570571D01*
X108519142Y-46756285D02*
X109119142Y-46756285D01*
X108519142Y-47142000D02*
X108990571Y-47142000D01*
X109076285Y-47099142D01*
X109119142Y-47013428D01*
X109119142Y-46884857D01*
X109076285Y-46799142D01*
X109033428Y-46756285D01*
X109119142Y-45942000D02*
X108647714Y-45942000D01*
X108562000Y-45984857D01*
X108519142Y-46070571D01*
X108519142Y-46242000D01*
X108562000Y-46327714D01*
X109076285Y-45942000D02*
X109119142Y-46027714D01*
X109119142Y-46242000D01*
X109076285Y-46327714D01*
X108990571Y-46370571D01*
X108904857Y-46370571D01*
X108819142Y-46327714D01*
X108776285Y-46242000D01*
X108776285Y-46027714D01*
X108733428Y-45942000D01*
X109119142Y-45384857D02*
X109076285Y-45470571D01*
X108990571Y-45513428D01*
X108219142Y-45513428D01*
D12*
X95321714Y-39862357D02*
X95407428Y-39890928D01*
X95550285Y-39890928D01*
X95607428Y-39862357D01*
X95636000Y-39833785D01*
X95664571Y-39776642D01*
X95664571Y-39719500D01*
X95636000Y-39662357D01*
X95607428Y-39633785D01*
X95550285Y-39605214D01*
X95436000Y-39576642D01*
X95378857Y-39548071D01*
X95350285Y-39519500D01*
X95321714Y-39462357D01*
X95321714Y-39405214D01*
X95350285Y-39348071D01*
X95378857Y-39319500D01*
X95436000Y-39290928D01*
X95578857Y-39290928D01*
X95664571Y-39319500D01*
X96293142Y-39290928D02*
X96636000Y-39290928D01*
X96464571Y-39890928D02*
X96464571Y-39290928D01*
X96778857Y-39490928D02*
X96921714Y-39890928D01*
X97064571Y-39490928D02*
X96921714Y-39890928D01*
X96864571Y-40033785D01*
X96836000Y-40062357D01*
X96778857Y-40090928D01*
X97293142Y-39490928D02*
X97293142Y-40090928D01*
X97293142Y-39519500D02*
X97350285Y-39490928D01*
X97464571Y-39490928D01*
X97521714Y-39519500D01*
X97550285Y-39548071D01*
X97578857Y-39605214D01*
X97578857Y-39776642D01*
X97550285Y-39833785D01*
X97521714Y-39862357D01*
X97464571Y-39890928D01*
X97350285Y-39890928D01*
X97293142Y-39862357D01*
X98064571Y-39862357D02*
X98007428Y-39890928D01*
X97893142Y-39890928D01*
X97836000Y-39862357D01*
X97807428Y-39805214D01*
X97807428Y-39576642D01*
X97836000Y-39519500D01*
X97893142Y-39490928D01*
X98007428Y-39490928D01*
X98064571Y-39519500D01*
X98093142Y-39576642D01*
X98093142Y-39633785D01*
X97807428Y-39690928D01*
X98778857Y-39262357D02*
X98264571Y-40033785D01*
X98921714Y-39290928D02*
X99321714Y-39890928D01*
X99321714Y-39290928D02*
X98921714Y-39890928D01*
X99721714Y-39290928D02*
X99721714Y-39719500D01*
X99693142Y-39805214D01*
X99636000Y-39862357D01*
X99550285Y-39890928D01*
X99493142Y-39890928D01*
X96721714Y-40744500D02*
X97007428Y-40744500D01*
X96664571Y-40915928D02*
X96864571Y-40315928D01*
X97064571Y-40915928D01*
X97750285Y-40915928D02*
X97721714Y-40915928D01*
X97664571Y-40887357D01*
X97578857Y-40801642D01*
X97436000Y-40630214D01*
X97378857Y-40544500D01*
X97350285Y-40458785D01*
X97350285Y-40401642D01*
X97378857Y-40344500D01*
X97436000Y-40315928D01*
X97464571Y-40315928D01*
X97521714Y-40344500D01*
X97550285Y-40401642D01*
X97550285Y-40430214D01*
X97521714Y-40487357D01*
X97493142Y-40515928D01*
X97321714Y-40630214D01*
X97293142Y-40658785D01*
X97264571Y-40715928D01*
X97264571Y-40801642D01*
X97293142Y-40858785D01*
X97321714Y-40887357D01*
X97378857Y-40915928D01*
X97464571Y-40915928D01*
X97521714Y-40887357D01*
X97550285Y-40858785D01*
X97636000Y-40744500D01*
X97664571Y-40658785D01*
X97664571Y-40601642D01*
X98207428Y-40601642D02*
X98293142Y-40630214D01*
X98321714Y-40658785D01*
X98350285Y-40715928D01*
X98350285Y-40801642D01*
X98321714Y-40858785D01*
X98293142Y-40887357D01*
X98236000Y-40915928D01*
X98007428Y-40915928D01*
X98007428Y-40315928D01*
X98207428Y-40315928D01*
X98264571Y-40344500D01*
X98293142Y-40373071D01*
X98321714Y-40430214D01*
X98321714Y-40487357D01*
X98293142Y-40544500D01*
X98264571Y-40573071D01*
X98207428Y-40601642D01*
X98007428Y-40601642D01*
D11*
X33814761Y-55962571D02*
X33205238Y-56191142D01*
X33814761Y-56419714D01*
X34614761Y-55734000D02*
X34538571Y-55695904D01*
X34424285Y-55695904D01*
X34310000Y-55734000D01*
X34233809Y-55810190D01*
X34195714Y-55886380D01*
X34157619Y-56038761D01*
X34157619Y-56153047D01*
X34195714Y-56305428D01*
X34233809Y-56381619D01*
X34310000Y-56457809D01*
X34424285Y-56495904D01*
X34500476Y-56495904D01*
X34614761Y-56457809D01*
X34652857Y-56419714D01*
X34652857Y-56153047D01*
X34500476Y-56153047D01*
X34995714Y-56495904D02*
X34995714Y-55962571D01*
X34995714Y-56114952D02*
X35033809Y-56038761D01*
X35071904Y-56000666D01*
X35148095Y-55962571D01*
X35224285Y-55962571D01*
X35833809Y-56495904D02*
X35833809Y-56076857D01*
X35795714Y-56000666D01*
X35719523Y-55962571D01*
X35567142Y-55962571D01*
X35490952Y-56000666D01*
X35833809Y-56457809D02*
X35757619Y-56495904D01*
X35567142Y-56495904D01*
X35490952Y-56457809D01*
X35452857Y-56381619D01*
X35452857Y-56305428D01*
X35490952Y-56229238D01*
X35567142Y-56191142D01*
X35757619Y-56191142D01*
X35833809Y-56153047D01*
X36214761Y-56495904D02*
X36214761Y-55695904D01*
X36557619Y-56495904D02*
X36557619Y-56076857D01*
X36519523Y-56000666D01*
X36443333Y-55962571D01*
X36329047Y-55962571D01*
X36252857Y-56000666D01*
X36214761Y-56038761D01*
X37281428Y-56495904D02*
X37281428Y-56076857D01*
X37243333Y-56000666D01*
X37167142Y-55962571D01*
X37014761Y-55962571D01*
X36938571Y-56000666D01*
X37281428Y-56457809D02*
X37205238Y-56495904D01*
X37014761Y-56495904D01*
X36938571Y-56457809D01*
X36900476Y-56381619D01*
X36900476Y-56305428D01*
X36938571Y-56229238D01*
X37014761Y-56191142D01*
X37205238Y-56191142D01*
X37281428Y-56153047D01*
X37662380Y-56495904D02*
X37662380Y-55962571D01*
X37662380Y-56038761D02*
X37700476Y-56000666D01*
X37776666Y-55962571D01*
X37890952Y-55962571D01*
X37967142Y-56000666D01*
X38005238Y-56076857D01*
X38005238Y-56495904D01*
X38005238Y-56076857D02*
X38043333Y-56000666D01*
X38119523Y-55962571D01*
X38233809Y-55962571D01*
X38310000Y-56000666D01*
X38348095Y-56076857D01*
X38348095Y-56495904D01*
X38729047Y-56191142D02*
X39338571Y-56191142D01*
X40176666Y-56495904D02*
X39910000Y-56114952D01*
X39719523Y-56495904D02*
X39719523Y-55695904D01*
X40024285Y-55695904D01*
X40100476Y-55734000D01*
X40138571Y-55772095D01*
X40176666Y-55848285D01*
X40176666Y-55962571D01*
X40138571Y-56038761D01*
X40100476Y-56076857D01*
X40024285Y-56114952D01*
X39719523Y-56114952D01*
X41776666Y-55886380D02*
X41700476Y-55848285D01*
X41548095Y-55848285D01*
X41471904Y-55886380D01*
X41395714Y-55962571D01*
X41357619Y-56038761D01*
X41357619Y-56191142D01*
X41395714Y-56267333D01*
X41471904Y-56343523D01*
X41548095Y-56381619D01*
X41700476Y-56381619D01*
X41776666Y-56343523D01*
X41624285Y-55581619D02*
X41433809Y-55619714D01*
X41243333Y-55734000D01*
X41129047Y-55924476D01*
X41090952Y-56114952D01*
X41129047Y-56305428D01*
X41243333Y-56495904D01*
X41433809Y-56610190D01*
X41624285Y-56648285D01*
X41814761Y-56610190D01*
X42005238Y-56495904D01*
X42119523Y-56305428D01*
X42157619Y-56114952D01*
X42119523Y-55924476D01*
X42005238Y-55734000D01*
X41814761Y-55619714D01*
X41624285Y-55581619D01*
X43452857Y-56495904D02*
X43452857Y-56076857D01*
X43414761Y-56000666D01*
X43338571Y-55962571D01*
X43186190Y-55962571D01*
X43110000Y-56000666D01*
X43452857Y-56457809D02*
X43376666Y-56495904D01*
X43186190Y-56495904D01*
X43110000Y-56457809D01*
X43071904Y-56381619D01*
X43071904Y-56305428D01*
X43110000Y-56229238D01*
X43186190Y-56191142D01*
X43376666Y-56191142D01*
X43452857Y-56153047D01*
X43833809Y-55962571D02*
X43833809Y-56495904D01*
X43833809Y-56038761D02*
X43871904Y-56000666D01*
X43948095Y-55962571D01*
X44062380Y-55962571D01*
X44138571Y-56000666D01*
X44176666Y-56076857D01*
X44176666Y-56495904D01*
X44900476Y-56495904D02*
X44900476Y-55695904D01*
X44900476Y-56457809D02*
X44824285Y-56495904D01*
X44671904Y-56495904D01*
X44595714Y-56457809D01*
X44557619Y-56419714D01*
X44519523Y-56343523D01*
X44519523Y-56114952D01*
X44557619Y-56038761D01*
X44595714Y-56000666D01*
X44671904Y-55962571D01*
X44824285Y-55962571D01*
X44900476Y-56000666D01*
X46233809Y-56457809D02*
X46157619Y-56495904D01*
X46005238Y-56495904D01*
X45929047Y-56457809D01*
X45890952Y-56419714D01*
X45852857Y-56343523D01*
X45852857Y-56114952D01*
X45890952Y-56038761D01*
X45929047Y-56000666D01*
X46005238Y-55962571D01*
X46157619Y-55962571D01*
X46233809Y-56000666D01*
X46576666Y-56419714D02*
X46614761Y-56457809D01*
X46576666Y-56495904D01*
X46538571Y-56457809D01*
X46576666Y-56419714D01*
X46576666Y-56495904D01*
X46919523Y-55772095D02*
X46957619Y-55734000D01*
X47033809Y-55695904D01*
X47224285Y-55695904D01*
X47300476Y-55734000D01*
X47338571Y-55772095D01*
X47376666Y-55848285D01*
X47376666Y-55924476D01*
X47338571Y-56038761D01*
X46881428Y-56495904D01*
X47376666Y-56495904D01*
X47871904Y-55695904D02*
X47948095Y-55695904D01*
X48024285Y-55734000D01*
X48062380Y-55772095D01*
X48100476Y-55848285D01*
X48138571Y-56000666D01*
X48138571Y-56191142D01*
X48100476Y-56343523D01*
X48062380Y-56419714D01*
X48024285Y-56457809D01*
X47948095Y-56495904D01*
X47871904Y-56495904D01*
X47795714Y-56457809D01*
X47757619Y-56419714D01*
X47719523Y-56343523D01*
X47681428Y-56191142D01*
X47681428Y-56000666D01*
X47719523Y-55848285D01*
X47757619Y-55772095D01*
X47795714Y-55734000D01*
X47871904Y-55695904D01*
X48443333Y-55772095D02*
X48481428Y-55734000D01*
X48557619Y-55695904D01*
X48748095Y-55695904D01*
X48824285Y-55734000D01*
X48862380Y-55772095D01*
X48900476Y-55848285D01*
X48900476Y-55924476D01*
X48862380Y-56038761D01*
X48405238Y-56495904D01*
X48900476Y-56495904D01*
X49395714Y-55695904D02*
X49471904Y-55695904D01*
X49548095Y-55734000D01*
X49586190Y-55772095D01*
X49624285Y-55848285D01*
X49662380Y-56000666D01*
X49662380Y-56191142D01*
X49624285Y-56343523D01*
X49586190Y-56419714D01*
X49548095Y-56457809D01*
X49471904Y-56495904D01*
X49395714Y-56495904D01*
X49319523Y-56457809D01*
X49281428Y-56419714D01*
X49243333Y-56343523D01*
X49205238Y-56191142D01*
X49205238Y-56000666D01*
X49243333Y-55848285D01*
X49281428Y-55772095D01*
X49319523Y-55734000D01*
X49395714Y-55695904D01*
X50005238Y-55962571D02*
X50614761Y-56191142D01*
X50005238Y-56419714D01*
X121134666Y-36093380D02*
X121134666Y-36807666D01*
X121087047Y-36950523D01*
X120991809Y-37045761D01*
X120848952Y-37093380D01*
X120753714Y-37093380D01*
X122039428Y-37093380D02*
X122039428Y-36569571D01*
X121991809Y-36474333D01*
X121896571Y-36426714D01*
X121706095Y-36426714D01*
X121610857Y-36474333D01*
X122039428Y-37045761D02*
X121944190Y-37093380D01*
X121706095Y-37093380D01*
X121610857Y-37045761D01*
X121563238Y-36950523D01*
X121563238Y-36855285D01*
X121610857Y-36760047D01*
X121706095Y-36712428D01*
X121944190Y-36712428D01*
X122039428Y-36664809D01*
X122944190Y-36426714D02*
X122944190Y-37236238D01*
X122896571Y-37331476D01*
X122848952Y-37379095D01*
X122753714Y-37426714D01*
X122610857Y-37426714D01*
X122515619Y-37379095D01*
X122944190Y-37045761D02*
X122848952Y-37093380D01*
X122658476Y-37093380D01*
X122563238Y-37045761D01*
X122515619Y-36998142D01*
X122468000Y-36902904D01*
X122468000Y-36617190D01*
X122515619Y-36521952D01*
X122563238Y-36474333D01*
X122658476Y-36426714D01*
X122848952Y-36426714D01*
X122944190Y-36474333D01*
X123848952Y-36426714D02*
X123848952Y-37093380D01*
X123420380Y-36426714D02*
X123420380Y-36950523D01*
X123468000Y-37045761D01*
X123563238Y-37093380D01*
X123706095Y-37093380D01*
X123801333Y-37045761D01*
X123848952Y-36998142D01*
X124753714Y-37093380D02*
X124753714Y-36569571D01*
X124706095Y-36474333D01*
X124610857Y-36426714D01*
X124420380Y-36426714D01*
X124325142Y-36474333D01*
X124753714Y-37045761D02*
X124658476Y-37093380D01*
X124420380Y-37093380D01*
X124325142Y-37045761D01*
X124277523Y-36950523D01*
X124277523Y-36855285D01*
X124325142Y-36760047D01*
X124420380Y-36712428D01*
X124658476Y-36712428D01*
X124753714Y-36664809D01*
X125229904Y-37093380D02*
X125229904Y-36426714D01*
X125229904Y-36617190D02*
X125277523Y-36521952D01*
X125325142Y-36474333D01*
X125420380Y-36426714D01*
X125515619Y-36426714D01*
X126610857Y-37093380D02*
X126610857Y-36093380D01*
X126848952Y-36093380D01*
X126991809Y-36141000D01*
X127087047Y-36236238D01*
X127134666Y-36331476D01*
X127182285Y-36521952D01*
X127182285Y-36664809D01*
X127134666Y-36855285D01*
X127087047Y-36950523D01*
X126991809Y-37045761D01*
X126848952Y-37093380D01*
X126610857Y-37093380D01*
X127563238Y-36188619D02*
X127610857Y-36141000D01*
X127706095Y-36093380D01*
X127944190Y-36093380D01*
X128039428Y-36141000D01*
X128087047Y-36188619D01*
X128134666Y-36283857D01*
X128134666Y-36379095D01*
X128087047Y-36521952D01*
X127515619Y-37093380D01*
X128134666Y-37093380D01*
X128896571Y-36569571D02*
X129039428Y-36617190D01*
X129087047Y-36664809D01*
X129134666Y-36760047D01*
X129134666Y-36902904D01*
X129087047Y-36998142D01*
X129039428Y-37045761D01*
X128944190Y-37093380D01*
X128563238Y-37093380D01*
X128563238Y-36093380D01*
X128896571Y-36093380D01*
X128991809Y-36141000D01*
X129039428Y-36188619D01*
X129087047Y-36283857D01*
X129087047Y-36379095D01*
X129039428Y-36474333D01*
X128991809Y-36521952D01*
X128896571Y-36569571D01*
X128563238Y-36569571D01*
X119706095Y-39124333D02*
X119658476Y-39076714D01*
X119563238Y-38933857D01*
X119515619Y-38838619D01*
X119468000Y-38695761D01*
X119420380Y-38457666D01*
X119420380Y-38267190D01*
X119468000Y-38029095D01*
X119515619Y-37886238D01*
X119563238Y-37791000D01*
X119658476Y-37648142D01*
X119706095Y-37600523D01*
X119991809Y-37743380D02*
X120658476Y-38743380D01*
X120658476Y-37743380D02*
X119991809Y-38743380D01*
X121325142Y-37743380D02*
X121325142Y-38457666D01*
X121277523Y-38600523D01*
X121182285Y-38695761D01*
X121039428Y-38743380D01*
X120944190Y-38743380D01*
X122515619Y-37695761D02*
X121658476Y-38981476D01*
X122753714Y-37743380D02*
X123420380Y-38743380D01*
X123420380Y-37743380D02*
X122753714Y-38743380D01*
X124515619Y-37695761D02*
X123658476Y-38981476D01*
X124801333Y-38695761D02*
X124944190Y-38743380D01*
X125182285Y-38743380D01*
X125277523Y-38695761D01*
X125325142Y-38648142D01*
X125372761Y-38552904D01*
X125372761Y-38457666D01*
X125325142Y-38362428D01*
X125277523Y-38314809D01*
X125182285Y-38267190D01*
X124991809Y-38219571D01*
X124896571Y-38171952D01*
X124848952Y-38124333D01*
X124801333Y-38029095D01*
X124801333Y-37933857D01*
X124848952Y-37838619D01*
X124896571Y-37791000D01*
X124991809Y-37743380D01*
X125229904Y-37743380D01*
X125372761Y-37791000D01*
X125801333Y-38362428D02*
X126563238Y-38362428D01*
X126896571Y-37743380D02*
X127468000Y-37743380D01*
X127182285Y-38743380D02*
X127182285Y-37743380D01*
X127706095Y-38076714D02*
X127944190Y-38743380D01*
X128182285Y-38076714D02*
X127944190Y-38743380D01*
X127848952Y-38981476D01*
X127801333Y-39029095D01*
X127706095Y-39076714D01*
X128563238Y-38076714D02*
X128563238Y-39076714D01*
X128563238Y-38124333D02*
X128658476Y-38076714D01*
X128848952Y-38076714D01*
X128944190Y-38124333D01*
X128991809Y-38171952D01*
X129039428Y-38267190D01*
X129039428Y-38552904D01*
X128991809Y-38648142D01*
X128944190Y-38695761D01*
X128848952Y-38743380D01*
X128658476Y-38743380D01*
X128563238Y-38695761D01*
X129848952Y-38695761D02*
X129753714Y-38743380D01*
X129563238Y-38743380D01*
X129468000Y-38695761D01*
X129420380Y-38600523D01*
X129420380Y-38219571D01*
X129468000Y-38124333D01*
X129563238Y-38076714D01*
X129753714Y-38076714D01*
X129848952Y-38124333D01*
X129896571Y-38219571D01*
X129896571Y-38314809D01*
X129420380Y-38410047D01*
X130229904Y-39124333D02*
X130277523Y-39076714D01*
X130372761Y-38933857D01*
X130420380Y-38838619D01*
X130468000Y-38695761D01*
X130515619Y-38457666D01*
X130515619Y-38267190D01*
X130468000Y-38029095D01*
X130420380Y-37886238D01*
X130372761Y-37791000D01*
X130277523Y-37648142D01*
X130229904Y-37600523D01*
X118991809Y-40393380D02*
X118658476Y-39917190D01*
X118420380Y-40393380D02*
X118420380Y-39393380D01*
X118801333Y-39393380D01*
X118896571Y-39441000D01*
X118944190Y-39488619D01*
X118991809Y-39583857D01*
X118991809Y-39726714D01*
X118944190Y-39821952D01*
X118896571Y-39869571D01*
X118801333Y-39917190D01*
X118420380Y-39917190D01*
X119801333Y-40345761D02*
X119706095Y-40393380D01*
X119515619Y-40393380D01*
X119420380Y-40345761D01*
X119372761Y-40250523D01*
X119372761Y-39869571D01*
X119420380Y-39774333D01*
X119515619Y-39726714D01*
X119706095Y-39726714D01*
X119801333Y-39774333D01*
X119848952Y-39869571D01*
X119848952Y-39964809D01*
X119372761Y-40060047D01*
X120182285Y-39726714D02*
X120420380Y-40393380D01*
X120658476Y-39726714D01*
X121420380Y-40345761D02*
X121325142Y-40393380D01*
X121134666Y-40393380D01*
X121039428Y-40345761D01*
X120991809Y-40250523D01*
X120991809Y-39869571D01*
X121039428Y-39774333D01*
X121134666Y-39726714D01*
X121325142Y-39726714D01*
X121420380Y-39774333D01*
X121468000Y-39869571D01*
X121468000Y-39964809D01*
X120991809Y-40060047D01*
X121896571Y-40393380D02*
X121896571Y-39726714D01*
X121896571Y-39917190D02*
X121944190Y-39821952D01*
X121991809Y-39774333D01*
X122087047Y-39726714D01*
X122182285Y-39726714D01*
X122468000Y-40345761D02*
X122563238Y-40393380D01*
X122753714Y-40393380D01*
X122848952Y-40345761D01*
X122896571Y-40250523D01*
X122896571Y-40202904D01*
X122848952Y-40107666D01*
X122753714Y-40060047D01*
X122610857Y-40060047D01*
X122515619Y-40012428D01*
X122468000Y-39917190D01*
X122468000Y-39869571D01*
X122515619Y-39774333D01*
X122610857Y-39726714D01*
X122753714Y-39726714D01*
X122848952Y-39774333D01*
X123325142Y-40393380D02*
X123325142Y-39726714D01*
X123325142Y-39393380D02*
X123277523Y-39441000D01*
X123325142Y-39488619D01*
X123372761Y-39441000D01*
X123325142Y-39393380D01*
X123325142Y-39488619D01*
X123801333Y-39726714D02*
X123801333Y-40393380D01*
X123801333Y-39821952D02*
X123848952Y-39774333D01*
X123944190Y-39726714D01*
X124087047Y-39726714D01*
X124182285Y-39774333D01*
X124229904Y-39869571D01*
X124229904Y-40393380D01*
X125134666Y-39726714D02*
X125134666Y-40536238D01*
X125087047Y-40631476D01*
X125039428Y-40679095D01*
X124944190Y-40726714D01*
X124801333Y-40726714D01*
X124706095Y-40679095D01*
X125134666Y-40345761D02*
X125039428Y-40393380D01*
X124848952Y-40393380D01*
X124753714Y-40345761D01*
X124706095Y-40298142D01*
X124658476Y-40202904D01*
X124658476Y-39917190D01*
X124706095Y-39821952D01*
X124753714Y-39774333D01*
X124848952Y-39726714D01*
X125039428Y-39726714D01*
X125134666Y-39774333D01*
X126944190Y-40298142D02*
X126896571Y-40345761D01*
X126753714Y-40393380D01*
X126658476Y-40393380D01*
X126515619Y-40345761D01*
X126420380Y-40250523D01*
X126372761Y-40155285D01*
X126325142Y-39964809D01*
X126325142Y-39821952D01*
X126372761Y-39631476D01*
X126420380Y-39536238D01*
X126515619Y-39441000D01*
X126658476Y-39393380D01*
X126753714Y-39393380D01*
X126896571Y-39441000D01*
X126944190Y-39488619D01*
X127801333Y-40393380D02*
X127801333Y-39869571D01*
X127753714Y-39774333D01*
X127658476Y-39726714D01*
X127468000Y-39726714D01*
X127372761Y-39774333D01*
X127801333Y-40345761D02*
X127706095Y-40393380D01*
X127468000Y-40393380D01*
X127372761Y-40345761D01*
X127325142Y-40250523D01*
X127325142Y-40155285D01*
X127372761Y-40060047D01*
X127468000Y-40012428D01*
X127706095Y-40012428D01*
X127801333Y-39964809D01*
X128277523Y-40393380D02*
X128277523Y-39726714D01*
X128277523Y-39821952D02*
X128325142Y-39774333D01*
X128420380Y-39726714D01*
X128563238Y-39726714D01*
X128658476Y-39774333D01*
X128706095Y-39869571D01*
X128706095Y-40393380D01*
X128706095Y-39869571D02*
X128753714Y-39774333D01*
X128848952Y-39726714D01*
X128991809Y-39726714D01*
X129087047Y-39774333D01*
X129134666Y-39869571D01*
X129134666Y-40393380D01*
X129991809Y-40345761D02*
X129896571Y-40393380D01*
X129706095Y-40393380D01*
X129610857Y-40345761D01*
X129563238Y-40250523D01*
X129563238Y-39869571D01*
X129610857Y-39774333D01*
X129706095Y-39726714D01*
X129896571Y-39726714D01*
X129991809Y-39774333D01*
X130039428Y-39869571D01*
X130039428Y-39964809D01*
X129563238Y-40060047D01*
X130468000Y-40393380D02*
X130468000Y-39726714D01*
X130468000Y-39917190D02*
X130515619Y-39821952D01*
X130563238Y-39774333D01*
X130658476Y-39726714D01*
X130753714Y-39726714D01*
X131515619Y-40393380D02*
X131515619Y-39869571D01*
X131468000Y-39774333D01*
X131372761Y-39726714D01*
X131182285Y-39726714D01*
X131087047Y-39774333D01*
X131515619Y-40345761D02*
X131420380Y-40393380D01*
X131182285Y-40393380D01*
X131087047Y-40345761D01*
X131039428Y-40250523D01*
X131039428Y-40155285D01*
X131087047Y-40060047D01*
X131182285Y-40012428D01*
X131420380Y-40012428D01*
X131515619Y-39964809D01*
X119277523Y-42043380D02*
X119277523Y-41043380D01*
X119753714Y-41376714D02*
X119753714Y-42043380D01*
X119753714Y-41471952D02*
X119801333Y-41424333D01*
X119896571Y-41376714D01*
X120039428Y-41376714D01*
X120134666Y-41424333D01*
X120182285Y-41519571D01*
X120182285Y-42043380D01*
X120515619Y-41376714D02*
X120896571Y-41376714D01*
X120658476Y-41043380D02*
X120658476Y-41900523D01*
X120706095Y-41995761D01*
X120801333Y-42043380D01*
X120896571Y-42043380D01*
X121610857Y-41995761D02*
X121515619Y-42043380D01*
X121325142Y-42043380D01*
X121229904Y-41995761D01*
X121182285Y-41900523D01*
X121182285Y-41519571D01*
X121229904Y-41424333D01*
X121325142Y-41376714D01*
X121515619Y-41376714D01*
X121610857Y-41424333D01*
X121658476Y-41519571D01*
X121658476Y-41614809D01*
X121182285Y-41710047D01*
X122087047Y-42043380D02*
X122087047Y-41376714D01*
X122087047Y-41567190D02*
X122134666Y-41471952D01*
X122182285Y-41424333D01*
X122277523Y-41376714D01*
X122372761Y-41376714D01*
X122563238Y-41376714D02*
X122944190Y-41376714D01*
X122706095Y-42043380D02*
X122706095Y-41186238D01*
X122753714Y-41091000D01*
X122848952Y-41043380D01*
X122944190Y-41043380D01*
X123706095Y-42043380D02*
X123706095Y-41519571D01*
X123658476Y-41424333D01*
X123563238Y-41376714D01*
X123372761Y-41376714D01*
X123277523Y-41424333D01*
X123706095Y-41995761D02*
X123610857Y-42043380D01*
X123372761Y-42043380D01*
X123277523Y-41995761D01*
X123229904Y-41900523D01*
X123229904Y-41805285D01*
X123277523Y-41710047D01*
X123372761Y-41662428D01*
X123610857Y-41662428D01*
X123706095Y-41614809D01*
X124610857Y-41995761D02*
X124515619Y-42043380D01*
X124325142Y-42043380D01*
X124229904Y-41995761D01*
X124182285Y-41948142D01*
X124134666Y-41852904D01*
X124134666Y-41567190D01*
X124182285Y-41471952D01*
X124229904Y-41424333D01*
X124325142Y-41376714D01*
X124515619Y-41376714D01*
X124610857Y-41424333D01*
X125420380Y-41995761D02*
X125325142Y-42043380D01*
X125134666Y-42043380D01*
X125039428Y-41995761D01*
X124991809Y-41900523D01*
X124991809Y-41519571D01*
X125039428Y-41424333D01*
X125134666Y-41376714D01*
X125325142Y-41376714D01*
X125420380Y-41424333D01*
X125468000Y-41519571D01*
X125468000Y-41614809D01*
X124991809Y-41710047D01*
X126944190Y-42424333D02*
X126896571Y-42376714D01*
X126801333Y-42233857D01*
X126753714Y-42138619D01*
X126706095Y-41995761D01*
X126658476Y-41757666D01*
X126658476Y-41567190D01*
X126706095Y-41329095D01*
X126753714Y-41186238D01*
X126801333Y-41091000D01*
X126896571Y-40948142D01*
X126944190Y-40900523D01*
X127229904Y-41376714D02*
X127468000Y-42043380D01*
X127706095Y-41376714D01*
X127991809Y-41043380D02*
X128610857Y-41043380D01*
X128277523Y-41424333D01*
X128420380Y-41424333D01*
X128515619Y-41471952D01*
X128563238Y-41519571D01*
X128610857Y-41614809D01*
X128610857Y-41852904D01*
X128563238Y-41948142D01*
X128515619Y-41995761D01*
X128420380Y-42043380D01*
X128134666Y-42043380D01*
X128039428Y-41995761D01*
X127991809Y-41948142D01*
X129039428Y-41948142D02*
X129087047Y-41995761D01*
X129039428Y-42043380D01*
X128991809Y-41995761D01*
X129039428Y-41948142D01*
X129039428Y-42043380D01*
X130039428Y-42043380D02*
X129468000Y-42043380D01*
X129753714Y-42043380D02*
X129753714Y-41043380D01*
X129658476Y-41186238D01*
X129563238Y-41281476D01*
X129468000Y-41329095D01*
X130372761Y-42424333D02*
X130420380Y-42376714D01*
X130515619Y-42233857D01*
X130563238Y-42138619D01*
X130610857Y-41995761D01*
X130658476Y-41757666D01*
X130658476Y-41567190D01*
X130610857Y-41329095D01*
X130563238Y-41186238D01*
X130515619Y-41091000D01*
X130420380Y-40948142D01*
X130372761Y-40900523D01*
X49982380Y-43957523D02*
X49506190Y-44290857D01*
X49982380Y-44528952D02*
X48982380Y-44528952D01*
X48982380Y-44148000D01*
X49030000Y-44052761D01*
X49077619Y-44005142D01*
X49172857Y-43957523D01*
X49315714Y-43957523D01*
X49410952Y-44005142D01*
X49458571Y-44052761D01*
X49506190Y-44148000D01*
X49506190Y-44528952D01*
X49030000Y-43005142D02*
X48982380Y-43100380D01*
X48982380Y-43243238D01*
X49030000Y-43386095D01*
X49125238Y-43481333D01*
X49220476Y-43528952D01*
X49410952Y-43576571D01*
X49553809Y-43576571D01*
X49744285Y-43528952D01*
X49839523Y-43481333D01*
X49934761Y-43386095D01*
X49982380Y-43243238D01*
X49982380Y-43148000D01*
X49934761Y-43005142D01*
X49887142Y-42957523D01*
X49553809Y-42957523D01*
X49553809Y-43148000D01*
X49458571Y-42195619D02*
X49506190Y-42052761D01*
X49553809Y-42005142D01*
X49649047Y-41957523D01*
X49791904Y-41957523D01*
X49887142Y-42005142D01*
X49934761Y-42052761D01*
X49982380Y-42148000D01*
X49982380Y-42528952D01*
X48982380Y-42528952D01*
X48982380Y-42195619D01*
X49030000Y-42100380D01*
X49077619Y-42052761D01*
X49172857Y-42005142D01*
X49268095Y-42005142D01*
X49363333Y-42052761D01*
X49410952Y-42100380D01*
X49458571Y-42195619D01*
X49458571Y-42528952D01*
X49934761Y-41576571D02*
X49982380Y-41433714D01*
X49982380Y-41195619D01*
X49934761Y-41100380D01*
X49887142Y-41052761D01*
X49791904Y-41005142D01*
X49696666Y-41005142D01*
X49601428Y-41052761D01*
X49553809Y-41100380D01*
X49506190Y-41195619D01*
X49458571Y-41386095D01*
X49410952Y-41481333D01*
X49363333Y-41528952D01*
X49268095Y-41576571D01*
X49172857Y-41576571D01*
X49077619Y-41528952D01*
X49030000Y-41481333D01*
X48982380Y-41386095D01*
X48982380Y-41148000D01*
X49030000Y-41005142D01*
X48982380Y-39624190D02*
X48982380Y-39433714D01*
X49030000Y-39338476D01*
X49125238Y-39243238D01*
X49315714Y-39195619D01*
X49649047Y-39195619D01*
X49839523Y-39243238D01*
X49934761Y-39338476D01*
X49982380Y-39433714D01*
X49982380Y-39624190D01*
X49934761Y-39719428D01*
X49839523Y-39814666D01*
X49649047Y-39862285D01*
X49315714Y-39862285D01*
X49125238Y-39814666D01*
X49030000Y-39719428D01*
X48982380Y-39624190D01*
X49315714Y-38338476D02*
X49982380Y-38338476D01*
X49315714Y-38767047D02*
X49839523Y-38767047D01*
X49934761Y-38719428D01*
X49982380Y-38624190D01*
X49982380Y-38481333D01*
X49934761Y-38386095D01*
X49887142Y-38338476D01*
X49315714Y-38005142D02*
X49315714Y-37624190D01*
X48982380Y-37862285D02*
X49839523Y-37862285D01*
X49934761Y-37814666D01*
X49982380Y-37719428D01*
X49982380Y-37624190D01*
X35234571Y-48172380D02*
X35282190Y-48029523D01*
X35329809Y-47981904D01*
X35425047Y-47934285D01*
X35567904Y-47934285D01*
X35663142Y-47981904D01*
X35710761Y-48029523D01*
X35758380Y-48124761D01*
X35758380Y-48505714D01*
X34758380Y-48505714D01*
X34758380Y-48172380D01*
X34806000Y-48077142D01*
X34853619Y-48029523D01*
X34948857Y-47981904D01*
X35044095Y-47981904D01*
X35139333Y-48029523D01*
X35186952Y-48077142D01*
X35234571Y-48172380D01*
X35234571Y-48505714D01*
X34806000Y-45458095D02*
X34758380Y-45553333D01*
X34758380Y-45696190D01*
X34806000Y-45839047D01*
X34901238Y-45934285D01*
X34996476Y-45981904D01*
X35186952Y-46029523D01*
X35329809Y-46029523D01*
X35520285Y-45981904D01*
X35615523Y-45934285D01*
X35710761Y-45839047D01*
X35758380Y-45696190D01*
X35758380Y-45600952D01*
X35710761Y-45458095D01*
X35663142Y-45410476D01*
X35329809Y-45410476D01*
X35329809Y-45600952D01*
X35758380Y-42886666D02*
X35282190Y-43220000D01*
X35758380Y-43458095D02*
X34758380Y-43458095D01*
X34758380Y-43077142D01*
X34806000Y-42981904D01*
X34853619Y-42934285D01*
X34948857Y-42886666D01*
X35091714Y-42886666D01*
X35186952Y-42934285D01*
X35234571Y-42981904D01*
X35282190Y-43077142D01*
X35282190Y-43458095D01*
X56856380Y-47116190D02*
X56856380Y-47020952D01*
X56904000Y-46925714D01*
X56951619Y-46878095D01*
X57046857Y-46830476D01*
X57237333Y-46782857D01*
X57475428Y-46782857D01*
X57665904Y-46830476D01*
X57761142Y-46878095D01*
X57808761Y-46925714D01*
X57856380Y-47020952D01*
X57856380Y-47116190D01*
X57808761Y-47211428D01*
X57761142Y-47259047D01*
X57665904Y-47306666D01*
X57475428Y-47354285D01*
X57237333Y-47354285D01*
X57046857Y-47306666D01*
X56951619Y-47259047D01*
X56904000Y-47211428D01*
X56856380Y-47116190D01*
X57189714Y-46449523D02*
X57856380Y-46211428D01*
X57189714Y-45973333D01*
X57332571Y-44497142D02*
X57380190Y-44354285D01*
X57427809Y-44306666D01*
X57523047Y-44259047D01*
X57665904Y-44259047D01*
X57761142Y-44306666D01*
X57808761Y-44354285D01*
X57856380Y-44449523D01*
X57856380Y-44830476D01*
X56856380Y-44830476D01*
X56856380Y-44497142D01*
X56904000Y-44401904D01*
X56951619Y-44354285D01*
X57046857Y-44306666D01*
X57142095Y-44306666D01*
X57237333Y-44354285D01*
X57284952Y-44401904D01*
X57332571Y-44497142D01*
X57332571Y-44830476D01*
X57856380Y-42306666D02*
X56856380Y-42306666D01*
X57856380Y-41735238D01*
X56856380Y-41735238D01*
X57761142Y-40687619D02*
X57808761Y-40735238D01*
X57856380Y-40878095D01*
X57856380Y-40973333D01*
X57808761Y-41116190D01*
X57713523Y-41211428D01*
X57618285Y-41259047D01*
X57427809Y-41306666D01*
X57284952Y-41306666D01*
X57094476Y-41259047D01*
X56999238Y-41211428D01*
X56904000Y-41116190D01*
X56856380Y-40973333D01*
X56856380Y-40878095D01*
X56904000Y-40735238D01*
X56951619Y-40687619D01*
X56904000Y-38973333D02*
X56856380Y-39068571D01*
X56856380Y-39211428D01*
X56904000Y-39354285D01*
X56999238Y-39449523D01*
X57094476Y-39497142D01*
X57284952Y-39544761D01*
X57427809Y-39544761D01*
X57618285Y-39497142D01*
X57713523Y-39449523D01*
X57808761Y-39354285D01*
X57856380Y-39211428D01*
X57856380Y-39116190D01*
X57808761Y-38973333D01*
X57761142Y-38925714D01*
X57427809Y-38925714D01*
X57427809Y-39116190D01*
X57808761Y-37020952D02*
X57856380Y-36878095D01*
X57856380Y-36640000D01*
X57808761Y-36544761D01*
X57761142Y-36497142D01*
X57665904Y-36449523D01*
X57570666Y-36449523D01*
X57475428Y-36497142D01*
X57427809Y-36544761D01*
X57380190Y-36640000D01*
X57332571Y-36830476D01*
X57284952Y-36925714D01*
X57237333Y-36973333D01*
X57142095Y-37020952D01*
X57046857Y-37020952D01*
X56951619Y-36973333D01*
X56904000Y-36925714D01*
X56856380Y-36830476D01*
X56856380Y-36592380D01*
X56904000Y-36449523D01*
X57189714Y-36116190D02*
X57856380Y-35878095D01*
X57189714Y-35640000D02*
X57856380Y-35878095D01*
X58094476Y-35973333D01*
X58142095Y-36020952D01*
X58189714Y-36116190D01*
X57856380Y-33925714D02*
X57380190Y-34259047D01*
X57856380Y-34497142D02*
X56856380Y-34497142D01*
X56856380Y-34116190D01*
X56904000Y-34020952D01*
X56951619Y-33973333D01*
X57046857Y-33925714D01*
X57189714Y-33925714D01*
X57284952Y-33973333D01*
X57332571Y-34020952D01*
X57380190Y-34116190D01*
X57380190Y-34497142D01*
X45108761Y-43830190D02*
X45156380Y-43687333D01*
X45156380Y-43449238D01*
X45108761Y-43354000D01*
X45061142Y-43306380D01*
X44965904Y-43258761D01*
X44870666Y-43258761D01*
X44775428Y-43306380D01*
X44727809Y-43354000D01*
X44680190Y-43449238D01*
X44632571Y-43639714D01*
X44584952Y-43734952D01*
X44537333Y-43782571D01*
X44442095Y-43830190D01*
X44346857Y-43830190D01*
X44251619Y-43782571D01*
X44204000Y-43734952D01*
X44156380Y-43639714D01*
X44156380Y-43401619D01*
X44204000Y-43258761D01*
X44489714Y-42925428D02*
X45156380Y-42687333D01*
X44489714Y-42449238D02*
X45156380Y-42687333D01*
X45394476Y-42782571D01*
X45442095Y-42830190D01*
X45489714Y-42925428D01*
X45156380Y-41306380D02*
X44156380Y-41306380D01*
X45156380Y-40734952D01*
X44156380Y-40734952D01*
X45061142Y-39687333D02*
X45108761Y-39734952D01*
X45156380Y-39877809D01*
X45156380Y-39973047D01*
X45108761Y-40115904D01*
X45013523Y-40211142D01*
X44918285Y-40258761D01*
X44727809Y-40306380D01*
X44584952Y-40306380D01*
X44394476Y-40258761D01*
X44299238Y-40211142D01*
X44204000Y-40115904D01*
X44156380Y-39973047D01*
X44156380Y-39877809D01*
X44204000Y-39734952D01*
X44251619Y-39687333D01*
X44632571Y-38163523D02*
X44680190Y-38020666D01*
X44727809Y-37973047D01*
X44823047Y-37925428D01*
X44965904Y-37925428D01*
X45061142Y-37973047D01*
X45108761Y-38020666D01*
X45156380Y-38115904D01*
X45156380Y-38496857D01*
X44156380Y-38496857D01*
X44156380Y-38163523D01*
X44204000Y-38068285D01*
X44251619Y-38020666D01*
X44346857Y-37973047D01*
X44442095Y-37973047D01*
X44537333Y-38020666D01*
X44584952Y-38068285D01*
X44632571Y-38163523D01*
X44632571Y-38496857D01*
X44204000Y-35449238D02*
X44156380Y-35544476D01*
X44156380Y-35687333D01*
X44204000Y-35830190D01*
X44299238Y-35925428D01*
X44394476Y-35973047D01*
X44584952Y-36020666D01*
X44727809Y-36020666D01*
X44918285Y-35973047D01*
X45013523Y-35925428D01*
X45108761Y-35830190D01*
X45156380Y-35687333D01*
X45156380Y-35592095D01*
X45108761Y-35449238D01*
X45061142Y-35401619D01*
X44727809Y-35401619D01*
X44727809Y-35592095D01*
X45156380Y-32877809D02*
X44680190Y-33211142D01*
X45156380Y-33449238D02*
X44156380Y-33449238D01*
X44156380Y-33068285D01*
X44204000Y-32973047D01*
X44251619Y-32925428D01*
X44346857Y-32877809D01*
X44489714Y-32877809D01*
X44584952Y-32925428D01*
X44632571Y-32973047D01*
X44680190Y-33068285D01*
X44680190Y-33449238D01*
X36980761Y-44290476D02*
X37028380Y-44147619D01*
X37028380Y-43909523D01*
X36980761Y-43814285D01*
X36933142Y-43766666D01*
X36837904Y-43719047D01*
X36742666Y-43719047D01*
X36647428Y-43766666D01*
X36599809Y-43814285D01*
X36552190Y-43909523D01*
X36504571Y-44100000D01*
X36456952Y-44195238D01*
X36409333Y-44242857D01*
X36314095Y-44290476D01*
X36218857Y-44290476D01*
X36123619Y-44242857D01*
X36076000Y-44195238D01*
X36028380Y-44100000D01*
X36028380Y-43861904D01*
X36076000Y-43719047D01*
X37028380Y-42861904D02*
X36504571Y-42861904D01*
X36409333Y-42909523D01*
X36361714Y-43004761D01*
X36361714Y-43195238D01*
X36409333Y-43290476D01*
X36980761Y-42861904D02*
X37028380Y-42957142D01*
X37028380Y-43195238D01*
X36980761Y-43290476D01*
X36885523Y-43338095D01*
X36790285Y-43338095D01*
X36695047Y-43290476D01*
X36647428Y-43195238D01*
X36647428Y-42957142D01*
X36599809Y-42861904D01*
X36361714Y-42528571D02*
X36361714Y-42147619D01*
X36028380Y-42385714D02*
X36885523Y-42385714D01*
X36980761Y-42338095D01*
X37028380Y-42242857D01*
X37028380Y-42147619D01*
X37028380Y-41052380D02*
X36028380Y-41052380D01*
X37028380Y-40480952D01*
X36028380Y-40480952D01*
X37028380Y-39576190D02*
X36504571Y-39576190D01*
X36409333Y-39623809D01*
X36361714Y-39719047D01*
X36361714Y-39909523D01*
X36409333Y-40004761D01*
X36980761Y-39576190D02*
X37028380Y-39671428D01*
X37028380Y-39909523D01*
X36980761Y-40004761D01*
X36885523Y-40052380D01*
X36790285Y-40052380D01*
X36695047Y-40004761D01*
X36647428Y-39909523D01*
X36647428Y-39671428D01*
X36599809Y-39576190D01*
X36361714Y-39195238D02*
X37028380Y-38957142D01*
X36361714Y-38719047D01*
X37028380Y-37004761D02*
X36552190Y-37338095D01*
X37028380Y-37576190D02*
X36028380Y-37576190D01*
X36028380Y-37195238D01*
X36076000Y-37100000D01*
X36123619Y-37052380D01*
X36218857Y-37004761D01*
X36361714Y-37004761D01*
X36456952Y-37052380D01*
X36504571Y-37100000D01*
X36552190Y-37195238D01*
X36552190Y-37576190D01*
X36076000Y-36052380D02*
X36028380Y-36147619D01*
X36028380Y-36290476D01*
X36076000Y-36433333D01*
X36171238Y-36528571D01*
X36266476Y-36576190D01*
X36456952Y-36623809D01*
X36599809Y-36623809D01*
X36790285Y-36576190D01*
X36885523Y-36528571D01*
X36980761Y-36433333D01*
X37028380Y-36290476D01*
X37028380Y-36195238D01*
X36980761Y-36052380D01*
X36933142Y-36004761D01*
X36599809Y-36004761D01*
X36599809Y-36195238D01*
X36504571Y-35242857D02*
X36552190Y-35100000D01*
X36599809Y-35052380D01*
X36695047Y-35004761D01*
X36837904Y-35004761D01*
X36933142Y-35052380D01*
X36980761Y-35100000D01*
X37028380Y-35195238D01*
X37028380Y-35576190D01*
X36028380Y-35576190D01*
X36028380Y-35242857D01*
X36076000Y-35147619D01*
X36123619Y-35100000D01*
X36218857Y-35052380D01*
X36314095Y-35052380D01*
X36409333Y-35100000D01*
X36456952Y-35147619D01*
X36504571Y-35242857D01*
X36504571Y-35576190D01*
X36980761Y-34623809D02*
X37028380Y-34480952D01*
X37028380Y-34242857D01*
X36980761Y-34147619D01*
X36933142Y-34100000D01*
X36837904Y-34052380D01*
X36742666Y-34052380D01*
X36647428Y-34100000D01*
X36599809Y-34147619D01*
X36552190Y-34242857D01*
X36504571Y-34433333D01*
X36456952Y-34528571D01*
X36409333Y-34576190D01*
X36314095Y-34623809D01*
X36218857Y-34623809D01*
X36123619Y-34576190D01*
X36076000Y-34528571D01*
X36028380Y-34433333D01*
X36028380Y-34195238D01*
X36076000Y-34052380D01*
X37028380Y-32861904D02*
X36028380Y-32861904D01*
X36361714Y-32385714D02*
X37028380Y-32385714D01*
X36456952Y-32385714D02*
X36409333Y-32338095D01*
X36361714Y-32242857D01*
X36361714Y-32100000D01*
X36409333Y-32004761D01*
X36504571Y-31957142D01*
X37028380Y-31957142D01*
X27630380Y-49886666D02*
X27630380Y-50362857D01*
X26630380Y-50362857D01*
X27630380Y-49553333D02*
X26963714Y-49553333D01*
X26630380Y-49553333D02*
X26678000Y-49600952D01*
X26725619Y-49553333D01*
X26678000Y-49505714D01*
X26630380Y-49553333D01*
X26725619Y-49553333D01*
X26963714Y-49077142D02*
X27630380Y-49077142D01*
X27058952Y-49077142D02*
X27011333Y-49029523D01*
X26963714Y-48934285D01*
X26963714Y-48791428D01*
X27011333Y-48696190D01*
X27106571Y-48648571D01*
X27630380Y-48648571D01*
X27630380Y-47743809D02*
X26630380Y-47743809D01*
X27582761Y-47743809D02*
X27630380Y-47839047D01*
X27630380Y-48029523D01*
X27582761Y-48124761D01*
X27535142Y-48172380D01*
X27439904Y-48220000D01*
X27154190Y-48220000D01*
X27058952Y-48172380D01*
X27011333Y-48124761D01*
X26963714Y-48029523D01*
X26963714Y-47839047D01*
X27011333Y-47743809D01*
X26963714Y-47362857D02*
X27630380Y-47124761D01*
X26963714Y-46886666D02*
X27630380Y-47124761D01*
X27868476Y-47220000D01*
X27916095Y-47267619D01*
X27963714Y-47362857D01*
X27630380Y-45172380D02*
X27154190Y-45505714D01*
X27630380Y-45743809D02*
X26630380Y-45743809D01*
X26630380Y-45362857D01*
X26678000Y-45267619D01*
X26725619Y-45220000D01*
X26820857Y-45172380D01*
X26963714Y-45172380D01*
X27058952Y-45220000D01*
X27106571Y-45267619D01*
X27154190Y-45362857D01*
X27154190Y-45743809D01*
X26678000Y-44220000D02*
X26630380Y-44315238D01*
X26630380Y-44458095D01*
X26678000Y-44600952D01*
X26773238Y-44696190D01*
X26868476Y-44743809D01*
X27058952Y-44791428D01*
X27201809Y-44791428D01*
X27392285Y-44743809D01*
X27487523Y-44696190D01*
X27582761Y-44600952D01*
X27630380Y-44458095D01*
X27630380Y-44362857D01*
X27582761Y-44220000D01*
X27535142Y-44172380D01*
X27201809Y-44172380D01*
X27201809Y-44362857D01*
X27106571Y-43410476D02*
X27154190Y-43267619D01*
X27201809Y-43220000D01*
X27297047Y-43172380D01*
X27439904Y-43172380D01*
X27535142Y-43220000D01*
X27582761Y-43267619D01*
X27630380Y-43362857D01*
X27630380Y-43743809D01*
X26630380Y-43743809D01*
X26630380Y-43410476D01*
X26678000Y-43315238D01*
X26725619Y-43267619D01*
X26820857Y-43220000D01*
X26916095Y-43220000D01*
X27011333Y-43267619D01*
X27058952Y-43315238D01*
X27106571Y-43410476D01*
X27106571Y-43743809D01*
X27630380Y-41981904D02*
X26630380Y-41981904D01*
X26963714Y-41505714D02*
X27630380Y-41505714D01*
X27058952Y-41505714D02*
X27011333Y-41458095D01*
X26963714Y-41362857D01*
X26963714Y-41220000D01*
X27011333Y-41124761D01*
X27106571Y-41077142D01*
X27630380Y-41077142D01*
X89479428Y-34337523D02*
X89479428Y-33575619D01*
X89860380Y-33956571D02*
X89098476Y-33956571D01*
X88860380Y-33242285D02*
X89860380Y-32908952D01*
X88860380Y-32575619D01*
X73985428Y-34337523D02*
X73985428Y-33575619D01*
X74366380Y-33956571D02*
X73604476Y-33956571D01*
X73366380Y-33242285D02*
X74366380Y-32908952D01*
X73366380Y-32575619D01*
X73414000Y-31122857D02*
X73366380Y-31218095D01*
X73366380Y-31360952D01*
X73414000Y-31503809D01*
X73509238Y-31599047D01*
X73604476Y-31646666D01*
X73794952Y-31694285D01*
X73937809Y-31694285D01*
X74128285Y-31646666D01*
X74223523Y-31599047D01*
X74318761Y-31503809D01*
X74366380Y-31360952D01*
X74366380Y-31265714D01*
X74318761Y-31122857D01*
X74271142Y-31075238D01*
X73937809Y-31075238D01*
X73937809Y-31265714D01*
X73699714Y-30646666D02*
X74366380Y-30646666D01*
X73794952Y-30646666D02*
X73747333Y-30599047D01*
X73699714Y-30503809D01*
X73699714Y-30360952D01*
X73747333Y-30265714D01*
X73842571Y-30218095D01*
X74366380Y-30218095D01*
X74366380Y-29313333D02*
X73366380Y-29313333D01*
X74318761Y-29313333D02*
X74366380Y-29408571D01*
X74366380Y-29599047D01*
X74318761Y-29694285D01*
X74271142Y-29741904D01*
X74175904Y-29789523D01*
X73890190Y-29789523D01*
X73794952Y-29741904D01*
X73747333Y-29694285D01*
X73699714Y-29599047D01*
X73699714Y-29408571D01*
X73747333Y-29313333D01*
X88908000Y-30868857D02*
X88860380Y-30964095D01*
X88860380Y-31106952D01*
X88908000Y-31249809D01*
X89003238Y-31345047D01*
X89098476Y-31392666D01*
X89288952Y-31440285D01*
X89431809Y-31440285D01*
X89622285Y-31392666D01*
X89717523Y-31345047D01*
X89812761Y-31249809D01*
X89860380Y-31106952D01*
X89860380Y-31011714D01*
X89812761Y-30868857D01*
X89765142Y-30821238D01*
X89431809Y-30821238D01*
X89431809Y-31011714D01*
X89193714Y-30392666D02*
X89860380Y-30392666D01*
X89288952Y-30392666D02*
X89241333Y-30345047D01*
X89193714Y-30249809D01*
X89193714Y-30106952D01*
X89241333Y-30011714D01*
X89336571Y-29964095D01*
X89860380Y-29964095D01*
X89860380Y-29059333D02*
X88860380Y-29059333D01*
X89812761Y-29059333D02*
X89860380Y-29154571D01*
X89860380Y-29345047D01*
X89812761Y-29440285D01*
X89765142Y-29487904D01*
X89669904Y-29535523D01*
X89384190Y-29535523D01*
X89288952Y-29487904D01*
X89241333Y-29440285D01*
X89193714Y-29345047D01*
X89193714Y-29154571D01*
X89241333Y-29059333D01*
X82018571Y-27122380D02*
X81542380Y-27122380D01*
X81542380Y-26122380D01*
X82351904Y-27122380D02*
X82351904Y-26455714D01*
X82351904Y-26122380D02*
X82304285Y-26170000D01*
X82351904Y-26217619D01*
X82399523Y-26170000D01*
X82351904Y-26122380D01*
X82351904Y-26217619D01*
X82828095Y-26455714D02*
X82828095Y-27122380D01*
X82828095Y-26550952D02*
X82875714Y-26503333D01*
X82970952Y-26455714D01*
X83113809Y-26455714D01*
X83209047Y-26503333D01*
X83256666Y-26598571D01*
X83256666Y-27122380D01*
X84161428Y-27122380D02*
X84161428Y-26122380D01*
X84161428Y-27074761D02*
X84066190Y-27122380D01*
X83875714Y-27122380D01*
X83780476Y-27074761D01*
X83732857Y-27027142D01*
X83685238Y-26931904D01*
X83685238Y-26646190D01*
X83732857Y-26550952D01*
X83780476Y-26503333D01*
X83875714Y-26455714D01*
X84066190Y-26455714D01*
X84161428Y-26503333D01*
X84542380Y-26455714D02*
X84780476Y-27122380D01*
X85018571Y-26455714D02*
X84780476Y-27122380D01*
X84685238Y-27360476D01*
X84637619Y-27408095D01*
X84542380Y-27455714D01*
X86161428Y-26741428D02*
X86923333Y-26741428D01*
X86542380Y-27122380D02*
X86542380Y-26360476D01*
X87875714Y-26122380D02*
X87399523Y-26122380D01*
X87351904Y-26598571D01*
X87399523Y-26550952D01*
X87494761Y-26503333D01*
X87732857Y-26503333D01*
X87828095Y-26550952D01*
X87875714Y-26598571D01*
X87923333Y-26693809D01*
X87923333Y-26931904D01*
X87875714Y-27027142D01*
X87828095Y-27074761D01*
X87732857Y-27122380D01*
X87494761Y-27122380D01*
X87399523Y-27074761D01*
X87351904Y-27027142D01*
X88256666Y-26455714D02*
X88494761Y-27122380D01*
X88732857Y-26455714D01*
X77589142Y-27122380D02*
X77112952Y-27122380D01*
X77112952Y-26122380D01*
X77922476Y-26598571D02*
X78255809Y-26598571D01*
X78398666Y-27122380D02*
X77922476Y-27122380D01*
X77922476Y-26122380D01*
X78398666Y-26122380D01*
X78827238Y-27122380D02*
X78827238Y-26122380D01*
X79065333Y-26122380D01*
X79208190Y-26170000D01*
X79303428Y-26265238D01*
X79351047Y-26360476D01*
X79398666Y-26550952D01*
X79398666Y-26693809D01*
X79351047Y-26884285D01*
X79303428Y-26979523D01*
X79208190Y-27074761D01*
X79065333Y-27122380D01*
X78827238Y-27122380D01*
X132455481Y-28242643D02*
X132783780Y-28570943D01*
X132404973Y-28596197D01*
X132480735Y-28671958D01*
X132505988Y-28747719D01*
X132505988Y-28798227D01*
X132480735Y-28873988D01*
X132354466Y-29000258D01*
X132278704Y-29025511D01*
X132228197Y-29025511D01*
X132152435Y-29000258D01*
X132000912Y-28848735D01*
X131975658Y-28772973D01*
X131975658Y-28722466D01*
X132531242Y-29278049D02*
X132531242Y-29328557D01*
X132480735Y-29328557D01*
X132480735Y-29278049D01*
X132531242Y-29278049D01*
X132480735Y-29328557D01*
X133011065Y-29858887D02*
X132708019Y-29555841D01*
X132859542Y-29707364D02*
X133389872Y-29177034D01*
X133263603Y-29202288D01*
X133162588Y-29202288D01*
X133086826Y-29177034D01*
X133995963Y-29783126D02*
X133894948Y-29682111D01*
X133819187Y-29656857D01*
X133768679Y-29656857D01*
X133642410Y-29682111D01*
X133516141Y-29757872D01*
X133314111Y-29959902D01*
X133288857Y-30035664D01*
X133288857Y-30086172D01*
X133314111Y-30161933D01*
X133415126Y-30262948D01*
X133490887Y-30288202D01*
X133541395Y-30288202D01*
X133617156Y-30262948D01*
X133743425Y-30136679D01*
X133768679Y-30060918D01*
X133768679Y-30010410D01*
X133743425Y-29934649D01*
X133642410Y-29833633D01*
X133566649Y-29808380D01*
X133516141Y-29808380D01*
X133440380Y-29833633D01*
X133869694Y-30414471D02*
X134122233Y-30667009D01*
X133667664Y-30515486D02*
X134374771Y-30161933D01*
X134021217Y-30869040D01*
X134551547Y-31803431D02*
X134551547Y-31752923D01*
X134576801Y-31626654D01*
X134602055Y-31550893D01*
X134652563Y-31449877D01*
X134753578Y-31298355D01*
X134854593Y-31197339D01*
X135006116Y-31096324D01*
X135107131Y-31045816D01*
X135182893Y-31020563D01*
X135309162Y-30995309D01*
X135359669Y-30995309D01*
X134955608Y-31752923D02*
X135006116Y-31853938D01*
X135132385Y-31980208D01*
X135208147Y-32005461D01*
X135258654Y-32005461D01*
X135334416Y-31980208D01*
X135384923Y-31929700D01*
X135410177Y-31853938D01*
X135410177Y-31803431D01*
X135384923Y-31727669D01*
X135309162Y-31601400D01*
X135283908Y-31525639D01*
X135283908Y-31475131D01*
X135309162Y-31399370D01*
X135359669Y-31348862D01*
X135435431Y-31323608D01*
X135485938Y-31323608D01*
X135561700Y-31348862D01*
X135687969Y-31475131D01*
X135738477Y-31576147D01*
X135536446Y-32384269D02*
X135511192Y-32308507D01*
X135536446Y-32232746D01*
X135991015Y-31778177D01*
X135814238Y-32662061D02*
X135788984Y-32586299D01*
X135788984Y-32535791D01*
X135814238Y-32460030D01*
X135965761Y-32308507D01*
X136041522Y-32283253D01*
X136092030Y-32283253D01*
X136167791Y-32308507D01*
X136243553Y-32384269D01*
X136268807Y-32460030D01*
X136268807Y-32510538D01*
X136243553Y-32586299D01*
X136092030Y-32737822D01*
X136016269Y-32763076D01*
X135965761Y-32763076D01*
X135890000Y-32737822D01*
X135814238Y-32662061D01*
X136521345Y-32662061D02*
X136268807Y-33116629D01*
X136622360Y-32965106D01*
X136470837Y-33318660D01*
X136925406Y-33066122D01*
X136975913Y-33419675D02*
X137379975Y-33823736D01*
X137430482Y-34278305D02*
X137960812Y-33747975D01*
X137758782Y-33950005D02*
X137834543Y-33975259D01*
X137935558Y-34076274D01*
X137960812Y-34152036D01*
X137960812Y-34202543D01*
X137935558Y-34278305D01*
X137784036Y-34429827D01*
X137708274Y-34455081D01*
X137657766Y-34455081D01*
X137582005Y-34429827D01*
X137480990Y-34328812D01*
X137455736Y-34253051D01*
X137986066Y-34833888D02*
X137960812Y-34758127D01*
X137986066Y-34682366D01*
X138440635Y-34227797D01*
X138263858Y-35111680D02*
X138238604Y-35035919D01*
X138238604Y-34985411D01*
X138263858Y-34909650D01*
X138415381Y-34758127D01*
X138491142Y-34732873D01*
X138541650Y-34732873D01*
X138617411Y-34758127D01*
X138693173Y-34833888D01*
X138718427Y-34909650D01*
X138718427Y-34960158D01*
X138693173Y-35035919D01*
X138541650Y-35187442D01*
X138465888Y-35212696D01*
X138415381Y-35212696D01*
X138339619Y-35187442D01*
X138263858Y-35111680D01*
X138970965Y-35111680D02*
X138718427Y-35566249D01*
X139071980Y-35414726D01*
X138920457Y-35768280D01*
X139375026Y-35515741D01*
X138970965Y-36222848D02*
X139021472Y-36222848D01*
X139147741Y-36197594D01*
X139223503Y-36172341D01*
X139324518Y-36121833D01*
X139476041Y-36020818D01*
X139577056Y-35919802D01*
X139678072Y-35768280D01*
X139728579Y-35667264D01*
X139753833Y-35591503D01*
X139779087Y-35465234D01*
X139779087Y-35414726D01*
D13*
X39040000Y-47300000D02*
X38740000Y-47300000D01*
X38740000Y-47300000D02*
X38440000Y-47600000D01*
X38440000Y-47600000D02*
X37840000Y-47600000D01*
X38240000Y-54300000D02*
X38240000Y-54000000D01*
X38240000Y-54300000D02*
X38540000Y-54300000D01*
X43040000Y-47600000D02*
X43040000Y-47300000D01*
X43040000Y-47300000D02*
X42740000Y-47300000D01*
X43040000Y-54000000D02*
X43040000Y-54300000D01*
X43040000Y-54300000D02*
X42740000Y-54300000D01*
D14*
G36*
X73763910Y-37882348D02*
G01*
X73842454Y-37882778D01*
X73899298Y-37883942D01*
X73938105Y-37886207D01*
X73962538Y-37889940D01*
X73976262Y-37895506D01*
X73982940Y-37903273D01*
X73986236Y-37913605D01*
X73986556Y-37914943D01*
X73991562Y-37939079D01*
X74000829Y-37986701D01*
X74013392Y-38052741D01*
X74028287Y-38132128D01*
X74044551Y-38219796D01*
X74045119Y-38222875D01*
X74061410Y-38308789D01*
X74076652Y-38384696D01*
X74089861Y-38446045D01*
X74100054Y-38488282D01*
X74106248Y-38506855D01*
X74106543Y-38507184D01*
X74124788Y-38516253D01*
X74162405Y-38531367D01*
X74211271Y-38549262D01*
X74211543Y-38549358D01*
X74273093Y-38572493D01*
X74345657Y-38601965D01*
X74414057Y-38631597D01*
X74417294Y-38633062D01*
X74528702Y-38683626D01*
X74775399Y-38515160D01*
X74851077Y-38463803D01*
X74919631Y-38417889D01*
X74977088Y-38380030D01*
X75019476Y-38352837D01*
X75042825Y-38338921D01*
X75045042Y-38337889D01*
X75062010Y-38342484D01*
X75093701Y-38364655D01*
X75141352Y-38405447D01*
X75206198Y-38465905D01*
X75272397Y-38530227D01*
X75336214Y-38593612D01*
X75393329Y-38651451D01*
X75440305Y-38700175D01*
X75473703Y-38736210D01*
X75490085Y-38755984D01*
X75490694Y-38757002D01*
X75492505Y-38770572D01*
X75485683Y-38792733D01*
X75468540Y-38826478D01*
X75439393Y-38874800D01*
X75396555Y-38940692D01*
X75339448Y-39025517D01*
X75288766Y-39100177D01*
X75243461Y-39167140D01*
X75206150Y-39222516D01*
X75179452Y-39262420D01*
X75165985Y-39282962D01*
X75165137Y-39284356D01*
X75166781Y-39304038D01*
X75179245Y-39342293D01*
X75200048Y-39391889D01*
X75207462Y-39407728D01*
X75239814Y-39478290D01*
X75274328Y-39558353D01*
X75302365Y-39627629D01*
X75322568Y-39679045D01*
X75338615Y-39718119D01*
X75347888Y-39738541D01*
X75349041Y-39740114D01*
X75366096Y-39742721D01*
X75406298Y-39749863D01*
X75464302Y-39760523D01*
X75534763Y-39773685D01*
X75612335Y-39788333D01*
X75691672Y-39803449D01*
X75767431Y-39818018D01*
X75834264Y-39831022D01*
X75886828Y-39841445D01*
X75919776Y-39848270D01*
X75927857Y-39850199D01*
X75936205Y-39854962D01*
X75942506Y-39865718D01*
X75947045Y-39886098D01*
X75950104Y-39919734D01*
X75951967Y-39970255D01*
X75952918Y-40041292D01*
X75953240Y-40136476D01*
X75953257Y-40175492D01*
X75953257Y-40492799D01*
X75877057Y-40507839D01*
X75834663Y-40515995D01*
X75771400Y-40527899D01*
X75694962Y-40542116D01*
X75613043Y-40557210D01*
X75590400Y-40561355D01*
X75514806Y-40576053D01*
X75448953Y-40590505D01*
X75398366Y-40603375D01*
X75368574Y-40613322D01*
X75363612Y-40616287D01*
X75351426Y-40637283D01*
X75333953Y-40677967D01*
X75314577Y-40730322D01*
X75310734Y-40741600D01*
X75285339Y-40811523D01*
X75253817Y-40890418D01*
X75222969Y-40961266D01*
X75222817Y-40961595D01*
X75171447Y-41072733D01*
X75340399Y-41321253D01*
X75509352Y-41569772D01*
X75292429Y-41787058D01*
X75226819Y-41851726D01*
X75166979Y-41908733D01*
X75116267Y-41955033D01*
X75078046Y-41987584D01*
X75055675Y-42003343D01*
X75052466Y-42004343D01*
X75033626Y-41996469D01*
X74995180Y-41974578D01*
X74941330Y-41941267D01*
X74876276Y-41899131D01*
X74805940Y-41851943D01*
X74734555Y-41803810D01*
X74670908Y-41761928D01*
X74619041Y-41728871D01*
X74582995Y-41707218D01*
X74566867Y-41699543D01*
X74547189Y-41706037D01*
X74509875Y-41723150D01*
X74462621Y-41747326D01*
X74457612Y-41750013D01*
X74393977Y-41781927D01*
X74350341Y-41797579D01*
X74323202Y-41797745D01*
X74309057Y-41783204D01*
X74308975Y-41783000D01*
X74301905Y-41765779D01*
X74285042Y-41724899D01*
X74259695Y-41663525D01*
X74227171Y-41584819D01*
X74188778Y-41491947D01*
X74145822Y-41388072D01*
X74104222Y-41287502D01*
X74058504Y-41176516D01*
X74016526Y-41073703D01*
X73979548Y-40982215D01*
X73948827Y-40905201D01*
X73925622Y-40845815D01*
X73911190Y-40807209D01*
X73906743Y-40792800D01*
X73917896Y-40776272D01*
X73947069Y-40749930D01*
X73985971Y-40720887D01*
X74096757Y-40629039D01*
X74183351Y-40523759D01*
X74244716Y-40407266D01*
X74279815Y-40281776D01*
X74287608Y-40149507D01*
X74281943Y-40088457D01*
X74251078Y-39961795D01*
X74197920Y-39849941D01*
X74125767Y-39754001D01*
X74037917Y-39675076D01*
X73937665Y-39614270D01*
X73828310Y-39572687D01*
X73713147Y-39551428D01*
X73595475Y-39551599D01*
X73478590Y-39574301D01*
X73365789Y-39620638D01*
X73260369Y-39691713D01*
X73216368Y-39731911D01*
X73131979Y-39835129D01*
X73073222Y-39947925D01*
X73039704Y-40067010D01*
X73031035Y-40189095D01*
X73046823Y-40310893D01*
X73086678Y-40429116D01*
X73150207Y-40540475D01*
X73237021Y-40641684D01*
X73334029Y-40720887D01*
X73374437Y-40751162D01*
X73402982Y-40777219D01*
X73413257Y-40792825D01*
X73407877Y-40809843D01*
X73392575Y-40850500D01*
X73368612Y-40911642D01*
X73337244Y-40990119D01*
X73299732Y-41082780D01*
X73257333Y-41186472D01*
X73215663Y-41287526D01*
X73169690Y-41398607D01*
X73127107Y-41501541D01*
X73089221Y-41593165D01*
X73057340Y-41670316D01*
X73032771Y-41729831D01*
X73016820Y-41768544D01*
X73010910Y-41783000D01*
X72996948Y-41797685D01*
X72969940Y-41797642D01*
X72926413Y-41782099D01*
X72862890Y-41750284D01*
X72862388Y-41750013D01*
X72814560Y-41725323D01*
X72775897Y-41707338D01*
X72754095Y-41699614D01*
X72753133Y-41699543D01*
X72736721Y-41707378D01*
X72700487Y-41729165D01*
X72648474Y-41762328D01*
X72584725Y-41804291D01*
X72514060Y-41851943D01*
X72442116Y-41900191D01*
X72377274Y-41942151D01*
X72323735Y-41975227D01*
X72285697Y-41996821D01*
X72267533Y-42004343D01*
X72250808Y-41994457D01*
X72217180Y-41966826D01*
X72170010Y-41924495D01*
X72112658Y-41870505D01*
X72048484Y-41807899D01*
X72027497Y-41786983D01*
X71810499Y-41569623D01*
X71975668Y-41327220D01*
X72025864Y-41252781D01*
X72069919Y-41185972D01*
X72105362Y-41130665D01*
X72129719Y-41090729D01*
X72140522Y-41070036D01*
X72140838Y-41068563D01*
X72135143Y-41049058D01*
X72119826Y-41009822D01*
X72097537Y-40957430D01*
X72081893Y-40922355D01*
X72052641Y-40855201D01*
X72025094Y-40787358D01*
X72003737Y-40730034D01*
X71997935Y-40712572D01*
X71981452Y-40665938D01*
X71965340Y-40629905D01*
X71956490Y-40616287D01*
X71936960Y-40607952D01*
X71894334Y-40596137D01*
X71834145Y-40582181D01*
X71761922Y-40567422D01*
X71729600Y-40561355D01*
X71647522Y-40546273D01*
X71568795Y-40531669D01*
X71501109Y-40518980D01*
X71452160Y-40509642D01*
X71442943Y-40507839D01*
X71366743Y-40492799D01*
X71366743Y-40175492D01*
X71366914Y-40071154D01*
X71367616Y-39992213D01*
X71369134Y-39935038D01*
X71371749Y-39895999D01*
X71375746Y-39871465D01*
X71381409Y-39857805D01*
X71389020Y-39851389D01*
X71392143Y-39850199D01*
X71410978Y-39845980D01*
X71452588Y-39837562D01*
X71511630Y-39825961D01*
X71582757Y-39812195D01*
X71660625Y-39797280D01*
X71739887Y-39782232D01*
X71815198Y-39768069D01*
X71881213Y-39755806D01*
X71932587Y-39746461D01*
X71963975Y-39741050D01*
X71970959Y-39740114D01*
X71977285Y-39727596D01*
X71991290Y-39694246D01*
X72010355Y-39646377D01*
X72017634Y-39627629D01*
X72046996Y-39555195D01*
X72081571Y-39475170D01*
X72112537Y-39407728D01*
X72135323Y-39356159D01*
X72150482Y-39313785D01*
X72155542Y-39287834D01*
X72154736Y-39284356D01*
X72144041Y-39267936D01*
X72119620Y-39231417D01*
X72084095Y-39178687D01*
X72040087Y-39113635D01*
X71990217Y-39040151D01*
X71980356Y-39025645D01*
X71922492Y-38939704D01*
X71879956Y-38874261D01*
X71851054Y-38826304D01*
X71834090Y-38792820D01*
X71827367Y-38770795D01*
X71829190Y-38757217D01*
X71829236Y-38757131D01*
X71843586Y-38739297D01*
X71875323Y-38704817D01*
X71921010Y-38657268D01*
X71977204Y-38600222D01*
X72040468Y-38537255D01*
X72047602Y-38530227D01*
X72127330Y-38453020D01*
X72188857Y-38396330D01*
X72233421Y-38359110D01*
X72262257Y-38340315D01*
X72274958Y-38337889D01*
X72293494Y-38348471D01*
X72331961Y-38372916D01*
X72386386Y-38408612D01*
X72452798Y-38452947D01*
X72527225Y-38503311D01*
X72544601Y-38515160D01*
X72791297Y-38683626D01*
X72902706Y-38633062D01*
X72970457Y-38603595D01*
X73043183Y-38573959D01*
X73105703Y-38550330D01*
X73108457Y-38549358D01*
X73157360Y-38531457D01*
X73195057Y-38516320D01*
X73213425Y-38507210D01*
X73213456Y-38507184D01*
X73219285Y-38490717D01*
X73229192Y-38450219D01*
X73242195Y-38390242D01*
X73257309Y-38315340D01*
X73273552Y-38230064D01*
X73274881Y-38222875D01*
X73291175Y-38135014D01*
X73306133Y-38055260D01*
X73318791Y-37988681D01*
X73328186Y-37940347D01*
X73333354Y-37915325D01*
X73333444Y-37914943D01*
X73336589Y-37904299D01*
X73342704Y-37896262D01*
X73355453Y-37890467D01*
X73378500Y-37886547D01*
X73415509Y-37884135D01*
X73470144Y-37882865D01*
X73546067Y-37882371D01*
X73646944Y-37882286D01*
X73660000Y-37882286D01*
X73763910Y-37882348D01*
G37*
X73763910Y-37882348D02*
X73842454Y-37882778D01*
X73899298Y-37883942D01*
X73938105Y-37886207D01*
X73962538Y-37889940D01*
X73976262Y-37895506D01*
X73982940Y-37903273D01*
X73986236Y-37913605D01*
X73986556Y-37914943D01*
X73991562Y-37939079D01*
X74000829Y-37986701D01*
X74013392Y-38052741D01*
X74028287Y-38132128D01*
X74044551Y-38219796D01*
X74045119Y-38222875D01*
X74061410Y-38308789D01*
X74076652Y-38384696D01*
X74089861Y-38446045D01*
X74100054Y-38488282D01*
X74106248Y-38506855D01*
X74106543Y-38507184D01*
X74124788Y-38516253D01*
X74162405Y-38531367D01*
X74211271Y-38549262D01*
X74211543Y-38549358D01*
X74273093Y-38572493D01*
X74345657Y-38601965D01*
X74414057Y-38631597D01*
X74417294Y-38633062D01*
X74528702Y-38683626D01*
X74775399Y-38515160D01*
X74851077Y-38463803D01*
X74919631Y-38417889D01*
X74977088Y-38380030D01*
X75019476Y-38352837D01*
X75042825Y-38338921D01*
X75045042Y-38337889D01*
X75062010Y-38342484D01*
X75093701Y-38364655D01*
X75141352Y-38405447D01*
X75206198Y-38465905D01*
X75272397Y-38530227D01*
X75336214Y-38593612D01*
X75393329Y-38651451D01*
X75440305Y-38700175D01*
X75473703Y-38736210D01*
X75490085Y-38755984D01*
X75490694Y-38757002D01*
X75492505Y-38770572D01*
X75485683Y-38792733D01*
X75468540Y-38826478D01*
X75439393Y-38874800D01*
X75396555Y-38940692D01*
X75339448Y-39025517D01*
X75288766Y-39100177D01*
X75243461Y-39167140D01*
X75206150Y-39222516D01*
X75179452Y-39262420D01*
X75165985Y-39282962D01*
X75165137Y-39284356D01*
X75166781Y-39304038D01*
X75179245Y-39342293D01*
X75200048Y-39391889D01*
X75207462Y-39407728D01*
X75239814Y-39478290D01*
X75274328Y-39558353D01*
X75302365Y-39627629D01*
X75322568Y-39679045D01*
X75338615Y-39718119D01*
X75347888Y-39738541D01*
X75349041Y-39740114D01*
X75366096Y-39742721D01*
X75406298Y-39749863D01*
X75464302Y-39760523D01*
X75534763Y-39773685D01*
X75612335Y-39788333D01*
X75691672Y-39803449D01*
X75767431Y-39818018D01*
X75834264Y-39831022D01*
X75886828Y-39841445D01*
X75919776Y-39848270D01*
X75927857Y-39850199D01*
X75936205Y-39854962D01*
X75942506Y-39865718D01*
X75947045Y-39886098D01*
X75950104Y-39919734D01*
X75951967Y-39970255D01*
X75952918Y-40041292D01*
X75953240Y-40136476D01*
X75953257Y-40175492D01*
X75953257Y-40492799D01*
X75877057Y-40507839D01*
X75834663Y-40515995D01*
X75771400Y-40527899D01*
X75694962Y-40542116D01*
X75613043Y-40557210D01*
X75590400Y-40561355D01*
X75514806Y-40576053D01*
X75448953Y-40590505D01*
X75398366Y-40603375D01*
X75368574Y-40613322D01*
X75363612Y-40616287D01*
X75351426Y-40637283D01*
X75333953Y-40677967D01*
X75314577Y-40730322D01*
X75310734Y-40741600D01*
X75285339Y-40811523D01*
X75253817Y-40890418D01*
X75222969Y-40961266D01*
X75222817Y-40961595D01*
X75171447Y-41072733D01*
X75340399Y-41321253D01*
X75509352Y-41569772D01*
X75292429Y-41787058D01*
X75226819Y-41851726D01*
X75166979Y-41908733D01*
X75116267Y-41955033D01*
X75078046Y-41987584D01*
X75055675Y-42003343D01*
X75052466Y-42004343D01*
X75033626Y-41996469D01*
X74995180Y-41974578D01*
X74941330Y-41941267D01*
X74876276Y-41899131D01*
X74805940Y-41851943D01*
X74734555Y-41803810D01*
X74670908Y-41761928D01*
X74619041Y-41728871D01*
X74582995Y-41707218D01*
X74566867Y-41699543D01*
X74547189Y-41706037D01*
X74509875Y-41723150D01*
X74462621Y-41747326D01*
X74457612Y-41750013D01*
X74393977Y-41781927D01*
X74350341Y-41797579D01*
X74323202Y-41797745D01*
X74309057Y-41783204D01*
X74308975Y-41783000D01*
X74301905Y-41765779D01*
X74285042Y-41724899D01*
X74259695Y-41663525D01*
X74227171Y-41584819D01*
X74188778Y-41491947D01*
X74145822Y-41388072D01*
X74104222Y-41287502D01*
X74058504Y-41176516D01*
X74016526Y-41073703D01*
X73979548Y-40982215D01*
X73948827Y-40905201D01*
X73925622Y-40845815D01*
X73911190Y-40807209D01*
X73906743Y-40792800D01*
X73917896Y-40776272D01*
X73947069Y-40749930D01*
X73985971Y-40720887D01*
X74096757Y-40629039D01*
X74183351Y-40523759D01*
X74244716Y-40407266D01*
X74279815Y-40281776D01*
X74287608Y-40149507D01*
X74281943Y-40088457D01*
X74251078Y-39961795D01*
X74197920Y-39849941D01*
X74125767Y-39754001D01*
X74037917Y-39675076D01*
X73937665Y-39614270D01*
X73828310Y-39572687D01*
X73713147Y-39551428D01*
X73595475Y-39551599D01*
X73478590Y-39574301D01*
X73365789Y-39620638D01*
X73260369Y-39691713D01*
X73216368Y-39731911D01*
X73131979Y-39835129D01*
X73073222Y-39947925D01*
X73039704Y-40067010D01*
X73031035Y-40189095D01*
X73046823Y-40310893D01*
X73086678Y-40429116D01*
X73150207Y-40540475D01*
X73237021Y-40641684D01*
X73334029Y-40720887D01*
X73374437Y-40751162D01*
X73402982Y-40777219D01*
X73413257Y-40792825D01*
X73407877Y-40809843D01*
X73392575Y-40850500D01*
X73368612Y-40911642D01*
X73337244Y-40990119D01*
X73299732Y-41082780D01*
X73257333Y-41186472D01*
X73215663Y-41287526D01*
X73169690Y-41398607D01*
X73127107Y-41501541D01*
X73089221Y-41593165D01*
X73057340Y-41670316D01*
X73032771Y-41729831D01*
X73016820Y-41768544D01*
X73010910Y-41783000D01*
X72996948Y-41797685D01*
X72969940Y-41797642D01*
X72926413Y-41782099D01*
X72862890Y-41750284D01*
X72862388Y-41750013D01*
X72814560Y-41725323D01*
X72775897Y-41707338D01*
X72754095Y-41699614D01*
X72753133Y-41699543D01*
X72736721Y-41707378D01*
X72700487Y-41729165D01*
X72648474Y-41762328D01*
X72584725Y-41804291D01*
X72514060Y-41851943D01*
X72442116Y-41900191D01*
X72377274Y-41942151D01*
X72323735Y-41975227D01*
X72285697Y-41996821D01*
X72267533Y-42004343D01*
X72250808Y-41994457D01*
X72217180Y-41966826D01*
X72170010Y-41924495D01*
X72112658Y-41870505D01*
X72048484Y-41807899D01*
X72027497Y-41786983D01*
X71810499Y-41569623D01*
X71975668Y-41327220D01*
X72025864Y-41252781D01*
X72069919Y-41185972D01*
X72105362Y-41130665D01*
X72129719Y-41090729D01*
X72140522Y-41070036D01*
X72140838Y-41068563D01*
X72135143Y-41049058D01*
X72119826Y-41009822D01*
X72097537Y-40957430D01*
X72081893Y-40922355D01*
X72052641Y-40855201D01*
X72025094Y-40787358D01*
X72003737Y-40730034D01*
X71997935Y-40712572D01*
X71981452Y-40665938D01*
X71965340Y-40629905D01*
X71956490Y-40616287D01*
X71936960Y-40607952D01*
X71894334Y-40596137D01*
X71834145Y-40582181D01*
X71761922Y-40567422D01*
X71729600Y-40561355D01*
X71647522Y-40546273D01*
X71568795Y-40531669D01*
X71501109Y-40518980D01*
X71452160Y-40509642D01*
X71442943Y-40507839D01*
X71366743Y-40492799D01*
X71366743Y-40175492D01*
X71366914Y-40071154D01*
X71367616Y-39992213D01*
X71369134Y-39935038D01*
X71371749Y-39895999D01*
X71375746Y-39871465D01*
X71381409Y-39857805D01*
X71389020Y-39851389D01*
X71392143Y-39850199D01*
X71410978Y-39845980D01*
X71452588Y-39837562D01*
X71511630Y-39825961D01*
X71582757Y-39812195D01*
X71660625Y-39797280D01*
X71739887Y-39782232D01*
X71815198Y-39768069D01*
X71881213Y-39755806D01*
X71932587Y-39746461D01*
X71963975Y-39741050D01*
X71970959Y-39740114D01*
X71977285Y-39727596D01*
X71991290Y-39694246D01*
X72010355Y-39646377D01*
X72017634Y-39627629D01*
X72046996Y-39555195D01*
X72081571Y-39475170D01*
X72112537Y-39407728D01*
X72135323Y-39356159D01*
X72150482Y-39313785D01*
X72155542Y-39287834D01*
X72154736Y-39284356D01*
X72144041Y-39267936D01*
X72119620Y-39231417D01*
X72084095Y-39178687D01*
X72040087Y-39113635D01*
X71990217Y-39040151D01*
X71980356Y-39025645D01*
X71922492Y-38939704D01*
X71879956Y-38874261D01*
X71851054Y-38826304D01*
X71834090Y-38792820D01*
X71827367Y-38770795D01*
X71829190Y-38757217D01*
X71829236Y-38757131D01*
X71843586Y-38739297D01*
X71875323Y-38704817D01*
X71921010Y-38657268D01*
X71977204Y-38600222D01*
X72040468Y-38537255D01*
X72047602Y-38530227D01*
X72127330Y-38453020D01*
X72188857Y-38396330D01*
X72233421Y-38359110D01*
X72262257Y-38340315D01*
X72274958Y-38337889D01*
X72293494Y-38348471D01*
X72331961Y-38372916D01*
X72386386Y-38408612D01*
X72452798Y-38452947D01*
X72527225Y-38503311D01*
X72544601Y-38515160D01*
X72791297Y-38683626D01*
X72902706Y-38633062D01*
X72970457Y-38603595D01*
X73043183Y-38573959D01*
X73105703Y-38550330D01*
X73108457Y-38549358D01*
X73157360Y-38531457D01*
X73195057Y-38516320D01*
X73213425Y-38507210D01*
X73213456Y-38507184D01*
X73219285Y-38490717D01*
X73229192Y-38450219D01*
X73242195Y-38390242D01*
X73257309Y-38315340D01*
X73273552Y-38230064D01*
X73274881Y-38222875D01*
X73291175Y-38135014D01*
X73306133Y-38055260D01*
X73318791Y-37988681D01*
X73328186Y-37940347D01*
X73333354Y-37915325D01*
X73333444Y-37914943D01*
X73336589Y-37904299D01*
X73342704Y-37896262D01*
X73355453Y-37890467D01*
X73378500Y-37886547D01*
X73415509Y-37884135D01*
X73470144Y-37882865D01*
X73546067Y-37882371D01*
X73646944Y-37882286D01*
X73660000Y-37882286D01*
X73763910Y-37882348D01*
G36*
X76813595Y-42606966D02*
G01*
X76871021Y-42644497D01*
X76898719Y-42678096D01*
X76920662Y-42739064D01*
X76922405Y-42787308D01*
X76918457Y-42851816D01*
X76769686Y-42916934D01*
X76697349Y-42950202D01*
X76650084Y-42976964D01*
X76625507Y-43000144D01*
X76621237Y-43022667D01*
X76634889Y-43047455D01*
X76649943Y-43063886D01*
X76693746Y-43090235D01*
X76741389Y-43092081D01*
X76785145Y-43071546D01*
X76817289Y-43030752D01*
X76823038Y-43016347D01*
X76850576Y-42971356D01*
X76882258Y-42952182D01*
X76925714Y-42935779D01*
X76925714Y-42997966D01*
X76921872Y-43040283D01*
X76906823Y-43075969D01*
X76875280Y-43116943D01*
X76870592Y-43122267D01*
X76835506Y-43158720D01*
X76805347Y-43178283D01*
X76767615Y-43187283D01*
X76736335Y-43190230D01*
X76680385Y-43190965D01*
X76640555Y-43181660D01*
X76615708Y-43167846D01*
X76576656Y-43137467D01*
X76549625Y-43104613D01*
X76532517Y-43063294D01*
X76523238Y-43007521D01*
X76519693Y-42931305D01*
X76519410Y-42892622D01*
X76520372Y-42846247D01*
X76608007Y-42846247D01*
X76609023Y-42871126D01*
X76611556Y-42875200D01*
X76628274Y-42869665D01*
X76664249Y-42855017D01*
X76712331Y-42834190D01*
X76722386Y-42829714D01*
X76783152Y-42798814D01*
X76816632Y-42771657D01*
X76823990Y-42746220D01*
X76806391Y-42720481D01*
X76791856Y-42709109D01*
X76739410Y-42686364D01*
X76690322Y-42690122D01*
X76649227Y-42717884D01*
X76620758Y-42767152D01*
X76611631Y-42806257D01*
X76608007Y-42846247D01*
X76520372Y-42846247D01*
X76521285Y-42802249D01*
X76528196Y-42735384D01*
X76541884Y-42686695D01*
X76564096Y-42650849D01*
X76596574Y-42622513D01*
X76610733Y-42613355D01*
X76675053Y-42589507D01*
X76745473Y-42588006D01*
X76813595Y-42606966D01*
G37*
X76813595Y-42606966D02*
X76871021Y-42644497D01*
X76898719Y-42678096D01*
X76920662Y-42739064D01*
X76922405Y-42787308D01*
X76918457Y-42851816D01*
X76769686Y-42916934D01*
X76697349Y-42950202D01*
X76650084Y-42976964D01*
X76625507Y-43000144D01*
X76621237Y-43022667D01*
X76634889Y-43047455D01*
X76649943Y-43063886D01*
X76693746Y-43090235D01*
X76741389Y-43092081D01*
X76785145Y-43071546D01*
X76817289Y-43030752D01*
X76823038Y-43016347D01*
X76850576Y-42971356D01*
X76882258Y-42952182D01*
X76925714Y-42935779D01*
X76925714Y-42997966D01*
X76921872Y-43040283D01*
X76906823Y-43075969D01*
X76875280Y-43116943D01*
X76870592Y-43122267D01*
X76835506Y-43158720D01*
X76805347Y-43178283D01*
X76767615Y-43187283D01*
X76736335Y-43190230D01*
X76680385Y-43190965D01*
X76640555Y-43181660D01*
X76615708Y-43167846D01*
X76576656Y-43137467D01*
X76549625Y-43104613D01*
X76532517Y-43063294D01*
X76523238Y-43007521D01*
X76519693Y-42931305D01*
X76519410Y-42892622D01*
X76520372Y-42846247D01*
X76608007Y-42846247D01*
X76609023Y-42871126D01*
X76611556Y-42875200D01*
X76628274Y-42869665D01*
X76664249Y-42855017D01*
X76712331Y-42834190D01*
X76722386Y-42829714D01*
X76783152Y-42798814D01*
X76816632Y-42771657D01*
X76823990Y-42746220D01*
X76806391Y-42720481D01*
X76791856Y-42709109D01*
X76739410Y-42686364D01*
X76690322Y-42690122D01*
X76649227Y-42717884D01*
X76620758Y-42767152D01*
X76611631Y-42806257D01*
X76608007Y-42846247D01*
X76520372Y-42846247D01*
X76521285Y-42802249D01*
X76528196Y-42735384D01*
X76541884Y-42686695D01*
X76564096Y-42650849D01*
X76596574Y-42622513D01*
X76610733Y-42613355D01*
X76675053Y-42589507D01*
X76745473Y-42588006D01*
X76813595Y-42606966D01*
G36*
X76312600Y-42598752D02*
G01*
X76329948Y-42606334D01*
X76371356Y-42639128D01*
X76406765Y-42686547D01*
X76428664Y-42737151D01*
X76432229Y-42762098D01*
X76420279Y-42796927D01*
X76394067Y-42815357D01*
X76365964Y-42826516D01*
X76353095Y-42828572D01*
X76346829Y-42813649D01*
X76334456Y-42781175D01*
X76329028Y-42766502D01*
X76298590Y-42715744D01*
X76254520Y-42690427D01*
X76198010Y-42691206D01*
X76193825Y-42692203D01*
X76163655Y-42706507D01*
X76141476Y-42734393D01*
X76126327Y-42779287D01*
X76117250Y-42844615D01*
X76113286Y-42933804D01*
X76112914Y-42981261D01*
X76112730Y-43056071D01*
X76111522Y-43107069D01*
X76108309Y-43139471D01*
X76102109Y-43158495D01*
X76091940Y-43169356D01*
X76076819Y-43177272D01*
X76075946Y-43177670D01*
X76046828Y-43189981D01*
X76032403Y-43194514D01*
X76030186Y-43180809D01*
X76028289Y-43142925D01*
X76026847Y-43085715D01*
X76025998Y-43014027D01*
X76025829Y-42961565D01*
X76026692Y-42860047D01*
X76030070Y-42783032D01*
X76037142Y-42726023D01*
X76049088Y-42684526D01*
X76067090Y-42654043D01*
X76092327Y-42630080D01*
X76117247Y-42613355D01*
X76177171Y-42591097D01*
X76246911Y-42586076D01*
X76312600Y-42598752D01*
G37*
X76312600Y-42598752D02*
X76329948Y-42606334D01*
X76371356Y-42639128D01*
X76406765Y-42686547D01*
X76428664Y-42737151D01*
X76432229Y-42762098D01*
X76420279Y-42796927D01*
X76394067Y-42815357D01*
X76365964Y-42826516D01*
X76353095Y-42828572D01*
X76346829Y-42813649D01*
X76334456Y-42781175D01*
X76329028Y-42766502D01*
X76298590Y-42715744D01*
X76254520Y-42690427D01*
X76198010Y-42691206D01*
X76193825Y-42692203D01*
X76163655Y-42706507D01*
X76141476Y-42734393D01*
X76126327Y-42779287D01*
X76117250Y-42844615D01*
X76113286Y-42933804D01*
X76112914Y-42981261D01*
X76112730Y-43056071D01*
X76111522Y-43107069D01*
X76108309Y-43139471D01*
X76102109Y-43158495D01*
X76091940Y-43169356D01*
X76076819Y-43177272D01*
X76075946Y-43177670D01*
X76046828Y-43189981D01*
X76032403Y-43194514D01*
X76030186Y-43180809D01*
X76028289Y-43142925D01*
X76026847Y-43085715D01*
X76025998Y-43014027D01*
X76025829Y-42961565D01*
X76026692Y-42860047D01*
X76030070Y-42783032D01*
X76037142Y-42726023D01*
X76049088Y-42684526D01*
X76067090Y-42654043D01*
X76092327Y-42630080D01*
X76117247Y-42613355D01*
X76177171Y-42591097D01*
X76246911Y-42586076D01*
X76312600Y-42598752D01*
G36*
X75804876Y-42596335D02*
G01*
X75846667Y-42615344D01*
X75879469Y-42638378D01*
X75903503Y-42664133D01*
X75920097Y-42697358D01*
X75930577Y-42742800D01*
X75936271Y-42805207D01*
X75938507Y-42889327D01*
X75938743Y-42944721D01*
X75938743Y-43160826D01*
X75901774Y-43177670D01*
X75872656Y-43189981D01*
X75858231Y-43194514D01*
X75855472Y-43181025D01*
X75853282Y-43144653D01*
X75851942Y-43091542D01*
X75851657Y-43049372D01*
X75850434Y-42988447D01*
X75847136Y-42940115D01*
X75842321Y-42910518D01*
X75838496Y-42904229D01*
X75812783Y-42910652D01*
X75772418Y-42927125D01*
X75725679Y-42949458D01*
X75680845Y-42973457D01*
X75646193Y-42994930D01*
X75630002Y-43009685D01*
X75629938Y-43009845D01*
X75631330Y-43037152D01*
X75643818Y-43063219D01*
X75665743Y-43084392D01*
X75697743Y-43091474D01*
X75725092Y-43090649D01*
X75763826Y-43090042D01*
X75784158Y-43099116D01*
X75796369Y-43123092D01*
X75797909Y-43127613D01*
X75803203Y-43161806D01*
X75789047Y-43182568D01*
X75752148Y-43192462D01*
X75712289Y-43194292D01*
X75640562Y-43180727D01*
X75603432Y-43161355D01*
X75557576Y-43115845D01*
X75533256Y-43059983D01*
X75531073Y-43000957D01*
X75551629Y-42945953D01*
X75582549Y-42911486D01*
X75613420Y-42892189D01*
X75661942Y-42867759D01*
X75718485Y-42842985D01*
X75727910Y-42839199D01*
X75790019Y-42811791D01*
X75825822Y-42787634D01*
X75837337Y-42763619D01*
X75826580Y-42736635D01*
X75808114Y-42715543D01*
X75764469Y-42689572D01*
X75716446Y-42687624D01*
X75672406Y-42707637D01*
X75640709Y-42747551D01*
X75636549Y-42757848D01*
X75612327Y-42795724D01*
X75576965Y-42823842D01*
X75532343Y-42846917D01*
X75532343Y-42781485D01*
X75534969Y-42741506D01*
X75546230Y-42709997D01*
X75571199Y-42676378D01*
X75595169Y-42650484D01*
X75632441Y-42613817D01*
X75661401Y-42594121D01*
X75692505Y-42586220D01*
X75727713Y-42584914D01*
X75804876Y-42596335D01*
G37*
X75804876Y-42596335D02*
X75846667Y-42615344D01*
X75879469Y-42638378D01*
X75903503Y-42664133D01*
X75920097Y-42697358D01*
X75930577Y-42742800D01*
X75936271Y-42805207D01*
X75938507Y-42889327D01*
X75938743Y-42944721D01*
X75938743Y-43160826D01*
X75901774Y-43177670D01*
X75872656Y-43189981D01*
X75858231Y-43194514D01*
X75855472Y-43181025D01*
X75853282Y-43144653D01*
X75851942Y-43091542D01*
X75851657Y-43049372D01*
X75850434Y-42988447D01*
X75847136Y-42940115D01*
X75842321Y-42910518D01*
X75838496Y-42904229D01*
X75812783Y-42910652D01*
X75772418Y-42927125D01*
X75725679Y-42949458D01*
X75680845Y-42973457D01*
X75646193Y-42994930D01*
X75630002Y-43009685D01*
X75629938Y-43009845D01*
X75631330Y-43037152D01*
X75643818Y-43063219D01*
X75665743Y-43084392D01*
X75697743Y-43091474D01*
X75725092Y-43090649D01*
X75763826Y-43090042D01*
X75784158Y-43099116D01*
X75796369Y-43123092D01*
X75797909Y-43127613D01*
X75803203Y-43161806D01*
X75789047Y-43182568D01*
X75752148Y-43192462D01*
X75712289Y-43194292D01*
X75640562Y-43180727D01*
X75603432Y-43161355D01*
X75557576Y-43115845D01*
X75533256Y-43059983D01*
X75531073Y-43000957D01*
X75551629Y-42945953D01*
X75582549Y-42911486D01*
X75613420Y-42892189D01*
X75661942Y-42867759D01*
X75718485Y-42842985D01*
X75727910Y-42839199D01*
X75790019Y-42811791D01*
X75825822Y-42787634D01*
X75837337Y-42763619D01*
X75826580Y-42736635D01*
X75808114Y-42715543D01*
X75764469Y-42689572D01*
X75716446Y-42687624D01*
X75672406Y-42707637D01*
X75640709Y-42747551D01*
X75636549Y-42757848D01*
X75612327Y-42795724D01*
X75576965Y-42823842D01*
X75532343Y-42846917D01*
X75532343Y-42781485D01*
X75534969Y-42741506D01*
X75546230Y-42709997D01*
X75571199Y-42676378D01*
X75595169Y-42650484D01*
X75632441Y-42613817D01*
X75661401Y-42594121D01*
X75692505Y-42586220D01*
X75727713Y-42584914D01*
X75804876Y-42596335D01*
G36*
X75439833Y-42598663D02*
G01*
X75442048Y-42636850D01*
X75443784Y-42694886D01*
X75444899Y-42768180D01*
X75445257Y-42845055D01*
X75445257Y-43105196D01*
X75399326Y-43151127D01*
X75367675Y-43179429D01*
X75339890Y-43190893D01*
X75301915Y-43190168D01*
X75286840Y-43188321D01*
X75239726Y-43182948D01*
X75200756Y-43179869D01*
X75191257Y-43179585D01*
X75159233Y-43181445D01*
X75113432Y-43186114D01*
X75095674Y-43188321D01*
X75052057Y-43191735D01*
X75022745Y-43184320D01*
X74993680Y-43161427D01*
X74983188Y-43151127D01*
X74937257Y-43105196D01*
X74937257Y-42618602D01*
X74974226Y-42601758D01*
X75006059Y-42589282D01*
X75024683Y-42584914D01*
X75029458Y-42598718D01*
X75033921Y-42637286D01*
X75037775Y-42696356D01*
X75040722Y-42771663D01*
X75042143Y-42835286D01*
X75046114Y-43085657D01*
X75080759Y-43090556D01*
X75112268Y-43087131D01*
X75127708Y-43076041D01*
X75132023Y-43055308D01*
X75135708Y-43011145D01*
X75138469Y-42949146D01*
X75140012Y-42874909D01*
X75140235Y-42836706D01*
X75140457Y-42616783D01*
X75186166Y-42600849D01*
X75218518Y-42590015D01*
X75236115Y-42584962D01*
X75236623Y-42584914D01*
X75238388Y-42598648D01*
X75240329Y-42636730D01*
X75242282Y-42694482D01*
X75244084Y-42767227D01*
X75245343Y-42835286D01*
X75249314Y-43085657D01*
X75336400Y-43085657D01*
X75340396Y-42857240D01*
X75344392Y-42628822D01*
X75386847Y-42606868D01*
X75418192Y-42591793D01*
X75436744Y-42584951D01*
X75437279Y-42584914D01*
X75439833Y-42598663D01*
G37*
X75439833Y-42598663D02*
X75442048Y-42636850D01*
X75443784Y-42694886D01*
X75444899Y-42768180D01*
X75445257Y-42845055D01*
X75445257Y-43105196D01*
X75399326Y-43151127D01*
X75367675Y-43179429D01*
X75339890Y-43190893D01*
X75301915Y-43190168D01*
X75286840Y-43188321D01*
X75239726Y-43182948D01*
X75200756Y-43179869D01*
X75191257Y-43179585D01*
X75159233Y-43181445D01*
X75113432Y-43186114D01*
X75095674Y-43188321D01*
X75052057Y-43191735D01*
X75022745Y-43184320D01*
X74993680Y-43161427D01*
X74983188Y-43151127D01*
X74937257Y-43105196D01*
X74937257Y-42618602D01*
X74974226Y-42601758D01*
X75006059Y-42589282D01*
X75024683Y-42584914D01*
X75029458Y-42598718D01*
X75033921Y-42637286D01*
X75037775Y-42696356D01*
X75040722Y-42771663D01*
X75042143Y-42835286D01*
X75046114Y-43085657D01*
X75080759Y-43090556D01*
X75112268Y-43087131D01*
X75127708Y-43076041D01*
X75132023Y-43055308D01*
X75135708Y-43011145D01*
X75138469Y-42949146D01*
X75140012Y-42874909D01*
X75140235Y-42836706D01*
X75140457Y-42616783D01*
X75186166Y-42600849D01*
X75218518Y-42590015D01*
X75236115Y-42584962D01*
X75236623Y-42584914D01*
X75238388Y-42598648D01*
X75240329Y-42636730D01*
X75242282Y-42694482D01*
X75244084Y-42767227D01*
X75245343Y-42835286D01*
X75249314Y-43085657D01*
X75336400Y-43085657D01*
X75340396Y-42857240D01*
X75344392Y-42628822D01*
X75386847Y-42606868D01*
X75418192Y-42591793D01*
X75436744Y-42584951D01*
X75437279Y-42584914D01*
X75439833Y-42598663D01*
G36*
X74850117Y-42705358D02*
G01*
X74849933Y-42813837D01*
X74849219Y-42897287D01*
X74847675Y-42959704D01*
X74845001Y-43005085D01*
X74840894Y-43037429D01*
X74835055Y-43060733D01*
X74827182Y-43078995D01*
X74821221Y-43089418D01*
X74771855Y-43145945D01*
X74709264Y-43181377D01*
X74640013Y-43194090D01*
X74570668Y-43182463D01*
X74529375Y-43161568D01*
X74486025Y-43125422D01*
X74456481Y-43081276D01*
X74438655Y-43023462D01*
X74430463Y-42946313D01*
X74429302Y-42889714D01*
X74429458Y-42885647D01*
X74530857Y-42885647D01*
X74531476Y-42950550D01*
X74534314Y-42993514D01*
X74540840Y-43021622D01*
X74552523Y-43041953D01*
X74566483Y-43057288D01*
X74613365Y-43086890D01*
X74663701Y-43089419D01*
X74711276Y-43064705D01*
X74714979Y-43061356D01*
X74730783Y-43043935D01*
X74740693Y-43023209D01*
X74746058Y-42992362D01*
X74748228Y-42944577D01*
X74748571Y-42891748D01*
X74747827Y-42825381D01*
X74744748Y-42781106D01*
X74738061Y-42752009D01*
X74726496Y-42731173D01*
X74717013Y-42720107D01*
X74672960Y-42692198D01*
X74622224Y-42688843D01*
X74573796Y-42710159D01*
X74564450Y-42718073D01*
X74548540Y-42735647D01*
X74538610Y-42756587D01*
X74533278Y-42787782D01*
X74531163Y-42836122D01*
X74530857Y-42885647D01*
X74429458Y-42885647D01*
X74432810Y-42798568D01*
X74444726Y-42730086D01*
X74467135Y-42678600D01*
X74502124Y-42638443D01*
X74529375Y-42617861D01*
X74578907Y-42595625D01*
X74636316Y-42585304D01*
X74689682Y-42588067D01*
X74719543Y-42599212D01*
X74731261Y-42602383D01*
X74739037Y-42590557D01*
X74744465Y-42558866D01*
X74748571Y-42510593D01*
X74753067Y-42456829D01*
X74759313Y-42424482D01*
X74770676Y-42405985D01*
X74790528Y-42393770D01*
X74803000Y-42388362D01*
X74850171Y-42368601D01*
X74850117Y-42705358D01*
G37*
X74850117Y-42705358D02*
X74849933Y-42813837D01*
X74849219Y-42897287D01*
X74847675Y-42959704D01*
X74845001Y-43005085D01*
X74840894Y-43037429D01*
X74835055Y-43060733D01*
X74827182Y-43078995D01*
X74821221Y-43089418D01*
X74771855Y-43145945D01*
X74709264Y-43181377D01*
X74640013Y-43194090D01*
X74570668Y-43182463D01*
X74529375Y-43161568D01*
X74486025Y-43125422D01*
X74456481Y-43081276D01*
X74438655Y-43023462D01*
X74430463Y-42946313D01*
X74429302Y-42889714D01*
X74429458Y-42885647D01*
X74530857Y-42885647D01*
X74531476Y-42950550D01*
X74534314Y-42993514D01*
X74540840Y-43021622D01*
X74552523Y-43041953D01*
X74566483Y-43057288D01*
X74613365Y-43086890D01*
X74663701Y-43089419D01*
X74711276Y-43064705D01*
X74714979Y-43061356D01*
X74730783Y-43043935D01*
X74740693Y-43023209D01*
X74746058Y-42992362D01*
X74748228Y-42944577D01*
X74748571Y-42891748D01*
X74747827Y-42825381D01*
X74744748Y-42781106D01*
X74738061Y-42752009D01*
X74726496Y-42731173D01*
X74717013Y-42720107D01*
X74672960Y-42692198D01*
X74622224Y-42688843D01*
X74573796Y-42710159D01*
X74564450Y-42718073D01*
X74548540Y-42735647D01*
X74538610Y-42756587D01*
X74533278Y-42787782D01*
X74531163Y-42836122D01*
X74530857Y-42885647D01*
X74429458Y-42885647D01*
X74432810Y-42798568D01*
X74444726Y-42730086D01*
X74467135Y-42678600D01*
X74502124Y-42638443D01*
X74529375Y-42617861D01*
X74578907Y-42595625D01*
X74636316Y-42585304D01*
X74689682Y-42588067D01*
X74719543Y-42599212D01*
X74731261Y-42602383D01*
X74739037Y-42590557D01*
X74744465Y-42558866D01*
X74748571Y-42510593D01*
X74753067Y-42456829D01*
X74759313Y-42424482D01*
X74770676Y-42405985D01*
X74790528Y-42393770D01*
X74803000Y-42388362D01*
X74850171Y-42368601D01*
X74850117Y-42705358D01*
G36*
X74189926Y-42589755D02*
G01*
X74255858Y-42614084D01*
X74309273Y-42657117D01*
X74330164Y-42687409D01*
X74352939Y-42742994D01*
X74352466Y-42783186D01*
X74328562Y-42810217D01*
X74319717Y-42814813D01*
X74281530Y-42829144D01*
X74262028Y-42825472D01*
X74255422Y-42801407D01*
X74255086Y-42788114D01*
X74242992Y-42739210D01*
X74211471Y-42704999D01*
X74167659Y-42688476D01*
X74118695Y-42692634D01*
X74078894Y-42714227D01*
X74065450Y-42726544D01*
X74055921Y-42741487D01*
X74049485Y-42764075D01*
X74045317Y-42799328D01*
X74042597Y-42852266D01*
X74040502Y-42927907D01*
X74039960Y-42951857D01*
X74037981Y-43033790D01*
X74035731Y-43091455D01*
X74032357Y-43129608D01*
X74027006Y-43153004D01*
X74018824Y-43166398D01*
X74006959Y-43174545D01*
X73999362Y-43178144D01*
X73967102Y-43190452D01*
X73948111Y-43194514D01*
X73941836Y-43180948D01*
X73938006Y-43139934D01*
X73936600Y-43070999D01*
X73937598Y-42973669D01*
X73937908Y-42958657D01*
X73940101Y-42869859D01*
X73942693Y-42805019D01*
X73946382Y-42759067D01*
X73951864Y-42726935D01*
X73959835Y-42703553D01*
X73970993Y-42683852D01*
X73976830Y-42675410D01*
X74010296Y-42638057D01*
X74047727Y-42609003D01*
X74052309Y-42606467D01*
X74119426Y-42586443D01*
X74189926Y-42589755D01*
G37*
X74189926Y-42589755D02*
X74255858Y-42614084D01*
X74309273Y-42657117D01*
X74330164Y-42687409D01*
X74352939Y-42742994D01*
X74352466Y-42783186D01*
X74328562Y-42810217D01*
X74319717Y-42814813D01*
X74281530Y-42829144D01*
X74262028Y-42825472D01*
X74255422Y-42801407D01*
X74255086Y-42788114D01*
X74242992Y-42739210D01*
X74211471Y-42704999D01*
X74167659Y-42688476D01*
X74118695Y-42692634D01*
X74078894Y-42714227D01*
X74065450Y-42726544D01*
X74055921Y-42741487D01*
X74049485Y-42764075D01*
X74045317Y-42799328D01*
X74042597Y-42852266D01*
X74040502Y-42927907D01*
X74039960Y-42951857D01*
X74037981Y-43033790D01*
X74035731Y-43091455D01*
X74032357Y-43129608D01*
X74027006Y-43153004D01*
X74018824Y-43166398D01*
X74006959Y-43174545D01*
X73999362Y-43178144D01*
X73967102Y-43190452D01*
X73948111Y-43194514D01*
X73941836Y-43180948D01*
X73938006Y-43139934D01*
X73936600Y-43070999D01*
X73937598Y-42973669D01*
X73937908Y-42958657D01*
X73940101Y-42869859D01*
X73942693Y-42805019D01*
X73946382Y-42759067D01*
X73951864Y-42726935D01*
X73959835Y-42703553D01*
X73970993Y-42683852D01*
X73976830Y-42675410D01*
X74010296Y-42638057D01*
X74047727Y-42609003D01*
X74052309Y-42606467D01*
X74119426Y-42586443D01*
X74189926Y-42589755D01*
G36*
X73699744Y-42590968D02*
G01*
X73756616Y-42612087D01*
X73757267Y-42612493D01*
X73792440Y-42638380D01*
X73818407Y-42668633D01*
X73836670Y-42708058D01*
X73848732Y-42761462D01*
X73856096Y-42833651D01*
X73860264Y-42929432D01*
X73860629Y-42943078D01*
X73865876Y-43148842D01*
X73821716Y-43171678D01*
X73789763Y-43187110D01*
X73770470Y-43194423D01*
X73769578Y-43194514D01*
X73766239Y-43181022D01*
X73763587Y-43144626D01*
X73761956Y-43091452D01*
X73761600Y-43048393D01*
X73761592Y-42978641D01*
X73758403Y-42934837D01*
X73747288Y-42913944D01*
X73723501Y-42912925D01*
X73682296Y-42928741D01*
X73620086Y-42957815D01*
X73574341Y-42981963D01*
X73550813Y-43002913D01*
X73543896Y-43025747D01*
X73543886Y-43026877D01*
X73555299Y-43066212D01*
X73589092Y-43087462D01*
X73640809Y-43090539D01*
X73678061Y-43090006D01*
X73697703Y-43100735D01*
X73709952Y-43126505D01*
X73717002Y-43159337D01*
X73706842Y-43177966D01*
X73703017Y-43180632D01*
X73667001Y-43191340D01*
X73616566Y-43192856D01*
X73564626Y-43185759D01*
X73527822Y-43172788D01*
X73476938Y-43129585D01*
X73448014Y-43069446D01*
X73442286Y-43022462D01*
X73446657Y-42980082D01*
X73462475Y-42945488D01*
X73493797Y-42914763D01*
X73544678Y-42883990D01*
X73619176Y-42849252D01*
X73623714Y-42847288D01*
X73690821Y-42816287D01*
X73732232Y-42790862D01*
X73749981Y-42768014D01*
X73746107Y-42744745D01*
X73722643Y-42718056D01*
X73715627Y-42711914D01*
X73668630Y-42688100D01*
X73619933Y-42689103D01*
X73577522Y-42712451D01*
X73549384Y-42755675D01*
X73546769Y-42764160D01*
X73521308Y-42805308D01*
X73489001Y-42825128D01*
X73442286Y-42844770D01*
X73442286Y-42793950D01*
X73456496Y-42720082D01*
X73498675Y-42652327D01*
X73520624Y-42629661D01*
X73570517Y-42600569D01*
X73633967Y-42587400D01*
X73699744Y-42590968D01*
G37*
X73699744Y-42590968D02*
X73756616Y-42612087D01*
X73757267Y-42612493D01*
X73792440Y-42638380D01*
X73818407Y-42668633D01*
X73836670Y-42708058D01*
X73848732Y-42761462D01*
X73856096Y-42833651D01*
X73860264Y-42929432D01*
X73860629Y-42943078D01*
X73865876Y-43148842D01*
X73821716Y-43171678D01*
X73789763Y-43187110D01*
X73770470Y-43194423D01*
X73769578Y-43194514D01*
X73766239Y-43181022D01*
X73763587Y-43144626D01*
X73761956Y-43091452D01*
X73761600Y-43048393D01*
X73761592Y-42978641D01*
X73758403Y-42934837D01*
X73747288Y-42913944D01*
X73723501Y-42912925D01*
X73682296Y-42928741D01*
X73620086Y-42957815D01*
X73574341Y-42981963D01*
X73550813Y-43002913D01*
X73543896Y-43025747D01*
X73543886Y-43026877D01*
X73555299Y-43066212D01*
X73589092Y-43087462D01*
X73640809Y-43090539D01*
X73678061Y-43090006D01*
X73697703Y-43100735D01*
X73709952Y-43126505D01*
X73717002Y-43159337D01*
X73706842Y-43177966D01*
X73703017Y-43180632D01*
X73667001Y-43191340D01*
X73616566Y-43192856D01*
X73564626Y-43185759D01*
X73527822Y-43172788D01*
X73476938Y-43129585D01*
X73448014Y-43069446D01*
X73442286Y-43022462D01*
X73446657Y-42980082D01*
X73462475Y-42945488D01*
X73493797Y-42914763D01*
X73544678Y-42883990D01*
X73619176Y-42849252D01*
X73623714Y-42847288D01*
X73690821Y-42816287D01*
X73732232Y-42790862D01*
X73749981Y-42768014D01*
X73746107Y-42744745D01*
X73722643Y-42718056D01*
X73715627Y-42711914D01*
X73668630Y-42688100D01*
X73619933Y-42689103D01*
X73577522Y-42712451D01*
X73549384Y-42755675D01*
X73546769Y-42764160D01*
X73521308Y-42805308D01*
X73489001Y-42825128D01*
X73442286Y-42844770D01*
X73442286Y-42793950D01*
X73456496Y-42720082D01*
X73498675Y-42652327D01*
X73520624Y-42629661D01*
X73570517Y-42600569D01*
X73633967Y-42587400D01*
X73699744Y-42590968D01*
G36*
X73035886Y-42491289D02*
G01*
X73040139Y-42550613D01*
X73045025Y-42585572D01*
X73051795Y-42600820D01*
X73061702Y-42601015D01*
X73064914Y-42599195D01*
X73107644Y-42586015D01*
X73163227Y-42586785D01*
X73219737Y-42600333D01*
X73255082Y-42617861D01*
X73291321Y-42645861D01*
X73317813Y-42677549D01*
X73335999Y-42717813D01*
X73347322Y-42771543D01*
X73353222Y-42843626D01*
X73355143Y-42938951D01*
X73355177Y-42957237D01*
X73355200Y-43162646D01*
X73309491Y-43178580D01*
X73277027Y-43189420D01*
X73259215Y-43194468D01*
X73258691Y-43194514D01*
X73256937Y-43180828D01*
X73255444Y-43143076D01*
X73254326Y-43086224D01*
X73253697Y-43015234D01*
X73253600Y-42972073D01*
X73253398Y-42886973D01*
X73252358Y-42825981D01*
X73249831Y-42784177D01*
X73245164Y-42756642D01*
X73237707Y-42738456D01*
X73226811Y-42724698D01*
X73220007Y-42718073D01*
X73173272Y-42691375D01*
X73122272Y-42689375D01*
X73076001Y-42711955D01*
X73067444Y-42720107D01*
X73054893Y-42735436D01*
X73046188Y-42753618D01*
X73040631Y-42779909D01*
X73037526Y-42819562D01*
X73036176Y-42877832D01*
X73035886Y-42958173D01*
X73035886Y-43162646D01*
X72990177Y-43178580D01*
X72957713Y-43189420D01*
X72939901Y-43194468D01*
X72939377Y-43194514D01*
X72938037Y-43180623D01*
X72936828Y-43141439D01*
X72935801Y-43080700D01*
X72935002Y-43002141D01*
X72934481Y-42909498D01*
X72934286Y-42806509D01*
X72934286Y-42409342D01*
X72981457Y-42389444D01*
X73028629Y-42369547D01*
X73035886Y-42491289D01*
G37*
X73035886Y-42491289D02*
X73040139Y-42550613D01*
X73045025Y-42585572D01*
X73051795Y-42600820D01*
X73061702Y-42601015D01*
X73064914Y-42599195D01*
X73107644Y-42586015D01*
X73163227Y-42586785D01*
X73219737Y-42600333D01*
X73255082Y-42617861D01*
X73291321Y-42645861D01*
X73317813Y-42677549D01*
X73335999Y-42717813D01*
X73347322Y-42771543D01*
X73353222Y-42843626D01*
X73355143Y-42938951D01*
X73355177Y-42957237D01*
X73355200Y-43162646D01*
X73309491Y-43178580D01*
X73277027Y-43189420D01*
X73259215Y-43194468D01*
X73258691Y-43194514D01*
X73256937Y-43180828D01*
X73255444Y-43143076D01*
X73254326Y-43086224D01*
X73253697Y-43015234D01*
X73253600Y-42972073D01*
X73253398Y-42886973D01*
X73252358Y-42825981D01*
X73249831Y-42784177D01*
X73245164Y-42756642D01*
X73237707Y-42738456D01*
X73226811Y-42724698D01*
X73220007Y-42718073D01*
X73173272Y-42691375D01*
X73122272Y-42689375D01*
X73076001Y-42711955D01*
X73067444Y-42720107D01*
X73054893Y-42735436D01*
X73046188Y-42753618D01*
X73040631Y-42779909D01*
X73037526Y-42819562D01*
X73036176Y-42877832D01*
X73035886Y-42958173D01*
X73035886Y-43162646D01*
X72990177Y-43178580D01*
X72957713Y-43189420D01*
X72939901Y-43194468D01*
X72939377Y-43194514D01*
X72938037Y-43180623D01*
X72936828Y-43141439D01*
X72935801Y-43080700D01*
X72935002Y-43002141D01*
X72934481Y-42909498D01*
X72934286Y-42806509D01*
X72934286Y-42409342D01*
X72981457Y-42389444D01*
X73028629Y-42369547D01*
X73035886Y-42491289D01*
G36*
X71828303Y-42571239D02*
G01*
X71885527Y-42609735D01*
X71929749Y-42665335D01*
X71956167Y-42736086D01*
X71961510Y-42788162D01*
X71960903Y-42809893D01*
X71955822Y-42826531D01*
X71941855Y-42841437D01*
X71914589Y-42857973D01*
X71869612Y-42879498D01*
X71802511Y-42909374D01*
X71802171Y-42909524D01*
X71740407Y-42937813D01*
X71689759Y-42962933D01*
X71655404Y-42982179D01*
X71642518Y-42992848D01*
X71642514Y-42992934D01*
X71653872Y-43016166D01*
X71680431Y-43041774D01*
X71710923Y-43060221D01*
X71726370Y-43063886D01*
X71768515Y-43051212D01*
X71804808Y-43019471D01*
X71822517Y-42984572D01*
X71839552Y-42958845D01*
X71872922Y-42929546D01*
X71912149Y-42904235D01*
X71946756Y-42890471D01*
X71953993Y-42889714D01*
X71962139Y-42902160D01*
X71962630Y-42933972D01*
X71956643Y-42976866D01*
X71945357Y-43022558D01*
X71929950Y-43062761D01*
X71929171Y-43064322D01*
X71882804Y-43129062D01*
X71822711Y-43173097D01*
X71754465Y-43194711D01*
X71683638Y-43192185D01*
X71615804Y-43163804D01*
X71612788Y-43161808D01*
X71559427Y-43113448D01*
X71524340Y-43050352D01*
X71504922Y-42967387D01*
X71502316Y-42944078D01*
X71497701Y-42834055D01*
X71503233Y-42782748D01*
X71642514Y-42782748D01*
X71644324Y-42814753D01*
X71654222Y-42824093D01*
X71678898Y-42817105D01*
X71717795Y-42800587D01*
X71761275Y-42779881D01*
X71762356Y-42779333D01*
X71799209Y-42759949D01*
X71814000Y-42747013D01*
X71810353Y-42733451D01*
X71794995Y-42715632D01*
X71755923Y-42689845D01*
X71713846Y-42687950D01*
X71676103Y-42706717D01*
X71650034Y-42742915D01*
X71642514Y-42782748D01*
X71503233Y-42782748D01*
X71507194Y-42746027D01*
X71531550Y-42676212D01*
X71565456Y-42627302D01*
X71626653Y-42577878D01*
X71694063Y-42553359D01*
X71762880Y-42551797D01*
X71828303Y-42571239D01*
G37*
X71828303Y-42571239D02*
X71885527Y-42609735D01*
X71929749Y-42665335D01*
X71956167Y-42736086D01*
X71961510Y-42788162D01*
X71960903Y-42809893D01*
X71955822Y-42826531D01*
X71941855Y-42841437D01*
X71914589Y-42857973D01*
X71869612Y-42879498D01*
X71802511Y-42909374D01*
X71802171Y-42909524D01*
X71740407Y-42937813D01*
X71689759Y-42962933D01*
X71655404Y-42982179D01*
X71642518Y-42992848D01*
X71642514Y-42992934D01*
X71653872Y-43016166D01*
X71680431Y-43041774D01*
X71710923Y-43060221D01*
X71726370Y-43063886D01*
X71768515Y-43051212D01*
X71804808Y-43019471D01*
X71822517Y-42984572D01*
X71839552Y-42958845D01*
X71872922Y-42929546D01*
X71912149Y-42904235D01*
X71946756Y-42890471D01*
X71953993Y-42889714D01*
X71962139Y-42902160D01*
X71962630Y-42933972D01*
X71956643Y-42976866D01*
X71945357Y-43022558D01*
X71929950Y-43062761D01*
X71929171Y-43064322D01*
X71882804Y-43129062D01*
X71822711Y-43173097D01*
X71754465Y-43194711D01*
X71683638Y-43192185D01*
X71615804Y-43163804D01*
X71612788Y-43161808D01*
X71559427Y-43113448D01*
X71524340Y-43050352D01*
X71504922Y-42967387D01*
X71502316Y-42944078D01*
X71497701Y-42834055D01*
X71503233Y-42782748D01*
X71642514Y-42782748D01*
X71644324Y-42814753D01*
X71654222Y-42824093D01*
X71678898Y-42817105D01*
X71717795Y-42800587D01*
X71761275Y-42779881D01*
X71762356Y-42779333D01*
X71799209Y-42759949D01*
X71814000Y-42747013D01*
X71810353Y-42733451D01*
X71794995Y-42715632D01*
X71755923Y-42689845D01*
X71713846Y-42687950D01*
X71676103Y-42706717D01*
X71650034Y-42742915D01*
X71642514Y-42782748D01*
X71503233Y-42782748D01*
X71507194Y-42746027D01*
X71531550Y-42676212D01*
X71565456Y-42627302D01*
X71626653Y-42577878D01*
X71694063Y-42553359D01*
X71762880Y-42551797D01*
X71828303Y-42571239D01*
G36*
X70701115Y-42561962D02*
G01*
X70769145Y-42597733D01*
X70819351Y-42655301D01*
X70837185Y-42692312D01*
X70851063Y-42747882D01*
X70858167Y-42818096D01*
X70858840Y-42894727D01*
X70853427Y-42969552D01*
X70842270Y-43034342D01*
X70825714Y-43080873D01*
X70820626Y-43088887D01*
X70760355Y-43148707D01*
X70688769Y-43184535D01*
X70611092Y-43195020D01*
X70532548Y-43178810D01*
X70510689Y-43169092D01*
X70468122Y-43139143D01*
X70430763Y-43099433D01*
X70427232Y-43094397D01*
X70412881Y-43070124D01*
X70403394Y-43044178D01*
X70397790Y-43010022D01*
X70395086Y-42961119D01*
X70394299Y-42890935D01*
X70394286Y-42875200D01*
X70394322Y-42870192D01*
X70539429Y-42870192D01*
X70540273Y-42936430D01*
X70543596Y-42980386D01*
X70550583Y-43008779D01*
X70562416Y-43028325D01*
X70568457Y-43034857D01*
X70603186Y-43059680D01*
X70636903Y-43058548D01*
X70670995Y-43037016D01*
X70691329Y-43014029D01*
X70703371Y-42980478D01*
X70710134Y-42927569D01*
X70710598Y-42921399D01*
X70711752Y-42825513D01*
X70699688Y-42754299D01*
X70674570Y-42708194D01*
X70636560Y-42687635D01*
X70622992Y-42686514D01*
X70587364Y-42692152D01*
X70562994Y-42711686D01*
X70548093Y-42749042D01*
X70540875Y-42808150D01*
X70539429Y-42870192D01*
X70394322Y-42870192D01*
X70394826Y-42800413D01*
X70397096Y-42748159D01*
X70402068Y-42711949D01*
X70410713Y-42685299D01*
X70424005Y-42661722D01*
X70426943Y-42657338D01*
X70476313Y-42598249D01*
X70530109Y-42563947D01*
X70595602Y-42550331D01*
X70617842Y-42549665D01*
X70701115Y-42561962D01*
G37*
X70701115Y-42561962D02*
X70769145Y-42597733D01*
X70819351Y-42655301D01*
X70837185Y-42692312D01*
X70851063Y-42747882D01*
X70858167Y-42818096D01*
X70858840Y-42894727D01*
X70853427Y-42969552D01*
X70842270Y-43034342D01*
X70825714Y-43080873D01*
X70820626Y-43088887D01*
X70760355Y-43148707D01*
X70688769Y-43184535D01*
X70611092Y-43195020D01*
X70532548Y-43178810D01*
X70510689Y-43169092D01*
X70468122Y-43139143D01*
X70430763Y-43099433D01*
X70427232Y-43094397D01*
X70412881Y-43070124D01*
X70403394Y-43044178D01*
X70397790Y-43010022D01*
X70395086Y-42961119D01*
X70394299Y-42890935D01*
X70394286Y-42875200D01*
X70394322Y-42870192D01*
X70539429Y-42870192D01*
X70540273Y-42936430D01*
X70543596Y-42980386D01*
X70550583Y-43008779D01*
X70562416Y-43028325D01*
X70568457Y-43034857D01*
X70603186Y-43059680D01*
X70636903Y-43058548D01*
X70670995Y-43037016D01*
X70691329Y-43014029D01*
X70703371Y-42980478D01*
X70710134Y-42927569D01*
X70710598Y-42921399D01*
X70711752Y-42825513D01*
X70699688Y-42754299D01*
X70674570Y-42708194D01*
X70636560Y-42687635D01*
X70622992Y-42686514D01*
X70587364Y-42692152D01*
X70562994Y-42711686D01*
X70548093Y-42749042D01*
X70540875Y-42808150D01*
X70539429Y-42870192D01*
X70394322Y-42870192D01*
X70394826Y-42800413D01*
X70397096Y-42748159D01*
X70402068Y-42711949D01*
X70410713Y-42685299D01*
X70424005Y-42661722D01*
X70426943Y-42657338D01*
X70476313Y-42598249D01*
X70530109Y-42563947D01*
X70595602Y-42550331D01*
X70617842Y-42549665D01*
X70701115Y-42561962D01*
G36*
X72376093Y-42567780D02*
G01*
X72422672Y-42594723D01*
X72455057Y-42621466D01*
X72478742Y-42649484D01*
X72495059Y-42683748D01*
X72505339Y-42729227D01*
X72510914Y-42790892D01*
X72513116Y-42873711D01*
X72513371Y-42933246D01*
X72513371Y-43152391D01*
X72451686Y-43180044D01*
X72390000Y-43207697D01*
X72382743Y-42967670D01*
X72379744Y-42878028D01*
X72376598Y-42812962D01*
X72372701Y-42768026D01*
X72367447Y-42738770D01*
X72360231Y-42720748D01*
X72350450Y-42709511D01*
X72347312Y-42707079D01*
X72299761Y-42688083D01*
X72251697Y-42695600D01*
X72223086Y-42715543D01*
X72211447Y-42729675D01*
X72203391Y-42748220D01*
X72198271Y-42776334D01*
X72195441Y-42819173D01*
X72194256Y-42881895D01*
X72194057Y-42947261D01*
X72194018Y-43029268D01*
X72192614Y-43087316D01*
X72187914Y-43126465D01*
X72177987Y-43151780D01*
X72160903Y-43168323D01*
X72134732Y-43181156D01*
X72099775Y-43194491D01*
X72061596Y-43209007D01*
X72066141Y-42951389D01*
X72067971Y-42858519D01*
X72070112Y-42789889D01*
X72073181Y-42740711D01*
X72077794Y-42706198D01*
X72084568Y-42681562D01*
X72094119Y-42662016D01*
X72105634Y-42644770D01*
X72161190Y-42589680D01*
X72228980Y-42557822D01*
X72302713Y-42550191D01*
X72376093Y-42567780D01*
G37*
X72376093Y-42567780D02*
X72422672Y-42594723D01*
X72455057Y-42621466D01*
X72478742Y-42649484D01*
X72495059Y-42683748D01*
X72505339Y-42729227D01*
X72510914Y-42790892D01*
X72513116Y-42873711D01*
X72513371Y-42933246D01*
X72513371Y-43152391D01*
X72451686Y-43180044D01*
X72390000Y-43207697D01*
X72382743Y-42967670D01*
X72379744Y-42878028D01*
X72376598Y-42812962D01*
X72372701Y-42768026D01*
X72367447Y-42738770D01*
X72360231Y-42720748D01*
X72350450Y-42709511D01*
X72347312Y-42707079D01*
X72299761Y-42688083D01*
X72251697Y-42695600D01*
X72223086Y-42715543D01*
X72211447Y-42729675D01*
X72203391Y-42748220D01*
X72198271Y-42776334D01*
X72195441Y-42819173D01*
X72194256Y-42881895D01*
X72194057Y-42947261D01*
X72194018Y-43029268D01*
X72192614Y-43087316D01*
X72187914Y-43126465D01*
X72177987Y-43151780D01*
X72160903Y-43168323D01*
X72134732Y-43181156D01*
X72099775Y-43194491D01*
X72061596Y-43209007D01*
X72066141Y-42951389D01*
X72067971Y-42858519D01*
X72070112Y-42789889D01*
X72073181Y-42740711D01*
X72077794Y-42706198D01*
X72084568Y-42681562D01*
X72094119Y-42662016D01*
X72105634Y-42644770D01*
X72161190Y-42589680D01*
X72228980Y-42557822D01*
X72302713Y-42550191D01*
X72376093Y-42567780D01*
G36*
X71259744Y-42559918D02*
G01*
X71315201Y-42587568D01*
X71364148Y-42638480D01*
X71377629Y-42657338D01*
X71392314Y-42682015D01*
X71401842Y-42708816D01*
X71407293Y-42744587D01*
X71409747Y-42796169D01*
X71410286Y-42864267D01*
X71407852Y-42957588D01*
X71399394Y-43027657D01*
X71383174Y-43079931D01*
X71357454Y-43119869D01*
X71320497Y-43152929D01*
X71317782Y-43154886D01*
X71281360Y-43174908D01*
X71237502Y-43184815D01*
X71181724Y-43187257D01*
X71091048Y-43187257D01*
X71091010Y-43275283D01*
X71090166Y-43324308D01*
X71085024Y-43353065D01*
X71071587Y-43370311D01*
X71045858Y-43384808D01*
X71039679Y-43387769D01*
X71010764Y-43401648D01*
X70988376Y-43410414D01*
X70971729Y-43411171D01*
X70960036Y-43401023D01*
X70952510Y-43377073D01*
X70948366Y-43336426D01*
X70946815Y-43276186D01*
X70947071Y-43193455D01*
X70948349Y-43085339D01*
X70948748Y-43053000D01*
X70950185Y-42941524D01*
X70951472Y-42868603D01*
X71090971Y-42868603D01*
X71091755Y-42930499D01*
X71095240Y-42970997D01*
X71103124Y-42997708D01*
X71117105Y-43018244D01*
X71126597Y-43028260D01*
X71165404Y-43057567D01*
X71199763Y-43059952D01*
X71235216Y-43035750D01*
X71236114Y-43034857D01*
X71250539Y-43016153D01*
X71259313Y-42990732D01*
X71263739Y-42951584D01*
X71265118Y-42891697D01*
X71265143Y-42878430D01*
X71261812Y-42795901D01*
X71250969Y-42738691D01*
X71231340Y-42703766D01*
X71201650Y-42688094D01*
X71184491Y-42686514D01*
X71143766Y-42693926D01*
X71115832Y-42718330D01*
X71099017Y-42762980D01*
X71091650Y-42831130D01*
X71090971Y-42868603D01*
X70951472Y-42868603D01*
X70951708Y-42855245D01*
X70953677Y-42790333D01*
X70956450Y-42742958D01*
X70960388Y-42709290D01*
X70965849Y-42685498D01*
X70973192Y-42667753D01*
X70982777Y-42652224D01*
X70986887Y-42646381D01*
X71041405Y-42591185D01*
X71110336Y-42559890D01*
X71190072Y-42551165D01*
X71259744Y-42559918D01*
G37*
X71259744Y-42559918D02*
X71315201Y-42587568D01*
X71364148Y-42638480D01*
X71377629Y-42657338D01*
X71392314Y-42682015D01*
X71401842Y-42708816D01*
X71407293Y-42744587D01*
X71409747Y-42796169D01*
X71410286Y-42864267D01*
X71407852Y-42957588D01*
X71399394Y-43027657D01*
X71383174Y-43079931D01*
X71357454Y-43119869D01*
X71320497Y-43152929D01*
X71317782Y-43154886D01*
X71281360Y-43174908D01*
X71237502Y-43184815D01*
X71181724Y-43187257D01*
X71091048Y-43187257D01*
X71091010Y-43275283D01*
X71090166Y-43324308D01*
X71085024Y-43353065D01*
X71071587Y-43370311D01*
X71045858Y-43384808D01*
X71039679Y-43387769D01*
X71010764Y-43401648D01*
X70988376Y-43410414D01*
X70971729Y-43411171D01*
X70960036Y-43401023D01*
X70952510Y-43377073D01*
X70948366Y-43336426D01*
X70946815Y-43276186D01*
X70947071Y-43193455D01*
X70948349Y-43085339D01*
X70948748Y-43053000D01*
X70950185Y-42941524D01*
X70951472Y-42868603D01*
X71090971Y-42868603D01*
X71091755Y-42930499D01*
X71095240Y-42970997D01*
X71103124Y-42997708D01*
X71117105Y-43018244D01*
X71126597Y-43028260D01*
X71165404Y-43057567D01*
X71199763Y-43059952D01*
X71235216Y-43035750D01*
X71236114Y-43034857D01*
X71250539Y-43016153D01*
X71259313Y-42990732D01*
X71263739Y-42951584D01*
X71265118Y-42891697D01*
X71265143Y-42878430D01*
X71261812Y-42795901D01*
X71250969Y-42738691D01*
X71231340Y-42703766D01*
X71201650Y-42688094D01*
X71184491Y-42686514D01*
X71143766Y-42693926D01*
X71115832Y-42718330D01*
X71099017Y-42762980D01*
X71091650Y-42831130D01*
X71090971Y-42868603D01*
X70951472Y-42868603D01*
X70951708Y-42855245D01*
X70953677Y-42790333D01*
X70956450Y-42742958D01*
X70960388Y-42709290D01*
X70965849Y-42685498D01*
X70973192Y-42667753D01*
X70982777Y-42652224D01*
X70986887Y-42646381D01*
X71041405Y-42591185D01*
X71110336Y-42559890D01*
X71190072Y-42551165D01*
X71259744Y-42559918D01*
D10*
X58778000Y-30580000D02*
X51538000Y-30580000D01*
X58778000Y-27840000D02*
X51538000Y-27840000D01*
X58778000Y-30580000D02*
X58778000Y-27840000D01*
X51538000Y-30580000D02*
X51538000Y-27840000D01*
X65008000Y-32960000D02*
G75*
G02X63008000Y-32960000I-1000000J0D01*
G01*
X63008000Y-32960000D02*
X61358000Y-32960000D01*
X61358000Y-32960000D02*
X61358000Y-43240000D01*
X61358000Y-43240000D02*
X66658000Y-43240000D01*
X66658000Y-43240000D02*
X66658000Y-32960000D01*
X66658000Y-32960000D02*
X65008000Y-32960000D01*
X58868000Y-32900000D02*
X58868000Y-43300000D01*
X58868000Y-43300000D02*
X69148000Y-43300000D01*
X69148000Y-43300000D02*
X69148000Y-32900000D01*
X69148000Y-32900000D02*
X58868000Y-32900000D01*
X56370000Y-32910000D02*
X50350000Y-32910000D01*
X50350000Y-32910000D02*
X50350000Y-48370000D01*
X50350000Y-48370000D02*
X56370000Y-48370000D01*
X56370000Y-48370000D02*
X56370000Y-32910000D01*
X55340000Y-32620000D02*
X51340000Y-32620000D01*
X50350000Y-34290000D02*
X51350000Y-34290000D01*
X51350000Y-34290000D02*
X51350000Y-46990000D01*
X51350000Y-46990000D02*
X50350000Y-46990000D01*
X51350000Y-34290000D02*
X51880000Y-34540000D01*
X51880000Y-34540000D02*
X51880000Y-46740000D01*
X51880000Y-46740000D02*
X51350000Y-46990000D01*
X50350000Y-34540000D02*
X51350000Y-34540000D01*
X50350000Y-46740000D02*
X51350000Y-46740000D01*
X56370000Y-33490000D02*
X55770000Y-33490000D01*
X55770000Y-33490000D02*
X55770000Y-35090000D01*
X55770000Y-35090000D02*
X56370000Y-35090000D01*
X56370000Y-36030000D02*
X55770000Y-36030000D01*
X55770000Y-36030000D02*
X55770000Y-37630000D01*
X55770000Y-37630000D02*
X56370000Y-37630000D01*
X56370000Y-38570000D02*
X55770000Y-38570000D01*
X55770000Y-38570000D02*
X55770000Y-40170000D01*
X55770000Y-40170000D02*
X56370000Y-40170000D01*
X56370000Y-41110000D02*
X55770000Y-41110000D01*
X55770000Y-41110000D02*
X55770000Y-42710000D01*
X55770000Y-42710000D02*
X56370000Y-42710000D01*
X56370000Y-43650000D02*
X55770000Y-43650000D01*
X55770000Y-43650000D02*
X55770000Y-45250000D01*
X55770000Y-45250000D02*
X56370000Y-45250000D01*
X56370000Y-46190000D02*
X55770000Y-46190000D01*
X55770000Y-46190000D02*
X55770000Y-47790000D01*
X55770000Y-47790000D02*
X56370000Y-47790000D01*
X115490000Y-40620000D02*
X109520000Y-40620000D01*
X109520000Y-40620000D02*
X109520000Y-55740000D01*
X109520000Y-55740000D02*
X115490000Y-55740000D01*
X115490000Y-55740000D02*
X115490000Y-40620000D01*
X115480000Y-43930000D02*
X114730000Y-43930000D01*
X114730000Y-43930000D02*
X114730000Y-52430000D01*
X114730000Y-52430000D02*
X115480000Y-52430000D01*
X115480000Y-52430000D02*
X115480000Y-43930000D01*
X115480000Y-40630000D02*
X114730000Y-40630000D01*
X114730000Y-40630000D02*
X114730000Y-42430000D01*
X114730000Y-42430000D02*
X115480000Y-42430000D01*
X115480000Y-42430000D02*
X115480000Y-40630000D01*
X115480000Y-53930000D02*
X114730000Y-53930000D01*
X114730000Y-53930000D02*
X114730000Y-55730000D01*
X114730000Y-55730000D02*
X115480000Y-55730000D01*
X115480000Y-55730000D02*
X115480000Y-53930000D01*
X113230000Y-40630000D02*
X113230000Y-41380000D01*
X113230000Y-41380000D02*
X110280000Y-41380000D01*
X110280000Y-41380000D02*
X110280000Y-48180000D01*
X113230000Y-55730000D02*
X113230000Y-54980000D01*
X113230000Y-54980000D02*
X110280000Y-54980000D01*
X110280000Y-54980000D02*
X110280000Y-48180000D01*
X115780000Y-41580000D02*
X115780000Y-40330000D01*
X115780000Y-40330000D02*
X114530000Y-40330000D01*
X133914000Y-50272000D02*
G75*
G03X133914000Y-50272000I-4120000J0D01*
G01*
X133874000Y-50272000D02*
X125714000Y-50272000D01*
X133874000Y-50312000D02*
X125714000Y-50312000D01*
X133874000Y-50352000D02*
X125714000Y-50352000D01*
X133873000Y-50392000D02*
X125715000Y-50392000D01*
X133871000Y-50432000D02*
X125717000Y-50432000D01*
X133870000Y-50472000D02*
X125718000Y-50472000D01*
X133868000Y-50512000D02*
X130834000Y-50512000D01*
X128754000Y-50512000D02*
X125720000Y-50512000D01*
X133865000Y-50552000D02*
X130834000Y-50552000D01*
X128754000Y-50552000D02*
X125723000Y-50552000D01*
X133862000Y-50592000D02*
X130834000Y-50592000D01*
X128754000Y-50592000D02*
X125726000Y-50592000D01*
X133859000Y-50632000D02*
X130834000Y-50632000D01*
X128754000Y-50632000D02*
X125729000Y-50632000D01*
X133855000Y-50672000D02*
X130834000Y-50672000D01*
X128754000Y-50672000D02*
X125733000Y-50672000D01*
X133851000Y-50712000D02*
X130834000Y-50712000D01*
X128754000Y-50712000D02*
X125737000Y-50712000D01*
X133846000Y-50752000D02*
X130834000Y-50752000D01*
X128754000Y-50752000D02*
X125742000Y-50752000D01*
X133842000Y-50792000D02*
X130834000Y-50792000D01*
X128754000Y-50792000D02*
X125746000Y-50792000D01*
X133836000Y-50832000D02*
X130834000Y-50832000D01*
X128754000Y-50832000D02*
X125752000Y-50832000D01*
X133831000Y-50872000D02*
X130834000Y-50872000D01*
X128754000Y-50872000D02*
X125757000Y-50872000D01*
X133824000Y-50912000D02*
X130834000Y-50912000D01*
X128754000Y-50912000D02*
X125764000Y-50912000D01*
X133818000Y-50952000D02*
X130834000Y-50952000D01*
X128754000Y-50952000D02*
X125770000Y-50952000D01*
X133811000Y-50993000D02*
X130834000Y-50993000D01*
X128754000Y-50993000D02*
X125777000Y-50993000D01*
X133804000Y-51033000D02*
X130834000Y-51033000D01*
X128754000Y-51033000D02*
X125784000Y-51033000D01*
X133796000Y-51073000D02*
X130834000Y-51073000D01*
X128754000Y-51073000D02*
X125792000Y-51073000D01*
X133788000Y-51113000D02*
X130834000Y-51113000D01*
X128754000Y-51113000D02*
X125800000Y-51113000D01*
X133779000Y-51153000D02*
X130834000Y-51153000D01*
X128754000Y-51153000D02*
X125809000Y-51153000D01*
X133770000Y-51193000D02*
X130834000Y-51193000D01*
X128754000Y-51193000D02*
X125818000Y-51193000D01*
X133761000Y-51233000D02*
X130834000Y-51233000D01*
X128754000Y-51233000D02*
X125827000Y-51233000D01*
X133751000Y-51273000D02*
X130834000Y-51273000D01*
X128754000Y-51273000D02*
X125837000Y-51273000D01*
X133741000Y-51313000D02*
X130834000Y-51313000D01*
X128754000Y-51313000D02*
X125847000Y-51313000D01*
X133730000Y-51353000D02*
X130834000Y-51353000D01*
X128754000Y-51353000D02*
X125858000Y-51353000D01*
X133719000Y-51393000D02*
X130834000Y-51393000D01*
X128754000Y-51393000D02*
X125869000Y-51393000D01*
X133708000Y-51433000D02*
X130834000Y-51433000D01*
X128754000Y-51433000D02*
X125880000Y-51433000D01*
X133696000Y-51473000D02*
X130834000Y-51473000D01*
X128754000Y-51473000D02*
X125892000Y-51473000D01*
X133683000Y-51513000D02*
X130834000Y-51513000D01*
X128754000Y-51513000D02*
X125905000Y-51513000D01*
X133671000Y-51553000D02*
X130834000Y-51553000D01*
X128754000Y-51553000D02*
X125917000Y-51553000D01*
X133657000Y-51593000D02*
X130834000Y-51593000D01*
X128754000Y-51593000D02*
X125931000Y-51593000D01*
X133644000Y-51633000D02*
X130834000Y-51633000D01*
X128754000Y-51633000D02*
X125944000Y-51633000D01*
X133629000Y-51673000D02*
X130834000Y-51673000D01*
X128754000Y-51673000D02*
X125959000Y-51673000D01*
X133615000Y-51713000D02*
X130834000Y-51713000D01*
X128754000Y-51713000D02*
X125973000Y-51713000D01*
X133599000Y-51753000D02*
X130834000Y-51753000D01*
X128754000Y-51753000D02*
X125989000Y-51753000D01*
X133584000Y-51793000D02*
X130834000Y-51793000D01*
X128754000Y-51793000D02*
X126004000Y-51793000D01*
X133568000Y-51833000D02*
X130834000Y-51833000D01*
X128754000Y-51833000D02*
X126020000Y-51833000D01*
X133551000Y-51873000D02*
X130834000Y-51873000D01*
X128754000Y-51873000D02*
X126037000Y-51873000D01*
X133534000Y-51913000D02*
X130834000Y-51913000D01*
X128754000Y-51913000D02*
X126054000Y-51913000D01*
X133516000Y-51953000D02*
X130834000Y-51953000D01*
X128754000Y-51953000D02*
X126072000Y-51953000D01*
X133498000Y-51993000D02*
X130834000Y-51993000D01*
X128754000Y-51993000D02*
X126090000Y-51993000D01*
X133480000Y-52033000D02*
X130834000Y-52033000D01*
X128754000Y-52033000D02*
X126108000Y-52033000D01*
X133460000Y-52073000D02*
X130834000Y-52073000D01*
X128754000Y-52073000D02*
X126128000Y-52073000D01*
X133441000Y-52113000D02*
X130834000Y-52113000D01*
X128754000Y-52113000D02*
X126147000Y-52113000D01*
X133421000Y-52153000D02*
X130834000Y-52153000D01*
X128754000Y-52153000D02*
X126167000Y-52153000D01*
X133400000Y-52193000D02*
X130834000Y-52193000D01*
X128754000Y-52193000D02*
X126188000Y-52193000D01*
X133378000Y-52233000D02*
X130834000Y-52233000D01*
X128754000Y-52233000D02*
X126210000Y-52233000D01*
X133356000Y-52273000D02*
X130834000Y-52273000D01*
X128754000Y-52273000D02*
X126232000Y-52273000D01*
X133334000Y-52313000D02*
X130834000Y-52313000D01*
X128754000Y-52313000D02*
X126254000Y-52313000D01*
X133311000Y-52353000D02*
X130834000Y-52353000D01*
X128754000Y-52353000D02*
X126277000Y-52353000D01*
X133287000Y-52393000D02*
X130834000Y-52393000D01*
X128754000Y-52393000D02*
X126301000Y-52393000D01*
X133263000Y-52433000D02*
X130834000Y-52433000D01*
X128754000Y-52433000D02*
X126325000Y-52433000D01*
X133238000Y-52473000D02*
X130834000Y-52473000D01*
X128754000Y-52473000D02*
X126350000Y-52473000D01*
X133212000Y-52513000D02*
X130834000Y-52513000D01*
X128754000Y-52513000D02*
X126376000Y-52513000D01*
X133186000Y-52553000D02*
X130834000Y-52553000D01*
X128754000Y-52553000D02*
X126402000Y-52553000D01*
X133159000Y-52593000D02*
X126429000Y-52593000D01*
X133132000Y-52633000D02*
X126456000Y-52633000D01*
X133103000Y-52673000D02*
X126485000Y-52673000D01*
X133074000Y-52713000D02*
X126514000Y-52713000D01*
X133044000Y-52753000D02*
X126544000Y-52753000D01*
X133014000Y-52793000D02*
X126574000Y-52793000D01*
X132983000Y-52833000D02*
X126605000Y-52833000D01*
X132950000Y-52873000D02*
X126638000Y-52873000D01*
X132918000Y-52913000D02*
X126670000Y-52913000D01*
X132884000Y-52953000D02*
X126704000Y-52953000D01*
X132849000Y-52993000D02*
X126739000Y-52993000D01*
X132813000Y-53033000D02*
X126775000Y-53033000D01*
X132777000Y-53073000D02*
X126811000Y-53073000D01*
X132739000Y-53113000D02*
X126849000Y-53113000D01*
X132701000Y-53153000D02*
X126887000Y-53153000D01*
X132661000Y-53193000D02*
X126927000Y-53193000D01*
X132620000Y-53233000D02*
X126968000Y-53233000D01*
X132578000Y-53273000D02*
X127010000Y-53273000D01*
X132535000Y-53313000D02*
X127053000Y-53313000D01*
X132491000Y-53353000D02*
X127097000Y-53353000D01*
X132445000Y-53393000D02*
X127143000Y-53393000D01*
X132398000Y-53433000D02*
X127190000Y-53433000D01*
X132350000Y-53473000D02*
X127238000Y-53473000D01*
X132299000Y-53513000D02*
X127289000Y-53513000D01*
X132248000Y-53553000D02*
X127340000Y-53553000D01*
X132194000Y-53593000D02*
X127394000Y-53593000D01*
X132139000Y-53633000D02*
X127449000Y-53633000D01*
X132081000Y-53673000D02*
X127507000Y-53673000D01*
X132022000Y-53713000D02*
X127566000Y-53713000D01*
X131960000Y-53753000D02*
X127628000Y-53753000D01*
X131896000Y-53793000D02*
X127692000Y-53793000D01*
X131828000Y-53833000D02*
X127760000Y-53833000D01*
X131758000Y-53873000D02*
X127830000Y-53873000D01*
X131684000Y-53913000D02*
X127904000Y-53913000D01*
X131607000Y-53953000D02*
X127981000Y-53953000D01*
X131525000Y-53993000D02*
X128063000Y-53993000D01*
X131439000Y-54033000D02*
X128149000Y-54033000D01*
X131346000Y-54073000D02*
X128242000Y-54073000D01*
X131247000Y-54113000D02*
X128341000Y-54113000D01*
X131140000Y-54153000D02*
X128448000Y-54153000D01*
X131023000Y-54193000D02*
X128565000Y-54193000D01*
X130892000Y-54233000D02*
X128696000Y-54233000D01*
X130742000Y-54273000D02*
X128846000Y-54273000D01*
X130562000Y-54313000D02*
X129026000Y-54313000D01*
X130327000Y-54353000D02*
X129261000Y-54353000D01*
X132109000Y-45862302D02*
X132109000Y-46662302D01*
X132509000Y-46262302D02*
X131709000Y-46262302D01*
X126134000Y-42572000D02*
X133374000Y-42572000D01*
X126134000Y-45312000D02*
X133374000Y-45312000D01*
X126134000Y-42572000D02*
X126134000Y-45312000D01*
X133374000Y-42572000D02*
X133374000Y-45312000D01*
X72744000Y-34822000D02*
X70004000Y-34822000D01*
X72744000Y-27582000D02*
X70004000Y-27582000D01*
X70004000Y-27582000D02*
X70004000Y-34822000D01*
X72744000Y-27582000D02*
X72744000Y-34822000D01*
X61110000Y-27840000D02*
X68350000Y-27840000D01*
X61110000Y-30580000D02*
X68350000Y-30580000D01*
X61110000Y-27840000D02*
X61110000Y-30580000D01*
X68350000Y-27840000D02*
X68350000Y-30580000D01*
X45620000Y-34520000D02*
X48360000Y-34520000D01*
X45620000Y-41760000D02*
X48360000Y-41760000D01*
X48360000Y-41760000D02*
X48360000Y-34520000D01*
X45620000Y-41760000D02*
X45620000Y-34520000D01*
X43670000Y-31640000D02*
X37650000Y-31640000D01*
X37650000Y-31640000D02*
X37650000Y-44560000D01*
X37650000Y-44560000D02*
X43670000Y-44560000D01*
X43670000Y-44560000D02*
X43670000Y-31640000D01*
X42640000Y-31350000D02*
X38640000Y-31350000D01*
X37650000Y-33020000D02*
X38650000Y-33020000D01*
X38650000Y-33020000D02*
X38650000Y-43180000D01*
X38650000Y-43180000D02*
X37650000Y-43180000D01*
X38650000Y-33020000D02*
X39180000Y-33270000D01*
X39180000Y-33270000D02*
X39180000Y-42930000D01*
X39180000Y-42930000D02*
X38650000Y-43180000D01*
X37650000Y-33270000D02*
X38650000Y-33270000D01*
X37650000Y-42930000D02*
X38650000Y-42930000D01*
X43670000Y-32220000D02*
X43070000Y-32220000D01*
X43070000Y-32220000D02*
X43070000Y-33820000D01*
X43070000Y-33820000D02*
X43670000Y-33820000D01*
X43670000Y-34760000D02*
X43070000Y-34760000D01*
X43070000Y-34760000D02*
X43070000Y-36360000D01*
X43070000Y-36360000D02*
X43670000Y-36360000D01*
X43670000Y-37300000D02*
X43070000Y-37300000D01*
X43070000Y-37300000D02*
X43070000Y-38900000D01*
X43070000Y-38900000D02*
X43670000Y-38900000D01*
X43670000Y-39840000D02*
X43070000Y-39840000D01*
X43070000Y-39840000D02*
X43070000Y-41440000D01*
X43070000Y-41440000D02*
X43670000Y-41440000D01*
X43670000Y-42380000D02*
X43070000Y-42380000D01*
X43070000Y-42380000D02*
X43070000Y-43980000D01*
X43070000Y-43980000D02*
X43670000Y-43980000D01*
X34272000Y-41800000D02*
X28252000Y-41800000D01*
X28252000Y-41800000D02*
X28252000Y-49640000D01*
X28252000Y-49640000D02*
X34272000Y-49640000D01*
X34272000Y-49640000D02*
X34272000Y-41800000D01*
X33242000Y-41510000D02*
X29242000Y-41510000D01*
X28252000Y-43180000D02*
X29252000Y-43180000D01*
X29252000Y-43180000D02*
X29252000Y-48260000D01*
X29252000Y-48260000D02*
X28252000Y-48260000D01*
X29252000Y-43180000D02*
X29782000Y-43430000D01*
X29782000Y-43430000D02*
X29782000Y-48010000D01*
X29782000Y-48010000D02*
X29252000Y-48260000D01*
X28252000Y-43430000D02*
X29252000Y-43430000D01*
X28252000Y-48010000D02*
X29252000Y-48010000D01*
X34272000Y-42380000D02*
X33672000Y-42380000D01*
X33672000Y-42380000D02*
X33672000Y-43980000D01*
X33672000Y-43980000D02*
X34272000Y-43980000D01*
X34272000Y-44920000D02*
X33672000Y-44920000D01*
X33672000Y-44920000D02*
X33672000Y-46520000D01*
X33672000Y-46520000D02*
X34272000Y-46520000D01*
X34272000Y-47460000D02*
X33672000Y-47460000D01*
X33672000Y-47460000D02*
X33672000Y-49060000D01*
X33672000Y-49060000D02*
X34272000Y-49060000D01*
X118190000Y-55646000D02*
X124160000Y-55646000D01*
X124160000Y-55646000D02*
X124160000Y-48026000D01*
X124160000Y-48026000D02*
X118190000Y-48026000D01*
X118190000Y-48026000D02*
X118190000Y-55646000D01*
X118200000Y-52336000D02*
X118950000Y-52336000D01*
X118950000Y-52336000D02*
X118950000Y-51336000D01*
X118950000Y-51336000D02*
X118200000Y-51336000D01*
X118200000Y-51336000D02*
X118200000Y-52336000D01*
X118200000Y-55636000D02*
X118950000Y-55636000D01*
X118950000Y-55636000D02*
X118950000Y-53836000D01*
X118950000Y-53836000D02*
X118200000Y-53836000D01*
X118200000Y-53836000D02*
X118200000Y-55636000D01*
X118200000Y-49836000D02*
X118950000Y-49836000D01*
X118950000Y-49836000D02*
X118950000Y-48036000D01*
X118950000Y-48036000D02*
X118200000Y-48036000D01*
X118200000Y-48036000D02*
X118200000Y-49836000D01*
X120450000Y-55636000D02*
X120450000Y-54886000D01*
X120450000Y-54886000D02*
X123400000Y-54886000D01*
X123400000Y-54886000D02*
X123400000Y-51836000D01*
X120450000Y-48036000D02*
X120450000Y-48786000D01*
X120450000Y-48786000D02*
X123400000Y-48786000D01*
X123400000Y-48786000D02*
X123400000Y-51836000D01*
X117900000Y-54686000D02*
X117900000Y-55936000D01*
X117900000Y-55936000D02*
X119150000Y-55936000D01*
X51236000Y-50524000D02*
X51236000Y-54124000D01*
X51247522Y-50485522D02*
G75*
G02X55686000Y-52324000I1838478J-1838478D01*
G01*
X51247522Y-54162478D02*
G75*
G03X55686000Y-52324000I1838478J1838478D01*
G01*
X82320000Y-50038000D02*
X83010000Y-50038000D01*
X92940000Y-50038000D02*
X92250000Y-50038000D01*
X83010000Y-51758000D02*
X92250000Y-51758000D01*
X83010000Y-48318000D02*
X83010000Y-51758000D01*
X92250000Y-48318000D02*
X83010000Y-48318000D01*
X92250000Y-51758000D02*
X92250000Y-48318000D01*
X92940000Y-53848000D02*
X92250000Y-53848000D01*
X82320000Y-53848000D02*
X83010000Y-53848000D01*
X92250000Y-52128000D02*
X83010000Y-52128000D01*
X92250000Y-55568000D02*
X92250000Y-52128000D01*
X83010000Y-55568000D02*
X92250000Y-55568000D01*
X83010000Y-52128000D02*
X83010000Y-55568000D01*
X43920000Y-31060000D02*
X47520000Y-31060000D01*
X43881522Y-31048478D02*
G75*
G02X45720000Y-26610000I1838478J1838478D01*
G01*
X47558478Y-31048478D02*
G75*
G03X45720000Y-26610000I-1838478J1838478D01*
G01*
D13*
X138450000Y-41380000D02*
X138450000Y-51480000D01*
X134760000Y-51580000D02*
X135160000Y-51580000D01*
X134760000Y-51580000D02*
X134760000Y-51180000D01*
X134760000Y-41380000D02*
X139160000Y-41380000D01*
X134760000Y-41380000D02*
X134760000Y-41780000D01*
X139560000Y-41380000D02*
X139160000Y-41380000D01*
X139560000Y-41380000D02*
X139560000Y-41780000D01*
X139560000Y-51180000D02*
X139560000Y-51580000D01*
X139560000Y-51580000D02*
X139160000Y-51580000D01*
D10*
X92940000Y-46228000D02*
X92250000Y-46228000D01*
X82320000Y-46228000D02*
X83010000Y-46228000D01*
X92250000Y-44508000D02*
X83010000Y-44508000D01*
X92250000Y-47948000D02*
X92250000Y-44508000D01*
X83010000Y-47948000D02*
X92250000Y-47948000D01*
X83010000Y-44508000D02*
X83010000Y-47948000D01*
X82320000Y-42418000D02*
X83010000Y-42418000D01*
X92940000Y-42418000D02*
X92250000Y-42418000D01*
X83010000Y-44138000D02*
X92250000Y-44138000D01*
X83010000Y-40698000D02*
X83010000Y-44138000D01*
X92250000Y-40698000D02*
X83010000Y-40698000D01*
X92250000Y-44138000D02*
X92250000Y-40698000D01*
X70723500Y-48138500D02*
X70723500Y-44698500D01*
X70723500Y-44698500D02*
X61483500Y-44698500D01*
X61483500Y-44698500D02*
X61483500Y-48138500D01*
X61483500Y-48138500D02*
X70723500Y-48138500D01*
X71413500Y-46418500D02*
X70723500Y-46418500D01*
X60793500Y-46418500D02*
X61483500Y-46418500D01*
X92250000Y-40328000D02*
X92250000Y-36888000D01*
X92250000Y-36888000D02*
X83010000Y-36888000D01*
X83010000Y-36888000D02*
X83010000Y-40328000D01*
X83010000Y-40328000D02*
X92250000Y-40328000D01*
X92940000Y-38608000D02*
X92250000Y-38608000D01*
X82320000Y-38608000D02*
X83010000Y-38608000D01*
X92480000Y-33020000D02*
X93170000Y-33020000D01*
X103100000Y-33020000D02*
X102410000Y-33020000D01*
X93170000Y-34740000D02*
X102410000Y-34740000D01*
X93170000Y-31300000D02*
X93170000Y-34740000D01*
X102410000Y-31300000D02*
X93170000Y-31300000D01*
X102410000Y-34740000D02*
X102410000Y-31300000D01*
X107194000Y-25680000D02*
X107194000Y-28480000D01*
X107194000Y-32480000D02*
X107194000Y-35280000D01*
X129794000Y-32480000D02*
X129794000Y-35280000D01*
X129794000Y-35280000D02*
X107194000Y-35280000D01*
X129794000Y-25680000D02*
X107194000Y-25680000D01*
X129794000Y-25680000D02*
X129794000Y-28480000D01*
X63256500Y-49774500D02*
X63256500Y-52714500D01*
X63256500Y-52714500D02*
X68696500Y-52714500D01*
X68696500Y-52714500D02*
X68696500Y-49774500D01*
X68696500Y-49774500D02*
X63256500Y-49774500D01*
X62236500Y-51244500D02*
X63256500Y-51244500D01*
X69716500Y-51244500D02*
X68696500Y-51244500D01*
X64156500Y-49774500D02*
X64156500Y-52714500D01*
X64276500Y-49774500D02*
X64276500Y-52714500D01*
X64036500Y-49774500D02*
X64036500Y-52714500D01*
X99660000Y-51362000D02*
X99660000Y-54302000D01*
X99900000Y-51362000D02*
X99900000Y-54302000D01*
X99780000Y-51362000D02*
X99780000Y-54302000D01*
X105340000Y-52832000D02*
X104320000Y-52832000D01*
X97860000Y-52832000D02*
X98880000Y-52832000D01*
X104320000Y-51362000D02*
X98880000Y-51362000D01*
X104320000Y-54302000D02*
X104320000Y-51362000D01*
X98880000Y-54302000D02*
X104320000Y-54302000D01*
X98880000Y-51362000D02*
X98880000Y-54302000D01*
X98880000Y-48060000D02*
X98880000Y-51000000D01*
X98880000Y-51000000D02*
X104320000Y-51000000D01*
X104320000Y-51000000D02*
X104320000Y-48060000D01*
X104320000Y-48060000D02*
X98880000Y-48060000D01*
X97860000Y-49530000D02*
X98880000Y-49530000D01*
X105340000Y-49530000D02*
X104320000Y-49530000D01*
X99780000Y-48060000D02*
X99780000Y-51000000D01*
X99900000Y-48060000D02*
X99900000Y-51000000D01*
X99660000Y-48060000D02*
X99660000Y-51000000D01*
X73143500Y-49825500D02*
X73143500Y-53425500D01*
X73155022Y-49787022D02*
G75*
G02X77593500Y-51625500I1838478J-1838478D01*
G01*
X73155022Y-53463978D02*
G75*
G03X77593500Y-51625500I1838478J1838478D01*
G01*
X103565000Y-37595500D02*
X100905000Y-37595500D01*
X103565000Y-42735500D02*
X103565000Y-37595500D01*
X100905000Y-42735500D02*
X100905000Y-37595500D01*
X103565000Y-42735500D02*
X100905000Y-42735500D01*
X103565000Y-44005500D02*
X103565000Y-45335500D01*
X103565000Y-45335500D02*
X102235000Y-45335500D01*
X102410000Y-30930000D02*
X102410000Y-27490000D01*
X102410000Y-27490000D02*
X93170000Y-27490000D01*
X93170000Y-27490000D02*
X93170000Y-30930000D01*
X93170000Y-30930000D02*
X102410000Y-30930000D01*
X103100000Y-29210000D02*
X102410000Y-29210000D01*
X92480000Y-29210000D02*
X93170000Y-29210000D01*
X75228000Y-35870000D02*
X76478000Y-35870000D01*
X75228000Y-34620000D02*
X75228000Y-35870000D01*
X80728000Y-28720000D02*
X80728000Y-31770000D01*
X77778000Y-28720000D02*
X80728000Y-28720000D01*
X77778000Y-27970000D02*
X77778000Y-28720000D01*
X80728000Y-34820000D02*
X80728000Y-31770000D01*
X77778000Y-34820000D02*
X80728000Y-34820000D01*
X77778000Y-35570000D02*
X77778000Y-34820000D01*
X75528000Y-27970000D02*
X75528000Y-29770000D01*
X76278000Y-27970000D02*
X75528000Y-27970000D01*
X76278000Y-29770000D02*
X76278000Y-27970000D01*
X75528000Y-29770000D02*
X76278000Y-29770000D01*
X75528000Y-33770000D02*
X75528000Y-35570000D01*
X76278000Y-33770000D02*
X75528000Y-33770000D01*
X76278000Y-35570000D02*
X76278000Y-33770000D01*
X75528000Y-35570000D02*
X76278000Y-35570000D01*
X75528000Y-31270000D02*
X75528000Y-32270000D01*
X76278000Y-31270000D02*
X75528000Y-31270000D01*
X76278000Y-32270000D02*
X76278000Y-31270000D01*
X75528000Y-32270000D02*
X76278000Y-32270000D01*
X75518000Y-27960000D02*
X75518000Y-35580000D01*
X81488000Y-27960000D02*
X75518000Y-27960000D01*
X81488000Y-35580000D02*
X81488000Y-27960000D01*
X75518000Y-35580000D02*
X81488000Y-35580000D01*
X82376000Y-35580000D02*
X88346000Y-35580000D01*
X88346000Y-35580000D02*
X88346000Y-27960000D01*
X88346000Y-27960000D02*
X82376000Y-27960000D01*
X82376000Y-27960000D02*
X82376000Y-35580000D01*
X82386000Y-32270000D02*
X83136000Y-32270000D01*
X83136000Y-32270000D02*
X83136000Y-31270000D01*
X83136000Y-31270000D02*
X82386000Y-31270000D01*
X82386000Y-31270000D02*
X82386000Y-32270000D01*
X82386000Y-35570000D02*
X83136000Y-35570000D01*
X83136000Y-35570000D02*
X83136000Y-33770000D01*
X83136000Y-33770000D02*
X82386000Y-33770000D01*
X82386000Y-33770000D02*
X82386000Y-35570000D01*
X82386000Y-29770000D02*
X83136000Y-29770000D01*
X83136000Y-29770000D02*
X83136000Y-27970000D01*
X83136000Y-27970000D02*
X82386000Y-27970000D01*
X82386000Y-27970000D02*
X82386000Y-29770000D01*
X84636000Y-35570000D02*
X84636000Y-34820000D01*
X84636000Y-34820000D02*
X87586000Y-34820000D01*
X87586000Y-34820000D02*
X87586000Y-31770000D01*
X84636000Y-27970000D02*
X84636000Y-28720000D01*
X84636000Y-28720000D02*
X87586000Y-28720000D01*
X87586000Y-28720000D02*
X87586000Y-31770000D01*
X82086000Y-34620000D02*
X82086000Y-35870000D01*
X82086000Y-35870000D02*
X83336000Y-35870000D01*
D11*
X39878095Y-45934380D02*
X39878095Y-46743904D01*
X39925714Y-46839142D01*
X39973333Y-46886761D01*
X40068571Y-46934380D01*
X40259047Y-46934380D01*
X40354285Y-46886761D01*
X40401904Y-46839142D01*
X40449523Y-46743904D01*
X40449523Y-45934380D01*
X41449523Y-46934380D02*
X40878095Y-46934380D01*
X41163809Y-46934380D02*
X41163809Y-45934380D01*
X41068571Y-46077238D01*
X40973333Y-46172476D01*
X40878095Y-46220095D01*
X54697333Y-27281142D02*
X54649714Y-27328761D01*
X54506857Y-27376380D01*
X54411619Y-27376380D01*
X54268761Y-27328761D01*
X54173523Y-27233523D01*
X54125904Y-27138285D01*
X54078285Y-26947809D01*
X54078285Y-26804952D01*
X54125904Y-26614476D01*
X54173523Y-26519238D01*
X54268761Y-26424000D01*
X54411619Y-26376380D01*
X54506857Y-26376380D01*
X54649714Y-26424000D01*
X54697333Y-26471619D01*
X55602095Y-26376380D02*
X55125904Y-26376380D01*
X55078285Y-26852571D01*
X55125904Y-26804952D01*
X55221142Y-26757333D01*
X55459238Y-26757333D01*
X55554476Y-26804952D01*
X55602095Y-26852571D01*
X55649714Y-26947809D01*
X55649714Y-27185904D01*
X55602095Y-27281142D01*
X55554476Y-27328761D01*
X55459238Y-27376380D01*
X55221142Y-27376380D01*
X55125904Y-27328761D01*
X55078285Y-27281142D01*
X63246095Y-31412380D02*
X63246095Y-32221904D01*
X63293714Y-32317142D01*
X63341333Y-32364761D01*
X63436571Y-32412380D01*
X63627047Y-32412380D01*
X63722285Y-32364761D01*
X63769904Y-32317142D01*
X63817523Y-32221904D01*
X63817523Y-31412380D01*
X64246095Y-31507619D02*
X64293714Y-31460000D01*
X64388952Y-31412380D01*
X64627047Y-31412380D01*
X64722285Y-31460000D01*
X64769904Y-31507619D01*
X64817523Y-31602857D01*
X64817523Y-31698095D01*
X64769904Y-31840952D01*
X64198476Y-32412380D01*
X64817523Y-32412380D01*
X50466666Y-31202380D02*
X50466666Y-31916666D01*
X50419047Y-32059523D01*
X50323809Y-32154761D01*
X50180952Y-32202380D01*
X50085714Y-32202380D01*
X50847619Y-31202380D02*
X51466666Y-31202380D01*
X51133333Y-31583333D01*
X51276190Y-31583333D01*
X51371428Y-31630952D01*
X51419047Y-31678571D01*
X51466666Y-31773809D01*
X51466666Y-32011904D01*
X51419047Y-32107142D01*
X51371428Y-32154761D01*
X51276190Y-32202380D01*
X50990476Y-32202380D01*
X50895238Y-32154761D01*
X50847619Y-32107142D01*
X112188666Y-56094380D02*
X112188666Y-56808666D01*
X112141047Y-56951523D01*
X112045809Y-57046761D01*
X111902952Y-57094380D01*
X111807714Y-57094380D01*
X112569619Y-56094380D02*
X113236285Y-56094380D01*
X112807714Y-57094380D01*
X129627333Y-55729142D02*
X129579714Y-55776761D01*
X129436857Y-55824380D01*
X129341619Y-55824380D01*
X129198761Y-55776761D01*
X129103523Y-55681523D01*
X129055904Y-55586285D01*
X129008285Y-55395809D01*
X129008285Y-55252952D01*
X129055904Y-55062476D01*
X129103523Y-54967238D01*
X129198761Y-54872000D01*
X129341619Y-54824380D01*
X129436857Y-54824380D01*
X129579714Y-54872000D01*
X129627333Y-54919619D01*
X130579714Y-55824380D02*
X130008285Y-55824380D01*
X130294000Y-55824380D02*
X130294000Y-54824380D01*
X130198761Y-54967238D01*
X130103523Y-55062476D01*
X130008285Y-55110095D01*
X124801333Y-44553142D02*
X124753714Y-44600761D01*
X124610857Y-44648380D01*
X124515619Y-44648380D01*
X124372761Y-44600761D01*
X124277523Y-44505523D01*
X124229904Y-44410285D01*
X124182285Y-44219809D01*
X124182285Y-44076952D01*
X124229904Y-43886476D01*
X124277523Y-43791238D01*
X124372761Y-43696000D01*
X124515619Y-43648380D01*
X124610857Y-43648380D01*
X124753714Y-43696000D01*
X124801333Y-43743619D01*
X125182285Y-43743619D02*
X125229904Y-43696000D01*
X125325142Y-43648380D01*
X125563238Y-43648380D01*
X125658476Y-43696000D01*
X125706095Y-43743619D01*
X125753714Y-43838857D01*
X125753714Y-43934095D01*
X125706095Y-44076952D01*
X125134666Y-44648380D01*
X125753714Y-44648380D01*
X71207333Y-27027142D02*
X71159714Y-27074761D01*
X71016857Y-27122380D01*
X70921619Y-27122380D01*
X70778761Y-27074761D01*
X70683523Y-26979523D01*
X70635904Y-26884285D01*
X70588285Y-26693809D01*
X70588285Y-26550952D01*
X70635904Y-26360476D01*
X70683523Y-26265238D01*
X70778761Y-26170000D01*
X70921619Y-26122380D01*
X71016857Y-26122380D01*
X71159714Y-26170000D01*
X71207333Y-26217619D01*
X71540666Y-26122380D02*
X72159714Y-26122380D01*
X71826380Y-26503333D01*
X71969238Y-26503333D01*
X72064476Y-26550952D01*
X72112095Y-26598571D01*
X72159714Y-26693809D01*
X72159714Y-26931904D01*
X72112095Y-27027142D01*
X72064476Y-27074761D01*
X71969238Y-27122380D01*
X71683523Y-27122380D01*
X71588285Y-27074761D01*
X71540666Y-27027142D01*
X64603333Y-27281142D02*
X64555714Y-27328761D01*
X64412857Y-27376380D01*
X64317619Y-27376380D01*
X64174761Y-27328761D01*
X64079523Y-27233523D01*
X64031904Y-27138285D01*
X63984285Y-26947809D01*
X63984285Y-26804952D01*
X64031904Y-26614476D01*
X64079523Y-26519238D01*
X64174761Y-26424000D01*
X64317619Y-26376380D01*
X64412857Y-26376380D01*
X64555714Y-26424000D01*
X64603333Y-26471619D01*
X65460476Y-26709714D02*
X65460476Y-27376380D01*
X65222380Y-26328761D02*
X64984285Y-27043047D01*
X65603333Y-27043047D01*
X46823333Y-43537142D02*
X46775714Y-43584761D01*
X46632857Y-43632380D01*
X46537619Y-43632380D01*
X46394761Y-43584761D01*
X46299523Y-43489523D01*
X46251904Y-43394285D01*
X46204285Y-43203809D01*
X46204285Y-43060952D01*
X46251904Y-42870476D01*
X46299523Y-42775238D01*
X46394761Y-42680000D01*
X46537619Y-42632380D01*
X46632857Y-42632380D01*
X46775714Y-42680000D01*
X46823333Y-42727619D01*
X47680476Y-42632380D02*
X47490000Y-42632380D01*
X47394761Y-42680000D01*
X47347142Y-42727619D01*
X47251904Y-42870476D01*
X47204285Y-43060952D01*
X47204285Y-43441904D01*
X47251904Y-43537142D01*
X47299523Y-43584761D01*
X47394761Y-43632380D01*
X47585238Y-43632380D01*
X47680476Y-43584761D01*
X47728095Y-43537142D01*
X47775714Y-43441904D01*
X47775714Y-43203809D01*
X47728095Y-43108571D01*
X47680476Y-43060952D01*
X47585238Y-43013333D01*
X47394761Y-43013333D01*
X47299523Y-43060952D01*
X47251904Y-43108571D01*
X47204285Y-43203809D01*
X40306666Y-30186380D02*
X40306666Y-30900666D01*
X40259047Y-31043523D01*
X40163809Y-31138761D01*
X40020952Y-31186380D01*
X39925714Y-31186380D01*
X41306666Y-31186380D02*
X40735238Y-31186380D01*
X41020952Y-31186380D02*
X41020952Y-30186380D01*
X40925714Y-30329238D01*
X40830476Y-30424476D01*
X40735238Y-30472095D01*
X30908666Y-40092380D02*
X30908666Y-40806666D01*
X30861047Y-40949523D01*
X30765809Y-41044761D01*
X30622952Y-41092380D01*
X30527714Y-41092380D01*
X31337238Y-40187619D02*
X31384857Y-40140000D01*
X31480095Y-40092380D01*
X31718190Y-40092380D01*
X31813428Y-40140000D01*
X31861047Y-40187619D01*
X31908666Y-40282857D01*
X31908666Y-40378095D01*
X31861047Y-40520952D01*
X31289619Y-41092380D01*
X31908666Y-41092380D01*
X120570666Y-55840380D02*
X120570666Y-56554666D01*
X120523047Y-56697523D01*
X120427809Y-56792761D01*
X120284952Y-56840380D01*
X120189714Y-56840380D01*
X121189714Y-56268952D02*
X121094476Y-56221333D01*
X121046857Y-56173714D01*
X120999238Y-56078476D01*
X120999238Y-56030857D01*
X121046857Y-55935619D01*
X121094476Y-55888000D01*
X121189714Y-55840380D01*
X121380190Y-55840380D01*
X121475428Y-55888000D01*
X121523047Y-55935619D01*
X121570666Y-56030857D01*
X121570666Y-56078476D01*
X121523047Y-56173714D01*
X121475428Y-56221333D01*
X121380190Y-56268952D01*
X121189714Y-56268952D01*
X121094476Y-56316571D01*
X121046857Y-56364190D01*
X120999238Y-56459428D01*
X120999238Y-56649904D01*
X121046857Y-56745142D01*
X121094476Y-56792761D01*
X121189714Y-56840380D01*
X121380190Y-56840380D01*
X121475428Y-56792761D01*
X121523047Y-56745142D01*
X121570666Y-56649904D01*
X121570666Y-56459428D01*
X121523047Y-56364190D01*
X121475428Y-56316571D01*
X121380190Y-56268952D01*
X49688761Y-53125619D02*
X49593523Y-53078000D01*
X49498285Y-52982761D01*
X49355428Y-52839904D01*
X49260190Y-52792285D01*
X49164952Y-52792285D01*
X49212571Y-53030380D02*
X49117333Y-52982761D01*
X49022095Y-52887523D01*
X48974476Y-52697047D01*
X48974476Y-52363714D01*
X49022095Y-52173238D01*
X49117333Y-52078000D01*
X49212571Y-52030380D01*
X49403047Y-52030380D01*
X49498285Y-52078000D01*
X49593523Y-52173238D01*
X49641142Y-52363714D01*
X49641142Y-52697047D01*
X49593523Y-52887523D01*
X49498285Y-52982761D01*
X49403047Y-53030380D01*
X49212571Y-53030380D01*
X50022095Y-52125619D02*
X50069714Y-52078000D01*
X50164952Y-52030380D01*
X50403047Y-52030380D01*
X50498285Y-52078000D01*
X50545904Y-52125619D01*
X50593523Y-52220857D01*
X50593523Y-52316095D01*
X50545904Y-52458952D01*
X49974476Y-53030380D01*
X50593523Y-53030380D01*
X78827333Y-50490380D02*
X78494000Y-50014190D01*
X78255904Y-50490380D02*
X78255904Y-49490380D01*
X78636857Y-49490380D01*
X78732095Y-49538000D01*
X78779714Y-49585619D01*
X78827333Y-49680857D01*
X78827333Y-49823714D01*
X78779714Y-49918952D01*
X78732095Y-49966571D01*
X78636857Y-50014190D01*
X78255904Y-50014190D01*
X79732095Y-49490380D02*
X79255904Y-49490380D01*
X79208285Y-49966571D01*
X79255904Y-49918952D01*
X79351142Y-49871333D01*
X79589238Y-49871333D01*
X79684476Y-49918952D01*
X79732095Y-49966571D01*
X79779714Y-50061809D01*
X79779714Y-50299904D01*
X79732095Y-50395142D01*
X79684476Y-50442761D01*
X79589238Y-50490380D01*
X79351142Y-50490380D01*
X79255904Y-50442761D01*
X79208285Y-50395142D01*
X78827333Y-54300380D02*
X78494000Y-53824190D01*
X78255904Y-54300380D02*
X78255904Y-53300380D01*
X78636857Y-53300380D01*
X78732095Y-53348000D01*
X78779714Y-53395619D01*
X78827333Y-53490857D01*
X78827333Y-53633714D01*
X78779714Y-53728952D01*
X78732095Y-53776571D01*
X78636857Y-53824190D01*
X78255904Y-53824190D01*
X79160666Y-53300380D02*
X79827333Y-53300380D01*
X79398761Y-54300380D01*
X41148095Y-27392380D02*
X41148095Y-28201904D01*
X41195714Y-28297142D01*
X41243333Y-28344761D01*
X41338571Y-28392380D01*
X41529047Y-28392380D01*
X41624285Y-28344761D01*
X41671904Y-28297142D01*
X41719523Y-28201904D01*
X41719523Y-27392380D01*
X42100476Y-27392380D02*
X42719523Y-27392380D01*
X42386190Y-27773333D01*
X42529047Y-27773333D01*
X42624285Y-27820952D01*
X42671904Y-27868571D01*
X42719523Y-27963809D01*
X42719523Y-28201904D01*
X42671904Y-28297142D01*
X42624285Y-28344761D01*
X42529047Y-28392380D01*
X42243333Y-28392380D01*
X42148095Y-28344761D01*
X42100476Y-28297142D01*
X136398095Y-39584380D02*
X136398095Y-40393904D01*
X136445714Y-40489142D01*
X136493333Y-40536761D01*
X136588571Y-40584380D01*
X136779047Y-40584380D01*
X136874285Y-40536761D01*
X136921904Y-40489142D01*
X136969523Y-40393904D01*
X136969523Y-39584380D01*
X137874285Y-39917714D02*
X137874285Y-40584380D01*
X137636190Y-39536761D02*
X137398095Y-40251047D01*
X138017142Y-40251047D01*
X79081333Y-46680380D02*
X78748000Y-46204190D01*
X78509904Y-46680380D02*
X78509904Y-45680380D01*
X78890857Y-45680380D01*
X78986095Y-45728000D01*
X79033714Y-45775619D01*
X79081333Y-45870857D01*
X79081333Y-46013714D01*
X79033714Y-46108952D01*
X78986095Y-46156571D01*
X78890857Y-46204190D01*
X78509904Y-46204190D01*
X80033714Y-46680380D02*
X79462285Y-46680380D01*
X79748000Y-46680380D02*
X79748000Y-45680380D01*
X79652761Y-45823238D01*
X79557523Y-45918476D01*
X79462285Y-45966095D01*
X78827333Y-42870380D02*
X78494000Y-42394190D01*
X78255904Y-42870380D02*
X78255904Y-41870380D01*
X78636857Y-41870380D01*
X78732095Y-41918000D01*
X78779714Y-41965619D01*
X78827333Y-42060857D01*
X78827333Y-42203714D01*
X78779714Y-42298952D01*
X78732095Y-42346571D01*
X78636857Y-42394190D01*
X78255904Y-42394190D01*
X79208285Y-41965619D02*
X79255904Y-41918000D01*
X79351142Y-41870380D01*
X79589238Y-41870380D01*
X79684476Y-41918000D01*
X79732095Y-41965619D01*
X79779714Y-42060857D01*
X79779714Y-42156095D01*
X79732095Y-42298952D01*
X79160666Y-42870380D01*
X79779714Y-42870380D01*
X65619333Y-49474380D02*
X65286000Y-48998190D01*
X65047904Y-49474380D02*
X65047904Y-48474380D01*
X65428857Y-48474380D01*
X65524095Y-48522000D01*
X65571714Y-48569619D01*
X65619333Y-48664857D01*
X65619333Y-48807714D01*
X65571714Y-48902952D01*
X65524095Y-48950571D01*
X65428857Y-48998190D01*
X65047904Y-48998190D01*
X65952666Y-48474380D02*
X66571714Y-48474380D01*
X66238380Y-48855333D01*
X66381238Y-48855333D01*
X66476476Y-48902952D01*
X66524095Y-48950571D01*
X66571714Y-49045809D01*
X66571714Y-49283904D01*
X66524095Y-49379142D01*
X66476476Y-49426761D01*
X66381238Y-49474380D01*
X66095523Y-49474380D01*
X66000285Y-49426761D01*
X65952666Y-49379142D01*
X78827333Y-39060380D02*
X78494000Y-38584190D01*
X78255904Y-39060380D02*
X78255904Y-38060380D01*
X78636857Y-38060380D01*
X78732095Y-38108000D01*
X78779714Y-38155619D01*
X78827333Y-38250857D01*
X78827333Y-38393714D01*
X78779714Y-38488952D01*
X78732095Y-38536571D01*
X78636857Y-38584190D01*
X78255904Y-38584190D01*
X79684476Y-38393714D02*
X79684476Y-39060380D01*
X79446380Y-38012761D02*
X79208285Y-38727047D01*
X79827333Y-38727047D01*
X97813833Y-36139380D02*
X97480500Y-35663190D01*
X97242404Y-36139380D02*
X97242404Y-35139380D01*
X97623357Y-35139380D01*
X97718595Y-35187000D01*
X97766214Y-35234619D01*
X97813833Y-35329857D01*
X97813833Y-35472714D01*
X97766214Y-35567952D01*
X97718595Y-35615571D01*
X97623357Y-35663190D01*
X97242404Y-35663190D01*
X98385261Y-35567952D02*
X98290023Y-35520333D01*
X98242404Y-35472714D01*
X98194785Y-35377476D01*
X98194785Y-35329857D01*
X98242404Y-35234619D01*
X98290023Y-35187000D01*
X98385261Y-35139380D01*
X98575738Y-35139380D01*
X98670976Y-35187000D01*
X98718595Y-35234619D01*
X98766214Y-35329857D01*
X98766214Y-35377476D01*
X98718595Y-35472714D01*
X98670976Y-35520333D01*
X98575738Y-35567952D01*
X98385261Y-35567952D01*
X98290023Y-35615571D01*
X98242404Y-35663190D01*
X98194785Y-35758428D01*
X98194785Y-35948904D01*
X98242404Y-36044142D01*
X98290023Y-36091761D01*
X98385261Y-36139380D01*
X98575738Y-36139380D01*
X98670976Y-36091761D01*
X98718595Y-36044142D01*
X98766214Y-35948904D01*
X98766214Y-35758428D01*
X98718595Y-35663190D01*
X98670976Y-35615571D01*
X98575738Y-35567952D01*
X131492666Y-32948571D02*
X131159333Y-32948571D01*
X131159333Y-33472380D02*
X131159333Y-32472380D01*
X131635523Y-32472380D01*
X132540285Y-33472380D02*
X131968857Y-33472380D01*
X132254571Y-33472380D02*
X132254571Y-32472380D01*
X132159333Y-32615238D01*
X132064095Y-32710476D01*
X131968857Y-32758095D01*
X64984404Y-54554380D02*
X64984404Y-53554380D01*
X65222500Y-53554380D01*
X65365357Y-53602000D01*
X65460595Y-53697238D01*
X65508214Y-53792476D01*
X65555833Y-53982952D01*
X65555833Y-54125809D01*
X65508214Y-54316285D01*
X65460595Y-54411523D01*
X65365357Y-54506761D01*
X65222500Y-54554380D01*
X64984404Y-54554380D01*
X66508214Y-54554380D02*
X65936785Y-54554380D01*
X66222500Y-54554380D02*
X66222500Y-53554380D01*
X66127261Y-53697238D01*
X66032023Y-53792476D01*
X65936785Y-53840095D01*
X95718404Y-55887880D02*
X95718404Y-54887880D01*
X95956500Y-54887880D01*
X96099357Y-54935500D01*
X96194595Y-55030738D01*
X96242214Y-55125976D01*
X96289833Y-55316452D01*
X96289833Y-55459309D01*
X96242214Y-55649785D01*
X96194595Y-55745023D01*
X96099357Y-55840261D01*
X95956500Y-55887880D01*
X95718404Y-55887880D01*
X96670785Y-54983119D02*
X96718404Y-54935500D01*
X96813642Y-54887880D01*
X97051738Y-54887880D01*
X97146976Y-54935500D01*
X97194595Y-54983119D01*
X97242214Y-55078357D01*
X97242214Y-55173595D01*
X97194595Y-55316452D01*
X96623166Y-55887880D01*
X97242214Y-55887880D01*
X95781904Y-47442380D02*
X95781904Y-46442380D01*
X96020000Y-46442380D01*
X96162857Y-46490000D01*
X96258095Y-46585238D01*
X96305714Y-46680476D01*
X96353333Y-46870952D01*
X96353333Y-47013809D01*
X96305714Y-47204285D01*
X96258095Y-47299523D01*
X96162857Y-47394761D01*
X96020000Y-47442380D01*
X95781904Y-47442380D01*
X96686666Y-46442380D02*
X97305714Y-46442380D01*
X96972380Y-46823333D01*
X97115238Y-46823333D01*
X97210476Y-46870952D01*
X97258095Y-46918571D01*
X97305714Y-47013809D01*
X97305714Y-47251904D01*
X97258095Y-47347142D01*
X97210476Y-47394761D01*
X97115238Y-47442380D01*
X96829523Y-47442380D01*
X96734285Y-47394761D01*
X96686666Y-47347142D01*
X79101119Y-51720738D02*
X79053500Y-51815976D01*
X78958261Y-51911214D01*
X78815404Y-52054071D01*
X78767785Y-52149309D01*
X78767785Y-52244547D01*
X79005880Y-52196928D02*
X78958261Y-52292166D01*
X78863023Y-52387404D01*
X78672547Y-52435023D01*
X78339214Y-52435023D01*
X78148738Y-52387404D01*
X78053500Y-52292166D01*
X78005880Y-52196928D01*
X78005880Y-52006452D01*
X78053500Y-51911214D01*
X78148738Y-51815976D01*
X78339214Y-51768357D01*
X78672547Y-51768357D01*
X78863023Y-51815976D01*
X78958261Y-51911214D01*
X79005880Y-52006452D01*
X79005880Y-52196928D01*
X79005880Y-50815976D02*
X79005880Y-51387404D01*
X79005880Y-51101690D02*
X78005880Y-51101690D01*
X78148738Y-51196928D01*
X78243976Y-51292166D01*
X78291595Y-51387404D01*
X101274666Y-35520380D02*
X101274666Y-36234666D01*
X101227047Y-36377523D01*
X101131809Y-36472761D01*
X100988952Y-36520380D01*
X100893714Y-36520380D01*
X101750857Y-36520380D02*
X101750857Y-35520380D01*
X102131809Y-35520380D01*
X102227047Y-35568000D01*
X102274666Y-35615619D01*
X102322285Y-35710857D01*
X102322285Y-35853714D01*
X102274666Y-35948952D01*
X102227047Y-35996571D01*
X102131809Y-36044190D01*
X101750857Y-36044190D01*
X103274666Y-36520380D02*
X102703238Y-36520380D01*
X102988952Y-36520380D02*
X102988952Y-35520380D01*
X102893714Y-35663238D01*
X102798476Y-35758476D01*
X102703238Y-35806095D01*
X97623333Y-32382380D02*
X97290000Y-31906190D01*
X97051904Y-32382380D02*
X97051904Y-31382380D01*
X97432857Y-31382380D01*
X97528095Y-31430000D01*
X97575714Y-31477619D01*
X97623333Y-31572857D01*
X97623333Y-31715714D01*
X97575714Y-31810952D01*
X97528095Y-31858571D01*
X97432857Y-31906190D01*
X97051904Y-31906190D01*
X98480476Y-31382380D02*
X98290000Y-31382380D01*
X98194761Y-31430000D01*
X98147142Y-31477619D01*
X98051904Y-31620476D01*
X98004285Y-31810952D01*
X98004285Y-32191904D01*
X98051904Y-32287142D01*
X98099523Y-32334761D01*
X98194761Y-32382380D01*
X98385238Y-32382380D01*
X98480476Y-32334761D01*
X98528095Y-32287142D01*
X98575714Y-32191904D01*
X98575714Y-31953809D01*
X98528095Y-31858571D01*
X98480476Y-31810952D01*
X98385238Y-31763333D01*
X98194761Y-31763333D01*
X98099523Y-31810952D01*
X98051904Y-31858571D01*
X98004285Y-31953809D01*
X74094666Y-35012380D02*
X74094666Y-35726666D01*
X74047047Y-35869523D01*
X73951809Y-35964761D01*
X73808952Y-36012380D01*
X73713714Y-36012380D01*
X74999428Y-35345714D02*
X74999428Y-36012380D01*
X74761333Y-34964761D02*
X74523238Y-35679047D01*
X75142285Y-35679047D01*
X88566666Y-35012380D02*
X88566666Y-35726666D01*
X88519047Y-35869523D01*
X88423809Y-35964761D01*
X88280952Y-36012380D01*
X88185714Y-36012380D01*
X89519047Y-35012380D02*
X89042857Y-35012380D01*
X88995238Y-35488571D01*
X89042857Y-35440952D01*
X89138095Y-35393333D01*
X89376190Y-35393333D01*
X89471428Y-35440952D01*
X89519047Y-35488571D01*
X89566666Y-35583809D01*
X89566666Y-35821904D01*
X89519047Y-35917142D01*
X89471428Y-35964761D01*
X89376190Y-36012380D01*
X89138095Y-36012380D01*
X89042857Y-35964761D01*
X88995238Y-35917142D01*
M02*
