M48
; DRILL file {KiCad 5.1.5-1.fc31} date Tue 28 Apr 2020 16:34:49 BST
; FORMAT={-:-/ absolute / inch / decimal}
; #@! TF.CreationDate,2020-04-28T16:34:49+01:00
; #@! TF.GenerationSoftware,Kicad,Pcbnew,5.1.5-1.fc31
; #@! TF.FileFunction,Plated,1,2,PTH
FMAT,2
INCH
T1C0.0157
T2C0.0295
T3C0.0315
T4C0.0374
T5C0.0394
T6C0.0433
T7C0.0472
T8C0.0591
%
G90
G05
T1
X1.07Y-1.42
X1.07Y-1.52
X1.07Y-1.62
X1.07Y-1.72
X1.07Y-1.82
X1.07Y-1.92
X1.07Y-2.02
X1.25Y-1.2
X1.3Y-2.22
X1.4Y-2.22
X1.45Y-1.05
X1.5Y-2.22
X1.55Y-1.05
X1.6Y-2.22
X1.65Y-1.05
X1.7Y-2.22
X1.75Y-1.05
X1.787Y-1.94
X1.8Y-2.22
X1.85Y-1.05
X1.9Y-2.22
X2.0Y-2.22
X2.1Y-2.22
X2.2Y-2.22
X2.89Y-1.445
X4.07Y-2.07
T2
X2.09Y-2.01
X2.09Y-2.06
X2.09Y-2.11
X2.9525Y-1.9825
X2.9525Y-2.0325
X2.9525Y-2.0825
X1.75Y-1.15
X1.8Y-1.15
X1.85Y-1.15
T3
X3.2Y-1.82
X3.7Y-1.82
X3.2Y-1.97
X3.7Y-1.97
X2.0731Y-1.15
X2.27Y-1.15
X2.3525Y-1.8275
X2.8525Y-1.8275
X3.2Y-1.67
X3.7Y-1.67
X3.2Y-1.52
X3.7Y-1.52
X1.85Y-1.4031
X1.85Y-1.6
X3.6Y-1.15
X4.1Y-1.15
X5.11Y-1.93
X5.11Y-2.0284
X3.2Y-2.12
X3.7Y-2.12
X5.01Y-1.73
X5.2069Y-1.73
X2.37Y-1.35
X2.37Y-1.45
X2.37Y-1.55
X2.37Y-1.65
X2.67Y-1.35
X2.67Y-1.45
X2.67Y-1.55
X2.67Y-1.65
X2.81Y-1.13
X2.81Y-1.3269
X2.45Y-1.15
X2.6469Y-1.15
X3.6Y-1.3
X4.1Y-1.3
T4
X4.45Y-1.7
X4.45Y-1.7984
X4.45Y-1.8969
X4.45Y-1.9953
X4.45Y-2.0937
T5
X4.025Y-1.5325
X4.025Y-1.6325
X4.025Y-1.7325
X3.34Y-1.2016
X3.34Y-1.3
X3.07Y-1.2016
X3.07Y-1.3
X5.4Y-1.7299
X5.4Y-1.8299
X5.4Y-1.9299
X4.75Y-1.9916
X4.75Y-2.09
T6
X2.3975Y-2.0175
X2.7975Y-2.0175
X3.8Y-2.08
X4.2Y-2.08
X3.8Y-1.95
X4.2Y-1.95
T7
X1.6Y-1.3
X1.6Y-1.4
X1.6Y-1.5
X1.6Y-1.6
X1.6Y-1.7
X2.1Y-1.35
X2.1Y-1.45
X2.1Y-1.55
X2.1Y-1.65
X2.1Y-1.75
X2.1Y-1.85
X1.23Y-1.7
X1.23Y-1.8
X1.23Y-1.9
T8
X4.2202Y-1.2
X5.11Y-1.2
T0
M30
