%FSLAX45Y45*%
G04 Gerber Fmt 4.5, Leading zero omitted, Abs format (unit mm)*
G04 Created by KiCad (PCBNEW 5.1.5-1.fc31) date 2020-04-28 16:34:49*
%MOMM*%
%LPD*%
G04 APERTURE LIST*
%TA.AperFunction,Profile*%
%ADD10C,0.050000*%
%TD*%
%ADD11C,0.200000*%
%ADD12C,0.300000*%
G04 APERTURE END LIST*
D10*
X2667000Y-5740400D02*
G75*
G02X2540000Y-5613400I0J127000D01*
G01*
X14038580Y-5613400D02*
G75*
G02X13911580Y-5740400I-127000J0D01*
G01*
X14038580Y-3540000D02*
X13038580Y-2540000D01*
X3556000Y-2540000D02*
X2540000Y-3540000D01*
X2667000Y-5740400D02*
X13911580Y-5740400D01*
X2540000Y-3540000D02*
X2540000Y-5613400D01*
X14038580Y-3540000D02*
X14038580Y-5613400D01*
X3556000Y-2540000D02*
X13038580Y-2540000D01*
D11*
X2697800Y-3586800D02*
X2737800Y-3626800D01*
X2737800Y-3586800D02*
X2697800Y-3626800D01*
X2697800Y-3840800D02*
X2737800Y-3880800D01*
X2737800Y-3840800D02*
X2697800Y-3880800D01*
X2697800Y-4094800D02*
X2737800Y-4134800D01*
X2737800Y-4094800D02*
X2697800Y-4134800D01*
X2697800Y-4348800D02*
X2737800Y-4388800D01*
X2737800Y-4348800D02*
X2697800Y-4388800D01*
X2697800Y-4602800D02*
X2737800Y-4642800D01*
X2737800Y-4602800D02*
X2697800Y-4642800D01*
X2697800Y-4856800D02*
X2737800Y-4896800D01*
X2737800Y-4856800D02*
X2697800Y-4896800D01*
X2697800Y-5110800D02*
X2737800Y-5150800D01*
X2737800Y-5110800D02*
X2697800Y-5150800D01*
X3155000Y-3028000D02*
X3195000Y-3068000D01*
X3195000Y-3028000D02*
X3155000Y-3068000D01*
X3282000Y-5618800D02*
X3322000Y-5658800D01*
X3322000Y-5618800D02*
X3282000Y-5658800D01*
X3536000Y-5618800D02*
X3576000Y-5658800D01*
X3576000Y-5618800D02*
X3536000Y-5658800D01*
X3663000Y-2647000D02*
X3703000Y-2687000D01*
X3703000Y-2647000D02*
X3663000Y-2687000D01*
X3790000Y-5618800D02*
X3830000Y-5658800D01*
X3830000Y-5618800D02*
X3790000Y-5658800D01*
X3917000Y-2647000D02*
X3957000Y-2687000D01*
X3957000Y-2647000D02*
X3917000Y-2687000D01*
X4044000Y-5618800D02*
X4084000Y-5658800D01*
X4084000Y-5618800D02*
X4044000Y-5658800D01*
X4171000Y-2647000D02*
X4211000Y-2687000D01*
X4211000Y-2647000D02*
X4171000Y-2687000D01*
X4298000Y-5618800D02*
X4338000Y-5658800D01*
X4338000Y-5618800D02*
X4298000Y-5658800D01*
X4425000Y-2647000D02*
X4465000Y-2687000D01*
X4465000Y-2647000D02*
X4425000Y-2687000D01*
X4518980Y-4907600D02*
X4558980Y-4947600D01*
X4558980Y-4907600D02*
X4518980Y-4947600D01*
X4552000Y-5618800D02*
X4592000Y-5658800D01*
X4592000Y-5618800D02*
X4552000Y-5658800D01*
X4679000Y-2647000D02*
X4719000Y-2687000D01*
X4719000Y-2647000D02*
X4679000Y-2687000D01*
X4806000Y-5618800D02*
X4846000Y-5658800D01*
X4846000Y-5618800D02*
X4806000Y-5658800D01*
X5060000Y-5618800D02*
X5100000Y-5658800D01*
X5100000Y-5618800D02*
X5060000Y-5658800D01*
X5314000Y-5618800D02*
X5354000Y-5658800D01*
X5354000Y-5618800D02*
X5314000Y-5658800D01*
X5568000Y-5618800D02*
X5608000Y-5658800D01*
X5608000Y-5618800D02*
X5568000Y-5658800D01*
X7320600Y-3650300D02*
X7360600Y-3690300D01*
X7360600Y-3650300D02*
X7320600Y-3690300D01*
X10317800Y-5237800D02*
X10357800Y-5277800D01*
X10357800Y-5237800D02*
X10317800Y-5277800D01*
X5346100Y-5105400D02*
G75*
G03X5346100Y-5105400I-37500J0D01*
G01*
X5346100Y-5232400D02*
G75*
G03X5346100Y-5232400I-37500J0D01*
G01*
X5346100Y-5359400D02*
G75*
G03X5346100Y-5359400I-37500J0D01*
G01*
X7536850Y-5035550D02*
G75*
G03X7536850Y-5035550I-37500J0D01*
G01*
X7536850Y-5162550D02*
G75*
G03X7536850Y-5162550I-37500J0D01*
G01*
X7536850Y-5289550D02*
G75*
G03X7536850Y-5289550I-37500J0D01*
G01*
X4482500Y-2921000D02*
G75*
G03X4482500Y-2921000I-37500J0D01*
G01*
X4609500Y-2921000D02*
G75*
G03X4609500Y-2921000I-37500J0D01*
G01*
X4736500Y-2921000D02*
G75*
G03X4736500Y-2921000I-37500J0D01*
G01*
X8128000Y-4582800D02*
X8128000Y-4662800D01*
X8088000Y-4622800D02*
X8168000Y-4622800D01*
X9398000Y-4582800D02*
X9398000Y-4662800D01*
X9358000Y-4622800D02*
X9438000Y-4622800D01*
X8128000Y-4963800D02*
X8128000Y-5043800D01*
X8088000Y-5003800D02*
X8168000Y-5003800D01*
X9398000Y-4963800D02*
X9398000Y-5043800D01*
X9358000Y-5003800D02*
X9438000Y-5003800D01*
X5265800Y-2881000D02*
X5265800Y-2961000D01*
X5225800Y-2921000D02*
X5305800Y-2921000D01*
X5765800Y-2881000D02*
X5765800Y-2961000D01*
X5725800Y-2921000D02*
X5805800Y-2921000D01*
X5975350Y-4601850D02*
X5975350Y-4681850D01*
X5935350Y-4641850D02*
X6015350Y-4641850D01*
X7245350Y-4601850D02*
X7245350Y-4681850D01*
X7205350Y-4641850D02*
X7285350Y-4641850D01*
X8128000Y-4201800D02*
X8128000Y-4281800D01*
X8088000Y-4241800D02*
X8168000Y-4241800D01*
X9398000Y-4201800D02*
X9398000Y-4281800D01*
X9358000Y-4241800D02*
X9438000Y-4241800D01*
X8128000Y-3820800D02*
X8128000Y-3900800D01*
X8088000Y-3860800D02*
X8168000Y-3860800D01*
X9398000Y-3820800D02*
X9398000Y-3900800D01*
X9358000Y-3860800D02*
X9438000Y-3860800D01*
X4699000Y-3524000D02*
X4699000Y-3604000D01*
X4659000Y-3564000D02*
X4739000Y-3564000D01*
X4699000Y-4024000D02*
X4699000Y-4104000D01*
X4659000Y-4064000D02*
X4739000Y-4064000D01*
X9144000Y-2881000D02*
X9144000Y-2961000D01*
X9104000Y-2921000D02*
X9184000Y-2921000D01*
X10414000Y-2881000D02*
X10414000Y-2961000D01*
X10374000Y-2921000D02*
X10454000Y-2921000D01*
X12979400Y-4862200D02*
X12979400Y-4942200D01*
X12939400Y-4902200D02*
X13019400Y-4902200D01*
X12979400Y-5112200D02*
X12979400Y-5192200D01*
X12939400Y-5152200D02*
X13019400Y-5152200D01*
X8128000Y-5344800D02*
X8128000Y-5424800D01*
X8088000Y-5384800D02*
X8168000Y-5384800D01*
X9398000Y-5344800D02*
X9398000Y-5424800D01*
X9358000Y-5384800D02*
X9438000Y-5384800D01*
X12725400Y-4354200D02*
X12725400Y-4434200D01*
X12685400Y-4394200D02*
X12765400Y-4394200D01*
X13225400Y-4354200D02*
X13225400Y-4434200D01*
X13185400Y-4394200D02*
X13265400Y-4394200D01*
X6019800Y-3389000D02*
X6019800Y-3469000D01*
X5979800Y-3429000D02*
X6059800Y-3429000D01*
X6019800Y-3643000D02*
X6019800Y-3723000D01*
X5979800Y-3683000D02*
X6059800Y-3683000D01*
X6019800Y-3897000D02*
X6019800Y-3977000D01*
X5979800Y-3937000D02*
X6059800Y-3937000D01*
X6019800Y-4151000D02*
X6019800Y-4231000D01*
X5979800Y-4191000D02*
X6059800Y-4191000D01*
X6781800Y-3389000D02*
X6781800Y-3469000D01*
X6741800Y-3429000D02*
X6821800Y-3429000D01*
X6781800Y-3643000D02*
X6781800Y-3723000D01*
X6741800Y-3683000D02*
X6821800Y-3683000D01*
X6781800Y-3897000D02*
X6781800Y-3977000D01*
X6741800Y-3937000D02*
X6821800Y-3937000D01*
X6781800Y-4151000D02*
X6781800Y-4231000D01*
X6741800Y-4191000D02*
X6821800Y-4191000D01*
X7137400Y-2830200D02*
X7137400Y-2910200D01*
X7097400Y-2870200D02*
X7177400Y-2870200D01*
X7137400Y-3330200D02*
X7137400Y-3410200D01*
X7097400Y-3370200D02*
X7177400Y-3370200D01*
X6223000Y-2881000D02*
X6223000Y-2961000D01*
X6183000Y-2921000D02*
X6263000Y-2921000D01*
X6723000Y-2881000D02*
X6723000Y-2961000D01*
X6683000Y-2921000D02*
X6763000Y-2921000D01*
X9144000Y-3262000D02*
X9144000Y-3342000D01*
X9104000Y-3302000D02*
X9184000Y-3302000D01*
X10414000Y-3262000D02*
X10414000Y-3342000D01*
X10374000Y-3302000D02*
X10454000Y-3302000D01*
X11336588Y-4351588D02*
X11336588Y-4284412D01*
X11269412Y-4284412D01*
X11269412Y-4351588D01*
X11336588Y-4351588D01*
X11336588Y-4601588D02*
X11336588Y-4534412D01*
X11269412Y-4534412D01*
X11269412Y-4601588D01*
X11336588Y-4601588D01*
X11336588Y-4851588D02*
X11336588Y-4784412D01*
X11269412Y-4784412D01*
X11269412Y-4851588D01*
X11336588Y-4851588D01*
X11336588Y-5101588D02*
X11336588Y-5034412D01*
X11269412Y-5034412D01*
X11269412Y-5101588D01*
X11336588Y-5101588D01*
X11336588Y-5351588D02*
X11336588Y-5284412D01*
X11269412Y-5284412D01*
X11269412Y-5351588D01*
X11336588Y-5351588D01*
X10223500Y-3942550D02*
X10273500Y-3892550D01*
X10223500Y-3842550D01*
X10173500Y-3892550D01*
X10223500Y-3942550D01*
X10223500Y-4196550D02*
X10273500Y-4146550D01*
X10223500Y-4096550D01*
X10173500Y-4146550D01*
X10223500Y-4196550D01*
X10223500Y-4450550D02*
X10273500Y-4400550D01*
X10223500Y-4350550D01*
X10173500Y-4400550D01*
X10223500Y-4450550D01*
X8483600Y-3102000D02*
X8533600Y-3052000D01*
X8483600Y-3002000D01*
X8433600Y-3052000D01*
X8483600Y-3102000D01*
X8483600Y-3352000D02*
X8533600Y-3302000D01*
X8483600Y-3252000D01*
X8433600Y-3302000D01*
X8483600Y-3352000D01*
X7797800Y-3102000D02*
X7847800Y-3052000D01*
X7797800Y-3002000D01*
X7747800Y-3052000D01*
X7797800Y-3102000D01*
X7797800Y-3352000D02*
X7847800Y-3302000D01*
X7797800Y-3252000D01*
X7747800Y-3302000D01*
X7797800Y-3352000D01*
X13716000Y-4444000D02*
X13766000Y-4394000D01*
X13716000Y-4344000D01*
X13666000Y-4394000D01*
X13716000Y-4444000D01*
X13716000Y-4698000D02*
X13766000Y-4648000D01*
X13716000Y-4598000D01*
X13666000Y-4648000D01*
X13716000Y-4698000D01*
X13716000Y-4952000D02*
X13766000Y-4902000D01*
X13716000Y-4852000D01*
X13666000Y-4902000D01*
X13716000Y-4952000D01*
X12065000Y-5108600D02*
X12115000Y-5058600D01*
X12065000Y-5008600D01*
X12015000Y-5058600D01*
X12065000Y-5108600D01*
X12065000Y-5358600D02*
X12115000Y-5308600D01*
X12065000Y-5258600D01*
X12015000Y-5308600D01*
X12065000Y-5358600D01*
X6034650Y-5069450D02*
X6144650Y-5179450D01*
X6144650Y-5069450D02*
X6034650Y-5179450D01*
X6144650Y-5124450D02*
G75*
G03X6144650Y-5124450I-55000J0D01*
G01*
X7050650Y-5069450D02*
X7160650Y-5179450D01*
X7160650Y-5069450D02*
X7050650Y-5179450D01*
X7160650Y-5124450D02*
G75*
G03X7160650Y-5124450I-55000J0D01*
G01*
X9597000Y-5228200D02*
X9707000Y-5338200D01*
X9707000Y-5228200D02*
X9597000Y-5338200D01*
X9707000Y-5283200D02*
G75*
G03X9707000Y-5283200I-55000J0D01*
G01*
X10613000Y-5228200D02*
X10723000Y-5338200D01*
X10723000Y-5228200D02*
X10613000Y-5338200D01*
X10723000Y-5283200D02*
G75*
G03X10723000Y-5283200I-55000J0D01*
G01*
X9597000Y-4898000D02*
X9707000Y-5008000D01*
X9707000Y-4898000D02*
X9597000Y-5008000D01*
X9707000Y-4953000D02*
G75*
G03X9707000Y-4953000I-55000J0D01*
G01*
X10613000Y-4898000D02*
X10723000Y-5008000D01*
X10723000Y-4898000D02*
X10613000Y-5008000D01*
X10723000Y-4953000D02*
G75*
G03X10723000Y-4953000I-55000J0D01*
G01*
X4004000Y-3242000D02*
X4124000Y-3362000D01*
X4124000Y-3242000D02*
X4004000Y-3362000D01*
X4064000Y-3242000D02*
X4064000Y-3362000D01*
X4004000Y-3302000D02*
X4124000Y-3302000D01*
X4004000Y-3496000D02*
X4124000Y-3616000D01*
X4124000Y-3496000D02*
X4004000Y-3616000D01*
X4064000Y-3496000D02*
X4064000Y-3616000D01*
X4004000Y-3556000D02*
X4124000Y-3556000D01*
X4004000Y-3750000D02*
X4124000Y-3870000D01*
X4124000Y-3750000D02*
X4004000Y-3870000D01*
X4064000Y-3750000D02*
X4064000Y-3870000D01*
X4004000Y-3810000D02*
X4124000Y-3810000D01*
X4004000Y-4004000D02*
X4124000Y-4124000D01*
X4124000Y-4004000D02*
X4004000Y-4124000D01*
X4064000Y-4004000D02*
X4064000Y-4124000D01*
X4004000Y-4064000D02*
X4124000Y-4064000D01*
X4004000Y-4258000D02*
X4124000Y-4378000D01*
X4124000Y-4258000D02*
X4004000Y-4378000D01*
X4064000Y-4258000D02*
X4064000Y-4378000D01*
X4004000Y-4318000D02*
X4124000Y-4318000D01*
X5274000Y-3369000D02*
X5394000Y-3489000D01*
X5394000Y-3369000D02*
X5274000Y-3489000D01*
X5334000Y-3369000D02*
X5334000Y-3489000D01*
X5274000Y-3429000D02*
X5394000Y-3429000D01*
X5274000Y-3623000D02*
X5394000Y-3743000D01*
X5394000Y-3623000D02*
X5274000Y-3743000D01*
X5334000Y-3623000D02*
X5334000Y-3743000D01*
X5274000Y-3683000D02*
X5394000Y-3683000D01*
X5274000Y-3877000D02*
X5394000Y-3997000D01*
X5394000Y-3877000D02*
X5274000Y-3997000D01*
X5334000Y-3877000D02*
X5334000Y-3997000D01*
X5274000Y-3937000D02*
X5394000Y-3937000D01*
X5274000Y-4131000D02*
X5394000Y-4251000D01*
X5394000Y-4131000D02*
X5274000Y-4251000D01*
X5334000Y-4131000D02*
X5334000Y-4251000D01*
X5274000Y-4191000D02*
X5394000Y-4191000D01*
X5274000Y-4385000D02*
X5394000Y-4505000D01*
X5394000Y-4385000D02*
X5274000Y-4505000D01*
X5334000Y-4385000D02*
X5334000Y-4505000D01*
X5274000Y-4445000D02*
X5394000Y-4445000D01*
X5274000Y-4639000D02*
X5394000Y-4759000D01*
X5394000Y-4639000D02*
X5274000Y-4759000D01*
X5334000Y-4639000D02*
X5334000Y-4759000D01*
X5274000Y-4699000D02*
X5394000Y-4699000D01*
X3064200Y-4258000D02*
X3184200Y-4378000D01*
X3184200Y-4258000D02*
X3064200Y-4378000D01*
X3124200Y-4258000D02*
X3124200Y-4378000D01*
X3064200Y-4318000D02*
X3184200Y-4318000D01*
X3064200Y-4512000D02*
X3184200Y-4632000D01*
X3184200Y-4512000D02*
X3064200Y-4632000D01*
X3124200Y-4512000D02*
X3124200Y-4632000D01*
X3064200Y-4572000D02*
X3184200Y-4572000D01*
X3064200Y-4766000D02*
X3184200Y-4886000D01*
X3184200Y-4766000D02*
X3064200Y-4886000D01*
X3124200Y-4766000D02*
X3124200Y-4886000D01*
X3064200Y-4826000D02*
X3184200Y-4826000D01*
X10644400Y-2973000D02*
X10794400Y-3123000D01*
X10794400Y-2973000D02*
X10644400Y-3123000D01*
X10772434Y-3101033D02*
X10772434Y-2994966D01*
X10666367Y-2994966D01*
X10666367Y-3101033D01*
X10772434Y-3101033D01*
X12904400Y-2973000D02*
X13054400Y-3123000D01*
X13054400Y-2973000D02*
X12904400Y-3123000D01*
X13032433Y-3101033D02*
X13032433Y-2994966D01*
X12926366Y-2994966D01*
X12926366Y-3101033D01*
X13032433Y-3101033D01*
D12*
X2823928Y-6208614D02*
X2823928Y-5908614D01*
X2895357Y-5908614D01*
X2938214Y-5922900D01*
X2966786Y-5951471D01*
X2981071Y-5980043D01*
X2995357Y-6037186D01*
X2995357Y-6080043D01*
X2981071Y-6137186D01*
X2966786Y-6165757D01*
X2938214Y-6194329D01*
X2895357Y-6208614D01*
X2823928Y-6208614D01*
X3123928Y-6208614D02*
X3123928Y-6008614D01*
X3123928Y-6065757D02*
X3138214Y-6037186D01*
X3152500Y-6022900D01*
X3181071Y-6008614D01*
X3209643Y-6008614D01*
X3309643Y-6208614D02*
X3309643Y-6008614D01*
X3309643Y-5908614D02*
X3295357Y-5922900D01*
X3309643Y-5937186D01*
X3323928Y-5922900D01*
X3309643Y-5908614D01*
X3309643Y-5937186D01*
X3495357Y-6208614D02*
X3466786Y-6194329D01*
X3452500Y-6165757D01*
X3452500Y-5908614D01*
X3652500Y-6208614D02*
X3623928Y-6194329D01*
X3609643Y-6165757D01*
X3609643Y-5908614D01*
X3995357Y-6208614D02*
X3995357Y-5908614D01*
X4095357Y-6122900D01*
X4195357Y-5908614D01*
X4195357Y-6208614D01*
X4466786Y-6208614D02*
X4466786Y-6051471D01*
X4452500Y-6022900D01*
X4423928Y-6008614D01*
X4366786Y-6008614D01*
X4338214Y-6022900D01*
X4466786Y-6194329D02*
X4438214Y-6208614D01*
X4366786Y-6208614D01*
X4338214Y-6194329D01*
X4323928Y-6165757D01*
X4323928Y-6137186D01*
X4338214Y-6108614D01*
X4366786Y-6094329D01*
X4438214Y-6094329D01*
X4466786Y-6080043D01*
X4609643Y-6008614D02*
X4609643Y-6308614D01*
X4609643Y-6022900D02*
X4638214Y-6008614D01*
X4695357Y-6008614D01*
X4723928Y-6022900D01*
X4738214Y-6037186D01*
X4752500Y-6065757D01*
X4752500Y-6151471D01*
X4738214Y-6180043D01*
X4723928Y-6194329D01*
X4695357Y-6208614D01*
X4638214Y-6208614D01*
X4609643Y-6194329D01*
X4881071Y-6180043D02*
X4895357Y-6194329D01*
X4881071Y-6208614D01*
X4866786Y-6194329D01*
X4881071Y-6180043D01*
X4881071Y-6208614D01*
X4881071Y-6022900D02*
X4895357Y-6037186D01*
X4881071Y-6051471D01*
X4866786Y-6037186D01*
X4881071Y-6022900D01*
X4881071Y-6051471D01*
X2497500Y-6682900D02*
X2537500Y-6722900D01*
X2537500Y-6682900D02*
X2497500Y-6722900D01*
X2881071Y-6538614D02*
X2909643Y-6538614D01*
X2938214Y-6552900D01*
X2952500Y-6567186D01*
X2966786Y-6595757D01*
X2981071Y-6652900D01*
X2981071Y-6724329D01*
X2966786Y-6781471D01*
X2952500Y-6810043D01*
X2938214Y-6824329D01*
X2909643Y-6838614D01*
X2881071Y-6838614D01*
X2852500Y-6824329D01*
X2838214Y-6810043D01*
X2823928Y-6781471D01*
X2809643Y-6724329D01*
X2809643Y-6652900D01*
X2823928Y-6595757D01*
X2838214Y-6567186D01*
X2852500Y-6552900D01*
X2881071Y-6538614D01*
X3109643Y-6810043D02*
X3123928Y-6824329D01*
X3109643Y-6838614D01*
X3095357Y-6824329D01*
X3109643Y-6810043D01*
X3109643Y-6838614D01*
X3381071Y-6638614D02*
X3381071Y-6838614D01*
X3309643Y-6524329D02*
X3238214Y-6738614D01*
X3423928Y-6738614D01*
X3595357Y-6538614D02*
X3623928Y-6538614D01*
X3652500Y-6552900D01*
X3666786Y-6567186D01*
X3681071Y-6595757D01*
X3695357Y-6652900D01*
X3695357Y-6724329D01*
X3681071Y-6781471D01*
X3666786Y-6810043D01*
X3652500Y-6824329D01*
X3623928Y-6838614D01*
X3595357Y-6838614D01*
X3566786Y-6824329D01*
X3552500Y-6810043D01*
X3538214Y-6781471D01*
X3523928Y-6724329D01*
X3523928Y-6652900D01*
X3538214Y-6595757D01*
X3552500Y-6567186D01*
X3566786Y-6552900D01*
X3595357Y-6538614D01*
X3823928Y-6838614D02*
X3823928Y-6638614D01*
X3823928Y-6667186D02*
X3838214Y-6652900D01*
X3866786Y-6638614D01*
X3909643Y-6638614D01*
X3938214Y-6652900D01*
X3952500Y-6681471D01*
X3952500Y-6838614D01*
X3952500Y-6681471D02*
X3966786Y-6652900D01*
X3995357Y-6638614D01*
X4038214Y-6638614D01*
X4066786Y-6652900D01*
X4081071Y-6681471D01*
X4081071Y-6838614D01*
X4223928Y-6838614D02*
X4223928Y-6638614D01*
X4223928Y-6667186D02*
X4238214Y-6652900D01*
X4266786Y-6638614D01*
X4309643Y-6638614D01*
X4338214Y-6652900D01*
X4352500Y-6681471D01*
X4352500Y-6838614D01*
X4352500Y-6681471D02*
X4366786Y-6652900D01*
X4395357Y-6638614D01*
X4438214Y-6638614D01*
X4466786Y-6652900D01*
X4481071Y-6681471D01*
X4481071Y-6838614D01*
X5066786Y-6524329D02*
X4809643Y-6910043D01*
X5452500Y-6538614D02*
X5481071Y-6538614D01*
X5509643Y-6552900D01*
X5523928Y-6567186D01*
X5538214Y-6595757D01*
X5552500Y-6652900D01*
X5552500Y-6724329D01*
X5538214Y-6781471D01*
X5523928Y-6810043D01*
X5509643Y-6824329D01*
X5481071Y-6838614D01*
X5452500Y-6838614D01*
X5423928Y-6824329D01*
X5409643Y-6810043D01*
X5395357Y-6781471D01*
X5381071Y-6724329D01*
X5381071Y-6652900D01*
X5395357Y-6595757D01*
X5409643Y-6567186D01*
X5423928Y-6552900D01*
X5452500Y-6538614D01*
X5681071Y-6810043D02*
X5695357Y-6824329D01*
X5681071Y-6838614D01*
X5666786Y-6824329D01*
X5681071Y-6810043D01*
X5681071Y-6838614D01*
X5881071Y-6538614D02*
X5909643Y-6538614D01*
X5938214Y-6552900D01*
X5952500Y-6567186D01*
X5966786Y-6595757D01*
X5981071Y-6652900D01*
X5981071Y-6724329D01*
X5966786Y-6781471D01*
X5952500Y-6810043D01*
X5938214Y-6824329D01*
X5909643Y-6838614D01*
X5881071Y-6838614D01*
X5852500Y-6824329D01*
X5838214Y-6810043D01*
X5823928Y-6781471D01*
X5809643Y-6724329D01*
X5809643Y-6652900D01*
X5823928Y-6595757D01*
X5838214Y-6567186D01*
X5852500Y-6552900D01*
X5881071Y-6538614D01*
X6266786Y-6838614D02*
X6095357Y-6838614D01*
X6181071Y-6838614D02*
X6181071Y-6538614D01*
X6152500Y-6581471D01*
X6123928Y-6610043D01*
X6095357Y-6624329D01*
X6523928Y-6538614D02*
X6466786Y-6538614D01*
X6438214Y-6552900D01*
X6423928Y-6567186D01*
X6395357Y-6610043D01*
X6381071Y-6667186D01*
X6381071Y-6781471D01*
X6395357Y-6810043D01*
X6409643Y-6824329D01*
X6438214Y-6838614D01*
X6495357Y-6838614D01*
X6523928Y-6824329D01*
X6538214Y-6810043D01*
X6552500Y-6781471D01*
X6552500Y-6710043D01*
X6538214Y-6681471D01*
X6523928Y-6667186D01*
X6495357Y-6652900D01*
X6438214Y-6652900D01*
X6409643Y-6667186D01*
X6395357Y-6681471D01*
X6381071Y-6710043D01*
X6666786Y-6538614D02*
X6666786Y-6595757D01*
X6781071Y-6538614D02*
X6781071Y-6595757D01*
X7223928Y-6952900D02*
X7209643Y-6938614D01*
X7181071Y-6895757D01*
X7166786Y-6867186D01*
X7152500Y-6824329D01*
X7138214Y-6752900D01*
X7138214Y-6695757D01*
X7152500Y-6624329D01*
X7166786Y-6581471D01*
X7181071Y-6552900D01*
X7209643Y-6510043D01*
X7223928Y-6495757D01*
X7323928Y-6567186D02*
X7338214Y-6552900D01*
X7366786Y-6538614D01*
X7438214Y-6538614D01*
X7466786Y-6552900D01*
X7481071Y-6567186D01*
X7495357Y-6595757D01*
X7495357Y-6624329D01*
X7481071Y-6667186D01*
X7309643Y-6838614D01*
X7495357Y-6838614D01*
X7752500Y-6538614D02*
X7695357Y-6538614D01*
X7666786Y-6552900D01*
X7652500Y-6567186D01*
X7623928Y-6610043D01*
X7609643Y-6667186D01*
X7609643Y-6781471D01*
X7623928Y-6810043D01*
X7638214Y-6824329D01*
X7666786Y-6838614D01*
X7723928Y-6838614D01*
X7752500Y-6824329D01*
X7766786Y-6810043D01*
X7781071Y-6781471D01*
X7781071Y-6710043D01*
X7766786Y-6681471D01*
X7752500Y-6667186D01*
X7723928Y-6652900D01*
X7666786Y-6652900D01*
X7638214Y-6667186D01*
X7623928Y-6681471D01*
X7609643Y-6710043D01*
X8138214Y-6838614D02*
X8138214Y-6538614D01*
X8266786Y-6838614D02*
X8266786Y-6681471D01*
X8252500Y-6652900D01*
X8223928Y-6638614D01*
X8181071Y-6638614D01*
X8152500Y-6652900D01*
X8138214Y-6667186D01*
X8452500Y-6838614D02*
X8423928Y-6824329D01*
X8409643Y-6810043D01*
X8395357Y-6781471D01*
X8395357Y-6695757D01*
X8409643Y-6667186D01*
X8423928Y-6652900D01*
X8452500Y-6638614D01*
X8495357Y-6638614D01*
X8523928Y-6652900D01*
X8538214Y-6667186D01*
X8552500Y-6695757D01*
X8552500Y-6781471D01*
X8538214Y-6810043D01*
X8523928Y-6824329D01*
X8495357Y-6838614D01*
X8452500Y-6838614D01*
X8723928Y-6838614D02*
X8695357Y-6824329D01*
X8681071Y-6795757D01*
X8681071Y-6538614D01*
X8952500Y-6824329D02*
X8923928Y-6838614D01*
X8866786Y-6838614D01*
X8838214Y-6824329D01*
X8823928Y-6795757D01*
X8823928Y-6681471D01*
X8838214Y-6652900D01*
X8866786Y-6638614D01*
X8923928Y-6638614D01*
X8952500Y-6652900D01*
X8966786Y-6681471D01*
X8966786Y-6710043D01*
X8823928Y-6738614D01*
X9081071Y-6824329D02*
X9109643Y-6838614D01*
X9166786Y-6838614D01*
X9195357Y-6824329D01*
X9209643Y-6795757D01*
X9209643Y-6781471D01*
X9195357Y-6752900D01*
X9166786Y-6738614D01*
X9123928Y-6738614D01*
X9095357Y-6724329D01*
X9081071Y-6695757D01*
X9081071Y-6681471D01*
X9095357Y-6652900D01*
X9123928Y-6638614D01*
X9166786Y-6638614D01*
X9195357Y-6652900D01*
X9309643Y-6952900D02*
X9323928Y-6938614D01*
X9352500Y-6895757D01*
X9366786Y-6867186D01*
X9381071Y-6824329D01*
X9395357Y-6752900D01*
X9395357Y-6695757D01*
X9381071Y-6624329D01*
X9366786Y-6581471D01*
X9352500Y-6552900D01*
X9323928Y-6510043D01*
X9309643Y-6495757D01*
X2537500Y-7098900D02*
G75*
G03X2537500Y-7098900I-37500J0D01*
G01*
X2881071Y-6934614D02*
X2909643Y-6934614D01*
X2938214Y-6948900D01*
X2952500Y-6963186D01*
X2966786Y-6991757D01*
X2981071Y-7048900D01*
X2981071Y-7120329D01*
X2966786Y-7177471D01*
X2952500Y-7206043D01*
X2938214Y-7220329D01*
X2909643Y-7234614D01*
X2881071Y-7234614D01*
X2852500Y-7220329D01*
X2838214Y-7206043D01*
X2823928Y-7177471D01*
X2809643Y-7120329D01*
X2809643Y-7048900D01*
X2823928Y-6991757D01*
X2838214Y-6963186D01*
X2852500Y-6948900D01*
X2881071Y-6934614D01*
X3109643Y-7206043D02*
X3123928Y-7220329D01*
X3109643Y-7234614D01*
X3095357Y-7220329D01*
X3109643Y-7206043D01*
X3109643Y-7234614D01*
X3223928Y-6934614D02*
X3423928Y-6934614D01*
X3295357Y-7234614D01*
X3681071Y-6934614D02*
X3538214Y-6934614D01*
X3523928Y-7077471D01*
X3538214Y-7063186D01*
X3566786Y-7048900D01*
X3638214Y-7048900D01*
X3666786Y-7063186D01*
X3681071Y-7077471D01*
X3695357Y-7106043D01*
X3695357Y-7177471D01*
X3681071Y-7206043D01*
X3666786Y-7220329D01*
X3638214Y-7234614D01*
X3566786Y-7234614D01*
X3538214Y-7220329D01*
X3523928Y-7206043D01*
X3823928Y-7234614D02*
X3823928Y-7034614D01*
X3823928Y-7063186D02*
X3838214Y-7048900D01*
X3866786Y-7034614D01*
X3909643Y-7034614D01*
X3938214Y-7048900D01*
X3952500Y-7077471D01*
X3952500Y-7234614D01*
X3952500Y-7077471D02*
X3966786Y-7048900D01*
X3995357Y-7034614D01*
X4038214Y-7034614D01*
X4066786Y-7048900D01*
X4081071Y-7077471D01*
X4081071Y-7234614D01*
X4223928Y-7234614D02*
X4223928Y-7034614D01*
X4223928Y-7063186D02*
X4238214Y-7048900D01*
X4266786Y-7034614D01*
X4309643Y-7034614D01*
X4338214Y-7048900D01*
X4352500Y-7077471D01*
X4352500Y-7234614D01*
X4352500Y-7077471D02*
X4366786Y-7048900D01*
X4395357Y-7034614D01*
X4438214Y-7034614D01*
X4466786Y-7048900D01*
X4481071Y-7077471D01*
X4481071Y-7234614D01*
X5066786Y-6920329D02*
X4809643Y-7306043D01*
X5452500Y-6934614D02*
X5481071Y-6934614D01*
X5509643Y-6948900D01*
X5523928Y-6963186D01*
X5538214Y-6991757D01*
X5552500Y-7048900D01*
X5552500Y-7120329D01*
X5538214Y-7177471D01*
X5523928Y-7206043D01*
X5509643Y-7220329D01*
X5481071Y-7234614D01*
X5452500Y-7234614D01*
X5423928Y-7220329D01*
X5409643Y-7206043D01*
X5395357Y-7177471D01*
X5381071Y-7120329D01*
X5381071Y-7048900D01*
X5395357Y-6991757D01*
X5409643Y-6963186D01*
X5423928Y-6948900D01*
X5452500Y-6934614D01*
X5681071Y-7206043D02*
X5695357Y-7220329D01*
X5681071Y-7234614D01*
X5666786Y-7220329D01*
X5681071Y-7206043D01*
X5681071Y-7234614D01*
X5881071Y-6934614D02*
X5909643Y-6934614D01*
X5938214Y-6948900D01*
X5952500Y-6963186D01*
X5966786Y-6991757D01*
X5981071Y-7048900D01*
X5981071Y-7120329D01*
X5966786Y-7177471D01*
X5952500Y-7206043D01*
X5938214Y-7220329D01*
X5909643Y-7234614D01*
X5881071Y-7234614D01*
X5852500Y-7220329D01*
X5838214Y-7206043D01*
X5823928Y-7177471D01*
X5809643Y-7120329D01*
X5809643Y-7048900D01*
X5823928Y-6991757D01*
X5838214Y-6963186D01*
X5852500Y-6948900D01*
X5881071Y-6934614D01*
X6081071Y-6934614D02*
X6266786Y-6934614D01*
X6166786Y-7048900D01*
X6209643Y-7048900D01*
X6238214Y-7063186D01*
X6252500Y-7077471D01*
X6266786Y-7106043D01*
X6266786Y-7177471D01*
X6252500Y-7206043D01*
X6238214Y-7220329D01*
X6209643Y-7234614D01*
X6123928Y-7234614D01*
X6095357Y-7220329D01*
X6081071Y-7206043D01*
X6452500Y-6934614D02*
X6481071Y-6934614D01*
X6509643Y-6948900D01*
X6523928Y-6963186D01*
X6538214Y-6991757D01*
X6552500Y-7048900D01*
X6552500Y-7120329D01*
X6538214Y-7177471D01*
X6523928Y-7206043D01*
X6509643Y-7220329D01*
X6481071Y-7234614D01*
X6452500Y-7234614D01*
X6423928Y-7220329D01*
X6409643Y-7206043D01*
X6395357Y-7177471D01*
X6381071Y-7120329D01*
X6381071Y-7048900D01*
X6395357Y-6991757D01*
X6409643Y-6963186D01*
X6423928Y-6948900D01*
X6452500Y-6934614D01*
X6666786Y-6934614D02*
X6666786Y-6991757D01*
X6781071Y-6934614D02*
X6781071Y-6991757D01*
X7223928Y-7348900D02*
X7209643Y-7334614D01*
X7181071Y-7291757D01*
X7166786Y-7263186D01*
X7152500Y-7220329D01*
X7138214Y-7148900D01*
X7138214Y-7091757D01*
X7152500Y-7020329D01*
X7166786Y-6977471D01*
X7181071Y-6948900D01*
X7209643Y-6906043D01*
X7223928Y-6891757D01*
X7352500Y-7234614D02*
X7409643Y-7234614D01*
X7438214Y-7220329D01*
X7452500Y-7206043D01*
X7481071Y-7163186D01*
X7495357Y-7106043D01*
X7495357Y-6991757D01*
X7481071Y-6963186D01*
X7466786Y-6948900D01*
X7438214Y-6934614D01*
X7381071Y-6934614D01*
X7352500Y-6948900D01*
X7338214Y-6963186D01*
X7323928Y-6991757D01*
X7323928Y-7063186D01*
X7338214Y-7091757D01*
X7352500Y-7106043D01*
X7381071Y-7120329D01*
X7438214Y-7120329D01*
X7466786Y-7106043D01*
X7481071Y-7091757D01*
X7495357Y-7063186D01*
X7852500Y-7234614D02*
X7852500Y-6934614D01*
X7981071Y-7234614D02*
X7981071Y-7077471D01*
X7966786Y-7048900D01*
X7938214Y-7034614D01*
X7895357Y-7034614D01*
X7866786Y-7048900D01*
X7852500Y-7063186D01*
X8166786Y-7234614D02*
X8138214Y-7220329D01*
X8123928Y-7206043D01*
X8109643Y-7177471D01*
X8109643Y-7091757D01*
X8123928Y-7063186D01*
X8138214Y-7048900D01*
X8166786Y-7034614D01*
X8209643Y-7034614D01*
X8238214Y-7048900D01*
X8252500Y-7063186D01*
X8266786Y-7091757D01*
X8266786Y-7177471D01*
X8252500Y-7206043D01*
X8238214Y-7220329D01*
X8209643Y-7234614D01*
X8166786Y-7234614D01*
X8438214Y-7234614D02*
X8409643Y-7220329D01*
X8395357Y-7191757D01*
X8395357Y-6934614D01*
X8666786Y-7220329D02*
X8638214Y-7234614D01*
X8581071Y-7234614D01*
X8552500Y-7220329D01*
X8538214Y-7191757D01*
X8538214Y-7077471D01*
X8552500Y-7048900D01*
X8581071Y-7034614D01*
X8638214Y-7034614D01*
X8666786Y-7048900D01*
X8681071Y-7077471D01*
X8681071Y-7106043D01*
X8538214Y-7134614D01*
X8795357Y-7220329D02*
X8823928Y-7234614D01*
X8881071Y-7234614D01*
X8909643Y-7220329D01*
X8923928Y-7191757D01*
X8923928Y-7177471D01*
X8909643Y-7148900D01*
X8881071Y-7134614D01*
X8838214Y-7134614D01*
X8809643Y-7120329D01*
X8795357Y-7091757D01*
X8795357Y-7077471D01*
X8809643Y-7048900D01*
X8838214Y-7034614D01*
X8881071Y-7034614D01*
X8909643Y-7048900D01*
X9023928Y-7348900D02*
X9038214Y-7334614D01*
X9066786Y-7291757D01*
X9081071Y-7263186D01*
X9095357Y-7220329D01*
X9109643Y-7148900D01*
X9109643Y-7091757D01*
X9095357Y-7020329D01*
X9081071Y-6977471D01*
X9066786Y-6948900D01*
X9038214Y-6906043D01*
X9023928Y-6891757D01*
X2497500Y-7454900D02*
X2497500Y-7534900D01*
X2457500Y-7494900D02*
X2537500Y-7494900D01*
X2881071Y-7330614D02*
X2909643Y-7330614D01*
X2938214Y-7344900D01*
X2952500Y-7359186D01*
X2966786Y-7387757D01*
X2981071Y-7444900D01*
X2981071Y-7516329D01*
X2966786Y-7573471D01*
X2952500Y-7602043D01*
X2938214Y-7616329D01*
X2909643Y-7630614D01*
X2881071Y-7630614D01*
X2852500Y-7616329D01*
X2838214Y-7602043D01*
X2823928Y-7573471D01*
X2809643Y-7516329D01*
X2809643Y-7444900D01*
X2823928Y-7387757D01*
X2838214Y-7359186D01*
X2852500Y-7344900D01*
X2881071Y-7330614D01*
X3109643Y-7602043D02*
X3123928Y-7616329D01*
X3109643Y-7630614D01*
X3095357Y-7616329D01*
X3109643Y-7602043D01*
X3109643Y-7630614D01*
X3295357Y-7459186D02*
X3266786Y-7444900D01*
X3252500Y-7430614D01*
X3238214Y-7402043D01*
X3238214Y-7387757D01*
X3252500Y-7359186D01*
X3266786Y-7344900D01*
X3295357Y-7330614D01*
X3352500Y-7330614D01*
X3381071Y-7344900D01*
X3395357Y-7359186D01*
X3409643Y-7387757D01*
X3409643Y-7402043D01*
X3395357Y-7430614D01*
X3381071Y-7444900D01*
X3352500Y-7459186D01*
X3295357Y-7459186D01*
X3266786Y-7473471D01*
X3252500Y-7487757D01*
X3238214Y-7516329D01*
X3238214Y-7573471D01*
X3252500Y-7602043D01*
X3266786Y-7616329D01*
X3295357Y-7630614D01*
X3352500Y-7630614D01*
X3381071Y-7616329D01*
X3395357Y-7602043D01*
X3409643Y-7573471D01*
X3409643Y-7516329D01*
X3395357Y-7487757D01*
X3381071Y-7473471D01*
X3352500Y-7459186D01*
X3595357Y-7330614D02*
X3623928Y-7330614D01*
X3652500Y-7344900D01*
X3666786Y-7359186D01*
X3681071Y-7387757D01*
X3695357Y-7444900D01*
X3695357Y-7516329D01*
X3681071Y-7573471D01*
X3666786Y-7602043D01*
X3652500Y-7616329D01*
X3623928Y-7630614D01*
X3595357Y-7630614D01*
X3566786Y-7616329D01*
X3552500Y-7602043D01*
X3538214Y-7573471D01*
X3523928Y-7516329D01*
X3523928Y-7444900D01*
X3538214Y-7387757D01*
X3552500Y-7359186D01*
X3566786Y-7344900D01*
X3595357Y-7330614D01*
X3823928Y-7630614D02*
X3823928Y-7430614D01*
X3823928Y-7459186D02*
X3838214Y-7444900D01*
X3866786Y-7430614D01*
X3909643Y-7430614D01*
X3938214Y-7444900D01*
X3952500Y-7473471D01*
X3952500Y-7630614D01*
X3952500Y-7473471D02*
X3966786Y-7444900D01*
X3995357Y-7430614D01*
X4038214Y-7430614D01*
X4066786Y-7444900D01*
X4081071Y-7473471D01*
X4081071Y-7630614D01*
X4223928Y-7630614D02*
X4223928Y-7430614D01*
X4223928Y-7459186D02*
X4238214Y-7444900D01*
X4266786Y-7430614D01*
X4309643Y-7430614D01*
X4338214Y-7444900D01*
X4352500Y-7473471D01*
X4352500Y-7630614D01*
X4352500Y-7473471D02*
X4366786Y-7444900D01*
X4395357Y-7430614D01*
X4438214Y-7430614D01*
X4466786Y-7444900D01*
X4481071Y-7473471D01*
X4481071Y-7630614D01*
X5066786Y-7316329D02*
X4809643Y-7702043D01*
X5452500Y-7330614D02*
X5481071Y-7330614D01*
X5509643Y-7344900D01*
X5523928Y-7359186D01*
X5538214Y-7387757D01*
X5552500Y-7444900D01*
X5552500Y-7516329D01*
X5538214Y-7573471D01*
X5523928Y-7602043D01*
X5509643Y-7616329D01*
X5481071Y-7630614D01*
X5452500Y-7630614D01*
X5423928Y-7616329D01*
X5409643Y-7602043D01*
X5395357Y-7573471D01*
X5381071Y-7516329D01*
X5381071Y-7444900D01*
X5395357Y-7387757D01*
X5409643Y-7359186D01*
X5423928Y-7344900D01*
X5452500Y-7330614D01*
X5681071Y-7602043D02*
X5695357Y-7616329D01*
X5681071Y-7630614D01*
X5666786Y-7616329D01*
X5681071Y-7602043D01*
X5681071Y-7630614D01*
X5881071Y-7330614D02*
X5909643Y-7330614D01*
X5938214Y-7344900D01*
X5952500Y-7359186D01*
X5966786Y-7387757D01*
X5981071Y-7444900D01*
X5981071Y-7516329D01*
X5966786Y-7573471D01*
X5952500Y-7602043D01*
X5938214Y-7616329D01*
X5909643Y-7630614D01*
X5881071Y-7630614D01*
X5852500Y-7616329D01*
X5838214Y-7602043D01*
X5823928Y-7573471D01*
X5809643Y-7516329D01*
X5809643Y-7444900D01*
X5823928Y-7387757D01*
X5838214Y-7359186D01*
X5852500Y-7344900D01*
X5881071Y-7330614D01*
X6081071Y-7330614D02*
X6266786Y-7330614D01*
X6166786Y-7444900D01*
X6209643Y-7444900D01*
X6238214Y-7459186D01*
X6252500Y-7473471D01*
X6266786Y-7502043D01*
X6266786Y-7573471D01*
X6252500Y-7602043D01*
X6238214Y-7616329D01*
X6209643Y-7630614D01*
X6123928Y-7630614D01*
X6095357Y-7616329D01*
X6081071Y-7602043D01*
X6552500Y-7630614D02*
X6381071Y-7630614D01*
X6466786Y-7630614D02*
X6466786Y-7330614D01*
X6438214Y-7373471D01*
X6409643Y-7402043D01*
X6381071Y-7416329D01*
X6666786Y-7330614D02*
X6666786Y-7387757D01*
X6781071Y-7330614D02*
X6781071Y-7387757D01*
X7223928Y-7744900D02*
X7209643Y-7730614D01*
X7181071Y-7687757D01*
X7166786Y-7659186D01*
X7152500Y-7616329D01*
X7138214Y-7544900D01*
X7138214Y-7487757D01*
X7152500Y-7416329D01*
X7166786Y-7373471D01*
X7181071Y-7344900D01*
X7209643Y-7302043D01*
X7223928Y-7287757D01*
X7309643Y-7330614D02*
X7495357Y-7330614D01*
X7395357Y-7444900D01*
X7438214Y-7444900D01*
X7466786Y-7459186D01*
X7481071Y-7473471D01*
X7495357Y-7502043D01*
X7495357Y-7573471D01*
X7481071Y-7602043D01*
X7466786Y-7616329D01*
X7438214Y-7630614D01*
X7352500Y-7630614D01*
X7323928Y-7616329D01*
X7309643Y-7602043D01*
X7752500Y-7330614D02*
X7695357Y-7330614D01*
X7666786Y-7344900D01*
X7652500Y-7359186D01*
X7623928Y-7402043D01*
X7609643Y-7459186D01*
X7609643Y-7573471D01*
X7623928Y-7602043D01*
X7638214Y-7616329D01*
X7666786Y-7630614D01*
X7723928Y-7630614D01*
X7752500Y-7616329D01*
X7766786Y-7602043D01*
X7781071Y-7573471D01*
X7781071Y-7502043D01*
X7766786Y-7473471D01*
X7752500Y-7459186D01*
X7723928Y-7444900D01*
X7666786Y-7444900D01*
X7638214Y-7459186D01*
X7623928Y-7473471D01*
X7609643Y-7502043D01*
X8138214Y-7630614D02*
X8138214Y-7330614D01*
X8266786Y-7630614D02*
X8266786Y-7473471D01*
X8252500Y-7444900D01*
X8223928Y-7430614D01*
X8181071Y-7430614D01*
X8152500Y-7444900D01*
X8138214Y-7459186D01*
X8452500Y-7630614D02*
X8423928Y-7616329D01*
X8409643Y-7602043D01*
X8395357Y-7573471D01*
X8395357Y-7487757D01*
X8409643Y-7459186D01*
X8423928Y-7444900D01*
X8452500Y-7430614D01*
X8495357Y-7430614D01*
X8523928Y-7444900D01*
X8538214Y-7459186D01*
X8552500Y-7487757D01*
X8552500Y-7573471D01*
X8538214Y-7602043D01*
X8523928Y-7616329D01*
X8495357Y-7630614D01*
X8452500Y-7630614D01*
X8723928Y-7630614D02*
X8695357Y-7616329D01*
X8681071Y-7587757D01*
X8681071Y-7330614D01*
X8952500Y-7616329D02*
X8923928Y-7630614D01*
X8866786Y-7630614D01*
X8838214Y-7616329D01*
X8823928Y-7587757D01*
X8823928Y-7473471D01*
X8838214Y-7444900D01*
X8866786Y-7430614D01*
X8923928Y-7430614D01*
X8952500Y-7444900D01*
X8966786Y-7473471D01*
X8966786Y-7502043D01*
X8823928Y-7530614D01*
X9081071Y-7616329D02*
X9109643Y-7630614D01*
X9166786Y-7630614D01*
X9195357Y-7616329D01*
X9209643Y-7587757D01*
X9209643Y-7573471D01*
X9195357Y-7544900D01*
X9166786Y-7530614D01*
X9123928Y-7530614D01*
X9095357Y-7516329D01*
X9081071Y-7487757D01*
X9081071Y-7473471D01*
X9095357Y-7444900D01*
X9123928Y-7430614D01*
X9166786Y-7430614D01*
X9195357Y-7444900D01*
X9309643Y-7744900D02*
X9323928Y-7730614D01*
X9352500Y-7687757D01*
X9366786Y-7659186D01*
X9381071Y-7616329D01*
X9395357Y-7544900D01*
X9395357Y-7487757D01*
X9381071Y-7416329D01*
X9366786Y-7373471D01*
X9352500Y-7344900D01*
X9323928Y-7302043D01*
X9309643Y-7287757D01*
X2523588Y-7924488D02*
X2523588Y-7857312D01*
X2456412Y-7857312D01*
X2456412Y-7924488D01*
X2523588Y-7924488D01*
X2881071Y-7726614D02*
X2909643Y-7726614D01*
X2938214Y-7740900D01*
X2952500Y-7755186D01*
X2966786Y-7783757D01*
X2981071Y-7840900D01*
X2981071Y-7912329D01*
X2966786Y-7969471D01*
X2952500Y-7998043D01*
X2938214Y-8012329D01*
X2909643Y-8026614D01*
X2881071Y-8026614D01*
X2852500Y-8012329D01*
X2838214Y-7998043D01*
X2823928Y-7969471D01*
X2809643Y-7912329D01*
X2809643Y-7840900D01*
X2823928Y-7783757D01*
X2838214Y-7755186D01*
X2852500Y-7740900D01*
X2881071Y-7726614D01*
X3109643Y-7998043D02*
X3123928Y-8012329D01*
X3109643Y-8026614D01*
X3095357Y-8012329D01*
X3109643Y-7998043D01*
X3109643Y-8026614D01*
X3266786Y-8026614D02*
X3323928Y-8026614D01*
X3352500Y-8012329D01*
X3366786Y-7998043D01*
X3395357Y-7955186D01*
X3409643Y-7898043D01*
X3409643Y-7783757D01*
X3395357Y-7755186D01*
X3381071Y-7740900D01*
X3352500Y-7726614D01*
X3295357Y-7726614D01*
X3266786Y-7740900D01*
X3252500Y-7755186D01*
X3238214Y-7783757D01*
X3238214Y-7855186D01*
X3252500Y-7883757D01*
X3266786Y-7898043D01*
X3295357Y-7912329D01*
X3352500Y-7912329D01*
X3381071Y-7898043D01*
X3395357Y-7883757D01*
X3409643Y-7855186D01*
X3681071Y-7726614D02*
X3538214Y-7726614D01*
X3523928Y-7869471D01*
X3538214Y-7855186D01*
X3566786Y-7840900D01*
X3638214Y-7840900D01*
X3666786Y-7855186D01*
X3681071Y-7869471D01*
X3695357Y-7898043D01*
X3695357Y-7969471D01*
X3681071Y-7998043D01*
X3666786Y-8012329D01*
X3638214Y-8026614D01*
X3566786Y-8026614D01*
X3538214Y-8012329D01*
X3523928Y-7998043D01*
X3823928Y-8026614D02*
X3823928Y-7826614D01*
X3823928Y-7855186D02*
X3838214Y-7840900D01*
X3866786Y-7826614D01*
X3909643Y-7826614D01*
X3938214Y-7840900D01*
X3952500Y-7869471D01*
X3952500Y-8026614D01*
X3952500Y-7869471D02*
X3966786Y-7840900D01*
X3995357Y-7826614D01*
X4038214Y-7826614D01*
X4066786Y-7840900D01*
X4081071Y-7869471D01*
X4081071Y-8026614D01*
X4223928Y-8026614D02*
X4223928Y-7826614D01*
X4223928Y-7855186D02*
X4238214Y-7840900D01*
X4266786Y-7826614D01*
X4309643Y-7826614D01*
X4338214Y-7840900D01*
X4352500Y-7869471D01*
X4352500Y-8026614D01*
X4352500Y-7869471D02*
X4366786Y-7840900D01*
X4395357Y-7826614D01*
X4438214Y-7826614D01*
X4466786Y-7840900D01*
X4481071Y-7869471D01*
X4481071Y-8026614D01*
X5066786Y-7712329D02*
X4809643Y-8098043D01*
X5452500Y-7726614D02*
X5481071Y-7726614D01*
X5509643Y-7740900D01*
X5523928Y-7755186D01*
X5538214Y-7783757D01*
X5552500Y-7840900D01*
X5552500Y-7912329D01*
X5538214Y-7969471D01*
X5523928Y-7998043D01*
X5509643Y-8012329D01*
X5481071Y-8026614D01*
X5452500Y-8026614D01*
X5423928Y-8012329D01*
X5409643Y-7998043D01*
X5395357Y-7969471D01*
X5381071Y-7912329D01*
X5381071Y-7840900D01*
X5395357Y-7783757D01*
X5409643Y-7755186D01*
X5423928Y-7740900D01*
X5452500Y-7726614D01*
X5681071Y-7998043D02*
X5695357Y-8012329D01*
X5681071Y-8026614D01*
X5666786Y-8012329D01*
X5681071Y-7998043D01*
X5681071Y-8026614D01*
X5881071Y-7726614D02*
X5909643Y-7726614D01*
X5938214Y-7740900D01*
X5952500Y-7755186D01*
X5966786Y-7783757D01*
X5981071Y-7840900D01*
X5981071Y-7912329D01*
X5966786Y-7969471D01*
X5952500Y-7998043D01*
X5938214Y-8012329D01*
X5909643Y-8026614D01*
X5881071Y-8026614D01*
X5852500Y-8012329D01*
X5838214Y-7998043D01*
X5823928Y-7969471D01*
X5809643Y-7912329D01*
X5809643Y-7840900D01*
X5823928Y-7783757D01*
X5838214Y-7755186D01*
X5852500Y-7740900D01*
X5881071Y-7726614D01*
X6081071Y-7726614D02*
X6266786Y-7726614D01*
X6166786Y-7840900D01*
X6209643Y-7840900D01*
X6238214Y-7855186D01*
X6252500Y-7869471D01*
X6266786Y-7898043D01*
X6266786Y-7969471D01*
X6252500Y-7998043D01*
X6238214Y-8012329D01*
X6209643Y-8026614D01*
X6123928Y-8026614D01*
X6095357Y-8012329D01*
X6081071Y-7998043D01*
X6366786Y-7726614D02*
X6566786Y-7726614D01*
X6438214Y-8026614D01*
X6666786Y-7726614D02*
X6666786Y-7783757D01*
X6781071Y-7726614D02*
X6781071Y-7783757D01*
X7223928Y-8140900D02*
X7209643Y-8126614D01*
X7181071Y-8083757D01*
X7166786Y-8055186D01*
X7152500Y-8012329D01*
X7138214Y-7940900D01*
X7138214Y-7883757D01*
X7152500Y-7812329D01*
X7166786Y-7769471D01*
X7181071Y-7740900D01*
X7209643Y-7698043D01*
X7223928Y-7683757D01*
X7481071Y-7726614D02*
X7338214Y-7726614D01*
X7323928Y-7869471D01*
X7338214Y-7855186D01*
X7366786Y-7840900D01*
X7438214Y-7840900D01*
X7466786Y-7855186D01*
X7481071Y-7869471D01*
X7495357Y-7898043D01*
X7495357Y-7969471D01*
X7481071Y-7998043D01*
X7466786Y-8012329D01*
X7438214Y-8026614D01*
X7366786Y-8026614D01*
X7338214Y-8012329D01*
X7323928Y-7998043D01*
X7852500Y-8026614D02*
X7852500Y-7726614D01*
X7981071Y-8026614D02*
X7981071Y-7869471D01*
X7966786Y-7840900D01*
X7938214Y-7826614D01*
X7895357Y-7826614D01*
X7866786Y-7840900D01*
X7852500Y-7855186D01*
X8166786Y-8026614D02*
X8138214Y-8012329D01*
X8123928Y-7998043D01*
X8109643Y-7969471D01*
X8109643Y-7883757D01*
X8123928Y-7855186D01*
X8138214Y-7840900D01*
X8166786Y-7826614D01*
X8209643Y-7826614D01*
X8238214Y-7840900D01*
X8252500Y-7855186D01*
X8266786Y-7883757D01*
X8266786Y-7969471D01*
X8252500Y-7998043D01*
X8238214Y-8012329D01*
X8209643Y-8026614D01*
X8166786Y-8026614D01*
X8438214Y-8026614D02*
X8409643Y-8012329D01*
X8395357Y-7983757D01*
X8395357Y-7726614D01*
X8666786Y-8012329D02*
X8638214Y-8026614D01*
X8581071Y-8026614D01*
X8552500Y-8012329D01*
X8538214Y-7983757D01*
X8538214Y-7869471D01*
X8552500Y-7840900D01*
X8581071Y-7826614D01*
X8638214Y-7826614D01*
X8666786Y-7840900D01*
X8681071Y-7869471D01*
X8681071Y-7898043D01*
X8538214Y-7926614D01*
X8795357Y-8012329D02*
X8823928Y-8026614D01*
X8881071Y-8026614D01*
X8909643Y-8012329D01*
X8923928Y-7983757D01*
X8923928Y-7969471D01*
X8909643Y-7940900D01*
X8881071Y-7926614D01*
X8838214Y-7926614D01*
X8809643Y-7912329D01*
X8795357Y-7883757D01*
X8795357Y-7869471D01*
X8809643Y-7840900D01*
X8838214Y-7826614D01*
X8881071Y-7826614D01*
X8909643Y-7840900D01*
X9023928Y-8140900D02*
X9038214Y-8126614D01*
X9066786Y-8083757D01*
X9081071Y-8055186D01*
X9095357Y-8012329D01*
X9109643Y-7940900D01*
X9109643Y-7883757D01*
X9095357Y-7812329D01*
X9081071Y-7769471D01*
X9066786Y-7740900D01*
X9038214Y-7698043D01*
X9023928Y-7683757D01*
X2487500Y-8336900D02*
X2537500Y-8286900D01*
X2487500Y-8236900D01*
X2437500Y-8286900D01*
X2487500Y-8336900D01*
X2981071Y-8422614D02*
X2809643Y-8422614D01*
X2895357Y-8422614D02*
X2895357Y-8122614D01*
X2866786Y-8165471D01*
X2838214Y-8194043D01*
X2809643Y-8208329D01*
X3109643Y-8394043D02*
X3123928Y-8408329D01*
X3109643Y-8422614D01*
X3095357Y-8408329D01*
X3109643Y-8394043D01*
X3109643Y-8422614D01*
X3309643Y-8122614D02*
X3338214Y-8122614D01*
X3366786Y-8136900D01*
X3381071Y-8151186D01*
X3395357Y-8179757D01*
X3409643Y-8236900D01*
X3409643Y-8308329D01*
X3395357Y-8365471D01*
X3381071Y-8394043D01*
X3366786Y-8408329D01*
X3338214Y-8422614D01*
X3309643Y-8422614D01*
X3281071Y-8408329D01*
X3266786Y-8394043D01*
X3252500Y-8365471D01*
X3238214Y-8308329D01*
X3238214Y-8236900D01*
X3252500Y-8179757D01*
X3266786Y-8151186D01*
X3281071Y-8136900D01*
X3309643Y-8122614D01*
X3595357Y-8122614D02*
X3623928Y-8122614D01*
X3652500Y-8136900D01*
X3666786Y-8151186D01*
X3681071Y-8179757D01*
X3695357Y-8236900D01*
X3695357Y-8308329D01*
X3681071Y-8365471D01*
X3666786Y-8394043D01*
X3652500Y-8408329D01*
X3623928Y-8422614D01*
X3595357Y-8422614D01*
X3566786Y-8408329D01*
X3552500Y-8394043D01*
X3538214Y-8365471D01*
X3523928Y-8308329D01*
X3523928Y-8236900D01*
X3538214Y-8179757D01*
X3552500Y-8151186D01*
X3566786Y-8136900D01*
X3595357Y-8122614D01*
X3823928Y-8422614D02*
X3823928Y-8222614D01*
X3823928Y-8251186D02*
X3838214Y-8236900D01*
X3866786Y-8222614D01*
X3909643Y-8222614D01*
X3938214Y-8236900D01*
X3952500Y-8265471D01*
X3952500Y-8422614D01*
X3952500Y-8265471D02*
X3966786Y-8236900D01*
X3995357Y-8222614D01*
X4038214Y-8222614D01*
X4066786Y-8236900D01*
X4081071Y-8265471D01*
X4081071Y-8422614D01*
X4223928Y-8422614D02*
X4223928Y-8222614D01*
X4223928Y-8251186D02*
X4238214Y-8236900D01*
X4266786Y-8222614D01*
X4309643Y-8222614D01*
X4338214Y-8236900D01*
X4352500Y-8265471D01*
X4352500Y-8422614D01*
X4352500Y-8265471D02*
X4366786Y-8236900D01*
X4395357Y-8222614D01*
X4438214Y-8222614D01*
X4466786Y-8236900D01*
X4481071Y-8265471D01*
X4481071Y-8422614D01*
X5066786Y-8108329D02*
X4809643Y-8494043D01*
X5452500Y-8122614D02*
X5481071Y-8122614D01*
X5509643Y-8136900D01*
X5523928Y-8151186D01*
X5538214Y-8179757D01*
X5552500Y-8236900D01*
X5552500Y-8308329D01*
X5538214Y-8365471D01*
X5523928Y-8394043D01*
X5509643Y-8408329D01*
X5481071Y-8422614D01*
X5452500Y-8422614D01*
X5423928Y-8408329D01*
X5409643Y-8394043D01*
X5395357Y-8365471D01*
X5381071Y-8308329D01*
X5381071Y-8236900D01*
X5395357Y-8179757D01*
X5409643Y-8151186D01*
X5423928Y-8136900D01*
X5452500Y-8122614D01*
X5681071Y-8394043D02*
X5695357Y-8408329D01*
X5681071Y-8422614D01*
X5666786Y-8408329D01*
X5681071Y-8394043D01*
X5681071Y-8422614D01*
X5881071Y-8122614D02*
X5909643Y-8122614D01*
X5938214Y-8136900D01*
X5952500Y-8151186D01*
X5966786Y-8179757D01*
X5981071Y-8236900D01*
X5981071Y-8308329D01*
X5966786Y-8365471D01*
X5952500Y-8394043D01*
X5938214Y-8408329D01*
X5909643Y-8422614D01*
X5881071Y-8422614D01*
X5852500Y-8408329D01*
X5838214Y-8394043D01*
X5823928Y-8365471D01*
X5809643Y-8308329D01*
X5809643Y-8236900D01*
X5823928Y-8179757D01*
X5838214Y-8151186D01*
X5852500Y-8136900D01*
X5881071Y-8122614D01*
X6081071Y-8122614D02*
X6266786Y-8122614D01*
X6166786Y-8236900D01*
X6209643Y-8236900D01*
X6238214Y-8251186D01*
X6252500Y-8265471D01*
X6266786Y-8294043D01*
X6266786Y-8365471D01*
X6252500Y-8394043D01*
X6238214Y-8408329D01*
X6209643Y-8422614D01*
X6123928Y-8422614D01*
X6095357Y-8408329D01*
X6081071Y-8394043D01*
X6409643Y-8422614D02*
X6466786Y-8422614D01*
X6495357Y-8408329D01*
X6509643Y-8394043D01*
X6538214Y-8351186D01*
X6552500Y-8294043D01*
X6552500Y-8179757D01*
X6538214Y-8151186D01*
X6523928Y-8136900D01*
X6495357Y-8122614D01*
X6438214Y-8122614D01*
X6409643Y-8136900D01*
X6395357Y-8151186D01*
X6381071Y-8179757D01*
X6381071Y-8251186D01*
X6395357Y-8279757D01*
X6409643Y-8294043D01*
X6438214Y-8308329D01*
X6495357Y-8308329D01*
X6523928Y-8294043D01*
X6538214Y-8279757D01*
X6552500Y-8251186D01*
X6666786Y-8122614D02*
X6666786Y-8179757D01*
X6781071Y-8122614D02*
X6781071Y-8179757D01*
X7223928Y-8536900D02*
X7209643Y-8522614D01*
X7181071Y-8479757D01*
X7166786Y-8451186D01*
X7152500Y-8408329D01*
X7138214Y-8336900D01*
X7138214Y-8279757D01*
X7152500Y-8208329D01*
X7166786Y-8165471D01*
X7181071Y-8136900D01*
X7209643Y-8094043D01*
X7223928Y-8079757D01*
X7495357Y-8422614D02*
X7323928Y-8422614D01*
X7409643Y-8422614D02*
X7409643Y-8122614D01*
X7381071Y-8165471D01*
X7352500Y-8194043D01*
X7323928Y-8208329D01*
X7609643Y-8151186D02*
X7623928Y-8136900D01*
X7652500Y-8122614D01*
X7723928Y-8122614D01*
X7752500Y-8136900D01*
X7766786Y-8151186D01*
X7781071Y-8179757D01*
X7781071Y-8208329D01*
X7766786Y-8251186D01*
X7595357Y-8422614D01*
X7781071Y-8422614D01*
X8138214Y-8422614D02*
X8138214Y-8122614D01*
X8266786Y-8422614D02*
X8266786Y-8265471D01*
X8252500Y-8236900D01*
X8223928Y-8222614D01*
X8181071Y-8222614D01*
X8152500Y-8236900D01*
X8138214Y-8251186D01*
X8452500Y-8422614D02*
X8423928Y-8408329D01*
X8409643Y-8394043D01*
X8395357Y-8365471D01*
X8395357Y-8279757D01*
X8409643Y-8251186D01*
X8423928Y-8236900D01*
X8452500Y-8222614D01*
X8495357Y-8222614D01*
X8523928Y-8236900D01*
X8538214Y-8251186D01*
X8552500Y-8279757D01*
X8552500Y-8365471D01*
X8538214Y-8394043D01*
X8523928Y-8408329D01*
X8495357Y-8422614D01*
X8452500Y-8422614D01*
X8723928Y-8422614D02*
X8695357Y-8408329D01*
X8681071Y-8379757D01*
X8681071Y-8122614D01*
X8952500Y-8408329D02*
X8923928Y-8422614D01*
X8866786Y-8422614D01*
X8838214Y-8408329D01*
X8823928Y-8379757D01*
X8823928Y-8265471D01*
X8838214Y-8236900D01*
X8866786Y-8222614D01*
X8923928Y-8222614D01*
X8952500Y-8236900D01*
X8966786Y-8265471D01*
X8966786Y-8294043D01*
X8823928Y-8322614D01*
X9081071Y-8408329D02*
X9109643Y-8422614D01*
X9166786Y-8422614D01*
X9195357Y-8408329D01*
X9209643Y-8379757D01*
X9209643Y-8365471D01*
X9195357Y-8336900D01*
X9166786Y-8322614D01*
X9123928Y-8322614D01*
X9095357Y-8308329D01*
X9081071Y-8279757D01*
X9081071Y-8265471D01*
X9095357Y-8236900D01*
X9123928Y-8222614D01*
X9166786Y-8222614D01*
X9195357Y-8236900D01*
X9309643Y-8536900D02*
X9323928Y-8522614D01*
X9352500Y-8479757D01*
X9366786Y-8451186D01*
X9381071Y-8408329D01*
X9395357Y-8336900D01*
X9395357Y-8279757D01*
X9381071Y-8208329D01*
X9366786Y-8165471D01*
X9352500Y-8136900D01*
X9323928Y-8094043D01*
X9309643Y-8079757D01*
X2427500Y-8627900D02*
X2537500Y-8737900D01*
X2537500Y-8627900D02*
X2427500Y-8737900D01*
X2537500Y-8682900D02*
G75*
G03X2537500Y-8682900I-55000J0D01*
G01*
X2981071Y-8818614D02*
X2809643Y-8818614D01*
X2895357Y-8818614D02*
X2895357Y-8518614D01*
X2866786Y-8561472D01*
X2838214Y-8590043D01*
X2809643Y-8604329D01*
X3109643Y-8790043D02*
X3123928Y-8804329D01*
X3109643Y-8818614D01*
X3095357Y-8804329D01*
X3109643Y-8790043D01*
X3109643Y-8818614D01*
X3409643Y-8818614D02*
X3238214Y-8818614D01*
X3323928Y-8818614D02*
X3323928Y-8518614D01*
X3295357Y-8561472D01*
X3266786Y-8590043D01*
X3238214Y-8604329D01*
X3595357Y-8518614D02*
X3623928Y-8518614D01*
X3652500Y-8532900D01*
X3666786Y-8547186D01*
X3681071Y-8575757D01*
X3695357Y-8632900D01*
X3695357Y-8704329D01*
X3681071Y-8761472D01*
X3666786Y-8790043D01*
X3652500Y-8804329D01*
X3623928Y-8818614D01*
X3595357Y-8818614D01*
X3566786Y-8804329D01*
X3552500Y-8790043D01*
X3538214Y-8761472D01*
X3523928Y-8704329D01*
X3523928Y-8632900D01*
X3538214Y-8575757D01*
X3552500Y-8547186D01*
X3566786Y-8532900D01*
X3595357Y-8518614D01*
X3823928Y-8818614D02*
X3823928Y-8618614D01*
X3823928Y-8647186D02*
X3838214Y-8632900D01*
X3866786Y-8618614D01*
X3909643Y-8618614D01*
X3938214Y-8632900D01*
X3952500Y-8661472D01*
X3952500Y-8818614D01*
X3952500Y-8661472D02*
X3966786Y-8632900D01*
X3995357Y-8618614D01*
X4038214Y-8618614D01*
X4066786Y-8632900D01*
X4081071Y-8661472D01*
X4081071Y-8818614D01*
X4223928Y-8818614D02*
X4223928Y-8618614D01*
X4223928Y-8647186D02*
X4238214Y-8632900D01*
X4266786Y-8618614D01*
X4309643Y-8618614D01*
X4338214Y-8632900D01*
X4352500Y-8661472D01*
X4352500Y-8818614D01*
X4352500Y-8661472D02*
X4366786Y-8632900D01*
X4395357Y-8618614D01*
X4438214Y-8618614D01*
X4466786Y-8632900D01*
X4481071Y-8661472D01*
X4481071Y-8818614D01*
X5066786Y-8504329D02*
X4809643Y-8890043D01*
X5452500Y-8518614D02*
X5481071Y-8518614D01*
X5509643Y-8532900D01*
X5523928Y-8547186D01*
X5538214Y-8575757D01*
X5552500Y-8632900D01*
X5552500Y-8704329D01*
X5538214Y-8761472D01*
X5523928Y-8790043D01*
X5509643Y-8804329D01*
X5481071Y-8818614D01*
X5452500Y-8818614D01*
X5423928Y-8804329D01*
X5409643Y-8790043D01*
X5395357Y-8761472D01*
X5381071Y-8704329D01*
X5381071Y-8632900D01*
X5395357Y-8575757D01*
X5409643Y-8547186D01*
X5423928Y-8532900D01*
X5452500Y-8518614D01*
X5681071Y-8790043D02*
X5695357Y-8804329D01*
X5681071Y-8818614D01*
X5666786Y-8804329D01*
X5681071Y-8790043D01*
X5681071Y-8818614D01*
X5881071Y-8518614D02*
X5909643Y-8518614D01*
X5938214Y-8532900D01*
X5952500Y-8547186D01*
X5966786Y-8575757D01*
X5981071Y-8632900D01*
X5981071Y-8704329D01*
X5966786Y-8761472D01*
X5952500Y-8790043D01*
X5938214Y-8804329D01*
X5909643Y-8818614D01*
X5881071Y-8818614D01*
X5852500Y-8804329D01*
X5838214Y-8790043D01*
X5823928Y-8761472D01*
X5809643Y-8704329D01*
X5809643Y-8632900D01*
X5823928Y-8575757D01*
X5838214Y-8547186D01*
X5852500Y-8532900D01*
X5881071Y-8518614D01*
X6238214Y-8618614D02*
X6238214Y-8818614D01*
X6166786Y-8504329D02*
X6095357Y-8718614D01*
X6281071Y-8718614D01*
X6366786Y-8518614D02*
X6552500Y-8518614D01*
X6452500Y-8632900D01*
X6495357Y-8632900D01*
X6523928Y-8647186D01*
X6538214Y-8661472D01*
X6552500Y-8690043D01*
X6552500Y-8761472D01*
X6538214Y-8790043D01*
X6523928Y-8804329D01*
X6495357Y-8818614D01*
X6409643Y-8818614D01*
X6381071Y-8804329D01*
X6366786Y-8790043D01*
X6666786Y-8518614D02*
X6666786Y-8575757D01*
X6781071Y-8518614D02*
X6781071Y-8575757D01*
X7223928Y-8932900D02*
X7209643Y-8918614D01*
X7181071Y-8875757D01*
X7166786Y-8847186D01*
X7152500Y-8804329D01*
X7138214Y-8732900D01*
X7138214Y-8675757D01*
X7152500Y-8604329D01*
X7166786Y-8561472D01*
X7181071Y-8532900D01*
X7209643Y-8490043D01*
X7223928Y-8475757D01*
X7466786Y-8518614D02*
X7409643Y-8518614D01*
X7381071Y-8532900D01*
X7366786Y-8547186D01*
X7338214Y-8590043D01*
X7323928Y-8647186D01*
X7323928Y-8761472D01*
X7338214Y-8790043D01*
X7352500Y-8804329D01*
X7381071Y-8818614D01*
X7438214Y-8818614D01*
X7466786Y-8804329D01*
X7481071Y-8790043D01*
X7495357Y-8761472D01*
X7495357Y-8690043D01*
X7481071Y-8661472D01*
X7466786Y-8647186D01*
X7438214Y-8632900D01*
X7381071Y-8632900D01*
X7352500Y-8647186D01*
X7338214Y-8661472D01*
X7323928Y-8690043D01*
X7852500Y-8818614D02*
X7852500Y-8518614D01*
X7981071Y-8818614D02*
X7981071Y-8661472D01*
X7966786Y-8632900D01*
X7938214Y-8618614D01*
X7895357Y-8618614D01*
X7866786Y-8632900D01*
X7852500Y-8647186D01*
X8166786Y-8818614D02*
X8138214Y-8804329D01*
X8123928Y-8790043D01*
X8109643Y-8761472D01*
X8109643Y-8675757D01*
X8123928Y-8647186D01*
X8138214Y-8632900D01*
X8166786Y-8618614D01*
X8209643Y-8618614D01*
X8238214Y-8632900D01*
X8252500Y-8647186D01*
X8266786Y-8675757D01*
X8266786Y-8761472D01*
X8252500Y-8790043D01*
X8238214Y-8804329D01*
X8209643Y-8818614D01*
X8166786Y-8818614D01*
X8438214Y-8818614D02*
X8409643Y-8804329D01*
X8395357Y-8775757D01*
X8395357Y-8518614D01*
X8666786Y-8804329D02*
X8638214Y-8818614D01*
X8581071Y-8818614D01*
X8552500Y-8804329D01*
X8538214Y-8775757D01*
X8538214Y-8661472D01*
X8552500Y-8632900D01*
X8581071Y-8618614D01*
X8638214Y-8618614D01*
X8666786Y-8632900D01*
X8681071Y-8661472D01*
X8681071Y-8690043D01*
X8538214Y-8718614D01*
X8795357Y-8804329D02*
X8823928Y-8818614D01*
X8881071Y-8818614D01*
X8909643Y-8804329D01*
X8923928Y-8775757D01*
X8923928Y-8761472D01*
X8909643Y-8732900D01*
X8881071Y-8718614D01*
X8838214Y-8718614D01*
X8809643Y-8704329D01*
X8795357Y-8675757D01*
X8795357Y-8661472D01*
X8809643Y-8632900D01*
X8838214Y-8618614D01*
X8881071Y-8618614D01*
X8909643Y-8632900D01*
X9023928Y-8932900D02*
X9038214Y-8918614D01*
X9066786Y-8875757D01*
X9081071Y-8847186D01*
X9095357Y-8804329D01*
X9109643Y-8732900D01*
X9109643Y-8675757D01*
X9095357Y-8604329D01*
X9081071Y-8561472D01*
X9066786Y-8532900D01*
X9038214Y-8490043D01*
X9023928Y-8475757D01*
X2417500Y-9018900D02*
X2537500Y-9138900D01*
X2537500Y-9018900D02*
X2417500Y-9138900D01*
X2477500Y-9018900D02*
X2477500Y-9138900D01*
X2417500Y-9078900D02*
X2537500Y-9078900D01*
X2981071Y-9214614D02*
X2809643Y-9214614D01*
X2895357Y-9214614D02*
X2895357Y-8914614D01*
X2866786Y-8957472D01*
X2838214Y-8986043D01*
X2809643Y-9000329D01*
X3109643Y-9186043D02*
X3123928Y-9200329D01*
X3109643Y-9214614D01*
X3095357Y-9200329D01*
X3109643Y-9186043D01*
X3109643Y-9214614D01*
X3238214Y-8943186D02*
X3252500Y-8928900D01*
X3281071Y-8914614D01*
X3352500Y-8914614D01*
X3381071Y-8928900D01*
X3395357Y-8943186D01*
X3409643Y-8971757D01*
X3409643Y-9000329D01*
X3395357Y-9043186D01*
X3223928Y-9214614D01*
X3409643Y-9214614D01*
X3595357Y-8914614D02*
X3623928Y-8914614D01*
X3652500Y-8928900D01*
X3666786Y-8943186D01*
X3681071Y-8971757D01*
X3695357Y-9028900D01*
X3695357Y-9100329D01*
X3681071Y-9157472D01*
X3666786Y-9186043D01*
X3652500Y-9200329D01*
X3623928Y-9214614D01*
X3595357Y-9214614D01*
X3566786Y-9200329D01*
X3552500Y-9186043D01*
X3538214Y-9157472D01*
X3523928Y-9100329D01*
X3523928Y-9028900D01*
X3538214Y-8971757D01*
X3552500Y-8943186D01*
X3566786Y-8928900D01*
X3595357Y-8914614D01*
X3823928Y-9214614D02*
X3823928Y-9014614D01*
X3823928Y-9043186D02*
X3838214Y-9028900D01*
X3866786Y-9014614D01*
X3909643Y-9014614D01*
X3938214Y-9028900D01*
X3952500Y-9057472D01*
X3952500Y-9214614D01*
X3952500Y-9057472D02*
X3966786Y-9028900D01*
X3995357Y-9014614D01*
X4038214Y-9014614D01*
X4066786Y-9028900D01*
X4081071Y-9057472D01*
X4081071Y-9214614D01*
X4223928Y-9214614D02*
X4223928Y-9014614D01*
X4223928Y-9043186D02*
X4238214Y-9028900D01*
X4266786Y-9014614D01*
X4309643Y-9014614D01*
X4338214Y-9028900D01*
X4352500Y-9057472D01*
X4352500Y-9214614D01*
X4352500Y-9057472D02*
X4366786Y-9028900D01*
X4395357Y-9014614D01*
X4438214Y-9014614D01*
X4466786Y-9028900D01*
X4481071Y-9057472D01*
X4481071Y-9214614D01*
X5066786Y-8900329D02*
X4809643Y-9286043D01*
X5452500Y-8914614D02*
X5481071Y-8914614D01*
X5509643Y-8928900D01*
X5523928Y-8943186D01*
X5538214Y-8971757D01*
X5552500Y-9028900D01*
X5552500Y-9100329D01*
X5538214Y-9157472D01*
X5523928Y-9186043D01*
X5509643Y-9200329D01*
X5481071Y-9214614D01*
X5452500Y-9214614D01*
X5423928Y-9200329D01*
X5409643Y-9186043D01*
X5395357Y-9157472D01*
X5381071Y-9100329D01*
X5381071Y-9028900D01*
X5395357Y-8971757D01*
X5409643Y-8943186D01*
X5423928Y-8928900D01*
X5452500Y-8914614D01*
X5681071Y-9186043D02*
X5695357Y-9200329D01*
X5681071Y-9214614D01*
X5666786Y-9200329D01*
X5681071Y-9186043D01*
X5681071Y-9214614D01*
X5881071Y-8914614D02*
X5909643Y-8914614D01*
X5938214Y-8928900D01*
X5952500Y-8943186D01*
X5966786Y-8971757D01*
X5981071Y-9028900D01*
X5981071Y-9100329D01*
X5966786Y-9157472D01*
X5952500Y-9186043D01*
X5938214Y-9200329D01*
X5909643Y-9214614D01*
X5881071Y-9214614D01*
X5852500Y-9200329D01*
X5838214Y-9186043D01*
X5823928Y-9157472D01*
X5809643Y-9100329D01*
X5809643Y-9028900D01*
X5823928Y-8971757D01*
X5838214Y-8943186D01*
X5852500Y-8928900D01*
X5881071Y-8914614D01*
X6238214Y-9014614D02*
X6238214Y-9214614D01*
X6166786Y-8900329D02*
X6095357Y-9114614D01*
X6281071Y-9114614D01*
X6366786Y-8914614D02*
X6566786Y-8914614D01*
X6438214Y-9214614D01*
X6666786Y-8914614D02*
X6666786Y-8971757D01*
X6781071Y-8914614D02*
X6781071Y-8971757D01*
X7223928Y-9328900D02*
X7209643Y-9314614D01*
X7181071Y-9271757D01*
X7166786Y-9243186D01*
X7152500Y-9200329D01*
X7138214Y-9128900D01*
X7138214Y-9071757D01*
X7152500Y-9000329D01*
X7166786Y-8957472D01*
X7181071Y-8928900D01*
X7209643Y-8886043D01*
X7223928Y-8871757D01*
X7495357Y-9214614D02*
X7323928Y-9214614D01*
X7409643Y-9214614D02*
X7409643Y-8914614D01*
X7381071Y-8957472D01*
X7352500Y-8986043D01*
X7323928Y-9000329D01*
X7752500Y-9014614D02*
X7752500Y-9214614D01*
X7681071Y-8900329D02*
X7609643Y-9114614D01*
X7795357Y-9114614D01*
X8138214Y-9214614D02*
X8138214Y-8914614D01*
X8266786Y-9214614D02*
X8266786Y-9057472D01*
X8252500Y-9028900D01*
X8223928Y-9014614D01*
X8181071Y-9014614D01*
X8152500Y-9028900D01*
X8138214Y-9043186D01*
X8452500Y-9214614D02*
X8423928Y-9200329D01*
X8409643Y-9186043D01*
X8395357Y-9157472D01*
X8395357Y-9071757D01*
X8409643Y-9043186D01*
X8423928Y-9028900D01*
X8452500Y-9014614D01*
X8495357Y-9014614D01*
X8523928Y-9028900D01*
X8538214Y-9043186D01*
X8552500Y-9071757D01*
X8552500Y-9157472D01*
X8538214Y-9186043D01*
X8523928Y-9200329D01*
X8495357Y-9214614D01*
X8452500Y-9214614D01*
X8723928Y-9214614D02*
X8695357Y-9200329D01*
X8681071Y-9171757D01*
X8681071Y-8914614D01*
X8952500Y-9200329D02*
X8923928Y-9214614D01*
X8866786Y-9214614D01*
X8838214Y-9200329D01*
X8823928Y-9171757D01*
X8823928Y-9057472D01*
X8838214Y-9028900D01*
X8866786Y-9014614D01*
X8923928Y-9014614D01*
X8952500Y-9028900D01*
X8966786Y-9057472D01*
X8966786Y-9086043D01*
X8823928Y-9114614D01*
X9081071Y-9200329D02*
X9109643Y-9214614D01*
X9166786Y-9214614D01*
X9195357Y-9200329D01*
X9209643Y-9171757D01*
X9209643Y-9157472D01*
X9195357Y-9128900D01*
X9166786Y-9114614D01*
X9123928Y-9114614D01*
X9095357Y-9100329D01*
X9081071Y-9071757D01*
X9081071Y-9057472D01*
X9095357Y-9028900D01*
X9123928Y-9014614D01*
X9166786Y-9014614D01*
X9195357Y-9028900D01*
X9309643Y-9328900D02*
X9323928Y-9314614D01*
X9352500Y-9271757D01*
X9366786Y-9243186D01*
X9381071Y-9200329D01*
X9395357Y-9128900D01*
X9395357Y-9071757D01*
X9381071Y-9000329D01*
X9366786Y-8957472D01*
X9352500Y-8928900D01*
X9323928Y-8886043D01*
X9309643Y-8871757D01*
X2387500Y-9399900D02*
X2537500Y-9549900D01*
X2537500Y-9399900D02*
X2387500Y-9549900D01*
X2515533Y-9527934D02*
X2515533Y-9421867D01*
X2409466Y-9421867D01*
X2409466Y-9527934D01*
X2515533Y-9527934D01*
X2981071Y-9610614D02*
X2809643Y-9610614D01*
X2895357Y-9610614D02*
X2895357Y-9310614D01*
X2866786Y-9353472D01*
X2838214Y-9382043D01*
X2809643Y-9396329D01*
X3109643Y-9582043D02*
X3123928Y-9596329D01*
X3109643Y-9610614D01*
X3095357Y-9596329D01*
X3109643Y-9582043D01*
X3109643Y-9610614D01*
X3395357Y-9310614D02*
X3252500Y-9310614D01*
X3238214Y-9453472D01*
X3252500Y-9439186D01*
X3281071Y-9424900D01*
X3352500Y-9424900D01*
X3381071Y-9439186D01*
X3395357Y-9453472D01*
X3409643Y-9482043D01*
X3409643Y-9553472D01*
X3395357Y-9582043D01*
X3381071Y-9596329D01*
X3352500Y-9610614D01*
X3281071Y-9610614D01*
X3252500Y-9596329D01*
X3238214Y-9582043D01*
X3595357Y-9310614D02*
X3623928Y-9310614D01*
X3652500Y-9324900D01*
X3666786Y-9339186D01*
X3681071Y-9367757D01*
X3695357Y-9424900D01*
X3695357Y-9496329D01*
X3681071Y-9553472D01*
X3666786Y-9582043D01*
X3652500Y-9596329D01*
X3623928Y-9610614D01*
X3595357Y-9610614D01*
X3566786Y-9596329D01*
X3552500Y-9582043D01*
X3538214Y-9553472D01*
X3523928Y-9496329D01*
X3523928Y-9424900D01*
X3538214Y-9367757D01*
X3552500Y-9339186D01*
X3566786Y-9324900D01*
X3595357Y-9310614D01*
X3823928Y-9610614D02*
X3823928Y-9410614D01*
X3823928Y-9439186D02*
X3838214Y-9424900D01*
X3866786Y-9410614D01*
X3909643Y-9410614D01*
X3938214Y-9424900D01*
X3952500Y-9453472D01*
X3952500Y-9610614D01*
X3952500Y-9453472D02*
X3966786Y-9424900D01*
X3995357Y-9410614D01*
X4038214Y-9410614D01*
X4066786Y-9424900D01*
X4081071Y-9453472D01*
X4081071Y-9610614D01*
X4223928Y-9610614D02*
X4223928Y-9410614D01*
X4223928Y-9439186D02*
X4238214Y-9424900D01*
X4266786Y-9410614D01*
X4309643Y-9410614D01*
X4338214Y-9424900D01*
X4352500Y-9453472D01*
X4352500Y-9610614D01*
X4352500Y-9453472D02*
X4366786Y-9424900D01*
X4395357Y-9410614D01*
X4438214Y-9410614D01*
X4466786Y-9424900D01*
X4481071Y-9453472D01*
X4481071Y-9610614D01*
X5066786Y-9296329D02*
X4809643Y-9682043D01*
X5452500Y-9310614D02*
X5481071Y-9310614D01*
X5509643Y-9324900D01*
X5523928Y-9339186D01*
X5538214Y-9367757D01*
X5552500Y-9424900D01*
X5552500Y-9496329D01*
X5538214Y-9553472D01*
X5523928Y-9582043D01*
X5509643Y-9596329D01*
X5481071Y-9610614D01*
X5452500Y-9610614D01*
X5423928Y-9596329D01*
X5409643Y-9582043D01*
X5395357Y-9553472D01*
X5381071Y-9496329D01*
X5381071Y-9424900D01*
X5395357Y-9367757D01*
X5409643Y-9339186D01*
X5423928Y-9324900D01*
X5452500Y-9310614D01*
X5681071Y-9582043D02*
X5695357Y-9596329D01*
X5681071Y-9610614D01*
X5666786Y-9596329D01*
X5681071Y-9582043D01*
X5681071Y-9610614D01*
X5881071Y-9310614D02*
X5909643Y-9310614D01*
X5938214Y-9324900D01*
X5952500Y-9339186D01*
X5966786Y-9367757D01*
X5981071Y-9424900D01*
X5981071Y-9496329D01*
X5966786Y-9553472D01*
X5952500Y-9582043D01*
X5938214Y-9596329D01*
X5909643Y-9610614D01*
X5881071Y-9610614D01*
X5852500Y-9596329D01*
X5838214Y-9582043D01*
X5823928Y-9553472D01*
X5809643Y-9496329D01*
X5809643Y-9424900D01*
X5823928Y-9367757D01*
X5838214Y-9339186D01*
X5852500Y-9324900D01*
X5881071Y-9310614D01*
X6252500Y-9310614D02*
X6109643Y-9310614D01*
X6095357Y-9453472D01*
X6109643Y-9439186D01*
X6138214Y-9424900D01*
X6209643Y-9424900D01*
X6238214Y-9439186D01*
X6252500Y-9453472D01*
X6266786Y-9482043D01*
X6266786Y-9553472D01*
X6252500Y-9582043D01*
X6238214Y-9596329D01*
X6209643Y-9610614D01*
X6138214Y-9610614D01*
X6109643Y-9596329D01*
X6095357Y-9582043D01*
X6409643Y-9610614D02*
X6466786Y-9610614D01*
X6495357Y-9596329D01*
X6509643Y-9582043D01*
X6538214Y-9539186D01*
X6552500Y-9482043D01*
X6552500Y-9367757D01*
X6538214Y-9339186D01*
X6523928Y-9324900D01*
X6495357Y-9310614D01*
X6438214Y-9310614D01*
X6409643Y-9324900D01*
X6395357Y-9339186D01*
X6381071Y-9367757D01*
X6381071Y-9439186D01*
X6395357Y-9467757D01*
X6409643Y-9482043D01*
X6438214Y-9496329D01*
X6495357Y-9496329D01*
X6523928Y-9482043D01*
X6538214Y-9467757D01*
X6552500Y-9439186D01*
X6666786Y-9310614D02*
X6666786Y-9367757D01*
X6781071Y-9310614D02*
X6781071Y-9367757D01*
X7223928Y-9724900D02*
X7209643Y-9710614D01*
X7181071Y-9667757D01*
X7166786Y-9639186D01*
X7152500Y-9596329D01*
X7138214Y-9524900D01*
X7138214Y-9467757D01*
X7152500Y-9396329D01*
X7166786Y-9353472D01*
X7181071Y-9324900D01*
X7209643Y-9282043D01*
X7223928Y-9267757D01*
X7323928Y-9339186D02*
X7338214Y-9324900D01*
X7366786Y-9310614D01*
X7438214Y-9310614D01*
X7466786Y-9324900D01*
X7481071Y-9339186D01*
X7495357Y-9367757D01*
X7495357Y-9396329D01*
X7481071Y-9439186D01*
X7309643Y-9610614D01*
X7495357Y-9610614D01*
X7852500Y-9610614D02*
X7852500Y-9310614D01*
X7981071Y-9610614D02*
X7981071Y-9453472D01*
X7966786Y-9424900D01*
X7938214Y-9410614D01*
X7895357Y-9410614D01*
X7866786Y-9424900D01*
X7852500Y-9439186D01*
X8166786Y-9610614D02*
X8138214Y-9596329D01*
X8123928Y-9582043D01*
X8109643Y-9553472D01*
X8109643Y-9467757D01*
X8123928Y-9439186D01*
X8138214Y-9424900D01*
X8166786Y-9410614D01*
X8209643Y-9410614D01*
X8238214Y-9424900D01*
X8252500Y-9439186D01*
X8266786Y-9467757D01*
X8266786Y-9553472D01*
X8252500Y-9582043D01*
X8238214Y-9596329D01*
X8209643Y-9610614D01*
X8166786Y-9610614D01*
X8438214Y-9610614D02*
X8409643Y-9596329D01*
X8395357Y-9567757D01*
X8395357Y-9310614D01*
X8666786Y-9596329D02*
X8638214Y-9610614D01*
X8581071Y-9610614D01*
X8552500Y-9596329D01*
X8538214Y-9567757D01*
X8538214Y-9453472D01*
X8552500Y-9424900D01*
X8581071Y-9410614D01*
X8638214Y-9410614D01*
X8666786Y-9424900D01*
X8681071Y-9453472D01*
X8681071Y-9482043D01*
X8538214Y-9510614D01*
X8795357Y-9596329D02*
X8823928Y-9610614D01*
X8881071Y-9610614D01*
X8909643Y-9596329D01*
X8923928Y-9567757D01*
X8923928Y-9553472D01*
X8909643Y-9524900D01*
X8881071Y-9510614D01*
X8838214Y-9510614D01*
X8809643Y-9496329D01*
X8795357Y-9467757D01*
X8795357Y-9453472D01*
X8809643Y-9424900D01*
X8838214Y-9410614D01*
X8881071Y-9410614D01*
X8909643Y-9424900D01*
X9023928Y-9724900D02*
X9038214Y-9710614D01*
X9066786Y-9667757D01*
X9081071Y-9639186D01*
X9095357Y-9596329D01*
X9109643Y-9524900D01*
X9109643Y-9467757D01*
X9095357Y-9396329D01*
X9081071Y-9353472D01*
X9066786Y-9324900D01*
X9038214Y-9282043D01*
X9023928Y-9267757D01*
M02*
