%FSLAX45Y45*%
G04 Gerber Fmt 4.5, Leading zero omitted, Abs format (unit mm)*
G04 Created by KiCad (PCBNEW 5.1.5-1.fc31) date 2020-04-28 16:34:49*
%MOMM*%
%LPD*%
G04 APERTURE LIST*
%TA.AperFunction,Profile*%
%ADD10C,0.050000*%
%TD*%
%ADD11C,0.200000*%
%ADD12C,0.300000*%
G04 APERTURE END LIST*
D10*
X2667000Y-5740400D02*
G75*
G02X2540000Y-5613400I0J127000D01*
G01*
X14038580Y-5613400D02*
G75*
G02X13911580Y-5740400I-127000J0D01*
G01*
X14038580Y-3540000D02*
X13038580Y-2540000D01*
X3556000Y-2540000D02*
X2540000Y-3540000D01*
X2667000Y-5740400D02*
X13911580Y-5740400D01*
X2540000Y-3540000D02*
X2540000Y-5613400D01*
X14038580Y-3540000D02*
X14038580Y-5613400D01*
X3556000Y-2540000D02*
X13038580Y-2540000D01*
D11*
X2810000Y-5250000D02*
X3130000Y-5570000D01*
X3130000Y-5250000D02*
X2810000Y-5570000D01*
X3064000Y-3472000D02*
X3384000Y-3792000D01*
X3384000Y-3472000D02*
X3064000Y-3792000D01*
X13478000Y-5250000D02*
X13798000Y-5570000D01*
X13798000Y-5250000D02*
X13478000Y-5570000D01*
X13224000Y-3472000D02*
X13544000Y-3792000D01*
X13544000Y-3472000D02*
X13224000Y-3792000D01*
D12*
X2823928Y-6208614D02*
X2823928Y-5908614D01*
X2895357Y-5908614D01*
X2938214Y-5922900D01*
X2966786Y-5951471D01*
X2981071Y-5980043D01*
X2995357Y-6037186D01*
X2995357Y-6080043D01*
X2981071Y-6137186D01*
X2966786Y-6165757D01*
X2938214Y-6194329D01*
X2895357Y-6208614D01*
X2823928Y-6208614D01*
X3123928Y-6208614D02*
X3123928Y-6008614D01*
X3123928Y-6065757D02*
X3138214Y-6037186D01*
X3152500Y-6022900D01*
X3181071Y-6008614D01*
X3209643Y-6008614D01*
X3309643Y-6208614D02*
X3309643Y-6008614D01*
X3309643Y-5908614D02*
X3295357Y-5922900D01*
X3309643Y-5937186D01*
X3323928Y-5922900D01*
X3309643Y-5908614D01*
X3309643Y-5937186D01*
X3495357Y-6208614D02*
X3466786Y-6194329D01*
X3452500Y-6165757D01*
X3452500Y-5908614D01*
X3652500Y-6208614D02*
X3623928Y-6194329D01*
X3609643Y-6165757D01*
X3609643Y-5908614D01*
X3995357Y-6208614D02*
X3995357Y-5908614D01*
X4095357Y-6122900D01*
X4195357Y-5908614D01*
X4195357Y-6208614D01*
X4466786Y-6208614D02*
X4466786Y-6051471D01*
X4452500Y-6022900D01*
X4423928Y-6008614D01*
X4366786Y-6008614D01*
X4338214Y-6022900D01*
X4466786Y-6194329D02*
X4438214Y-6208614D01*
X4366786Y-6208614D01*
X4338214Y-6194329D01*
X4323928Y-6165757D01*
X4323928Y-6137186D01*
X4338214Y-6108614D01*
X4366786Y-6094329D01*
X4438214Y-6094329D01*
X4466786Y-6080043D01*
X4609643Y-6008614D02*
X4609643Y-6308614D01*
X4609643Y-6022900D02*
X4638214Y-6008614D01*
X4695357Y-6008614D01*
X4723928Y-6022900D01*
X4738214Y-6037186D01*
X4752500Y-6065757D01*
X4752500Y-6151471D01*
X4738214Y-6180043D01*
X4723928Y-6194329D01*
X4695357Y-6208614D01*
X4638214Y-6208614D01*
X4609643Y-6194329D01*
X4881071Y-6180043D02*
X4895357Y-6194329D01*
X4881071Y-6208614D01*
X4866786Y-6194329D01*
X4881071Y-6180043D01*
X4881071Y-6208614D01*
X4881071Y-6022900D02*
X4895357Y-6037186D01*
X4881071Y-6051471D01*
X4866786Y-6037186D01*
X4881071Y-6022900D01*
X4881071Y-6051471D01*
X2217500Y-6542900D02*
X2537500Y-6862900D01*
X2537500Y-6542900D02*
X2217500Y-6862900D01*
X2795357Y-6538614D02*
X2981071Y-6538614D01*
X2881071Y-6652900D01*
X2923928Y-6652900D01*
X2952500Y-6667186D01*
X2966786Y-6681471D01*
X2981071Y-6710043D01*
X2981071Y-6781471D01*
X2966786Y-6810043D01*
X2952500Y-6824329D01*
X2923928Y-6838614D01*
X2838214Y-6838614D01*
X2809643Y-6824329D01*
X2795357Y-6810043D01*
X3109643Y-6810043D02*
X3123928Y-6824329D01*
X3109643Y-6838614D01*
X3095357Y-6824329D01*
X3109643Y-6810043D01*
X3109643Y-6838614D01*
X3238214Y-6567186D02*
X3252500Y-6552900D01*
X3281071Y-6538614D01*
X3352500Y-6538614D01*
X3381071Y-6552900D01*
X3395357Y-6567186D01*
X3409643Y-6595757D01*
X3409643Y-6624329D01*
X3395357Y-6667186D01*
X3223928Y-6838614D01*
X3409643Y-6838614D01*
X3595357Y-6538614D02*
X3623928Y-6538614D01*
X3652500Y-6552900D01*
X3666786Y-6567186D01*
X3681071Y-6595757D01*
X3695357Y-6652900D01*
X3695357Y-6724329D01*
X3681071Y-6781471D01*
X3666786Y-6810043D01*
X3652500Y-6824329D01*
X3623928Y-6838614D01*
X3595357Y-6838614D01*
X3566786Y-6824329D01*
X3552500Y-6810043D01*
X3538214Y-6781471D01*
X3523928Y-6724329D01*
X3523928Y-6652900D01*
X3538214Y-6595757D01*
X3552500Y-6567186D01*
X3566786Y-6552900D01*
X3595357Y-6538614D01*
X3823928Y-6838614D02*
X3823928Y-6638614D01*
X3823928Y-6667186D02*
X3838214Y-6652900D01*
X3866786Y-6638614D01*
X3909643Y-6638614D01*
X3938214Y-6652900D01*
X3952500Y-6681471D01*
X3952500Y-6838614D01*
X3952500Y-6681471D02*
X3966786Y-6652900D01*
X3995357Y-6638614D01*
X4038214Y-6638614D01*
X4066786Y-6652900D01*
X4081071Y-6681471D01*
X4081071Y-6838614D01*
X4223928Y-6838614D02*
X4223928Y-6638614D01*
X4223928Y-6667186D02*
X4238214Y-6652900D01*
X4266786Y-6638614D01*
X4309643Y-6638614D01*
X4338214Y-6652900D01*
X4352500Y-6681471D01*
X4352500Y-6838614D01*
X4352500Y-6681471D02*
X4366786Y-6652900D01*
X4395357Y-6638614D01*
X4438214Y-6638614D01*
X4466786Y-6652900D01*
X4481071Y-6681471D01*
X4481071Y-6838614D01*
X5066786Y-6524329D02*
X4809643Y-6910043D01*
X5452500Y-6538614D02*
X5481071Y-6538614D01*
X5509643Y-6552900D01*
X5523928Y-6567186D01*
X5538214Y-6595757D01*
X5552500Y-6652900D01*
X5552500Y-6724329D01*
X5538214Y-6781471D01*
X5523928Y-6810043D01*
X5509643Y-6824329D01*
X5481071Y-6838614D01*
X5452500Y-6838614D01*
X5423928Y-6824329D01*
X5409643Y-6810043D01*
X5395357Y-6781471D01*
X5381071Y-6724329D01*
X5381071Y-6652900D01*
X5395357Y-6595757D01*
X5409643Y-6567186D01*
X5423928Y-6552900D01*
X5452500Y-6538614D01*
X5681071Y-6810043D02*
X5695357Y-6824329D01*
X5681071Y-6838614D01*
X5666786Y-6824329D01*
X5681071Y-6810043D01*
X5681071Y-6838614D01*
X5981071Y-6838614D02*
X5809643Y-6838614D01*
X5895357Y-6838614D02*
X5895357Y-6538614D01*
X5866786Y-6581471D01*
X5838214Y-6610043D01*
X5809643Y-6624329D01*
X6095357Y-6567186D02*
X6109643Y-6552900D01*
X6138214Y-6538614D01*
X6209643Y-6538614D01*
X6238214Y-6552900D01*
X6252500Y-6567186D01*
X6266786Y-6595757D01*
X6266786Y-6624329D01*
X6252500Y-6667186D01*
X6081071Y-6838614D01*
X6266786Y-6838614D01*
X6523928Y-6538614D02*
X6466786Y-6538614D01*
X6438214Y-6552900D01*
X6423928Y-6567186D01*
X6395357Y-6610043D01*
X6381071Y-6667186D01*
X6381071Y-6781471D01*
X6395357Y-6810043D01*
X6409643Y-6824329D01*
X6438214Y-6838614D01*
X6495357Y-6838614D01*
X6523928Y-6824329D01*
X6538214Y-6810043D01*
X6552500Y-6781471D01*
X6552500Y-6710043D01*
X6538214Y-6681471D01*
X6523928Y-6667186D01*
X6495357Y-6652900D01*
X6438214Y-6652900D01*
X6409643Y-6667186D01*
X6395357Y-6681471D01*
X6381071Y-6710043D01*
X6666786Y-6538614D02*
X6666786Y-6595757D01*
X6781071Y-6538614D02*
X6781071Y-6595757D01*
X7223928Y-6952900D02*
X7209643Y-6938614D01*
X7181071Y-6895757D01*
X7166786Y-6867186D01*
X7152500Y-6824329D01*
X7138214Y-6752900D01*
X7138214Y-6695757D01*
X7152500Y-6624329D01*
X7166786Y-6581471D01*
X7181071Y-6552900D01*
X7209643Y-6510043D01*
X7223928Y-6495757D01*
X7466786Y-6638614D02*
X7466786Y-6838614D01*
X7395357Y-6524329D02*
X7323928Y-6738614D01*
X7509643Y-6738614D01*
X7852500Y-6838614D02*
X7852500Y-6538614D01*
X7981071Y-6838614D02*
X7981071Y-6681471D01*
X7966786Y-6652900D01*
X7938214Y-6638614D01*
X7895357Y-6638614D01*
X7866786Y-6652900D01*
X7852500Y-6667186D01*
X8166786Y-6838614D02*
X8138214Y-6824329D01*
X8123928Y-6810043D01*
X8109643Y-6781471D01*
X8109643Y-6695757D01*
X8123928Y-6667186D01*
X8138214Y-6652900D01*
X8166786Y-6638614D01*
X8209643Y-6638614D01*
X8238214Y-6652900D01*
X8252500Y-6667186D01*
X8266786Y-6695757D01*
X8266786Y-6781471D01*
X8252500Y-6810043D01*
X8238214Y-6824329D01*
X8209643Y-6838614D01*
X8166786Y-6838614D01*
X8438214Y-6838614D02*
X8409643Y-6824329D01*
X8395357Y-6795757D01*
X8395357Y-6538614D01*
X8666786Y-6824329D02*
X8638214Y-6838614D01*
X8581071Y-6838614D01*
X8552500Y-6824329D01*
X8538214Y-6795757D01*
X8538214Y-6681471D01*
X8552500Y-6652900D01*
X8581071Y-6638614D01*
X8638214Y-6638614D01*
X8666786Y-6652900D01*
X8681071Y-6681471D01*
X8681071Y-6710043D01*
X8538214Y-6738614D01*
X8795357Y-6824329D02*
X8823928Y-6838614D01*
X8881071Y-6838614D01*
X8909643Y-6824329D01*
X8923928Y-6795757D01*
X8923928Y-6781471D01*
X8909643Y-6752900D01*
X8881071Y-6738614D01*
X8838214Y-6738614D01*
X8809643Y-6724329D01*
X8795357Y-6695757D01*
X8795357Y-6681471D01*
X8809643Y-6652900D01*
X8838214Y-6638614D01*
X8881071Y-6638614D01*
X8909643Y-6652900D01*
X9023928Y-6952900D02*
X9038214Y-6938614D01*
X9066786Y-6895757D01*
X9081071Y-6867186D01*
X9095357Y-6824329D01*
X9109643Y-6752900D01*
X9109643Y-6695757D01*
X9095357Y-6624329D01*
X9081071Y-6581471D01*
X9066786Y-6552900D01*
X9038214Y-6510043D01*
X9023928Y-6495757D01*
X9566786Y-6952900D02*
X9552500Y-6938614D01*
X9523928Y-6895757D01*
X9509643Y-6867186D01*
X9495357Y-6824329D01*
X9481071Y-6752900D01*
X9481071Y-6695757D01*
X9495357Y-6624329D01*
X9509643Y-6581471D01*
X9523928Y-6552900D01*
X9552500Y-6510043D01*
X9566786Y-6495757D01*
X9681071Y-6638614D02*
X9681071Y-6838614D01*
X9681071Y-6667186D02*
X9695357Y-6652900D01*
X9723928Y-6638614D01*
X9766786Y-6638614D01*
X9795357Y-6652900D01*
X9809643Y-6681471D01*
X9809643Y-6838614D01*
X9995357Y-6838614D02*
X9966786Y-6824329D01*
X9952500Y-6810043D01*
X9938214Y-6781471D01*
X9938214Y-6695757D01*
X9952500Y-6667186D01*
X9966786Y-6652900D01*
X9995357Y-6638614D01*
X10038214Y-6638614D01*
X10066786Y-6652900D01*
X10081071Y-6667186D01*
X10095357Y-6695757D01*
X10095357Y-6781471D01*
X10081071Y-6810043D01*
X10066786Y-6824329D01*
X10038214Y-6838614D01*
X9995357Y-6838614D01*
X10181071Y-6638614D02*
X10295357Y-6638614D01*
X10223928Y-6538614D02*
X10223928Y-6795757D01*
X10238214Y-6824329D01*
X10266786Y-6838614D01*
X10295357Y-6838614D01*
X10623928Y-6638614D02*
X10623928Y-6938614D01*
X10623928Y-6652900D02*
X10652500Y-6638614D01*
X10709643Y-6638614D01*
X10738214Y-6652900D01*
X10752500Y-6667186D01*
X10766786Y-6695757D01*
X10766786Y-6781471D01*
X10752500Y-6810043D01*
X10738214Y-6824329D01*
X10709643Y-6838614D01*
X10652500Y-6838614D01*
X10623928Y-6824329D01*
X10938214Y-6838614D02*
X10909643Y-6824329D01*
X10895357Y-6795757D01*
X10895357Y-6538614D01*
X11181071Y-6838614D02*
X11181071Y-6681471D01*
X11166786Y-6652900D01*
X11138214Y-6638614D01*
X11081071Y-6638614D01*
X11052500Y-6652900D01*
X11181071Y-6824329D02*
X11152500Y-6838614D01*
X11081071Y-6838614D01*
X11052500Y-6824329D01*
X11038214Y-6795757D01*
X11038214Y-6767186D01*
X11052500Y-6738614D01*
X11081071Y-6724329D01*
X11152500Y-6724329D01*
X11181071Y-6710043D01*
X11281071Y-6638614D02*
X11395357Y-6638614D01*
X11323928Y-6538614D02*
X11323928Y-6795757D01*
X11338214Y-6824329D01*
X11366786Y-6838614D01*
X11395357Y-6838614D01*
X11609643Y-6824329D02*
X11581071Y-6838614D01*
X11523928Y-6838614D01*
X11495357Y-6824329D01*
X11481071Y-6795757D01*
X11481071Y-6681471D01*
X11495357Y-6652900D01*
X11523928Y-6638614D01*
X11581071Y-6638614D01*
X11609643Y-6652900D01*
X11623928Y-6681471D01*
X11623928Y-6710043D01*
X11481071Y-6738614D01*
X11881071Y-6838614D02*
X11881071Y-6538614D01*
X11881071Y-6824329D02*
X11852500Y-6838614D01*
X11795357Y-6838614D01*
X11766786Y-6824329D01*
X11752500Y-6810043D01*
X11738214Y-6781471D01*
X11738214Y-6695757D01*
X11752500Y-6667186D01*
X11766786Y-6652900D01*
X11795357Y-6638614D01*
X11852500Y-6638614D01*
X11881071Y-6652900D01*
X11995357Y-6952900D02*
X12009643Y-6938614D01*
X12038214Y-6895757D01*
X12052500Y-6867186D01*
X12066786Y-6824329D01*
X12081071Y-6752900D01*
X12081071Y-6695757D01*
X12066786Y-6624329D01*
X12052500Y-6581471D01*
X12038214Y-6552900D01*
X12009643Y-6510043D01*
X11995357Y-6495757D01*
M02*
