G04 #@! TF.GenerationSoftware,KiCad,Pcbnew,5.1.5-1.fc31*
G04 #@! TF.CreationDate,2020-04-28T16:34:52+01:00*
G04 #@! TF.ProjectId,ReversingCam_FSAV433_v3.1,52657665-7273-4696-9e67-43616d5f4653,V3.1*
G04 #@! TF.SameCoordinates,Original*
G04 #@! TF.FileFunction,Soldermask,Top*
G04 #@! TF.FilePolarity,Negative*
%FSLAX46Y46*%
G04 Gerber Fmt 4.6, Leading zero omitted, Abs format (unit mm)*
G04 Created by KiCad (PCBNEW 5.1.5-1.fc31) date 2020-04-28 16:34:52*
%MOMM*%
%LPD*%
G04 APERTURE LIST*
%ADD10C,0.100000*%
G04 APERTURE END LIST*
D10*
G36*
X136729807Y-52486236D02*
G01*
X136861579Y-52512447D01*
X137162042Y-52636903D01*
X137432451Y-52817585D01*
X137662415Y-53047549D01*
X137834786Y-53305520D01*
X137843098Y-53317960D01*
X137859114Y-53356627D01*
X137945724Y-53565720D01*
X137967553Y-53618422D01*
X138030485Y-53934799D01*
X138031000Y-53937391D01*
X138031000Y-54262609D01*
X137967553Y-54581579D01*
X137843097Y-54882042D01*
X137662415Y-55152451D01*
X137432451Y-55382415D01*
X137162042Y-55563097D01*
X136861579Y-55687553D01*
X136755256Y-55708702D01*
X136542611Y-55751000D01*
X136217389Y-55751000D01*
X136004744Y-55708702D01*
X135898421Y-55687553D01*
X135597958Y-55563097D01*
X135327549Y-55382415D01*
X135097585Y-55152451D01*
X134916903Y-54882042D01*
X134792447Y-54581579D01*
X134729000Y-54262609D01*
X134729000Y-53937391D01*
X134729516Y-53934799D01*
X134792447Y-53618422D01*
X134814277Y-53565720D01*
X134900886Y-53356627D01*
X134916902Y-53317960D01*
X134925214Y-53305520D01*
X135097585Y-53047549D01*
X135327549Y-52817585D01*
X135597958Y-52636903D01*
X135898421Y-52512447D01*
X136030193Y-52486236D01*
X136217389Y-52449000D01*
X136542611Y-52449000D01*
X136729807Y-52486236D01*
G37*
G36*
X30049807Y-52486236D02*
G01*
X30181579Y-52512447D01*
X30482042Y-52636903D01*
X30752451Y-52817585D01*
X30982415Y-53047549D01*
X31154786Y-53305520D01*
X31163098Y-53317960D01*
X31179114Y-53356627D01*
X31265724Y-53565720D01*
X31287553Y-53618422D01*
X31350485Y-53934799D01*
X31351000Y-53937391D01*
X31351000Y-54262609D01*
X31287553Y-54581579D01*
X31163097Y-54882042D01*
X30982415Y-55152451D01*
X30752451Y-55382415D01*
X30482042Y-55563097D01*
X30181579Y-55687553D01*
X30075256Y-55708702D01*
X29862611Y-55751000D01*
X29537389Y-55751000D01*
X29324744Y-55708702D01*
X29218421Y-55687553D01*
X28917958Y-55563097D01*
X28647549Y-55382415D01*
X28417585Y-55152451D01*
X28236903Y-54882042D01*
X28112447Y-54581579D01*
X28049000Y-54262609D01*
X28049000Y-53937391D01*
X28049516Y-53934799D01*
X28112447Y-53618422D01*
X28134277Y-53565720D01*
X28220886Y-53356627D01*
X28236902Y-53317960D01*
X28245214Y-53305520D01*
X28417585Y-53047549D01*
X28647549Y-52817585D01*
X28917958Y-52636903D01*
X29218421Y-52512447D01*
X29350193Y-52486236D01*
X29537389Y-52449000D01*
X29862611Y-52449000D01*
X30049807Y-52486236D01*
G37*
G36*
X94228228Y-53029703D02*
G01*
X94383100Y-53093853D01*
X94522481Y-53186985D01*
X94641015Y-53305519D01*
X94734147Y-53444900D01*
X94798297Y-53599772D01*
X94831000Y-53764184D01*
X94831000Y-53931816D01*
X94798297Y-54096228D01*
X94734147Y-54251100D01*
X94641015Y-54390481D01*
X94522481Y-54509015D01*
X94383100Y-54602147D01*
X94228228Y-54666297D01*
X94063816Y-54699000D01*
X93896184Y-54699000D01*
X93731772Y-54666297D01*
X93576900Y-54602147D01*
X93437519Y-54509015D01*
X93318985Y-54390481D01*
X93225853Y-54251100D01*
X93161703Y-54096228D01*
X93129000Y-53931816D01*
X93129000Y-53764184D01*
X93161703Y-53599772D01*
X93225853Y-53444900D01*
X93318985Y-53305519D01*
X93437519Y-53186985D01*
X93576900Y-53093853D01*
X93731772Y-53029703D01*
X93896184Y-52997000D01*
X94063816Y-52997000D01*
X94228228Y-53029703D01*
G37*
G36*
X81528228Y-53029703D02*
G01*
X81683100Y-53093853D01*
X81822481Y-53186985D01*
X81941015Y-53305519D01*
X82034147Y-53444900D01*
X82098297Y-53599772D01*
X82131000Y-53764184D01*
X82131000Y-53931816D01*
X82098297Y-54096228D01*
X82034147Y-54251100D01*
X81941015Y-54390481D01*
X81822481Y-54509015D01*
X81683100Y-54602147D01*
X81528228Y-54666297D01*
X81363816Y-54699000D01*
X81196184Y-54699000D01*
X81031772Y-54666297D01*
X80876900Y-54602147D01*
X80737519Y-54509015D01*
X80618985Y-54390481D01*
X80525853Y-54251100D01*
X80461703Y-54096228D01*
X80429000Y-53931816D01*
X80429000Y-53764184D01*
X80461703Y-53599772D01*
X80525853Y-53444900D01*
X80618985Y-53305519D01*
X80737519Y-53186985D01*
X80876900Y-53093853D01*
X81031772Y-53029703D01*
X81196184Y-52997000D01*
X81363816Y-52997000D01*
X81528228Y-53029703D01*
G37*
G36*
X53887000Y-51630000D02*
G01*
X53722660Y-51630000D01*
X53698274Y-51632402D01*
X53674825Y-51639515D01*
X53653214Y-51651066D01*
X53634272Y-51666611D01*
X53618727Y-51685553D01*
X53607176Y-51707164D01*
X53600063Y-51730613D01*
X53597661Y-51754999D01*
X53600063Y-51779385D01*
X53607176Y-51802834D01*
X53618727Y-51824445D01*
X53634272Y-51843387D01*
X53643345Y-51851609D01*
X53720264Y-51914736D01*
X53792244Y-52002443D01*
X53825403Y-52064480D01*
X53845728Y-52102505D01*
X53845729Y-52102508D01*
X53878666Y-52211084D01*
X53889787Y-52324000D01*
X53878666Y-52436916D01*
X53855753Y-52512447D01*
X53845728Y-52545495D01*
X53830522Y-52573943D01*
X53792244Y-52645557D01*
X53720264Y-52733264D01*
X53632557Y-52805244D01*
X53579629Y-52833534D01*
X53551141Y-52848761D01*
X53530766Y-52862375D01*
X53513439Y-52879702D01*
X53499826Y-52900076D01*
X53490448Y-52922715D01*
X53485668Y-52946748D01*
X53485668Y-52971252D01*
X53490448Y-52995285D01*
X53499826Y-53017924D01*
X53513440Y-53038299D01*
X53530767Y-53055626D01*
X53551141Y-53069239D01*
X53632557Y-53112756D01*
X53720264Y-53184736D01*
X53792244Y-53272443D01*
X53816572Y-53317958D01*
X53845728Y-53372505D01*
X53845729Y-53372508D01*
X53878666Y-53481084D01*
X53889787Y-53594000D01*
X53878666Y-53706916D01*
X53845729Y-53815492D01*
X53845728Y-53815495D01*
X53830171Y-53844600D01*
X53792244Y-53915557D01*
X53720264Y-54003264D01*
X53632557Y-54075244D01*
X53568601Y-54109429D01*
X53532495Y-54128728D01*
X53532492Y-54128729D01*
X53423916Y-54161666D01*
X53339298Y-54170000D01*
X52832702Y-54170000D01*
X52748084Y-54161666D01*
X52639508Y-54128729D01*
X52639505Y-54128728D01*
X52603399Y-54109429D01*
X52539443Y-54075244D01*
X52451736Y-54003264D01*
X52379756Y-53915557D01*
X52341829Y-53844600D01*
X52326272Y-53815495D01*
X52326271Y-53815492D01*
X52293334Y-53706916D01*
X52282213Y-53594000D01*
X52293334Y-53481084D01*
X52326271Y-53372508D01*
X52326272Y-53372505D01*
X52355428Y-53317958D01*
X52379756Y-53272443D01*
X52451736Y-53184736D01*
X52539443Y-53112756D01*
X52620859Y-53069239D01*
X52641234Y-53055625D01*
X52658561Y-53038298D01*
X52672174Y-53017924D01*
X52681552Y-52995285D01*
X52686332Y-52971252D01*
X52686332Y-52946748D01*
X52681552Y-52922715D01*
X52672174Y-52900076D01*
X52658560Y-52879701D01*
X52641233Y-52862374D01*
X52620859Y-52848761D01*
X52592371Y-52833534D01*
X52539443Y-52805244D01*
X52451736Y-52733264D01*
X52379756Y-52645557D01*
X52341478Y-52573943D01*
X52326272Y-52545495D01*
X52316247Y-52512447D01*
X52293334Y-52436916D01*
X52282213Y-52324000D01*
X52293334Y-52211084D01*
X52326271Y-52102508D01*
X52326272Y-52102505D01*
X52346597Y-52064480D01*
X52379756Y-52002443D01*
X52451736Y-51914736D01*
X52528646Y-51851617D01*
X52545965Y-51834298D01*
X52559579Y-51813923D01*
X52568957Y-51791284D01*
X52573737Y-51767251D01*
X52573737Y-51742747D01*
X52568957Y-51718714D01*
X52559579Y-51696075D01*
X52545966Y-51675701D01*
X52528639Y-51658374D01*
X52508264Y-51644760D01*
X52485625Y-51635382D01*
X52461592Y-51630602D01*
X52449340Y-51630000D01*
X52285000Y-51630000D01*
X52285000Y-50478000D01*
X53887000Y-50478000D01*
X53887000Y-51630000D01*
G37*
G36*
X113265442Y-52285518D02*
G01*
X113331627Y-52292037D01*
X113501466Y-52343557D01*
X113657991Y-52427222D01*
X113669803Y-52436916D01*
X113795186Y-52539814D01*
X113874863Y-52636902D01*
X113907778Y-52677009D01*
X113907779Y-52677011D01*
X113982918Y-52817584D01*
X113991443Y-52833534D01*
X114042963Y-53003373D01*
X114060359Y-53180000D01*
X114042963Y-53356627D01*
X113991443Y-53526466D01*
X113907778Y-53682991D01*
X113888145Y-53706914D01*
X113795186Y-53820186D01*
X113725162Y-53877652D01*
X113657991Y-53932778D01*
X113501466Y-54016443D01*
X113331627Y-54067963D01*
X113265442Y-54074482D01*
X113199260Y-54081000D01*
X112860740Y-54081000D01*
X112794558Y-54074482D01*
X112728373Y-54067963D01*
X112558534Y-54016443D01*
X112402009Y-53932778D01*
X112334838Y-53877652D01*
X112264814Y-53820186D01*
X112171855Y-53706914D01*
X112152222Y-53682991D01*
X112068557Y-53526466D01*
X112017037Y-53356627D01*
X111999641Y-53180000D01*
X112017037Y-53003373D01*
X112068557Y-52833534D01*
X112077083Y-52817584D01*
X112152221Y-52677011D01*
X112152222Y-52677009D01*
X112185137Y-52636902D01*
X112264814Y-52539814D01*
X112390197Y-52436916D01*
X112402009Y-52427222D01*
X112558534Y-52343557D01*
X112728373Y-52292037D01*
X112794557Y-52285519D01*
X112860740Y-52279000D01*
X113199260Y-52279000D01*
X113265442Y-52285518D01*
G37*
G36*
X121558600Y-52188989D02*
G01*
X121591652Y-52199015D01*
X121622103Y-52215292D01*
X121648799Y-52237201D01*
X121670708Y-52263897D01*
X121686985Y-52294348D01*
X121697011Y-52327400D01*
X121701000Y-52367903D01*
X121701000Y-53804097D01*
X121697011Y-53844600D01*
X121686985Y-53877652D01*
X121670708Y-53908103D01*
X121648799Y-53934799D01*
X121622103Y-53956708D01*
X121591652Y-53972985D01*
X121558600Y-53983011D01*
X121518097Y-53987000D01*
X119781903Y-53987000D01*
X119741400Y-53983011D01*
X119708348Y-53972985D01*
X119677897Y-53956708D01*
X119651201Y-53934799D01*
X119629292Y-53908103D01*
X119613015Y-53877652D01*
X119602989Y-53844600D01*
X119599000Y-53804097D01*
X119599000Y-52367903D01*
X119602989Y-52327400D01*
X119613015Y-52294348D01*
X119629292Y-52263897D01*
X119651201Y-52237201D01*
X119677897Y-52215292D01*
X119708348Y-52199015D01*
X119741400Y-52188989D01*
X119781903Y-52185000D01*
X121518097Y-52185000D01*
X121558600Y-52188989D01*
G37*
G36*
X106904549Y-51703116D02*
G01*
X107015734Y-51725232D01*
X107124364Y-51770228D01*
X107175198Y-51791284D01*
X107225203Y-51811997D01*
X107413720Y-51937960D01*
X107574040Y-52098280D01*
X107694793Y-52279000D01*
X107700004Y-52286799D01*
X107703131Y-52294348D01*
X107786768Y-52496266D01*
X107831000Y-52718636D01*
X107831000Y-52945364D01*
X107786768Y-53167734D01*
X107700003Y-53377203D01*
X107574040Y-53565720D01*
X107413720Y-53726040D01*
X107225203Y-53852003D01*
X107015734Y-53938768D01*
X106925543Y-53956708D01*
X106793365Y-53983000D01*
X106566635Y-53983000D01*
X106434457Y-53956708D01*
X106344266Y-53938768D01*
X106134797Y-53852003D01*
X105946280Y-53726040D01*
X105785960Y-53565720D01*
X105659997Y-53377203D01*
X105573232Y-53167734D01*
X105529000Y-52945364D01*
X105529000Y-52718636D01*
X105573232Y-52496266D01*
X105656869Y-52294348D01*
X105659996Y-52286799D01*
X105665207Y-52279000D01*
X105785960Y-52098280D01*
X105946280Y-51937960D01*
X106134797Y-51811997D01*
X106184803Y-51791284D01*
X106235636Y-51770228D01*
X106344266Y-51725232D01*
X106455451Y-51703116D01*
X106566635Y-51681000D01*
X106793365Y-51681000D01*
X106904549Y-51703116D01*
G37*
G36*
X97671000Y-53983000D02*
G01*
X95369000Y-53983000D01*
X95369000Y-51681000D01*
X97671000Y-51681000D01*
X97671000Y-53983000D01*
G37*
G36*
X44310000Y-53945000D02*
G01*
X42570000Y-53945000D01*
X42570000Y-47655000D01*
X44310000Y-47655000D01*
X44310000Y-53945000D01*
G37*
G36*
X38710000Y-53945000D02*
G01*
X36970000Y-53945000D01*
X36970000Y-47655000D01*
X38710000Y-47655000D01*
X38710000Y-53945000D01*
G37*
G36*
X75794500Y-50931500D02*
G01*
X75630160Y-50931500D01*
X75605774Y-50933902D01*
X75582325Y-50941015D01*
X75560714Y-50952566D01*
X75541772Y-50968111D01*
X75526227Y-50987053D01*
X75514676Y-51008664D01*
X75507563Y-51032113D01*
X75505161Y-51056499D01*
X75507563Y-51080885D01*
X75514676Y-51104334D01*
X75526227Y-51125945D01*
X75541772Y-51144887D01*
X75550845Y-51153109D01*
X75627764Y-51216236D01*
X75699744Y-51303943D01*
X75721689Y-51345000D01*
X75753228Y-51404005D01*
X75753229Y-51404008D01*
X75786166Y-51512584D01*
X75797287Y-51625500D01*
X75786166Y-51738416D01*
X75753229Y-51846992D01*
X75753228Y-51846995D01*
X75750753Y-51851625D01*
X75699744Y-51947057D01*
X75627764Y-52034764D01*
X75540057Y-52106744D01*
X75458641Y-52150261D01*
X75438266Y-52163875D01*
X75420939Y-52181202D01*
X75407326Y-52201576D01*
X75397948Y-52224215D01*
X75393168Y-52248248D01*
X75393168Y-52272752D01*
X75397948Y-52296785D01*
X75407326Y-52319424D01*
X75420940Y-52339799D01*
X75438267Y-52357126D01*
X75458641Y-52370739D01*
X75540057Y-52414256D01*
X75627764Y-52486236D01*
X75699744Y-52573943D01*
X75733396Y-52636902D01*
X75753228Y-52674005D01*
X75753229Y-52674008D01*
X75786166Y-52782584D01*
X75797287Y-52895500D01*
X75786166Y-53008416D01*
X75760248Y-53093853D01*
X75753228Y-53116995D01*
X75733929Y-53153101D01*
X75699744Y-53217057D01*
X75627764Y-53304764D01*
X75540057Y-53376744D01*
X75476101Y-53410929D01*
X75439995Y-53430228D01*
X75439992Y-53430229D01*
X75331416Y-53463166D01*
X75246798Y-53471500D01*
X74740202Y-53471500D01*
X74655584Y-53463166D01*
X74547008Y-53430229D01*
X74547005Y-53430228D01*
X74510899Y-53410929D01*
X74446943Y-53376744D01*
X74359236Y-53304764D01*
X74287256Y-53217057D01*
X74253071Y-53153101D01*
X74233772Y-53116995D01*
X74226752Y-53093853D01*
X74200834Y-53008416D01*
X74189713Y-52895500D01*
X74200834Y-52782584D01*
X74233771Y-52674008D01*
X74233772Y-52674005D01*
X74253604Y-52636902D01*
X74287256Y-52573943D01*
X74359236Y-52486236D01*
X74446943Y-52414256D01*
X74528359Y-52370739D01*
X74548734Y-52357125D01*
X74566061Y-52339798D01*
X74579674Y-52319424D01*
X74589052Y-52296785D01*
X74593832Y-52272752D01*
X74593832Y-52248248D01*
X74589052Y-52224215D01*
X74579674Y-52201576D01*
X74566060Y-52181201D01*
X74548733Y-52163874D01*
X74528359Y-52150261D01*
X74446943Y-52106744D01*
X74359236Y-52034764D01*
X74287256Y-51947057D01*
X74236247Y-51851625D01*
X74233772Y-51846995D01*
X74233771Y-51846992D01*
X74200834Y-51738416D01*
X74189713Y-51625500D01*
X74200834Y-51512584D01*
X74233771Y-51404008D01*
X74233772Y-51404005D01*
X74265311Y-51345000D01*
X74287256Y-51303943D01*
X74359236Y-51216236D01*
X74436146Y-51153117D01*
X74453465Y-51135798D01*
X74467079Y-51115423D01*
X74476457Y-51092784D01*
X74481237Y-51068751D01*
X74481237Y-51044247D01*
X74476457Y-51020214D01*
X74467079Y-50997575D01*
X74453466Y-50977201D01*
X74436139Y-50959874D01*
X74415764Y-50946260D01*
X74393125Y-50936882D01*
X74369092Y-50932102D01*
X74356840Y-50931500D01*
X74192500Y-50931500D01*
X74192500Y-49779500D01*
X75794500Y-49779500D01*
X75794500Y-50931500D01*
G37*
G36*
X71281049Y-50115616D02*
G01*
X71392234Y-50137732D01*
X71601703Y-50224497D01*
X71790220Y-50350460D01*
X71950540Y-50510780D01*
X72076503Y-50699297D01*
X72163268Y-50908766D01*
X72177342Y-50979519D01*
X72207500Y-51131135D01*
X72207500Y-51357865D01*
X72192599Y-51432778D01*
X72163268Y-51580234D01*
X72144518Y-51625500D01*
X72084570Y-51770229D01*
X72076503Y-51789703D01*
X71950540Y-51978220D01*
X71790220Y-52138540D01*
X71601703Y-52264503D01*
X71392234Y-52351268D01*
X71281049Y-52373384D01*
X71169865Y-52395500D01*
X70943135Y-52395500D01*
X70831951Y-52373384D01*
X70720766Y-52351268D01*
X70511297Y-52264503D01*
X70322780Y-52138540D01*
X70162460Y-51978220D01*
X70036497Y-51789703D01*
X70028431Y-51770229D01*
X69968482Y-51625500D01*
X69949732Y-51580234D01*
X69920401Y-51432778D01*
X69905500Y-51357865D01*
X69905500Y-51131135D01*
X69935658Y-50979519D01*
X69949732Y-50908766D01*
X70036497Y-50699297D01*
X70162460Y-50510780D01*
X70322780Y-50350460D01*
X70511297Y-50224497D01*
X70720766Y-50137732D01*
X70831951Y-50115616D01*
X70943135Y-50093500D01*
X71169865Y-50093500D01*
X71281049Y-50115616D01*
G37*
G36*
X62047500Y-52395500D02*
G01*
X59745500Y-52395500D01*
X59745500Y-50093500D01*
X62047500Y-50093500D01*
X62047500Y-52395500D01*
G37*
G36*
X130042228Y-50703703D02*
G01*
X130197100Y-50767853D01*
X130336481Y-50860985D01*
X130455015Y-50979519D01*
X130548147Y-51118900D01*
X130612297Y-51273772D01*
X130645000Y-51438184D01*
X130645000Y-51605816D01*
X130612297Y-51770228D01*
X130548147Y-51925100D01*
X130455015Y-52064481D01*
X130336481Y-52183015D01*
X130197100Y-52276147D01*
X130042228Y-52340297D01*
X129877816Y-52373000D01*
X129710184Y-52373000D01*
X129545772Y-52340297D01*
X129390900Y-52276147D01*
X129251519Y-52183015D01*
X129132985Y-52064481D01*
X129039853Y-51925100D01*
X128975703Y-51770228D01*
X128943000Y-51605816D01*
X128943000Y-51438184D01*
X128975703Y-51273772D01*
X129039853Y-51118900D01*
X129132985Y-50979519D01*
X129251519Y-50860985D01*
X129390900Y-50767853D01*
X129545772Y-50703703D01*
X129710184Y-50671000D01*
X129877816Y-50671000D01*
X130042228Y-50703703D01*
G37*
G36*
X113265442Y-49785518D02*
G01*
X113331627Y-49792037D01*
X113501466Y-49843557D01*
X113657991Y-49927222D01*
X113680645Y-49945814D01*
X113795186Y-50039814D01*
X113862481Y-50121815D01*
X113907778Y-50177009D01*
X113991443Y-50333534D01*
X114042963Y-50503373D01*
X114060359Y-50680000D01*
X114042963Y-50856627D01*
X113991443Y-51026466D01*
X113907778Y-51182991D01*
X113880494Y-51216236D01*
X113795186Y-51320186D01*
X113693729Y-51403448D01*
X113657991Y-51432778D01*
X113501466Y-51516443D01*
X113331627Y-51567963D01*
X113265443Y-51574481D01*
X113199260Y-51581000D01*
X112860740Y-51581000D01*
X112794558Y-51574482D01*
X112728373Y-51567963D01*
X112558534Y-51516443D01*
X112402009Y-51432778D01*
X112366271Y-51403448D01*
X112264814Y-51320186D01*
X112179506Y-51216236D01*
X112152222Y-51182991D01*
X112068557Y-51026466D01*
X112017037Y-50856627D01*
X111999641Y-50680000D01*
X112017037Y-50503373D01*
X112068557Y-50333534D01*
X112152222Y-50177009D01*
X112197519Y-50121815D01*
X112264814Y-50039814D01*
X112379355Y-49945814D01*
X112402009Y-49927222D01*
X112558534Y-49843557D01*
X112728373Y-49792037D01*
X112794558Y-49785518D01*
X112860740Y-49779000D01*
X113199260Y-49779000D01*
X113265442Y-49785518D01*
G37*
G36*
X120894751Y-49689973D02*
G01*
X120976627Y-49698037D01*
X121146466Y-49749557D01*
X121302991Y-49833222D01*
X121315584Y-49843557D01*
X121440186Y-49945814D01*
X121509775Y-50030610D01*
X121552778Y-50083009D01*
X121552779Y-50083011D01*
X121628406Y-50224497D01*
X121636443Y-50239534D01*
X121687963Y-50409373D01*
X121705359Y-50586000D01*
X121687963Y-50762627D01*
X121643632Y-50908766D01*
X121636442Y-50932468D01*
X121634083Y-50936882D01*
X121552778Y-51088991D01*
X121528232Y-51118900D01*
X121440186Y-51226186D01*
X121345437Y-51303943D01*
X121302991Y-51338778D01*
X121146466Y-51422443D01*
X120976627Y-51473963D01*
X120910442Y-51480482D01*
X120844260Y-51487000D01*
X120455740Y-51487000D01*
X120389558Y-51480482D01*
X120323373Y-51473963D01*
X120153534Y-51422443D01*
X119997009Y-51338778D01*
X119954563Y-51303943D01*
X119859814Y-51226186D01*
X119771768Y-51118900D01*
X119747222Y-51088991D01*
X119665917Y-50936882D01*
X119663558Y-50932468D01*
X119656368Y-50908766D01*
X119612037Y-50762627D01*
X119594641Y-50586000D01*
X119612037Y-50409373D01*
X119663557Y-50239534D01*
X119671595Y-50224497D01*
X119747221Y-50083011D01*
X119747222Y-50083009D01*
X119790225Y-50030610D01*
X119859814Y-49945814D01*
X119984416Y-49843557D01*
X119997009Y-49833222D01*
X120153534Y-49749557D01*
X120323373Y-49698037D01*
X120405249Y-49689973D01*
X120455740Y-49685000D01*
X120844260Y-49685000D01*
X120894751Y-49689973D01*
G37*
G36*
X94228228Y-49219703D02*
G01*
X94383100Y-49283853D01*
X94522481Y-49376985D01*
X94641015Y-49495519D01*
X94734147Y-49634900D01*
X94798297Y-49789772D01*
X94831000Y-49954184D01*
X94831000Y-50121816D01*
X94798297Y-50286228D01*
X94734147Y-50441100D01*
X94641015Y-50580481D01*
X94522481Y-50699015D01*
X94383100Y-50792147D01*
X94228228Y-50856297D01*
X94063816Y-50889000D01*
X93896184Y-50889000D01*
X93731772Y-50856297D01*
X93576900Y-50792147D01*
X93437519Y-50699015D01*
X93318985Y-50580481D01*
X93225853Y-50441100D01*
X93161703Y-50286228D01*
X93129000Y-50121816D01*
X93129000Y-49954184D01*
X93161703Y-49789772D01*
X93225853Y-49634900D01*
X93318985Y-49495519D01*
X93437519Y-49376985D01*
X93576900Y-49283853D01*
X93731772Y-49219703D01*
X93896184Y-49187000D01*
X94063816Y-49187000D01*
X94228228Y-49219703D01*
G37*
G36*
X81528228Y-49219703D02*
G01*
X81683100Y-49283853D01*
X81822481Y-49376985D01*
X81941015Y-49495519D01*
X82034147Y-49634900D01*
X82098297Y-49789772D01*
X82131000Y-49954184D01*
X82131000Y-50121816D01*
X82098297Y-50286228D01*
X82034147Y-50441100D01*
X81941015Y-50580481D01*
X81822481Y-50699015D01*
X81683100Y-50792147D01*
X81528228Y-50856297D01*
X81363816Y-50889000D01*
X81196184Y-50889000D01*
X81031772Y-50856297D01*
X80876900Y-50792147D01*
X80737519Y-50699015D01*
X80618985Y-50580481D01*
X80525853Y-50441100D01*
X80461703Y-50286228D01*
X80429000Y-50121816D01*
X80429000Y-49954184D01*
X80461703Y-49789772D01*
X80525853Y-49634900D01*
X80618985Y-49495519D01*
X80737519Y-49376985D01*
X80876900Y-49283853D01*
X81031772Y-49219703D01*
X81196184Y-49187000D01*
X81363816Y-49187000D01*
X81528228Y-49219703D01*
G37*
G36*
X106904549Y-48401116D02*
G01*
X107015734Y-48423232D01*
X107225203Y-48509997D01*
X107413720Y-48635960D01*
X107574040Y-48796280D01*
X107700003Y-48984797D01*
X107757462Y-49123514D01*
X107786768Y-49194267D01*
X107826697Y-49395000D01*
X107831000Y-49416636D01*
X107831000Y-49643364D01*
X107786768Y-49865734D01*
X107700003Y-50075203D01*
X107574040Y-50263720D01*
X107413720Y-50424040D01*
X107225203Y-50550003D01*
X107015734Y-50636768D01*
X106904549Y-50658884D01*
X106793365Y-50681000D01*
X106566635Y-50681000D01*
X106455451Y-50658884D01*
X106344266Y-50636768D01*
X106134797Y-50550003D01*
X105946280Y-50424040D01*
X105785960Y-50263720D01*
X105659997Y-50075203D01*
X105573232Y-49865734D01*
X105529000Y-49643364D01*
X105529000Y-49416636D01*
X105533304Y-49395000D01*
X105573232Y-49194267D01*
X105602539Y-49123514D01*
X105659997Y-48984797D01*
X105785960Y-48796280D01*
X105946280Y-48635960D01*
X106134797Y-48509997D01*
X106344266Y-48423232D01*
X106455451Y-48401116D01*
X106566635Y-48379000D01*
X106793365Y-48379000D01*
X106904549Y-48401116D01*
G37*
G36*
X97671000Y-50681000D02*
G01*
X95369000Y-50681000D01*
X95369000Y-48379000D01*
X97671000Y-48379000D01*
X97671000Y-50681000D01*
G37*
G36*
X137466564Y-48009389D02*
G01*
X137635716Y-48079454D01*
X137657835Y-48088616D01*
X137829973Y-48203635D01*
X137976365Y-48350027D01*
X138083254Y-48509997D01*
X138091385Y-48522167D01*
X138170611Y-48713436D01*
X138211000Y-48916484D01*
X138211000Y-49123516D01*
X138170611Y-49326564D01*
X138149726Y-49376985D01*
X138091384Y-49517835D01*
X137976365Y-49689973D01*
X137829973Y-49836365D01*
X137657835Y-49951384D01*
X137657834Y-49951385D01*
X137657833Y-49951385D01*
X137466564Y-50030611D01*
X137263516Y-50071000D01*
X137056484Y-50071000D01*
X136853436Y-50030611D01*
X136662167Y-49951385D01*
X136662166Y-49951385D01*
X136662165Y-49951384D01*
X136490027Y-49836365D01*
X136343635Y-49689973D01*
X136228616Y-49517835D01*
X136170274Y-49376985D01*
X136149389Y-49326564D01*
X136109000Y-49123516D01*
X136109000Y-48916484D01*
X136149389Y-48713436D01*
X136228615Y-48522167D01*
X136236747Y-48509997D01*
X136343635Y-48350027D01*
X136490027Y-48203635D01*
X136662165Y-48088616D01*
X136684284Y-48079454D01*
X136853436Y-48009389D01*
X137056484Y-47969000D01*
X137263516Y-47969000D01*
X137466564Y-48009389D01*
G37*
G36*
X130645000Y-49873000D02*
G01*
X128943000Y-49873000D01*
X128943000Y-48171000D01*
X130645000Y-48171000D01*
X130645000Y-49873000D01*
G37*
G36*
X31562345Y-47343442D02*
G01*
X31652548Y-47352326D01*
X31826157Y-47404990D01*
X31986156Y-47490511D01*
X32002782Y-47504156D01*
X32126397Y-47605603D01*
X32184999Y-47677011D01*
X32241489Y-47745844D01*
X32327010Y-47905843D01*
X32379674Y-48079452D01*
X32397456Y-48260000D01*
X32379674Y-48440548D01*
X32327010Y-48614157D01*
X32241489Y-48774156D01*
X32223332Y-48796280D01*
X32126397Y-48914397D01*
X32029729Y-48993729D01*
X31986156Y-49029489D01*
X31826157Y-49115010D01*
X31652548Y-49167674D01*
X31562345Y-49176558D01*
X31517245Y-49181000D01*
X30966755Y-49181000D01*
X30921655Y-49176558D01*
X30831452Y-49167674D01*
X30657843Y-49115010D01*
X30497844Y-49029489D01*
X30454271Y-48993729D01*
X30357603Y-48914397D01*
X30260668Y-48796280D01*
X30242511Y-48774156D01*
X30156990Y-48614157D01*
X30104326Y-48440548D01*
X30086544Y-48260000D01*
X30104326Y-48079452D01*
X30156990Y-47905843D01*
X30242511Y-47745844D01*
X30299001Y-47677011D01*
X30357603Y-47605603D01*
X30481218Y-47504156D01*
X30497844Y-47490511D01*
X30657843Y-47404990D01*
X30831452Y-47352326D01*
X30921655Y-47343442D01*
X30966755Y-47339000D01*
X31517245Y-47339000D01*
X31562345Y-47343442D01*
G37*
G36*
X113265442Y-47285518D02*
G01*
X113331627Y-47292037D01*
X113501466Y-47343557D01*
X113657991Y-47427222D01*
X113693729Y-47456552D01*
X113795186Y-47539814D01*
X113878448Y-47641271D01*
X113907778Y-47677009D01*
X113991443Y-47833534D01*
X114042963Y-48003373D01*
X114060359Y-48180000D01*
X114042963Y-48356627D01*
X113991443Y-48526466D01*
X113907778Y-48682991D01*
X113882793Y-48713435D01*
X113795186Y-48820186D01*
X113693729Y-48903448D01*
X113657991Y-48932778D01*
X113501466Y-49016443D01*
X113331627Y-49067963D01*
X113265442Y-49074482D01*
X113199260Y-49081000D01*
X112860740Y-49081000D01*
X112794558Y-49074482D01*
X112728373Y-49067963D01*
X112558534Y-49016443D01*
X112402009Y-48932778D01*
X112366271Y-48903448D01*
X112264814Y-48820186D01*
X112177207Y-48713435D01*
X112152222Y-48682991D01*
X112068557Y-48526466D01*
X112017037Y-48356627D01*
X111999641Y-48180000D01*
X112017037Y-48003373D01*
X112068557Y-47833534D01*
X112152222Y-47677009D01*
X112181552Y-47641271D01*
X112264814Y-47539814D01*
X112366271Y-47456552D01*
X112402009Y-47427222D01*
X112558534Y-47343557D01*
X112728373Y-47292037D01*
X112794558Y-47285518D01*
X112860740Y-47279000D01*
X113199260Y-47279000D01*
X113265442Y-47285518D01*
G37*
G36*
X53660345Y-46073442D02*
G01*
X53750548Y-46082326D01*
X53924157Y-46134990D01*
X54084156Y-46220511D01*
X54100782Y-46234156D01*
X54224397Y-46335603D01*
X54303729Y-46432271D01*
X54339489Y-46475844D01*
X54425010Y-46635843D01*
X54477674Y-46809452D01*
X54495456Y-46990000D01*
X54477674Y-47170548D01*
X54425010Y-47344157D01*
X54339489Y-47504156D01*
X54310225Y-47539814D01*
X54224397Y-47644397D01*
X54127729Y-47723729D01*
X54084156Y-47759489D01*
X53924157Y-47845010D01*
X53750548Y-47897674D01*
X53667625Y-47905841D01*
X53615245Y-47911000D01*
X53064755Y-47911000D01*
X53012375Y-47905841D01*
X52929452Y-47897674D01*
X52755843Y-47845010D01*
X52595844Y-47759489D01*
X52552271Y-47723729D01*
X52455603Y-47644397D01*
X52369775Y-47539814D01*
X52340511Y-47504156D01*
X52254990Y-47344157D01*
X52202326Y-47170548D01*
X52184544Y-46990000D01*
X52202326Y-46809452D01*
X52254990Y-46635843D01*
X52340511Y-46475844D01*
X52376271Y-46432271D01*
X52455603Y-46335603D01*
X52579218Y-46234156D01*
X52595844Y-46220511D01*
X52755843Y-46134990D01*
X52929452Y-46082326D01*
X53019655Y-46073442D01*
X53064755Y-46069000D01*
X53615245Y-46069000D01*
X53660345Y-46073442D01*
G37*
G36*
X137466564Y-45469389D02*
G01*
X137635716Y-45539454D01*
X137657835Y-45548616D01*
X137735040Y-45600203D01*
X137829973Y-45663635D01*
X137976365Y-45810027D01*
X138091385Y-45982167D01*
X138170611Y-46173436D01*
X138211000Y-46376484D01*
X138211000Y-46583516D01*
X138170611Y-46786564D01*
X138098366Y-46960980D01*
X138091384Y-46977835D01*
X137976365Y-47149973D01*
X137829973Y-47296365D01*
X137657835Y-47411384D01*
X137657834Y-47411385D01*
X137657833Y-47411385D01*
X137466564Y-47490611D01*
X137263516Y-47531000D01*
X137056484Y-47531000D01*
X136853436Y-47490611D01*
X136662167Y-47411385D01*
X136662166Y-47411385D01*
X136662165Y-47411384D01*
X136490027Y-47296365D01*
X136343635Y-47149973D01*
X136228616Y-46977835D01*
X136221634Y-46960980D01*
X136149389Y-46786564D01*
X136109000Y-46583516D01*
X136109000Y-46376484D01*
X136149389Y-46173436D01*
X136228615Y-45982167D01*
X136343635Y-45810027D01*
X136490027Y-45663635D01*
X136584960Y-45600203D01*
X136662165Y-45548616D01*
X136684284Y-45539454D01*
X136853436Y-45469389D01*
X137056484Y-45429000D01*
X137263516Y-45429000D01*
X137466564Y-45469389D01*
G37*
G36*
X72701728Y-45600203D02*
G01*
X72856600Y-45664353D01*
X72995981Y-45757485D01*
X73114515Y-45876019D01*
X73207647Y-46015400D01*
X73271797Y-46170272D01*
X73304500Y-46334684D01*
X73304500Y-46502316D01*
X73271797Y-46666728D01*
X73207647Y-46821600D01*
X73114515Y-46960981D01*
X72995981Y-47079515D01*
X72856600Y-47172647D01*
X72701728Y-47236797D01*
X72537316Y-47269500D01*
X72369684Y-47269500D01*
X72205272Y-47236797D01*
X72050400Y-47172647D01*
X71911019Y-47079515D01*
X71792485Y-46960981D01*
X71699353Y-46821600D01*
X71635203Y-46666728D01*
X71602500Y-46502316D01*
X71602500Y-46334684D01*
X71635203Y-46170272D01*
X71699353Y-46015400D01*
X71792485Y-45876019D01*
X71911019Y-45757485D01*
X72050400Y-45664353D01*
X72205272Y-45600203D01*
X72369684Y-45567500D01*
X72537316Y-45567500D01*
X72701728Y-45600203D01*
G37*
G36*
X60001728Y-45600203D02*
G01*
X60156600Y-45664353D01*
X60295981Y-45757485D01*
X60414515Y-45876019D01*
X60507647Y-46015400D01*
X60571797Y-46170272D01*
X60604500Y-46334684D01*
X60604500Y-46502316D01*
X60571797Y-46666728D01*
X60507647Y-46821600D01*
X60414515Y-46960981D01*
X60295981Y-47079515D01*
X60156600Y-47172647D01*
X60001728Y-47236797D01*
X59837316Y-47269500D01*
X59669684Y-47269500D01*
X59505272Y-47236797D01*
X59350400Y-47172647D01*
X59211019Y-47079515D01*
X59092485Y-46960981D01*
X58999353Y-46821600D01*
X58935203Y-46666728D01*
X58902500Y-46502316D01*
X58902500Y-46334684D01*
X58935203Y-46170272D01*
X58999353Y-46015400D01*
X59092485Y-45876019D01*
X59211019Y-45757485D01*
X59350400Y-45664353D01*
X59505272Y-45600203D01*
X59669684Y-45567500D01*
X59837316Y-45567500D01*
X60001728Y-45600203D01*
G37*
G36*
X81528228Y-45409703D02*
G01*
X81683100Y-45473853D01*
X81822481Y-45566985D01*
X81941015Y-45685519D01*
X82034147Y-45824900D01*
X82098297Y-45979772D01*
X82131000Y-46144184D01*
X82131000Y-46311816D01*
X82098297Y-46476228D01*
X82034147Y-46631100D01*
X81941015Y-46770481D01*
X81822481Y-46889015D01*
X81683100Y-46982147D01*
X81528228Y-47046297D01*
X81363816Y-47079000D01*
X81196184Y-47079000D01*
X81031772Y-47046297D01*
X80876900Y-46982147D01*
X80737519Y-46889015D01*
X80618985Y-46770481D01*
X80525853Y-46631100D01*
X80461703Y-46476228D01*
X80429000Y-46311816D01*
X80429000Y-46144184D01*
X80461703Y-45979772D01*
X80525853Y-45824900D01*
X80618985Y-45685519D01*
X80737519Y-45566985D01*
X80876900Y-45473853D01*
X81031772Y-45409703D01*
X81196184Y-45377000D01*
X81363816Y-45377000D01*
X81528228Y-45409703D01*
G37*
G36*
X94228228Y-45409703D02*
G01*
X94383100Y-45473853D01*
X94522481Y-45566985D01*
X94641015Y-45685519D01*
X94734147Y-45824900D01*
X94798297Y-45979772D01*
X94831000Y-46144184D01*
X94831000Y-46311816D01*
X94798297Y-46476228D01*
X94734147Y-46631100D01*
X94641015Y-46770481D01*
X94522481Y-46889015D01*
X94383100Y-46982147D01*
X94228228Y-47046297D01*
X94063816Y-47079000D01*
X93896184Y-47079000D01*
X93731772Y-47046297D01*
X93576900Y-46982147D01*
X93437519Y-46889015D01*
X93318985Y-46770481D01*
X93225853Y-46631100D01*
X93161703Y-46476228D01*
X93129000Y-46311816D01*
X93129000Y-46144184D01*
X93161703Y-45979772D01*
X93225853Y-45824900D01*
X93318985Y-45685519D01*
X93437519Y-45566985D01*
X93576900Y-45473853D01*
X93731772Y-45409703D01*
X93896184Y-45377000D01*
X94063816Y-45377000D01*
X94228228Y-45409703D01*
G37*
G36*
X31562345Y-44803442D02*
G01*
X31652548Y-44812326D01*
X31826157Y-44864990D01*
X31986156Y-44950511D01*
X32002782Y-44964156D01*
X32126397Y-45065603D01*
X32205729Y-45162271D01*
X32241489Y-45205844D01*
X32327010Y-45365843D01*
X32379674Y-45539452D01*
X32397456Y-45720000D01*
X32379674Y-45900548D01*
X32327010Y-46074157D01*
X32241489Y-46234156D01*
X32205729Y-46277729D01*
X32126397Y-46374397D01*
X32055257Y-46432779D01*
X31986156Y-46489489D01*
X31826157Y-46575010D01*
X31652548Y-46627674D01*
X31569625Y-46635841D01*
X31517245Y-46641000D01*
X30966755Y-46641000D01*
X30914375Y-46635841D01*
X30831452Y-46627674D01*
X30657843Y-46575010D01*
X30497844Y-46489489D01*
X30428743Y-46432779D01*
X30357603Y-46374397D01*
X30278271Y-46277729D01*
X30242511Y-46234156D01*
X30156990Y-46074157D01*
X30104326Y-45900548D01*
X30086544Y-45720000D01*
X30104326Y-45539452D01*
X30156990Y-45365843D01*
X30242511Y-45205844D01*
X30278271Y-45162271D01*
X30357603Y-45065603D01*
X30481218Y-44964156D01*
X30497844Y-44950511D01*
X30657843Y-44864990D01*
X30831452Y-44812326D01*
X30921655Y-44803442D01*
X30966755Y-44799000D01*
X31517245Y-44799000D01*
X31562345Y-44803442D01*
G37*
G36*
X113265442Y-44785518D02*
G01*
X113331627Y-44792037D01*
X113501466Y-44843557D01*
X113657991Y-44927222D01*
X113693729Y-44956552D01*
X113795186Y-45039814D01*
X113878448Y-45141271D01*
X113907778Y-45177009D01*
X113907779Y-45177011D01*
X113976197Y-45305010D01*
X113991443Y-45333534D01*
X114042963Y-45503373D01*
X114060359Y-45680000D01*
X114042963Y-45856627D01*
X113991443Y-46026466D01*
X113907778Y-46182991D01*
X113878448Y-46218729D01*
X113795186Y-46320186D01*
X113726583Y-46376486D01*
X113657991Y-46432778D01*
X113657989Y-46432779D01*
X113527898Y-46502315D01*
X113501466Y-46516443D01*
X113331627Y-46567963D01*
X113265442Y-46574482D01*
X113199260Y-46581000D01*
X112860740Y-46581000D01*
X112794558Y-46574482D01*
X112728373Y-46567963D01*
X112558534Y-46516443D01*
X112532103Y-46502315D01*
X112402011Y-46432779D01*
X112402009Y-46432778D01*
X112333417Y-46376486D01*
X112264814Y-46320186D01*
X112181552Y-46218729D01*
X112152222Y-46182991D01*
X112068557Y-46026466D01*
X112017037Y-45856627D01*
X111999641Y-45680000D01*
X112017037Y-45503373D01*
X112068557Y-45333534D01*
X112083804Y-45305010D01*
X112152221Y-45177011D01*
X112152222Y-45177009D01*
X112181552Y-45141271D01*
X112264814Y-45039814D01*
X112366271Y-44956552D01*
X112402009Y-44927222D01*
X112558534Y-44843557D01*
X112728373Y-44792037D01*
X112794557Y-44785519D01*
X112860740Y-44779000D01*
X113199260Y-44779000D01*
X113265442Y-44785518D01*
G37*
G36*
X53660345Y-43533442D02*
G01*
X53750548Y-43542326D01*
X53924157Y-43594990D01*
X54084156Y-43680511D01*
X54100782Y-43694156D01*
X54224397Y-43795603D01*
X54300205Y-43887977D01*
X54339489Y-43935844D01*
X54400051Y-44049148D01*
X54420325Y-44087077D01*
X54425010Y-44095843D01*
X54477674Y-44269452D01*
X54495456Y-44450000D01*
X54477674Y-44630548D01*
X54425010Y-44804157D01*
X54339489Y-44964156D01*
X54303729Y-45007729D01*
X54224397Y-45104397D01*
X54135918Y-45177009D01*
X54084156Y-45219489D01*
X53924157Y-45305010D01*
X53750548Y-45357674D01*
X53667625Y-45365841D01*
X53615245Y-45371000D01*
X53064755Y-45371000D01*
X53012375Y-45365841D01*
X52929452Y-45357674D01*
X52755843Y-45305010D01*
X52595844Y-45219489D01*
X52544082Y-45177009D01*
X52455603Y-45104397D01*
X52376271Y-45007729D01*
X52340511Y-44964156D01*
X52254990Y-44804157D01*
X52202326Y-44630548D01*
X52184544Y-44450000D01*
X52202326Y-44269452D01*
X52254990Y-44095843D01*
X52259676Y-44087077D01*
X52279949Y-44049148D01*
X52340511Y-43935844D01*
X52379795Y-43887977D01*
X52455603Y-43795603D01*
X52579218Y-43694156D01*
X52595844Y-43680511D01*
X52755843Y-43594990D01*
X52929452Y-43542326D01*
X53019655Y-43533442D01*
X53064755Y-43529000D01*
X53615245Y-43529000D01*
X53660345Y-43533442D01*
G37*
G36*
X138211000Y-44991000D02*
G01*
X136109000Y-44991000D01*
X136109000Y-42889000D01*
X138211000Y-42889000D01*
X138211000Y-44991000D01*
G37*
G36*
X103136000Y-44906500D02*
G01*
X101334000Y-44906500D01*
X101334000Y-43104500D01*
X103136000Y-43104500D01*
X103136000Y-44906500D01*
G37*
G36*
X132502228Y-43123703D02*
G01*
X132657100Y-43187853D01*
X132796481Y-43280985D01*
X132915015Y-43399519D01*
X133008147Y-43538900D01*
X133072297Y-43693772D01*
X133105000Y-43858184D01*
X133105000Y-44025816D01*
X133072297Y-44190228D01*
X133008147Y-44345100D01*
X132915015Y-44484481D01*
X132796481Y-44603015D01*
X132657100Y-44696147D01*
X132502228Y-44760297D01*
X132337816Y-44793000D01*
X132170184Y-44793000D01*
X132005772Y-44760297D01*
X131850900Y-44696147D01*
X131711519Y-44603015D01*
X131592985Y-44484481D01*
X131499853Y-44345100D01*
X131435703Y-44190228D01*
X131403000Y-44025816D01*
X131403000Y-43858184D01*
X131435703Y-43693772D01*
X131499853Y-43538900D01*
X131592985Y-43399519D01*
X131711519Y-43280985D01*
X131850900Y-43187853D01*
X132005772Y-43123703D01*
X132170184Y-43091000D01*
X132337816Y-43091000D01*
X132502228Y-43123703D01*
G37*
G36*
X127502228Y-43123703D02*
G01*
X127657100Y-43187853D01*
X127796481Y-43280985D01*
X127915015Y-43399519D01*
X128008147Y-43538900D01*
X128072297Y-43693772D01*
X128105000Y-43858184D01*
X128105000Y-44025816D01*
X128072297Y-44190228D01*
X128008147Y-44345100D01*
X127915015Y-44484481D01*
X127796481Y-44603015D01*
X127657100Y-44696147D01*
X127502228Y-44760297D01*
X127337816Y-44793000D01*
X127170184Y-44793000D01*
X127005772Y-44760297D01*
X126850900Y-44696147D01*
X126711519Y-44603015D01*
X126592985Y-44484481D01*
X126499853Y-44345100D01*
X126435703Y-44190228D01*
X126403000Y-44025816D01*
X126403000Y-43858184D01*
X126435703Y-43693772D01*
X126499853Y-43538900D01*
X126592985Y-43399519D01*
X126711519Y-43280985D01*
X126850900Y-43187853D01*
X127005772Y-43123703D01*
X127170184Y-43091000D01*
X127337816Y-43091000D01*
X127502228Y-43123703D01*
G37*
G36*
X32251561Y-42262966D02*
G01*
X32284383Y-42272923D01*
X32314632Y-42289092D01*
X32341148Y-42310852D01*
X32362908Y-42337368D01*
X32379077Y-42367617D01*
X32389034Y-42400439D01*
X32393000Y-42440713D01*
X32393000Y-43919287D01*
X32389034Y-43959561D01*
X32379077Y-43992383D01*
X32362908Y-44022632D01*
X32341148Y-44049148D01*
X32314632Y-44070908D01*
X32284383Y-44087077D01*
X32251561Y-44097034D01*
X32211287Y-44101000D01*
X30272713Y-44101000D01*
X30232439Y-44097034D01*
X30199617Y-44087077D01*
X30169368Y-44070908D01*
X30142852Y-44049148D01*
X30121092Y-44022632D01*
X30104923Y-43992383D01*
X30094966Y-43959561D01*
X30091000Y-43919287D01*
X30091000Y-42440713D01*
X30094966Y-42400439D01*
X30104923Y-42367617D01*
X30121092Y-42337368D01*
X30142852Y-42310852D01*
X30169368Y-42289092D01*
X30199617Y-42272923D01*
X30232439Y-42262966D01*
X30272713Y-42259000D01*
X32211287Y-42259000D01*
X32251561Y-42262966D01*
G37*
G36*
X40955512Y-42262966D02*
G01*
X41050548Y-42272326D01*
X41224157Y-42324990D01*
X41384156Y-42410511D01*
X41400782Y-42424156D01*
X41524397Y-42525603D01*
X41603729Y-42622271D01*
X41639489Y-42665844D01*
X41725010Y-42825843D01*
X41777674Y-42999452D01*
X41795456Y-43180000D01*
X41777674Y-43360548D01*
X41725010Y-43534157D01*
X41639489Y-43694156D01*
X41603729Y-43737729D01*
X41524397Y-43834397D01*
X41446777Y-43898097D01*
X41384156Y-43949489D01*
X41224157Y-44035010D01*
X41050548Y-44087674D01*
X40967625Y-44095841D01*
X40915245Y-44101000D01*
X40364755Y-44101000D01*
X40312375Y-44095841D01*
X40229452Y-44087674D01*
X40055843Y-44035010D01*
X39895844Y-43949489D01*
X39833223Y-43898097D01*
X39755603Y-43834397D01*
X39676271Y-43737729D01*
X39640511Y-43694156D01*
X39554990Y-43534157D01*
X39502326Y-43360548D01*
X39484544Y-43180000D01*
X39502326Y-42999452D01*
X39554990Y-42825843D01*
X39640511Y-42665844D01*
X39676271Y-42622271D01*
X39755603Y-42525603D01*
X39879218Y-42424156D01*
X39895844Y-42410511D01*
X40055843Y-42324990D01*
X40229452Y-42272326D01*
X40324488Y-42262966D01*
X40364755Y-42259000D01*
X40915245Y-42259000D01*
X40955512Y-42262966D01*
G37*
G36*
X113913600Y-42282989D02*
G01*
X113946652Y-42293015D01*
X113977103Y-42309292D01*
X114003799Y-42331201D01*
X114025708Y-42357897D01*
X114041985Y-42388348D01*
X114052011Y-42421400D01*
X114056000Y-42461903D01*
X114056000Y-43898097D01*
X114052011Y-43938600D01*
X114041985Y-43971652D01*
X114025708Y-44002103D01*
X114003799Y-44028799D01*
X113977103Y-44050708D01*
X113946652Y-44066985D01*
X113913600Y-44077011D01*
X113873097Y-44081000D01*
X112186903Y-44081000D01*
X112146400Y-44077011D01*
X112113348Y-44066985D01*
X112082897Y-44050708D01*
X112056201Y-44028799D01*
X112034292Y-44002103D01*
X112018015Y-43971652D01*
X112007989Y-43938600D01*
X112004000Y-43898097D01*
X112004000Y-42461903D01*
X112007989Y-42421400D01*
X112018015Y-42388348D01*
X112034292Y-42357897D01*
X112056201Y-42331201D01*
X112082897Y-42309292D01*
X112113348Y-42293015D01*
X112146400Y-42282989D01*
X112186903Y-42279000D01*
X113873097Y-42279000D01*
X113913600Y-42282989D01*
G37*
G36*
X94228228Y-41599703D02*
G01*
X94383100Y-41663853D01*
X94522481Y-41756985D01*
X94641015Y-41875519D01*
X94734147Y-42014900D01*
X94798297Y-42169772D01*
X94831000Y-42334184D01*
X94831000Y-42501816D01*
X94798297Y-42666228D01*
X94734147Y-42821100D01*
X94641015Y-42960481D01*
X94522481Y-43079015D01*
X94383100Y-43172147D01*
X94228228Y-43236297D01*
X94063816Y-43269000D01*
X93896184Y-43269000D01*
X93731772Y-43236297D01*
X93576900Y-43172147D01*
X93437519Y-43079015D01*
X93318985Y-42960481D01*
X93225853Y-42821100D01*
X93161703Y-42666228D01*
X93129000Y-42501816D01*
X93129000Y-42334184D01*
X93161703Y-42169772D01*
X93225853Y-42014900D01*
X93318985Y-41875519D01*
X93437519Y-41756985D01*
X93576900Y-41663853D01*
X93731772Y-41599703D01*
X93896184Y-41567000D01*
X94063816Y-41567000D01*
X94228228Y-41599703D01*
G37*
G36*
X81528228Y-41599703D02*
G01*
X81683100Y-41663853D01*
X81822481Y-41756985D01*
X81941015Y-41875519D01*
X82034147Y-42014900D01*
X82098297Y-42169772D01*
X82131000Y-42334184D01*
X82131000Y-42501816D01*
X82098297Y-42666228D01*
X82034147Y-42821100D01*
X81941015Y-42960481D01*
X81822481Y-43079015D01*
X81683100Y-43172147D01*
X81528228Y-43236297D01*
X81363816Y-43269000D01*
X81196184Y-43269000D01*
X81031772Y-43236297D01*
X80876900Y-43172147D01*
X80737519Y-43079015D01*
X80618985Y-42960481D01*
X80525853Y-42821100D01*
X80461703Y-42666228D01*
X80429000Y-42501816D01*
X80429000Y-42334184D01*
X80461703Y-42169772D01*
X80525853Y-42014900D01*
X80618985Y-41875519D01*
X80737519Y-41756985D01*
X80876900Y-41663853D01*
X81031772Y-41599703D01*
X81196184Y-41567000D01*
X81363816Y-41567000D01*
X81528228Y-41599703D01*
G37*
G36*
X53660345Y-40993442D02*
G01*
X53750548Y-41002326D01*
X53924157Y-41054990D01*
X54084156Y-41140511D01*
X54102850Y-41155853D01*
X54224397Y-41255603D01*
X54303729Y-41352271D01*
X54339489Y-41395844D01*
X54425010Y-41555843D01*
X54477674Y-41729452D01*
X54495456Y-41910000D01*
X54477674Y-42090548D01*
X54425010Y-42264157D01*
X54425009Y-42264159D01*
X54417076Y-42279000D01*
X54339489Y-42424156D01*
X54303729Y-42467729D01*
X54224397Y-42564397D01*
X54127729Y-42643729D01*
X54084156Y-42679489D01*
X53924157Y-42765010D01*
X53750548Y-42817674D01*
X53667625Y-42825841D01*
X53615245Y-42831000D01*
X53064755Y-42831000D01*
X53012375Y-42825841D01*
X52929452Y-42817674D01*
X52755843Y-42765010D01*
X52595844Y-42679489D01*
X52552271Y-42643729D01*
X52455603Y-42564397D01*
X52376271Y-42467729D01*
X52340511Y-42424156D01*
X52262924Y-42279000D01*
X52254991Y-42264159D01*
X52254990Y-42264157D01*
X52202326Y-42090548D01*
X52184544Y-41910000D01*
X52202326Y-41729452D01*
X52254990Y-41555843D01*
X52340511Y-41395844D01*
X52376271Y-41352271D01*
X52455603Y-41255603D01*
X52577150Y-41155853D01*
X52595844Y-41140511D01*
X52755843Y-41054990D01*
X52929452Y-41002326D01*
X53019655Y-40993442D01*
X53064755Y-40989000D01*
X53615245Y-40989000D01*
X53660345Y-40993442D01*
G37*
G36*
X60446228Y-41091703D02*
G01*
X60601100Y-41155853D01*
X60740481Y-41248985D01*
X60859015Y-41367519D01*
X60952147Y-41506900D01*
X61016297Y-41661772D01*
X61049000Y-41826184D01*
X61049000Y-41993816D01*
X61016297Y-42158228D01*
X60952147Y-42313100D01*
X60859015Y-42452481D01*
X60740481Y-42571015D01*
X60601100Y-42664147D01*
X60446228Y-42728297D01*
X60281816Y-42761000D01*
X60114184Y-42761000D01*
X59949772Y-42728297D01*
X59794900Y-42664147D01*
X59655519Y-42571015D01*
X59536985Y-42452481D01*
X59443853Y-42313100D01*
X59379703Y-42158228D01*
X59347000Y-41993816D01*
X59347000Y-41826184D01*
X59379703Y-41661772D01*
X59443853Y-41506900D01*
X59536985Y-41367519D01*
X59655519Y-41248985D01*
X59794900Y-41155853D01*
X59949772Y-41091703D01*
X60114184Y-41059000D01*
X60281816Y-41059000D01*
X60446228Y-41091703D01*
G37*
G36*
X68066228Y-41091703D02*
G01*
X68221100Y-41155853D01*
X68360481Y-41248985D01*
X68479015Y-41367519D01*
X68572147Y-41506900D01*
X68636297Y-41661772D01*
X68669000Y-41826184D01*
X68669000Y-41993816D01*
X68636297Y-42158228D01*
X68572147Y-42313100D01*
X68479015Y-42452481D01*
X68360481Y-42571015D01*
X68221100Y-42664147D01*
X68066228Y-42728297D01*
X67901816Y-42761000D01*
X67734184Y-42761000D01*
X67569772Y-42728297D01*
X67414900Y-42664147D01*
X67275519Y-42571015D01*
X67156985Y-42452481D01*
X67063853Y-42313100D01*
X66999703Y-42158228D01*
X66967000Y-41993816D01*
X66967000Y-41826184D01*
X66999703Y-41661772D01*
X67063853Y-41506900D01*
X67156985Y-41367519D01*
X67275519Y-41248985D01*
X67414900Y-41155853D01*
X67569772Y-41091703D01*
X67734184Y-41059000D01*
X67901816Y-41059000D01*
X68066228Y-41091703D01*
G37*
G36*
X102348512Y-40569427D02*
G01*
X102497812Y-40599124D01*
X102661784Y-40667044D01*
X102809354Y-40765647D01*
X102934853Y-40891146D01*
X103033456Y-41038716D01*
X103101376Y-41202688D01*
X103120934Y-41301015D01*
X103136000Y-41376758D01*
X103136000Y-41554242D01*
X103134656Y-41561000D01*
X103101376Y-41728312D01*
X103033456Y-41892284D01*
X102934853Y-42039854D01*
X102809354Y-42165353D01*
X102661784Y-42263956D01*
X102497812Y-42331876D01*
X102366992Y-42357897D01*
X102323742Y-42366500D01*
X102146258Y-42366500D01*
X102103008Y-42357897D01*
X101972188Y-42331876D01*
X101808216Y-42263956D01*
X101660646Y-42165353D01*
X101535147Y-42039854D01*
X101436544Y-41892284D01*
X101368624Y-41728312D01*
X101335344Y-41561000D01*
X101334000Y-41554242D01*
X101334000Y-41376758D01*
X101349066Y-41301015D01*
X101368624Y-41202688D01*
X101436544Y-41038716D01*
X101535147Y-40891146D01*
X101660646Y-40765647D01*
X101808216Y-40667044D01*
X101972188Y-40599124D01*
X102121488Y-40569427D01*
X102146258Y-40564500D01*
X102323742Y-40564500D01*
X102348512Y-40569427D01*
G37*
G36*
X40960345Y-39723442D02*
G01*
X41050548Y-39732326D01*
X41224157Y-39784990D01*
X41384156Y-39870511D01*
X41402850Y-39885853D01*
X41524397Y-39985603D01*
X41603729Y-40082271D01*
X41639489Y-40125844D01*
X41725010Y-40285843D01*
X41777674Y-40459452D01*
X41795456Y-40640000D01*
X41777674Y-40820548D01*
X41725010Y-40994157D01*
X41639489Y-41154156D01*
X41638096Y-41155853D01*
X41524397Y-41294397D01*
X41435296Y-41367519D01*
X41384156Y-41409489D01*
X41224157Y-41495010D01*
X41050548Y-41547674D01*
X40967625Y-41555841D01*
X40915245Y-41561000D01*
X40364755Y-41561000D01*
X40312375Y-41555841D01*
X40229452Y-41547674D01*
X40055843Y-41495010D01*
X39895844Y-41409489D01*
X39844704Y-41367519D01*
X39755603Y-41294397D01*
X39641904Y-41155853D01*
X39640511Y-41154156D01*
X39554990Y-40994157D01*
X39502326Y-40820548D01*
X39484544Y-40640000D01*
X39502326Y-40459452D01*
X39554990Y-40285843D01*
X39640511Y-40125844D01*
X39676271Y-40082271D01*
X39755603Y-39985603D01*
X39877150Y-39885853D01*
X39895844Y-39870511D01*
X40055843Y-39784990D01*
X40229452Y-39732326D01*
X40319655Y-39723442D01*
X40364755Y-39719000D01*
X40915245Y-39719000D01*
X40960345Y-39723442D01*
G37*
G36*
X47238228Y-39821703D02*
G01*
X47393100Y-39885853D01*
X47532481Y-39978985D01*
X47651015Y-40097519D01*
X47744147Y-40236900D01*
X47808297Y-40391772D01*
X47841000Y-40556184D01*
X47841000Y-40723816D01*
X47808297Y-40888228D01*
X47744147Y-41043100D01*
X47651015Y-41182481D01*
X47532481Y-41301015D01*
X47393100Y-41394147D01*
X47238228Y-41458297D01*
X47073816Y-41491000D01*
X46906184Y-41491000D01*
X46741772Y-41458297D01*
X46586900Y-41394147D01*
X46447519Y-41301015D01*
X46328985Y-41182481D01*
X46235853Y-41043100D01*
X46171703Y-40888228D01*
X46139000Y-40723816D01*
X46139000Y-40556184D01*
X46171703Y-40391772D01*
X46235853Y-40236900D01*
X46328985Y-40097519D01*
X46447519Y-39978985D01*
X46586900Y-39885853D01*
X46741772Y-39821703D01*
X46906184Y-39789000D01*
X47073816Y-39789000D01*
X47238228Y-39821703D01*
G37*
G36*
X53660345Y-38453442D02*
G01*
X53750548Y-38462326D01*
X53924157Y-38514990D01*
X54084156Y-38600511D01*
X54102850Y-38615853D01*
X54224397Y-38715603D01*
X54303729Y-38812271D01*
X54339489Y-38855844D01*
X54425010Y-39015843D01*
X54477674Y-39189452D01*
X54495456Y-39370000D01*
X54477674Y-39550548D01*
X54425010Y-39724157D01*
X54339489Y-39884156D01*
X54338096Y-39885853D01*
X54224397Y-40024397D01*
X54135296Y-40097519D01*
X54084156Y-40139489D01*
X53924157Y-40225010D01*
X53750548Y-40277674D01*
X53667625Y-40285841D01*
X53615245Y-40291000D01*
X53064755Y-40291000D01*
X53012375Y-40285841D01*
X52929452Y-40277674D01*
X52755843Y-40225010D01*
X52595844Y-40139489D01*
X52544704Y-40097519D01*
X52455603Y-40024397D01*
X52341904Y-39885853D01*
X52340511Y-39884156D01*
X52254990Y-39724157D01*
X52202326Y-39550548D01*
X52184544Y-39370000D01*
X52202326Y-39189452D01*
X52254990Y-39015843D01*
X52340511Y-38855844D01*
X52376271Y-38812271D01*
X52455603Y-38715603D01*
X52577150Y-38615853D01*
X52595844Y-38600511D01*
X52755843Y-38514990D01*
X52929452Y-38462326D01*
X53019655Y-38453442D01*
X53064755Y-38449000D01*
X53615245Y-38449000D01*
X53660345Y-38453442D01*
G37*
G36*
X60446228Y-38551703D02*
G01*
X60601100Y-38615853D01*
X60740481Y-38708985D01*
X60859015Y-38827519D01*
X60952147Y-38966900D01*
X61016297Y-39121772D01*
X61049000Y-39286184D01*
X61049000Y-39453816D01*
X61016297Y-39618228D01*
X60952147Y-39773100D01*
X60859015Y-39912481D01*
X60740481Y-40031015D01*
X60601100Y-40124147D01*
X60446228Y-40188297D01*
X60281816Y-40221000D01*
X60114184Y-40221000D01*
X59949772Y-40188297D01*
X59794900Y-40124147D01*
X59655519Y-40031015D01*
X59536985Y-39912481D01*
X59443853Y-39773100D01*
X59379703Y-39618228D01*
X59347000Y-39453816D01*
X59347000Y-39286184D01*
X59379703Y-39121772D01*
X59443853Y-38966900D01*
X59536985Y-38827519D01*
X59655519Y-38708985D01*
X59794900Y-38615853D01*
X59949772Y-38551703D01*
X60114184Y-38519000D01*
X60281816Y-38519000D01*
X60446228Y-38551703D01*
G37*
G36*
X68066228Y-38551703D02*
G01*
X68221100Y-38615853D01*
X68360481Y-38708985D01*
X68479015Y-38827519D01*
X68572147Y-38966900D01*
X68636297Y-39121772D01*
X68669000Y-39286184D01*
X68669000Y-39453816D01*
X68636297Y-39618228D01*
X68572147Y-39773100D01*
X68479015Y-39912481D01*
X68360481Y-40031015D01*
X68221100Y-40124147D01*
X68066228Y-40188297D01*
X67901816Y-40221000D01*
X67734184Y-40221000D01*
X67569772Y-40188297D01*
X67414900Y-40124147D01*
X67275519Y-40031015D01*
X67156985Y-39912481D01*
X67063853Y-39773100D01*
X66999703Y-39618228D01*
X66967000Y-39453816D01*
X66967000Y-39286184D01*
X66999703Y-39121772D01*
X67063853Y-38966900D01*
X67156985Y-38827519D01*
X67275519Y-38708985D01*
X67414900Y-38615853D01*
X67569772Y-38551703D01*
X67734184Y-38519000D01*
X67901816Y-38519000D01*
X68066228Y-38551703D01*
G37*
G36*
X102348512Y-38029427D02*
G01*
X102497812Y-38059124D01*
X102661784Y-38127044D01*
X102809354Y-38225647D01*
X102934853Y-38351146D01*
X103033456Y-38498716D01*
X103101376Y-38662688D01*
X103131073Y-38811988D01*
X103136000Y-38836758D01*
X103136000Y-39014242D01*
X103134656Y-39021000D01*
X103101376Y-39188312D01*
X103033456Y-39352284D01*
X102934853Y-39499854D01*
X102809354Y-39625353D01*
X102661784Y-39723956D01*
X102497812Y-39791876D01*
X102348512Y-39821573D01*
X102323742Y-39826500D01*
X102146258Y-39826500D01*
X102121488Y-39821573D01*
X101972188Y-39791876D01*
X101808216Y-39723956D01*
X101660646Y-39625353D01*
X101535147Y-39499854D01*
X101436544Y-39352284D01*
X101368624Y-39188312D01*
X101335344Y-39021000D01*
X101334000Y-39014242D01*
X101334000Y-38836758D01*
X101338927Y-38811988D01*
X101368624Y-38662688D01*
X101436544Y-38498716D01*
X101535147Y-38351146D01*
X101660646Y-38225647D01*
X101808216Y-38127044D01*
X101972188Y-38059124D01*
X102121488Y-38029427D01*
X102146258Y-38024500D01*
X102323742Y-38024500D01*
X102348512Y-38029427D01*
G37*
G36*
X94228228Y-37789703D02*
G01*
X94383100Y-37853853D01*
X94522481Y-37946985D01*
X94641015Y-38065519D01*
X94734147Y-38204900D01*
X94798297Y-38359772D01*
X94831000Y-38524184D01*
X94831000Y-38691816D01*
X94798297Y-38856228D01*
X94734147Y-39011100D01*
X94641015Y-39150481D01*
X94522481Y-39269015D01*
X94383100Y-39362147D01*
X94228228Y-39426297D01*
X94063816Y-39459000D01*
X93896184Y-39459000D01*
X93731772Y-39426297D01*
X93576900Y-39362147D01*
X93437519Y-39269015D01*
X93318985Y-39150481D01*
X93225853Y-39011100D01*
X93161703Y-38856228D01*
X93129000Y-38691816D01*
X93129000Y-38524184D01*
X93161703Y-38359772D01*
X93225853Y-38204900D01*
X93318985Y-38065519D01*
X93437519Y-37946985D01*
X93576900Y-37853853D01*
X93731772Y-37789703D01*
X93896184Y-37757000D01*
X94063816Y-37757000D01*
X94228228Y-37789703D01*
G37*
G36*
X81528228Y-37789703D02*
G01*
X81683100Y-37853853D01*
X81822481Y-37946985D01*
X81941015Y-38065519D01*
X82034147Y-38204900D01*
X82098297Y-38359772D01*
X82131000Y-38524184D01*
X82131000Y-38691816D01*
X82098297Y-38856228D01*
X82034147Y-39011100D01*
X81941015Y-39150481D01*
X81822481Y-39269015D01*
X81683100Y-39362147D01*
X81528228Y-39426297D01*
X81363816Y-39459000D01*
X81196184Y-39459000D01*
X81031772Y-39426297D01*
X80876900Y-39362147D01*
X80737519Y-39269015D01*
X80618985Y-39150481D01*
X80525853Y-39011100D01*
X80461703Y-38856228D01*
X80429000Y-38691816D01*
X80429000Y-38524184D01*
X80461703Y-38359772D01*
X80525853Y-38204900D01*
X80618985Y-38065519D01*
X80737519Y-37946985D01*
X80876900Y-37853853D01*
X81031772Y-37789703D01*
X81196184Y-37757000D01*
X81363816Y-37757000D01*
X81528228Y-37789703D01*
G37*
G36*
X40960345Y-37183442D02*
G01*
X41050548Y-37192326D01*
X41224157Y-37244990D01*
X41384156Y-37330511D01*
X41400782Y-37344156D01*
X41524397Y-37445603D01*
X41603729Y-37542271D01*
X41639489Y-37585844D01*
X41725010Y-37745843D01*
X41777674Y-37919452D01*
X41795456Y-38100000D01*
X41777674Y-38280548D01*
X41725010Y-38454157D01*
X41639489Y-38614156D01*
X41638096Y-38615853D01*
X41524397Y-38754397D01*
X41435296Y-38827519D01*
X41384156Y-38869489D01*
X41224157Y-38955010D01*
X41050548Y-39007674D01*
X40967625Y-39015841D01*
X40915245Y-39021000D01*
X40364755Y-39021000D01*
X40312375Y-39015841D01*
X40229452Y-39007674D01*
X40055843Y-38955010D01*
X39895844Y-38869489D01*
X39844704Y-38827519D01*
X39755603Y-38754397D01*
X39641904Y-38615853D01*
X39640511Y-38614156D01*
X39554990Y-38454157D01*
X39502326Y-38280548D01*
X39484544Y-38100000D01*
X39502326Y-37919452D01*
X39554990Y-37745843D01*
X39640511Y-37585844D01*
X39676271Y-37542271D01*
X39755603Y-37445603D01*
X39879218Y-37344156D01*
X39895844Y-37330511D01*
X40055843Y-37244990D01*
X40229452Y-37192326D01*
X40319655Y-37183442D01*
X40364755Y-37179000D01*
X40915245Y-37179000D01*
X40960345Y-37183442D01*
G37*
G36*
X134183543Y-34704990D02*
G01*
X134321579Y-34732447D01*
X134622042Y-34856903D01*
X134892451Y-35037585D01*
X135122415Y-35267549D01*
X135205418Y-35391772D01*
X135303098Y-35537960D01*
X135310647Y-35556185D01*
X135387013Y-35740548D01*
X135427553Y-35838422D01*
X135491000Y-36157389D01*
X135491000Y-36482611D01*
X135471275Y-36581772D01*
X135427553Y-36801579D01*
X135303097Y-37102042D01*
X135122415Y-37372451D01*
X134892451Y-37602415D01*
X134622042Y-37783097D01*
X134321579Y-37907553D01*
X134215256Y-37928702D01*
X134002611Y-37971000D01*
X133677389Y-37971000D01*
X133464744Y-37928702D01*
X133358421Y-37907553D01*
X133057958Y-37783097D01*
X132787549Y-37602415D01*
X132557585Y-37372451D01*
X132376903Y-37102042D01*
X132252447Y-36801579D01*
X132208725Y-36581772D01*
X132189000Y-36482611D01*
X132189000Y-36157389D01*
X132252447Y-35838422D01*
X132292988Y-35740548D01*
X132369353Y-35556185D01*
X132376902Y-35537960D01*
X132474582Y-35391772D01*
X132557585Y-35267549D01*
X132787549Y-35037585D01*
X133057958Y-34856903D01*
X133358421Y-34732447D01*
X133496457Y-34704990D01*
X133677389Y-34669000D01*
X134002611Y-34669000D01*
X134183543Y-34704990D01*
G37*
G36*
X32583543Y-34704990D02*
G01*
X32721579Y-34732447D01*
X33022042Y-34856903D01*
X33292451Y-35037585D01*
X33522415Y-35267549D01*
X33605418Y-35391772D01*
X33703098Y-35537960D01*
X33710647Y-35556185D01*
X33787013Y-35740548D01*
X33827553Y-35838422D01*
X33891000Y-36157389D01*
X33891000Y-36482611D01*
X33871275Y-36581772D01*
X33827553Y-36801579D01*
X33703097Y-37102042D01*
X33522415Y-37372451D01*
X33292451Y-37602415D01*
X33022042Y-37783097D01*
X32721579Y-37907553D01*
X32615256Y-37928702D01*
X32402611Y-37971000D01*
X32077389Y-37971000D01*
X31864744Y-37928702D01*
X31758421Y-37907553D01*
X31457958Y-37783097D01*
X31187549Y-37602415D01*
X30957585Y-37372451D01*
X30776903Y-37102042D01*
X30652447Y-36801579D01*
X30608725Y-36581772D01*
X30589000Y-36482611D01*
X30589000Y-36157389D01*
X30652447Y-35838422D01*
X30692988Y-35740548D01*
X30769353Y-35556185D01*
X30776902Y-35537960D01*
X30874582Y-35391772D01*
X30957585Y-35267549D01*
X31187549Y-35037585D01*
X31457958Y-34856903D01*
X31758421Y-34732447D01*
X31896457Y-34704990D01*
X32077389Y-34669000D01*
X32402611Y-34669000D01*
X32583543Y-34704990D01*
G37*
G36*
X53660345Y-35913442D02*
G01*
X53750548Y-35922326D01*
X53924157Y-35974990D01*
X54084156Y-36060511D01*
X54102850Y-36075853D01*
X54224397Y-36175603D01*
X54303729Y-36272271D01*
X54339489Y-36315844D01*
X54425010Y-36475843D01*
X54477674Y-36649452D01*
X54495456Y-36830000D01*
X54477674Y-37010548D01*
X54425010Y-37184157D01*
X54339489Y-37344156D01*
X54316244Y-37372480D01*
X54224397Y-37484397D01*
X54127729Y-37563729D01*
X54084156Y-37599489D01*
X53924157Y-37685010D01*
X53750548Y-37737674D01*
X53667625Y-37745841D01*
X53615245Y-37751000D01*
X53064755Y-37751000D01*
X53012375Y-37745841D01*
X52929452Y-37737674D01*
X52755843Y-37685010D01*
X52595844Y-37599489D01*
X52552271Y-37563729D01*
X52455603Y-37484397D01*
X52363756Y-37372480D01*
X52340511Y-37344156D01*
X52254990Y-37184157D01*
X52202326Y-37010548D01*
X52184544Y-36830000D01*
X52202326Y-36649452D01*
X52254990Y-36475843D01*
X52340511Y-36315844D01*
X52376271Y-36272271D01*
X52455603Y-36175603D01*
X52577150Y-36075853D01*
X52595844Y-36060511D01*
X52755843Y-35974990D01*
X52929452Y-35922326D01*
X53019655Y-35913442D01*
X53064755Y-35909000D01*
X53615245Y-35909000D01*
X53660345Y-35913442D01*
G37*
G36*
X68066228Y-36011703D02*
G01*
X68221100Y-36075853D01*
X68360481Y-36168985D01*
X68479015Y-36287519D01*
X68572147Y-36426900D01*
X68636297Y-36581772D01*
X68669000Y-36746184D01*
X68669000Y-36913816D01*
X68636297Y-37078228D01*
X68572147Y-37233100D01*
X68479015Y-37372481D01*
X68360481Y-37491015D01*
X68221100Y-37584147D01*
X68066228Y-37648297D01*
X67901816Y-37681000D01*
X67734184Y-37681000D01*
X67569772Y-37648297D01*
X67414900Y-37584147D01*
X67275519Y-37491015D01*
X67156985Y-37372481D01*
X67063853Y-37233100D01*
X66999703Y-37078228D01*
X66967000Y-36913816D01*
X66967000Y-36746184D01*
X66999703Y-36581772D01*
X67063853Y-36426900D01*
X67156985Y-36287519D01*
X67275519Y-36168985D01*
X67414900Y-36075853D01*
X67569772Y-36011703D01*
X67734184Y-35979000D01*
X67901816Y-35979000D01*
X68066228Y-36011703D01*
G37*
G36*
X60446228Y-36011703D02*
G01*
X60601100Y-36075853D01*
X60740481Y-36168985D01*
X60859015Y-36287519D01*
X60952147Y-36426900D01*
X61016297Y-36581772D01*
X61049000Y-36746184D01*
X61049000Y-36913816D01*
X61016297Y-37078228D01*
X60952147Y-37233100D01*
X60859015Y-37372481D01*
X60740481Y-37491015D01*
X60601100Y-37584147D01*
X60446228Y-37648297D01*
X60281816Y-37681000D01*
X60114184Y-37681000D01*
X59949772Y-37648297D01*
X59794900Y-37584147D01*
X59655519Y-37491015D01*
X59536985Y-37372481D01*
X59443853Y-37233100D01*
X59379703Y-37078228D01*
X59347000Y-36913816D01*
X59347000Y-36746184D01*
X59379703Y-36581772D01*
X59443853Y-36426900D01*
X59536985Y-36287519D01*
X59655519Y-36168985D01*
X59794900Y-36075853D01*
X59949772Y-36011703D01*
X60114184Y-35979000D01*
X60281816Y-35979000D01*
X60446228Y-36011703D01*
G37*
G36*
X47238228Y-34821703D02*
G01*
X47393100Y-34885853D01*
X47532481Y-34978985D01*
X47651015Y-35097519D01*
X47744147Y-35236900D01*
X47808297Y-35391772D01*
X47841000Y-35556184D01*
X47841000Y-35723816D01*
X47808297Y-35888228D01*
X47744147Y-36043100D01*
X47651015Y-36182481D01*
X47532481Y-36301015D01*
X47393100Y-36394147D01*
X47238228Y-36458297D01*
X47073816Y-36491000D01*
X46906184Y-36491000D01*
X46741772Y-36458297D01*
X46586900Y-36394147D01*
X46447519Y-36301015D01*
X46328985Y-36182481D01*
X46235853Y-36043100D01*
X46171703Y-35888228D01*
X46139000Y-35723816D01*
X46139000Y-35556184D01*
X46171703Y-35391772D01*
X46235853Y-35236900D01*
X46328985Y-35097519D01*
X46447519Y-34978985D01*
X46586900Y-34885853D01*
X46741772Y-34821703D01*
X46906184Y-34789000D01*
X47073816Y-34789000D01*
X47238228Y-34821703D01*
G37*
G36*
X40960345Y-34643442D02*
G01*
X41050548Y-34652326D01*
X41224157Y-34704990D01*
X41384156Y-34790511D01*
X41422163Y-34821703D01*
X41524397Y-34905603D01*
X41584619Y-34978985D01*
X41639489Y-35045844D01*
X41685878Y-35132632D01*
X41720325Y-35197077D01*
X41725010Y-35205843D01*
X41777674Y-35379452D01*
X41795456Y-35560000D01*
X41777674Y-35740548D01*
X41725010Y-35914157D01*
X41639489Y-36074156D01*
X41638096Y-36075853D01*
X41524397Y-36214397D01*
X41435296Y-36287519D01*
X41384156Y-36329489D01*
X41224157Y-36415010D01*
X41050548Y-36467674D01*
X40967625Y-36475841D01*
X40915245Y-36481000D01*
X40364755Y-36481000D01*
X40312375Y-36475841D01*
X40229452Y-36467674D01*
X40055843Y-36415010D01*
X39895844Y-36329489D01*
X39844704Y-36287519D01*
X39755603Y-36214397D01*
X39641904Y-36075853D01*
X39640511Y-36074156D01*
X39554990Y-35914157D01*
X39502326Y-35740548D01*
X39484544Y-35560000D01*
X39502326Y-35379452D01*
X39554990Y-35205843D01*
X39559676Y-35197077D01*
X39594122Y-35132632D01*
X39640511Y-35045844D01*
X39695381Y-34978985D01*
X39755603Y-34905603D01*
X39857837Y-34821703D01*
X39895844Y-34790511D01*
X40055843Y-34704990D01*
X40229452Y-34652326D01*
X40319655Y-34643442D01*
X40364755Y-34639000D01*
X40915245Y-34639000D01*
X40960345Y-34643442D01*
G37*
G36*
X54349561Y-33372966D02*
G01*
X54382383Y-33382923D01*
X54412632Y-33399092D01*
X54439148Y-33420852D01*
X54460908Y-33447368D01*
X54477077Y-33477617D01*
X54487034Y-33510439D01*
X54491000Y-33550713D01*
X54491000Y-35029287D01*
X54487034Y-35069561D01*
X54477077Y-35102383D01*
X54460908Y-35132632D01*
X54439148Y-35159148D01*
X54412632Y-35180908D01*
X54382383Y-35197077D01*
X54349561Y-35207034D01*
X54309287Y-35211000D01*
X52370713Y-35211000D01*
X52330439Y-35207034D01*
X52297617Y-35197077D01*
X52267368Y-35180908D01*
X52240852Y-35159148D01*
X52219092Y-35132632D01*
X52202923Y-35102383D01*
X52192966Y-35069561D01*
X52189000Y-35029287D01*
X52189000Y-33550713D01*
X52192966Y-33510439D01*
X52202923Y-33477617D01*
X52219092Y-33447368D01*
X52240852Y-33420852D01*
X52267368Y-33399092D01*
X52297617Y-33382923D01*
X52330439Y-33372966D01*
X52370713Y-33369000D01*
X54309287Y-33369000D01*
X54349561Y-33372966D01*
G37*
G36*
X61049000Y-35141000D02*
G01*
X59347000Y-35141000D01*
X59347000Y-33439000D01*
X61049000Y-33439000D01*
X61049000Y-35141000D01*
G37*
G36*
X68066228Y-33471703D02*
G01*
X68221100Y-33535853D01*
X68360481Y-33628985D01*
X68479015Y-33747519D01*
X68572147Y-33886900D01*
X68636297Y-34041772D01*
X68669000Y-34206184D01*
X68669000Y-34373816D01*
X68636297Y-34538228D01*
X68572147Y-34693100D01*
X68479015Y-34832481D01*
X68360481Y-34951015D01*
X68221100Y-35044147D01*
X68066228Y-35108297D01*
X67901816Y-35141000D01*
X67734184Y-35141000D01*
X67569772Y-35108297D01*
X67414900Y-35044147D01*
X67275519Y-34951015D01*
X67156985Y-34832481D01*
X67063853Y-34693100D01*
X66999703Y-34538228D01*
X66967000Y-34373816D01*
X66967000Y-34206184D01*
X66999703Y-34041772D01*
X67063853Y-33886900D01*
X67156985Y-33747519D01*
X67275519Y-33628985D01*
X67414900Y-33535853D01*
X67569772Y-33471703D01*
X67734184Y-33439000D01*
X67901816Y-33439000D01*
X68066228Y-33471703D01*
G37*
G36*
X71622228Y-32883703D02*
G01*
X71777100Y-32947853D01*
X71916481Y-33040985D01*
X72035015Y-33159519D01*
X72128147Y-33298900D01*
X72192297Y-33453772D01*
X72225000Y-33618184D01*
X72225000Y-33785816D01*
X72192297Y-33950228D01*
X72128147Y-34105100D01*
X72035015Y-34244481D01*
X71916481Y-34363015D01*
X71777100Y-34456147D01*
X71622228Y-34520297D01*
X71457816Y-34553000D01*
X71290184Y-34553000D01*
X71125772Y-34520297D01*
X70970900Y-34456147D01*
X70831519Y-34363015D01*
X70712985Y-34244481D01*
X70619853Y-34105100D01*
X70555703Y-33950228D01*
X70523000Y-33785816D01*
X70523000Y-33618184D01*
X70555703Y-33453772D01*
X70619853Y-33298900D01*
X70712985Y-33159519D01*
X70831519Y-33040985D01*
X70970900Y-32947853D01*
X71125772Y-32883703D01*
X71290184Y-32851000D01*
X71457816Y-32851000D01*
X71622228Y-32883703D01*
G37*
G36*
X41649561Y-32102966D02*
G01*
X41682383Y-32112923D01*
X41712632Y-32129092D01*
X41739148Y-32150852D01*
X41760908Y-32177368D01*
X41777077Y-32207617D01*
X41787034Y-32240439D01*
X41791000Y-32280713D01*
X41791000Y-33759287D01*
X41787034Y-33799561D01*
X41777077Y-33832383D01*
X41760908Y-33862632D01*
X41739148Y-33889148D01*
X41712632Y-33910908D01*
X41682383Y-33927077D01*
X41649561Y-33937034D01*
X41609287Y-33941000D01*
X39670713Y-33941000D01*
X39630439Y-33937034D01*
X39597617Y-33927077D01*
X39567368Y-33910908D01*
X39540852Y-33889148D01*
X39519092Y-33862632D01*
X39502923Y-33832383D01*
X39492966Y-33799561D01*
X39489000Y-33759287D01*
X39489000Y-32280713D01*
X39492966Y-32240439D01*
X39502923Y-32207617D01*
X39519092Y-32177368D01*
X39540852Y-32150852D01*
X39567368Y-32129092D01*
X39597617Y-32112923D01*
X39630439Y-32102966D01*
X39670713Y-32099000D01*
X41609287Y-32099000D01*
X41649561Y-32102966D01*
G37*
G36*
X78886600Y-32122989D02*
G01*
X78919652Y-32133015D01*
X78950103Y-32149292D01*
X78976799Y-32171201D01*
X78998708Y-32197897D01*
X79014985Y-32228348D01*
X79025011Y-32261400D01*
X79029000Y-32301903D01*
X79029000Y-33738097D01*
X79025011Y-33778600D01*
X79014985Y-33811652D01*
X78998708Y-33842103D01*
X78976799Y-33868799D01*
X78950103Y-33890708D01*
X78919652Y-33906985D01*
X78886600Y-33917011D01*
X78846097Y-33921000D01*
X77109903Y-33921000D01*
X77069400Y-33917011D01*
X77036348Y-33906985D01*
X77005897Y-33890708D01*
X76979201Y-33868799D01*
X76957292Y-33842103D01*
X76941015Y-33811652D01*
X76930989Y-33778600D01*
X76927000Y-33738097D01*
X76927000Y-32301903D01*
X76930989Y-32261400D01*
X76941015Y-32228348D01*
X76957292Y-32197897D01*
X76979201Y-32171201D01*
X77005897Y-32149292D01*
X77036348Y-32133015D01*
X77069400Y-32122989D01*
X77109903Y-32119000D01*
X78846097Y-32119000D01*
X78886600Y-32122989D01*
G37*
G36*
X85744600Y-32122989D02*
G01*
X85777652Y-32133015D01*
X85808103Y-32149292D01*
X85834799Y-32171201D01*
X85856708Y-32197897D01*
X85872985Y-32228348D01*
X85883011Y-32261400D01*
X85887000Y-32301903D01*
X85887000Y-33738097D01*
X85883011Y-33778600D01*
X85872985Y-33811652D01*
X85856708Y-33842103D01*
X85834799Y-33868799D01*
X85808103Y-33890708D01*
X85777652Y-33906985D01*
X85744600Y-33917011D01*
X85704097Y-33921000D01*
X83967903Y-33921000D01*
X83927400Y-33917011D01*
X83894348Y-33906985D01*
X83863897Y-33890708D01*
X83837201Y-33868799D01*
X83815292Y-33842103D01*
X83799015Y-33811652D01*
X83788989Y-33778600D01*
X83785000Y-33738097D01*
X83785000Y-32301903D01*
X83788989Y-32261400D01*
X83799015Y-32228348D01*
X83815292Y-32197897D01*
X83837201Y-32171201D01*
X83863897Y-32149292D01*
X83894348Y-32133015D01*
X83927400Y-32122989D01*
X83967903Y-32119000D01*
X85704097Y-32119000D01*
X85744600Y-32122989D01*
G37*
G36*
X91688228Y-32201703D02*
G01*
X91843100Y-32265853D01*
X91982481Y-32358985D01*
X92101015Y-32477519D01*
X92194147Y-32616900D01*
X92258297Y-32771772D01*
X92291000Y-32936184D01*
X92291000Y-33103816D01*
X92258297Y-33268228D01*
X92194147Y-33423100D01*
X92101015Y-33562481D01*
X91982481Y-33681015D01*
X91843100Y-33774147D01*
X91688228Y-33838297D01*
X91523816Y-33871000D01*
X91356184Y-33871000D01*
X91191772Y-33838297D01*
X91036900Y-33774147D01*
X90897519Y-33681015D01*
X90778985Y-33562481D01*
X90685853Y-33423100D01*
X90621703Y-33268228D01*
X90589000Y-33103816D01*
X90589000Y-32936184D01*
X90621703Y-32771772D01*
X90685853Y-32616900D01*
X90778985Y-32477519D01*
X90897519Y-32358985D01*
X91036900Y-32265853D01*
X91191772Y-32201703D01*
X91356184Y-32169000D01*
X91523816Y-32169000D01*
X91688228Y-32201703D01*
G37*
G36*
X104388228Y-32201703D02*
G01*
X104543100Y-32265853D01*
X104682481Y-32358985D01*
X104801015Y-32477519D01*
X104894147Y-32616900D01*
X104958297Y-32771772D01*
X104991000Y-32936184D01*
X104991000Y-33103816D01*
X104958297Y-33268228D01*
X104894147Y-33423100D01*
X104801015Y-33562481D01*
X104682481Y-33681015D01*
X104543100Y-33774147D01*
X104388228Y-33838297D01*
X104223816Y-33871000D01*
X104056184Y-33871000D01*
X103891772Y-33838297D01*
X103736900Y-33774147D01*
X103597519Y-33681015D01*
X103478985Y-33562481D01*
X103385853Y-33423100D01*
X103321703Y-33268228D01*
X103289000Y-33103816D01*
X103289000Y-32936184D01*
X103321703Y-32771772D01*
X103385853Y-32616900D01*
X103478985Y-32477519D01*
X103597519Y-32358985D01*
X103736900Y-32265853D01*
X103891772Y-32201703D01*
X104056184Y-32169000D01*
X104223816Y-32169000D01*
X104388228Y-32201703D01*
G37*
G36*
X130053481Y-28950228D02*
G01*
X130246410Y-28988604D01*
X130528674Y-29105521D01*
X130782705Y-29275259D01*
X130998741Y-29491295D01*
X131168479Y-29745326D01*
X131285396Y-30027590D01*
X131314426Y-30173532D01*
X131345000Y-30327239D01*
X131345000Y-30632761D01*
X131332296Y-30696627D01*
X131285396Y-30932410D01*
X131168479Y-31214674D01*
X130998741Y-31468705D01*
X130782705Y-31684741D01*
X130528674Y-31854479D01*
X130246410Y-31971396D01*
X130096585Y-32001198D01*
X129946761Y-32031000D01*
X129641239Y-32031000D01*
X129491415Y-32001198D01*
X129341590Y-31971396D01*
X129059326Y-31854479D01*
X128805295Y-31684741D01*
X128589259Y-31468705D01*
X128419521Y-31214674D01*
X128302604Y-30932410D01*
X128255704Y-30696627D01*
X128243000Y-30632761D01*
X128243000Y-30327239D01*
X128273574Y-30173532D01*
X128302604Y-30027590D01*
X128419521Y-29745326D01*
X128589259Y-29491295D01*
X128805295Y-29275259D01*
X129059326Y-29105521D01*
X129341590Y-28988604D01*
X129534519Y-28950228D01*
X129641239Y-28929000D01*
X129946761Y-28929000D01*
X130053481Y-28950228D01*
G37*
G36*
X107453481Y-28950228D02*
G01*
X107646410Y-28988604D01*
X107928674Y-29105521D01*
X108182705Y-29275259D01*
X108398741Y-29491295D01*
X108568479Y-29745326D01*
X108685396Y-30027590D01*
X108714426Y-30173532D01*
X108745000Y-30327239D01*
X108745000Y-30632761D01*
X108732296Y-30696627D01*
X108685396Y-30932410D01*
X108568479Y-31214674D01*
X108398741Y-31468705D01*
X108182705Y-31684741D01*
X107928674Y-31854479D01*
X107646410Y-31971396D01*
X107496585Y-32001198D01*
X107346761Y-32031000D01*
X107041239Y-32031000D01*
X106891415Y-32001198D01*
X106741590Y-31971396D01*
X106459326Y-31854479D01*
X106205295Y-31684741D01*
X105989259Y-31468705D01*
X105819521Y-31214674D01*
X105702604Y-30932410D01*
X105655704Y-30696627D01*
X105643000Y-30632761D01*
X105643000Y-30327239D01*
X105673574Y-30173532D01*
X105702604Y-30027590D01*
X105819521Y-29745326D01*
X105989259Y-29491295D01*
X106205295Y-29275259D01*
X106459326Y-29105521D01*
X106741590Y-28988604D01*
X106934519Y-28950228D01*
X107041239Y-28929000D01*
X107346761Y-28929000D01*
X107453481Y-28950228D01*
G37*
G36*
X85096443Y-29625519D02*
G01*
X85162627Y-29632037D01*
X85332466Y-29683557D01*
X85488991Y-29767222D01*
X85513987Y-29787736D01*
X85626186Y-29879814D01*
X85695395Y-29964147D01*
X85738778Y-30017009D01*
X85822443Y-30173534D01*
X85873963Y-30343373D01*
X85891359Y-30520000D01*
X85873963Y-30696627D01*
X85822443Y-30866466D01*
X85738778Y-31022991D01*
X85709448Y-31058729D01*
X85626186Y-31160186D01*
X85524729Y-31243448D01*
X85488991Y-31272778D01*
X85332466Y-31356443D01*
X85162627Y-31407963D01*
X85096443Y-31414481D01*
X85030260Y-31421000D01*
X84641740Y-31421000D01*
X84575557Y-31414481D01*
X84509373Y-31407963D01*
X84339534Y-31356443D01*
X84183009Y-31272778D01*
X84147271Y-31243448D01*
X84045814Y-31160186D01*
X83962552Y-31058729D01*
X83933222Y-31022991D01*
X83849557Y-30866466D01*
X83798037Y-30696627D01*
X83780641Y-30520000D01*
X83798037Y-30343373D01*
X83849557Y-30173534D01*
X83933222Y-30017009D01*
X83976605Y-29964147D01*
X84045814Y-29879814D01*
X84158013Y-29787736D01*
X84183009Y-29767222D01*
X84339534Y-29683557D01*
X84509373Y-29632037D01*
X84575557Y-29625519D01*
X84641740Y-29619000D01*
X85030260Y-29619000D01*
X85096443Y-29625519D01*
G37*
G36*
X78238443Y-29625519D02*
G01*
X78304627Y-29632037D01*
X78474466Y-29683557D01*
X78630991Y-29767222D01*
X78655987Y-29787736D01*
X78768186Y-29879814D01*
X78837395Y-29964147D01*
X78880778Y-30017009D01*
X78964443Y-30173534D01*
X79015963Y-30343373D01*
X79033359Y-30520000D01*
X79015963Y-30696627D01*
X78964443Y-30866466D01*
X78880778Y-31022991D01*
X78851448Y-31058729D01*
X78768186Y-31160186D01*
X78666729Y-31243448D01*
X78630991Y-31272778D01*
X78474466Y-31356443D01*
X78304627Y-31407963D01*
X78238443Y-31414481D01*
X78172260Y-31421000D01*
X77783740Y-31421000D01*
X77717557Y-31414481D01*
X77651373Y-31407963D01*
X77481534Y-31356443D01*
X77325009Y-31272778D01*
X77289271Y-31243448D01*
X77187814Y-31160186D01*
X77104552Y-31058729D01*
X77075222Y-31022991D01*
X76991557Y-30866466D01*
X76940037Y-30696627D01*
X76922641Y-30520000D01*
X76940037Y-30343373D01*
X76991557Y-30173534D01*
X77075222Y-30017009D01*
X77118605Y-29964147D01*
X77187814Y-29879814D01*
X77300013Y-29787736D01*
X77325009Y-29767222D01*
X77481534Y-29683557D01*
X77651373Y-29632037D01*
X77717557Y-29625519D01*
X77783740Y-29619000D01*
X78172260Y-29619000D01*
X78238443Y-29625519D01*
G37*
G36*
X62478228Y-28391703D02*
G01*
X62633100Y-28455853D01*
X62772481Y-28548985D01*
X62891015Y-28667519D01*
X62984147Y-28806900D01*
X63048297Y-28961772D01*
X63081000Y-29126184D01*
X63081000Y-29293816D01*
X63048297Y-29458228D01*
X62984147Y-29613100D01*
X62891015Y-29752481D01*
X62772481Y-29871015D01*
X62633100Y-29964147D01*
X62478228Y-30028297D01*
X62313816Y-30061000D01*
X62146184Y-30061000D01*
X61981772Y-30028297D01*
X61826900Y-29964147D01*
X61687519Y-29871015D01*
X61568985Y-29752481D01*
X61475853Y-29613100D01*
X61411703Y-29458228D01*
X61379000Y-29293816D01*
X61379000Y-29126184D01*
X61411703Y-28961772D01*
X61475853Y-28806900D01*
X61568985Y-28667519D01*
X61687519Y-28548985D01*
X61826900Y-28455853D01*
X61981772Y-28391703D01*
X62146184Y-28359000D01*
X62313816Y-28359000D01*
X62478228Y-28391703D01*
G37*
G36*
X91688228Y-28391703D02*
G01*
X91843100Y-28455853D01*
X91982481Y-28548985D01*
X92101015Y-28667519D01*
X92194147Y-28806900D01*
X92258297Y-28961772D01*
X92291000Y-29126184D01*
X92291000Y-29293816D01*
X92258297Y-29458228D01*
X92194147Y-29613100D01*
X92101015Y-29752481D01*
X91982481Y-29871015D01*
X91843100Y-29964147D01*
X91688228Y-30028297D01*
X91523816Y-30061000D01*
X91356184Y-30061000D01*
X91191772Y-30028297D01*
X91036900Y-29964147D01*
X90897519Y-29871015D01*
X90778985Y-29752481D01*
X90685853Y-29613100D01*
X90621703Y-29458228D01*
X90589000Y-29293816D01*
X90589000Y-29126184D01*
X90621703Y-28961772D01*
X90685853Y-28806900D01*
X90778985Y-28667519D01*
X90897519Y-28548985D01*
X91036900Y-28455853D01*
X91191772Y-28391703D01*
X91356184Y-28359000D01*
X91523816Y-28359000D01*
X91688228Y-28391703D01*
G37*
G36*
X57906228Y-28391703D02*
G01*
X58061100Y-28455853D01*
X58200481Y-28548985D01*
X58319015Y-28667519D01*
X58412147Y-28806900D01*
X58476297Y-28961772D01*
X58509000Y-29126184D01*
X58509000Y-29293816D01*
X58476297Y-29458228D01*
X58412147Y-29613100D01*
X58319015Y-29752481D01*
X58200481Y-29871015D01*
X58061100Y-29964147D01*
X57906228Y-30028297D01*
X57741816Y-30061000D01*
X57574184Y-30061000D01*
X57409772Y-30028297D01*
X57254900Y-29964147D01*
X57115519Y-29871015D01*
X56996985Y-29752481D01*
X56903853Y-29613100D01*
X56839703Y-29458228D01*
X56807000Y-29293816D01*
X56807000Y-29126184D01*
X56839703Y-28961772D01*
X56903853Y-28806900D01*
X56996985Y-28667519D01*
X57115519Y-28548985D01*
X57254900Y-28455853D01*
X57409772Y-28391703D01*
X57574184Y-28359000D01*
X57741816Y-28359000D01*
X57906228Y-28391703D01*
G37*
G36*
X52906228Y-28391703D02*
G01*
X53061100Y-28455853D01*
X53200481Y-28548985D01*
X53319015Y-28667519D01*
X53412147Y-28806900D01*
X53476297Y-28961772D01*
X53509000Y-29126184D01*
X53509000Y-29293816D01*
X53476297Y-29458228D01*
X53412147Y-29613100D01*
X53319015Y-29752481D01*
X53200481Y-29871015D01*
X53061100Y-29964147D01*
X52906228Y-30028297D01*
X52741816Y-30061000D01*
X52574184Y-30061000D01*
X52409772Y-30028297D01*
X52254900Y-29964147D01*
X52115519Y-29871015D01*
X51996985Y-29752481D01*
X51903853Y-29613100D01*
X51839703Y-29458228D01*
X51807000Y-29293816D01*
X51807000Y-29126184D01*
X51839703Y-28961772D01*
X51903853Y-28806900D01*
X51996985Y-28667519D01*
X52115519Y-28548985D01*
X52254900Y-28455853D01*
X52409772Y-28391703D01*
X52574184Y-28359000D01*
X52741816Y-28359000D01*
X52906228Y-28391703D01*
G37*
G36*
X104388228Y-28391703D02*
G01*
X104543100Y-28455853D01*
X104682481Y-28548985D01*
X104801015Y-28667519D01*
X104894147Y-28806900D01*
X104958297Y-28961772D01*
X104991000Y-29126184D01*
X104991000Y-29293816D01*
X104958297Y-29458228D01*
X104894147Y-29613100D01*
X104801015Y-29752481D01*
X104682481Y-29871015D01*
X104543100Y-29964147D01*
X104388228Y-30028297D01*
X104223816Y-30061000D01*
X104056184Y-30061000D01*
X103891772Y-30028297D01*
X103736900Y-29964147D01*
X103597519Y-29871015D01*
X103478985Y-29752481D01*
X103385853Y-29613100D01*
X103321703Y-29458228D01*
X103289000Y-29293816D01*
X103289000Y-29126184D01*
X103321703Y-28961772D01*
X103385853Y-28806900D01*
X103478985Y-28667519D01*
X103597519Y-28548985D01*
X103736900Y-28455853D01*
X103891772Y-28391703D01*
X104056184Y-28359000D01*
X104223816Y-28359000D01*
X104388228Y-28391703D01*
G37*
G36*
X67478228Y-28391703D02*
G01*
X67633100Y-28455853D01*
X67772481Y-28548985D01*
X67891015Y-28667519D01*
X67984147Y-28806900D01*
X68048297Y-28961772D01*
X68081000Y-29126184D01*
X68081000Y-29293816D01*
X68048297Y-29458228D01*
X67984147Y-29613100D01*
X67891015Y-29752481D01*
X67772481Y-29871015D01*
X67633100Y-29964147D01*
X67478228Y-30028297D01*
X67313816Y-30061000D01*
X67146184Y-30061000D01*
X66981772Y-30028297D01*
X66826900Y-29964147D01*
X66687519Y-29871015D01*
X66568985Y-29752481D01*
X66475853Y-29613100D01*
X66411703Y-29458228D01*
X66379000Y-29293816D01*
X66379000Y-29126184D01*
X66411703Y-28961772D01*
X66475853Y-28806900D01*
X66568985Y-28667519D01*
X66687519Y-28548985D01*
X66826900Y-28455853D01*
X66981772Y-28391703D01*
X67146184Y-28359000D01*
X67313816Y-28359000D01*
X67478228Y-28391703D01*
G37*
G36*
X47102915Y-28417334D02*
G01*
X47211491Y-28450271D01*
X47211494Y-28450272D01*
X47247600Y-28469571D01*
X47311556Y-28503756D01*
X47399264Y-28575736D01*
X47471244Y-28663443D01*
X47505429Y-28727399D01*
X47524728Y-28763505D01*
X47524729Y-28763508D01*
X47557666Y-28872084D01*
X47566000Y-28956702D01*
X47566000Y-29463297D01*
X47557666Y-29547916D01*
X47525252Y-29654767D01*
X47524728Y-29656495D01*
X47514761Y-29675141D01*
X47471244Y-29756557D01*
X47399264Y-29844264D01*
X47311557Y-29916244D01*
X47247601Y-29950429D01*
X47211495Y-29969728D01*
X47211492Y-29969729D01*
X47102916Y-30002666D01*
X46990000Y-30013787D01*
X46877085Y-30002666D01*
X46768509Y-29969729D01*
X46768506Y-29969728D01*
X46732400Y-29950429D01*
X46668444Y-29916244D01*
X46580737Y-29844264D01*
X46508757Y-29756557D01*
X46469738Y-29683558D01*
X46465239Y-29675141D01*
X46451625Y-29654766D01*
X46434298Y-29637439D01*
X46413924Y-29623826D01*
X46391285Y-29614448D01*
X46367252Y-29609668D01*
X46342748Y-29609668D01*
X46318715Y-29614448D01*
X46296076Y-29623826D01*
X46275701Y-29637440D01*
X46258374Y-29654767D01*
X46244761Y-29675141D01*
X46201244Y-29756557D01*
X46129264Y-29844264D01*
X46041557Y-29916244D01*
X45977601Y-29950429D01*
X45941495Y-29969728D01*
X45941492Y-29969729D01*
X45832916Y-30002666D01*
X45720000Y-30013787D01*
X45607085Y-30002666D01*
X45498509Y-29969729D01*
X45498506Y-29969728D01*
X45462400Y-29950429D01*
X45398444Y-29916244D01*
X45310737Y-29844264D01*
X45247622Y-29767359D01*
X45230297Y-29750034D01*
X45209923Y-29736420D01*
X45187284Y-29727043D01*
X45163250Y-29722263D01*
X45138746Y-29722263D01*
X45114713Y-29727044D01*
X45092074Y-29736421D01*
X45071700Y-29750035D01*
X45054373Y-29767362D01*
X45040759Y-29787736D01*
X45031382Y-29810375D01*
X45026000Y-29846660D01*
X45026000Y-30011000D01*
X43874000Y-30011000D01*
X43874000Y-28409000D01*
X45026000Y-28409000D01*
X45026000Y-28573341D01*
X45028402Y-28597727D01*
X45035515Y-28621176D01*
X45047066Y-28642787D01*
X45062611Y-28661729D01*
X45081553Y-28677274D01*
X45103164Y-28688825D01*
X45126613Y-28695938D01*
X45150999Y-28698340D01*
X45175385Y-28695938D01*
X45198834Y-28688825D01*
X45220445Y-28677274D01*
X45239387Y-28661729D01*
X45247608Y-28652657D01*
X45310736Y-28575736D01*
X45398443Y-28503756D01*
X45462399Y-28469571D01*
X45498505Y-28450272D01*
X45498508Y-28450271D01*
X45607084Y-28417334D01*
X45720000Y-28406213D01*
X45832915Y-28417334D01*
X45941491Y-28450271D01*
X45941494Y-28450272D01*
X45977600Y-28469571D01*
X46041556Y-28503756D01*
X46129264Y-28575736D01*
X46201244Y-28663443D01*
X46244761Y-28744859D01*
X46258375Y-28765234D01*
X46275702Y-28782561D01*
X46296076Y-28796174D01*
X46318715Y-28805552D01*
X46342748Y-28810332D01*
X46367252Y-28810332D01*
X46391285Y-28805552D01*
X46413924Y-28796174D01*
X46434299Y-28782560D01*
X46451626Y-28765233D01*
X46465239Y-28744860D01*
X46508756Y-28663444D01*
X46580736Y-28575736D01*
X46668443Y-28503756D01*
X46732399Y-28469571D01*
X46768505Y-28450272D01*
X46768508Y-28450271D01*
X46877084Y-28417334D01*
X46990000Y-28406213D01*
X47102915Y-28417334D01*
G37*
G36*
X71622228Y-27883703D02*
G01*
X71777100Y-27947853D01*
X71916481Y-28040985D01*
X72035015Y-28159519D01*
X72128147Y-28298900D01*
X72192297Y-28453772D01*
X72225000Y-28618184D01*
X72225000Y-28785816D01*
X72192297Y-28950228D01*
X72128147Y-29105100D01*
X72035015Y-29244481D01*
X71916481Y-29363015D01*
X71777100Y-29456147D01*
X71622228Y-29520297D01*
X71457816Y-29553000D01*
X71290184Y-29553000D01*
X71125772Y-29520297D01*
X70970900Y-29456147D01*
X70831519Y-29363015D01*
X70712985Y-29244481D01*
X70619853Y-29105100D01*
X70555703Y-28950228D01*
X70523000Y-28785816D01*
X70523000Y-28618184D01*
X70555703Y-28453772D01*
X70619853Y-28298900D01*
X70712985Y-28159519D01*
X70831519Y-28040985D01*
X70970900Y-27947853D01*
X71125772Y-27883703D01*
X71290184Y-27851000D01*
X71457816Y-27851000D01*
X71622228Y-27883703D01*
G37*
M02*
